G04 EAGLE Gerber RS-274X export*
G75*
%MOMM*%
%FSLAX34Y34*%
%LPD*%
%INSolderpaste Top*%
%IPPOS*%
%AMOC8*
5,1,8,0,0,1.08239X$1,22.5*%
G01*
%ADD10R,1.300000X1.500000*%
%ADD11R,1.500000X1.300000*%
%ADD12R,1.200000X0.550000*%
%ADD13R,1.475000X0.300000*%
%ADD14R,0.300000X1.475000*%
%ADD15R,1.900000X1.100000*%


D10*
X166980Y292100D03*
X147980Y292100D03*
X166980Y215900D03*
X147980Y215900D03*
D11*
X228600Y346100D03*
X228600Y365100D03*
D10*
X219100Y58420D03*
X238100Y58420D03*
D11*
X203200Y346100D03*
X203200Y365100D03*
X279400Y320700D03*
X279400Y339700D03*
X254000Y346100D03*
X254000Y365100D03*
D12*
X164799Y73000D03*
X164799Y63500D03*
X164799Y54000D03*
X190801Y54000D03*
X190801Y73000D03*
D13*
X224320Y268800D03*
X224320Y263800D03*
X224320Y258800D03*
X224320Y253800D03*
X224320Y248800D03*
X224320Y243800D03*
X224320Y238800D03*
X224320Y233800D03*
X224320Y228800D03*
X224320Y223800D03*
X224320Y218800D03*
X224320Y213800D03*
D14*
X239200Y198920D03*
X244200Y198920D03*
X249200Y198920D03*
X254200Y198920D03*
X259200Y198920D03*
X264200Y198920D03*
X269200Y198920D03*
X274200Y198920D03*
X279200Y198920D03*
X284200Y198920D03*
X289200Y198920D03*
X294200Y198920D03*
D13*
X309080Y213800D03*
X309080Y218800D03*
X309080Y223800D03*
X309080Y228800D03*
X309080Y233800D03*
X309080Y238800D03*
X309080Y243800D03*
X309080Y248800D03*
X309080Y253800D03*
X309080Y258800D03*
X309080Y263800D03*
X309080Y268800D03*
D14*
X294200Y283680D03*
X289200Y283680D03*
X284200Y283680D03*
X279200Y283680D03*
X274200Y283680D03*
X269200Y283680D03*
X264200Y283680D03*
X259200Y283680D03*
X254200Y283680D03*
X249200Y283680D03*
X244200Y283680D03*
X239200Y283680D03*
D11*
X330200Y320700D03*
X330200Y339700D03*
X304800Y339700D03*
X304800Y320700D03*
D15*
X165100Y266500D03*
X165100Y241500D03*
M02*
