G04 EAGLE Gerber RS-274X export*
G75*
%MOMM*%
%FSLAX34Y34*%
%LPD*%
%IN*%
%IPPOS*%
%AMOC8*
5,1,8,0,0,1.08239X$1,22.5*%
G01*
%ADD10C,0.254000*%


D10*
X-12700Y596900D02*
X199900Y596900D01*
X199900Y800000D01*
X-12700Y800000D01*
X-12700Y596900D01*
X27700Y774164D02*
X27624Y773096D01*
X27471Y772035D01*
X27243Y770988D01*
X26941Y769960D01*
X26567Y768956D01*
X26122Y767981D01*
X25608Y767041D01*
X25029Y766140D01*
X24387Y765282D01*
X23685Y764472D01*
X22928Y763715D01*
X22118Y763013D01*
X21260Y762371D01*
X20359Y761792D01*
X19419Y761278D01*
X18444Y760833D01*
X17440Y760459D01*
X16412Y760157D01*
X15365Y759929D01*
X14304Y759776D01*
X13236Y759700D01*
X12164Y759700D01*
X11096Y759776D01*
X10035Y759929D01*
X8988Y760157D01*
X7960Y760459D01*
X6956Y760833D01*
X5981Y761278D01*
X5041Y761792D01*
X4140Y762371D01*
X3282Y763013D01*
X2472Y763715D01*
X1715Y764472D01*
X1013Y765282D01*
X371Y766140D01*
X-208Y767041D01*
X-722Y767981D01*
X-1167Y768956D01*
X-1541Y769960D01*
X-1843Y770988D01*
X-2071Y772035D01*
X-2224Y773096D01*
X-2300Y774164D01*
X-2300Y775236D01*
X-2224Y776304D01*
X-2071Y777365D01*
X-1843Y778412D01*
X-1541Y779440D01*
X-1167Y780444D01*
X-722Y781419D01*
X-208Y782359D01*
X371Y783260D01*
X1013Y784118D01*
X1715Y784928D01*
X2472Y785685D01*
X3282Y786387D01*
X4140Y787029D01*
X5041Y787608D01*
X5981Y788122D01*
X6956Y788567D01*
X7960Y788941D01*
X8988Y789243D01*
X10035Y789471D01*
X11096Y789624D01*
X12164Y789700D01*
X13236Y789700D01*
X14304Y789624D01*
X15365Y789471D01*
X16412Y789243D01*
X17440Y788941D01*
X18444Y788567D01*
X19419Y788122D01*
X20359Y787608D01*
X21260Y787029D01*
X22118Y786387D01*
X22928Y785685D01*
X23685Y784928D01*
X24387Y784118D01*
X25029Y783260D01*
X25608Y782359D01*
X26122Y781419D01*
X26567Y780444D01*
X26941Y779440D01*
X27243Y778412D01*
X27471Y777365D01*
X27624Y776304D01*
X27700Y775236D01*
X27700Y774164D01*
X192800Y621764D02*
X192724Y620696D01*
X192571Y619635D01*
X192343Y618588D01*
X192041Y617560D01*
X191667Y616556D01*
X191222Y615581D01*
X190708Y614641D01*
X190129Y613740D01*
X189487Y612882D01*
X188785Y612072D01*
X188028Y611315D01*
X187218Y610613D01*
X186360Y609971D01*
X185459Y609392D01*
X184519Y608878D01*
X183544Y608433D01*
X182540Y608059D01*
X181512Y607757D01*
X180465Y607529D01*
X179404Y607376D01*
X178336Y607300D01*
X177264Y607300D01*
X176196Y607376D01*
X175135Y607529D01*
X174088Y607757D01*
X173060Y608059D01*
X172056Y608433D01*
X171081Y608878D01*
X170141Y609392D01*
X169240Y609971D01*
X168382Y610613D01*
X167572Y611315D01*
X166815Y612072D01*
X166113Y612882D01*
X165471Y613740D01*
X164892Y614641D01*
X164378Y615581D01*
X163933Y616556D01*
X163559Y617560D01*
X163257Y618588D01*
X163029Y619635D01*
X162876Y620696D01*
X162800Y621764D01*
X162800Y622836D01*
X162876Y623904D01*
X163029Y624965D01*
X163257Y626012D01*
X163559Y627040D01*
X163933Y628044D01*
X164378Y629019D01*
X164892Y629959D01*
X165471Y630860D01*
X166113Y631718D01*
X166815Y632528D01*
X167572Y633285D01*
X168382Y633987D01*
X169240Y634629D01*
X170141Y635208D01*
X171081Y635722D01*
X172056Y636167D01*
X173060Y636541D01*
X174088Y636843D01*
X175135Y637071D01*
X176196Y637224D01*
X177264Y637300D01*
X178336Y637300D01*
X179404Y637224D01*
X180465Y637071D01*
X181512Y636843D01*
X182540Y636541D01*
X183544Y636167D01*
X184519Y635722D01*
X185459Y635208D01*
X186360Y634629D01*
X187218Y633987D01*
X188028Y633285D01*
X188785Y632528D01*
X189487Y631718D01*
X190129Y630860D01*
X190708Y629959D01*
X191222Y629019D01*
X191667Y628044D01*
X192041Y627040D01*
X192343Y626012D01*
X192571Y624965D01*
X192724Y623904D01*
X192800Y622836D01*
X192800Y621764D01*
X192800Y774164D02*
X192724Y773096D01*
X192571Y772035D01*
X192343Y770988D01*
X192041Y769960D01*
X191667Y768956D01*
X191222Y767981D01*
X190708Y767041D01*
X190129Y766140D01*
X189487Y765282D01*
X188785Y764472D01*
X188028Y763715D01*
X187218Y763013D01*
X186360Y762371D01*
X185459Y761792D01*
X184519Y761278D01*
X183544Y760833D01*
X182540Y760459D01*
X181512Y760157D01*
X180465Y759929D01*
X179404Y759776D01*
X178336Y759700D01*
X177264Y759700D01*
X176196Y759776D01*
X175135Y759929D01*
X174088Y760157D01*
X173060Y760459D01*
X172056Y760833D01*
X171081Y761278D01*
X170141Y761792D01*
X169240Y762371D01*
X168382Y763013D01*
X167572Y763715D01*
X166815Y764472D01*
X166113Y765282D01*
X165471Y766140D01*
X164892Y767041D01*
X164378Y767981D01*
X163933Y768956D01*
X163559Y769960D01*
X163257Y770988D01*
X163029Y772035D01*
X162876Y773096D01*
X162800Y774164D01*
X162800Y775236D01*
X162876Y776304D01*
X163029Y777365D01*
X163257Y778412D01*
X163559Y779440D01*
X163933Y780444D01*
X164378Y781419D01*
X164892Y782359D01*
X165471Y783260D01*
X166113Y784118D01*
X166815Y784928D01*
X167572Y785685D01*
X168382Y786387D01*
X169240Y787029D01*
X170141Y787608D01*
X171081Y788122D01*
X172056Y788567D01*
X173060Y788941D01*
X174088Y789243D01*
X175135Y789471D01*
X176196Y789624D01*
X177264Y789700D01*
X178336Y789700D01*
X179404Y789624D01*
X180465Y789471D01*
X181512Y789243D01*
X182540Y788941D01*
X183544Y788567D01*
X184519Y788122D01*
X185459Y787608D01*
X186360Y787029D01*
X187218Y786387D01*
X188028Y785685D01*
X188785Y784928D01*
X189487Y784118D01*
X190129Y783260D01*
X190708Y782359D01*
X191222Y781419D01*
X191667Y780444D01*
X192041Y779440D01*
X192343Y778412D01*
X192571Y777365D01*
X192724Y776304D01*
X192800Y775236D01*
X192800Y774164D01*
X27700Y621764D02*
X27624Y620696D01*
X27471Y619635D01*
X27243Y618588D01*
X26941Y617560D01*
X26567Y616556D01*
X26122Y615581D01*
X25608Y614641D01*
X25029Y613740D01*
X24387Y612882D01*
X23685Y612072D01*
X22928Y611315D01*
X22118Y610613D01*
X21260Y609971D01*
X20359Y609392D01*
X19419Y608878D01*
X18444Y608433D01*
X17440Y608059D01*
X16412Y607757D01*
X15365Y607529D01*
X14304Y607376D01*
X13236Y607300D01*
X12164Y607300D01*
X11096Y607376D01*
X10035Y607529D01*
X8988Y607757D01*
X7960Y608059D01*
X6956Y608433D01*
X5981Y608878D01*
X5041Y609392D01*
X4140Y609971D01*
X3282Y610613D01*
X2472Y611315D01*
X1715Y612072D01*
X1013Y612882D01*
X371Y613740D01*
X-208Y614641D01*
X-722Y615581D01*
X-1167Y616556D01*
X-1541Y617560D01*
X-1843Y618588D01*
X-2071Y619635D01*
X-2224Y620696D01*
X-2300Y621764D01*
X-2300Y622836D01*
X-2224Y623904D01*
X-2071Y624965D01*
X-1843Y626012D01*
X-1541Y627040D01*
X-1167Y628044D01*
X-722Y629019D01*
X-208Y629959D01*
X371Y630860D01*
X1013Y631718D01*
X1715Y632528D01*
X2472Y633285D01*
X3282Y633987D01*
X4140Y634629D01*
X5041Y635208D01*
X5981Y635722D01*
X6956Y636167D01*
X7960Y636541D01*
X8988Y636843D01*
X10035Y637071D01*
X11096Y637224D01*
X12164Y637300D01*
X13236Y637300D01*
X14304Y637224D01*
X15365Y637071D01*
X16412Y636843D01*
X17440Y636541D01*
X18444Y636167D01*
X19419Y635722D01*
X20359Y635208D01*
X21260Y634629D01*
X22118Y633987D01*
X22928Y633285D01*
X23685Y632528D01*
X24387Y631718D01*
X25029Y630860D01*
X25608Y629959D01*
X26122Y629019D01*
X26567Y628044D01*
X26941Y627040D01*
X27243Y626012D01*
X27471Y624965D01*
X27624Y623904D01*
X27700Y622836D01*
X27700Y621764D01*
M02*
