G04 EAGLE Gerber RS-274X export*
G75*
%MOMM*%
%FSLAX34Y34*%
%LPD*%
%INSilkscreen Top*%
%IPPOS*%
%AMOC8*
5,1,8,0,0,1.08239X$1,22.5*%
G01*
%ADD10C,0.101600*%
%ADD11C,0.152400*%
%ADD12C,0.127000*%


D10*
X75692Y755001D02*
X75692Y752404D01*
X75690Y752305D01*
X75684Y752205D01*
X75675Y752106D01*
X75662Y752008D01*
X75645Y751910D01*
X75624Y751812D01*
X75599Y751716D01*
X75571Y751621D01*
X75539Y751527D01*
X75504Y751434D01*
X75465Y751342D01*
X75422Y751252D01*
X75377Y751164D01*
X75327Y751077D01*
X75275Y750993D01*
X75219Y750910D01*
X75161Y750830D01*
X75099Y750752D01*
X75034Y750677D01*
X74966Y750604D01*
X74896Y750534D01*
X74823Y750466D01*
X74748Y750401D01*
X74670Y750339D01*
X74590Y750281D01*
X74507Y750225D01*
X74423Y750173D01*
X74336Y750123D01*
X74248Y750078D01*
X74158Y750035D01*
X74066Y749996D01*
X73973Y749961D01*
X73879Y749929D01*
X73784Y749901D01*
X73688Y749876D01*
X73590Y749855D01*
X73492Y749838D01*
X73394Y749825D01*
X73295Y749816D01*
X73195Y749810D01*
X73096Y749808D01*
X66604Y749808D01*
X66505Y749810D01*
X66405Y749816D01*
X66306Y749825D01*
X66208Y749838D01*
X66110Y749856D01*
X66012Y749876D01*
X65916Y749901D01*
X65820Y749929D01*
X65726Y749961D01*
X65633Y749996D01*
X65542Y750035D01*
X65452Y750078D01*
X65363Y750123D01*
X65277Y750173D01*
X65192Y750225D01*
X65110Y750281D01*
X65030Y750340D01*
X64952Y750401D01*
X64876Y750466D01*
X64803Y750534D01*
X64733Y750604D01*
X64665Y750677D01*
X64600Y750753D01*
X64539Y750831D01*
X64480Y750911D01*
X64424Y750993D01*
X64372Y751078D01*
X64323Y751164D01*
X64277Y751253D01*
X64234Y751343D01*
X64195Y751434D01*
X64160Y751527D01*
X64128Y751621D01*
X64100Y751717D01*
X64075Y751813D01*
X64055Y751911D01*
X64037Y752009D01*
X64024Y752107D01*
X64015Y752206D01*
X64009Y752305D01*
X64007Y752405D01*
X64008Y752404D02*
X64008Y755001D01*
X66604Y759366D02*
X64008Y762612D01*
X75692Y762612D01*
X75692Y765857D02*
X75692Y759366D01*
X126492Y755001D02*
X126492Y752404D01*
X126490Y752305D01*
X126484Y752205D01*
X126475Y752106D01*
X126462Y752008D01*
X126445Y751910D01*
X126424Y751812D01*
X126399Y751716D01*
X126371Y751621D01*
X126339Y751527D01*
X126304Y751434D01*
X126265Y751342D01*
X126222Y751252D01*
X126177Y751164D01*
X126127Y751077D01*
X126075Y750993D01*
X126019Y750910D01*
X125961Y750830D01*
X125899Y750752D01*
X125834Y750677D01*
X125766Y750604D01*
X125696Y750534D01*
X125623Y750466D01*
X125548Y750401D01*
X125470Y750339D01*
X125390Y750281D01*
X125307Y750225D01*
X125223Y750173D01*
X125136Y750123D01*
X125048Y750078D01*
X124958Y750035D01*
X124866Y749996D01*
X124773Y749961D01*
X124679Y749929D01*
X124584Y749901D01*
X124488Y749876D01*
X124390Y749855D01*
X124292Y749838D01*
X124194Y749825D01*
X124095Y749816D01*
X123995Y749810D01*
X123896Y749808D01*
X117404Y749808D01*
X117305Y749810D01*
X117205Y749816D01*
X117106Y749825D01*
X117008Y749838D01*
X116910Y749856D01*
X116812Y749876D01*
X116716Y749901D01*
X116620Y749929D01*
X116526Y749961D01*
X116433Y749996D01*
X116342Y750035D01*
X116252Y750078D01*
X116163Y750123D01*
X116077Y750173D01*
X115992Y750225D01*
X115910Y750281D01*
X115830Y750340D01*
X115752Y750401D01*
X115676Y750466D01*
X115603Y750534D01*
X115533Y750604D01*
X115465Y750677D01*
X115400Y750753D01*
X115339Y750831D01*
X115280Y750911D01*
X115224Y750993D01*
X115172Y751078D01*
X115123Y751164D01*
X115077Y751253D01*
X115034Y751343D01*
X114995Y751434D01*
X114960Y751527D01*
X114928Y751621D01*
X114900Y751717D01*
X114875Y751813D01*
X114855Y751911D01*
X114837Y752009D01*
X114824Y752107D01*
X114815Y752206D01*
X114809Y752305D01*
X114807Y752405D01*
X114808Y752404D02*
X114808Y755001D01*
X114808Y762936D02*
X114810Y763043D01*
X114816Y763149D01*
X114826Y763255D01*
X114839Y763361D01*
X114857Y763467D01*
X114878Y763571D01*
X114903Y763675D01*
X114932Y763778D01*
X114964Y763879D01*
X115001Y763979D01*
X115041Y764078D01*
X115084Y764176D01*
X115131Y764272D01*
X115182Y764366D01*
X115236Y764458D01*
X115293Y764548D01*
X115353Y764636D01*
X115417Y764721D01*
X115484Y764804D01*
X115554Y764885D01*
X115626Y764963D01*
X115702Y765039D01*
X115780Y765111D01*
X115861Y765181D01*
X115944Y765248D01*
X116029Y765312D01*
X116117Y765372D01*
X116207Y765429D01*
X116299Y765483D01*
X116393Y765534D01*
X116489Y765581D01*
X116587Y765624D01*
X116686Y765664D01*
X116786Y765701D01*
X116887Y765733D01*
X116990Y765762D01*
X117094Y765787D01*
X117198Y765808D01*
X117304Y765826D01*
X117410Y765839D01*
X117516Y765849D01*
X117622Y765855D01*
X117729Y765857D01*
X114808Y762936D02*
X114810Y762815D01*
X114816Y762694D01*
X114826Y762574D01*
X114839Y762453D01*
X114857Y762334D01*
X114878Y762214D01*
X114903Y762096D01*
X114932Y761979D01*
X114965Y761862D01*
X115001Y761747D01*
X115042Y761633D01*
X115085Y761520D01*
X115133Y761408D01*
X115184Y761299D01*
X115239Y761191D01*
X115297Y761084D01*
X115358Y760980D01*
X115423Y760878D01*
X115491Y760778D01*
X115562Y760680D01*
X115636Y760584D01*
X115713Y760491D01*
X115794Y760401D01*
X115877Y760313D01*
X115963Y760228D01*
X116052Y760145D01*
X116143Y760066D01*
X116237Y759989D01*
X116333Y759916D01*
X116431Y759846D01*
X116532Y759779D01*
X116635Y759715D01*
X116740Y759655D01*
X116847Y759597D01*
X116955Y759544D01*
X117065Y759494D01*
X117177Y759448D01*
X117290Y759405D01*
X117405Y759366D01*
X120001Y764883D02*
X119923Y764962D01*
X119843Y765038D01*
X119760Y765111D01*
X119674Y765181D01*
X119587Y765248D01*
X119496Y765312D01*
X119404Y765372D01*
X119310Y765430D01*
X119213Y765484D01*
X119115Y765534D01*
X119015Y765581D01*
X118914Y765625D01*
X118811Y765665D01*
X118706Y765701D01*
X118601Y765733D01*
X118494Y765762D01*
X118387Y765787D01*
X118278Y765809D01*
X118169Y765826D01*
X118060Y765840D01*
X117950Y765849D01*
X117839Y765855D01*
X117729Y765857D01*
X120001Y764884D02*
X126492Y759366D01*
X126492Y765857D01*
X113792Y635695D02*
X102108Y635695D01*
X102108Y638940D01*
X102110Y639053D01*
X102116Y639166D01*
X102126Y639279D01*
X102140Y639392D01*
X102157Y639504D01*
X102179Y639615D01*
X102204Y639725D01*
X102234Y639835D01*
X102267Y639943D01*
X102304Y640050D01*
X102344Y640156D01*
X102389Y640260D01*
X102437Y640363D01*
X102488Y640464D01*
X102543Y640563D01*
X102601Y640660D01*
X102663Y640755D01*
X102728Y640848D01*
X102796Y640938D01*
X102867Y641026D01*
X102942Y641112D01*
X103019Y641195D01*
X103099Y641275D01*
X103182Y641352D01*
X103268Y641427D01*
X103356Y641498D01*
X103446Y641566D01*
X103539Y641631D01*
X103634Y641693D01*
X103731Y641751D01*
X103830Y641806D01*
X103931Y641857D01*
X104034Y641905D01*
X104138Y641950D01*
X104244Y641990D01*
X104351Y642027D01*
X104459Y642060D01*
X104569Y642090D01*
X104679Y642115D01*
X104790Y642137D01*
X104902Y642154D01*
X105015Y642168D01*
X105128Y642178D01*
X105241Y642184D01*
X105354Y642186D01*
X105467Y642184D01*
X105580Y642178D01*
X105693Y642168D01*
X105806Y642154D01*
X105918Y642137D01*
X106029Y642115D01*
X106139Y642090D01*
X106249Y642060D01*
X106357Y642027D01*
X106464Y641990D01*
X106570Y641950D01*
X106674Y641905D01*
X106777Y641857D01*
X106878Y641806D01*
X106977Y641751D01*
X107074Y641693D01*
X107169Y641631D01*
X107262Y641566D01*
X107352Y641498D01*
X107440Y641427D01*
X107526Y641352D01*
X107609Y641275D01*
X107689Y641195D01*
X107766Y641112D01*
X107841Y641026D01*
X107912Y640938D01*
X107980Y640848D01*
X108045Y640755D01*
X108107Y640660D01*
X108165Y640563D01*
X108220Y640464D01*
X108271Y640363D01*
X108319Y640260D01*
X108364Y640156D01*
X108404Y640050D01*
X108441Y639943D01*
X108474Y639835D01*
X108504Y639725D01*
X108529Y639615D01*
X108551Y639504D01*
X108568Y639392D01*
X108582Y639279D01*
X108592Y639166D01*
X108598Y639053D01*
X108600Y638940D01*
X108599Y638940D02*
X108599Y635695D01*
X108599Y639589D02*
X113792Y642186D01*
X104704Y647051D02*
X102108Y650296D01*
X113792Y650296D01*
X113792Y647051D02*
X113792Y653542D01*
X152908Y635695D02*
X164592Y635695D01*
X152908Y635695D02*
X152908Y638940D01*
X152910Y639053D01*
X152916Y639166D01*
X152926Y639279D01*
X152940Y639392D01*
X152957Y639504D01*
X152979Y639615D01*
X153004Y639725D01*
X153034Y639835D01*
X153067Y639943D01*
X153104Y640050D01*
X153144Y640156D01*
X153189Y640260D01*
X153237Y640363D01*
X153288Y640464D01*
X153343Y640563D01*
X153401Y640660D01*
X153463Y640755D01*
X153528Y640848D01*
X153596Y640938D01*
X153667Y641026D01*
X153742Y641112D01*
X153819Y641195D01*
X153899Y641275D01*
X153982Y641352D01*
X154068Y641427D01*
X154156Y641498D01*
X154246Y641566D01*
X154339Y641631D01*
X154434Y641693D01*
X154531Y641751D01*
X154630Y641806D01*
X154731Y641857D01*
X154834Y641905D01*
X154938Y641950D01*
X155044Y641990D01*
X155151Y642027D01*
X155259Y642060D01*
X155369Y642090D01*
X155479Y642115D01*
X155590Y642137D01*
X155702Y642154D01*
X155815Y642168D01*
X155928Y642178D01*
X156041Y642184D01*
X156154Y642186D01*
X156267Y642184D01*
X156380Y642178D01*
X156493Y642168D01*
X156606Y642154D01*
X156718Y642137D01*
X156829Y642115D01*
X156939Y642090D01*
X157049Y642060D01*
X157157Y642027D01*
X157264Y641990D01*
X157370Y641950D01*
X157474Y641905D01*
X157577Y641857D01*
X157678Y641806D01*
X157777Y641751D01*
X157874Y641693D01*
X157969Y641631D01*
X158062Y641566D01*
X158152Y641498D01*
X158240Y641427D01*
X158326Y641352D01*
X158409Y641275D01*
X158489Y641195D01*
X158566Y641112D01*
X158641Y641026D01*
X158712Y640938D01*
X158780Y640848D01*
X158845Y640755D01*
X158907Y640660D01*
X158965Y640563D01*
X159020Y640464D01*
X159071Y640363D01*
X159119Y640260D01*
X159164Y640156D01*
X159204Y640050D01*
X159241Y639943D01*
X159274Y639835D01*
X159304Y639725D01*
X159329Y639615D01*
X159351Y639504D01*
X159368Y639392D01*
X159382Y639279D01*
X159392Y639166D01*
X159398Y639053D01*
X159400Y638940D01*
X159399Y638940D02*
X159399Y635695D01*
X159399Y639589D02*
X164592Y642186D01*
X155829Y653542D02*
X155722Y653540D01*
X155616Y653534D01*
X155510Y653524D01*
X155404Y653511D01*
X155298Y653493D01*
X155194Y653472D01*
X155090Y653447D01*
X154987Y653418D01*
X154886Y653386D01*
X154786Y653349D01*
X154687Y653309D01*
X154589Y653266D01*
X154493Y653219D01*
X154399Y653168D01*
X154307Y653114D01*
X154217Y653057D01*
X154129Y652997D01*
X154044Y652933D01*
X153961Y652866D01*
X153880Y652796D01*
X153802Y652724D01*
X153726Y652648D01*
X153654Y652570D01*
X153584Y652489D01*
X153517Y652406D01*
X153453Y652321D01*
X153393Y652233D01*
X153336Y652143D01*
X153282Y652051D01*
X153231Y651957D01*
X153184Y651861D01*
X153141Y651763D01*
X153101Y651664D01*
X153064Y651564D01*
X153032Y651463D01*
X153003Y651360D01*
X152978Y651256D01*
X152957Y651152D01*
X152939Y651046D01*
X152926Y650940D01*
X152916Y650834D01*
X152910Y650728D01*
X152908Y650621D01*
X152910Y650500D01*
X152916Y650379D01*
X152926Y650259D01*
X152939Y650138D01*
X152957Y650019D01*
X152978Y649899D01*
X153003Y649781D01*
X153032Y649664D01*
X153065Y649547D01*
X153101Y649432D01*
X153142Y649318D01*
X153185Y649205D01*
X153233Y649093D01*
X153284Y648984D01*
X153339Y648876D01*
X153397Y648769D01*
X153458Y648665D01*
X153523Y648563D01*
X153591Y648463D01*
X153662Y648365D01*
X153736Y648269D01*
X153813Y648176D01*
X153894Y648086D01*
X153977Y647998D01*
X154063Y647913D01*
X154152Y647830D01*
X154243Y647751D01*
X154337Y647674D01*
X154433Y647601D01*
X154531Y647531D01*
X154632Y647464D01*
X154735Y647400D01*
X154840Y647340D01*
X154947Y647282D01*
X155055Y647229D01*
X155165Y647179D01*
X155277Y647133D01*
X155390Y647090D01*
X155505Y647051D01*
X158101Y652568D02*
X158023Y652647D01*
X157943Y652723D01*
X157860Y652796D01*
X157774Y652866D01*
X157687Y652933D01*
X157596Y652997D01*
X157504Y653057D01*
X157410Y653115D01*
X157313Y653169D01*
X157215Y653219D01*
X157115Y653266D01*
X157014Y653310D01*
X156911Y653350D01*
X156806Y653386D01*
X156701Y653418D01*
X156594Y653447D01*
X156487Y653472D01*
X156378Y653494D01*
X156269Y653511D01*
X156160Y653525D01*
X156050Y653534D01*
X155939Y653540D01*
X155829Y653542D01*
X158101Y652568D02*
X164592Y647051D01*
X164592Y653542D01*
D11*
X38100Y654050D02*
X38100Y666750D01*
X44450Y673100D01*
X57150Y673100D02*
X63500Y666750D01*
X44450Y673100D02*
X38100Y679450D01*
X38100Y692150D01*
X44450Y698500D01*
X57150Y698500D02*
X63500Y692150D01*
X63500Y679450D01*
X57150Y673100D01*
X57150Y647700D02*
X44450Y647700D01*
X38100Y654050D01*
X57150Y647700D02*
X63500Y654050D01*
X63500Y666750D01*
X44450Y698500D02*
X38100Y704850D01*
X38100Y717550D01*
X44450Y723900D01*
X57150Y723900D02*
X63500Y717550D01*
X63500Y704850D01*
X57150Y698500D01*
X38100Y730250D02*
X38100Y742950D01*
X44450Y749300D01*
X57150Y749300D01*
X63500Y742950D01*
X44450Y723900D02*
X38100Y730250D01*
X57150Y723900D02*
X63500Y730250D01*
X63500Y742950D01*
D12*
X45085Y640080D02*
X47625Y636905D01*
X45085Y640080D02*
X56515Y640080D01*
X56515Y636905D02*
X56515Y643255D01*
X53975Y752475D02*
X45085Y755015D01*
X53975Y752475D02*
X53975Y758825D01*
X51435Y756920D02*
X56515Y756920D01*
X31115Y654685D02*
X31215Y654683D01*
X31314Y654677D01*
X31414Y654667D01*
X31512Y654654D01*
X31611Y654636D01*
X31708Y654615D01*
X31804Y654590D01*
X31900Y654561D01*
X31994Y654528D01*
X32087Y654492D01*
X32178Y654452D01*
X32268Y654408D01*
X32356Y654361D01*
X32442Y654311D01*
X32526Y654257D01*
X32608Y654200D01*
X32687Y654140D01*
X32765Y654076D01*
X32839Y654010D01*
X32911Y653941D01*
X32980Y653869D01*
X33046Y653795D01*
X33110Y653717D01*
X33170Y653638D01*
X33227Y653556D01*
X33281Y653472D01*
X33331Y653386D01*
X33378Y653298D01*
X33422Y653208D01*
X33462Y653117D01*
X33498Y653024D01*
X33531Y652930D01*
X33560Y652834D01*
X33585Y652738D01*
X33606Y652641D01*
X33624Y652542D01*
X33637Y652444D01*
X33647Y652344D01*
X33653Y652245D01*
X33655Y652145D01*
X33653Y652004D01*
X33648Y651863D01*
X33638Y651722D01*
X33625Y651581D01*
X33609Y651441D01*
X33588Y651301D01*
X33564Y651162D01*
X33536Y651023D01*
X33505Y650886D01*
X33470Y650749D01*
X33432Y650613D01*
X33390Y650478D01*
X33344Y650345D01*
X33295Y650212D01*
X33242Y650081D01*
X33186Y649952D01*
X33127Y649823D01*
X33064Y649697D01*
X32998Y649572D01*
X32929Y649449D01*
X32856Y649328D01*
X32780Y649209D01*
X32701Y649091D01*
X32620Y648976D01*
X32535Y648864D01*
X32447Y648753D01*
X32356Y648645D01*
X32263Y648539D01*
X32166Y648436D01*
X32067Y648335D01*
X24765Y648653D02*
X24665Y648655D01*
X24566Y648661D01*
X24466Y648671D01*
X24368Y648684D01*
X24269Y648702D01*
X24172Y648723D01*
X24076Y648748D01*
X23980Y648777D01*
X23886Y648810D01*
X23793Y648846D01*
X23702Y648886D01*
X23612Y648930D01*
X23524Y648977D01*
X23438Y649027D01*
X23354Y649081D01*
X23272Y649138D01*
X23193Y649198D01*
X23115Y649262D01*
X23041Y649328D01*
X22969Y649397D01*
X22900Y649469D01*
X22834Y649543D01*
X22770Y649621D01*
X22710Y649700D01*
X22653Y649782D01*
X22599Y649866D01*
X22549Y649952D01*
X22502Y650040D01*
X22458Y650130D01*
X22418Y650221D01*
X22382Y650314D01*
X22349Y650408D01*
X22320Y650504D01*
X22295Y650600D01*
X22274Y650697D01*
X22256Y650796D01*
X22243Y650894D01*
X22233Y650994D01*
X22227Y651093D01*
X22225Y651193D01*
X22227Y651326D01*
X22232Y651459D01*
X22242Y651592D01*
X22255Y651725D01*
X22272Y651857D01*
X22292Y651989D01*
X22316Y652120D01*
X22344Y652250D01*
X22375Y652380D01*
X22410Y652508D01*
X22449Y652636D01*
X22491Y652762D01*
X22537Y652887D01*
X22586Y653011D01*
X22638Y653134D01*
X22694Y653255D01*
X22754Y653374D01*
X22816Y653492D01*
X22882Y653607D01*
X22951Y653721D01*
X23024Y653833D01*
X23099Y653943D01*
X23178Y654051D01*
X26988Y649922D02*
X26936Y649838D01*
X26881Y649755D01*
X26822Y649675D01*
X26761Y649597D01*
X26697Y649522D01*
X26629Y649449D01*
X26559Y649378D01*
X26487Y649311D01*
X26412Y649246D01*
X26334Y649184D01*
X26254Y649125D01*
X26172Y649069D01*
X26088Y649017D01*
X26002Y648968D01*
X25914Y648922D01*
X25824Y648879D01*
X25733Y648840D01*
X25640Y648805D01*
X25546Y648773D01*
X25451Y648745D01*
X25355Y648720D01*
X25258Y648700D01*
X25160Y648682D01*
X25062Y648669D01*
X24963Y648660D01*
X24864Y648654D01*
X24765Y648652D01*
X28892Y653415D02*
X28944Y653499D01*
X28999Y653582D01*
X29058Y653662D01*
X29119Y653740D01*
X29183Y653815D01*
X29251Y653888D01*
X29321Y653959D01*
X29393Y654026D01*
X29468Y654091D01*
X29546Y654153D01*
X29626Y654212D01*
X29708Y654268D01*
X29792Y654320D01*
X29878Y654369D01*
X29966Y654415D01*
X30056Y654458D01*
X30147Y654497D01*
X30240Y654532D01*
X30334Y654564D01*
X30429Y654592D01*
X30525Y654617D01*
X30622Y654637D01*
X30720Y654655D01*
X30818Y654668D01*
X30917Y654677D01*
X31016Y654683D01*
X31115Y654685D01*
X28893Y653415D02*
X26988Y649923D01*
X22225Y658749D02*
X33655Y662559D01*
X22225Y666369D01*
X24765Y670814D02*
X22225Y673989D01*
X33655Y673989D01*
X33655Y670814D02*
X33655Y677164D01*
X96000Y729500D02*
X134800Y729500D01*
X96000Y729500D02*
X96000Y727700D01*
X95700Y727700D01*
X96000Y680700D02*
X134800Y680700D01*
X96000Y680700D02*
X96000Y681400D01*
D10*
X100384Y699154D02*
X100384Y707592D01*
X100383Y699154D02*
X100385Y699041D01*
X100391Y698928D01*
X100401Y698815D01*
X100415Y698702D01*
X100432Y698590D01*
X100454Y698479D01*
X100479Y698369D01*
X100509Y698259D01*
X100542Y698151D01*
X100579Y698044D01*
X100619Y697938D01*
X100664Y697834D01*
X100712Y697731D01*
X100763Y697630D01*
X100818Y697531D01*
X100876Y697434D01*
X100938Y697339D01*
X101003Y697246D01*
X101071Y697156D01*
X101142Y697068D01*
X101217Y696982D01*
X101294Y696899D01*
X101374Y696819D01*
X101457Y696742D01*
X101543Y696667D01*
X101631Y696596D01*
X101721Y696528D01*
X101814Y696463D01*
X101909Y696401D01*
X102006Y696343D01*
X102105Y696288D01*
X102206Y696237D01*
X102309Y696189D01*
X102413Y696144D01*
X102519Y696104D01*
X102626Y696067D01*
X102734Y696034D01*
X102844Y696004D01*
X102954Y695979D01*
X103065Y695957D01*
X103177Y695940D01*
X103290Y695926D01*
X103403Y695916D01*
X103516Y695910D01*
X103629Y695908D01*
X103742Y695910D01*
X103855Y695916D01*
X103968Y695926D01*
X104081Y695940D01*
X104193Y695957D01*
X104304Y695979D01*
X104414Y696004D01*
X104524Y696034D01*
X104632Y696067D01*
X104739Y696104D01*
X104845Y696144D01*
X104949Y696189D01*
X105052Y696237D01*
X105153Y696288D01*
X105252Y696343D01*
X105349Y696401D01*
X105444Y696463D01*
X105537Y696528D01*
X105627Y696596D01*
X105715Y696667D01*
X105801Y696742D01*
X105884Y696819D01*
X105964Y696899D01*
X106041Y696982D01*
X106116Y697068D01*
X106187Y697156D01*
X106255Y697246D01*
X106320Y697339D01*
X106382Y697434D01*
X106440Y697531D01*
X106495Y697630D01*
X106546Y697731D01*
X106594Y697834D01*
X106639Y697938D01*
X106679Y698044D01*
X106716Y698151D01*
X106749Y698259D01*
X106779Y698369D01*
X106804Y698479D01*
X106826Y698590D01*
X106843Y698702D01*
X106857Y698815D01*
X106867Y698928D01*
X106873Y699041D01*
X106875Y699154D01*
X106875Y707592D01*
X114678Y707592D02*
X114678Y695908D01*
X114678Y701750D02*
X113056Y702724D01*
X113055Y702723D02*
X112982Y702770D01*
X112911Y702819D01*
X112841Y702872D01*
X112775Y702928D01*
X112711Y702987D01*
X112649Y703048D01*
X112591Y703112D01*
X112535Y703179D01*
X112483Y703248D01*
X112433Y703320D01*
X112387Y703394D01*
X112344Y703469D01*
X112305Y703547D01*
X112269Y703626D01*
X112237Y703707D01*
X112208Y703789D01*
X112183Y703872D01*
X112162Y703956D01*
X112145Y704041D01*
X112131Y704127D01*
X112122Y704213D01*
X112116Y704300D01*
X112114Y704387D01*
X112116Y704474D01*
X112122Y704561D01*
X112132Y704647D01*
X112145Y704733D01*
X112163Y704818D01*
X112184Y704902D01*
X112209Y704985D01*
X112238Y705068D01*
X112270Y705148D01*
X112306Y705227D01*
X112345Y705305D01*
X112388Y705380D01*
X112435Y705454D01*
X112484Y705525D01*
X112537Y705595D01*
X112592Y705661D01*
X112651Y705725D01*
X112712Y705787D01*
X112777Y705846D01*
X112843Y705901D01*
X112912Y705954D01*
X112984Y706004D01*
X113057Y706050D01*
X113133Y706093D01*
X113210Y706132D01*
X113289Y706168D01*
X113370Y706201D01*
X113452Y706229D01*
X113535Y706255D01*
X113619Y706276D01*
X113705Y706293D01*
X113705Y706294D02*
X113845Y706318D01*
X113987Y706338D01*
X114128Y706354D01*
X114270Y706365D01*
X114413Y706373D01*
X114555Y706377D01*
X114698Y706378D01*
X114841Y706374D01*
X114983Y706366D01*
X115125Y706354D01*
X115267Y706338D01*
X115408Y706319D01*
X115549Y706295D01*
X115689Y706268D01*
X115828Y706236D01*
X115966Y706201D01*
X116104Y706162D01*
X116240Y706119D01*
X116374Y706073D01*
X116508Y706022D01*
X116640Y705969D01*
X116770Y705911D01*
X116899Y705850D01*
X117026Y705785D01*
X117152Y705717D01*
X117275Y705645D01*
X114678Y701750D02*
X116301Y700776D01*
X116302Y700777D02*
X116375Y700730D01*
X116446Y700681D01*
X116516Y700628D01*
X116582Y700572D01*
X116646Y700513D01*
X116708Y700452D01*
X116766Y700388D01*
X116822Y700321D01*
X116874Y700252D01*
X116924Y700180D01*
X116970Y700106D01*
X117013Y700031D01*
X117052Y699953D01*
X117088Y699874D01*
X117120Y699793D01*
X117149Y699711D01*
X117174Y699628D01*
X117195Y699544D01*
X117212Y699459D01*
X117226Y699373D01*
X117235Y699287D01*
X117241Y699200D01*
X117243Y699113D01*
X117241Y699026D01*
X117235Y698939D01*
X117225Y698853D01*
X117212Y698767D01*
X117194Y698682D01*
X117173Y698598D01*
X117148Y698515D01*
X117119Y698432D01*
X117087Y698352D01*
X117051Y698273D01*
X117012Y698195D01*
X116969Y698120D01*
X116922Y698046D01*
X116873Y697975D01*
X116820Y697905D01*
X116765Y697839D01*
X116706Y697775D01*
X116645Y697713D01*
X116580Y697654D01*
X116514Y697599D01*
X116445Y697546D01*
X116373Y697496D01*
X116300Y697450D01*
X116224Y697407D01*
X116147Y697368D01*
X116068Y697332D01*
X115987Y697299D01*
X115905Y697271D01*
X115822Y697245D01*
X115738Y697224D01*
X115653Y697207D01*
X115652Y697206D02*
X115512Y697182D01*
X115370Y697162D01*
X115229Y697146D01*
X115087Y697135D01*
X114944Y697127D01*
X114802Y697123D01*
X114659Y697122D01*
X114516Y697126D01*
X114374Y697134D01*
X114232Y697146D01*
X114090Y697162D01*
X113949Y697181D01*
X113808Y697205D01*
X113668Y697232D01*
X113529Y697264D01*
X113391Y697299D01*
X113253Y697338D01*
X113117Y697381D01*
X112983Y697427D01*
X112849Y697478D01*
X112717Y697531D01*
X112587Y697589D01*
X112458Y697650D01*
X112331Y697715D01*
X112205Y697783D01*
X112082Y697855D01*
X122101Y704996D02*
X125346Y707592D01*
X125346Y695908D01*
X122101Y695908D02*
X128592Y695908D01*
M02*
