M48
;GenerationSoftware,Autodesk,EAGLE,9.5.1*%
;CreationDate,2019-10-04T10:31:20Z*%
FMAT,2
ICI,OFF
METRIC,TZ,000.000
T1C1.016
%
G90
M71
T1
X38100Y50800
X38100Y53340
X40640Y50800
X40640Y53340
X43180Y50800
X43180Y53340
X45720Y50800
X45720Y53340
X48260Y50800
X48260Y53340
X74930Y49530
X72390Y49530
X52070Y53340
X54610Y53340
X58420Y33020
X58420Y30480
X58420Y27940
X58420Y25400
X58420Y22860
X58420Y20320
X58420Y17780
X46990Y25400
X46990Y22860
X46990Y20320
X46990Y17780
X64770Y17780
X64770Y20320
X64770Y22860
X64770Y25400
X69850Y17780
X69850Y20320
X69850Y22860
X69850Y25400
X58979Y46711
X58979Y42189
X65481Y46711
X65481Y42189
M30