G04 EAGLE Gerber RS-274X export*
G75*
%MOMM*%
%FSLAX34Y34*%
%LPD*%
%INTop Copper*%
%IPPOS*%
%AMOC8*
5,1,8,0,0,1.08239X$1,22.5*%
G01*
%ADD10R,1.300000X1.500000*%
%ADD11R,1.050000X1.000000*%
%ADD12R,2.200000X1.050000*%
%ADD13R,1.050000X1.950000*%
%ADD14C,1.320800*%
%ADD15C,0.304800*%

G36*
X292126Y366780D02*
X292126Y366780D01*
X292152Y366778D01*
X292299Y366800D01*
X292446Y366817D01*
X292471Y366825D01*
X292497Y366829D01*
X292635Y366884D01*
X292774Y366934D01*
X292796Y366948D01*
X292821Y366958D01*
X292942Y367043D01*
X293067Y367123D01*
X293085Y367142D01*
X293107Y367157D01*
X293206Y367267D01*
X293309Y367374D01*
X293323Y367396D01*
X293340Y367416D01*
X293412Y367546D01*
X293488Y367673D01*
X293496Y367698D01*
X293509Y367721D01*
X293549Y367864D01*
X293594Y368005D01*
X293596Y368031D01*
X293604Y368056D01*
X293623Y368300D01*
X293623Y711200D01*
X293620Y711226D01*
X293622Y711252D01*
X293600Y711399D01*
X293583Y711546D01*
X293575Y711571D01*
X293571Y711597D01*
X293516Y711735D01*
X293466Y711874D01*
X293452Y711896D01*
X293442Y711921D01*
X293357Y712042D01*
X293277Y712167D01*
X293258Y712185D01*
X293243Y712207D01*
X293133Y712306D01*
X293026Y712409D01*
X293004Y712423D01*
X292984Y712440D01*
X292854Y712512D01*
X292727Y712588D01*
X292702Y712596D01*
X292679Y712609D01*
X292536Y712649D01*
X292395Y712694D01*
X292369Y712696D01*
X292344Y712704D01*
X292100Y712723D01*
X0Y712723D01*
X-26Y712720D01*
X-52Y712722D01*
X-199Y712700D01*
X-346Y712683D01*
X-371Y712675D01*
X-397Y712671D01*
X-535Y712616D01*
X-674Y712566D01*
X-696Y712552D01*
X-721Y712542D01*
X-842Y712457D01*
X-967Y712377D01*
X-985Y712358D01*
X-1007Y712343D01*
X-1106Y712233D01*
X-1209Y712126D01*
X-1223Y712104D01*
X-1240Y712084D01*
X-1312Y711954D01*
X-1388Y711827D01*
X-1396Y711802D01*
X-1409Y711779D01*
X-1449Y711636D01*
X-1494Y711495D01*
X-1496Y711469D01*
X-1504Y711444D01*
X-1523Y711200D01*
X-1523Y368300D01*
X-1520Y368274D01*
X-1522Y368248D01*
X-1500Y368101D01*
X-1483Y367954D01*
X-1475Y367929D01*
X-1471Y367903D01*
X-1416Y367765D01*
X-1366Y367626D01*
X-1352Y367604D01*
X-1342Y367579D01*
X-1257Y367458D01*
X-1177Y367333D01*
X-1158Y367315D01*
X-1143Y367293D01*
X-1033Y367194D01*
X-926Y367091D01*
X-904Y367077D01*
X-884Y367060D01*
X-754Y366988D01*
X-627Y366912D01*
X-602Y366904D01*
X-579Y366891D01*
X-436Y366851D01*
X-295Y366806D01*
X-269Y366804D01*
X-244Y366796D01*
X0Y366777D01*
X292100Y366777D01*
X292126Y366780D01*
G37*
%LPC*%
G36*
X121739Y399795D02*
X121739Y399795D01*
X119507Y402027D01*
X117521Y404014D01*
X117461Y404061D01*
X117407Y404116D01*
X117325Y404169D01*
X117248Y404230D01*
X117179Y404263D01*
X117114Y404304D01*
X117022Y404337D01*
X116933Y404379D01*
X116858Y404395D01*
X116786Y404421D01*
X116688Y404432D01*
X116592Y404453D01*
X116516Y404451D01*
X116439Y404460D01*
X116342Y404448D01*
X116243Y404447D01*
X116169Y404428D01*
X116093Y404419D01*
X115951Y404373D01*
X115928Y404367D01*
X112683Y404367D01*
X109695Y405605D01*
X107409Y407891D01*
X106171Y410879D01*
X106171Y427321D01*
X107409Y430309D01*
X109695Y432595D01*
X111273Y433249D01*
X111275Y433250D01*
X111277Y433250D01*
X111427Y433334D01*
X111578Y433418D01*
X111579Y433419D01*
X111581Y433420D01*
X111767Y433579D01*
X133505Y455317D01*
X133584Y455416D01*
X133668Y455510D01*
X133692Y455552D01*
X133722Y455590D01*
X133776Y455704D01*
X133837Y455815D01*
X133850Y455861D01*
X133871Y455905D01*
X133897Y456028D01*
X133932Y456150D01*
X133937Y456211D01*
X133944Y456246D01*
X133943Y456294D01*
X133951Y456394D01*
X133951Y459302D01*
X133948Y459328D01*
X133950Y459354D01*
X133928Y459501D01*
X133911Y459648D01*
X133903Y459673D01*
X133899Y459699D01*
X133844Y459837D01*
X133794Y459976D01*
X133780Y459998D01*
X133770Y460023D01*
X133685Y460144D01*
X133605Y460269D01*
X133586Y460287D01*
X133571Y460309D01*
X133461Y460408D01*
X133354Y460511D01*
X133332Y460525D01*
X133312Y460542D01*
X133183Y460614D01*
X133055Y460690D01*
X133030Y460698D01*
X133007Y460711D01*
X132864Y460751D01*
X132723Y460796D01*
X132697Y460798D01*
X132672Y460806D01*
X132428Y460825D01*
X131118Y460825D01*
X130225Y461718D01*
X130225Y482482D01*
X131118Y483375D01*
X142882Y483375D01*
X143775Y482482D01*
X143775Y461718D01*
X142882Y460825D01*
X141572Y460825D01*
X141546Y460822D01*
X141520Y460824D01*
X141373Y460802D01*
X141226Y460785D01*
X141201Y460777D01*
X141175Y460773D01*
X141037Y460718D01*
X140898Y460668D01*
X140876Y460654D01*
X140851Y460644D01*
X140730Y460559D01*
X140605Y460479D01*
X140587Y460460D01*
X140565Y460445D01*
X140466Y460335D01*
X140363Y460228D01*
X140349Y460206D01*
X140332Y460186D01*
X140260Y460056D01*
X140184Y459929D01*
X140176Y459904D01*
X140163Y459881D01*
X140123Y459738D01*
X140078Y459597D01*
X140076Y459571D01*
X140068Y459546D01*
X140049Y459302D01*
X140049Y453237D01*
X120233Y433421D01*
X120216Y433401D01*
X120196Y433384D01*
X120108Y433264D01*
X120016Y433148D01*
X120005Y433125D01*
X119989Y433103D01*
X119931Y432967D01*
X119867Y432833D01*
X119862Y432807D01*
X119851Y432783D01*
X119825Y432637D01*
X119794Y432492D01*
X119794Y432466D01*
X119790Y432440D01*
X119797Y432292D01*
X119800Y432144D01*
X119806Y432119D01*
X119808Y432092D01*
X119849Y431950D01*
X119885Y431806D01*
X119897Y431783D01*
X119904Y431757D01*
X119976Y431628D01*
X120044Y431496D01*
X120061Y431476D01*
X120074Y431453D01*
X120233Y431267D01*
X121191Y430309D01*
X122429Y427321D01*
X122429Y410879D01*
X121896Y409592D01*
X121875Y409518D01*
X121844Y409448D01*
X121827Y409351D01*
X121800Y409257D01*
X121796Y409180D01*
X121783Y409105D01*
X121788Y409007D01*
X121783Y408909D01*
X121797Y408833D01*
X121801Y408757D01*
X121828Y408663D01*
X121845Y408566D01*
X121876Y408496D01*
X121897Y408422D01*
X121945Y408336D01*
X121984Y408246D01*
X122030Y408185D01*
X122067Y408118D01*
X122164Y408004D01*
X122192Y407966D01*
X122207Y407954D01*
X122226Y407932D01*
X123819Y406339D01*
X123918Y406260D01*
X124012Y406176D01*
X124054Y406152D01*
X124092Y406122D01*
X124206Y406068D01*
X124317Y406007D01*
X124363Y405994D01*
X124407Y405973D01*
X124530Y405947D01*
X124652Y405912D01*
X124713Y405907D01*
X124748Y405900D01*
X124796Y405901D01*
X124896Y405893D01*
X131357Y405893D01*
X131506Y405910D01*
X131656Y405922D01*
X131679Y405930D01*
X131703Y405933D01*
X131845Y405983D01*
X131988Y406029D01*
X132009Y406042D01*
X132031Y406050D01*
X132158Y406132D01*
X132286Y406209D01*
X132304Y406226D01*
X132324Y406239D01*
X132429Y406348D01*
X132536Y406452D01*
X132549Y406472D01*
X132566Y406490D01*
X132644Y406619D01*
X132725Y406745D01*
X132733Y406768D01*
X132745Y406789D01*
X132791Y406932D01*
X132841Y407074D01*
X132844Y407098D01*
X132851Y407121D01*
X132863Y407270D01*
X132880Y407420D01*
X132877Y407444D01*
X132879Y407468D01*
X132857Y407617D01*
X132839Y407766D01*
X132830Y407794D01*
X132828Y407813D01*
X132810Y407857D01*
X132764Y407999D01*
X131571Y410879D01*
X131571Y427321D01*
X132809Y430309D01*
X135095Y432595D01*
X136673Y433249D01*
X136675Y433250D01*
X136677Y433250D01*
X136827Y433334D01*
X136978Y433418D01*
X136979Y433419D01*
X136981Y433420D01*
X137167Y433579D01*
X153505Y449917D01*
X153584Y450016D01*
X153668Y450110D01*
X153692Y450152D01*
X153722Y450190D01*
X153776Y450304D01*
X153837Y450415D01*
X153850Y450461D01*
X153871Y450505D01*
X153897Y450628D01*
X153932Y450750D01*
X153937Y450811D01*
X153944Y450846D01*
X153943Y450894D01*
X153951Y450994D01*
X153951Y459302D01*
X153948Y459328D01*
X153950Y459354D01*
X153928Y459501D01*
X153911Y459648D01*
X153903Y459673D01*
X153899Y459699D01*
X153844Y459837D01*
X153794Y459976D01*
X153780Y459998D01*
X153770Y460023D01*
X153685Y460144D01*
X153605Y460269D01*
X153586Y460287D01*
X153571Y460309D01*
X153461Y460408D01*
X153354Y460511D01*
X153332Y460525D01*
X153312Y460542D01*
X153183Y460614D01*
X153055Y460690D01*
X153030Y460698D01*
X153007Y460711D01*
X152864Y460751D01*
X152723Y460796D01*
X152697Y460798D01*
X152672Y460806D01*
X152428Y460825D01*
X151118Y460825D01*
X150225Y461718D01*
X150225Y482482D01*
X151118Y483375D01*
X162882Y483375D01*
X163775Y482482D01*
X163775Y461718D01*
X162882Y460825D01*
X161572Y460825D01*
X161546Y460822D01*
X161520Y460824D01*
X161373Y460802D01*
X161226Y460785D01*
X161201Y460777D01*
X161175Y460773D01*
X161037Y460718D01*
X160898Y460668D01*
X160876Y460654D01*
X160851Y460644D01*
X160730Y460559D01*
X160605Y460479D01*
X160587Y460460D01*
X160565Y460445D01*
X160466Y460335D01*
X160363Y460228D01*
X160349Y460206D01*
X160332Y460186D01*
X160260Y460056D01*
X160184Y459929D01*
X160176Y459904D01*
X160163Y459881D01*
X160123Y459738D01*
X160078Y459597D01*
X160076Y459571D01*
X160068Y459546D01*
X160049Y459302D01*
X160049Y447438D01*
X160060Y447338D01*
X160062Y447238D01*
X160080Y447165D01*
X160089Y447092D01*
X160122Y446997D01*
X160147Y446900D01*
X160181Y446833D01*
X160206Y446763D01*
X160261Y446679D01*
X160307Y446590D01*
X160355Y446533D01*
X160395Y446471D01*
X160467Y446401D01*
X160532Y446324D01*
X160592Y446280D01*
X160646Y446228D01*
X160732Y446177D01*
X160813Y446117D01*
X160881Y446088D01*
X160945Y446050D01*
X161041Y446019D01*
X161133Y445979D01*
X161206Y445966D01*
X161277Y445943D01*
X161377Y445935D01*
X161476Y445918D01*
X161550Y445921D01*
X161624Y445915D01*
X161724Y445930D01*
X161824Y445935D01*
X161895Y445956D01*
X161969Y445967D01*
X162062Y446004D01*
X162159Y446032D01*
X162224Y446068D01*
X162293Y446096D01*
X162375Y446153D01*
X162463Y446202D01*
X162539Y446267D01*
X162579Y446295D01*
X162603Y446321D01*
X162649Y446361D01*
X164283Y447995D01*
X173505Y457217D01*
X173584Y457316D01*
X173668Y457410D01*
X173692Y457452D01*
X173722Y457490D01*
X173776Y457604D01*
X173837Y457715D01*
X173850Y457761D01*
X173871Y457805D01*
X173897Y457928D01*
X173932Y458050D01*
X173937Y458111D01*
X173944Y458146D01*
X173943Y458194D01*
X173951Y458294D01*
X173951Y459302D01*
X173948Y459328D01*
X173950Y459354D01*
X173928Y459501D01*
X173911Y459648D01*
X173903Y459673D01*
X173899Y459699D01*
X173844Y459837D01*
X173794Y459976D01*
X173780Y459998D01*
X173770Y460023D01*
X173685Y460144D01*
X173605Y460269D01*
X173586Y460287D01*
X173571Y460309D01*
X173461Y460408D01*
X173354Y460511D01*
X173332Y460525D01*
X173312Y460542D01*
X173183Y460614D01*
X173055Y460690D01*
X173030Y460698D01*
X173007Y460711D01*
X172864Y460751D01*
X172723Y460796D01*
X172697Y460798D01*
X172672Y460806D01*
X172428Y460825D01*
X171118Y460825D01*
X170225Y461718D01*
X170225Y482482D01*
X171118Y483375D01*
X182882Y483375D01*
X183775Y482482D01*
X183775Y461718D01*
X182882Y460825D01*
X181572Y460825D01*
X181546Y460822D01*
X181520Y460824D01*
X181373Y460802D01*
X181226Y460785D01*
X181201Y460777D01*
X181175Y460773D01*
X181037Y460718D01*
X180898Y460668D01*
X180876Y460654D01*
X180851Y460644D01*
X180730Y460559D01*
X180605Y460479D01*
X180587Y460460D01*
X180565Y460445D01*
X180466Y460335D01*
X180363Y460228D01*
X180349Y460206D01*
X180332Y460186D01*
X180260Y460056D01*
X180184Y459929D01*
X180176Y459904D01*
X180163Y459881D01*
X180123Y459738D01*
X180078Y459597D01*
X180076Y459571D01*
X180068Y459546D01*
X180049Y459302D01*
X180049Y455137D01*
X168595Y443683D01*
X168516Y443584D01*
X168432Y443490D01*
X168408Y443448D01*
X168378Y443410D01*
X168324Y443296D01*
X168263Y443185D01*
X168250Y443139D01*
X168229Y443095D01*
X168203Y442972D01*
X168168Y442850D01*
X168163Y442789D01*
X168156Y442754D01*
X168157Y442706D01*
X168149Y442606D01*
X168149Y434257D01*
X168157Y434182D01*
X168156Y434105D01*
X168177Y434009D01*
X168189Y433911D01*
X168214Y433839D01*
X168231Y433765D01*
X168273Y433676D01*
X168306Y433583D01*
X168348Y433519D01*
X168380Y433450D01*
X168442Y433373D01*
X168495Y433290D01*
X168550Y433237D01*
X168598Y433177D01*
X168675Y433117D01*
X168746Y433048D01*
X168811Y433009D01*
X168871Y432962D01*
X169005Y432893D01*
X169045Y432869D01*
X169063Y432864D01*
X169089Y432850D01*
X169705Y432595D01*
X171991Y430309D01*
X173229Y427321D01*
X173229Y410879D01*
X172036Y407999D01*
X171994Y407854D01*
X171949Y407711D01*
X171947Y407687D01*
X171940Y407664D01*
X171933Y407513D01*
X171921Y407364D01*
X171924Y407340D01*
X171923Y407316D01*
X171950Y407168D01*
X171972Y407019D01*
X171981Y406997D01*
X171986Y406973D01*
X172046Y406835D01*
X172101Y406695D01*
X172115Y406675D01*
X172125Y406653D01*
X172214Y406532D01*
X172300Y406409D01*
X172318Y406393D01*
X172332Y406373D01*
X172447Y406276D01*
X172559Y406176D01*
X172580Y406164D01*
X172598Y406148D01*
X172732Y406080D01*
X172864Y406007D01*
X172887Y406001D01*
X172909Y405990D01*
X173054Y405953D01*
X173199Y405912D01*
X173228Y405910D01*
X173247Y405905D01*
X173294Y405905D01*
X173443Y405893D01*
X182157Y405893D01*
X182306Y405910D01*
X182456Y405922D01*
X182479Y405930D01*
X182503Y405933D01*
X182645Y405983D01*
X182788Y406029D01*
X182809Y406042D01*
X182831Y406050D01*
X182958Y406132D01*
X183086Y406209D01*
X183104Y406226D01*
X183124Y406239D01*
X183229Y406348D01*
X183336Y406452D01*
X183349Y406472D01*
X183366Y406490D01*
X183444Y406619D01*
X183525Y406745D01*
X183533Y406768D01*
X183545Y406789D01*
X183591Y406932D01*
X183641Y407074D01*
X183644Y407098D01*
X183651Y407121D01*
X183663Y407270D01*
X183680Y407420D01*
X183677Y407444D01*
X183679Y407468D01*
X183657Y407617D01*
X183639Y407766D01*
X183630Y407794D01*
X183628Y407813D01*
X183610Y407857D01*
X183564Y407999D01*
X182371Y410879D01*
X182371Y427321D01*
X183609Y430309D01*
X185895Y432595D01*
X186511Y432850D01*
X186578Y432887D01*
X186649Y432916D01*
X186729Y432972D01*
X186816Y433019D01*
X186872Y433071D01*
X186935Y433114D01*
X187001Y433187D01*
X187074Y433254D01*
X187117Y433317D01*
X187168Y433373D01*
X187216Y433459D01*
X187272Y433540D01*
X187300Y433611D01*
X187337Y433678D01*
X187364Y433773D01*
X187400Y433865D01*
X187411Y433940D01*
X187432Y434014D01*
X187444Y434163D01*
X187451Y434209D01*
X187449Y434228D01*
X187451Y434257D01*
X187451Y445763D01*
X193505Y451817D01*
X193584Y451916D01*
X193668Y452010D01*
X193692Y452052D01*
X193722Y452090D01*
X193776Y452204D01*
X193837Y452315D01*
X193850Y452361D01*
X193871Y452405D01*
X193897Y452528D01*
X193932Y452650D01*
X193937Y452711D01*
X193944Y452746D01*
X193943Y452794D01*
X193951Y452894D01*
X193951Y459302D01*
X193948Y459328D01*
X193950Y459354D01*
X193928Y459501D01*
X193911Y459648D01*
X193903Y459673D01*
X193899Y459699D01*
X193844Y459837D01*
X193794Y459976D01*
X193780Y459998D01*
X193770Y460023D01*
X193685Y460144D01*
X193605Y460269D01*
X193586Y460287D01*
X193571Y460309D01*
X193461Y460408D01*
X193354Y460511D01*
X193332Y460525D01*
X193312Y460542D01*
X193183Y460614D01*
X193055Y460690D01*
X193030Y460698D01*
X193007Y460711D01*
X192864Y460751D01*
X192723Y460796D01*
X192697Y460798D01*
X192672Y460806D01*
X192428Y460825D01*
X191118Y460825D01*
X190225Y461718D01*
X190225Y482482D01*
X191118Y483375D01*
X202882Y483375D01*
X203775Y482482D01*
X203775Y461718D01*
X202882Y460825D01*
X201572Y460825D01*
X201546Y460822D01*
X201520Y460824D01*
X201373Y460802D01*
X201226Y460785D01*
X201201Y460777D01*
X201175Y460773D01*
X201037Y460718D01*
X200898Y460668D01*
X200876Y460654D01*
X200851Y460644D01*
X200730Y460559D01*
X200605Y460479D01*
X200587Y460460D01*
X200565Y460445D01*
X200466Y460335D01*
X200363Y460228D01*
X200349Y460206D01*
X200332Y460186D01*
X200260Y460056D01*
X200184Y459929D01*
X200176Y459904D01*
X200163Y459881D01*
X200123Y459738D01*
X200078Y459597D01*
X200076Y459571D01*
X200068Y459546D01*
X200049Y459302D01*
X200049Y449737D01*
X193995Y443683D01*
X193916Y443584D01*
X193832Y443490D01*
X193808Y443448D01*
X193778Y443410D01*
X193724Y443296D01*
X193663Y443185D01*
X193650Y443139D01*
X193629Y443095D01*
X193603Y442972D01*
X193568Y442850D01*
X193563Y442789D01*
X193556Y442754D01*
X193557Y442706D01*
X193549Y442606D01*
X193549Y434257D01*
X193557Y434182D01*
X193556Y434105D01*
X193577Y434009D01*
X193589Y433911D01*
X193614Y433839D01*
X193631Y433765D01*
X193673Y433676D01*
X193706Y433583D01*
X193748Y433519D01*
X193780Y433450D01*
X193842Y433373D01*
X193895Y433290D01*
X193950Y433237D01*
X193998Y433177D01*
X194075Y433117D01*
X194146Y433048D01*
X194211Y433009D01*
X194271Y432962D01*
X194405Y432893D01*
X194445Y432869D01*
X194463Y432864D01*
X194489Y432850D01*
X195105Y432595D01*
X197391Y430309D01*
X198629Y427321D01*
X198629Y410879D01*
X197436Y407999D01*
X197394Y407854D01*
X197349Y407711D01*
X197347Y407687D01*
X197340Y407664D01*
X197333Y407513D01*
X197321Y407364D01*
X197324Y407340D01*
X197323Y407316D01*
X197350Y407168D01*
X197372Y407019D01*
X197381Y406997D01*
X197386Y406973D01*
X197446Y406835D01*
X197501Y406695D01*
X197515Y406675D01*
X197525Y406653D01*
X197614Y406532D01*
X197700Y406409D01*
X197718Y406393D01*
X197732Y406373D01*
X197847Y406276D01*
X197959Y406176D01*
X197980Y406164D01*
X197998Y406148D01*
X198132Y406080D01*
X198264Y406007D01*
X198287Y406001D01*
X198309Y405990D01*
X198454Y405953D01*
X198599Y405912D01*
X198628Y405910D01*
X198647Y405905D01*
X198694Y405905D01*
X198843Y405893D01*
X205304Y405893D01*
X205430Y405907D01*
X205556Y405914D01*
X205602Y405927D01*
X205650Y405933D01*
X205769Y405975D01*
X205891Y406010D01*
X205933Y406034D01*
X205979Y406050D01*
X206085Y406119D01*
X206195Y406180D01*
X206241Y406220D01*
X206271Y406239D01*
X206305Y406274D01*
X206381Y406339D01*
X222191Y422149D01*
X222252Y422149D01*
X222278Y422152D01*
X222304Y422150D01*
X222451Y422172D01*
X222598Y422189D01*
X222623Y422197D01*
X222649Y422201D01*
X222787Y422256D01*
X222926Y422306D01*
X222948Y422320D01*
X222973Y422330D01*
X223094Y422415D01*
X223219Y422495D01*
X223237Y422514D01*
X223259Y422529D01*
X223358Y422639D01*
X223461Y422746D01*
X223475Y422768D01*
X223492Y422788D01*
X223564Y422918D01*
X223640Y423045D01*
X223648Y423070D01*
X223661Y423093D01*
X223701Y423236D01*
X223746Y423377D01*
X223748Y423403D01*
X223756Y423428D01*
X223775Y423672D01*
X223775Y427232D01*
X224668Y428125D01*
X227228Y428125D01*
X227254Y428128D01*
X227280Y428126D01*
X227427Y428148D01*
X227574Y428165D01*
X227599Y428173D01*
X227625Y428177D01*
X227763Y428232D01*
X227902Y428282D01*
X227924Y428296D01*
X227949Y428306D01*
X228070Y428391D01*
X228195Y428471D01*
X228213Y428490D01*
X228235Y428505D01*
X228334Y428615D01*
X228437Y428722D01*
X228451Y428744D01*
X228468Y428764D01*
X228540Y428894D01*
X228616Y429021D01*
X228624Y429046D01*
X228637Y429069D01*
X228677Y429212D01*
X228722Y429353D01*
X228724Y429379D01*
X228732Y429404D01*
X228751Y429648D01*
X228751Y433952D01*
X228748Y433978D01*
X228750Y434004D01*
X228728Y434151D01*
X228711Y434298D01*
X228703Y434323D01*
X228699Y434349D01*
X228644Y434487D01*
X228594Y434626D01*
X228580Y434648D01*
X228570Y434673D01*
X228485Y434794D01*
X228405Y434919D01*
X228386Y434937D01*
X228371Y434959D01*
X228261Y435058D01*
X228154Y435161D01*
X228132Y435175D01*
X228112Y435192D01*
X227983Y435264D01*
X227855Y435340D01*
X227830Y435348D01*
X227807Y435361D01*
X227664Y435401D01*
X227523Y435446D01*
X227497Y435448D01*
X227472Y435456D01*
X227228Y435475D01*
X224668Y435475D01*
X223775Y436368D01*
X223775Y452632D01*
X224668Y453525D01*
X227228Y453525D01*
X227254Y453528D01*
X227280Y453526D01*
X227427Y453548D01*
X227574Y453565D01*
X227599Y453573D01*
X227625Y453577D01*
X227763Y453632D01*
X227902Y453682D01*
X227924Y453696D01*
X227949Y453706D01*
X228070Y453791D01*
X228195Y453871D01*
X228213Y453890D01*
X228235Y453905D01*
X228334Y454015D01*
X228437Y454122D01*
X228451Y454144D01*
X228468Y454164D01*
X228540Y454294D01*
X228616Y454421D01*
X228624Y454446D01*
X228637Y454469D01*
X228677Y454612D01*
X228722Y454753D01*
X228724Y454779D01*
X228732Y454804D01*
X228751Y455048D01*
X228751Y459352D01*
X228748Y459378D01*
X228750Y459404D01*
X228728Y459551D01*
X228711Y459698D01*
X228703Y459723D01*
X228699Y459749D01*
X228644Y459887D01*
X228594Y460026D01*
X228580Y460048D01*
X228570Y460073D01*
X228485Y460194D01*
X228405Y460319D01*
X228386Y460337D01*
X228371Y460359D01*
X228261Y460458D01*
X228154Y460561D01*
X228132Y460575D01*
X228112Y460592D01*
X227983Y460664D01*
X227855Y460740D01*
X227830Y460748D01*
X227807Y460761D01*
X227664Y460801D01*
X227523Y460846D01*
X227497Y460848D01*
X227472Y460856D01*
X227228Y460875D01*
X224668Y460875D01*
X223775Y461768D01*
X223775Y478032D01*
X224668Y478925D01*
X238932Y478925D01*
X239629Y478227D01*
X239670Y478195D01*
X239704Y478157D01*
X239805Y478087D01*
X239902Y478010D01*
X239949Y477988D01*
X239991Y477959D01*
X240106Y477914D01*
X240218Y477861D01*
X240267Y477851D01*
X240315Y477832D01*
X240437Y477814D01*
X240558Y477788D01*
X240609Y477789D01*
X240660Y477781D01*
X240783Y477792D01*
X240907Y477794D01*
X240956Y477806D01*
X241007Y477811D01*
X241125Y477849D01*
X241245Y477879D01*
X241290Y477902D01*
X241339Y477918D01*
X241445Y477982D01*
X241554Y478039D01*
X241593Y478072D01*
X241637Y478098D01*
X241726Y478184D01*
X241820Y478264D01*
X241850Y478305D01*
X241887Y478341D01*
X242026Y478542D01*
X242267Y478960D01*
X242740Y479433D01*
X243319Y479768D01*
X243965Y479941D01*
X247753Y479941D01*
X247753Y471424D01*
X247756Y471398D01*
X247754Y471372D01*
X247776Y471225D01*
X247793Y471078D01*
X247801Y471053D01*
X247805Y471027D01*
X247860Y470889D01*
X247910Y470750D01*
X247924Y470728D01*
X247934Y470703D01*
X248019Y470582D01*
X248099Y470457D01*
X248118Y470439D01*
X248133Y470417D01*
X248243Y470318D01*
X248350Y470215D01*
X248372Y470201D01*
X248392Y470184D01*
X248522Y470112D01*
X248649Y470036D01*
X248674Y470028D01*
X248697Y470015D01*
X248840Y469975D01*
X248981Y469930D01*
X249007Y469928D01*
X249032Y469920D01*
X249276Y469901D01*
X250801Y469901D01*
X250801Y469899D01*
X249276Y469899D01*
X249250Y469896D01*
X249224Y469898D01*
X249077Y469876D01*
X248930Y469859D01*
X248905Y469850D01*
X248879Y469847D01*
X248741Y469792D01*
X248602Y469742D01*
X248580Y469728D01*
X248555Y469718D01*
X248433Y469633D01*
X248309Y469553D01*
X248291Y469534D01*
X248269Y469519D01*
X248170Y469409D01*
X248067Y469302D01*
X248053Y469280D01*
X248036Y469260D01*
X247964Y469130D01*
X247888Y469003D01*
X247880Y468978D01*
X247867Y468955D01*
X247827Y468812D01*
X247782Y468671D01*
X247780Y468645D01*
X247772Y468620D01*
X247753Y468376D01*
X247753Y459859D01*
X243965Y459859D01*
X243319Y460032D01*
X242740Y460367D01*
X242267Y460840D01*
X242026Y461258D01*
X241995Y461299D01*
X241972Y461344D01*
X241892Y461438D01*
X241818Y461538D01*
X241779Y461571D01*
X241746Y461609D01*
X241647Y461683D01*
X241552Y461763D01*
X241507Y461786D01*
X241466Y461817D01*
X241352Y461866D01*
X241242Y461922D01*
X241193Y461934D01*
X241146Y461955D01*
X241024Y461976D01*
X240904Y462006D01*
X240853Y462007D01*
X240803Y462016D01*
X240679Y462010D01*
X240556Y462012D01*
X240506Y462001D01*
X240455Y461998D01*
X240336Y461964D01*
X240215Y461938D01*
X240169Y461916D01*
X240120Y461902D01*
X240012Y461841D01*
X239900Y461788D01*
X239860Y461757D01*
X239816Y461732D01*
X239629Y461573D01*
X238932Y460875D01*
X236372Y460875D01*
X236346Y460872D01*
X236320Y460874D01*
X236173Y460852D01*
X236026Y460835D01*
X236001Y460827D01*
X235975Y460823D01*
X235837Y460768D01*
X235698Y460718D01*
X235676Y460704D01*
X235651Y460694D01*
X235530Y460609D01*
X235405Y460529D01*
X235387Y460510D01*
X235365Y460495D01*
X235266Y460385D01*
X235163Y460278D01*
X235149Y460256D01*
X235132Y460236D01*
X235060Y460106D01*
X234984Y459979D01*
X234976Y459954D01*
X234963Y459931D01*
X234923Y459788D01*
X234878Y459647D01*
X234876Y459621D01*
X234868Y459596D01*
X234849Y459352D01*
X234849Y455048D01*
X234852Y455022D01*
X234850Y454996D01*
X234872Y454849D01*
X234889Y454702D01*
X234897Y454677D01*
X234901Y454651D01*
X234956Y454513D01*
X235006Y454374D01*
X235020Y454352D01*
X235030Y454327D01*
X235115Y454206D01*
X235195Y454081D01*
X235214Y454063D01*
X235229Y454041D01*
X235339Y453942D01*
X235446Y453839D01*
X235468Y453825D01*
X235488Y453808D01*
X235618Y453736D01*
X235745Y453660D01*
X235770Y453652D01*
X235793Y453639D01*
X235936Y453599D01*
X236077Y453554D01*
X236103Y453552D01*
X236128Y453544D01*
X236372Y453525D01*
X238932Y453525D01*
X239629Y452827D01*
X239670Y452795D01*
X239704Y452757D01*
X239805Y452687D01*
X239902Y452610D01*
X239949Y452588D01*
X239991Y452559D01*
X240106Y452514D01*
X240218Y452461D01*
X240267Y452451D01*
X240315Y452432D01*
X240437Y452414D01*
X240558Y452388D01*
X240609Y452389D01*
X240660Y452381D01*
X240783Y452392D01*
X240907Y452394D01*
X240956Y452406D01*
X241007Y452411D01*
X241125Y452449D01*
X241245Y452479D01*
X241290Y452502D01*
X241339Y452518D01*
X241445Y452582D01*
X241554Y452639D01*
X241593Y452672D01*
X241637Y452698D01*
X241726Y452784D01*
X241820Y452864D01*
X241850Y452905D01*
X241887Y452941D01*
X242026Y453142D01*
X242267Y453560D01*
X242740Y454033D01*
X243319Y454368D01*
X243965Y454541D01*
X247753Y454541D01*
X247753Y446024D01*
X247756Y445998D01*
X247754Y445972D01*
X247776Y445825D01*
X247793Y445678D01*
X247801Y445653D01*
X247805Y445627D01*
X247860Y445489D01*
X247910Y445350D01*
X247924Y445328D01*
X247934Y445303D01*
X248019Y445182D01*
X248099Y445057D01*
X248118Y445039D01*
X248133Y445017D01*
X248243Y444918D01*
X248350Y444815D01*
X248372Y444801D01*
X248392Y444784D01*
X248522Y444712D01*
X248649Y444636D01*
X248674Y444628D01*
X248697Y444615D01*
X248840Y444575D01*
X248981Y444530D01*
X249007Y444528D01*
X249032Y444520D01*
X249276Y444501D01*
X250801Y444501D01*
X250801Y444499D01*
X249276Y444499D01*
X249250Y444496D01*
X249224Y444498D01*
X249077Y444476D01*
X248930Y444459D01*
X248905Y444450D01*
X248879Y444447D01*
X248741Y444392D01*
X248602Y444342D01*
X248580Y444328D01*
X248555Y444318D01*
X248434Y444233D01*
X248309Y444153D01*
X248291Y444134D01*
X248269Y444119D01*
X248170Y444009D01*
X248067Y443902D01*
X248053Y443880D01*
X248036Y443860D01*
X247964Y443730D01*
X247888Y443603D01*
X247880Y443578D01*
X247867Y443555D01*
X247827Y443412D01*
X247782Y443271D01*
X247780Y443245D01*
X247772Y443220D01*
X247753Y442976D01*
X247753Y434459D01*
X243965Y434459D01*
X243319Y434632D01*
X242740Y434967D01*
X242267Y435440D01*
X242026Y435858D01*
X241995Y435899D01*
X241972Y435944D01*
X241892Y436038D01*
X241818Y436138D01*
X241779Y436171D01*
X241746Y436209D01*
X241647Y436283D01*
X241552Y436363D01*
X241507Y436386D01*
X241466Y436417D01*
X241352Y436466D01*
X241242Y436522D01*
X241193Y436534D01*
X241146Y436555D01*
X241024Y436576D01*
X240904Y436606D01*
X240853Y436607D01*
X240803Y436616D01*
X240679Y436610D01*
X240556Y436612D01*
X240506Y436601D01*
X240455Y436598D01*
X240336Y436564D01*
X240215Y436538D01*
X240169Y436516D01*
X240120Y436502D01*
X240012Y436441D01*
X239900Y436388D01*
X239860Y436357D01*
X239816Y436332D01*
X239629Y436173D01*
X238932Y435475D01*
X236372Y435475D01*
X236346Y435472D01*
X236320Y435474D01*
X236173Y435452D01*
X236026Y435435D01*
X236001Y435427D01*
X235975Y435423D01*
X235837Y435368D01*
X235698Y435318D01*
X235676Y435304D01*
X235651Y435294D01*
X235530Y435209D01*
X235405Y435129D01*
X235387Y435110D01*
X235365Y435095D01*
X235266Y434985D01*
X235163Y434878D01*
X235149Y434856D01*
X235132Y434836D01*
X235060Y434706D01*
X234984Y434579D01*
X234976Y434554D01*
X234963Y434531D01*
X234923Y434388D01*
X234878Y434247D01*
X234876Y434221D01*
X234868Y434196D01*
X234849Y433952D01*
X234849Y429648D01*
X234852Y429622D01*
X234850Y429596D01*
X234872Y429449D01*
X234889Y429302D01*
X234897Y429277D01*
X234901Y429251D01*
X234956Y429113D01*
X235006Y428974D01*
X235020Y428952D01*
X235030Y428927D01*
X235115Y428806D01*
X235195Y428681D01*
X235214Y428663D01*
X235229Y428641D01*
X235339Y428542D01*
X235446Y428439D01*
X235468Y428425D01*
X235488Y428408D01*
X235618Y428336D01*
X235745Y428260D01*
X235770Y428252D01*
X235793Y428239D01*
X235936Y428199D01*
X236077Y428154D01*
X236103Y428152D01*
X236128Y428144D01*
X236372Y428125D01*
X238932Y428125D01*
X239629Y427427D01*
X239670Y427395D01*
X239704Y427357D01*
X239805Y427287D01*
X239902Y427210D01*
X239949Y427188D01*
X239991Y427159D01*
X240106Y427114D01*
X240218Y427061D01*
X240267Y427051D01*
X240315Y427032D01*
X240437Y427014D01*
X240558Y426988D01*
X240609Y426989D01*
X240660Y426981D01*
X240783Y426992D01*
X240907Y426994D01*
X240956Y427006D01*
X241007Y427011D01*
X241125Y427049D01*
X241245Y427079D01*
X241290Y427102D01*
X241339Y427118D01*
X241445Y427182D01*
X241554Y427239D01*
X241593Y427272D01*
X241637Y427298D01*
X241726Y427384D01*
X241820Y427464D01*
X241850Y427505D01*
X241887Y427541D01*
X242026Y427742D01*
X242267Y428160D01*
X242740Y428633D01*
X243319Y428968D01*
X243965Y429141D01*
X247753Y429141D01*
X247753Y420624D01*
X247756Y420598D01*
X247754Y420572D01*
X247776Y420425D01*
X247793Y420278D01*
X247801Y420253D01*
X247805Y420227D01*
X247860Y420089D01*
X247910Y419950D01*
X247924Y419928D01*
X247934Y419903D01*
X248019Y419782D01*
X248099Y419657D01*
X248118Y419639D01*
X248133Y419617D01*
X248243Y419518D01*
X248350Y419415D01*
X248372Y419401D01*
X248392Y419384D01*
X248522Y419312D01*
X248649Y419236D01*
X248674Y419228D01*
X248697Y419215D01*
X248840Y419175D01*
X248981Y419130D01*
X249007Y419128D01*
X249032Y419120D01*
X249276Y419101D01*
X250801Y419101D01*
X250801Y419099D01*
X249276Y419099D01*
X249250Y419096D01*
X249224Y419098D01*
X249077Y419076D01*
X248930Y419059D01*
X248905Y419050D01*
X248879Y419047D01*
X248741Y418992D01*
X248602Y418942D01*
X248580Y418928D01*
X248555Y418918D01*
X248434Y418833D01*
X248309Y418753D01*
X248291Y418734D01*
X248269Y418719D01*
X248170Y418609D01*
X248067Y418502D01*
X248053Y418480D01*
X248036Y418460D01*
X247964Y418330D01*
X247888Y418203D01*
X247880Y418178D01*
X247867Y418155D01*
X247827Y418012D01*
X247782Y417871D01*
X247780Y417845D01*
X247772Y417820D01*
X247753Y417576D01*
X247753Y409059D01*
X243965Y409059D01*
X243319Y409232D01*
X242740Y409567D01*
X242267Y410040D01*
X242026Y410458D01*
X241995Y410499D01*
X241972Y410544D01*
X241892Y410638D01*
X241818Y410738D01*
X241779Y410771D01*
X241746Y410809D01*
X241647Y410883D01*
X241552Y410963D01*
X241507Y410986D01*
X241466Y411017D01*
X241352Y411066D01*
X241242Y411122D01*
X241193Y411134D01*
X241146Y411155D01*
X241024Y411176D01*
X240904Y411206D01*
X240853Y411207D01*
X240803Y411216D01*
X240679Y411210D01*
X240556Y411212D01*
X240506Y411201D01*
X240455Y411198D01*
X240336Y411164D01*
X240215Y411138D01*
X240169Y411116D01*
X240120Y411102D01*
X240012Y411041D01*
X239900Y410988D01*
X239860Y410957D01*
X239816Y410932D01*
X239629Y410773D01*
X238932Y410075D01*
X224668Y410075D01*
X223775Y410968D01*
X223775Y411432D01*
X223764Y411532D01*
X223762Y411632D01*
X223744Y411705D01*
X223735Y411778D01*
X223702Y411873D01*
X223677Y411970D01*
X223643Y412037D01*
X223618Y412107D01*
X223563Y412191D01*
X223517Y412280D01*
X223469Y412337D01*
X223429Y412399D01*
X223357Y412469D01*
X223292Y412546D01*
X223232Y412590D01*
X223178Y412642D01*
X223092Y412693D01*
X223011Y412753D01*
X222943Y412782D01*
X222879Y412820D01*
X222783Y412851D01*
X222691Y412891D01*
X222618Y412904D01*
X222547Y412927D01*
X222447Y412935D01*
X222348Y412952D01*
X222274Y412949D01*
X222200Y412955D01*
X222100Y412940D01*
X222000Y412935D01*
X221929Y412914D01*
X221855Y412903D01*
X221762Y412866D01*
X221665Y412838D01*
X221600Y412802D01*
X221531Y412774D01*
X221449Y412717D01*
X221361Y412668D01*
X221285Y412603D01*
X221245Y412575D01*
X221221Y412549D01*
X221175Y412509D01*
X210693Y402027D01*
X208461Y399795D01*
X121739Y399795D01*
G37*
%LPD*%
%LPC*%
G36*
X38032Y419257D02*
X38032Y419257D01*
X37925Y419360D01*
X37902Y419374D01*
X37883Y419391D01*
X37753Y419463D01*
X37626Y419539D01*
X37601Y419547D01*
X37578Y419560D01*
X37435Y419600D01*
X37294Y419645D01*
X37268Y419647D01*
X37243Y419655D01*
X36999Y419674D01*
X24559Y419674D01*
X24559Y422635D01*
X24732Y423281D01*
X25067Y423860D01*
X25540Y424333D01*
X26223Y424728D01*
X26294Y424755D01*
X26295Y424756D01*
X26297Y424757D01*
X26429Y424849D01*
X26580Y424954D01*
X26582Y424955D01*
X26583Y424956D01*
X26693Y425078D01*
X26814Y425212D01*
X26815Y425214D01*
X26816Y425215D01*
X26901Y425369D01*
X26984Y425517D01*
X26984Y425518D01*
X26985Y425520D01*
X27034Y425693D01*
X27079Y425852D01*
X27079Y425853D01*
X27080Y425855D01*
X27099Y426099D01*
X27099Y437501D01*
X27099Y437503D01*
X27099Y437504D01*
X27079Y437680D01*
X27059Y437847D01*
X27059Y437849D01*
X27059Y437850D01*
X27004Y438003D01*
X26942Y438175D01*
X26941Y438177D01*
X26940Y438178D01*
X26850Y438317D01*
X26753Y438468D01*
X26752Y438469D01*
X26751Y438471D01*
X26632Y438585D01*
X26502Y438710D01*
X26501Y438711D01*
X26500Y438712D01*
X26357Y438797D01*
X26203Y438889D01*
X26201Y438890D01*
X26200Y438891D01*
X26179Y438898D01*
X25540Y439267D01*
X25067Y439740D01*
X24732Y440319D01*
X24559Y440965D01*
X24559Y443926D01*
X36999Y443926D01*
X37025Y443929D01*
X37051Y443927D01*
X37198Y443949D01*
X37345Y443966D01*
X37370Y443974D01*
X37396Y443978D01*
X37533Y444033D01*
X37673Y444083D01*
X37695Y444097D01*
X37720Y444107D01*
X37841Y444192D01*
X37966Y444272D01*
X37984Y444291D01*
X38006Y444306D01*
X38097Y444407D01*
X38168Y444343D01*
X38275Y444240D01*
X38298Y444226D01*
X38317Y444209D01*
X38447Y444137D01*
X38574Y444061D01*
X38599Y444053D01*
X38622Y444040D01*
X38765Y444000D01*
X38906Y443955D01*
X38932Y443952D01*
X38957Y443945D01*
X39201Y443926D01*
X51641Y443926D01*
X51641Y440965D01*
X51447Y440242D01*
X51442Y440206D01*
X51436Y440188D01*
X51435Y440178D01*
X51424Y440143D01*
X51414Y440020D01*
X51396Y439897D01*
X51400Y439847D01*
X51396Y439796D01*
X51414Y439673D01*
X51424Y439550D01*
X51440Y439502D01*
X51448Y439451D01*
X51493Y439336D01*
X51531Y439218D01*
X51557Y439175D01*
X51576Y439127D01*
X51647Y439026D01*
X51711Y438920D01*
X51746Y438883D01*
X51775Y438841D01*
X51867Y438758D01*
X51953Y438669D01*
X51996Y438642D01*
X52034Y438608D01*
X52142Y438548D01*
X52246Y438481D01*
X52294Y438464D01*
X52339Y438439D01*
X52458Y438405D01*
X52575Y438364D01*
X52625Y438358D01*
X52675Y438344D01*
X52918Y438325D01*
X54932Y438325D01*
X55058Y438339D01*
X55184Y438346D01*
X55230Y438359D01*
X55278Y438365D01*
X55397Y438407D01*
X55519Y438442D01*
X55561Y438466D01*
X55607Y438482D01*
X55713Y438551D01*
X55823Y438612D01*
X55869Y438652D01*
X55899Y438671D01*
X55933Y438706D01*
X56009Y438771D01*
X60005Y442767D01*
X60084Y442866D01*
X60168Y442960D01*
X60192Y443002D01*
X60222Y443040D01*
X60276Y443154D01*
X60337Y443265D01*
X60350Y443311D01*
X60371Y443355D01*
X60397Y443478D01*
X60432Y443600D01*
X60437Y443661D01*
X60444Y443696D01*
X60443Y443744D01*
X60451Y443844D01*
X60451Y459302D01*
X60448Y459328D01*
X60450Y459354D01*
X60428Y459501D01*
X60411Y459648D01*
X60403Y459673D01*
X60399Y459699D01*
X60344Y459837D01*
X60294Y459976D01*
X60280Y459998D01*
X60270Y460023D01*
X60185Y460144D01*
X60105Y460269D01*
X60086Y460287D01*
X60071Y460309D01*
X59961Y460408D01*
X59854Y460511D01*
X59832Y460525D01*
X59812Y460542D01*
X59683Y460614D01*
X59555Y460690D01*
X59530Y460698D01*
X59507Y460711D01*
X59364Y460751D01*
X59223Y460796D01*
X59197Y460798D01*
X59172Y460806D01*
X58928Y460825D01*
X51118Y460825D01*
X50225Y461718D01*
X50225Y482482D01*
X51118Y483375D01*
X62882Y483375D01*
X63775Y482482D01*
X63775Y470268D01*
X63789Y470142D01*
X63796Y470016D01*
X63809Y469970D01*
X63815Y469922D01*
X63857Y469803D01*
X63892Y469681D01*
X63916Y469639D01*
X63932Y469593D01*
X64001Y469487D01*
X64062Y469377D01*
X64102Y469331D01*
X64121Y469301D01*
X64156Y469267D01*
X64221Y469191D01*
X64317Y469095D01*
X66609Y466803D01*
X66687Y466740D01*
X66760Y466670D01*
X66824Y466632D01*
X66882Y466586D01*
X66973Y466543D01*
X67059Y466492D01*
X67130Y466469D01*
X67197Y466437D01*
X67295Y466416D01*
X67391Y466385D01*
X67465Y466379D01*
X67538Y466364D01*
X67638Y466365D01*
X67738Y466357D01*
X67812Y466368D01*
X67886Y466370D01*
X67983Y466394D01*
X68083Y466409D01*
X68152Y466437D01*
X68224Y466455D01*
X68313Y466501D01*
X68407Y466538D01*
X68468Y466580D01*
X68534Y466614D01*
X68610Y466679D01*
X68693Y466737D01*
X68743Y466792D01*
X68799Y466840D01*
X68859Y466921D01*
X68926Y466996D01*
X68962Y467061D01*
X69007Y467120D01*
X69046Y467213D01*
X69095Y467301D01*
X69115Y467372D01*
X69145Y467440D01*
X69162Y467539D01*
X69190Y467636D01*
X69198Y467736D01*
X69206Y467783D01*
X69204Y467819D01*
X69209Y467880D01*
X69209Y469476D01*
X74376Y469476D01*
X74376Y459809D01*
X71415Y459809D01*
X70769Y459982D01*
X70190Y460317D01*
X69717Y460790D01*
X69391Y461354D01*
X69317Y461455D01*
X69249Y461560D01*
X69213Y461594D01*
X69184Y461634D01*
X69088Y461715D01*
X68998Y461802D01*
X68956Y461827D01*
X68918Y461859D01*
X68806Y461917D01*
X68699Y461981D01*
X68652Y461996D01*
X68608Y462019D01*
X68486Y462049D01*
X68367Y462087D01*
X68318Y462091D01*
X68269Y462103D01*
X68144Y462105D01*
X68020Y462115D01*
X67971Y462108D01*
X67921Y462108D01*
X67799Y462082D01*
X67675Y462063D01*
X67629Y462045D01*
X67580Y462034D01*
X67468Y461981D01*
X67351Y461934D01*
X67310Y461906D01*
X67266Y461885D01*
X67168Y461807D01*
X67065Y461736D01*
X67032Y461699D01*
X66993Y461668D01*
X66915Y461570D01*
X66832Y461477D01*
X66808Y461433D01*
X66777Y461394D01*
X66724Y461281D01*
X66663Y461172D01*
X66650Y461124D01*
X66628Y461079D01*
X66602Y460957D01*
X66568Y460836D01*
X66563Y460774D01*
X66556Y460738D01*
X66557Y460690D01*
X66549Y460593D01*
X66549Y440687D01*
X60571Y434709D01*
X60492Y434610D01*
X60408Y434516D01*
X60384Y434474D01*
X60354Y434436D01*
X60300Y434322D01*
X60239Y434211D01*
X60226Y434165D01*
X60205Y434121D01*
X60179Y433998D01*
X60144Y433876D01*
X60139Y433815D01*
X60132Y433780D01*
X60133Y433732D01*
X60125Y433632D01*
X60125Y426168D01*
X59232Y425275D01*
X52918Y425275D01*
X52868Y425269D01*
X52817Y425272D01*
X52695Y425250D01*
X52572Y425235D01*
X52524Y425218D01*
X52474Y425209D01*
X52360Y425160D01*
X52244Y425118D01*
X52201Y425090D01*
X52154Y425070D01*
X52055Y424996D01*
X51951Y424929D01*
X51916Y424892D01*
X51875Y424862D01*
X51795Y424767D01*
X51709Y424678D01*
X51683Y424634D01*
X51650Y424595D01*
X51594Y424485D01*
X51530Y424379D01*
X51515Y424331D01*
X51491Y424285D01*
X51462Y424165D01*
X51424Y424047D01*
X51420Y423996D01*
X51408Y423947D01*
X51406Y423823D01*
X51396Y423700D01*
X51403Y423649D01*
X51403Y423598D01*
X51447Y423358D01*
X51641Y422634D01*
X51641Y419674D01*
X39201Y419674D01*
X39175Y419671D01*
X39149Y419673D01*
X39002Y419651D01*
X38855Y419634D01*
X38830Y419626D01*
X38804Y419622D01*
X38667Y419567D01*
X38527Y419517D01*
X38505Y419503D01*
X38480Y419493D01*
X38359Y419408D01*
X38234Y419328D01*
X38216Y419309D01*
X38194Y419294D01*
X38103Y419193D01*
X38032Y419257D01*
G37*
%LPD*%
%LPC*%
G36*
X171118Y608825D02*
X171118Y608825D01*
X170225Y609718D01*
X170225Y630482D01*
X171118Y631375D01*
X172428Y631375D01*
X172454Y631378D01*
X172480Y631376D01*
X172627Y631398D01*
X172774Y631415D01*
X172799Y631423D01*
X172825Y631427D01*
X172963Y631482D01*
X173102Y631532D01*
X173124Y631546D01*
X173149Y631556D01*
X173270Y631641D01*
X173395Y631721D01*
X173413Y631740D01*
X173435Y631755D01*
X173534Y631865D01*
X173637Y631972D01*
X173651Y631994D01*
X173668Y632014D01*
X173740Y632144D01*
X173816Y632271D01*
X173824Y632296D01*
X173837Y632319D01*
X173877Y632462D01*
X173922Y632603D01*
X173924Y632629D01*
X173932Y632654D01*
X173951Y632898D01*
X173951Y648163D01*
X184567Y658779D01*
X184584Y658799D01*
X184604Y658816D01*
X184692Y658936D01*
X184784Y659052D01*
X184795Y659075D01*
X184811Y659097D01*
X184869Y659233D01*
X184933Y659367D01*
X184938Y659393D01*
X184949Y659417D01*
X184975Y659563D01*
X185006Y659708D01*
X185006Y659734D01*
X185010Y659760D01*
X185003Y659908D01*
X185000Y660056D01*
X184994Y660081D01*
X184992Y660108D01*
X184951Y660250D01*
X184915Y660394D01*
X184903Y660417D01*
X184896Y660443D01*
X184824Y660572D01*
X184756Y660704D01*
X184739Y660724D01*
X184726Y660747D01*
X184567Y660933D01*
X183609Y661891D01*
X182371Y664879D01*
X182371Y681321D01*
X183609Y684309D01*
X185895Y686595D01*
X188883Y687833D01*
X192117Y687833D01*
X195105Y686595D01*
X197391Y684309D01*
X198629Y681321D01*
X198629Y664879D01*
X197391Y661891D01*
X195105Y659605D01*
X193527Y658951D01*
X193525Y658950D01*
X193523Y658950D01*
X193370Y658864D01*
X193222Y658782D01*
X193221Y658781D01*
X193219Y658780D01*
X193033Y658621D01*
X191317Y656905D01*
X180495Y646083D01*
X180416Y645984D01*
X180332Y645890D01*
X180308Y645848D01*
X180278Y645810D01*
X180224Y645696D01*
X180163Y645585D01*
X180150Y645539D01*
X180129Y645495D01*
X180103Y645372D01*
X180068Y645250D01*
X180063Y645189D01*
X180056Y645154D01*
X180057Y645106D01*
X180049Y645006D01*
X180049Y632898D01*
X180052Y632872D01*
X180050Y632846D01*
X180072Y632699D01*
X180089Y632552D01*
X180097Y632527D01*
X180101Y632501D01*
X180156Y632363D01*
X180206Y632224D01*
X180220Y632202D01*
X180230Y632177D01*
X180315Y632056D01*
X180395Y631931D01*
X180414Y631913D01*
X180429Y631891D01*
X180539Y631792D01*
X180646Y631689D01*
X180668Y631675D01*
X180688Y631658D01*
X180818Y631586D01*
X180945Y631510D01*
X180970Y631502D01*
X180993Y631489D01*
X181136Y631449D01*
X181277Y631404D01*
X181303Y631402D01*
X181328Y631394D01*
X181572Y631375D01*
X182882Y631375D01*
X183775Y630482D01*
X183775Y609718D01*
X182882Y608825D01*
X171118Y608825D01*
G37*
%LPD*%
%LPC*%
G36*
X91118Y608825D02*
X91118Y608825D01*
X90225Y609718D01*
X90225Y630482D01*
X91118Y631375D01*
X92428Y631375D01*
X92454Y631378D01*
X92480Y631376D01*
X92627Y631398D01*
X92774Y631415D01*
X92799Y631423D01*
X92825Y631427D01*
X92963Y631482D01*
X93102Y631532D01*
X93124Y631546D01*
X93149Y631556D01*
X93270Y631641D01*
X93395Y631721D01*
X93413Y631740D01*
X93435Y631755D01*
X93534Y631865D01*
X93637Y631972D01*
X93651Y631994D01*
X93668Y632014D01*
X93740Y632144D01*
X93816Y632271D01*
X93824Y632296D01*
X93837Y632319D01*
X93877Y632462D01*
X93922Y632603D01*
X93924Y632629D01*
X93932Y632654D01*
X93951Y632898D01*
X93951Y637706D01*
X93937Y637832D01*
X93930Y637958D01*
X93917Y638004D01*
X93911Y638052D01*
X93869Y638171D01*
X93834Y638293D01*
X93810Y638335D01*
X93794Y638381D01*
X93725Y638487D01*
X93664Y638597D01*
X93624Y638643D01*
X93605Y638673D01*
X93570Y638707D01*
X93505Y638783D01*
X85851Y646437D01*
X85851Y657943D01*
X85843Y658018D01*
X85844Y658095D01*
X85823Y658191D01*
X85811Y658289D01*
X85786Y658361D01*
X85769Y658435D01*
X85727Y658524D01*
X85694Y658617D01*
X85652Y658681D01*
X85620Y658750D01*
X85558Y658827D01*
X85505Y658910D01*
X85450Y658963D01*
X85402Y659023D01*
X85325Y659083D01*
X85254Y659152D01*
X85189Y659191D01*
X85129Y659238D01*
X84995Y659307D01*
X84955Y659331D01*
X84937Y659336D01*
X84911Y659350D01*
X84295Y659605D01*
X82009Y661891D01*
X80771Y664879D01*
X80771Y681321D01*
X82009Y684309D01*
X84295Y686595D01*
X87283Y687833D01*
X90517Y687833D01*
X93505Y686595D01*
X95791Y684309D01*
X97029Y681321D01*
X97029Y664879D01*
X95791Y661891D01*
X93505Y659605D01*
X92889Y659350D01*
X92822Y659313D01*
X92751Y659284D01*
X92671Y659228D01*
X92584Y659181D01*
X92528Y659129D01*
X92465Y659086D01*
X92399Y659013D01*
X92326Y658946D01*
X92283Y658883D01*
X92232Y658827D01*
X92184Y658741D01*
X92128Y658660D01*
X92100Y658589D01*
X92063Y658522D01*
X92036Y658427D01*
X92000Y658335D01*
X91989Y658260D01*
X91968Y658186D01*
X91956Y658037D01*
X91949Y657991D01*
X91951Y657972D01*
X91949Y657943D01*
X91949Y649594D01*
X91963Y649468D01*
X91970Y649342D01*
X91983Y649296D01*
X91989Y649248D01*
X92031Y649129D01*
X92066Y649007D01*
X92090Y648965D01*
X92106Y648919D01*
X92175Y648813D01*
X92236Y648703D01*
X92276Y648657D01*
X92295Y648627D01*
X92330Y648593D01*
X92395Y648517D01*
X100049Y640863D01*
X100049Y632898D01*
X100052Y632872D01*
X100050Y632846D01*
X100072Y632699D01*
X100089Y632552D01*
X100097Y632527D01*
X100101Y632501D01*
X100156Y632363D01*
X100206Y632224D01*
X100220Y632202D01*
X100230Y632177D01*
X100315Y632056D01*
X100395Y631931D01*
X100414Y631913D01*
X100429Y631891D01*
X100539Y631792D01*
X100646Y631689D01*
X100668Y631675D01*
X100688Y631658D01*
X100818Y631586D01*
X100945Y631510D01*
X100970Y631502D01*
X100993Y631489D01*
X101136Y631449D01*
X101277Y631404D01*
X101303Y631402D01*
X101328Y631394D01*
X101572Y631375D01*
X102882Y631375D01*
X103775Y630482D01*
X103775Y609718D01*
X102882Y608825D01*
X91118Y608825D01*
G37*
%LPD*%
%LPC*%
G36*
X151118Y608825D02*
X151118Y608825D01*
X150225Y609718D01*
X150225Y630482D01*
X151118Y631375D01*
X152428Y631375D01*
X152454Y631378D01*
X152480Y631376D01*
X152627Y631398D01*
X152774Y631415D01*
X152799Y631423D01*
X152825Y631427D01*
X152963Y631482D01*
X153102Y631532D01*
X153124Y631546D01*
X153149Y631556D01*
X153270Y631641D01*
X153395Y631721D01*
X153413Y631740D01*
X153435Y631755D01*
X153534Y631865D01*
X153637Y631972D01*
X153651Y631994D01*
X153668Y632014D01*
X153740Y632144D01*
X153816Y632271D01*
X153824Y632296D01*
X153837Y632319D01*
X153877Y632462D01*
X153922Y632603D01*
X153924Y632629D01*
X153932Y632654D01*
X153951Y632898D01*
X153951Y640863D01*
X156183Y643095D01*
X161605Y648517D01*
X161684Y648616D01*
X161768Y648710D01*
X161792Y648752D01*
X161822Y648790D01*
X161876Y648904D01*
X161937Y649015D01*
X161950Y649061D01*
X161971Y649105D01*
X161997Y649228D01*
X162032Y649350D01*
X162037Y649411D01*
X162044Y649445D01*
X162043Y649493D01*
X162051Y649594D01*
X162051Y657943D01*
X162043Y658018D01*
X162044Y658095D01*
X162023Y658191D01*
X162011Y658289D01*
X161986Y658361D01*
X161969Y658435D01*
X161927Y658524D01*
X161894Y658617D01*
X161852Y658681D01*
X161820Y658750D01*
X161758Y658827D01*
X161705Y658910D01*
X161650Y658963D01*
X161602Y659023D01*
X161525Y659083D01*
X161454Y659152D01*
X161389Y659191D01*
X161329Y659238D01*
X161195Y659307D01*
X161155Y659331D01*
X161137Y659336D01*
X161111Y659350D01*
X160495Y659605D01*
X158209Y661891D01*
X156971Y664879D01*
X156971Y681321D01*
X158209Y684309D01*
X160495Y686595D01*
X163483Y687833D01*
X166717Y687833D01*
X169705Y686595D01*
X171991Y684309D01*
X173229Y681321D01*
X173229Y664879D01*
X171991Y661891D01*
X169705Y659605D01*
X169089Y659350D01*
X169022Y659313D01*
X168951Y659284D01*
X168871Y659228D01*
X168784Y659181D01*
X168728Y659129D01*
X168665Y659086D01*
X168599Y659013D01*
X168526Y658946D01*
X168483Y658883D01*
X168432Y658827D01*
X168384Y658741D01*
X168328Y658660D01*
X168300Y658589D01*
X168263Y658522D01*
X168236Y658427D01*
X168200Y658335D01*
X168189Y658260D01*
X168168Y658186D01*
X168156Y658037D01*
X168149Y657991D01*
X168151Y657972D01*
X168149Y657943D01*
X168149Y646437D01*
X165917Y644205D01*
X160495Y638783D01*
X160416Y638684D01*
X160332Y638590D01*
X160308Y638548D01*
X160278Y638510D01*
X160224Y638396D01*
X160163Y638285D01*
X160150Y638239D01*
X160129Y638195D01*
X160103Y638072D01*
X160068Y637950D01*
X160063Y637889D01*
X160056Y637855D01*
X160057Y637807D01*
X160049Y637706D01*
X160049Y632898D01*
X160052Y632872D01*
X160050Y632846D01*
X160072Y632699D01*
X160089Y632552D01*
X160097Y632527D01*
X160101Y632501D01*
X160156Y632363D01*
X160206Y632224D01*
X160220Y632202D01*
X160230Y632177D01*
X160315Y632056D01*
X160395Y631931D01*
X160414Y631913D01*
X160429Y631891D01*
X160539Y631792D01*
X160646Y631689D01*
X160668Y631675D01*
X160688Y631658D01*
X160818Y631586D01*
X160945Y631510D01*
X160970Y631502D01*
X160993Y631489D01*
X161136Y631449D01*
X161277Y631404D01*
X161303Y631402D01*
X161328Y631394D01*
X161572Y631375D01*
X162882Y631375D01*
X163775Y630482D01*
X163775Y609718D01*
X162882Y608825D01*
X151118Y608825D01*
G37*
%LPD*%
%LPC*%
G36*
X111118Y608825D02*
X111118Y608825D01*
X110225Y609718D01*
X110225Y630482D01*
X111118Y631375D01*
X112428Y631375D01*
X112454Y631378D01*
X112480Y631376D01*
X112627Y631398D01*
X112774Y631415D01*
X112799Y631423D01*
X112825Y631427D01*
X112963Y631482D01*
X113102Y631532D01*
X113124Y631546D01*
X113149Y631556D01*
X113270Y631641D01*
X113395Y631721D01*
X113413Y631740D01*
X113435Y631755D01*
X113534Y631865D01*
X113637Y631972D01*
X113651Y631994D01*
X113668Y632014D01*
X113740Y632144D01*
X113816Y632271D01*
X113824Y632296D01*
X113837Y632319D01*
X113877Y632462D01*
X113922Y632603D01*
X113924Y632629D01*
X113932Y632654D01*
X113951Y632898D01*
X113951Y643106D01*
X113937Y643232D01*
X113930Y643358D01*
X113917Y643404D01*
X113911Y643452D01*
X113869Y643571D01*
X113834Y643693D01*
X113810Y643735D01*
X113794Y643781D01*
X113725Y643887D01*
X113664Y643997D01*
X113624Y644043D01*
X113605Y644073D01*
X113570Y644107D01*
X113505Y644183D01*
X111251Y646437D01*
X111251Y657943D01*
X111243Y658018D01*
X111244Y658095D01*
X111223Y658191D01*
X111211Y658289D01*
X111186Y658361D01*
X111169Y658435D01*
X111127Y658524D01*
X111094Y658617D01*
X111052Y658681D01*
X111020Y658750D01*
X110958Y658827D01*
X110905Y658910D01*
X110850Y658963D01*
X110802Y659023D01*
X110725Y659083D01*
X110654Y659152D01*
X110589Y659191D01*
X110529Y659238D01*
X110395Y659307D01*
X110355Y659331D01*
X110337Y659336D01*
X110311Y659350D01*
X109695Y659605D01*
X107409Y661891D01*
X106171Y664879D01*
X106171Y681321D01*
X107409Y684309D01*
X109695Y686595D01*
X112683Y687833D01*
X115917Y687833D01*
X118905Y686595D01*
X121191Y684309D01*
X122429Y681321D01*
X122429Y664879D01*
X121191Y661891D01*
X118905Y659605D01*
X118289Y659350D01*
X118222Y659313D01*
X118151Y659284D01*
X118071Y659228D01*
X117984Y659181D01*
X117928Y659129D01*
X117865Y659086D01*
X117799Y659013D01*
X117726Y658946D01*
X117683Y658883D01*
X117632Y658827D01*
X117584Y658741D01*
X117528Y658660D01*
X117500Y658589D01*
X117463Y658522D01*
X117436Y658427D01*
X117400Y658335D01*
X117389Y658260D01*
X117368Y658186D01*
X117356Y658037D01*
X117349Y657991D01*
X117351Y657972D01*
X117349Y657943D01*
X117349Y649594D01*
X117363Y649468D01*
X117370Y649342D01*
X117383Y649296D01*
X117389Y649248D01*
X117431Y649129D01*
X117466Y649007D01*
X117490Y648965D01*
X117506Y648919D01*
X117575Y648813D01*
X117636Y648703D01*
X117676Y648657D01*
X117695Y648627D01*
X117730Y648593D01*
X117795Y648517D01*
X120049Y646263D01*
X120049Y632898D01*
X120052Y632872D01*
X120050Y632846D01*
X120072Y632699D01*
X120089Y632552D01*
X120097Y632527D01*
X120101Y632501D01*
X120156Y632363D01*
X120206Y632224D01*
X120220Y632202D01*
X120230Y632177D01*
X120315Y632056D01*
X120395Y631931D01*
X120414Y631913D01*
X120429Y631891D01*
X120539Y631792D01*
X120646Y631689D01*
X120668Y631675D01*
X120688Y631658D01*
X120818Y631586D01*
X120945Y631510D01*
X120970Y631502D01*
X120993Y631489D01*
X121136Y631449D01*
X121277Y631404D01*
X121303Y631402D01*
X121328Y631394D01*
X121572Y631375D01*
X122882Y631375D01*
X123775Y630482D01*
X123775Y609718D01*
X122882Y608825D01*
X111118Y608825D01*
G37*
%LPD*%
%LPC*%
G36*
X131118Y608825D02*
X131118Y608825D01*
X130225Y609718D01*
X130225Y630482D01*
X131118Y631375D01*
X132428Y631375D01*
X132454Y631378D01*
X132480Y631376D01*
X132627Y631398D01*
X132774Y631415D01*
X132799Y631423D01*
X132825Y631427D01*
X132963Y631482D01*
X133102Y631532D01*
X133124Y631546D01*
X133149Y631556D01*
X133270Y631641D01*
X133395Y631721D01*
X133413Y631740D01*
X133435Y631755D01*
X133534Y631865D01*
X133637Y631972D01*
X133651Y631994D01*
X133668Y632014D01*
X133740Y632144D01*
X133816Y632271D01*
X133824Y632296D01*
X133837Y632319D01*
X133877Y632462D01*
X133922Y632603D01*
X133924Y632629D01*
X133932Y632654D01*
X133951Y632898D01*
X133951Y646263D01*
X136205Y648517D01*
X136284Y648616D01*
X136368Y648710D01*
X136392Y648752D01*
X136422Y648790D01*
X136476Y648904D01*
X136537Y649015D01*
X136550Y649061D01*
X136571Y649105D01*
X136597Y649228D01*
X136632Y649350D01*
X136637Y649411D01*
X136644Y649446D01*
X136643Y649494D01*
X136651Y649594D01*
X136651Y657943D01*
X136643Y658018D01*
X136644Y658095D01*
X136623Y658191D01*
X136611Y658289D01*
X136586Y658361D01*
X136569Y658435D01*
X136527Y658524D01*
X136494Y658617D01*
X136452Y658681D01*
X136420Y658750D01*
X136358Y658827D01*
X136305Y658910D01*
X136250Y658963D01*
X136202Y659023D01*
X136125Y659083D01*
X136054Y659152D01*
X135989Y659191D01*
X135929Y659238D01*
X135795Y659307D01*
X135755Y659331D01*
X135737Y659336D01*
X135711Y659350D01*
X135095Y659605D01*
X132809Y661891D01*
X131571Y664879D01*
X131571Y681321D01*
X132809Y684309D01*
X135095Y686595D01*
X138083Y687833D01*
X141317Y687833D01*
X144305Y686595D01*
X146591Y684309D01*
X147829Y681321D01*
X147829Y664879D01*
X146591Y661891D01*
X144305Y659605D01*
X143689Y659350D01*
X143622Y659313D01*
X143551Y659284D01*
X143471Y659228D01*
X143384Y659181D01*
X143328Y659129D01*
X143265Y659086D01*
X143199Y659013D01*
X143126Y658946D01*
X143083Y658883D01*
X143032Y658827D01*
X142984Y658741D01*
X142928Y658660D01*
X142900Y658589D01*
X142863Y658522D01*
X142836Y658427D01*
X142800Y658335D01*
X142789Y658260D01*
X142768Y658186D01*
X142756Y658037D01*
X142749Y657991D01*
X142751Y657972D01*
X142749Y657943D01*
X142749Y646437D01*
X140495Y644183D01*
X140416Y644084D01*
X140332Y643990D01*
X140308Y643948D01*
X140278Y643910D01*
X140224Y643796D01*
X140163Y643685D01*
X140150Y643639D01*
X140129Y643595D01*
X140103Y643472D01*
X140068Y643350D01*
X140063Y643289D01*
X140056Y643254D01*
X140057Y643206D01*
X140049Y643106D01*
X140049Y632898D01*
X140052Y632872D01*
X140050Y632846D01*
X140072Y632699D01*
X140089Y632552D01*
X140097Y632527D01*
X140101Y632501D01*
X140156Y632363D01*
X140206Y632224D01*
X140220Y632202D01*
X140230Y632177D01*
X140315Y632056D01*
X140395Y631931D01*
X140414Y631913D01*
X140429Y631891D01*
X140539Y631792D01*
X140646Y631689D01*
X140668Y631675D01*
X140688Y631658D01*
X140818Y631586D01*
X140945Y631510D01*
X140970Y631502D01*
X140993Y631489D01*
X141136Y631449D01*
X141277Y631404D01*
X141303Y631402D01*
X141328Y631394D01*
X141572Y631375D01*
X142882Y631375D01*
X143775Y630482D01*
X143775Y609718D01*
X142882Y608825D01*
X131118Y608825D01*
G37*
%LPD*%
%LPC*%
G36*
X111118Y460825D02*
X111118Y460825D01*
X110225Y461718D01*
X110225Y482482D01*
X111118Y483375D01*
X122882Y483375D01*
X123775Y482482D01*
X123775Y461718D01*
X122882Y460825D01*
X111118Y460825D01*
G37*
%LPD*%
%LPC*%
G36*
X71118Y608825D02*
X71118Y608825D01*
X70225Y609718D01*
X70225Y630482D01*
X71118Y631375D01*
X82882Y631375D01*
X83775Y630482D01*
X83775Y609718D01*
X82882Y608825D01*
X71118Y608825D01*
G37*
%LPD*%
%LPC*%
G36*
X91118Y460825D02*
X91118Y460825D01*
X90225Y461718D01*
X90225Y482482D01*
X91118Y483375D01*
X102882Y483375D01*
X103775Y482482D01*
X103775Y461718D01*
X102882Y460825D01*
X91118Y460825D01*
G37*
%LPD*%
%LPC*%
G36*
X90931Y421131D02*
X90931Y421131D01*
X90931Y434641D01*
X91042Y434624D01*
X92410Y434179D01*
X93693Y433525D01*
X94857Y432679D01*
X95875Y431661D01*
X96721Y430497D01*
X97375Y429214D01*
X97820Y427846D01*
X98045Y426424D01*
X98045Y421131D01*
X90931Y421131D01*
G37*
%LPD*%
%LPC*%
G36*
X90931Y417069D02*
X90931Y417069D01*
X98045Y417069D01*
X98045Y411776D01*
X97820Y410354D01*
X97375Y408986D01*
X96721Y407703D01*
X95875Y406539D01*
X94857Y405521D01*
X93693Y404675D01*
X92410Y404021D01*
X91042Y403576D01*
X90931Y403559D01*
X90931Y417069D01*
G37*
%LPD*%
%LPC*%
G36*
X79755Y421131D02*
X79755Y421131D01*
X79755Y426424D01*
X79980Y427846D01*
X80425Y429214D01*
X81079Y430497D01*
X81925Y431661D01*
X82943Y432679D01*
X84107Y433525D01*
X85390Y434179D01*
X86758Y434624D01*
X86869Y434641D01*
X86869Y421131D01*
X79755Y421131D01*
G37*
%LPD*%
%LPC*%
G36*
X86758Y403576D02*
X86758Y403576D01*
X85390Y404021D01*
X84107Y404675D01*
X82943Y405521D01*
X81925Y406539D01*
X81079Y407703D01*
X80425Y408986D01*
X79980Y410354D01*
X79755Y411776D01*
X79755Y417069D01*
X86869Y417069D01*
X86869Y403559D01*
X86758Y403576D01*
G37*
%LPD*%
%LPC*%
G36*
X40724Y449174D02*
X40724Y449174D01*
X40724Y454341D01*
X49435Y454341D01*
X50081Y454168D01*
X50660Y453833D01*
X51133Y453360D01*
X51468Y452781D01*
X51641Y452135D01*
X51641Y449174D01*
X40724Y449174D01*
G37*
%LPD*%
%LPC*%
G36*
X24559Y449174D02*
X24559Y449174D01*
X24559Y452135D01*
X24732Y452781D01*
X25067Y453360D01*
X25540Y453833D01*
X26119Y454168D01*
X26765Y454341D01*
X35476Y454341D01*
X35476Y449174D01*
X24559Y449174D01*
G37*
%LPD*%
%LPC*%
G36*
X40724Y409259D02*
X40724Y409259D01*
X40724Y414426D01*
X51641Y414426D01*
X51641Y411465D01*
X51468Y410819D01*
X51133Y410240D01*
X50660Y409767D01*
X50081Y409432D01*
X49435Y409259D01*
X40724Y409259D01*
G37*
%LPD*%
%LPC*%
G36*
X26765Y409259D02*
X26765Y409259D01*
X26119Y409432D01*
X25540Y409767D01*
X25067Y410240D01*
X24732Y410819D01*
X24559Y411465D01*
X24559Y414426D01*
X35476Y414426D01*
X35476Y409259D01*
X26765Y409259D01*
G37*
%LPD*%
%LPC*%
G36*
X59624Y622724D02*
X59624Y622724D01*
X59624Y632391D01*
X62585Y632391D01*
X63231Y632218D01*
X63810Y631883D01*
X64283Y631410D01*
X64618Y630831D01*
X64791Y630185D01*
X64791Y622724D01*
X59624Y622724D01*
G37*
%LPD*%
%LPC*%
G36*
X199624Y622724D02*
X199624Y622724D01*
X199624Y632391D01*
X202585Y632391D01*
X203231Y632218D01*
X203810Y631883D01*
X204283Y631410D01*
X204618Y630831D01*
X204791Y630185D01*
X204791Y622724D01*
X199624Y622724D01*
G37*
%LPD*%
%LPC*%
G36*
X79624Y474724D02*
X79624Y474724D01*
X79624Y484391D01*
X82585Y484391D01*
X83231Y484218D01*
X83810Y483883D01*
X84283Y483410D01*
X84618Y482831D01*
X84791Y482185D01*
X84791Y474724D01*
X79624Y474724D01*
G37*
%LPD*%
%LPC*%
G36*
X59624Y607809D02*
X59624Y607809D01*
X59624Y617476D01*
X64791Y617476D01*
X64791Y610015D01*
X64618Y609369D01*
X64283Y608790D01*
X63810Y608317D01*
X63231Y607982D01*
X62585Y607809D01*
X59624Y607809D01*
G37*
%LPD*%
%LPC*%
G36*
X199624Y607809D02*
X199624Y607809D01*
X199624Y617476D01*
X204791Y617476D01*
X204791Y610015D01*
X204618Y609369D01*
X204283Y608790D01*
X203810Y608317D01*
X203231Y607982D01*
X202585Y607809D01*
X199624Y607809D01*
G37*
%LPD*%
%LPC*%
G36*
X79624Y459809D02*
X79624Y459809D01*
X79624Y469476D01*
X84791Y469476D01*
X84791Y462015D01*
X84618Y461369D01*
X84283Y460790D01*
X83810Y460317D01*
X83231Y459982D01*
X82585Y459809D01*
X79624Y459809D01*
G37*
%LPD*%
%LPC*%
G36*
X49209Y622724D02*
X49209Y622724D01*
X49209Y630185D01*
X49382Y630831D01*
X49717Y631410D01*
X50190Y631883D01*
X50769Y632218D01*
X51415Y632391D01*
X54376Y632391D01*
X54376Y622724D01*
X49209Y622724D01*
G37*
%LPD*%
%LPC*%
G36*
X189209Y622724D02*
X189209Y622724D01*
X189209Y630185D01*
X189382Y630831D01*
X189717Y631410D01*
X190190Y631883D01*
X190769Y632218D01*
X191415Y632391D01*
X194376Y632391D01*
X194376Y622724D01*
X189209Y622724D01*
G37*
%LPD*%
%LPC*%
G36*
X69209Y474724D02*
X69209Y474724D01*
X69209Y482185D01*
X69382Y482831D01*
X69717Y483410D01*
X70190Y483883D01*
X70769Y484218D01*
X71415Y484391D01*
X74376Y484391D01*
X74376Y474724D01*
X69209Y474724D01*
G37*
%LPD*%
%LPC*%
G36*
X191415Y607809D02*
X191415Y607809D01*
X190769Y607982D01*
X190190Y608317D01*
X189717Y608790D01*
X189382Y609369D01*
X189209Y610015D01*
X189209Y617476D01*
X194376Y617476D01*
X194376Y607809D01*
X191415Y607809D01*
G37*
%LPD*%
%LPC*%
G36*
X51415Y607809D02*
X51415Y607809D01*
X50769Y607982D01*
X50190Y608317D01*
X49717Y608790D01*
X49382Y609369D01*
X49209Y610015D01*
X49209Y617476D01*
X54376Y617476D01*
X54376Y607809D01*
X51415Y607809D01*
G37*
%LPD*%
%LPC*%
G36*
X253847Y472947D02*
X253847Y472947D01*
X253847Y479941D01*
X257635Y479941D01*
X258281Y479768D01*
X258860Y479433D01*
X259333Y478960D01*
X259668Y478381D01*
X259841Y477735D01*
X259841Y472947D01*
X253847Y472947D01*
G37*
%LPD*%
%LPC*%
G36*
X253847Y447547D02*
X253847Y447547D01*
X253847Y454541D01*
X257635Y454541D01*
X258281Y454368D01*
X258860Y454033D01*
X259333Y453560D01*
X259668Y452981D01*
X259841Y452335D01*
X259841Y447547D01*
X253847Y447547D01*
G37*
%LPD*%
%LPC*%
G36*
X253847Y422147D02*
X253847Y422147D01*
X253847Y429141D01*
X257635Y429141D01*
X258281Y428968D01*
X258860Y428633D01*
X259333Y428160D01*
X259668Y427581D01*
X259841Y426935D01*
X259841Y422147D01*
X253847Y422147D01*
G37*
%LPD*%
%LPC*%
G36*
X253847Y459859D02*
X253847Y459859D01*
X253847Y466853D01*
X259841Y466853D01*
X259841Y462065D01*
X259668Y461419D01*
X259333Y460840D01*
X258860Y460367D01*
X258281Y460032D01*
X257635Y459859D01*
X253847Y459859D01*
G37*
%LPD*%
%LPC*%
G36*
X253847Y434459D02*
X253847Y434459D01*
X253847Y441453D01*
X259841Y441453D01*
X259841Y436665D01*
X259668Y436019D01*
X259333Y435440D01*
X258860Y434967D01*
X258281Y434632D01*
X257635Y434459D01*
X253847Y434459D01*
G37*
%LPD*%
%LPC*%
G36*
X253847Y409059D02*
X253847Y409059D01*
X253847Y416053D01*
X259841Y416053D01*
X259841Y411265D01*
X259668Y410619D01*
X259333Y410040D01*
X258860Y409567D01*
X258281Y409232D01*
X257635Y409059D01*
X253847Y409059D01*
G37*
%LPD*%
D10*
X231800Y419100D03*
X250800Y419100D03*
X231800Y469900D03*
X250800Y469900D03*
X231800Y444500D03*
X250800Y444500D03*
D11*
X53350Y431800D03*
D12*
X38100Y417050D03*
X38100Y446550D03*
D13*
X197000Y620100D03*
X177000Y620100D03*
X157000Y620100D03*
X137000Y620100D03*
X117000Y620100D03*
X97000Y620100D03*
X77000Y620100D03*
X57000Y620100D03*
X57000Y472100D03*
X77000Y472100D03*
X97000Y472100D03*
X117000Y472100D03*
X137000Y472100D03*
X157000Y472100D03*
X177000Y472100D03*
X197000Y472100D03*
D14*
X88900Y666496D02*
X88900Y679704D01*
X114300Y679704D02*
X114300Y666496D01*
X139700Y666496D02*
X139700Y679704D01*
X165100Y679704D02*
X165100Y666496D01*
X190500Y666496D02*
X190500Y679704D01*
X88900Y425704D02*
X88900Y412496D01*
X114300Y412496D02*
X114300Y425704D01*
X139700Y425704D02*
X139700Y412496D01*
X165100Y412496D02*
X165100Y425704D01*
X190500Y425704D02*
X190500Y412496D01*
D15*
X88900Y419100D02*
X88900Y444500D01*
X76200Y457200D01*
X76200Y471300D01*
X77000Y472100D01*
X26468Y420778D02*
X25575Y421670D01*
X25575Y441935D01*
X26468Y442827D01*
X34372Y420778D02*
X38100Y417050D01*
X34372Y420778D02*
X26468Y420778D01*
X26468Y442827D02*
X34377Y442827D01*
X38100Y446550D01*
X25400Y459250D01*
X25400Y609600D01*
X38100Y622300D01*
X54800Y622300D01*
X57000Y620100D01*
X38100Y417050D02*
X48750Y406400D01*
X76200Y406400D02*
X88900Y419100D01*
X50800Y406400D02*
X48750Y406400D01*
X63500Y406400D02*
X76200Y406400D01*
X250800Y419100D02*
X250800Y444500D01*
X250800Y469900D01*
X215900Y601200D02*
X197000Y620100D01*
X215900Y601200D02*
X215900Y508000D01*
X250800Y473100D02*
X250800Y469900D01*
X250800Y473100D02*
X215900Y508000D01*
X63500Y406400D02*
X50800Y406400D01*
X63500Y406400D02*
X76200Y393700D01*
X241300Y393700D01*
X250800Y403200D01*
X250800Y419100D01*
X157000Y620100D02*
X157000Y639600D01*
X165100Y647700D01*
X165100Y673100D01*
X97000Y639600D02*
X97000Y620100D01*
X97000Y639600D02*
X88900Y647700D01*
X88900Y673100D01*
X190500Y444500D02*
X190500Y419100D01*
X197000Y451000D02*
X197000Y472100D01*
X197000Y451000D02*
X190500Y444500D01*
X177000Y456400D02*
X177000Y472100D01*
X177000Y456400D02*
X165100Y444500D01*
X165100Y419100D01*
X137000Y620100D02*
X137000Y645000D01*
X139700Y647700D01*
X139700Y673100D01*
X117000Y645000D02*
X117000Y620100D01*
X117000Y645000D02*
X114300Y647700D01*
X114300Y673100D01*
X177000Y646900D02*
X177000Y620100D01*
X177000Y646900D02*
X190500Y660400D01*
X190500Y673100D01*
X137000Y472100D02*
X137000Y454500D01*
X114300Y431800D02*
X114300Y419100D01*
X114300Y431800D02*
X137000Y454500D01*
X231800Y444500D02*
X231800Y469900D01*
X231800Y444500D02*
X231800Y419100D01*
X223454Y419100D01*
X207198Y402844D01*
X123002Y402844D02*
X114300Y411546D01*
X114300Y419100D01*
X123002Y402844D02*
X207198Y402844D01*
X157000Y449100D02*
X157000Y472100D01*
X139700Y431800D02*
X139700Y419100D01*
X139700Y431800D02*
X157000Y449100D01*
X63500Y441950D02*
X53350Y431800D01*
X63500Y465600D02*
X57000Y472100D01*
X63500Y465600D02*
X63500Y441950D01*
M02*
