G04 EAGLE Gerber RS-274X export*
G75*
%MOMM*%
%FSLAX34Y34*%
%LPD*%
%INTop Copper*%
%IPPOS*%
%AMOC8*
5,1,8,0,0,1.08239X$1,22.5*%
G01*
%ADD10R,1.050000X1.000000*%
%ADD11R,2.200000X1.050000*%
%ADD12R,1.050000X1.950000*%
%ADD13C,1.320800*%
%ADD14R,1.500000X1.300000*%
%ADD15C,0.304800*%

G36*
X711226Y-14220D02*
X711226Y-14220D01*
X711252Y-14222D01*
X711399Y-14200D01*
X711546Y-14183D01*
X711571Y-14175D01*
X711597Y-14171D01*
X711735Y-14116D01*
X711874Y-14066D01*
X711896Y-14052D01*
X711921Y-14042D01*
X712042Y-13957D01*
X712167Y-13877D01*
X712185Y-13858D01*
X712207Y-13843D01*
X712306Y-13733D01*
X712409Y-13626D01*
X712423Y-13604D01*
X712440Y-13584D01*
X712512Y-13454D01*
X712588Y-13327D01*
X712596Y-13302D01*
X712609Y-13279D01*
X712649Y-13136D01*
X712694Y-12995D01*
X712696Y-12969D01*
X712704Y-12944D01*
X712723Y-12700D01*
X712723Y304800D01*
X712720Y304826D01*
X712722Y304852D01*
X712700Y304999D01*
X712683Y305146D01*
X712675Y305171D01*
X712671Y305197D01*
X712616Y305335D01*
X712566Y305474D01*
X712552Y305496D01*
X712542Y305521D01*
X712457Y305642D01*
X712377Y305767D01*
X712358Y305785D01*
X712343Y305807D01*
X712233Y305906D01*
X712126Y306009D01*
X712104Y306023D01*
X712084Y306040D01*
X711954Y306112D01*
X711827Y306188D01*
X711802Y306196D01*
X711779Y306209D01*
X711636Y306249D01*
X711495Y306294D01*
X711469Y306296D01*
X711444Y306304D01*
X711200Y306323D01*
X431800Y306323D01*
X431774Y306320D01*
X431748Y306322D01*
X431601Y306300D01*
X431454Y306283D01*
X431429Y306275D01*
X431403Y306271D01*
X431265Y306216D01*
X431126Y306166D01*
X431104Y306152D01*
X431079Y306142D01*
X430958Y306057D01*
X430833Y305977D01*
X430815Y305958D01*
X430793Y305943D01*
X430694Y305833D01*
X430591Y305726D01*
X430577Y305704D01*
X430560Y305684D01*
X430488Y305554D01*
X430412Y305427D01*
X430404Y305402D01*
X430391Y305379D01*
X430351Y305236D01*
X430306Y305095D01*
X430304Y305069D01*
X430296Y305044D01*
X430277Y304800D01*
X430277Y-12700D01*
X430280Y-12726D01*
X430278Y-12752D01*
X430300Y-12899D01*
X430317Y-13046D01*
X430325Y-13071D01*
X430329Y-13097D01*
X430384Y-13235D01*
X430434Y-13374D01*
X430448Y-13396D01*
X430458Y-13421D01*
X430543Y-13542D01*
X430623Y-13667D01*
X430642Y-13685D01*
X430657Y-13707D01*
X430767Y-13806D01*
X430874Y-13909D01*
X430896Y-13923D01*
X430916Y-13940D01*
X431046Y-14012D01*
X431173Y-14088D01*
X431198Y-14096D01*
X431221Y-14109D01*
X431364Y-14149D01*
X431505Y-14194D01*
X431531Y-14196D01*
X431556Y-14204D01*
X431800Y-14223D01*
X711200Y-14223D01*
X711226Y-14220D01*
G37*
%LPC*%
G36*
X530218Y202425D02*
X530218Y202425D01*
X529325Y203318D01*
X529325Y224082D01*
X530218Y224975D01*
X531528Y224975D01*
X531554Y224978D01*
X531580Y224976D01*
X531727Y224998D01*
X531874Y225015D01*
X531899Y225023D01*
X531925Y225027D01*
X532063Y225082D01*
X532202Y225132D01*
X532224Y225146D01*
X532249Y225156D01*
X532370Y225241D01*
X532495Y225321D01*
X532513Y225340D01*
X532535Y225355D01*
X532634Y225465D01*
X532737Y225572D01*
X532751Y225594D01*
X532768Y225614D01*
X532840Y225744D01*
X532916Y225871D01*
X532924Y225896D01*
X532937Y225919D01*
X532977Y226062D01*
X533022Y226203D01*
X533024Y226229D01*
X533032Y226254D01*
X533051Y226498D01*
X533051Y232563D01*
X555305Y254817D01*
X555384Y254916D01*
X555468Y255010D01*
X555492Y255052D01*
X555522Y255090D01*
X555576Y255204D01*
X555637Y255315D01*
X555650Y255361D01*
X555671Y255405D01*
X555697Y255528D01*
X555732Y255650D01*
X555737Y255711D01*
X555744Y255746D01*
X555743Y255794D01*
X555751Y255894D01*
X555751Y264243D01*
X555743Y264318D01*
X555744Y264395D01*
X555723Y264491D01*
X555711Y264589D01*
X555686Y264661D01*
X555669Y264735D01*
X555627Y264824D01*
X555594Y264917D01*
X555552Y264981D01*
X555520Y265050D01*
X555458Y265127D01*
X555405Y265210D01*
X555350Y265263D01*
X555302Y265323D01*
X555225Y265383D01*
X555154Y265452D01*
X555089Y265491D01*
X555029Y265538D01*
X554895Y265607D01*
X554855Y265631D01*
X554837Y265636D01*
X554811Y265650D01*
X554195Y265905D01*
X551909Y268191D01*
X550671Y271179D01*
X550671Y287621D01*
X551909Y290609D01*
X554195Y292895D01*
X557183Y294133D01*
X560417Y294133D01*
X563405Y292895D01*
X565691Y290609D01*
X566328Y289072D01*
X566401Y288941D01*
X566470Y288807D01*
X566485Y288788D01*
X566497Y288767D01*
X566598Y288656D01*
X566695Y288541D01*
X566715Y288527D01*
X566731Y288509D01*
X566855Y288424D01*
X566976Y288334D01*
X566998Y288325D01*
X567018Y288311D01*
X567158Y288256D01*
X567296Y288196D01*
X567320Y288192D01*
X567342Y288183D01*
X567491Y288161D01*
X567639Y288135D01*
X567663Y288136D01*
X567687Y288132D01*
X567837Y288145D01*
X567987Y288152D01*
X568010Y288159D01*
X568034Y288161D01*
X568177Y288207D01*
X568322Y288249D01*
X568343Y288261D01*
X568366Y288268D01*
X568495Y288346D01*
X568626Y288419D01*
X568648Y288438D01*
X568664Y288448D01*
X568698Y288481D01*
X568812Y288578D01*
X576707Y296473D01*
X578939Y298705D01*
X601567Y298705D01*
X641001Y259271D01*
X641100Y259192D01*
X641194Y259108D01*
X641236Y259084D01*
X641274Y259054D01*
X641388Y259000D01*
X641499Y258939D01*
X641545Y258926D01*
X641589Y258905D01*
X641712Y258879D01*
X641834Y258844D01*
X641895Y258839D01*
X641930Y258832D01*
X641978Y258833D01*
X642078Y258825D01*
X653292Y258825D01*
X654185Y257932D01*
X654185Y255372D01*
X654187Y255354D01*
X654186Y255340D01*
X654187Y255333D01*
X654186Y255320D01*
X654208Y255173D01*
X654225Y255026D01*
X654233Y255001D01*
X654237Y254975D01*
X654292Y254837D01*
X654342Y254698D01*
X654356Y254676D01*
X654366Y254651D01*
X654451Y254530D01*
X654531Y254405D01*
X654550Y254387D01*
X654565Y254365D01*
X654675Y254266D01*
X654782Y254163D01*
X654804Y254149D01*
X654824Y254132D01*
X654954Y254060D01*
X655081Y253984D01*
X655106Y253976D01*
X655129Y253963D01*
X655272Y253923D01*
X655413Y253878D01*
X655439Y253876D01*
X655464Y253868D01*
X655708Y253849D01*
X660012Y253849D01*
X660038Y253852D01*
X660064Y253850D01*
X660211Y253872D01*
X660358Y253889D01*
X660383Y253897D01*
X660409Y253901D01*
X660547Y253956D01*
X660686Y254006D01*
X660708Y254020D01*
X660733Y254030D01*
X660854Y254115D01*
X660979Y254195D01*
X660997Y254214D01*
X661019Y254229D01*
X661118Y254339D01*
X661221Y254446D01*
X661235Y254468D01*
X661252Y254488D01*
X661324Y254618D01*
X661400Y254745D01*
X661408Y254770D01*
X661421Y254793D01*
X661461Y254936D01*
X661506Y255077D01*
X661508Y255103D01*
X661516Y255128D01*
X661535Y255372D01*
X661535Y257932D01*
X662428Y258825D01*
X678692Y258825D01*
X679585Y257932D01*
X679585Y255372D01*
X679587Y255354D01*
X679586Y255340D01*
X679587Y255333D01*
X679586Y255320D01*
X679608Y255173D01*
X679625Y255026D01*
X679633Y255001D01*
X679637Y254975D01*
X679692Y254837D01*
X679742Y254698D01*
X679756Y254676D01*
X679766Y254651D01*
X679851Y254530D01*
X679931Y254405D01*
X679950Y254387D01*
X679965Y254365D01*
X680075Y254266D01*
X680182Y254163D01*
X680204Y254149D01*
X680224Y254132D01*
X680354Y254060D01*
X680481Y253984D01*
X680506Y253976D01*
X680529Y253963D01*
X680672Y253923D01*
X680813Y253878D01*
X680839Y253876D01*
X680864Y253868D01*
X681108Y253849D01*
X685412Y253849D01*
X685438Y253852D01*
X685464Y253850D01*
X685611Y253872D01*
X685758Y253889D01*
X685783Y253897D01*
X685809Y253901D01*
X685947Y253956D01*
X686086Y254006D01*
X686108Y254020D01*
X686133Y254030D01*
X686254Y254115D01*
X686379Y254195D01*
X686397Y254214D01*
X686419Y254229D01*
X686518Y254339D01*
X686621Y254446D01*
X686635Y254468D01*
X686652Y254488D01*
X686724Y254618D01*
X686800Y254745D01*
X686808Y254770D01*
X686821Y254793D01*
X686861Y254936D01*
X686906Y255077D01*
X686908Y255103D01*
X686916Y255128D01*
X686935Y255372D01*
X686935Y257932D01*
X687828Y258825D01*
X704092Y258825D01*
X704985Y257932D01*
X704985Y243668D01*
X704287Y242971D01*
X704255Y242930D01*
X704217Y242896D01*
X704147Y242795D01*
X704070Y242698D01*
X704048Y242651D01*
X704019Y242609D01*
X703974Y242494D01*
X703921Y242382D01*
X703911Y242333D01*
X703892Y242285D01*
X703874Y242163D01*
X703848Y242042D01*
X703849Y241991D01*
X703841Y241940D01*
X703852Y241817D01*
X703854Y241693D01*
X703866Y241644D01*
X703871Y241593D01*
X703909Y241475D01*
X703939Y241355D01*
X703962Y241310D01*
X703978Y241261D01*
X704042Y241155D01*
X704099Y241046D01*
X704132Y241007D01*
X704158Y240963D01*
X704244Y240874D01*
X704324Y240780D01*
X704365Y240750D01*
X704401Y240713D01*
X704602Y240574D01*
X705020Y240333D01*
X705493Y239860D01*
X705828Y239281D01*
X706001Y238635D01*
X706001Y234847D01*
X697484Y234847D01*
X697458Y234844D01*
X697432Y234846D01*
X697285Y234824D01*
X697138Y234807D01*
X697113Y234798D01*
X697087Y234795D01*
X696949Y234740D01*
X696810Y234690D01*
X696788Y234676D01*
X696763Y234666D01*
X696642Y234581D01*
X696517Y234501D01*
X696499Y234482D01*
X696477Y234467D01*
X696378Y234357D01*
X696275Y234250D01*
X696261Y234228D01*
X696244Y234208D01*
X696172Y234078D01*
X696096Y233951D01*
X696088Y233926D01*
X696075Y233903D01*
X696035Y233760D01*
X695990Y233619D01*
X695988Y233593D01*
X695980Y233568D01*
X695961Y233324D01*
X695961Y231799D01*
X695959Y231799D01*
X695959Y233324D01*
X695956Y233350D01*
X695958Y233376D01*
X695936Y233523D01*
X695919Y233670D01*
X695910Y233695D01*
X695907Y233721D01*
X695852Y233859D01*
X695802Y233998D01*
X695788Y234020D01*
X695778Y234045D01*
X695693Y234166D01*
X695613Y234291D01*
X695594Y234309D01*
X695579Y234331D01*
X695469Y234430D01*
X695362Y234533D01*
X695340Y234547D01*
X695320Y234564D01*
X695190Y234636D01*
X695063Y234712D01*
X695038Y234720D01*
X695015Y234733D01*
X694872Y234773D01*
X694731Y234818D01*
X694705Y234820D01*
X694680Y234828D01*
X694436Y234847D01*
X685919Y234847D01*
X685919Y238635D01*
X686092Y239281D01*
X686427Y239860D01*
X686900Y240333D01*
X687318Y240574D01*
X687359Y240605D01*
X687404Y240628D01*
X687498Y240708D01*
X687598Y240782D01*
X687631Y240821D01*
X687669Y240854D01*
X687743Y240953D01*
X687823Y241048D01*
X687846Y241093D01*
X687877Y241134D01*
X687926Y241248D01*
X687982Y241358D01*
X687994Y241407D01*
X688015Y241454D01*
X688036Y241576D01*
X688066Y241696D01*
X688067Y241747D01*
X688076Y241797D01*
X688070Y241921D01*
X688072Y242044D01*
X688061Y242094D01*
X688058Y242145D01*
X688024Y242264D01*
X687998Y242385D01*
X687976Y242431D01*
X687962Y242480D01*
X687901Y242588D01*
X687848Y242700D01*
X687817Y242740D01*
X687792Y242784D01*
X687633Y242971D01*
X686935Y243668D01*
X686935Y246228D01*
X686932Y246254D01*
X686934Y246280D01*
X686912Y246427D01*
X686895Y246574D01*
X686887Y246599D01*
X686883Y246625D01*
X686828Y246763D01*
X686778Y246902D01*
X686764Y246924D01*
X686754Y246949D01*
X686669Y247070D01*
X686589Y247195D01*
X686570Y247213D01*
X686555Y247235D01*
X686445Y247334D01*
X686338Y247437D01*
X686316Y247451D01*
X686296Y247468D01*
X686166Y247540D01*
X686039Y247616D01*
X686014Y247624D01*
X685991Y247637D01*
X685848Y247677D01*
X685707Y247722D01*
X685681Y247724D01*
X685656Y247732D01*
X685412Y247751D01*
X681108Y247751D01*
X681082Y247748D01*
X681056Y247750D01*
X680909Y247728D01*
X680762Y247711D01*
X680737Y247703D01*
X680711Y247699D01*
X680573Y247644D01*
X680434Y247594D01*
X680412Y247580D01*
X680387Y247570D01*
X680266Y247485D01*
X680141Y247405D01*
X680123Y247386D01*
X680101Y247371D01*
X680002Y247261D01*
X679899Y247154D01*
X679885Y247132D01*
X679868Y247112D01*
X679796Y246982D01*
X679720Y246855D01*
X679712Y246830D01*
X679699Y246807D01*
X679659Y246664D01*
X679614Y246523D01*
X679612Y246497D01*
X679604Y246472D01*
X679585Y246228D01*
X679585Y243668D01*
X678887Y242971D01*
X678855Y242930D01*
X678817Y242896D01*
X678747Y242795D01*
X678670Y242698D01*
X678648Y242651D01*
X678619Y242609D01*
X678574Y242494D01*
X678521Y242382D01*
X678511Y242333D01*
X678492Y242285D01*
X678474Y242163D01*
X678448Y242042D01*
X678449Y241991D01*
X678441Y241940D01*
X678452Y241817D01*
X678454Y241693D01*
X678466Y241644D01*
X678471Y241593D01*
X678509Y241475D01*
X678539Y241355D01*
X678562Y241310D01*
X678578Y241261D01*
X678642Y241155D01*
X678699Y241046D01*
X678732Y241007D01*
X678758Y240963D01*
X678844Y240874D01*
X678924Y240780D01*
X678965Y240750D01*
X679001Y240713D01*
X679202Y240574D01*
X679620Y240333D01*
X680093Y239860D01*
X680428Y239281D01*
X680601Y238635D01*
X680601Y234847D01*
X672084Y234847D01*
X672058Y234844D01*
X672032Y234846D01*
X671885Y234824D01*
X671738Y234807D01*
X671713Y234798D01*
X671687Y234795D01*
X671549Y234740D01*
X671410Y234690D01*
X671388Y234676D01*
X671363Y234666D01*
X671242Y234581D01*
X671117Y234501D01*
X671099Y234482D01*
X671077Y234467D01*
X670978Y234357D01*
X670875Y234250D01*
X670861Y234228D01*
X670844Y234208D01*
X670772Y234078D01*
X670696Y233951D01*
X670688Y233926D01*
X670675Y233903D01*
X670635Y233760D01*
X670590Y233619D01*
X670588Y233593D01*
X670580Y233568D01*
X670561Y233324D01*
X670561Y231799D01*
X670559Y231799D01*
X670559Y233324D01*
X670556Y233350D01*
X670558Y233376D01*
X670536Y233523D01*
X670519Y233670D01*
X670510Y233695D01*
X670507Y233721D01*
X670452Y233859D01*
X670402Y233998D01*
X670388Y234020D01*
X670378Y234045D01*
X670293Y234166D01*
X670213Y234291D01*
X670194Y234309D01*
X670179Y234331D01*
X670069Y234430D01*
X669962Y234533D01*
X669940Y234547D01*
X669920Y234564D01*
X669790Y234636D01*
X669663Y234712D01*
X669638Y234720D01*
X669615Y234733D01*
X669472Y234773D01*
X669331Y234818D01*
X669305Y234820D01*
X669280Y234828D01*
X669036Y234847D01*
X660519Y234847D01*
X660519Y238635D01*
X660692Y239281D01*
X661027Y239860D01*
X661500Y240333D01*
X661918Y240574D01*
X661959Y240605D01*
X662004Y240628D01*
X662098Y240708D01*
X662198Y240782D01*
X662231Y240821D01*
X662269Y240854D01*
X662343Y240953D01*
X662423Y241048D01*
X662446Y241093D01*
X662477Y241134D01*
X662526Y241248D01*
X662582Y241358D01*
X662594Y241407D01*
X662615Y241454D01*
X662636Y241576D01*
X662666Y241696D01*
X662667Y241747D01*
X662676Y241797D01*
X662670Y241921D01*
X662672Y242044D01*
X662661Y242094D01*
X662658Y242145D01*
X662624Y242264D01*
X662598Y242385D01*
X662576Y242431D01*
X662562Y242480D01*
X662501Y242588D01*
X662448Y242700D01*
X662417Y242740D01*
X662392Y242784D01*
X662233Y242971D01*
X661535Y243668D01*
X661535Y246228D01*
X661532Y246254D01*
X661534Y246280D01*
X661512Y246427D01*
X661495Y246574D01*
X661487Y246599D01*
X661483Y246625D01*
X661428Y246763D01*
X661378Y246902D01*
X661364Y246924D01*
X661354Y246949D01*
X661269Y247070D01*
X661189Y247195D01*
X661170Y247213D01*
X661155Y247235D01*
X661045Y247334D01*
X660938Y247437D01*
X660916Y247451D01*
X660896Y247468D01*
X660766Y247540D01*
X660639Y247616D01*
X660614Y247624D01*
X660591Y247637D01*
X660448Y247677D01*
X660307Y247722D01*
X660281Y247724D01*
X660256Y247732D01*
X660012Y247751D01*
X655708Y247751D01*
X655682Y247748D01*
X655656Y247750D01*
X655509Y247728D01*
X655362Y247711D01*
X655337Y247703D01*
X655311Y247699D01*
X655173Y247644D01*
X655034Y247594D01*
X655012Y247580D01*
X654987Y247570D01*
X654866Y247485D01*
X654741Y247405D01*
X654723Y247386D01*
X654701Y247371D01*
X654602Y247261D01*
X654499Y247154D01*
X654485Y247132D01*
X654468Y247112D01*
X654396Y246982D01*
X654320Y246855D01*
X654312Y246830D01*
X654299Y246807D01*
X654259Y246664D01*
X654214Y246523D01*
X654212Y246497D01*
X654204Y246472D01*
X654185Y246228D01*
X654185Y243668D01*
X653487Y242971D01*
X653455Y242930D01*
X653417Y242896D01*
X653347Y242795D01*
X653270Y242698D01*
X653248Y242651D01*
X653219Y242609D01*
X653174Y242494D01*
X653121Y242382D01*
X653111Y242333D01*
X653092Y242285D01*
X653074Y242163D01*
X653048Y242042D01*
X653049Y241991D01*
X653041Y241940D01*
X653052Y241817D01*
X653054Y241693D01*
X653066Y241644D01*
X653071Y241593D01*
X653109Y241475D01*
X653139Y241355D01*
X653162Y241310D01*
X653178Y241261D01*
X653242Y241155D01*
X653299Y241046D01*
X653332Y241007D01*
X653358Y240963D01*
X653444Y240874D01*
X653524Y240780D01*
X653565Y240750D01*
X653601Y240713D01*
X653802Y240574D01*
X654220Y240333D01*
X654693Y239860D01*
X655028Y239281D01*
X655201Y238635D01*
X655201Y234847D01*
X646684Y234847D01*
X646658Y234844D01*
X646632Y234846D01*
X646485Y234824D01*
X646338Y234807D01*
X646313Y234798D01*
X646287Y234795D01*
X646149Y234740D01*
X646010Y234690D01*
X645988Y234676D01*
X645963Y234666D01*
X645842Y234581D01*
X645717Y234501D01*
X645699Y234482D01*
X645677Y234467D01*
X645578Y234357D01*
X645475Y234250D01*
X645461Y234228D01*
X645444Y234208D01*
X645372Y234078D01*
X645296Y233951D01*
X645288Y233926D01*
X645275Y233903D01*
X645235Y233760D01*
X645190Y233619D01*
X645188Y233593D01*
X645180Y233568D01*
X645161Y233324D01*
X645161Y231799D01*
X645159Y231799D01*
X645159Y233324D01*
X645156Y233350D01*
X645158Y233376D01*
X645136Y233523D01*
X645119Y233670D01*
X645110Y233695D01*
X645107Y233721D01*
X645052Y233859D01*
X645002Y233998D01*
X644988Y234020D01*
X644978Y234045D01*
X644893Y234166D01*
X644813Y234291D01*
X644794Y234309D01*
X644779Y234331D01*
X644669Y234430D01*
X644562Y234533D01*
X644540Y234547D01*
X644520Y234564D01*
X644390Y234636D01*
X644263Y234712D01*
X644238Y234720D01*
X644215Y234733D01*
X644072Y234773D01*
X643931Y234818D01*
X643905Y234820D01*
X643880Y234828D01*
X643636Y234847D01*
X635119Y234847D01*
X635119Y238635D01*
X635292Y239281D01*
X635627Y239860D01*
X636100Y240333D01*
X636518Y240574D01*
X636559Y240605D01*
X636604Y240628D01*
X636698Y240708D01*
X636798Y240782D01*
X636831Y240821D01*
X636869Y240854D01*
X636943Y240953D01*
X637023Y241048D01*
X637046Y241093D01*
X637077Y241134D01*
X637126Y241248D01*
X637182Y241358D01*
X637194Y241407D01*
X637215Y241454D01*
X637236Y241576D01*
X637266Y241696D01*
X637267Y241747D01*
X637276Y241797D01*
X637270Y241921D01*
X637272Y242044D01*
X637261Y242094D01*
X637258Y242145D01*
X637224Y242264D01*
X637198Y242385D01*
X637176Y242431D01*
X637162Y242480D01*
X637101Y242588D01*
X637048Y242700D01*
X637017Y242740D01*
X636992Y242784D01*
X636833Y242971D01*
X636135Y243668D01*
X636135Y254882D01*
X636121Y255008D01*
X636114Y255134D01*
X636101Y255180D01*
X636095Y255228D01*
X636053Y255347D01*
X636018Y255469D01*
X635994Y255511D01*
X635978Y255557D01*
X635909Y255663D01*
X635848Y255773D01*
X635808Y255819D01*
X635789Y255849D01*
X635754Y255883D01*
X635689Y255959D01*
X599487Y292161D01*
X599388Y292240D01*
X599294Y292324D01*
X599252Y292348D01*
X599214Y292378D01*
X599100Y292432D01*
X598989Y292493D01*
X598943Y292506D01*
X598899Y292527D01*
X598776Y292553D01*
X598654Y292588D01*
X598593Y292593D01*
X598558Y292600D01*
X598510Y292599D01*
X598410Y292607D01*
X593585Y292607D01*
X593549Y292603D01*
X593513Y292606D01*
X593376Y292583D01*
X593238Y292567D01*
X593205Y292555D01*
X593169Y292550D01*
X593041Y292497D01*
X592910Y292450D01*
X592880Y292430D01*
X592847Y292417D01*
X592734Y292336D01*
X592617Y292261D01*
X592593Y292235D01*
X592563Y292214D01*
X592472Y292110D01*
X592375Y292010D01*
X592357Y291979D01*
X592333Y291952D01*
X592268Y291830D01*
X592196Y291711D01*
X592185Y291677D01*
X592168Y291645D01*
X592132Y291511D01*
X592090Y291379D01*
X592087Y291343D01*
X592078Y291309D01*
X592073Y291170D01*
X592062Y291032D01*
X592068Y290996D01*
X592066Y290960D01*
X592093Y290824D01*
X592114Y290687D01*
X592127Y290654D01*
X592134Y290619D01*
X592227Y290392D01*
X592675Y289514D01*
X593120Y288146D01*
X593345Y286724D01*
X593345Y281431D01*
X584708Y281431D01*
X584682Y281428D01*
X584656Y281430D01*
X584509Y281408D01*
X584362Y281391D01*
X584337Y281383D01*
X584311Y281379D01*
X584204Y281336D01*
X584128Y281357D01*
X583987Y281402D01*
X583961Y281404D01*
X583936Y281412D01*
X583692Y281431D01*
X575055Y281431D01*
X575055Y282520D01*
X575044Y282620D01*
X575042Y282720D01*
X575024Y282793D01*
X575015Y282866D01*
X574982Y282961D01*
X574957Y283058D01*
X574923Y283125D01*
X574898Y283195D01*
X574843Y283279D01*
X574797Y283368D01*
X574749Y283425D01*
X574709Y283487D01*
X574637Y283557D01*
X574572Y283634D01*
X574512Y283678D01*
X574458Y283730D01*
X574372Y283781D01*
X574291Y283841D01*
X574223Y283870D01*
X574159Y283908D01*
X574063Y283939D01*
X573971Y283979D01*
X573898Y283992D01*
X573827Y284015D01*
X573727Y284023D01*
X573628Y284040D01*
X573554Y284037D01*
X573480Y284043D01*
X573380Y284028D01*
X573280Y284023D01*
X573209Y284002D01*
X573135Y283991D01*
X573042Y283954D01*
X572945Y283926D01*
X572880Y283890D01*
X572811Y283862D01*
X572729Y283805D01*
X572641Y283756D01*
X572565Y283691D01*
X572525Y283663D01*
X572501Y283637D01*
X572455Y283597D01*
X567375Y278517D01*
X567296Y278418D01*
X567212Y278324D01*
X567188Y278282D01*
X567158Y278244D01*
X567104Y278130D01*
X567043Y278019D01*
X567030Y277973D01*
X567009Y277929D01*
X566983Y277806D01*
X566948Y277684D01*
X566943Y277623D01*
X566936Y277588D01*
X566937Y277540D01*
X566929Y277440D01*
X566929Y271179D01*
X565691Y268191D01*
X563405Y265905D01*
X562789Y265650D01*
X562722Y265613D01*
X562651Y265584D01*
X562571Y265528D01*
X562484Y265481D01*
X562428Y265429D01*
X562365Y265386D01*
X562299Y265313D01*
X562226Y265246D01*
X562183Y265183D01*
X562132Y265127D01*
X562084Y265041D01*
X562028Y264960D01*
X562000Y264889D01*
X561963Y264822D01*
X561936Y264727D01*
X561900Y264635D01*
X561889Y264560D01*
X561868Y264486D01*
X561856Y264337D01*
X561849Y264291D01*
X561851Y264272D01*
X561849Y264243D01*
X561849Y252737D01*
X539595Y230483D01*
X539516Y230384D01*
X539432Y230290D01*
X539408Y230248D01*
X539378Y230210D01*
X539324Y230096D01*
X539263Y229985D01*
X539250Y229939D01*
X539229Y229895D01*
X539203Y229772D01*
X539168Y229650D01*
X539163Y229589D01*
X539156Y229554D01*
X539157Y229506D01*
X539149Y229406D01*
X539149Y226498D01*
X539152Y226472D01*
X539150Y226446D01*
X539172Y226299D01*
X539189Y226152D01*
X539197Y226127D01*
X539201Y226101D01*
X539256Y225963D01*
X539306Y225824D01*
X539320Y225802D01*
X539330Y225777D01*
X539415Y225656D01*
X539495Y225531D01*
X539514Y225513D01*
X539529Y225491D01*
X539639Y225392D01*
X539746Y225289D01*
X539768Y225275D01*
X539788Y225258D01*
X539918Y225186D01*
X540045Y225110D01*
X540070Y225102D01*
X540093Y225089D01*
X540236Y225049D01*
X540377Y225004D01*
X540403Y225002D01*
X540428Y224994D01*
X540672Y224975D01*
X541982Y224975D01*
X542875Y224082D01*
X542875Y203318D01*
X541982Y202425D01*
X530218Y202425D01*
G37*
%LPD*%
%LPC*%
G36*
X685732Y177957D02*
X685732Y177957D01*
X685625Y178060D01*
X685602Y178074D01*
X685583Y178091D01*
X685453Y178163D01*
X685326Y178239D01*
X685301Y178247D01*
X685278Y178260D01*
X685135Y178300D01*
X684994Y178345D01*
X684968Y178347D01*
X684943Y178355D01*
X684699Y178374D01*
X672259Y178374D01*
X672259Y181334D01*
X672453Y182058D01*
X672461Y182108D01*
X672476Y182157D01*
X672486Y182280D01*
X672504Y182402D01*
X672500Y182453D01*
X672504Y182504D01*
X672486Y182627D01*
X672476Y182750D01*
X672460Y182798D01*
X672452Y182849D01*
X672407Y182964D01*
X672369Y183082D01*
X672343Y183125D01*
X672324Y183173D01*
X672253Y183274D01*
X672189Y183380D01*
X672154Y183417D01*
X672125Y183459D01*
X672033Y183542D01*
X671947Y183631D01*
X671904Y183658D01*
X671866Y183692D01*
X671757Y183752D01*
X671654Y183819D01*
X671606Y183836D01*
X671561Y183861D01*
X671442Y183895D01*
X671325Y183936D01*
X671275Y183942D01*
X671226Y183956D01*
X670982Y183975D01*
X664668Y183975D01*
X663775Y184868D01*
X663775Y185928D01*
X663772Y185954D01*
X663774Y185980D01*
X663752Y186127D01*
X663735Y186274D01*
X663727Y186299D01*
X663723Y186325D01*
X663668Y186463D01*
X663618Y186602D01*
X663604Y186624D01*
X663594Y186649D01*
X663509Y186770D01*
X663429Y186895D01*
X663410Y186913D01*
X663395Y186935D01*
X663285Y187034D01*
X663178Y187137D01*
X663156Y187151D01*
X663136Y187168D01*
X663006Y187240D01*
X662879Y187316D01*
X662854Y187324D01*
X662831Y187337D01*
X662688Y187377D01*
X662547Y187422D01*
X662521Y187424D01*
X662496Y187432D01*
X662252Y187451D01*
X638037Y187451D01*
X623509Y201979D01*
X623410Y202058D01*
X623316Y202142D01*
X623274Y202166D01*
X623236Y202196D01*
X623122Y202250D01*
X623011Y202311D01*
X622965Y202324D01*
X622921Y202345D01*
X622798Y202371D01*
X622676Y202406D01*
X622615Y202411D01*
X622580Y202418D01*
X622532Y202417D01*
X622432Y202425D01*
X610218Y202425D01*
X609325Y203318D01*
X609325Y224082D01*
X610218Y224975D01*
X621982Y224975D01*
X622875Y224082D01*
X622875Y211868D01*
X622889Y211742D01*
X622896Y211616D01*
X622909Y211570D01*
X622915Y211522D01*
X622957Y211403D01*
X622992Y211281D01*
X623016Y211239D01*
X623032Y211193D01*
X623101Y211087D01*
X623162Y210977D01*
X623202Y210931D01*
X623221Y210901D01*
X623256Y210867D01*
X623321Y210791D01*
X640117Y193995D01*
X640216Y193916D01*
X640310Y193832D01*
X640352Y193808D01*
X640390Y193778D01*
X640504Y193724D01*
X640615Y193663D01*
X640661Y193650D01*
X640705Y193629D01*
X640828Y193603D01*
X640950Y193568D01*
X641011Y193563D01*
X641046Y193556D01*
X641094Y193557D01*
X641194Y193549D01*
X662252Y193549D01*
X662278Y193552D01*
X662304Y193550D01*
X662451Y193572D01*
X662598Y193589D01*
X662623Y193597D01*
X662649Y193601D01*
X662787Y193656D01*
X662926Y193706D01*
X662948Y193720D01*
X662973Y193730D01*
X663094Y193815D01*
X663219Y193895D01*
X663237Y193914D01*
X663259Y193929D01*
X663358Y194039D01*
X663461Y194146D01*
X663475Y194168D01*
X663492Y194188D01*
X663564Y194318D01*
X663640Y194445D01*
X663648Y194470D01*
X663661Y194493D01*
X663701Y194636D01*
X663746Y194777D01*
X663748Y194803D01*
X663756Y194828D01*
X663775Y195072D01*
X663775Y196132D01*
X664668Y197025D01*
X670982Y197025D01*
X671032Y197031D01*
X671083Y197028D01*
X671205Y197050D01*
X671328Y197065D01*
X671376Y197082D01*
X671426Y197091D01*
X671540Y197140D01*
X671656Y197182D01*
X671699Y197210D01*
X671746Y197230D01*
X671845Y197304D01*
X671949Y197371D01*
X671984Y197408D01*
X672025Y197438D01*
X672105Y197533D01*
X672191Y197622D01*
X672217Y197666D01*
X672250Y197705D01*
X672306Y197815D01*
X672370Y197921D01*
X672385Y197969D01*
X672409Y198015D01*
X672438Y198135D01*
X672476Y198253D01*
X672480Y198304D01*
X672492Y198353D01*
X672494Y198477D01*
X672504Y198600D01*
X672497Y198651D01*
X672497Y198702D01*
X672453Y198942D01*
X672259Y199666D01*
X672259Y202626D01*
X684699Y202626D01*
X684725Y202629D01*
X684751Y202627D01*
X684898Y202649D01*
X685045Y202666D01*
X685070Y202674D01*
X685096Y202678D01*
X685233Y202733D01*
X685373Y202783D01*
X685395Y202797D01*
X685420Y202807D01*
X685541Y202892D01*
X685666Y202972D01*
X685684Y202991D01*
X685706Y203006D01*
X685797Y203107D01*
X685868Y203043D01*
X685975Y202940D01*
X685998Y202926D01*
X686017Y202909D01*
X686147Y202837D01*
X686274Y202761D01*
X686299Y202753D01*
X686322Y202740D01*
X686465Y202700D01*
X686606Y202655D01*
X686632Y202652D01*
X686657Y202645D01*
X686901Y202626D01*
X699341Y202626D01*
X699341Y199665D01*
X699168Y199019D01*
X698833Y198440D01*
X698360Y197967D01*
X697677Y197572D01*
X697606Y197544D01*
X697604Y197543D01*
X697603Y197543D01*
X697466Y197448D01*
X697319Y197346D01*
X697318Y197345D01*
X697317Y197344D01*
X697199Y197213D01*
X697085Y197088D01*
X697085Y197086D01*
X697084Y197085D01*
X696993Y196920D01*
X696916Y196783D01*
X696916Y196781D01*
X696915Y196780D01*
X696867Y196611D01*
X696821Y196448D01*
X696821Y196446D01*
X696820Y196445D01*
X696801Y196201D01*
X696801Y184799D01*
X696801Y184798D01*
X696801Y184796D01*
X696821Y184623D01*
X696841Y184453D01*
X696841Y184451D01*
X696841Y184450D01*
X696900Y184286D01*
X696958Y184125D01*
X696959Y184123D01*
X696959Y184122D01*
X697056Y183973D01*
X697147Y183832D01*
X697148Y183831D01*
X697149Y183830D01*
X697272Y183711D01*
X697398Y183590D01*
X697399Y183589D01*
X697400Y183588D01*
X697544Y183502D01*
X697697Y183411D01*
X697698Y183410D01*
X697699Y183410D01*
X697721Y183402D01*
X698360Y183033D01*
X698833Y182560D01*
X699168Y181981D01*
X699341Y181335D01*
X699341Y178374D01*
X686901Y178374D01*
X686875Y178371D01*
X686849Y178373D01*
X686702Y178351D01*
X686555Y178334D01*
X686530Y178326D01*
X686504Y178322D01*
X686367Y178267D01*
X686227Y178217D01*
X686205Y178203D01*
X686180Y178193D01*
X686059Y178108D01*
X685934Y178028D01*
X685916Y178009D01*
X685894Y177994D01*
X685803Y177893D01*
X685732Y177957D01*
G37*
%LPD*%
%LPC*%
G36*
X510218Y202425D02*
X510218Y202425D01*
X509325Y203318D01*
X509325Y224082D01*
X510218Y224975D01*
X511528Y224975D01*
X511554Y224978D01*
X511580Y224976D01*
X511727Y224998D01*
X511874Y225015D01*
X511899Y225023D01*
X511925Y225027D01*
X512063Y225082D01*
X512202Y225132D01*
X512224Y225146D01*
X512249Y225156D01*
X512370Y225241D01*
X512495Y225321D01*
X512513Y225340D01*
X512535Y225355D01*
X512634Y225465D01*
X512737Y225572D01*
X512751Y225594D01*
X512768Y225614D01*
X512840Y225744D01*
X512916Y225871D01*
X512924Y225896D01*
X512937Y225919D01*
X512977Y226062D01*
X513022Y226203D01*
X513024Y226229D01*
X513032Y226254D01*
X513051Y226498D01*
X513051Y237963D01*
X529905Y254817D01*
X529984Y254916D01*
X530068Y255010D01*
X530092Y255052D01*
X530122Y255090D01*
X530176Y255204D01*
X530237Y255315D01*
X530250Y255361D01*
X530271Y255405D01*
X530297Y255528D01*
X530332Y255650D01*
X530337Y255711D01*
X530344Y255746D01*
X530343Y255794D01*
X530351Y255894D01*
X530351Y264243D01*
X530343Y264318D01*
X530344Y264395D01*
X530323Y264491D01*
X530311Y264589D01*
X530286Y264661D01*
X530269Y264735D01*
X530227Y264824D01*
X530194Y264917D01*
X530152Y264981D01*
X530120Y265050D01*
X530058Y265127D01*
X530005Y265210D01*
X529950Y265263D01*
X529902Y265323D01*
X529825Y265383D01*
X529754Y265452D01*
X529689Y265491D01*
X529629Y265538D01*
X529495Y265607D01*
X529455Y265631D01*
X529437Y265636D01*
X529411Y265650D01*
X528795Y265905D01*
X526509Y268191D01*
X525271Y271179D01*
X525271Y287621D01*
X526509Y290609D01*
X528795Y292895D01*
X531783Y294133D01*
X535017Y294133D01*
X538005Y292895D01*
X540291Y290609D01*
X541529Y287621D01*
X541529Y271179D01*
X540291Y268191D01*
X538005Y265905D01*
X537389Y265650D01*
X537322Y265613D01*
X537251Y265584D01*
X537171Y265528D01*
X537084Y265481D01*
X537028Y265429D01*
X536965Y265386D01*
X536899Y265313D01*
X536826Y265246D01*
X536783Y265183D01*
X536732Y265127D01*
X536684Y265041D01*
X536628Y264960D01*
X536600Y264889D01*
X536563Y264822D01*
X536536Y264727D01*
X536500Y264635D01*
X536489Y264560D01*
X536468Y264486D01*
X536456Y264337D01*
X536449Y264291D01*
X536451Y264272D01*
X536449Y264243D01*
X536449Y252737D01*
X519595Y235883D01*
X519516Y235784D01*
X519432Y235690D01*
X519408Y235648D01*
X519378Y235610D01*
X519324Y235496D01*
X519263Y235385D01*
X519250Y235339D01*
X519229Y235295D01*
X519203Y235172D01*
X519168Y235050D01*
X519163Y234989D01*
X519156Y234954D01*
X519157Y234906D01*
X519149Y234806D01*
X519149Y226498D01*
X519152Y226472D01*
X519150Y226446D01*
X519172Y226299D01*
X519189Y226152D01*
X519197Y226127D01*
X519201Y226101D01*
X519256Y225963D01*
X519306Y225824D01*
X519320Y225802D01*
X519330Y225777D01*
X519415Y225656D01*
X519495Y225531D01*
X519514Y225513D01*
X519529Y225491D01*
X519639Y225392D01*
X519746Y225289D01*
X519768Y225275D01*
X519788Y225258D01*
X519918Y225186D01*
X520045Y225110D01*
X520070Y225102D01*
X520093Y225089D01*
X520236Y225049D01*
X520377Y225004D01*
X520403Y225002D01*
X520428Y224994D01*
X520672Y224975D01*
X521982Y224975D01*
X522875Y224082D01*
X522875Y203318D01*
X521982Y202425D01*
X510218Y202425D01*
G37*
%LPD*%
%LPC*%
G36*
X490218Y202425D02*
X490218Y202425D01*
X489325Y203318D01*
X489325Y224082D01*
X490218Y224975D01*
X490728Y224975D01*
X490754Y224978D01*
X490780Y224976D01*
X490927Y224998D01*
X491074Y225015D01*
X491099Y225023D01*
X491125Y225027D01*
X491263Y225082D01*
X491402Y225132D01*
X491424Y225146D01*
X491449Y225156D01*
X491570Y225241D01*
X491695Y225321D01*
X491713Y225340D01*
X491735Y225355D01*
X491834Y225465D01*
X491937Y225572D01*
X491951Y225594D01*
X491968Y225614D01*
X492040Y225744D01*
X492116Y225871D01*
X492124Y225896D01*
X492137Y225919D01*
X492177Y226062D01*
X492222Y226203D01*
X492224Y226229D01*
X492232Y226254D01*
X492251Y226498D01*
X492251Y242563D01*
X504505Y254817D01*
X504584Y254916D01*
X504668Y255010D01*
X504692Y255052D01*
X504722Y255090D01*
X504776Y255204D01*
X504837Y255315D01*
X504850Y255361D01*
X504871Y255405D01*
X504897Y255528D01*
X504932Y255650D01*
X504937Y255711D01*
X504944Y255746D01*
X504943Y255794D01*
X504951Y255894D01*
X504951Y264243D01*
X504943Y264318D01*
X504944Y264395D01*
X504923Y264491D01*
X504911Y264589D01*
X504886Y264661D01*
X504869Y264735D01*
X504827Y264824D01*
X504794Y264917D01*
X504752Y264981D01*
X504720Y265050D01*
X504658Y265127D01*
X504605Y265210D01*
X504550Y265263D01*
X504502Y265323D01*
X504425Y265383D01*
X504354Y265452D01*
X504289Y265491D01*
X504229Y265538D01*
X504095Y265607D01*
X504055Y265631D01*
X504037Y265636D01*
X504011Y265650D01*
X503395Y265905D01*
X501109Y268191D01*
X499871Y271179D01*
X499871Y287621D01*
X501109Y290609D01*
X503395Y292895D01*
X506383Y294133D01*
X509617Y294133D01*
X512605Y292895D01*
X514891Y290609D01*
X516129Y287621D01*
X516129Y271179D01*
X514891Y268191D01*
X512605Y265905D01*
X511989Y265650D01*
X511922Y265613D01*
X511851Y265584D01*
X511771Y265528D01*
X511684Y265481D01*
X511628Y265429D01*
X511565Y265386D01*
X511499Y265313D01*
X511426Y265246D01*
X511383Y265183D01*
X511332Y265127D01*
X511284Y265041D01*
X511228Y264960D01*
X511200Y264889D01*
X511163Y264822D01*
X511136Y264727D01*
X511100Y264635D01*
X511089Y264560D01*
X511068Y264486D01*
X511056Y264337D01*
X511049Y264291D01*
X511051Y264272D01*
X511049Y264243D01*
X511049Y252737D01*
X498795Y240483D01*
X498716Y240384D01*
X498632Y240290D01*
X498608Y240248D01*
X498578Y240210D01*
X498524Y240096D01*
X498463Y239985D01*
X498450Y239939D01*
X498429Y239895D01*
X498403Y239772D01*
X498368Y239650D01*
X498363Y239589D01*
X498356Y239554D01*
X498357Y239506D01*
X498349Y239406D01*
X498349Y226498D01*
X498352Y226472D01*
X498350Y226446D01*
X498372Y226299D01*
X498389Y226152D01*
X498397Y226127D01*
X498401Y226101D01*
X498456Y225963D01*
X498506Y225824D01*
X498520Y225802D01*
X498530Y225777D01*
X498615Y225656D01*
X498695Y225531D01*
X498714Y225513D01*
X498729Y225491D01*
X498839Y225392D01*
X498946Y225289D01*
X498968Y225275D01*
X498988Y225258D01*
X499118Y225186D01*
X499245Y225110D01*
X499270Y225102D01*
X499293Y225089D01*
X499436Y225049D01*
X499577Y225004D01*
X499603Y225002D01*
X499628Y224994D01*
X499872Y224975D01*
X501982Y224975D01*
X502875Y224082D01*
X502875Y203318D01*
X501982Y202425D01*
X490218Y202425D01*
G37*
%LPD*%
%LPC*%
G36*
X470218Y202425D02*
X470218Y202425D01*
X469325Y203318D01*
X469325Y224082D01*
X470218Y224975D01*
X471528Y224975D01*
X471554Y224978D01*
X471580Y224976D01*
X471727Y224998D01*
X471874Y225015D01*
X471899Y225023D01*
X471925Y225027D01*
X472063Y225082D01*
X472202Y225132D01*
X472224Y225146D01*
X472249Y225156D01*
X472370Y225241D01*
X472495Y225321D01*
X472513Y225340D01*
X472535Y225355D01*
X472634Y225465D01*
X472737Y225572D01*
X472751Y225594D01*
X472768Y225614D01*
X472840Y225744D01*
X472916Y225871D01*
X472924Y225896D01*
X472937Y225919D01*
X472977Y226062D01*
X473022Y226203D01*
X473024Y226229D01*
X473032Y226254D01*
X473051Y226498D01*
X473051Y248763D01*
X479105Y254817D01*
X479184Y254916D01*
X479268Y255010D01*
X479292Y255052D01*
X479322Y255090D01*
X479376Y255204D01*
X479437Y255315D01*
X479450Y255361D01*
X479471Y255405D01*
X479497Y255528D01*
X479532Y255650D01*
X479537Y255711D01*
X479544Y255746D01*
X479543Y255794D01*
X479551Y255894D01*
X479551Y264243D01*
X479543Y264318D01*
X479544Y264395D01*
X479523Y264491D01*
X479511Y264589D01*
X479486Y264661D01*
X479469Y264735D01*
X479427Y264824D01*
X479394Y264917D01*
X479352Y264981D01*
X479320Y265050D01*
X479258Y265127D01*
X479205Y265210D01*
X479150Y265263D01*
X479102Y265323D01*
X479025Y265383D01*
X478954Y265452D01*
X478889Y265491D01*
X478829Y265538D01*
X478695Y265607D01*
X478655Y265631D01*
X478637Y265636D01*
X478611Y265650D01*
X477995Y265905D01*
X475709Y268191D01*
X474471Y271179D01*
X474471Y287621D01*
X475709Y290609D01*
X477995Y292895D01*
X480983Y294133D01*
X484217Y294133D01*
X487205Y292895D01*
X489491Y290609D01*
X490729Y287621D01*
X490729Y271179D01*
X489491Y268191D01*
X487205Y265905D01*
X486589Y265650D01*
X486522Y265613D01*
X486451Y265584D01*
X486371Y265528D01*
X486284Y265481D01*
X486228Y265429D01*
X486165Y265386D01*
X486099Y265313D01*
X486026Y265246D01*
X485983Y265183D01*
X485932Y265127D01*
X485884Y265041D01*
X485828Y264960D01*
X485800Y264889D01*
X485763Y264822D01*
X485736Y264727D01*
X485700Y264635D01*
X485689Y264560D01*
X485668Y264486D01*
X485656Y264337D01*
X485649Y264291D01*
X485651Y264272D01*
X485649Y264243D01*
X485649Y252737D01*
X479595Y246683D01*
X479516Y246584D01*
X479432Y246490D01*
X479408Y246448D01*
X479378Y246410D01*
X479324Y246296D01*
X479263Y246185D01*
X479250Y246139D01*
X479229Y246095D01*
X479203Y245972D01*
X479168Y245850D01*
X479163Y245789D01*
X479156Y245754D01*
X479157Y245706D01*
X479149Y245606D01*
X479149Y226498D01*
X479152Y226472D01*
X479150Y226446D01*
X479172Y226299D01*
X479189Y226152D01*
X479197Y226127D01*
X479201Y226101D01*
X479256Y225963D01*
X479306Y225824D01*
X479320Y225802D01*
X479330Y225777D01*
X479415Y225656D01*
X479495Y225531D01*
X479514Y225513D01*
X479529Y225491D01*
X479639Y225392D01*
X479746Y225289D01*
X479768Y225275D01*
X479788Y225258D01*
X479918Y225186D01*
X480045Y225110D01*
X480070Y225102D01*
X480093Y225089D01*
X480236Y225049D01*
X480377Y225004D01*
X480403Y225002D01*
X480428Y224994D01*
X480672Y224975D01*
X481982Y224975D01*
X482875Y224082D01*
X482875Y203318D01*
X481982Y202425D01*
X470218Y202425D01*
G37*
%LPD*%
%LPC*%
G36*
X480983Y10667D02*
X480983Y10667D01*
X477995Y11905D01*
X475709Y14191D01*
X474471Y17179D01*
X474471Y33621D01*
X475709Y36609D01*
X477995Y38895D01*
X479573Y39549D01*
X479575Y39550D01*
X479577Y39550D01*
X479722Y39632D01*
X479878Y39718D01*
X479879Y39719D01*
X479881Y39720D01*
X480067Y39879D01*
X492013Y51825D01*
X492076Y51903D01*
X492146Y51976D01*
X492184Y52040D01*
X492230Y52098D01*
X492273Y52189D01*
X492324Y52275D01*
X492347Y52346D01*
X492379Y52413D01*
X492400Y52511D01*
X492431Y52607D01*
X492437Y52681D01*
X492452Y52754D01*
X492451Y52854D01*
X492459Y52954D01*
X492448Y53028D01*
X492446Y53102D01*
X492422Y53199D01*
X492407Y53299D01*
X492379Y53368D01*
X492361Y53440D01*
X492315Y53530D01*
X492278Y53623D01*
X492236Y53684D01*
X492202Y53750D01*
X492136Y53827D01*
X492079Y53909D01*
X492024Y53959D01*
X491976Y54015D01*
X491895Y54075D01*
X491820Y54142D01*
X491755Y54178D01*
X491696Y54223D01*
X491603Y54262D01*
X491515Y54311D01*
X491444Y54331D01*
X491376Y54361D01*
X491277Y54378D01*
X491180Y54406D01*
X491080Y54414D01*
X491033Y54422D01*
X490997Y54420D01*
X490936Y54425D01*
X490218Y54425D01*
X489325Y55318D01*
X489325Y76082D01*
X490218Y76975D01*
X501982Y76975D01*
X502875Y76082D01*
X502875Y55318D01*
X501982Y54425D01*
X500672Y54425D01*
X500646Y54422D01*
X500620Y54424D01*
X500473Y54402D01*
X500326Y54385D01*
X500301Y54377D01*
X500275Y54373D01*
X500137Y54318D01*
X499998Y54268D01*
X499976Y54254D01*
X499951Y54244D01*
X499830Y54159D01*
X499705Y54079D01*
X499687Y54060D01*
X499665Y54045D01*
X499566Y53935D01*
X499463Y53828D01*
X499449Y53806D01*
X499432Y53786D01*
X499360Y53656D01*
X499284Y53529D01*
X499276Y53504D01*
X499263Y53481D01*
X499223Y53338D01*
X499178Y53197D01*
X499176Y53171D01*
X499168Y53146D01*
X499149Y52902D01*
X499149Y50337D01*
X488533Y39721D01*
X488516Y39701D01*
X488496Y39684D01*
X488408Y39564D01*
X488316Y39448D01*
X488305Y39424D01*
X488289Y39403D01*
X488231Y39267D01*
X488167Y39133D01*
X488162Y39107D01*
X488151Y39083D01*
X488125Y38937D01*
X488094Y38792D01*
X488094Y38766D01*
X488090Y38740D01*
X488097Y38592D01*
X488100Y38444D01*
X488106Y38418D01*
X488108Y38392D01*
X488149Y38250D01*
X488185Y38106D01*
X488197Y38082D01*
X488204Y38057D01*
X488276Y37928D01*
X488344Y37796D01*
X488361Y37776D01*
X488374Y37753D01*
X488533Y37567D01*
X489491Y36609D01*
X490729Y33621D01*
X490729Y17179D01*
X489491Y14191D01*
X487205Y11905D01*
X484217Y10667D01*
X480983Y10667D01*
G37*
%LPD*%
%LPC*%
G36*
X582583Y10667D02*
X582583Y10667D01*
X579595Y11905D01*
X577309Y14191D01*
X576071Y17179D01*
X576071Y33621D01*
X577309Y36609D01*
X578267Y37567D01*
X578284Y37588D01*
X578304Y37605D01*
X578392Y37724D01*
X578484Y37840D01*
X578495Y37864D01*
X578511Y37885D01*
X578569Y38021D01*
X578633Y38155D01*
X578638Y38181D01*
X578649Y38205D01*
X578675Y38351D01*
X578706Y38496D01*
X578706Y38522D01*
X578710Y38548D01*
X578703Y38696D01*
X578700Y38844D01*
X578694Y38870D01*
X578692Y38896D01*
X578651Y39038D01*
X578615Y39182D01*
X578603Y39206D01*
X578596Y39231D01*
X578523Y39360D01*
X578456Y39492D01*
X578439Y39512D01*
X578426Y39535D01*
X578267Y39721D01*
X573051Y44937D01*
X573051Y52902D01*
X573048Y52928D01*
X573050Y52954D01*
X573028Y53101D01*
X573011Y53248D01*
X573003Y53273D01*
X572999Y53299D01*
X572944Y53437D01*
X572894Y53576D01*
X572880Y53598D01*
X572870Y53623D01*
X572785Y53744D01*
X572705Y53869D01*
X572686Y53887D01*
X572671Y53909D01*
X572561Y54008D01*
X572454Y54111D01*
X572432Y54125D01*
X572412Y54142D01*
X572283Y54214D01*
X572155Y54290D01*
X572130Y54298D01*
X572107Y54311D01*
X571964Y54351D01*
X571823Y54396D01*
X571797Y54398D01*
X571772Y54406D01*
X571528Y54425D01*
X570218Y54425D01*
X569325Y55318D01*
X569325Y76082D01*
X570218Y76975D01*
X581982Y76975D01*
X582875Y76082D01*
X582875Y55318D01*
X581982Y54425D01*
X580672Y54425D01*
X580646Y54422D01*
X580620Y54424D01*
X580473Y54402D01*
X580326Y54385D01*
X580301Y54377D01*
X580275Y54373D01*
X580137Y54318D01*
X579998Y54268D01*
X579976Y54254D01*
X579951Y54244D01*
X579830Y54159D01*
X579705Y54079D01*
X579687Y54060D01*
X579665Y54045D01*
X579566Y53935D01*
X579463Y53828D01*
X579449Y53806D01*
X579432Y53786D01*
X579360Y53656D01*
X579284Y53529D01*
X579276Y53504D01*
X579263Y53481D01*
X579223Y53338D01*
X579178Y53197D01*
X579176Y53171D01*
X579168Y53146D01*
X579149Y52902D01*
X579149Y48094D01*
X579163Y47968D01*
X579170Y47842D01*
X579183Y47796D01*
X579189Y47748D01*
X579231Y47629D01*
X579266Y47507D01*
X579290Y47465D01*
X579306Y47419D01*
X579375Y47313D01*
X579436Y47203D01*
X579476Y47157D01*
X579495Y47127D01*
X579530Y47093D01*
X579595Y47017D01*
X585016Y41595D01*
X585017Y41595D01*
X586733Y39879D01*
X586734Y39878D01*
X586736Y39876D01*
X586869Y39771D01*
X587006Y39662D01*
X587007Y39661D01*
X587009Y39660D01*
X587227Y39549D01*
X588805Y38895D01*
X591091Y36609D01*
X592329Y33621D01*
X592329Y17179D01*
X591091Y14191D01*
X588805Y11905D01*
X585817Y10667D01*
X582583Y10667D01*
G37*
%LPD*%
%LPC*%
G36*
X506383Y10667D02*
X506383Y10667D01*
X503395Y11905D01*
X501109Y14191D01*
X499871Y17179D01*
X499871Y33621D01*
X501109Y36609D01*
X503395Y38895D01*
X504011Y39150D01*
X504078Y39187D01*
X504149Y39216D01*
X504229Y39272D01*
X504316Y39319D01*
X504372Y39371D01*
X504435Y39414D01*
X504501Y39487D01*
X504574Y39554D01*
X504617Y39617D01*
X504668Y39673D01*
X504716Y39759D01*
X504772Y39840D01*
X504800Y39911D01*
X504837Y39978D01*
X504864Y40073D01*
X504900Y40165D01*
X504911Y40240D01*
X504932Y40314D01*
X504944Y40463D01*
X504951Y40509D01*
X504949Y40528D01*
X504951Y40557D01*
X504951Y52063D01*
X507183Y54295D01*
X508879Y55991D01*
X508958Y56090D01*
X509042Y56184D01*
X509066Y56226D01*
X509096Y56264D01*
X509150Y56378D01*
X509211Y56489D01*
X509224Y56535D01*
X509245Y56579D01*
X509271Y56702D01*
X509306Y56824D01*
X509311Y56885D01*
X509318Y56919D01*
X509317Y56967D01*
X509325Y57068D01*
X509325Y76082D01*
X510218Y76975D01*
X521982Y76975D01*
X522875Y76082D01*
X522875Y55318D01*
X521982Y54425D01*
X516568Y54425D01*
X516442Y54411D01*
X516316Y54404D01*
X516270Y54391D01*
X516222Y54385D01*
X516103Y54343D01*
X515981Y54308D01*
X515939Y54284D01*
X515893Y54268D01*
X515787Y54199D01*
X515677Y54138D01*
X515631Y54098D01*
X515601Y54079D01*
X515567Y54044D01*
X515491Y53979D01*
X511495Y49983D01*
X511416Y49884D01*
X511332Y49790D01*
X511308Y49748D01*
X511278Y49710D01*
X511224Y49596D01*
X511163Y49485D01*
X511150Y49439D01*
X511129Y49395D01*
X511103Y49272D01*
X511068Y49150D01*
X511063Y49089D01*
X511056Y49055D01*
X511057Y49007D01*
X511049Y48906D01*
X511049Y40557D01*
X511057Y40482D01*
X511056Y40405D01*
X511077Y40309D01*
X511089Y40211D01*
X511114Y40139D01*
X511131Y40065D01*
X511173Y39976D01*
X511206Y39883D01*
X511248Y39819D01*
X511280Y39750D01*
X511342Y39673D01*
X511395Y39590D01*
X511450Y39537D01*
X511498Y39477D01*
X511575Y39417D01*
X511646Y39348D01*
X511711Y39309D01*
X511771Y39262D01*
X511905Y39193D01*
X511945Y39169D01*
X511963Y39164D01*
X511989Y39150D01*
X512605Y38895D01*
X514891Y36609D01*
X516129Y33621D01*
X516129Y17179D01*
X514891Y14191D01*
X512605Y11905D01*
X509617Y10667D01*
X506383Y10667D01*
G37*
%LPD*%
%LPC*%
G36*
X531783Y10667D02*
X531783Y10667D01*
X528795Y11905D01*
X526509Y14191D01*
X525271Y17179D01*
X525271Y33621D01*
X526509Y36609D01*
X528795Y38895D01*
X529411Y39150D01*
X529478Y39187D01*
X529549Y39216D01*
X529629Y39272D01*
X529716Y39319D01*
X529772Y39371D01*
X529835Y39414D01*
X529901Y39487D01*
X529974Y39554D01*
X530017Y39617D01*
X530068Y39673D01*
X530116Y39759D01*
X530172Y39840D01*
X530200Y39911D01*
X530237Y39978D01*
X530264Y40073D01*
X530300Y40165D01*
X530311Y40240D01*
X530332Y40314D01*
X530344Y40463D01*
X530351Y40509D01*
X530349Y40528D01*
X530351Y40557D01*
X530351Y52063D01*
X530389Y52101D01*
X530405Y52121D01*
X530425Y52138D01*
X530514Y52258D01*
X530606Y52374D01*
X530617Y52397D01*
X530632Y52418D01*
X530691Y52555D01*
X530755Y52689D01*
X530760Y52714D01*
X530770Y52738D01*
X530797Y52884D01*
X530828Y53029D01*
X530827Y53055D01*
X530832Y53081D01*
X530824Y53229D01*
X530822Y53378D01*
X530816Y53403D01*
X530814Y53429D01*
X530773Y53572D01*
X530737Y53716D01*
X530725Y53739D01*
X530718Y53764D01*
X530645Y53894D01*
X530577Y54026D01*
X530560Y54046D01*
X530547Y54068D01*
X530389Y54255D01*
X529325Y55318D01*
X529325Y76082D01*
X530218Y76975D01*
X541982Y76975D01*
X542875Y76082D01*
X542875Y55318D01*
X541982Y54425D01*
X540672Y54425D01*
X540646Y54422D01*
X540620Y54424D01*
X540473Y54402D01*
X540326Y54385D01*
X540301Y54377D01*
X540275Y54373D01*
X540137Y54318D01*
X539998Y54268D01*
X539976Y54254D01*
X539951Y54244D01*
X539830Y54159D01*
X539705Y54079D01*
X539687Y54060D01*
X539665Y54045D01*
X539566Y53935D01*
X539463Y53828D01*
X539449Y53806D01*
X539432Y53786D01*
X539360Y53656D01*
X539284Y53529D01*
X539276Y53504D01*
X539263Y53481D01*
X539223Y53338D01*
X539178Y53197D01*
X539176Y53171D01*
X539168Y53146D01*
X539149Y52902D01*
X539149Y52237D01*
X536895Y49983D01*
X536816Y49884D01*
X536732Y49790D01*
X536708Y49748D01*
X536678Y49710D01*
X536624Y49596D01*
X536563Y49485D01*
X536550Y49439D01*
X536529Y49395D01*
X536503Y49272D01*
X536468Y49150D01*
X536463Y49089D01*
X536456Y49054D01*
X536457Y49006D01*
X536449Y48906D01*
X536449Y40557D01*
X536457Y40482D01*
X536456Y40405D01*
X536477Y40309D01*
X536489Y40211D01*
X536514Y40139D01*
X536531Y40065D01*
X536573Y39976D01*
X536606Y39883D01*
X536648Y39819D01*
X536680Y39750D01*
X536742Y39673D01*
X536795Y39590D01*
X536850Y39537D01*
X536898Y39477D01*
X536975Y39417D01*
X537046Y39348D01*
X537111Y39309D01*
X537171Y39262D01*
X537305Y39193D01*
X537345Y39169D01*
X537363Y39164D01*
X537389Y39150D01*
X538005Y38895D01*
X540291Y36609D01*
X541529Y33621D01*
X541529Y17179D01*
X540291Y14191D01*
X538005Y11905D01*
X535017Y10667D01*
X531783Y10667D01*
G37*
%LPD*%
%LPC*%
G36*
X557183Y10667D02*
X557183Y10667D01*
X554195Y11905D01*
X551909Y14191D01*
X550671Y17179D01*
X550671Y33621D01*
X551909Y36609D01*
X554195Y38895D01*
X554811Y39150D01*
X554878Y39187D01*
X554949Y39215D01*
X555029Y39272D01*
X555116Y39319D01*
X555172Y39371D01*
X555235Y39414D01*
X555301Y39487D01*
X555374Y39554D01*
X555417Y39616D01*
X555468Y39673D01*
X555516Y39759D01*
X555572Y39840D01*
X555600Y39911D01*
X555637Y39978D01*
X555664Y40073D01*
X555700Y40164D01*
X555711Y40240D01*
X555732Y40314D01*
X555744Y40462D01*
X555751Y40509D01*
X555749Y40528D01*
X555751Y40557D01*
X555751Y52902D01*
X555748Y52928D01*
X555750Y52954D01*
X555728Y53101D01*
X555711Y53248D01*
X555703Y53273D01*
X555699Y53299D01*
X555644Y53437D01*
X555594Y53576D01*
X555580Y53598D01*
X555570Y53623D01*
X555485Y53744D01*
X555405Y53869D01*
X555386Y53887D01*
X555371Y53909D01*
X555261Y54008D01*
X555154Y54111D01*
X555132Y54125D01*
X555112Y54142D01*
X554983Y54214D01*
X554855Y54290D01*
X554830Y54298D01*
X554807Y54311D01*
X554664Y54351D01*
X554523Y54396D01*
X554497Y54398D01*
X554472Y54406D01*
X554228Y54425D01*
X550218Y54425D01*
X549325Y55318D01*
X549325Y76082D01*
X550218Y76975D01*
X561982Y76975D01*
X562875Y76082D01*
X562875Y55318D01*
X562295Y54739D01*
X562216Y54640D01*
X562132Y54546D01*
X562108Y54503D01*
X562078Y54466D01*
X562024Y54351D01*
X561963Y54241D01*
X561950Y54194D01*
X561929Y54150D01*
X561903Y54027D01*
X561868Y53905D01*
X561863Y53845D01*
X561856Y53810D01*
X561857Y53762D01*
X561849Y53661D01*
X561849Y40557D01*
X561857Y40482D01*
X561856Y40405D01*
X561877Y40309D01*
X561889Y40211D01*
X561914Y40139D01*
X561931Y40065D01*
X561973Y39976D01*
X562006Y39883D01*
X562048Y39819D01*
X562080Y39750D01*
X562142Y39673D01*
X562195Y39590D01*
X562250Y39537D01*
X562298Y39477D01*
X562375Y39417D01*
X562446Y39348D01*
X562511Y39309D01*
X562571Y39262D01*
X562704Y39193D01*
X562745Y39169D01*
X562763Y39163D01*
X562789Y39150D01*
X563405Y38895D01*
X565691Y36609D01*
X566929Y33621D01*
X566929Y17179D01*
X565691Y14191D01*
X563405Y11905D01*
X560417Y10667D01*
X557183Y10667D01*
G37*
%LPD*%
%LPC*%
G36*
X590218Y54425D02*
X590218Y54425D01*
X589325Y55318D01*
X589325Y76082D01*
X590218Y76975D01*
X601982Y76975D01*
X602875Y76082D01*
X602875Y55318D01*
X601982Y54425D01*
X590218Y54425D01*
G37*
%LPD*%
%LPC*%
G36*
X570218Y202425D02*
X570218Y202425D01*
X569325Y203318D01*
X569325Y224082D01*
X570218Y224975D01*
X581982Y224975D01*
X582875Y224082D01*
X582875Y203318D01*
X581982Y202425D01*
X570218Y202425D01*
G37*
%LPD*%
%LPC*%
G36*
X550218Y202425D02*
X550218Y202425D01*
X549325Y203318D01*
X549325Y224082D01*
X550218Y224975D01*
X561982Y224975D01*
X562875Y224082D01*
X562875Y203318D01*
X561982Y202425D01*
X550218Y202425D01*
G37*
%LPD*%
%LPC*%
G36*
X586231Y277369D02*
X586231Y277369D01*
X593345Y277369D01*
X593345Y272076D01*
X593120Y270654D01*
X592675Y269286D01*
X592021Y268003D01*
X591175Y266839D01*
X590157Y265821D01*
X588993Y264975D01*
X587710Y264321D01*
X586342Y263876D01*
X586231Y263859D01*
X586231Y277369D01*
G37*
%LPD*%
%LPC*%
G36*
X582058Y263876D02*
X582058Y263876D01*
X580690Y264321D01*
X579407Y264975D01*
X578243Y265821D01*
X577225Y266839D01*
X576379Y268003D01*
X575725Y269286D01*
X575280Y270654D01*
X575055Y272076D01*
X575055Y277369D01*
X582169Y277369D01*
X582169Y263859D01*
X582058Y263876D01*
G37*
%LPD*%
%LPC*%
G36*
X688424Y207874D02*
X688424Y207874D01*
X688424Y213041D01*
X697135Y213041D01*
X697781Y212868D01*
X698360Y212533D01*
X698833Y212060D01*
X699168Y211481D01*
X699341Y210835D01*
X699341Y207874D01*
X688424Y207874D01*
G37*
%LPD*%
%LPC*%
G36*
X672259Y207874D02*
X672259Y207874D01*
X672259Y210835D01*
X672432Y211481D01*
X672767Y212060D01*
X673240Y212533D01*
X673819Y212868D01*
X674465Y213041D01*
X683176Y213041D01*
X683176Y207874D01*
X672259Y207874D01*
G37*
%LPD*%
%LPC*%
G36*
X688424Y167959D02*
X688424Y167959D01*
X688424Y173126D01*
X699341Y173126D01*
X699341Y170165D01*
X699168Y169519D01*
X698833Y168940D01*
X698360Y168467D01*
X697781Y168132D01*
X697135Y167959D01*
X688424Y167959D01*
G37*
%LPD*%
%LPC*%
G36*
X674465Y167959D02*
X674465Y167959D01*
X673819Y168132D01*
X673240Y168467D01*
X672767Y168940D01*
X672432Y169519D01*
X672259Y170165D01*
X672259Y173126D01*
X683176Y173126D01*
X683176Y167959D01*
X674465Y167959D01*
G37*
%LPD*%
%LPC*%
G36*
X478724Y68324D02*
X478724Y68324D01*
X478724Y77991D01*
X481685Y77991D01*
X482331Y77818D01*
X482910Y77483D01*
X483383Y77010D01*
X483718Y76431D01*
X483891Y75785D01*
X483891Y68324D01*
X478724Y68324D01*
G37*
%LPD*%
%LPC*%
G36*
X618724Y68324D02*
X618724Y68324D01*
X618724Y77991D01*
X621685Y77991D01*
X622331Y77818D01*
X622910Y77483D01*
X623383Y77010D01*
X623718Y76431D01*
X623891Y75785D01*
X623891Y68324D01*
X618724Y68324D01*
G37*
%LPD*%
%LPC*%
G36*
X598724Y216324D02*
X598724Y216324D01*
X598724Y225991D01*
X601685Y225991D01*
X602331Y225818D01*
X602910Y225483D01*
X603383Y225010D01*
X603718Y224431D01*
X603891Y223785D01*
X603891Y216324D01*
X598724Y216324D01*
G37*
%LPD*%
%LPC*%
G36*
X598724Y201409D02*
X598724Y201409D01*
X598724Y211076D01*
X603891Y211076D01*
X603891Y203615D01*
X603718Y202969D01*
X603383Y202390D01*
X602910Y201917D01*
X602331Y201582D01*
X601685Y201409D01*
X598724Y201409D01*
G37*
%LPD*%
%LPC*%
G36*
X618724Y53409D02*
X618724Y53409D01*
X618724Y63076D01*
X623891Y63076D01*
X623891Y55615D01*
X623718Y54969D01*
X623383Y54390D01*
X622910Y53917D01*
X622331Y53582D01*
X621685Y53409D01*
X618724Y53409D01*
G37*
%LPD*%
%LPC*%
G36*
X478724Y53409D02*
X478724Y53409D01*
X478724Y63076D01*
X483891Y63076D01*
X483891Y55615D01*
X483718Y54969D01*
X483383Y54390D01*
X482910Y53917D01*
X482331Y53582D01*
X481685Y53409D01*
X478724Y53409D01*
G37*
%LPD*%
%LPC*%
G36*
X608309Y68324D02*
X608309Y68324D01*
X608309Y75785D01*
X608482Y76431D01*
X608817Y77010D01*
X609290Y77483D01*
X609869Y77818D01*
X610515Y77991D01*
X613476Y77991D01*
X613476Y68324D01*
X608309Y68324D01*
G37*
%LPD*%
%LPC*%
G36*
X468309Y68324D02*
X468309Y68324D01*
X468309Y75785D01*
X468482Y76431D01*
X468817Y77010D01*
X469290Y77483D01*
X469869Y77818D01*
X470515Y77991D01*
X473476Y77991D01*
X473476Y68324D01*
X468309Y68324D01*
G37*
%LPD*%
%LPC*%
G36*
X588309Y216324D02*
X588309Y216324D01*
X588309Y223785D01*
X588482Y224431D01*
X588817Y225010D01*
X589290Y225483D01*
X589869Y225818D01*
X590515Y225991D01*
X593476Y225991D01*
X593476Y216324D01*
X588309Y216324D01*
G37*
%LPD*%
%LPC*%
G36*
X590515Y201409D02*
X590515Y201409D01*
X589869Y201582D01*
X589290Y201917D01*
X588817Y202390D01*
X588482Y202969D01*
X588309Y203615D01*
X588309Y211076D01*
X593476Y211076D01*
X593476Y201409D01*
X590515Y201409D01*
G37*
%LPD*%
%LPC*%
G36*
X470515Y53409D02*
X470515Y53409D01*
X469869Y53582D01*
X469290Y53917D01*
X468817Y54390D01*
X468482Y54969D01*
X468309Y55615D01*
X468309Y63076D01*
X473476Y63076D01*
X473476Y53409D01*
X470515Y53409D01*
G37*
%LPD*%
%LPC*%
G36*
X610515Y53409D02*
X610515Y53409D01*
X609869Y53582D01*
X609290Y53917D01*
X608817Y54390D01*
X608482Y54969D01*
X608309Y55615D01*
X608309Y63076D01*
X613476Y63076D01*
X613476Y53409D01*
X610515Y53409D01*
G37*
%LPD*%
%LPC*%
G36*
X673607Y222759D02*
X673607Y222759D01*
X673607Y228753D01*
X680601Y228753D01*
X680601Y224965D01*
X680428Y224319D01*
X680093Y223740D01*
X679620Y223267D01*
X679041Y222932D01*
X678395Y222759D01*
X673607Y222759D01*
G37*
%LPD*%
%LPC*%
G36*
X648207Y222759D02*
X648207Y222759D01*
X648207Y228753D01*
X655201Y228753D01*
X655201Y224965D01*
X655028Y224319D01*
X654693Y223740D01*
X654220Y223267D01*
X653641Y222932D01*
X652995Y222759D01*
X648207Y222759D01*
G37*
%LPD*%
%LPC*%
G36*
X699007Y222759D02*
X699007Y222759D01*
X699007Y228753D01*
X706001Y228753D01*
X706001Y224965D01*
X705828Y224319D01*
X705493Y223740D01*
X705020Y223267D01*
X704441Y222932D01*
X703795Y222759D01*
X699007Y222759D01*
G37*
%LPD*%
%LPC*%
G36*
X662725Y222759D02*
X662725Y222759D01*
X662079Y222932D01*
X661500Y223267D01*
X661027Y223740D01*
X660692Y224319D01*
X660519Y224965D01*
X660519Y228753D01*
X667513Y228753D01*
X667513Y222759D01*
X662725Y222759D01*
G37*
%LPD*%
%LPC*%
G36*
X637325Y222759D02*
X637325Y222759D01*
X636679Y222932D01*
X636100Y223267D01*
X635627Y223740D01*
X635292Y224319D01*
X635119Y224965D01*
X635119Y228753D01*
X642113Y228753D01*
X642113Y222759D01*
X637325Y222759D01*
G37*
%LPD*%
%LPC*%
G36*
X688125Y222759D02*
X688125Y222759D01*
X687479Y222932D01*
X686900Y223267D01*
X686427Y223740D01*
X686092Y224319D01*
X685919Y224965D01*
X685919Y228753D01*
X692913Y228753D01*
X692913Y222759D01*
X688125Y222759D01*
G37*
%LPD*%
D10*
X670550Y190500D03*
D11*
X685800Y205250D03*
X685800Y175750D03*
D12*
X476100Y65700D03*
X496100Y65700D03*
X516100Y65700D03*
X536100Y65700D03*
X556100Y65700D03*
X576100Y65700D03*
X596100Y65700D03*
X616100Y65700D03*
X616100Y213700D03*
X596100Y213700D03*
X576100Y213700D03*
X556100Y213700D03*
X536100Y213700D03*
X516100Y213700D03*
X496100Y213700D03*
X476100Y213700D03*
D13*
X584200Y32004D02*
X584200Y18796D01*
X558800Y18796D02*
X558800Y32004D01*
X533400Y32004D02*
X533400Y18796D01*
X508000Y18796D02*
X508000Y32004D01*
X482600Y32004D02*
X482600Y18796D01*
X584200Y272796D02*
X584200Y286004D01*
X558800Y286004D02*
X558800Y272796D01*
X533400Y272796D02*
X533400Y286004D01*
X508000Y286004D02*
X508000Y272796D01*
X482600Y272796D02*
X482600Y286004D01*
D14*
X695960Y250800D03*
X695960Y231800D03*
X645160Y250800D03*
X645160Y231800D03*
X670560Y250800D03*
X670560Y231800D03*
D15*
X596900Y214500D02*
X596100Y213700D01*
X616100Y65700D02*
X618300Y63500D01*
X476100Y65700D02*
X463400Y65700D01*
X457200Y59500D01*
X457200Y12700D01*
X469900Y0D01*
X609600Y0D01*
X616100Y6500D02*
X616100Y63500D01*
X616100Y65700D01*
X616100Y6500D02*
X609600Y0D01*
X670560Y231800D02*
X695960Y231800D01*
X596100Y215100D02*
X596100Y213700D01*
X596100Y229400D01*
X584200Y241300D01*
X584200Y279400D01*
X641960Y228600D02*
X645160Y231800D01*
X596900Y228600D02*
X596100Y229400D01*
X596900Y228600D02*
X641960Y228600D01*
X645160Y231800D02*
X670560Y231800D01*
X685800Y221640D02*
X685800Y205250D01*
X685800Y221640D02*
X695960Y231800D01*
X685800Y175750D02*
X685800Y88900D01*
X660400Y63500D02*
X616100Y63500D01*
X660400Y63500D02*
X685800Y88900D01*
X516100Y65700D02*
X516100Y58900D01*
X508000Y50800D01*
X508000Y25400D01*
X576100Y46200D02*
X576100Y65700D01*
X576100Y46200D02*
X584200Y38100D01*
X584200Y25400D01*
X476100Y213700D02*
X476100Y247500D01*
X482600Y254000D01*
X482600Y279400D01*
X508000Y279400D02*
X508000Y254000D01*
X495300Y241300D01*
X495300Y214500D01*
X496100Y213700D01*
X536100Y65700D02*
X536100Y53500D01*
X533400Y50800D01*
X533400Y25400D01*
X558800Y63000D02*
X556100Y65700D01*
X558800Y63000D02*
X558800Y25400D01*
X482600Y25400D02*
X482600Y38100D01*
X496100Y51600D02*
X496100Y65700D01*
X496100Y51600D02*
X482600Y38100D01*
X536100Y213700D02*
X536100Y231300D01*
X558800Y254000D01*
X558800Y279400D01*
X670560Y250800D02*
X695960Y250800D01*
X563946Y279400D02*
X558800Y279400D01*
X563946Y279400D02*
X580202Y295656D01*
X600304Y295656D02*
X644830Y251130D01*
X600304Y295656D02*
X580202Y295656D01*
X645160Y250800D02*
X670560Y250800D01*
X645160Y250800D02*
X644830Y251130D01*
X533400Y254000D02*
X533400Y279400D01*
X516100Y236700D02*
X516100Y213700D01*
X516100Y236700D02*
X533400Y254000D01*
X639300Y190500D02*
X670550Y190500D01*
X639300Y190500D02*
X616100Y213700D01*
M02*
