M48
;GenerationSoftware,Autodesk,EAGLE,9.5.1*%
;CreationDate,2019-10-11T10:37:28Z*%
FMAT,2
ICI,OFF
METRIC,TZ,000.000
T2C1.016
T1C3.000
%
G90
M71
T1
X53340Y53340
X12700Y53340
X12700Y-2540
X53340Y-2540
T2
X45720Y44450
X48260Y44450
X50800Y44450
X53340Y44450
X22860Y12700
X20320Y12700
X17780Y12700
X15240Y12700
X39370Y41910
X39370Y39370
X39370Y36830
X39370Y34290
X16510Y1270
X13970Y1270
X43180Y2540
X45720Y2540
X48260Y2540
X50800Y2540
X53340Y2540
X43180Y27940
X45720Y27940
X48260Y27940
X50800Y27940
X53340Y27940
X35560Y39370
X35560Y41910
X31471Y46431
X26949Y46431
X31471Y39929
X26949Y39929
X22860Y40640
X20320Y40640
X22860Y43180
X20320Y43180
X22860Y45720
X20320Y45720
X22860Y48260
X20320Y48260
X22860Y50800
X20320Y50800
M30