M48
;GenerationSoftware,Autodesk,EAGLE,9.5.1*%
;CreationDate,2019-10-07T09:02:32Z*%
FMAT,2
ICI,OFF
METRIC,TZ,000.000
T1C1.016
%
G90
M71
T1
X73660Y64770
X71120Y64770
X73660Y67310
X71120Y67310
X73660Y69850
X71120Y69850
X73660Y72390
X71120Y72390
X73660Y74930
X71120Y74930
X59690Y55880
X62230Y55880
X92710Y69850
X92710Y72390
X78740Y44450
X76200Y44450
X73660Y44450
X71120Y44450
X91440Y63500
X91440Y60960
X91440Y58420
X91440Y55880
X96520Y63500
X96520Y60960
X96520Y58420
X96520Y55880
X92710Y52070
X95250Y52070
X92710Y49530
X95250Y49530
X92710Y46990
X95250Y46990
X92710Y44450
X95250Y44450
X92710Y41910
X95250Y41910
X83261Y77749
X83261Y82271
X76759Y77749
X76759Y82271
M30