G04 EAGLE Gerber RS-274X export*
G75*
%MOMM*%
%FSLAX34Y34*%
%LPD*%
%INBottom Copper*%
%IPPOS*%
%AMOC8*
5,1,8,0,0,1.08239X$1,22.5*%
G01*
%ADD10P,1.649562X8X112.500000*%
%ADD11C,1.524000*%
%ADD12P,1.649562X8X292.500000*%


D10*
X736600Y647700D03*
X711200Y647700D03*
X736600Y673100D03*
X711200Y673100D03*
X736600Y698500D03*
X711200Y698500D03*
X736600Y723900D03*
X711200Y723900D03*
X736600Y749300D03*
X711200Y749300D03*
D11*
X596900Y566420D02*
X596900Y551180D01*
X622300Y551180D02*
X622300Y566420D01*
X919480Y698500D02*
X934720Y698500D01*
X934720Y723900D02*
X919480Y723900D01*
X787400Y452120D02*
X787400Y436880D01*
X762000Y436880D02*
X762000Y452120D01*
X736600Y452120D02*
X736600Y436880D01*
X711200Y436880D02*
X711200Y452120D01*
X906780Y635000D02*
X922020Y635000D01*
X922020Y609600D02*
X906780Y609600D01*
X906780Y584200D02*
X922020Y584200D01*
X922020Y558800D02*
X906780Y558800D01*
X957580Y635000D02*
X972820Y635000D01*
X972820Y609600D02*
X957580Y609600D01*
X957580Y584200D02*
X972820Y584200D01*
X972820Y558800D02*
X957580Y558800D01*
D12*
X927100Y520700D03*
X952500Y520700D03*
X927100Y495300D03*
X952500Y495300D03*
X927100Y469900D03*
X952500Y469900D03*
X927100Y444500D03*
X952500Y444500D03*
X927100Y419100D03*
X952500Y419100D03*
D11*
X840232Y777494D02*
X824992Y777494D01*
X824992Y822706D02*
X840232Y822706D01*
X775208Y777494D02*
X759968Y777494D01*
X759968Y822706D02*
X775208Y822706D01*
M02*
