G04 EAGLE Gerber RS-274X export*
G75*
%MOMM*%
%FSLAX34Y34*%
%LPD*%
%INTop Copper*%
%IPPOS*%
%AMOC8*
5,1,8,0,0,1.08239X$1,22.5*%
G01*
%ADD10R,1.500000X1.300000*%
%ADD11R,1.300000X1.500000*%
%ADD12R,1.200000X0.550000*%
%ADD13R,1.475000X0.300000*%
%ADD14R,0.300000X1.475000*%
%ADD15P,1.649562X8X112.500000*%
%ADD16C,1.524000*%
%ADD17P,1.649562X8X292.500000*%
%ADD18R,1.900000X1.100000*%
%ADD19C,0.304800*%

G36*
X1016026Y379480D02*
X1016026Y379480D01*
X1016052Y379478D01*
X1016199Y379500D01*
X1016346Y379517D01*
X1016371Y379525D01*
X1016397Y379529D01*
X1016535Y379584D01*
X1016674Y379634D01*
X1016696Y379648D01*
X1016721Y379658D01*
X1016842Y379743D01*
X1016967Y379823D01*
X1016985Y379842D01*
X1017007Y379857D01*
X1017106Y379967D01*
X1017209Y380074D01*
X1017223Y380096D01*
X1017240Y380116D01*
X1017312Y380246D01*
X1017388Y380373D01*
X1017396Y380398D01*
X1017409Y380421D01*
X1017449Y380564D01*
X1017494Y380705D01*
X1017496Y380731D01*
X1017504Y380756D01*
X1017523Y381000D01*
X1017523Y863600D01*
X1017520Y863626D01*
X1017522Y863652D01*
X1017500Y863799D01*
X1017483Y863946D01*
X1017475Y863971D01*
X1017471Y863997D01*
X1017416Y864135D01*
X1017366Y864274D01*
X1017352Y864296D01*
X1017342Y864321D01*
X1017257Y864442D01*
X1017177Y864567D01*
X1017158Y864585D01*
X1017143Y864607D01*
X1017033Y864706D01*
X1016926Y864809D01*
X1016904Y864823D01*
X1016884Y864840D01*
X1016754Y864912D01*
X1016627Y864988D01*
X1016602Y864996D01*
X1016579Y865009D01*
X1016436Y865049D01*
X1016295Y865094D01*
X1016269Y865096D01*
X1016244Y865104D01*
X1016000Y865123D01*
X571500Y865123D01*
X571474Y865120D01*
X571448Y865122D01*
X571301Y865100D01*
X571154Y865083D01*
X571129Y865075D01*
X571103Y865071D01*
X570965Y865016D01*
X570826Y864966D01*
X570804Y864952D01*
X570779Y864942D01*
X570658Y864857D01*
X570533Y864777D01*
X570515Y864758D01*
X570493Y864743D01*
X570394Y864633D01*
X570291Y864526D01*
X570277Y864504D01*
X570260Y864484D01*
X570188Y864354D01*
X570112Y864227D01*
X570104Y864202D01*
X570091Y864179D01*
X570051Y864036D01*
X570006Y863895D01*
X570004Y863869D01*
X569996Y863844D01*
X569977Y863600D01*
X569977Y381000D01*
X569980Y380974D01*
X569978Y380948D01*
X570000Y380801D01*
X570017Y380654D01*
X570025Y380629D01*
X570029Y380603D01*
X570084Y380465D01*
X570134Y380326D01*
X570148Y380304D01*
X570158Y380279D01*
X570243Y380158D01*
X570323Y380033D01*
X570342Y380015D01*
X570357Y379993D01*
X570467Y379894D01*
X570574Y379791D01*
X570596Y379777D01*
X570616Y379760D01*
X570746Y379688D01*
X570873Y379612D01*
X570898Y379604D01*
X570921Y379591D01*
X571064Y379551D01*
X571205Y379506D01*
X571231Y379504D01*
X571256Y379496D01*
X571500Y379477D01*
X1016000Y379477D01*
X1016026Y379480D01*
G37*
%LPC*%
G36*
X720605Y405383D02*
X720605Y405383D01*
X708151Y417837D01*
X708151Y427227D01*
X708143Y427303D01*
X708144Y427379D01*
X708123Y427475D01*
X708111Y427573D01*
X708086Y427645D01*
X708069Y427720D01*
X708027Y427808D01*
X707994Y427901D01*
X707952Y427965D01*
X707920Y428034D01*
X707858Y428111D01*
X707805Y428194D01*
X707750Y428247D01*
X707702Y428307D01*
X707625Y428368D01*
X707554Y428436D01*
X707489Y428475D01*
X707429Y428523D01*
X707295Y428591D01*
X707255Y428615D01*
X707237Y428621D01*
X707211Y428634D01*
X706020Y429127D01*
X703448Y431700D01*
X702055Y435061D01*
X702055Y453939D01*
X703448Y457300D01*
X706020Y459873D01*
X707211Y460366D01*
X707278Y460403D01*
X707349Y460431D01*
X707429Y460487D01*
X707516Y460535D01*
X707572Y460587D01*
X707635Y460630D01*
X707701Y460703D01*
X707774Y460769D01*
X707817Y460832D01*
X707868Y460889D01*
X707916Y460975D01*
X707972Y461056D01*
X708000Y461127D01*
X708037Y461194D01*
X708064Y461289D01*
X708100Y461380D01*
X708111Y461456D01*
X708132Y461529D01*
X708144Y461678D01*
X708151Y461725D01*
X708149Y461744D01*
X708151Y461773D01*
X708151Y493406D01*
X708137Y493532D01*
X708130Y493658D01*
X708117Y493704D01*
X708111Y493752D01*
X708069Y493871D01*
X708034Y493993D01*
X708010Y494035D01*
X707994Y494081D01*
X707925Y494187D01*
X707864Y494297D01*
X707824Y494343D01*
X707805Y494373D01*
X707770Y494407D01*
X707705Y494483D01*
X697683Y504505D01*
X697584Y504584D01*
X697490Y504668D01*
X697448Y504692D01*
X697410Y504722D01*
X697296Y504776D01*
X697185Y504837D01*
X697139Y504850D01*
X697095Y504871D01*
X696972Y504897D01*
X696850Y504932D01*
X696789Y504937D01*
X696755Y504944D01*
X696707Y504943D01*
X696606Y504951D01*
X649594Y504951D01*
X649468Y504937D01*
X649342Y504930D01*
X649296Y504917D01*
X649248Y504911D01*
X649129Y504869D01*
X649007Y504834D01*
X648965Y504810D01*
X648919Y504794D01*
X648813Y504725D01*
X648703Y504664D01*
X648657Y504624D01*
X648627Y504605D01*
X648593Y504570D01*
X648517Y504505D01*
X633063Y489051D01*
X631089Y489051D01*
X630964Y489037D01*
X630838Y489030D01*
X630791Y489017D01*
X630743Y489011D01*
X630624Y488969D01*
X630503Y488934D01*
X630461Y488910D01*
X630415Y488894D01*
X630309Y488825D01*
X630199Y488764D01*
X630152Y488724D01*
X630122Y488705D01*
X630089Y488670D01*
X630012Y488605D01*
X629233Y487825D01*
X615969Y487825D01*
X615076Y488718D01*
X615076Y495482D01*
X615969Y496375D01*
X629233Y496375D01*
X629351Y496256D01*
X629429Y496194D01*
X629502Y496124D01*
X629566Y496086D01*
X629624Y496040D01*
X629715Y495997D01*
X629801Y495945D01*
X629872Y495923D01*
X629939Y495891D01*
X630037Y495870D01*
X630133Y495839D01*
X630207Y495833D01*
X630280Y495817D01*
X630380Y495819D01*
X630480Y495811D01*
X630554Y495822D01*
X630628Y495823D01*
X630725Y495848D01*
X630825Y495863D01*
X630894Y495890D01*
X630966Y495908D01*
X631055Y495954D01*
X631149Y495992D01*
X631210Y496034D01*
X631276Y496068D01*
X631353Y496133D01*
X631435Y496190D01*
X631485Y496246D01*
X631541Y496294D01*
X631601Y496375D01*
X631668Y496449D01*
X631704Y496514D01*
X631749Y496574D01*
X631788Y496666D01*
X631837Y496754D01*
X631857Y496826D01*
X631887Y496894D01*
X631904Y496993D01*
X631932Y497090D01*
X631940Y497190D01*
X631948Y497237D01*
X631946Y497273D01*
X631951Y497333D01*
X631951Y505580D01*
X631948Y505606D01*
X631950Y505632D01*
X631928Y505779D01*
X631911Y505926D01*
X631903Y505951D01*
X631899Y505977D01*
X631844Y506115D01*
X631794Y506254D01*
X631780Y506276D01*
X631770Y506301D01*
X631685Y506422D01*
X631605Y506547D01*
X631586Y506565D01*
X631571Y506587D01*
X631461Y506686D01*
X631354Y506789D01*
X631332Y506803D01*
X631312Y506820D01*
X631183Y506892D01*
X631055Y506968D01*
X631030Y506976D01*
X631007Y506989D01*
X630864Y507029D01*
X630723Y507074D01*
X630697Y507076D01*
X630672Y507084D01*
X630428Y507103D01*
X622775Y507103D01*
X618649Y511229D01*
X618550Y511308D01*
X618456Y511392D01*
X618414Y511416D01*
X618376Y511446D01*
X618262Y511500D01*
X618151Y511561D01*
X618104Y511574D01*
X618061Y511595D01*
X617937Y511621D01*
X617815Y511656D01*
X617755Y511661D01*
X617720Y511668D01*
X617672Y511667D01*
X617572Y511675D01*
X605668Y511675D01*
X604775Y512568D01*
X604775Y528832D01*
X605668Y529725D01*
X619932Y529725D01*
X620629Y529027D01*
X620670Y528995D01*
X620704Y528957D01*
X620805Y528887D01*
X620902Y528810D01*
X620949Y528788D01*
X620991Y528759D01*
X621106Y528714D01*
X621218Y528661D01*
X621267Y528651D01*
X621315Y528632D01*
X621437Y528614D01*
X621558Y528588D01*
X621609Y528589D01*
X621660Y528581D01*
X621783Y528592D01*
X621907Y528594D01*
X621956Y528606D01*
X622007Y528611D01*
X622125Y528649D01*
X622245Y528679D01*
X622290Y528702D01*
X622339Y528718D01*
X622445Y528782D01*
X622554Y528839D01*
X622593Y528872D01*
X622637Y528898D01*
X622726Y528984D01*
X622820Y529064D01*
X622850Y529105D01*
X622887Y529141D01*
X623026Y529342D01*
X623267Y529760D01*
X623740Y530233D01*
X624319Y530568D01*
X624965Y530741D01*
X628753Y530741D01*
X628753Y522224D01*
X628756Y522198D01*
X628754Y522172D01*
X628776Y522025D01*
X628793Y521878D01*
X628801Y521853D01*
X628805Y521827D01*
X628860Y521689D01*
X628910Y521550D01*
X628924Y521528D01*
X628934Y521503D01*
X629019Y521382D01*
X629099Y521257D01*
X629118Y521239D01*
X629133Y521217D01*
X629243Y521118D01*
X629350Y521015D01*
X629372Y521001D01*
X629392Y520984D01*
X629522Y520912D01*
X629649Y520836D01*
X629674Y520828D01*
X629697Y520815D01*
X629840Y520775D01*
X629981Y520730D01*
X630007Y520728D01*
X630032Y520720D01*
X630276Y520701D01*
X631801Y520701D01*
X631801Y519176D01*
X631804Y519150D01*
X631802Y519124D01*
X631824Y518977D01*
X631841Y518830D01*
X631850Y518805D01*
X631853Y518779D01*
X631908Y518641D01*
X631958Y518502D01*
X631972Y518480D01*
X631982Y518455D01*
X632067Y518334D01*
X632147Y518209D01*
X632166Y518191D01*
X632181Y518169D01*
X632291Y518070D01*
X632398Y517967D01*
X632420Y517953D01*
X632440Y517936D01*
X632570Y517864D01*
X632697Y517788D01*
X632722Y517780D01*
X632745Y517767D01*
X632888Y517727D01*
X633029Y517682D01*
X633055Y517680D01*
X633080Y517672D01*
X633324Y517653D01*
X640841Y517653D01*
X640841Y512865D01*
X640668Y512219D01*
X640333Y511640D01*
X639860Y511167D01*
X639281Y510832D01*
X639178Y510805D01*
X639177Y510804D01*
X639175Y510804D01*
X639019Y510742D01*
X638854Y510677D01*
X638852Y510676D01*
X638851Y510675D01*
X638713Y510580D01*
X638567Y510478D01*
X638566Y510477D01*
X638565Y510476D01*
X638451Y510350D01*
X638333Y510220D01*
X638333Y510219D01*
X638332Y510218D01*
X638242Y510056D01*
X638164Y509915D01*
X638164Y509914D01*
X638163Y509913D01*
X638113Y509737D01*
X638069Y509580D01*
X638069Y509579D01*
X638068Y509577D01*
X638049Y509333D01*
X638049Y506338D01*
X638060Y506238D01*
X638062Y506138D01*
X638080Y506065D01*
X638089Y505992D01*
X638122Y505897D01*
X638147Y505800D01*
X638181Y505733D01*
X638206Y505663D01*
X638261Y505579D01*
X638307Y505490D01*
X638355Y505433D01*
X638395Y505371D01*
X638467Y505301D01*
X638532Y505224D01*
X638592Y505180D01*
X638646Y505128D01*
X638732Y505077D01*
X638813Y505017D01*
X638881Y504988D01*
X638945Y504950D01*
X639041Y504919D01*
X639133Y504879D01*
X639206Y504866D01*
X639277Y504843D01*
X639377Y504835D01*
X639476Y504818D01*
X639550Y504821D01*
X639624Y504815D01*
X639724Y504830D01*
X639824Y504835D01*
X639895Y504856D01*
X639969Y504867D01*
X640062Y504904D01*
X640159Y504932D01*
X640224Y504968D01*
X640293Y504996D01*
X640375Y505053D01*
X640463Y505102D01*
X640539Y505167D01*
X640579Y505195D01*
X640603Y505221D01*
X640649Y505261D01*
X646437Y511049D01*
X699763Y511049D01*
X701995Y508817D01*
X705551Y505261D01*
X705629Y505198D01*
X705702Y505128D01*
X705766Y505090D01*
X705824Y505044D01*
X705915Y505001D01*
X706001Y504950D01*
X706072Y504927D01*
X706139Y504895D01*
X706237Y504874D01*
X706333Y504843D01*
X706407Y504837D01*
X706480Y504822D01*
X706580Y504823D01*
X706680Y504815D01*
X706754Y504826D01*
X706828Y504828D01*
X706925Y504852D01*
X707025Y504867D01*
X707094Y504895D01*
X707166Y504913D01*
X707256Y504959D01*
X707349Y504996D01*
X707410Y505038D01*
X707476Y505072D01*
X707553Y505138D01*
X707635Y505195D01*
X707685Y505250D01*
X707741Y505298D01*
X707801Y505379D01*
X707868Y505454D01*
X707904Y505519D01*
X707949Y505578D01*
X707988Y505671D01*
X708037Y505759D01*
X708057Y505830D01*
X708087Y505898D01*
X708104Y505997D01*
X708132Y506094D01*
X708140Y506194D01*
X708148Y506241D01*
X708146Y506277D01*
X708151Y506338D01*
X708151Y521963D01*
X722863Y536675D01*
X722926Y536753D01*
X722996Y536826D01*
X723034Y536890D01*
X723080Y536948D01*
X723123Y537039D01*
X723174Y537125D01*
X723197Y537196D01*
X723229Y537263D01*
X723250Y537361D01*
X723281Y537457D01*
X723287Y537531D01*
X723302Y537604D01*
X723301Y537704D01*
X723309Y537804D01*
X723298Y537878D01*
X723296Y537952D01*
X723272Y538049D01*
X723257Y538149D01*
X723229Y538218D01*
X723211Y538290D01*
X723165Y538380D01*
X723128Y538473D01*
X723086Y538534D01*
X723052Y538600D01*
X722986Y538677D01*
X722929Y538759D01*
X722874Y538809D01*
X722826Y538865D01*
X722745Y538925D01*
X722670Y538992D01*
X722605Y539028D01*
X722546Y539073D01*
X722453Y539112D01*
X722365Y539161D01*
X722294Y539181D01*
X722226Y539211D01*
X722127Y539228D01*
X722030Y539256D01*
X721930Y539264D01*
X721883Y539272D01*
X721847Y539270D01*
X721786Y539275D01*
X713768Y539275D01*
X712875Y540168D01*
X712875Y541728D01*
X712872Y541754D01*
X712874Y541780D01*
X712852Y541927D01*
X712835Y542074D01*
X712827Y542099D01*
X712823Y542125D01*
X712768Y542263D01*
X712718Y542402D01*
X712704Y542424D01*
X712694Y542449D01*
X712609Y542570D01*
X712529Y542695D01*
X712510Y542713D01*
X712495Y542735D01*
X712385Y542834D01*
X712278Y542937D01*
X712256Y542951D01*
X712236Y542968D01*
X712106Y543040D01*
X711979Y543116D01*
X711954Y543124D01*
X711931Y543137D01*
X711788Y543177D01*
X711647Y543222D01*
X711621Y543224D01*
X711596Y543232D01*
X711352Y543251D01*
X698888Y543251D01*
X698862Y543248D01*
X698836Y543250D01*
X698689Y543228D01*
X698542Y543211D01*
X698517Y543203D01*
X698491Y543199D01*
X698353Y543144D01*
X698214Y543094D01*
X698192Y543080D01*
X698167Y543070D01*
X698046Y542985D01*
X697921Y542905D01*
X697903Y542886D01*
X697881Y542871D01*
X697782Y542761D01*
X697679Y542654D01*
X697665Y542632D01*
X697648Y542612D01*
X697576Y542482D01*
X697500Y542355D01*
X697492Y542330D01*
X697479Y542307D01*
X697450Y542204D01*
X696667Y541421D01*
X696635Y541380D01*
X696597Y541346D01*
X696527Y541245D01*
X696450Y541148D01*
X696428Y541101D01*
X696399Y541059D01*
X696354Y540944D01*
X696301Y540832D01*
X696291Y540783D01*
X696272Y540735D01*
X696254Y540613D01*
X696228Y540492D01*
X696229Y540441D01*
X696221Y540390D01*
X696232Y540267D01*
X696234Y540143D01*
X696246Y540094D01*
X696251Y540043D01*
X696289Y539925D01*
X696319Y539805D01*
X696342Y539760D01*
X696358Y539711D01*
X696422Y539605D01*
X696479Y539496D01*
X696512Y539457D01*
X696538Y539413D01*
X696624Y539324D01*
X696704Y539230D01*
X696745Y539200D01*
X696781Y539163D01*
X696982Y539024D01*
X697400Y538783D01*
X697873Y538310D01*
X698208Y537731D01*
X698381Y537085D01*
X698381Y533297D01*
X689864Y533297D01*
X689838Y533294D01*
X689812Y533296D01*
X689665Y533274D01*
X689518Y533257D01*
X689493Y533248D01*
X689467Y533245D01*
X689329Y533190D01*
X689190Y533140D01*
X689168Y533126D01*
X689143Y533116D01*
X689022Y533031D01*
X688897Y532951D01*
X688879Y532932D01*
X688857Y532917D01*
X688758Y532807D01*
X688655Y532700D01*
X688641Y532678D01*
X688624Y532658D01*
X688552Y532528D01*
X688476Y532401D01*
X688468Y532376D01*
X688455Y532353D01*
X688415Y532210D01*
X688370Y532069D01*
X688368Y532043D01*
X688360Y532018D01*
X688341Y531774D01*
X688341Y530249D01*
X688339Y530249D01*
X688339Y531774D01*
X688336Y531800D01*
X688338Y531826D01*
X688316Y531973D01*
X688299Y532120D01*
X688290Y532145D01*
X688287Y532171D01*
X688232Y532309D01*
X688182Y532448D01*
X688168Y532470D01*
X688158Y532495D01*
X688073Y532616D01*
X687993Y532741D01*
X687974Y532759D01*
X687959Y532781D01*
X687849Y532880D01*
X687742Y532983D01*
X687720Y532997D01*
X687700Y533014D01*
X687570Y533086D01*
X687443Y533162D01*
X687418Y533170D01*
X687395Y533183D01*
X687252Y533223D01*
X687111Y533268D01*
X687085Y533270D01*
X687060Y533278D01*
X686816Y533297D01*
X678299Y533297D01*
X678299Y537085D01*
X678472Y537731D01*
X678807Y538310D01*
X679280Y538783D01*
X679698Y539024D01*
X679739Y539055D01*
X679784Y539078D01*
X679878Y539158D01*
X679978Y539232D01*
X680011Y539271D01*
X680049Y539304D01*
X680123Y539403D01*
X680203Y539498D01*
X680226Y539543D01*
X680257Y539584D01*
X680306Y539698D01*
X680362Y539808D01*
X680374Y539857D01*
X680395Y539904D01*
X680416Y540026D01*
X680446Y540146D01*
X680447Y540197D01*
X680456Y540247D01*
X680450Y540371D01*
X680452Y540494D01*
X680441Y540544D01*
X680438Y540595D01*
X680404Y540714D01*
X680378Y540835D01*
X680356Y540881D01*
X680342Y540930D01*
X680281Y541038D01*
X680228Y541150D01*
X680197Y541190D01*
X680172Y541234D01*
X680013Y541421D01*
X679315Y542118D01*
X679315Y556382D01*
X680208Y557275D01*
X696472Y557275D01*
X697365Y556382D01*
X697365Y550872D01*
X697368Y550846D01*
X697366Y550820D01*
X697388Y550673D01*
X697405Y550526D01*
X697413Y550501D01*
X697417Y550475D01*
X697472Y550337D01*
X697522Y550198D01*
X697536Y550176D01*
X697546Y550151D01*
X697631Y550030D01*
X697711Y549905D01*
X697730Y549887D01*
X697745Y549865D01*
X697855Y549766D01*
X697962Y549663D01*
X697984Y549649D01*
X698004Y549632D01*
X698134Y549560D01*
X698261Y549484D01*
X698286Y549476D01*
X698309Y549463D01*
X698452Y549423D01*
X698593Y549378D01*
X698619Y549376D01*
X698644Y549368D01*
X698888Y549349D01*
X711352Y549349D01*
X711378Y549352D01*
X711404Y549350D01*
X711551Y549372D01*
X711698Y549389D01*
X711723Y549397D01*
X711749Y549401D01*
X711887Y549456D01*
X712026Y549506D01*
X712048Y549520D01*
X712073Y549530D01*
X712194Y549615D01*
X712319Y549695D01*
X712337Y549714D01*
X712359Y549729D01*
X712458Y549839D01*
X712561Y549946D01*
X712575Y549968D01*
X712592Y549988D01*
X712664Y550118D01*
X712740Y550245D01*
X712748Y550270D01*
X712761Y550293D01*
X712801Y550436D01*
X712846Y550577D01*
X712848Y550603D01*
X712856Y550628D01*
X712875Y550872D01*
X712875Y552432D01*
X713768Y553325D01*
X734032Y553325D01*
X734925Y552432D01*
X734925Y552414D01*
X734936Y552314D01*
X734938Y552214D01*
X734956Y552141D01*
X734965Y552068D01*
X734998Y551973D01*
X735023Y551876D01*
X735057Y551809D01*
X735082Y551739D01*
X735137Y551655D01*
X735183Y551566D01*
X735231Y551509D01*
X735271Y551447D01*
X735343Y551377D01*
X735408Y551300D01*
X735468Y551256D01*
X735522Y551204D01*
X735608Y551153D01*
X735689Y551093D01*
X735757Y551064D01*
X735821Y551026D01*
X735917Y550995D01*
X736009Y550955D01*
X736082Y550942D01*
X736153Y550919D01*
X736253Y550911D01*
X736352Y550894D01*
X736426Y550897D01*
X736500Y550891D01*
X736600Y550906D01*
X736700Y550911D01*
X736771Y550932D01*
X736845Y550943D01*
X736938Y550980D01*
X737035Y551008D01*
X737100Y551044D01*
X737169Y551072D01*
X737251Y551129D01*
X737339Y551178D01*
X737415Y551243D01*
X737455Y551271D01*
X737479Y551297D01*
X737525Y551337D01*
X743911Y557723D01*
X743928Y557743D01*
X743948Y557760D01*
X744036Y557880D01*
X744128Y557996D01*
X744139Y558020D01*
X744155Y558041D01*
X744214Y558177D01*
X744277Y558311D01*
X744282Y558337D01*
X744293Y558361D01*
X744319Y558507D01*
X744350Y558652D01*
X744350Y558678D01*
X744354Y558704D01*
X744347Y558852D01*
X744344Y559000D01*
X744338Y559026D01*
X744337Y559052D01*
X744295Y559194D01*
X744259Y559338D01*
X744247Y559362D01*
X744240Y559387D01*
X744168Y559516D01*
X744100Y559648D01*
X744083Y559668D01*
X744070Y559691D01*
X743911Y559877D01*
X737525Y566263D01*
X737447Y566326D01*
X737374Y566396D01*
X737310Y566434D01*
X737252Y566480D01*
X737161Y566523D01*
X737075Y566574D01*
X737004Y566597D01*
X736937Y566629D01*
X736839Y566650D01*
X736743Y566681D01*
X736669Y566687D01*
X736596Y566702D01*
X736496Y566701D01*
X736396Y566709D01*
X736322Y566698D01*
X736248Y566696D01*
X736151Y566672D01*
X736051Y566657D01*
X735982Y566629D01*
X735910Y566611D01*
X735820Y566565D01*
X735727Y566528D01*
X735666Y566486D01*
X735600Y566452D01*
X735523Y566386D01*
X735441Y566329D01*
X735391Y566274D01*
X735335Y566226D01*
X735275Y566145D01*
X735208Y566070D01*
X735172Y566005D01*
X735127Y565946D01*
X735088Y565853D01*
X735039Y565765D01*
X735019Y565694D01*
X734989Y565626D01*
X734972Y565527D01*
X734944Y565430D01*
X734936Y565330D01*
X734928Y565283D01*
X734930Y565247D01*
X734925Y565186D01*
X734925Y565168D01*
X734032Y564275D01*
X713768Y564275D01*
X712875Y565168D01*
X712875Y566928D01*
X712872Y566954D01*
X712874Y566980D01*
X712852Y567127D01*
X712835Y567274D01*
X712827Y567299D01*
X712823Y567325D01*
X712768Y567463D01*
X712718Y567602D01*
X712704Y567624D01*
X712694Y567649D01*
X712609Y567770D01*
X712529Y567895D01*
X712510Y567913D01*
X712495Y567935D01*
X712385Y568034D01*
X712278Y568137D01*
X712256Y568151D01*
X712236Y568168D01*
X712106Y568240D01*
X711979Y568316D01*
X711954Y568324D01*
X711931Y568337D01*
X711788Y568377D01*
X711647Y568422D01*
X711621Y568424D01*
X711596Y568432D01*
X711352Y568451D01*
X670948Y568451D01*
X670922Y568448D01*
X670896Y568450D01*
X670749Y568428D01*
X670602Y568411D01*
X670577Y568403D01*
X670551Y568399D01*
X670413Y568344D01*
X670274Y568294D01*
X670252Y568280D01*
X670227Y568270D01*
X670106Y568185D01*
X669981Y568105D01*
X669963Y568086D01*
X669941Y568071D01*
X669842Y567961D01*
X669739Y567854D01*
X669725Y567832D01*
X669708Y567812D01*
X669636Y567682D01*
X669560Y567555D01*
X669552Y567530D01*
X669539Y567507D01*
X669499Y567364D01*
X669454Y567223D01*
X669452Y567197D01*
X669444Y567172D01*
X669425Y566928D01*
X669425Y561168D01*
X668727Y560471D01*
X668695Y560430D01*
X668657Y560396D01*
X668587Y560295D01*
X668510Y560198D01*
X668488Y560151D01*
X668459Y560109D01*
X668414Y559994D01*
X668361Y559882D01*
X668351Y559833D01*
X668332Y559785D01*
X668314Y559663D01*
X668288Y559542D01*
X668289Y559491D01*
X668281Y559440D01*
X668292Y559317D01*
X668294Y559193D01*
X668306Y559144D01*
X668311Y559093D01*
X668349Y558975D01*
X668379Y558855D01*
X668402Y558810D01*
X668418Y558761D01*
X668482Y558655D01*
X668539Y558546D01*
X668572Y558507D01*
X668598Y558463D01*
X668684Y558374D01*
X668764Y558280D01*
X668805Y558250D01*
X668841Y558213D01*
X669042Y558074D01*
X669460Y557833D01*
X669933Y557360D01*
X670268Y556781D01*
X670441Y556135D01*
X670441Y552347D01*
X661924Y552347D01*
X661898Y552344D01*
X661872Y552346D01*
X661725Y552324D01*
X661578Y552307D01*
X661553Y552298D01*
X661527Y552295D01*
X661389Y552240D01*
X661250Y552190D01*
X661228Y552176D01*
X661203Y552166D01*
X661082Y552081D01*
X660957Y552001D01*
X660939Y551982D01*
X660917Y551967D01*
X660818Y551857D01*
X660715Y551750D01*
X660701Y551728D01*
X660684Y551708D01*
X660612Y551578D01*
X660536Y551451D01*
X660528Y551426D01*
X660515Y551403D01*
X660475Y551260D01*
X660430Y551119D01*
X660428Y551093D01*
X660420Y551068D01*
X660401Y550824D01*
X660401Y549299D01*
X660399Y549299D01*
X660399Y550824D01*
X660396Y550850D01*
X660398Y550876D01*
X660376Y551023D01*
X660359Y551170D01*
X660350Y551195D01*
X660347Y551221D01*
X660292Y551359D01*
X660242Y551498D01*
X660228Y551520D01*
X660218Y551545D01*
X660133Y551666D01*
X660053Y551791D01*
X660034Y551809D01*
X660019Y551831D01*
X659909Y551930D01*
X659802Y552033D01*
X659780Y552047D01*
X659760Y552064D01*
X659630Y552136D01*
X659503Y552212D01*
X659478Y552220D01*
X659455Y552233D01*
X659312Y552273D01*
X659171Y552318D01*
X659145Y552320D01*
X659120Y552328D01*
X658876Y552347D01*
X650359Y552347D01*
X650359Y556135D01*
X650532Y556781D01*
X650867Y557360D01*
X651340Y557833D01*
X651758Y558074D01*
X651799Y558105D01*
X651844Y558128D01*
X651938Y558208D01*
X652038Y558282D01*
X652071Y558321D01*
X652109Y558354D01*
X652183Y558453D01*
X652263Y558548D01*
X652286Y558593D01*
X652317Y558634D01*
X652366Y558748D01*
X652422Y558858D01*
X652434Y558907D01*
X652455Y558954D01*
X652476Y559076D01*
X652506Y559196D01*
X652507Y559247D01*
X652516Y559297D01*
X652510Y559421D01*
X652512Y559544D01*
X652501Y559594D01*
X652498Y559645D01*
X652464Y559764D01*
X652438Y559885D01*
X652416Y559931D01*
X652402Y559980D01*
X652341Y560088D01*
X652288Y560200D01*
X652257Y560240D01*
X652232Y560284D01*
X652073Y560471D01*
X651375Y561168D01*
X651375Y575432D01*
X652268Y576325D01*
X668532Y576325D01*
X669861Y574995D01*
X669961Y574916D01*
X670054Y574832D01*
X670097Y574808D01*
X670134Y574778D01*
X670249Y574724D01*
X670359Y574663D01*
X670406Y574650D01*
X670449Y574629D01*
X670573Y574603D01*
X670695Y574568D01*
X670755Y574563D01*
X670790Y574556D01*
X670838Y574557D01*
X670938Y574549D01*
X711352Y574549D01*
X711378Y574552D01*
X711404Y574550D01*
X711551Y574572D01*
X711698Y574589D01*
X711723Y574597D01*
X711749Y574601D01*
X711887Y574656D01*
X712026Y574706D01*
X712048Y574720D01*
X712073Y574730D01*
X712194Y574815D01*
X712319Y574895D01*
X712337Y574914D01*
X712359Y574929D01*
X712458Y575039D01*
X712561Y575146D01*
X712575Y575168D01*
X712592Y575188D01*
X712664Y575318D01*
X712740Y575445D01*
X712748Y575470D01*
X712761Y575493D01*
X712801Y575636D01*
X712846Y575777D01*
X712848Y575803D01*
X712856Y575828D01*
X712875Y576072D01*
X712875Y577432D01*
X713768Y578325D01*
X734032Y578325D01*
X734925Y577432D01*
X734925Y576072D01*
X734928Y576046D01*
X734926Y576020D01*
X734948Y575873D01*
X734965Y575726D01*
X734973Y575701D01*
X734977Y575675D01*
X735032Y575537D01*
X735082Y575398D01*
X735096Y575376D01*
X735106Y575351D01*
X735191Y575230D01*
X735271Y575105D01*
X735290Y575087D01*
X735305Y575065D01*
X735415Y574966D01*
X735522Y574863D01*
X735544Y574849D01*
X735564Y574832D01*
X735694Y574760D01*
X735821Y574684D01*
X735846Y574676D01*
X735869Y574663D01*
X736012Y574623D01*
X736153Y574578D01*
X736179Y574576D01*
X736204Y574568D01*
X736448Y574549D01*
X737863Y574549D01*
X748017Y564395D01*
X748116Y564316D01*
X748210Y564232D01*
X748252Y564208D01*
X748290Y564178D01*
X748404Y564124D01*
X748515Y564063D01*
X748561Y564050D01*
X748605Y564029D01*
X748728Y564003D01*
X748850Y563968D01*
X748911Y563963D01*
X748946Y563956D01*
X748994Y563957D01*
X749094Y563949D01*
X772079Y563949D01*
X772094Y563944D01*
X772155Y563939D01*
X772190Y563932D01*
X772238Y563933D01*
X772338Y563925D01*
X778427Y563925D01*
X779320Y563032D01*
X779320Y545099D01*
X779334Y544974D01*
X779341Y544848D01*
X779354Y544801D01*
X779360Y544753D01*
X779402Y544634D01*
X779437Y544513D01*
X779461Y544471D01*
X779477Y544425D01*
X779546Y544319D01*
X779607Y544209D01*
X779647Y544162D01*
X779666Y544132D01*
X779701Y544099D01*
X779766Y544022D01*
X779828Y543960D01*
X780163Y543381D01*
X780336Y542735D01*
X780336Y542423D01*
X770420Y542423D01*
X760504Y542423D01*
X760504Y542735D01*
X760677Y543381D01*
X761012Y543960D01*
X761074Y544022D01*
X761153Y544121D01*
X761237Y544215D01*
X761261Y544257D01*
X761291Y544295D01*
X761345Y544409D01*
X761406Y544520D01*
X761419Y544567D01*
X761440Y544610D01*
X761466Y544734D01*
X761501Y544856D01*
X761506Y544916D01*
X761513Y544951D01*
X761512Y544999D01*
X761520Y545099D01*
X761520Y551328D01*
X761517Y551354D01*
X761519Y551380D01*
X761497Y551527D01*
X761480Y551674D01*
X761472Y551699D01*
X761468Y551725D01*
X761413Y551863D01*
X761363Y552002D01*
X761349Y552024D01*
X761339Y552049D01*
X761254Y552170D01*
X761174Y552295D01*
X761155Y552313D01*
X761140Y552335D01*
X761030Y552434D01*
X760923Y552537D01*
X760901Y552551D01*
X760881Y552568D01*
X760751Y552640D01*
X760624Y552716D01*
X760599Y552724D01*
X760576Y552737D01*
X760433Y552777D01*
X760292Y552822D01*
X760266Y552824D01*
X760241Y552832D01*
X759997Y552851D01*
X748294Y552851D01*
X748168Y552837D01*
X748042Y552830D01*
X747996Y552817D01*
X747948Y552811D01*
X747829Y552769D01*
X747707Y552734D01*
X747665Y552710D01*
X747619Y552694D01*
X747513Y552625D01*
X747403Y552564D01*
X747357Y552524D01*
X747327Y552505D01*
X747293Y552470D01*
X747217Y552405D01*
X737863Y543051D01*
X736448Y543051D01*
X736422Y543048D01*
X736396Y543050D01*
X736249Y543028D01*
X736102Y543011D01*
X736077Y543003D01*
X736051Y542999D01*
X735913Y542944D01*
X735774Y542894D01*
X735752Y542880D01*
X735727Y542870D01*
X735606Y542785D01*
X735481Y542705D01*
X735463Y542686D01*
X735441Y542671D01*
X735342Y542561D01*
X735239Y542454D01*
X735225Y542432D01*
X735208Y542412D01*
X735136Y542282D01*
X735060Y542155D01*
X735052Y542130D01*
X735039Y542107D01*
X734999Y541964D01*
X734954Y541823D01*
X734952Y541797D01*
X734944Y541772D01*
X734925Y541528D01*
X734925Y540472D01*
X734928Y540446D01*
X734926Y540420D01*
X734948Y540273D01*
X734965Y540126D01*
X734973Y540101D01*
X734977Y540075D01*
X735032Y539937D01*
X735082Y539798D01*
X735096Y539776D01*
X735106Y539751D01*
X735191Y539630D01*
X735271Y539505D01*
X735290Y539487D01*
X735305Y539465D01*
X735415Y539366D01*
X735522Y539263D01*
X735544Y539249D01*
X735564Y539232D01*
X735694Y539160D01*
X735821Y539084D01*
X735846Y539076D01*
X735869Y539063D01*
X736012Y539023D01*
X736153Y538978D01*
X736179Y538976D01*
X736204Y538968D01*
X736448Y538949D01*
X758981Y538949D01*
X759007Y538952D01*
X759033Y538950D01*
X759180Y538972D01*
X759327Y538989D01*
X759352Y538997D01*
X759378Y539001D01*
X759516Y539056D01*
X759655Y539106D01*
X759677Y539120D01*
X759702Y539130D01*
X759823Y539215D01*
X759948Y539295D01*
X759966Y539314D01*
X759988Y539329D01*
X760031Y539377D01*
X770420Y539377D01*
X780814Y539377D01*
X780826Y539366D01*
X780933Y539263D01*
X780955Y539249D01*
X780975Y539232D01*
X781105Y539160D01*
X781232Y539084D01*
X781257Y539076D01*
X781280Y539063D01*
X781423Y539023D01*
X781564Y538978D01*
X781590Y538976D01*
X781615Y538968D01*
X781859Y538949D01*
X789412Y538949D01*
X789537Y538963D01*
X789664Y538970D01*
X789710Y538983D01*
X789758Y538989D01*
X789877Y539031D01*
X789998Y539066D01*
X790041Y539090D01*
X790086Y539106D01*
X790192Y539175D01*
X790303Y539236D01*
X790349Y539276D01*
X790379Y539295D01*
X790412Y539330D01*
X790489Y539395D01*
X801353Y550259D01*
X801432Y550358D01*
X801516Y550452D01*
X801540Y550494D01*
X801570Y550532D01*
X801624Y550646D01*
X801685Y550757D01*
X801698Y550804D01*
X801719Y550847D01*
X801745Y550971D01*
X801780Y551093D01*
X801785Y551153D01*
X801792Y551188D01*
X801791Y551236D01*
X801799Y551336D01*
X801799Y565357D01*
X801798Y565365D01*
X801798Y565367D01*
X801796Y565383D01*
X801798Y565409D01*
X801776Y565556D01*
X801759Y565703D01*
X801751Y565728D01*
X801747Y565754D01*
X801692Y565892D01*
X801642Y566031D01*
X801628Y566053D01*
X801618Y566078D01*
X801533Y566199D01*
X801453Y566324D01*
X801434Y566342D01*
X801419Y566364D01*
X801309Y566463D01*
X801202Y566566D01*
X801180Y566580D01*
X801160Y566597D01*
X801030Y566669D01*
X800903Y566745D01*
X800878Y566753D01*
X800855Y566766D01*
X800712Y566806D01*
X800571Y566851D01*
X800545Y566853D01*
X800520Y566861D01*
X800276Y566880D01*
X783168Y566880D01*
X782275Y567773D01*
X782275Y583787D01*
X783168Y584680D01*
X790728Y584680D01*
X790754Y584683D01*
X790780Y584681D01*
X790927Y584703D01*
X791074Y584720D01*
X791099Y584728D01*
X791125Y584732D01*
X791263Y584787D01*
X791402Y584837D01*
X791424Y584851D01*
X791449Y584861D01*
X791570Y584946D01*
X791695Y585026D01*
X791713Y585045D01*
X791735Y585060D01*
X791834Y585170D01*
X791937Y585277D01*
X791951Y585299D01*
X791968Y585319D01*
X792040Y585449D01*
X792116Y585576D01*
X792124Y585601D01*
X792137Y585624D01*
X792177Y585767D01*
X792222Y585908D01*
X792224Y585934D01*
X792232Y585959D01*
X792251Y586203D01*
X792251Y593340D01*
X792237Y593466D01*
X792230Y593592D01*
X792217Y593639D01*
X792211Y593687D01*
X792169Y593806D01*
X792134Y593927D01*
X792110Y593969D01*
X792094Y594015D01*
X792025Y594121D01*
X791964Y594231D01*
X791924Y594278D01*
X791905Y594308D01*
X791870Y594341D01*
X791805Y594417D01*
X759289Y626933D01*
X759190Y627012D01*
X759097Y627096D01*
X759054Y627120D01*
X759016Y627150D01*
X758902Y627204D01*
X758792Y627265D01*
X758745Y627278D01*
X758701Y627299D01*
X758578Y627325D01*
X758456Y627360D01*
X758395Y627365D01*
X758361Y627372D01*
X758313Y627371D01*
X758212Y627379D01*
X731056Y627379D01*
X718511Y639924D01*
X718491Y639941D01*
X718474Y639961D01*
X718354Y640049D01*
X718238Y640141D01*
X718215Y640152D01*
X718193Y640168D01*
X718057Y640227D01*
X717923Y640290D01*
X717897Y640296D01*
X717873Y640306D01*
X717727Y640332D01*
X717582Y640363D01*
X717556Y640363D01*
X717530Y640368D01*
X717382Y640360D01*
X717234Y640357D01*
X717209Y640351D01*
X717182Y640350D01*
X717040Y640309D01*
X716896Y640272D01*
X716873Y640260D01*
X716847Y640253D01*
X716718Y640181D01*
X716586Y640113D01*
X716566Y640096D01*
X716543Y640083D01*
X716357Y639924D01*
X714988Y638555D01*
X707412Y638555D01*
X702055Y643912D01*
X702055Y651488D01*
X707412Y656845D01*
X714988Y656845D01*
X718251Y653582D01*
X718329Y653519D01*
X718402Y653449D01*
X718466Y653411D01*
X718524Y653365D01*
X718615Y653322D01*
X718701Y653271D01*
X718772Y653248D01*
X718839Y653216D01*
X718937Y653195D01*
X719033Y653164D01*
X719107Y653158D01*
X719180Y653143D01*
X719280Y653144D01*
X719380Y653136D01*
X719454Y653147D01*
X719528Y653149D01*
X719625Y653173D01*
X719725Y653188D01*
X719794Y653216D01*
X719866Y653234D01*
X719956Y653280D01*
X720049Y653317D01*
X720110Y653359D01*
X720176Y653393D01*
X720252Y653458D01*
X720335Y653516D01*
X720385Y653571D01*
X720441Y653619D01*
X720501Y653700D01*
X720568Y653775D01*
X720604Y653840D01*
X720649Y653899D01*
X720688Y653992D01*
X720737Y654080D01*
X720757Y654151D01*
X720787Y654219D01*
X720804Y654318D01*
X720832Y654415D01*
X720840Y654515D01*
X720848Y654563D01*
X720846Y654598D01*
X720851Y654659D01*
X720851Y658506D01*
X720837Y658632D01*
X720830Y658758D01*
X720817Y658804D01*
X720811Y658852D01*
X720769Y658971D01*
X720734Y659093D01*
X720710Y659135D01*
X720694Y659181D01*
X720625Y659287D01*
X720564Y659397D01*
X720524Y659443D01*
X720505Y659473D01*
X720470Y659507D01*
X720405Y659583D01*
X716479Y663509D01*
X716380Y663588D01*
X716286Y663672D01*
X716244Y663696D01*
X716206Y663726D01*
X716092Y663780D01*
X715981Y663841D01*
X715935Y663854D01*
X715891Y663875D01*
X715768Y663901D01*
X715646Y663936D01*
X715585Y663941D01*
X715551Y663948D01*
X715503Y663947D01*
X715402Y663955D01*
X707412Y663955D01*
X702055Y669312D01*
X702055Y676888D01*
X707412Y682245D01*
X714988Y682245D01*
X720345Y676888D01*
X720345Y668898D01*
X720350Y668852D01*
X720349Y668842D01*
X720358Y668785D01*
X720359Y668772D01*
X720366Y668646D01*
X720379Y668600D01*
X720385Y668552D01*
X720399Y668512D01*
X720401Y668497D01*
X720429Y668427D01*
X720462Y668311D01*
X720486Y668269D01*
X720502Y668223D01*
X720522Y668193D01*
X720530Y668174D01*
X720579Y668103D01*
X720632Y668007D01*
X720672Y667961D01*
X720691Y667931D01*
X720713Y667909D01*
X720729Y667887D01*
X720753Y667866D01*
X720791Y667821D01*
X726949Y661663D01*
X726949Y654659D01*
X726960Y654559D01*
X726962Y654459D01*
X726980Y654386D01*
X726989Y654313D01*
X727022Y654218D01*
X727047Y654121D01*
X727081Y654054D01*
X727106Y653984D01*
X727161Y653900D01*
X727207Y653811D01*
X727255Y653754D01*
X727295Y653692D01*
X727367Y653622D01*
X727432Y653545D01*
X727492Y653501D01*
X727546Y653449D01*
X727632Y653398D01*
X727713Y653338D01*
X727781Y653309D01*
X727845Y653271D01*
X727941Y653240D01*
X728033Y653200D01*
X728106Y653187D01*
X728177Y653164D01*
X728277Y653156D01*
X728376Y653139D01*
X728450Y653142D01*
X728524Y653136D01*
X728624Y653151D01*
X728724Y653156D01*
X728795Y653177D01*
X728869Y653188D01*
X728962Y653225D01*
X729059Y653253D01*
X729124Y653289D01*
X729193Y653317D01*
X729275Y653374D01*
X729363Y653423D01*
X729439Y653488D01*
X729479Y653516D01*
X729503Y653542D01*
X729549Y653582D01*
X732812Y656845D01*
X740388Y656845D01*
X746038Y651195D01*
X746137Y651116D01*
X746231Y651032D01*
X746273Y651008D01*
X746311Y650978D01*
X746425Y650924D01*
X746536Y650863D01*
X746582Y650850D01*
X746626Y650829D01*
X746749Y650803D01*
X746871Y650768D01*
X746932Y650763D01*
X746966Y650756D01*
X747015Y650757D01*
X747115Y650749D01*
X774958Y650749D01*
X775084Y650763D01*
X775210Y650770D01*
X775256Y650783D01*
X775304Y650789D01*
X775423Y650831D01*
X775545Y650866D01*
X775587Y650890D01*
X775633Y650906D01*
X775739Y650975D01*
X775849Y651036D01*
X775895Y651076D01*
X775925Y651095D01*
X775959Y651130D01*
X776035Y651195D01*
X786057Y661217D01*
X786136Y661316D01*
X786220Y661410D01*
X786244Y661452D01*
X786274Y661490D01*
X786328Y661604D01*
X786389Y661715D01*
X786402Y661761D01*
X786423Y661805D01*
X786449Y661928D01*
X786484Y662050D01*
X786489Y662111D01*
X786496Y662146D01*
X786495Y662194D01*
X786503Y662294D01*
X786503Y700652D01*
X786500Y700678D01*
X786502Y700704D01*
X786480Y700851D01*
X786463Y700998D01*
X786455Y701023D01*
X786451Y701049D01*
X786396Y701187D01*
X786346Y701326D01*
X786332Y701348D01*
X786322Y701373D01*
X786237Y701494D01*
X786157Y701619D01*
X786138Y701637D01*
X786123Y701659D01*
X786013Y701758D01*
X785906Y701861D01*
X785884Y701875D01*
X785864Y701892D01*
X785734Y701964D01*
X785607Y702040D01*
X785582Y702048D01*
X785559Y702061D01*
X785416Y702101D01*
X785275Y702146D01*
X785249Y702148D01*
X785224Y702156D01*
X784980Y702175D01*
X783468Y702175D01*
X782575Y703068D01*
X782575Y719332D01*
X783468Y720225D01*
X797732Y720225D01*
X799023Y718933D01*
X799043Y718917D01*
X799060Y718897D01*
X799180Y718809D01*
X799296Y718717D01*
X799320Y718706D01*
X799341Y718690D01*
X799477Y718631D01*
X799611Y718568D01*
X799637Y718562D01*
X799661Y718552D01*
X799807Y718526D01*
X799952Y718494D01*
X799978Y718495D01*
X800004Y718490D01*
X800152Y718498D01*
X800300Y718500D01*
X800326Y718507D01*
X800352Y718508D01*
X800494Y718549D01*
X800638Y718585D01*
X800661Y718597D01*
X800687Y718605D01*
X800816Y718677D01*
X800948Y718745D01*
X800968Y718762D01*
X800991Y718775D01*
X801177Y718933D01*
X802468Y720225D01*
X808228Y720225D01*
X808254Y720228D01*
X808280Y720226D01*
X808427Y720248D01*
X808574Y720265D01*
X808599Y720273D01*
X808625Y720277D01*
X808763Y720332D01*
X808902Y720382D01*
X808924Y720396D01*
X808949Y720406D01*
X809070Y720491D01*
X809195Y720571D01*
X809213Y720590D01*
X809235Y720605D01*
X809334Y720715D01*
X809437Y720822D01*
X809451Y720844D01*
X809468Y720864D01*
X809540Y720994D01*
X809616Y721121D01*
X809624Y721146D01*
X809637Y721169D01*
X809677Y721312D01*
X809722Y721453D01*
X809724Y721479D01*
X809732Y721504D01*
X809751Y721748D01*
X809751Y734706D01*
X809737Y734832D01*
X809730Y734958D01*
X809717Y735004D01*
X809711Y735052D01*
X809669Y735171D01*
X809634Y735293D01*
X809610Y735335D01*
X809594Y735381D01*
X809525Y735487D01*
X809464Y735597D01*
X809424Y735643D01*
X809405Y735673D01*
X809370Y735707D01*
X809305Y735783D01*
X788615Y756473D01*
X788516Y756552D01*
X788422Y756636D01*
X788380Y756660D01*
X788342Y756690D01*
X788228Y756744D01*
X788117Y756805D01*
X788071Y756818D01*
X788027Y756839D01*
X787904Y756865D01*
X787782Y756900D01*
X787721Y756905D01*
X787686Y756912D01*
X787638Y756911D01*
X787538Y756919D01*
X745591Y756919D01*
X745491Y756908D01*
X745391Y756906D01*
X745318Y756888D01*
X745245Y756879D01*
X745150Y756846D01*
X745053Y756821D01*
X744986Y756787D01*
X744916Y756762D01*
X744832Y756707D01*
X744743Y756661D01*
X744686Y756613D01*
X744624Y756573D01*
X744554Y756501D01*
X744477Y756436D01*
X744433Y756376D01*
X744381Y756322D01*
X744330Y756236D01*
X744270Y756155D01*
X744241Y756087D01*
X744203Y756023D01*
X744172Y755927D01*
X744132Y755835D01*
X744119Y755762D01*
X744096Y755691D01*
X744088Y755591D01*
X744071Y755492D01*
X744074Y755418D01*
X744068Y755344D01*
X744083Y755244D01*
X744088Y755144D01*
X744109Y755073D01*
X744120Y754999D01*
X744157Y754906D01*
X744185Y754809D01*
X744221Y754744D01*
X744249Y754675D01*
X744306Y754593D01*
X744355Y754505D01*
X744420Y754429D01*
X744448Y754389D01*
X744474Y754365D01*
X744514Y754319D01*
X745745Y753088D01*
X745745Y745512D01*
X740388Y740155D01*
X732812Y740155D01*
X727455Y745512D01*
X727455Y747253D01*
X727444Y747353D01*
X727442Y747453D01*
X727424Y747525D01*
X727415Y747599D01*
X727382Y747694D01*
X727357Y747791D01*
X727323Y747857D01*
X727298Y747927D01*
X727243Y748012D01*
X727197Y748101D01*
X727149Y748158D01*
X727109Y748220D01*
X727037Y748290D01*
X726972Y748367D01*
X726912Y748411D01*
X726858Y748462D01*
X726772Y748514D01*
X726691Y748574D01*
X726623Y748603D01*
X726559Y748641D01*
X726463Y748672D01*
X726371Y748712D01*
X726298Y748725D01*
X726227Y748748D01*
X726127Y748756D01*
X726028Y748773D01*
X725954Y748770D01*
X725880Y748775D01*
X725780Y748761D01*
X725680Y748755D01*
X725609Y748735D01*
X725535Y748724D01*
X725442Y748687D01*
X725345Y748659D01*
X725280Y748623D01*
X725211Y748595D01*
X725129Y748538D01*
X725041Y748489D01*
X724965Y748424D01*
X724925Y748396D01*
X724901Y748370D01*
X724855Y748330D01*
X722776Y746251D01*
X721715Y746251D01*
X721589Y746237D01*
X721463Y746230D01*
X721417Y746217D01*
X721369Y746211D01*
X721250Y746169D01*
X721128Y746134D01*
X721086Y746110D01*
X721041Y746094D01*
X720934Y746025D01*
X720824Y745964D01*
X720778Y745924D01*
X720748Y745905D01*
X720714Y745870D01*
X720638Y745805D01*
X714988Y740155D01*
X707412Y740155D01*
X702055Y745512D01*
X702055Y753088D01*
X707412Y758445D01*
X714988Y758445D01*
X719590Y753843D01*
X719610Y753826D01*
X719628Y753806D01*
X719747Y753718D01*
X719863Y753626D01*
X719887Y753615D01*
X719908Y753599D01*
X720044Y753540D01*
X720178Y753477D01*
X720204Y753472D01*
X720228Y753461D01*
X720374Y753435D01*
X720519Y753404D01*
X720545Y753404D01*
X720571Y753399D01*
X720719Y753407D01*
X720867Y753410D01*
X720893Y753416D01*
X720919Y753417D01*
X721061Y753458D01*
X721205Y753495D01*
X721229Y753507D01*
X721254Y753514D01*
X721383Y753586D01*
X721515Y753654D01*
X721535Y753671D01*
X721558Y753684D01*
X721744Y753843D01*
X728686Y760785D01*
X730918Y763017D01*
X790695Y763017D01*
X815849Y737863D01*
X815849Y721739D01*
X815863Y721613D01*
X815870Y721487D01*
X815883Y721440D01*
X815889Y721392D01*
X815931Y721273D01*
X815966Y721152D01*
X815990Y721110D01*
X816006Y721064D01*
X816075Y720958D01*
X816136Y720848D01*
X816176Y720801D01*
X816195Y720771D01*
X816230Y720738D01*
X816295Y720661D01*
X817625Y719332D01*
X817625Y708118D01*
X817639Y707992D01*
X817646Y707866D01*
X817659Y707820D01*
X817665Y707772D01*
X817707Y707653D01*
X817742Y707531D01*
X817766Y707489D01*
X817782Y707443D01*
X817851Y707337D01*
X817912Y707227D01*
X817952Y707181D01*
X817971Y707151D01*
X818006Y707117D01*
X818071Y707041D01*
X823117Y701995D01*
X823216Y701916D01*
X823310Y701832D01*
X823352Y701808D01*
X823390Y701778D01*
X823504Y701724D01*
X823615Y701663D01*
X823661Y701650D01*
X823705Y701629D01*
X823828Y701603D01*
X823950Y701568D01*
X824011Y701563D01*
X824046Y701556D01*
X824094Y701557D01*
X824194Y701549D01*
X827652Y701549D01*
X827678Y701552D01*
X827704Y701550D01*
X827851Y701572D01*
X827998Y701589D01*
X828023Y701597D01*
X828049Y701601D01*
X828187Y701656D01*
X828326Y701706D01*
X828348Y701720D01*
X828373Y701730D01*
X828494Y701815D01*
X828619Y701895D01*
X828637Y701914D01*
X828659Y701929D01*
X828758Y702039D01*
X828861Y702146D01*
X828875Y702168D01*
X828892Y702188D01*
X828964Y702318D01*
X829040Y702445D01*
X829048Y702470D01*
X829061Y702493D01*
X829101Y702636D01*
X829146Y702777D01*
X829148Y702803D01*
X829156Y702828D01*
X829175Y703072D01*
X829175Y708832D01*
X830467Y710123D01*
X830483Y710143D01*
X830503Y710160D01*
X830591Y710280D01*
X830683Y710396D01*
X830694Y710420D01*
X830710Y710441D01*
X830769Y710577D01*
X830832Y710711D01*
X830838Y710737D01*
X830848Y710761D01*
X830874Y710907D01*
X830906Y711052D01*
X830905Y711078D01*
X830910Y711104D01*
X830902Y711252D01*
X830900Y711400D01*
X830893Y711426D01*
X830892Y711452D01*
X830851Y711594D01*
X830815Y711738D01*
X830803Y711761D01*
X830795Y711787D01*
X830723Y711916D01*
X830655Y712048D01*
X830638Y712068D01*
X830625Y712091D01*
X830467Y712277D01*
X829175Y713568D01*
X829175Y727832D01*
X830068Y728725D01*
X841282Y728725D01*
X841408Y728739D01*
X841534Y728746D01*
X841580Y728759D01*
X841628Y728765D01*
X841747Y728807D01*
X841869Y728842D01*
X841911Y728866D01*
X841957Y728882D01*
X842063Y728951D01*
X842173Y729012D01*
X842219Y729052D01*
X842249Y729071D01*
X842283Y729106D01*
X842359Y729171D01*
X847405Y734217D01*
X847484Y734316D01*
X847568Y734410D01*
X847592Y734452D01*
X847622Y734490D01*
X847676Y734604D01*
X847737Y734715D01*
X847750Y734761D01*
X847771Y734805D01*
X847797Y734928D01*
X847832Y735050D01*
X847837Y735111D01*
X847844Y735145D01*
X847843Y735193D01*
X847851Y735294D01*
X847851Y760106D01*
X847837Y760232D01*
X847830Y760358D01*
X847817Y760404D01*
X847811Y760452D01*
X847769Y760571D01*
X847734Y760693D01*
X847710Y760735D01*
X847694Y760781D01*
X847625Y760887D01*
X847564Y760997D01*
X847524Y761043D01*
X847505Y761073D01*
X847470Y761107D01*
X847405Y761183D01*
X840685Y767903D01*
X840586Y767982D01*
X840492Y768066D01*
X840450Y768090D01*
X840412Y768120D01*
X840298Y768174D01*
X840187Y768235D01*
X840141Y768248D01*
X840097Y768269D01*
X839974Y768295D01*
X839852Y768330D01*
X839791Y768335D01*
X839757Y768342D01*
X839709Y768341D01*
X839608Y768349D01*
X823173Y768349D01*
X819812Y769742D01*
X817240Y772314D01*
X815847Y775675D01*
X815847Y779313D01*
X817240Y782674D01*
X819812Y785246D01*
X823173Y786639D01*
X842051Y786639D01*
X845412Y785246D01*
X847984Y782674D01*
X849377Y779313D01*
X849377Y775675D01*
X847985Y772314D01*
X847518Y771848D01*
X847502Y771827D01*
X847482Y771810D01*
X847394Y771691D01*
X847302Y771575D01*
X847290Y771551D01*
X847275Y771530D01*
X847216Y771394D01*
X847153Y771260D01*
X847147Y771234D01*
X847137Y771210D01*
X847110Y771064D01*
X847079Y770919D01*
X847080Y770893D01*
X847075Y770867D01*
X847083Y770718D01*
X847085Y770570D01*
X847092Y770545D01*
X847093Y770519D01*
X847134Y770376D01*
X847170Y770232D01*
X847182Y770209D01*
X847190Y770184D01*
X847262Y770055D01*
X847330Y769923D01*
X847347Y769903D01*
X847360Y769880D01*
X847518Y769693D01*
X851717Y765495D01*
X853949Y763263D01*
X853949Y732137D01*
X851717Y729905D01*
X847671Y725859D01*
X847592Y725760D01*
X847508Y725666D01*
X847484Y725624D01*
X847454Y725586D01*
X847400Y725472D01*
X847339Y725361D01*
X847326Y725315D01*
X847305Y725271D01*
X847279Y725148D01*
X847244Y725026D01*
X847239Y724965D01*
X847232Y724930D01*
X847233Y724882D01*
X847225Y724782D01*
X847225Y713568D01*
X845933Y712277D01*
X845917Y712257D01*
X845897Y712240D01*
X845809Y712120D01*
X845717Y712004D01*
X845706Y711980D01*
X845690Y711959D01*
X845631Y711823D01*
X845568Y711689D01*
X845562Y711663D01*
X845552Y711639D01*
X845526Y711493D01*
X845494Y711348D01*
X845495Y711322D01*
X845490Y711296D01*
X845498Y711148D01*
X845500Y711000D01*
X845507Y710974D01*
X845508Y710948D01*
X845549Y710806D01*
X845585Y710662D01*
X845597Y710639D01*
X845605Y710613D01*
X845677Y710484D01*
X845745Y710352D01*
X845762Y710332D01*
X845775Y710309D01*
X845933Y710123D01*
X847225Y708832D01*
X847225Y706272D01*
X847228Y706246D01*
X847226Y706220D01*
X847248Y706073D01*
X847265Y705926D01*
X847273Y705901D01*
X847277Y705875D01*
X847332Y705737D01*
X847382Y705598D01*
X847396Y705576D01*
X847406Y705551D01*
X847491Y705430D01*
X847571Y705305D01*
X847590Y705287D01*
X847605Y705265D01*
X847715Y705166D01*
X847822Y705063D01*
X847844Y705049D01*
X847864Y705032D01*
X847994Y704960D01*
X848121Y704884D01*
X848146Y704876D01*
X848169Y704863D01*
X848312Y704823D01*
X848453Y704778D01*
X848479Y704776D01*
X848504Y704768D01*
X848748Y704749D01*
X865752Y704749D01*
X865778Y704752D01*
X865804Y704750D01*
X865951Y704772D01*
X866098Y704789D01*
X866123Y704797D01*
X866149Y704801D01*
X866287Y704856D01*
X866426Y704906D01*
X866448Y704920D01*
X866473Y704930D01*
X866594Y705015D01*
X866719Y705095D01*
X866737Y705114D01*
X866759Y705129D01*
X866858Y705239D01*
X866961Y705346D01*
X866975Y705368D01*
X866992Y705388D01*
X867064Y705518D01*
X867140Y705645D01*
X867148Y705670D01*
X867161Y705693D01*
X867201Y705836D01*
X867246Y705977D01*
X867248Y706003D01*
X867256Y706028D01*
X867275Y706272D01*
X867275Y708832D01*
X867973Y709529D01*
X868005Y709570D01*
X868043Y709604D01*
X868113Y709705D01*
X868190Y709802D01*
X868212Y709849D01*
X868241Y709891D01*
X868286Y710006D01*
X868339Y710118D01*
X868349Y710167D01*
X868368Y710215D01*
X868386Y710337D01*
X868412Y710458D01*
X868411Y710509D01*
X868419Y710560D01*
X868408Y710683D01*
X868406Y710807D01*
X868394Y710856D01*
X868389Y710907D01*
X868351Y711025D01*
X868321Y711145D01*
X868298Y711190D01*
X868282Y711239D01*
X868218Y711345D01*
X868161Y711454D01*
X868128Y711493D01*
X868102Y711537D01*
X868016Y711626D01*
X867936Y711720D01*
X867895Y711750D01*
X867859Y711787D01*
X867658Y711926D01*
X867240Y712167D01*
X866767Y712640D01*
X866432Y713219D01*
X866259Y713865D01*
X866259Y717653D01*
X874776Y717653D01*
X874802Y717656D01*
X874828Y717654D01*
X874975Y717676D01*
X875122Y717693D01*
X875147Y717701D01*
X875173Y717705D01*
X875311Y717760D01*
X875450Y717810D01*
X875472Y717824D01*
X875497Y717834D01*
X875618Y717919D01*
X875743Y717999D01*
X875761Y718018D01*
X875783Y718033D01*
X875882Y718143D01*
X875985Y718250D01*
X875999Y718272D01*
X876016Y718292D01*
X876088Y718422D01*
X876164Y718549D01*
X876172Y718574D01*
X876185Y718597D01*
X876225Y718740D01*
X876270Y718881D01*
X876272Y718907D01*
X876280Y718932D01*
X876299Y719176D01*
X876299Y720701D01*
X876301Y720701D01*
X876301Y719176D01*
X876304Y719150D01*
X876302Y719124D01*
X876324Y718977D01*
X876341Y718830D01*
X876350Y718805D01*
X876353Y718779D01*
X876408Y718641D01*
X876458Y718502D01*
X876472Y718480D01*
X876482Y718455D01*
X876567Y718334D01*
X876647Y718209D01*
X876666Y718191D01*
X876681Y718169D01*
X876791Y718070D01*
X876898Y717967D01*
X876920Y717953D01*
X876940Y717936D01*
X877070Y717864D01*
X877197Y717788D01*
X877222Y717780D01*
X877245Y717767D01*
X877388Y717727D01*
X877529Y717682D01*
X877555Y717680D01*
X877580Y717672D01*
X877824Y717653D01*
X886341Y717653D01*
X886341Y713865D01*
X886168Y713219D01*
X885833Y712640D01*
X885360Y712167D01*
X884942Y711926D01*
X884901Y711895D01*
X884856Y711872D01*
X884762Y711792D01*
X884662Y711718D01*
X884629Y711679D01*
X884591Y711646D01*
X884517Y711547D01*
X884437Y711452D01*
X884414Y711407D01*
X884383Y711366D01*
X884334Y711252D01*
X884278Y711142D01*
X884266Y711093D01*
X884245Y711046D01*
X884224Y710924D01*
X884194Y710804D01*
X884193Y710753D01*
X884184Y710703D01*
X884190Y710579D01*
X884188Y710456D01*
X884199Y710406D01*
X884202Y710355D01*
X884236Y710236D01*
X884262Y710115D01*
X884284Y710069D01*
X884298Y710020D01*
X884359Y709912D01*
X884412Y709800D01*
X884443Y709760D01*
X884468Y709716D01*
X884627Y709529D01*
X885325Y708832D01*
X885325Y703072D01*
X885328Y703046D01*
X885326Y703020D01*
X885348Y702873D01*
X885365Y702726D01*
X885373Y702701D01*
X885377Y702675D01*
X885432Y702537D01*
X885482Y702398D01*
X885496Y702376D01*
X885506Y702351D01*
X885591Y702230D01*
X885671Y702105D01*
X885690Y702087D01*
X885705Y702065D01*
X885815Y701966D01*
X885922Y701863D01*
X885944Y701849D01*
X885964Y701832D01*
X886094Y701760D01*
X886221Y701684D01*
X886246Y701676D01*
X886269Y701663D01*
X886412Y701623D01*
X886553Y701578D01*
X886579Y701576D01*
X886604Y701568D01*
X886848Y701549D01*
X909827Y701549D01*
X909903Y701557D01*
X909979Y701556D01*
X910075Y701577D01*
X910173Y701589D01*
X910245Y701614D01*
X910320Y701631D01*
X910408Y701673D01*
X910501Y701706D01*
X910565Y701748D01*
X910634Y701780D01*
X910711Y701842D01*
X910794Y701895D01*
X910847Y701950D01*
X910907Y701998D01*
X910968Y702075D01*
X911036Y702146D01*
X911075Y702211D01*
X911123Y702271D01*
X911191Y702405D01*
X911215Y702445D01*
X911221Y702463D01*
X911234Y702489D01*
X911727Y703680D01*
X914300Y706252D01*
X917661Y707645D01*
X936539Y707645D01*
X939900Y706252D01*
X942472Y703680D01*
X943865Y700319D01*
X943865Y696681D01*
X942472Y693320D01*
X939900Y690748D01*
X936539Y689355D01*
X917661Y689355D01*
X914300Y690748D01*
X911727Y693320D01*
X911234Y694511D01*
X911197Y694578D01*
X911169Y694649D01*
X911113Y694730D01*
X911065Y694816D01*
X911013Y694872D01*
X910970Y694935D01*
X910897Y695001D01*
X910831Y695074D01*
X910768Y695117D01*
X910711Y695168D01*
X910625Y695216D01*
X910544Y695272D01*
X910473Y695300D01*
X910406Y695337D01*
X910311Y695364D01*
X910220Y695400D01*
X910144Y695411D01*
X910071Y695432D01*
X909922Y695444D01*
X909875Y695451D01*
X909856Y695449D01*
X909827Y695451D01*
X886839Y695451D01*
X886713Y695437D01*
X886587Y695430D01*
X886540Y695417D01*
X886492Y695411D01*
X886373Y695369D01*
X886252Y695334D01*
X886210Y695310D01*
X886164Y695294D01*
X886058Y695225D01*
X885948Y695164D01*
X885901Y695124D01*
X885871Y695105D01*
X885838Y695070D01*
X885761Y695005D01*
X884432Y693675D01*
X868168Y693675D01*
X867275Y694568D01*
X867275Y697128D01*
X867272Y697154D01*
X867274Y697180D01*
X867252Y697327D01*
X867235Y697474D01*
X867227Y697499D01*
X867223Y697525D01*
X867168Y697663D01*
X867118Y697802D01*
X867104Y697824D01*
X867094Y697849D01*
X867009Y697970D01*
X866929Y698095D01*
X866910Y698113D01*
X866895Y698135D01*
X866785Y698234D01*
X866678Y698337D01*
X866656Y698351D01*
X866636Y698368D01*
X866506Y698440D01*
X866379Y698516D01*
X866354Y698524D01*
X866331Y698537D01*
X866188Y698577D01*
X866047Y698622D01*
X866021Y698624D01*
X865996Y698632D01*
X865752Y698651D01*
X848748Y698651D01*
X848722Y698648D01*
X848696Y698650D01*
X848549Y698628D01*
X848402Y698611D01*
X848377Y698603D01*
X848351Y698599D01*
X848213Y698544D01*
X848074Y698494D01*
X848052Y698480D01*
X848027Y698470D01*
X847906Y698385D01*
X847781Y698305D01*
X847763Y698286D01*
X847741Y698271D01*
X847642Y698161D01*
X847539Y698054D01*
X847525Y698032D01*
X847508Y698012D01*
X847436Y697882D01*
X847360Y697755D01*
X847352Y697730D01*
X847339Y697707D01*
X847299Y697564D01*
X847254Y697423D01*
X847252Y697397D01*
X847244Y697372D01*
X847225Y697128D01*
X847225Y694568D01*
X846332Y693675D01*
X842772Y693675D01*
X842746Y693672D01*
X842720Y693674D01*
X842573Y693652D01*
X842426Y693635D01*
X842401Y693627D01*
X842375Y693623D01*
X842237Y693568D01*
X842098Y693518D01*
X842076Y693504D01*
X842051Y693494D01*
X841930Y693409D01*
X841805Y693329D01*
X841787Y693310D01*
X841765Y693295D01*
X841666Y693185D01*
X841563Y693078D01*
X841549Y693056D01*
X841532Y693036D01*
X841460Y692906D01*
X841384Y692779D01*
X841376Y692754D01*
X841363Y692731D01*
X841323Y692588D01*
X841278Y692447D01*
X841276Y692421D01*
X841268Y692396D01*
X841249Y692152D01*
X841249Y684537D01*
X828795Y672083D01*
X828716Y671984D01*
X828632Y671890D01*
X828608Y671848D01*
X828578Y671810D01*
X828524Y671696D01*
X828463Y671585D01*
X828450Y671539D01*
X828429Y671495D01*
X828403Y671372D01*
X828368Y671250D01*
X828363Y671189D01*
X828356Y671154D01*
X828357Y671106D01*
X828349Y671006D01*
X828349Y667685D01*
X828355Y667635D01*
X828352Y667584D01*
X828374Y667462D01*
X828389Y667339D01*
X828406Y667291D01*
X828415Y667241D01*
X828464Y667128D01*
X828506Y667011D01*
X828534Y666968D01*
X828554Y666922D01*
X828628Y666822D01*
X828695Y666718D01*
X828732Y666683D01*
X828762Y666642D01*
X828857Y666562D01*
X828946Y666476D01*
X828990Y666450D01*
X829029Y666417D01*
X829139Y666361D01*
X829245Y666297D01*
X829293Y666282D01*
X829339Y666259D01*
X829459Y666229D01*
X829577Y666191D01*
X829628Y666187D01*
X829677Y666175D01*
X829801Y666173D01*
X829924Y666163D01*
X829975Y666171D01*
X830026Y666170D01*
X830266Y666214D01*
X830269Y666215D01*
X830365Y666241D01*
X835153Y666241D01*
X835153Y658724D01*
X835156Y658698D01*
X835154Y658672D01*
X835176Y658525D01*
X835193Y658378D01*
X835201Y658353D01*
X835205Y658327D01*
X835260Y658189D01*
X835310Y658050D01*
X835324Y658028D01*
X835334Y658003D01*
X835419Y657882D01*
X835499Y657757D01*
X835518Y657739D01*
X835533Y657717D01*
X835643Y657618D01*
X835750Y657515D01*
X835772Y657501D01*
X835792Y657484D01*
X835922Y657412D01*
X836049Y657336D01*
X836074Y657328D01*
X836097Y657315D01*
X836240Y657275D01*
X836381Y657230D01*
X836407Y657228D01*
X836432Y657220D01*
X836676Y657201D01*
X838201Y657201D01*
X838201Y655676D01*
X838204Y655650D01*
X838202Y655624D01*
X838224Y655477D01*
X838241Y655330D01*
X838250Y655305D01*
X838253Y655279D01*
X838308Y655141D01*
X838358Y655002D01*
X838372Y654980D01*
X838382Y654955D01*
X838467Y654834D01*
X838547Y654709D01*
X838566Y654691D01*
X838581Y654669D01*
X838691Y654570D01*
X838798Y654467D01*
X838820Y654453D01*
X838840Y654436D01*
X838970Y654364D01*
X839097Y654288D01*
X839122Y654280D01*
X839145Y654267D01*
X839288Y654227D01*
X839429Y654182D01*
X839455Y654180D01*
X839480Y654172D01*
X839724Y654153D01*
X848241Y654153D01*
X848241Y650365D01*
X848068Y649719D01*
X847733Y649140D01*
X847260Y648667D01*
X846842Y648426D01*
X846801Y648395D01*
X846756Y648372D01*
X846662Y648292D01*
X846562Y648218D01*
X846529Y648179D01*
X846491Y648146D01*
X846417Y648047D01*
X846337Y647952D01*
X846314Y647907D01*
X846283Y647866D01*
X846234Y647752D01*
X846178Y647642D01*
X846166Y647593D01*
X846145Y647546D01*
X846124Y647424D01*
X846094Y647304D01*
X846093Y647253D01*
X846084Y647203D01*
X846090Y647079D01*
X846088Y646956D01*
X846099Y646906D01*
X846102Y646855D01*
X846136Y646736D01*
X846162Y646615D01*
X846184Y646569D01*
X846198Y646520D01*
X846259Y646412D01*
X846312Y646300D01*
X846343Y646260D01*
X846368Y646216D01*
X846527Y646029D01*
X847225Y645332D01*
X847225Y642772D01*
X847228Y642746D01*
X847226Y642720D01*
X847248Y642573D01*
X847265Y642426D01*
X847273Y642401D01*
X847277Y642375D01*
X847332Y642237D01*
X847382Y642098D01*
X847396Y642076D01*
X847406Y642051D01*
X847491Y641930D01*
X847571Y641805D01*
X847590Y641787D01*
X847605Y641765D01*
X847715Y641666D01*
X847822Y641563D01*
X847844Y641549D01*
X847864Y641532D01*
X847994Y641460D01*
X848121Y641384D01*
X848146Y641376D01*
X848169Y641363D01*
X848312Y641323D01*
X848453Y641278D01*
X848479Y641276D01*
X848504Y641268D01*
X848748Y641249D01*
X874363Y641249D01*
X896167Y619445D01*
X898845Y616767D01*
X898852Y616759D01*
X898873Y616743D01*
X898890Y616723D01*
X898951Y616678D01*
X898996Y616634D01*
X899052Y616601D01*
X899125Y616543D01*
X899149Y616531D01*
X899170Y616516D01*
X899257Y616478D01*
X899295Y616456D01*
X899340Y616441D01*
X899440Y616394D01*
X899466Y616388D01*
X899490Y616378D01*
X899600Y616358D01*
X899627Y616349D01*
X899657Y616347D01*
X899781Y616320D01*
X899807Y616321D01*
X899833Y616316D01*
X899960Y616323D01*
X899974Y616321D01*
X899990Y616324D01*
X900130Y616326D01*
X900155Y616333D01*
X900181Y616334D01*
X900315Y616373D01*
X900319Y616373D01*
X900324Y616375D01*
X900468Y616411D01*
X900491Y616423D01*
X900516Y616431D01*
X900645Y616503D01*
X900777Y616571D01*
X900797Y616588D01*
X900820Y616601D01*
X901007Y616759D01*
X901600Y617353D01*
X904961Y618745D01*
X923839Y618745D01*
X927200Y617352D01*
X929773Y614780D01*
X930266Y613589D01*
X930303Y613522D01*
X930331Y613451D01*
X930387Y613370D01*
X930435Y613284D01*
X930487Y613228D01*
X930530Y613165D01*
X930603Y613099D01*
X930669Y613026D01*
X930732Y612983D01*
X930789Y612932D01*
X930875Y612884D01*
X930956Y612828D01*
X931027Y612800D01*
X931094Y612763D01*
X931189Y612736D01*
X931280Y612700D01*
X931356Y612689D01*
X931429Y612668D01*
X931578Y612656D01*
X931625Y612649D01*
X931644Y612651D01*
X931673Y612649D01*
X947927Y612649D01*
X948003Y612657D01*
X948079Y612656D01*
X948175Y612677D01*
X948273Y612689D01*
X948345Y612714D01*
X948420Y612731D01*
X948508Y612773D01*
X948601Y612806D01*
X948665Y612848D01*
X948734Y612880D01*
X948811Y612942D01*
X948894Y612995D01*
X948947Y613050D01*
X949007Y613098D01*
X949068Y613175D01*
X949136Y613246D01*
X949175Y613311D01*
X949223Y613371D01*
X949291Y613505D01*
X949315Y613545D01*
X949321Y613563D01*
X949334Y613589D01*
X949827Y614780D01*
X952400Y617352D01*
X955761Y618745D01*
X974639Y618745D01*
X978000Y617352D01*
X980572Y614780D01*
X981965Y611419D01*
X981965Y607781D01*
X980572Y604420D01*
X978000Y601848D01*
X974639Y600455D01*
X955761Y600455D01*
X952400Y601848D01*
X949827Y604420D01*
X949334Y605611D01*
X949297Y605678D01*
X949269Y605749D01*
X949213Y605830D01*
X949165Y605916D01*
X949113Y605972D01*
X949070Y606035D01*
X948997Y606101D01*
X948931Y606174D01*
X948868Y606217D01*
X948811Y606268D01*
X948725Y606316D01*
X948644Y606372D01*
X948573Y606400D01*
X948506Y606437D01*
X948411Y606464D01*
X948320Y606500D01*
X948244Y606511D01*
X948171Y606532D01*
X948022Y606544D01*
X947975Y606551D01*
X947956Y606549D01*
X947927Y606551D01*
X931673Y606551D01*
X931597Y606543D01*
X931521Y606544D01*
X931425Y606523D01*
X931327Y606511D01*
X931255Y606486D01*
X931180Y606469D01*
X931092Y606427D01*
X930999Y606394D01*
X930935Y606352D01*
X930866Y606320D01*
X930789Y606258D01*
X930706Y606205D01*
X930653Y606150D01*
X930593Y606102D01*
X930532Y606025D01*
X930464Y605954D01*
X930425Y605889D01*
X930377Y605829D01*
X930309Y605695D01*
X930285Y605655D01*
X930279Y605637D01*
X930266Y605611D01*
X929773Y604420D01*
X927200Y601848D01*
X923839Y600455D01*
X904961Y600455D01*
X901600Y601848D01*
X899028Y604420D01*
X897635Y607781D01*
X897635Y608722D01*
X897621Y608847D01*
X897614Y608974D01*
X897601Y609021D01*
X897595Y609068D01*
X897553Y609187D01*
X897518Y609309D01*
X897494Y609351D01*
X897478Y609397D01*
X897409Y609503D01*
X897348Y609613D01*
X897308Y609659D01*
X897289Y609689D01*
X897254Y609723D01*
X897189Y609799D01*
X896427Y610561D01*
X896407Y610578D01*
X896390Y610598D01*
X896271Y610686D01*
X896154Y610778D01*
X896130Y610789D01*
X896109Y610805D01*
X895973Y610863D01*
X895839Y610927D01*
X895813Y610932D01*
X895789Y610943D01*
X895643Y610969D01*
X895498Y611000D01*
X895472Y611000D01*
X895446Y611004D01*
X895298Y610997D01*
X895150Y610994D01*
X895124Y610988D01*
X895098Y610987D01*
X894956Y610945D01*
X894812Y610909D01*
X894789Y610897D01*
X894763Y610890D01*
X894634Y610818D01*
X894502Y610750D01*
X894482Y610733D01*
X894459Y610720D01*
X894273Y610561D01*
X892495Y608783D01*
X892416Y608684D01*
X892332Y608590D01*
X892308Y608548D01*
X892278Y608510D01*
X892224Y608396D01*
X892163Y608285D01*
X892150Y608239D01*
X892129Y608195D01*
X892103Y608072D01*
X892068Y607950D01*
X892063Y607889D01*
X892056Y607854D01*
X892057Y607806D01*
X892049Y607706D01*
X892049Y569838D01*
X892060Y569738D01*
X892062Y569638D01*
X892080Y569565D01*
X892089Y569492D01*
X892122Y569397D01*
X892147Y569300D01*
X892181Y569233D01*
X892206Y569163D01*
X892261Y569079D01*
X892307Y568990D01*
X892355Y568933D01*
X892395Y568871D01*
X892467Y568801D01*
X892532Y568724D01*
X892592Y568680D01*
X892646Y568628D01*
X892732Y568577D01*
X892813Y568517D01*
X892881Y568488D01*
X892945Y568450D01*
X893041Y568419D01*
X893133Y568379D01*
X893206Y568366D01*
X893277Y568343D01*
X893377Y568335D01*
X893476Y568318D01*
X893550Y568321D01*
X893624Y568315D01*
X893724Y568330D01*
X893824Y568335D01*
X893895Y568356D01*
X893969Y568367D01*
X894062Y568404D01*
X894159Y568432D01*
X894224Y568468D01*
X894293Y568496D01*
X894375Y568553D01*
X894463Y568602D01*
X894539Y568667D01*
X894579Y568695D01*
X894603Y568721D01*
X894649Y568761D01*
X900891Y575002D01*
X900907Y575023D01*
X900927Y575040D01*
X901015Y575159D01*
X901107Y575275D01*
X901119Y575299D01*
X901134Y575320D01*
X901193Y575456D01*
X901256Y575590D01*
X901262Y575616D01*
X901272Y575640D01*
X901299Y575786D01*
X901330Y575931D01*
X901329Y575957D01*
X901334Y575983D01*
X901326Y576132D01*
X901324Y576280D01*
X901317Y576305D01*
X901316Y576331D01*
X901275Y576474D01*
X901239Y576618D01*
X901227Y576641D01*
X901219Y576666D01*
X901147Y576796D01*
X901079Y576927D01*
X901062Y576947D01*
X901049Y576970D01*
X900891Y577157D01*
X899027Y579020D01*
X897635Y582381D01*
X897635Y586019D01*
X899028Y589380D01*
X901600Y591952D01*
X904961Y593345D01*
X923839Y593345D01*
X927200Y591952D01*
X929773Y589380D01*
X930266Y588189D01*
X930303Y588122D01*
X930331Y588051D01*
X930387Y587970D01*
X930435Y587884D01*
X930487Y587828D01*
X930530Y587765D01*
X930603Y587699D01*
X930669Y587626D01*
X930732Y587583D01*
X930789Y587532D01*
X930875Y587484D01*
X930956Y587428D01*
X931027Y587400D01*
X931094Y587363D01*
X931189Y587336D01*
X931280Y587300D01*
X931356Y587289D01*
X931429Y587268D01*
X931578Y587256D01*
X931625Y587249D01*
X931644Y587251D01*
X931673Y587249D01*
X947927Y587249D01*
X948003Y587257D01*
X948079Y587256D01*
X948175Y587277D01*
X948273Y587289D01*
X948345Y587314D01*
X948420Y587331D01*
X948508Y587373D01*
X948601Y587406D01*
X948665Y587448D01*
X948734Y587480D01*
X948811Y587542D01*
X948894Y587595D01*
X948947Y587650D01*
X949007Y587698D01*
X949068Y587775D01*
X949136Y587846D01*
X949175Y587911D01*
X949223Y587971D01*
X949291Y588105D01*
X949315Y588145D01*
X949321Y588163D01*
X949334Y588189D01*
X949827Y589380D01*
X952400Y591952D01*
X955761Y593345D01*
X974639Y593345D01*
X978000Y591952D01*
X980572Y589380D01*
X981965Y586019D01*
X981965Y582381D01*
X980572Y579020D01*
X978000Y576448D01*
X974639Y575055D01*
X955761Y575055D01*
X952400Y576448D01*
X949827Y579020D01*
X949334Y580211D01*
X949297Y580278D01*
X949269Y580349D01*
X949213Y580430D01*
X949165Y580516D01*
X949113Y580572D01*
X949070Y580635D01*
X948997Y580701D01*
X948931Y580774D01*
X948868Y580817D01*
X948811Y580868D01*
X948725Y580916D01*
X948644Y580972D01*
X948573Y581000D01*
X948506Y581037D01*
X948411Y581064D01*
X948320Y581100D01*
X948244Y581111D01*
X948171Y581132D01*
X948022Y581144D01*
X947975Y581151D01*
X947956Y581149D01*
X947927Y581151D01*
X931673Y581151D01*
X931597Y581143D01*
X931521Y581144D01*
X931425Y581123D01*
X931327Y581111D01*
X931255Y581086D01*
X931180Y581069D01*
X931092Y581027D01*
X930999Y580994D01*
X930935Y580952D01*
X930866Y580920D01*
X930789Y580858D01*
X930706Y580805D01*
X930653Y580750D01*
X930593Y580702D01*
X930532Y580625D01*
X930464Y580554D01*
X930425Y580489D01*
X930377Y580429D01*
X930309Y580295D01*
X930285Y580255D01*
X930279Y580237D01*
X930266Y580211D01*
X929773Y579020D01*
X927200Y576448D01*
X923839Y575055D01*
X910198Y575055D01*
X910072Y575041D01*
X909946Y575034D01*
X909900Y575021D01*
X909852Y575015D01*
X909733Y574973D01*
X909611Y574938D01*
X909569Y574914D01*
X909523Y574898D01*
X909417Y574829D01*
X909307Y574768D01*
X909261Y574728D01*
X909231Y574709D01*
X909197Y574674D01*
X909121Y574609D01*
X905057Y570545D01*
X904994Y570467D01*
X904924Y570394D01*
X904886Y570330D01*
X904840Y570272D01*
X904797Y570181D01*
X904746Y570095D01*
X904723Y570024D01*
X904691Y569957D01*
X904670Y569859D01*
X904639Y569763D01*
X904633Y569689D01*
X904618Y569616D01*
X904619Y569516D01*
X904611Y569416D01*
X904622Y569342D01*
X904624Y569268D01*
X904648Y569171D01*
X904663Y569071D01*
X904691Y569002D01*
X904709Y568930D01*
X904755Y568840D01*
X904792Y568747D01*
X904834Y568686D01*
X904868Y568620D01*
X904934Y568543D01*
X904991Y568461D01*
X905046Y568411D01*
X905094Y568355D01*
X905175Y568295D01*
X905250Y568228D01*
X905315Y568192D01*
X905374Y568147D01*
X905467Y568108D01*
X905555Y568059D01*
X905626Y568039D01*
X905694Y568009D01*
X905793Y567992D01*
X905890Y567964D01*
X905990Y567956D01*
X906037Y567948D01*
X906073Y567950D01*
X906134Y567945D01*
X923839Y567945D01*
X927200Y566552D01*
X929773Y563980D01*
X930266Y562789D01*
X930303Y562722D01*
X930331Y562651D01*
X930387Y562570D01*
X930435Y562484D01*
X930487Y562428D01*
X930530Y562365D01*
X930603Y562299D01*
X930669Y562226D01*
X930732Y562183D01*
X930789Y562132D01*
X930875Y562084D01*
X930956Y562028D01*
X931027Y562000D01*
X931094Y561963D01*
X931189Y561936D01*
X931280Y561900D01*
X931356Y561889D01*
X931429Y561868D01*
X931578Y561856D01*
X931625Y561849D01*
X931644Y561851D01*
X931673Y561849D01*
X947927Y561849D01*
X948003Y561857D01*
X948079Y561856D01*
X948175Y561877D01*
X948273Y561889D01*
X948345Y561914D01*
X948420Y561931D01*
X948508Y561973D01*
X948601Y562006D01*
X948665Y562048D01*
X948734Y562080D01*
X948811Y562142D01*
X948894Y562195D01*
X948947Y562250D01*
X949007Y562298D01*
X949068Y562375D01*
X949136Y562446D01*
X949175Y562511D01*
X949223Y562571D01*
X949291Y562705D01*
X949315Y562745D01*
X949321Y562763D01*
X949334Y562789D01*
X949827Y563980D01*
X952400Y566552D01*
X955761Y567945D01*
X974639Y567945D01*
X978000Y566552D01*
X980572Y563980D01*
X981965Y560619D01*
X981965Y556981D01*
X980572Y553620D01*
X978000Y551048D01*
X974639Y549655D01*
X955761Y549655D01*
X952400Y551048D01*
X949827Y553620D01*
X949334Y554811D01*
X949297Y554878D01*
X949269Y554949D01*
X949213Y555030D01*
X949165Y555116D01*
X949113Y555172D01*
X949070Y555235D01*
X948997Y555301D01*
X948931Y555374D01*
X948868Y555417D01*
X948811Y555468D01*
X948725Y555516D01*
X948644Y555572D01*
X948573Y555600D01*
X948506Y555637D01*
X948411Y555664D01*
X948320Y555700D01*
X948244Y555711D01*
X948171Y555732D01*
X948022Y555744D01*
X947975Y555751D01*
X947956Y555749D01*
X947927Y555751D01*
X931673Y555751D01*
X931597Y555743D01*
X931521Y555744D01*
X931425Y555723D01*
X931327Y555711D01*
X931255Y555686D01*
X931180Y555669D01*
X931092Y555627D01*
X930999Y555594D01*
X930935Y555552D01*
X930866Y555520D01*
X930789Y555458D01*
X930706Y555405D01*
X930653Y555350D01*
X930593Y555302D01*
X930532Y555225D01*
X930464Y555154D01*
X930425Y555089D01*
X930377Y555029D01*
X930309Y554895D01*
X930285Y554855D01*
X930279Y554837D01*
X930266Y554811D01*
X929773Y553620D01*
X927200Y551048D01*
X923839Y549655D01*
X904961Y549655D01*
X901600Y551047D01*
X901007Y551641D01*
X900986Y551657D01*
X900969Y551677D01*
X900850Y551765D01*
X900734Y551857D01*
X900710Y551869D01*
X900689Y551884D01*
X900553Y551943D01*
X900419Y552006D01*
X900393Y552012D01*
X900369Y552022D01*
X900223Y552049D01*
X900078Y552080D01*
X900052Y552079D01*
X900026Y552084D01*
X899877Y552076D01*
X899729Y552074D01*
X899704Y552067D01*
X899678Y552066D01*
X899535Y552025D01*
X899391Y551989D01*
X899368Y551977D01*
X899343Y551969D01*
X899214Y551897D01*
X899082Y551829D01*
X899062Y551812D01*
X899039Y551799D01*
X898852Y551641D01*
X880063Y532851D01*
X865603Y532851D01*
X865577Y532848D01*
X865551Y532850D01*
X865404Y532828D01*
X865257Y532811D01*
X865232Y532803D01*
X865206Y532799D01*
X865068Y532744D01*
X864929Y532694D01*
X864907Y532680D01*
X864882Y532670D01*
X864761Y532585D01*
X864636Y532505D01*
X864618Y532486D01*
X864596Y532471D01*
X864497Y532361D01*
X864394Y532254D01*
X864380Y532232D01*
X864363Y532212D01*
X864291Y532082D01*
X864215Y531955D01*
X864207Y531930D01*
X864194Y531907D01*
X864154Y531764D01*
X864109Y531623D01*
X864107Y531597D01*
X864099Y531572D01*
X864080Y531328D01*
X864080Y525472D01*
X864083Y525446D01*
X864081Y525420D01*
X864103Y525273D01*
X864120Y525126D01*
X864128Y525101D01*
X864132Y525075D01*
X864187Y524937D01*
X864237Y524798D01*
X864251Y524776D01*
X864261Y524751D01*
X864346Y524630D01*
X864426Y524505D01*
X864445Y524487D01*
X864460Y524465D01*
X864570Y524366D01*
X864677Y524263D01*
X864699Y524249D01*
X864719Y524232D01*
X864849Y524160D01*
X864976Y524084D01*
X865001Y524076D01*
X865024Y524063D01*
X865167Y524023D01*
X865308Y523978D01*
X865334Y523976D01*
X865359Y523968D01*
X865603Y523949D01*
X897388Y523949D01*
X897513Y523963D01*
X897640Y523970D01*
X897686Y523983D01*
X897734Y523989D01*
X897853Y524031D01*
X897974Y524066D01*
X898017Y524090D01*
X898062Y524106D01*
X898168Y524175D01*
X898279Y524236D01*
X898325Y524276D01*
X898355Y524295D01*
X898388Y524330D01*
X898465Y524395D01*
X917631Y543561D01*
X955504Y543561D01*
X970789Y528276D01*
X970789Y494190D01*
X957043Y480444D01*
X957026Y480424D01*
X957006Y480407D01*
X956918Y480287D01*
X956826Y480171D01*
X956815Y480148D01*
X956799Y480126D01*
X956740Y479990D01*
X956677Y479856D01*
X956672Y479830D01*
X956661Y479806D01*
X956635Y479660D01*
X956604Y479515D01*
X956604Y479489D01*
X956599Y479463D01*
X956607Y479315D01*
X956610Y479167D01*
X956616Y479141D01*
X956617Y479115D01*
X956658Y478973D01*
X956695Y478829D01*
X956707Y478806D01*
X956714Y478780D01*
X956786Y478651D01*
X956854Y478519D01*
X956871Y478499D01*
X956884Y478476D01*
X957043Y478290D01*
X961645Y473688D01*
X961645Y466112D01*
X956288Y460755D01*
X948712Y460755D01*
X943355Y466112D01*
X943355Y473688D01*
X949005Y479338D01*
X949084Y479437D01*
X949168Y479531D01*
X949192Y479573D01*
X949222Y479611D01*
X949276Y479725D01*
X949337Y479836D01*
X949350Y479882D01*
X949371Y479926D01*
X949397Y480049D01*
X949432Y480171D01*
X949437Y480232D01*
X949444Y480267D01*
X949443Y480315D01*
X949451Y480415D01*
X949451Y481476D01*
X951530Y483555D01*
X951593Y483633D01*
X951662Y483706D01*
X951701Y483770D01*
X951747Y483828D01*
X951790Y483919D01*
X951841Y484005D01*
X951864Y484076D01*
X951896Y484143D01*
X951917Y484241D01*
X951948Y484337D01*
X951953Y484411D01*
X951969Y484484D01*
X951967Y484584D01*
X951975Y484684D01*
X951964Y484758D01*
X951963Y484832D01*
X951939Y484929D01*
X951924Y485029D01*
X951896Y485098D01*
X951878Y485170D01*
X951832Y485259D01*
X951795Y485353D01*
X951753Y485414D01*
X951719Y485480D01*
X951653Y485556D01*
X951596Y485639D01*
X951541Y485689D01*
X951493Y485745D01*
X951412Y485805D01*
X951337Y485872D01*
X951272Y485908D01*
X951212Y485953D01*
X951120Y485992D01*
X951032Y486041D01*
X950961Y486061D01*
X950892Y486091D01*
X950794Y486108D01*
X950697Y486136D01*
X950597Y486144D01*
X950549Y486152D01*
X950514Y486150D01*
X950453Y486155D01*
X948712Y486155D01*
X943355Y491512D01*
X943355Y499088D01*
X949005Y504738D01*
X949084Y504837D01*
X949168Y504931D01*
X949192Y504973D01*
X949222Y505011D01*
X949276Y505125D01*
X949337Y505236D01*
X949350Y505282D01*
X949371Y505326D01*
X949397Y505449D01*
X949432Y505571D01*
X949437Y505632D01*
X949444Y505667D01*
X949443Y505715D01*
X949451Y505815D01*
X949451Y506876D01*
X951530Y508955D01*
X951593Y509033D01*
X951662Y509106D01*
X951701Y509170D01*
X951747Y509228D01*
X951790Y509319D01*
X951841Y509405D01*
X951864Y509476D01*
X951896Y509543D01*
X951917Y509641D01*
X951948Y509737D01*
X951953Y509811D01*
X951969Y509884D01*
X951967Y509984D01*
X951975Y510084D01*
X951964Y510158D01*
X951963Y510232D01*
X951939Y510329D01*
X951924Y510429D01*
X951896Y510498D01*
X951878Y510570D01*
X951832Y510659D01*
X951795Y510753D01*
X951753Y510814D01*
X951719Y510880D01*
X951653Y510956D01*
X951596Y511039D01*
X951541Y511089D01*
X951493Y511145D01*
X951412Y511205D01*
X951337Y511272D01*
X951272Y511308D01*
X951212Y511353D01*
X951120Y511392D01*
X951032Y511441D01*
X950961Y511461D01*
X950892Y511491D01*
X950794Y511508D01*
X950697Y511536D01*
X950597Y511544D01*
X950549Y511552D01*
X950514Y511550D01*
X950453Y511555D01*
X948712Y511555D01*
X943062Y517205D01*
X942963Y517284D01*
X942869Y517368D01*
X942827Y517392D01*
X942789Y517422D01*
X942675Y517476D01*
X942564Y517537D01*
X942518Y517550D01*
X942474Y517571D01*
X942351Y517597D01*
X942229Y517632D01*
X942168Y517637D01*
X942133Y517644D01*
X942085Y517643D01*
X941985Y517651D01*
X940924Y517651D01*
X938845Y519730D01*
X938767Y519793D01*
X938694Y519862D01*
X938630Y519901D01*
X938572Y519947D01*
X938481Y519990D01*
X938395Y520041D01*
X938324Y520064D01*
X938257Y520096D01*
X938159Y520117D01*
X938063Y520148D01*
X937989Y520153D01*
X937916Y520169D01*
X937816Y520167D01*
X937716Y520175D01*
X937642Y520164D01*
X937568Y520163D01*
X937471Y520139D01*
X937371Y520124D01*
X937302Y520096D01*
X937230Y520078D01*
X937141Y520032D01*
X937047Y519995D01*
X936986Y519953D01*
X936920Y519919D01*
X936844Y519853D01*
X936761Y519796D01*
X936711Y519741D01*
X936655Y519693D01*
X936595Y519612D01*
X936528Y519537D01*
X936492Y519472D01*
X936447Y519412D01*
X936408Y519320D01*
X936359Y519232D01*
X936339Y519161D01*
X936309Y519092D01*
X936292Y518994D01*
X936264Y518897D01*
X936256Y518797D01*
X936248Y518749D01*
X936250Y518714D01*
X936245Y518653D01*
X936245Y516912D01*
X930888Y511555D01*
X922898Y511555D01*
X922772Y511541D01*
X922646Y511534D01*
X922600Y511521D01*
X922552Y511515D01*
X922433Y511473D01*
X922311Y511438D01*
X922269Y511414D01*
X922223Y511398D01*
X922117Y511329D01*
X922007Y511268D01*
X921961Y511228D01*
X921931Y511209D01*
X921897Y511174D01*
X921821Y511109D01*
X915795Y505083D01*
X913563Y502851D01*
X853521Y502851D01*
X853506Y502856D01*
X853445Y502861D01*
X853410Y502868D01*
X853362Y502867D01*
X853262Y502875D01*
X847173Y502875D01*
X846280Y503768D01*
X846280Y563032D01*
X847173Y563925D01*
X853262Y563925D01*
X853388Y563939D01*
X853514Y563946D01*
X853525Y563949D01*
X876506Y563949D01*
X876632Y563963D01*
X876758Y563970D01*
X876804Y563983D01*
X876852Y563989D01*
X876971Y564031D01*
X877093Y564066D01*
X877135Y564090D01*
X877181Y564106D01*
X877287Y564175D01*
X877397Y564236D01*
X877443Y564276D01*
X877473Y564295D01*
X877507Y564330D01*
X877583Y564395D01*
X885505Y572317D01*
X885584Y572416D01*
X885668Y572510D01*
X885692Y572552D01*
X885722Y572590D01*
X885776Y572704D01*
X885837Y572815D01*
X885850Y572861D01*
X885871Y572905D01*
X885897Y573028D01*
X885932Y573150D01*
X885937Y573211D01*
X885944Y573246D01*
X885943Y573294D01*
X885951Y573394D01*
X885951Y610863D01*
X889961Y614873D01*
X889978Y614893D01*
X889998Y614910D01*
X890086Y615030D01*
X890178Y615146D01*
X890189Y615170D01*
X890205Y615191D01*
X890264Y615327D01*
X890327Y615461D01*
X890332Y615487D01*
X890343Y615511D01*
X890369Y615657D01*
X890400Y615802D01*
X890400Y615828D01*
X890404Y615854D01*
X890397Y616002D01*
X890394Y616150D01*
X890388Y616176D01*
X890387Y616202D01*
X890345Y616344D01*
X890309Y616488D01*
X890297Y616512D01*
X890290Y616537D01*
X890218Y616666D01*
X890150Y616798D01*
X890133Y616818D01*
X890120Y616841D01*
X889961Y617027D01*
X872283Y634705D01*
X872184Y634784D01*
X872090Y634868D01*
X872048Y634892D01*
X872010Y634922D01*
X871896Y634976D01*
X871785Y635037D01*
X871739Y635050D01*
X871695Y635071D01*
X871572Y635097D01*
X871450Y635132D01*
X871389Y635137D01*
X871354Y635144D01*
X871306Y635143D01*
X871206Y635151D01*
X848748Y635151D01*
X848722Y635148D01*
X848696Y635150D01*
X848549Y635128D01*
X848402Y635111D01*
X848377Y635103D01*
X848351Y635099D01*
X848213Y635044D01*
X848074Y634994D01*
X848052Y634980D01*
X848027Y634970D01*
X847906Y634885D01*
X847781Y634805D01*
X847763Y634786D01*
X847741Y634771D01*
X847642Y634661D01*
X847539Y634554D01*
X847525Y634532D01*
X847508Y634512D01*
X847436Y634382D01*
X847360Y634255D01*
X847352Y634230D01*
X847339Y634207D01*
X847299Y634064D01*
X847254Y633923D01*
X847252Y633897D01*
X847244Y633872D01*
X847225Y633628D01*
X847225Y631068D01*
X846332Y630175D01*
X829872Y630175D01*
X829846Y630172D01*
X829820Y630174D01*
X829673Y630152D01*
X829526Y630135D01*
X829501Y630127D01*
X829475Y630123D01*
X829337Y630068D01*
X829198Y630018D01*
X829176Y630004D01*
X829151Y629994D01*
X829030Y629909D01*
X828905Y629829D01*
X828887Y629810D01*
X828865Y629795D01*
X828766Y629685D01*
X828663Y629578D01*
X828649Y629556D01*
X828632Y629536D01*
X828560Y629406D01*
X828484Y629279D01*
X828476Y629254D01*
X828463Y629231D01*
X828423Y629088D01*
X828378Y628947D01*
X828376Y628921D01*
X828368Y628896D01*
X828349Y628652D01*
X828349Y586203D01*
X828352Y586177D01*
X828350Y586151D01*
X828372Y586004D01*
X828389Y585857D01*
X828397Y585832D01*
X828401Y585806D01*
X828456Y585668D01*
X828506Y585529D01*
X828520Y585507D01*
X828530Y585482D01*
X828615Y585361D01*
X828695Y585236D01*
X828714Y585218D01*
X828729Y585196D01*
X828839Y585097D01*
X828946Y584994D01*
X828968Y584980D01*
X828988Y584963D01*
X829118Y584891D01*
X829245Y584815D01*
X829270Y584807D01*
X829293Y584794D01*
X829436Y584754D01*
X829577Y584709D01*
X829603Y584707D01*
X829628Y584699D01*
X829872Y584680D01*
X842432Y584680D01*
X843325Y583787D01*
X843325Y567773D01*
X842432Y566880D01*
X819499Y566880D01*
X819374Y566866D01*
X819248Y566859D01*
X819201Y566846D01*
X819153Y566840D01*
X819034Y566798D01*
X818913Y566763D01*
X818871Y566739D01*
X818825Y566723D01*
X818719Y566654D01*
X818609Y566593D01*
X818562Y566553D01*
X818532Y566534D01*
X818499Y566499D01*
X818422Y566434D01*
X818360Y566372D01*
X817781Y566037D01*
X817135Y565864D01*
X816823Y565864D01*
X816823Y575780D01*
X816823Y585696D01*
X817135Y585696D01*
X817781Y585523D01*
X818360Y585188D01*
X818422Y585126D01*
X818521Y585047D01*
X818615Y584963D01*
X818657Y584939D01*
X818695Y584909D01*
X818809Y584855D01*
X818920Y584794D01*
X818967Y584781D01*
X819010Y584760D01*
X819134Y584734D01*
X819256Y584699D01*
X819316Y584694D01*
X819351Y584687D01*
X819399Y584688D01*
X819499Y584680D01*
X820728Y584680D01*
X820754Y584683D01*
X820780Y584681D01*
X820927Y584703D01*
X821074Y584720D01*
X821099Y584728D01*
X821125Y584732D01*
X821263Y584787D01*
X821402Y584837D01*
X821424Y584851D01*
X821449Y584861D01*
X821570Y584946D01*
X821695Y585026D01*
X821713Y585045D01*
X821735Y585060D01*
X821834Y585170D01*
X821937Y585277D01*
X821951Y585299D01*
X821968Y585319D01*
X822040Y585449D01*
X822116Y585576D01*
X822124Y585601D01*
X822137Y585624D01*
X822177Y585767D01*
X822222Y585908D01*
X822224Y585934D01*
X822232Y585959D01*
X822251Y586203D01*
X822251Y674163D01*
X834705Y686617D01*
X834784Y686716D01*
X834868Y686810D01*
X834892Y686852D01*
X834922Y686890D01*
X834976Y687004D01*
X835037Y687115D01*
X835050Y687161D01*
X835071Y687205D01*
X835097Y687328D01*
X835132Y687450D01*
X835137Y687511D01*
X835144Y687546D01*
X835143Y687594D01*
X835151Y687694D01*
X835151Y692152D01*
X835148Y692178D01*
X835150Y692204D01*
X835128Y692351D01*
X835111Y692498D01*
X835103Y692523D01*
X835099Y692549D01*
X835044Y692687D01*
X834994Y692826D01*
X834980Y692848D01*
X834970Y692873D01*
X834885Y692994D01*
X834805Y693119D01*
X834786Y693137D01*
X834771Y693159D01*
X834661Y693258D01*
X834554Y693361D01*
X834532Y693375D01*
X834512Y693392D01*
X834382Y693464D01*
X834255Y693540D01*
X834230Y693548D01*
X834207Y693561D01*
X834064Y693601D01*
X833923Y693646D01*
X833897Y693648D01*
X833872Y693656D01*
X833628Y693675D01*
X830068Y693675D01*
X828739Y695005D01*
X828639Y695084D01*
X828546Y695168D01*
X828503Y695192D01*
X828466Y695222D01*
X828351Y695276D01*
X828241Y695337D01*
X828194Y695350D01*
X828151Y695371D01*
X828027Y695397D01*
X827905Y695432D01*
X827845Y695437D01*
X827810Y695444D01*
X827762Y695443D01*
X827662Y695451D01*
X821037Y695451D01*
X814759Y701729D01*
X814660Y701808D01*
X814566Y701892D01*
X814524Y701916D01*
X814486Y701946D01*
X814372Y702000D01*
X814261Y702061D01*
X814215Y702074D01*
X814171Y702095D01*
X814048Y702121D01*
X813926Y702156D01*
X813865Y702161D01*
X813831Y702168D01*
X813783Y702167D01*
X813682Y702175D01*
X802468Y702175D01*
X801177Y703467D01*
X801157Y703483D01*
X801140Y703503D01*
X801020Y703591D01*
X800904Y703683D01*
X800880Y703694D01*
X800859Y703710D01*
X800723Y703769D01*
X800589Y703832D01*
X800563Y703838D01*
X800539Y703848D01*
X800393Y703874D01*
X800248Y703906D01*
X800222Y703905D01*
X800196Y703910D01*
X800048Y703902D01*
X799900Y703900D01*
X799874Y703893D01*
X799848Y703892D01*
X799706Y703851D01*
X799562Y703815D01*
X799539Y703803D01*
X799513Y703795D01*
X799384Y703723D01*
X799252Y703655D01*
X799232Y703638D01*
X799209Y703625D01*
X799023Y703467D01*
X797732Y702175D01*
X794124Y702175D01*
X794098Y702172D01*
X794072Y702174D01*
X793925Y702152D01*
X793778Y702135D01*
X793753Y702127D01*
X793727Y702123D01*
X793589Y702068D01*
X793450Y702018D01*
X793428Y702004D01*
X793403Y701994D01*
X793282Y701909D01*
X793157Y701829D01*
X793139Y701810D01*
X793117Y701795D01*
X793018Y701685D01*
X792915Y701578D01*
X792901Y701556D01*
X792884Y701536D01*
X792812Y701406D01*
X792736Y701279D01*
X792728Y701254D01*
X792715Y701231D01*
X792675Y701088D01*
X792630Y700947D01*
X792628Y700921D01*
X792620Y700896D01*
X792601Y700652D01*
X792601Y667764D01*
X792604Y667738D01*
X792602Y667712D01*
X792624Y667565D01*
X792641Y667418D01*
X792649Y667393D01*
X792653Y667367D01*
X792708Y667229D01*
X792758Y667090D01*
X792772Y667068D01*
X792782Y667043D01*
X792867Y666922D01*
X792947Y666797D01*
X792966Y666779D01*
X792981Y666757D01*
X793091Y666658D01*
X793198Y666555D01*
X793220Y666541D01*
X793240Y666524D01*
X793370Y666452D01*
X793497Y666376D01*
X793522Y666368D01*
X793545Y666355D01*
X793688Y666315D01*
X793829Y666270D01*
X793855Y666268D01*
X793880Y666260D01*
X794124Y666241D01*
X797053Y666241D01*
X797053Y658724D01*
X797056Y658698D01*
X797054Y658672D01*
X797076Y658525D01*
X797093Y658378D01*
X797101Y658353D01*
X797105Y658327D01*
X797160Y658189D01*
X797210Y658050D01*
X797224Y658028D01*
X797234Y658003D01*
X797319Y657882D01*
X797399Y657757D01*
X797418Y657739D01*
X797433Y657717D01*
X797543Y657618D01*
X797650Y657515D01*
X797672Y657501D01*
X797692Y657484D01*
X797822Y657412D01*
X797949Y657336D01*
X797974Y657328D01*
X797997Y657315D01*
X798140Y657275D01*
X798281Y657230D01*
X798307Y657228D01*
X798332Y657220D01*
X798576Y657201D01*
X800101Y657201D01*
X800101Y655676D01*
X800104Y655650D01*
X800102Y655624D01*
X800124Y655477D01*
X800141Y655330D01*
X800150Y655305D01*
X800153Y655279D01*
X800208Y655141D01*
X800258Y655002D01*
X800272Y654980D01*
X800282Y654955D01*
X800367Y654834D01*
X800447Y654709D01*
X800466Y654691D01*
X800481Y654669D01*
X800591Y654570D01*
X800698Y654467D01*
X800720Y654453D01*
X800740Y654436D01*
X800870Y654364D01*
X800997Y654288D01*
X801022Y654280D01*
X801045Y654267D01*
X801188Y654227D01*
X801329Y654182D01*
X801355Y654180D01*
X801380Y654172D01*
X801624Y654153D01*
X810141Y654153D01*
X810141Y650365D01*
X809968Y649719D01*
X809633Y649140D01*
X809160Y648667D01*
X808742Y648426D01*
X808701Y648395D01*
X808656Y648372D01*
X808562Y648292D01*
X808462Y648218D01*
X808429Y648179D01*
X808391Y648146D01*
X808317Y648047D01*
X808237Y647952D01*
X808214Y647907D01*
X808183Y647866D01*
X808134Y647752D01*
X808078Y647642D01*
X808066Y647593D01*
X808045Y647546D01*
X808024Y647424D01*
X807994Y647304D01*
X807993Y647253D01*
X807984Y647203D01*
X807990Y647079D01*
X807988Y646956D01*
X807999Y646906D01*
X808002Y646855D01*
X808036Y646736D01*
X808062Y646615D01*
X808084Y646569D01*
X808098Y646520D01*
X808159Y646412D01*
X808212Y646300D01*
X808243Y646260D01*
X808268Y646216D01*
X808427Y646029D01*
X809125Y645332D01*
X809125Y634118D01*
X809139Y633992D01*
X809146Y633866D01*
X809159Y633820D01*
X809165Y633772D01*
X809207Y633653D01*
X809242Y633531D01*
X809266Y633489D01*
X809282Y633443D01*
X809351Y633337D01*
X809412Y633227D01*
X809452Y633181D01*
X809471Y633151D01*
X809506Y633117D01*
X809571Y633041D01*
X813349Y629263D01*
X813349Y587219D01*
X813352Y587193D01*
X813350Y587167D01*
X813372Y587020D01*
X813389Y586873D01*
X813397Y586848D01*
X813401Y586822D01*
X813456Y586684D01*
X813506Y586545D01*
X813520Y586523D01*
X813530Y586498D01*
X813615Y586377D01*
X813695Y586252D01*
X813714Y586234D01*
X813729Y586212D01*
X813777Y586169D01*
X813777Y575780D01*
X813777Y565864D01*
X813465Y565864D01*
X812819Y566037D01*
X812240Y566372D01*
X812178Y566434D01*
X812079Y566513D01*
X811985Y566597D01*
X811943Y566621D01*
X811905Y566651D01*
X811791Y566705D01*
X811680Y566766D01*
X811633Y566779D01*
X811590Y566800D01*
X811466Y566826D01*
X811344Y566861D01*
X811284Y566866D01*
X811249Y566873D01*
X811201Y566872D01*
X811101Y566880D01*
X809420Y566880D01*
X809394Y566877D01*
X809368Y566879D01*
X809221Y566857D01*
X809074Y566840D01*
X809049Y566832D01*
X809023Y566828D01*
X808885Y566773D01*
X808746Y566723D01*
X808724Y566709D01*
X808699Y566699D01*
X808578Y566614D01*
X808453Y566534D01*
X808435Y566515D01*
X808413Y566500D01*
X808314Y566390D01*
X808211Y566283D01*
X808197Y566261D01*
X808180Y566241D01*
X808108Y566111D01*
X808032Y565984D01*
X808024Y565959D01*
X808011Y565936D01*
X807971Y565793D01*
X807926Y565652D01*
X807924Y565626D01*
X807916Y565601D01*
X807897Y565357D01*
X807897Y548180D01*
X792568Y532851D01*
X780843Y532851D01*
X780817Y532848D01*
X780791Y532850D01*
X780644Y532828D01*
X780497Y532811D01*
X780472Y532803D01*
X780446Y532799D01*
X780308Y532744D01*
X780169Y532694D01*
X780147Y532680D01*
X780122Y532670D01*
X780001Y532585D01*
X779876Y532505D01*
X779858Y532486D01*
X779836Y532471D01*
X779737Y532361D01*
X779634Y532254D01*
X779620Y532232D01*
X779603Y532212D01*
X779531Y532082D01*
X779455Y531955D01*
X779447Y531930D01*
X779434Y531907D01*
X779394Y531764D01*
X779349Y531623D01*
X779347Y531597D01*
X779339Y531572D01*
X779320Y531328D01*
X779320Y503768D01*
X778427Y502875D01*
X762413Y502875D01*
X761520Y503768D01*
X761520Y531328D01*
X761517Y531354D01*
X761519Y531380D01*
X761497Y531527D01*
X761480Y531674D01*
X761472Y531699D01*
X761468Y531725D01*
X761413Y531863D01*
X761363Y532002D01*
X761349Y532024D01*
X761339Y532049D01*
X761254Y532170D01*
X761174Y532295D01*
X761155Y532313D01*
X761140Y532335D01*
X761030Y532434D01*
X760923Y532537D01*
X760901Y532551D01*
X760881Y532568D01*
X760751Y532640D01*
X760624Y532716D01*
X760599Y532724D01*
X760576Y532737D01*
X760433Y532777D01*
X760292Y532822D01*
X760266Y532824D01*
X760241Y532832D01*
X759997Y532851D01*
X728294Y532851D01*
X728168Y532837D01*
X728042Y532830D01*
X727996Y532817D01*
X727948Y532811D01*
X727829Y532769D01*
X727707Y532734D01*
X727665Y532710D01*
X727619Y532694D01*
X727513Y532625D01*
X727403Y532564D01*
X727357Y532524D01*
X727327Y532505D01*
X727293Y532470D01*
X727217Y532405D01*
X714695Y519883D01*
X714616Y519784D01*
X714532Y519690D01*
X714508Y519648D01*
X714478Y519610D01*
X714424Y519496D01*
X714363Y519385D01*
X714350Y519339D01*
X714329Y519295D01*
X714303Y519172D01*
X714268Y519050D01*
X714263Y518989D01*
X714256Y518954D01*
X714257Y518906D01*
X714249Y518806D01*
X714249Y461773D01*
X714257Y461697D01*
X714256Y461621D01*
X714277Y461524D01*
X714289Y461427D01*
X714314Y461355D01*
X714331Y461280D01*
X714373Y461191D01*
X714406Y461099D01*
X714448Y461035D01*
X714480Y460966D01*
X714542Y460889D01*
X714595Y460806D01*
X714650Y460753D01*
X714698Y460693D01*
X714775Y460632D01*
X714846Y460564D01*
X714911Y460525D01*
X714971Y460477D01*
X715104Y460409D01*
X715145Y460385D01*
X715163Y460379D01*
X715189Y460366D01*
X716380Y459873D01*
X718952Y457300D01*
X720345Y453939D01*
X720345Y435061D01*
X718952Y431700D01*
X716380Y429127D01*
X715189Y428634D01*
X715122Y428597D01*
X715051Y428569D01*
X714970Y428513D01*
X714884Y428465D01*
X714828Y428413D01*
X714765Y428370D01*
X714699Y428297D01*
X714626Y428231D01*
X714583Y428168D01*
X714532Y428111D01*
X714484Y428025D01*
X714428Y427944D01*
X714400Y427873D01*
X714363Y427806D01*
X714336Y427711D01*
X714300Y427620D01*
X714289Y427544D01*
X714268Y427471D01*
X714256Y427322D01*
X714249Y427275D01*
X714251Y427256D01*
X714249Y427227D01*
X714249Y420994D01*
X714263Y420868D01*
X714270Y420742D01*
X714283Y420696D01*
X714289Y420648D01*
X714331Y420529D01*
X714366Y420407D01*
X714390Y420365D01*
X714406Y420319D01*
X714475Y420213D01*
X714536Y420103D01*
X714576Y420057D01*
X714595Y420027D01*
X714630Y419993D01*
X714695Y419917D01*
X722685Y411927D01*
X722784Y411848D01*
X722878Y411764D01*
X722920Y411740D01*
X722958Y411710D01*
X723072Y411656D01*
X723183Y411595D01*
X723229Y411582D01*
X723273Y411561D01*
X723396Y411535D01*
X723518Y411500D01*
X723579Y411495D01*
X723614Y411488D01*
X723662Y411489D01*
X723762Y411481D01*
X918109Y411481D01*
X918209Y411492D01*
X918309Y411494D01*
X918382Y411512D01*
X918455Y411521D01*
X918550Y411554D01*
X918647Y411579D01*
X918714Y411613D01*
X918784Y411638D01*
X918868Y411693D01*
X918957Y411739D01*
X919014Y411787D01*
X919076Y411827D01*
X919146Y411899D01*
X919223Y411964D01*
X919267Y412024D01*
X919319Y412078D01*
X919370Y412164D01*
X919430Y412245D01*
X919459Y412313D01*
X919497Y412377D01*
X919528Y412473D01*
X919568Y412565D01*
X919581Y412638D01*
X919604Y412709D01*
X919612Y412809D01*
X919629Y412908D01*
X919626Y412982D01*
X919632Y413056D01*
X919617Y413156D01*
X919612Y413256D01*
X919591Y413327D01*
X919580Y413401D01*
X919543Y413494D01*
X919515Y413591D01*
X919479Y413656D01*
X919451Y413725D01*
X919394Y413807D01*
X919345Y413895D01*
X919280Y413971D01*
X919252Y414011D01*
X919226Y414035D01*
X919186Y414081D01*
X917662Y415605D01*
X917563Y415684D01*
X917469Y415768D01*
X917427Y415792D01*
X917389Y415822D01*
X917275Y415876D01*
X917164Y415937D01*
X917118Y415950D01*
X917074Y415971D01*
X916951Y415997D01*
X916829Y416032D01*
X916768Y416037D01*
X916733Y416044D01*
X916685Y416043D01*
X916585Y416051D01*
X836937Y416051D01*
X822251Y430737D01*
X822251Y480597D01*
X822248Y480623D01*
X822250Y480649D01*
X822228Y480796D01*
X822211Y480943D01*
X822203Y480968D01*
X822199Y480994D01*
X822144Y481132D01*
X822094Y481271D01*
X822080Y481293D01*
X822070Y481318D01*
X821985Y481439D01*
X821905Y481564D01*
X821886Y481582D01*
X821871Y481604D01*
X821761Y481703D01*
X821654Y481806D01*
X821632Y481820D01*
X821612Y481837D01*
X821482Y481909D01*
X821355Y481985D01*
X821330Y481993D01*
X821307Y482006D01*
X821164Y482046D01*
X821023Y482091D01*
X820997Y482093D01*
X820972Y482101D01*
X820728Y482120D01*
X814499Y482120D01*
X814374Y482106D01*
X814248Y482099D01*
X814201Y482086D01*
X814153Y482080D01*
X814034Y482038D01*
X813913Y482003D01*
X813871Y481979D01*
X813825Y481963D01*
X813719Y481894D01*
X813609Y481833D01*
X813562Y481793D01*
X813532Y481774D01*
X813499Y481739D01*
X813422Y481674D01*
X813360Y481612D01*
X812781Y481277D01*
X812135Y481104D01*
X811823Y481104D01*
X811823Y491020D01*
X811823Y500936D01*
X812135Y500936D01*
X812781Y500763D01*
X813360Y500428D01*
X813422Y500366D01*
X813521Y500287D01*
X813615Y500203D01*
X813657Y500179D01*
X813695Y500149D01*
X813809Y500095D01*
X813920Y500034D01*
X813967Y500021D01*
X814010Y500000D01*
X814134Y499974D01*
X814256Y499939D01*
X814316Y499934D01*
X814351Y499927D01*
X814399Y499928D01*
X814499Y499920D01*
X842432Y499920D01*
X843325Y499027D01*
X843325Y492938D01*
X843339Y492812D01*
X843346Y492686D01*
X843349Y492675D01*
X843349Y482394D01*
X843363Y482268D01*
X843370Y482142D01*
X843383Y482096D01*
X843389Y482048D01*
X843431Y481929D01*
X843466Y481807D01*
X843490Y481765D01*
X843506Y481719D01*
X843575Y481613D01*
X843636Y481503D01*
X843676Y481457D01*
X843695Y481427D01*
X843730Y481393D01*
X843795Y481317D01*
X851717Y473395D01*
X851816Y473316D01*
X851910Y473232D01*
X851952Y473208D01*
X851990Y473178D01*
X852104Y473124D01*
X852215Y473063D01*
X852261Y473050D01*
X852305Y473029D01*
X852428Y473003D01*
X852550Y472968D01*
X852611Y472963D01*
X852646Y472956D01*
X852694Y472957D01*
X852794Y472949D01*
X899806Y472949D01*
X899932Y472963D01*
X900058Y472970D01*
X900104Y472983D01*
X900152Y472989D01*
X900271Y473031D01*
X900393Y473066D01*
X900435Y473090D01*
X900481Y473106D01*
X900587Y473175D01*
X900697Y473236D01*
X900743Y473276D01*
X900773Y473295D01*
X900807Y473330D01*
X900883Y473395D01*
X917509Y490021D01*
X917588Y490120D01*
X917672Y490214D01*
X917696Y490256D01*
X917726Y490294D01*
X917780Y490408D01*
X917841Y490519D01*
X917854Y490565D01*
X917875Y490609D01*
X917901Y490732D01*
X917936Y490854D01*
X917941Y490915D01*
X917948Y490950D01*
X917947Y490998D01*
X917955Y491098D01*
X917955Y499088D01*
X923312Y504445D01*
X930888Y504445D01*
X936245Y499088D01*
X936245Y491512D01*
X930888Y486155D01*
X922898Y486155D01*
X922772Y486141D01*
X922646Y486134D01*
X922600Y486121D01*
X922552Y486115D01*
X922433Y486073D01*
X922311Y486038D01*
X922269Y486014D01*
X922223Y485998D01*
X922117Y485929D01*
X922007Y485868D01*
X921961Y485828D01*
X921931Y485809D01*
X921897Y485774D01*
X921821Y485709D01*
X902963Y466851D01*
X849637Y466851D01*
X847405Y469083D01*
X840949Y475539D01*
X840871Y475602D01*
X840798Y475672D01*
X840734Y475710D01*
X840676Y475756D01*
X840585Y475799D01*
X840499Y475850D01*
X840428Y475873D01*
X840361Y475905D01*
X840263Y475926D01*
X840167Y475957D01*
X840093Y475963D01*
X840020Y475978D01*
X839920Y475977D01*
X839820Y475985D01*
X839746Y475974D01*
X839672Y475972D01*
X839575Y475948D01*
X839475Y475933D01*
X839406Y475905D01*
X839334Y475887D01*
X839244Y475841D01*
X839151Y475804D01*
X839090Y475762D01*
X839024Y475728D01*
X838947Y475662D01*
X838865Y475605D01*
X838815Y475550D01*
X838759Y475502D01*
X838699Y475421D01*
X838632Y475346D01*
X838596Y475281D01*
X838551Y475222D01*
X838512Y475129D01*
X838463Y475041D01*
X838443Y474970D01*
X838413Y474902D01*
X838396Y474803D01*
X838368Y474706D01*
X838360Y474606D01*
X838352Y474559D01*
X838354Y474523D01*
X838349Y474462D01*
X838349Y461994D01*
X838363Y461868D01*
X838370Y461742D01*
X838383Y461696D01*
X838389Y461648D01*
X838431Y461529D01*
X838466Y461407D01*
X838490Y461365D01*
X838506Y461319D01*
X838575Y461213D01*
X838636Y461103D01*
X838676Y461057D01*
X838695Y461027D01*
X838730Y460993D01*
X838795Y460917D01*
X839017Y460695D01*
X839116Y460616D01*
X839210Y460532D01*
X839252Y460508D01*
X839290Y460478D01*
X839404Y460424D01*
X839515Y460363D01*
X839561Y460350D01*
X839605Y460329D01*
X839728Y460303D01*
X839850Y460268D01*
X839911Y460263D01*
X839946Y460256D01*
X839994Y460257D01*
X840094Y460249D01*
X912506Y460249D01*
X912632Y460263D01*
X912758Y460270D01*
X912804Y460283D01*
X912852Y460289D01*
X912971Y460331D01*
X913093Y460366D01*
X913135Y460390D01*
X913181Y460406D01*
X913287Y460475D01*
X913397Y460536D01*
X913443Y460576D01*
X913473Y460595D01*
X913507Y460630D01*
X913583Y460695D01*
X917509Y464621D01*
X917588Y464720D01*
X917672Y464814D01*
X917696Y464856D01*
X917726Y464894D01*
X917780Y465008D01*
X917841Y465119D01*
X917854Y465165D01*
X917875Y465209D01*
X917901Y465332D01*
X917936Y465454D01*
X917941Y465515D01*
X917948Y465549D01*
X917947Y465597D01*
X917955Y465698D01*
X917955Y473688D01*
X923312Y479045D01*
X930888Y479045D01*
X936245Y473688D01*
X936245Y466112D01*
X930888Y460755D01*
X922898Y460755D01*
X922772Y460741D01*
X922646Y460734D01*
X922600Y460721D01*
X922552Y460715D01*
X922433Y460673D01*
X922311Y460638D01*
X922269Y460614D01*
X922223Y460598D01*
X922117Y460529D01*
X922007Y460468D01*
X921961Y460428D01*
X921931Y460409D01*
X921897Y460374D01*
X921821Y460309D01*
X917895Y456383D01*
X915663Y454151D01*
X836538Y454151D01*
X836438Y454140D01*
X836338Y454138D01*
X836265Y454120D01*
X836192Y454111D01*
X836097Y454078D01*
X836000Y454053D01*
X835933Y454019D01*
X835863Y453994D01*
X835779Y453939D01*
X835690Y453893D01*
X835633Y453845D01*
X835571Y453805D01*
X835501Y453733D01*
X835424Y453668D01*
X835380Y453608D01*
X835328Y453554D01*
X835277Y453468D01*
X835217Y453387D01*
X835188Y453319D01*
X835150Y453255D01*
X835119Y453159D01*
X835079Y453067D01*
X835066Y452994D01*
X835043Y452923D01*
X835035Y452823D01*
X835018Y452724D01*
X835021Y452650D01*
X835015Y452576D01*
X835030Y452476D01*
X835035Y452376D01*
X835056Y452305D01*
X835067Y452231D01*
X835104Y452138D01*
X835132Y452041D01*
X835168Y451976D01*
X835196Y451907D01*
X835253Y451825D01*
X835302Y451737D01*
X835367Y451661D01*
X835395Y451621D01*
X835421Y451597D01*
X835426Y451591D01*
X835430Y451586D01*
X835434Y451583D01*
X835461Y451551D01*
X839017Y447995D01*
X839116Y447916D01*
X839210Y447832D01*
X839252Y447808D01*
X839290Y447778D01*
X839404Y447724D01*
X839515Y447663D01*
X839561Y447650D01*
X839605Y447629D01*
X839728Y447603D01*
X839850Y447568D01*
X839911Y447563D01*
X839946Y447556D01*
X839994Y447557D01*
X840094Y447549D01*
X916585Y447549D01*
X916711Y447563D01*
X916837Y447570D01*
X916883Y447583D01*
X916931Y447589D01*
X917050Y447631D01*
X917172Y447666D01*
X917214Y447690D01*
X917259Y447706D01*
X917366Y447775D01*
X917476Y447836D01*
X917522Y447876D01*
X917552Y447895D01*
X917586Y447930D01*
X917662Y447995D01*
X923312Y453645D01*
X930888Y453645D01*
X936245Y448288D01*
X936245Y440712D01*
X930888Y435355D01*
X923312Y435355D01*
X917662Y441005D01*
X917563Y441084D01*
X917469Y441168D01*
X917427Y441192D01*
X917389Y441222D01*
X917275Y441276D01*
X917164Y441337D01*
X917118Y441350D01*
X917074Y441371D01*
X916951Y441397D01*
X916829Y441432D01*
X916768Y441437D01*
X916733Y441444D01*
X916685Y441443D01*
X916585Y441451D01*
X836937Y441451D01*
X834705Y443683D01*
X830949Y447439D01*
X830871Y447502D01*
X830798Y447572D01*
X830734Y447610D01*
X830676Y447656D01*
X830585Y447699D01*
X830499Y447750D01*
X830428Y447773D01*
X830361Y447805D01*
X830263Y447826D01*
X830167Y447857D01*
X830093Y447863D01*
X830020Y447878D01*
X829920Y447877D01*
X829820Y447885D01*
X829746Y447874D01*
X829672Y447872D01*
X829575Y447848D01*
X829475Y447833D01*
X829406Y447805D01*
X829334Y447787D01*
X829244Y447741D01*
X829151Y447704D01*
X829090Y447662D01*
X829024Y447628D01*
X828948Y447563D01*
X828865Y447505D01*
X828815Y447450D01*
X828759Y447402D01*
X828699Y447321D01*
X828632Y447246D01*
X828596Y447181D01*
X828551Y447122D01*
X828512Y447029D01*
X828463Y446941D01*
X828443Y446870D01*
X828413Y446802D01*
X828396Y446703D01*
X828368Y446606D01*
X828360Y446506D01*
X828352Y446459D01*
X828354Y446423D01*
X828349Y446362D01*
X828349Y433894D01*
X828363Y433768D01*
X828370Y433642D01*
X828383Y433596D01*
X828389Y433548D01*
X828431Y433429D01*
X828466Y433307D01*
X828490Y433265D01*
X828506Y433219D01*
X828575Y433113D01*
X828636Y433003D01*
X828676Y432957D01*
X828695Y432927D01*
X828730Y432893D01*
X828795Y432817D01*
X839017Y422595D01*
X839116Y422516D01*
X839210Y422432D01*
X839252Y422408D01*
X839290Y422378D01*
X839404Y422324D01*
X839515Y422263D01*
X839561Y422250D01*
X839605Y422229D01*
X839728Y422203D01*
X839850Y422168D01*
X839911Y422163D01*
X839946Y422156D01*
X839994Y422157D01*
X840094Y422149D01*
X916585Y422149D01*
X916711Y422163D01*
X916837Y422170D01*
X916883Y422183D01*
X916931Y422189D01*
X917050Y422231D01*
X917172Y422266D01*
X917214Y422290D01*
X917259Y422306D01*
X917366Y422375D01*
X917476Y422436D01*
X917522Y422476D01*
X917552Y422495D01*
X917586Y422530D01*
X917662Y422595D01*
X923312Y428245D01*
X930888Y428245D01*
X936245Y422888D01*
X936245Y415312D01*
X935014Y414081D01*
X934951Y414002D01*
X934881Y413930D01*
X934843Y413866D01*
X934797Y413808D01*
X934754Y413717D01*
X934703Y413631D01*
X934680Y413560D01*
X934648Y413493D01*
X934627Y413395D01*
X934596Y413299D01*
X934590Y413225D01*
X934575Y413152D01*
X934576Y413052D01*
X934568Y412952D01*
X934579Y412878D01*
X934581Y412804D01*
X934605Y412707D01*
X934620Y412607D01*
X934648Y412538D01*
X934666Y412466D01*
X934712Y412377D01*
X934749Y412283D01*
X934791Y412222D01*
X934825Y412156D01*
X934890Y412080D01*
X934948Y411997D01*
X935003Y411947D01*
X935051Y411891D01*
X935132Y411831D01*
X935207Y411764D01*
X935272Y411728D01*
X935331Y411683D01*
X935424Y411644D01*
X935512Y411595D01*
X935583Y411575D01*
X935651Y411545D01*
X935750Y411528D01*
X935847Y411500D01*
X935947Y411492D01*
X935995Y411484D01*
X936030Y411486D01*
X936091Y411481D01*
X942325Y411481D01*
X942450Y411495D01*
X942577Y411502D01*
X942623Y411515D01*
X942671Y411521D01*
X942790Y411563D01*
X942912Y411598D01*
X942954Y411622D01*
X942999Y411638D01*
X943106Y411707D01*
X943216Y411768D01*
X943262Y411808D01*
X943292Y411827D01*
X943326Y411862D01*
X943402Y411927D01*
X943994Y412519D01*
X944011Y412539D01*
X944031Y412557D01*
X944119Y412676D01*
X944211Y412792D01*
X944222Y412816D01*
X944238Y412837D01*
X944296Y412972D01*
X944360Y413107D01*
X944365Y413133D01*
X944376Y413157D01*
X944402Y413303D01*
X944433Y413448D01*
X944433Y413474D01*
X944437Y413500D01*
X944430Y413648D01*
X944427Y413796D01*
X944421Y413822D01*
X944419Y413848D01*
X944378Y413990D01*
X944342Y414134D01*
X944330Y414158D01*
X944323Y414183D01*
X944251Y414312D01*
X944183Y414444D01*
X944166Y414464D01*
X944153Y414487D01*
X943994Y414673D01*
X943355Y415312D01*
X943355Y422888D01*
X948712Y428245D01*
X956288Y428245D01*
X961645Y422888D01*
X961645Y415312D01*
X956288Y409955D01*
X950685Y409955D01*
X950559Y409941D01*
X950433Y409934D01*
X950386Y409921D01*
X950338Y409915D01*
X950220Y409873D01*
X950098Y409838D01*
X950056Y409814D01*
X950010Y409798D01*
X949904Y409729D01*
X949794Y409668D01*
X949748Y409628D01*
X949718Y409609D01*
X949705Y409596D01*
X949704Y409595D01*
X949681Y409572D01*
X949608Y409509D01*
X947714Y407615D01*
X945482Y405383D01*
X720605Y405383D01*
G37*
%LPD*%
%LPC*%
G36*
X760181Y427735D02*
X760181Y427735D01*
X756820Y429128D01*
X754248Y431700D01*
X752855Y435061D01*
X752855Y453939D01*
X754248Y457300D01*
X756820Y459872D01*
X760181Y461265D01*
X761122Y461265D01*
X761248Y461279D01*
X761374Y461286D01*
X761420Y461299D01*
X761468Y461305D01*
X761587Y461347D01*
X761709Y461382D01*
X761751Y461406D01*
X761797Y461422D01*
X761903Y461491D01*
X762013Y461552D01*
X762059Y461592D01*
X762089Y461611D01*
X762123Y461646D01*
X762199Y461711D01*
X781805Y481317D01*
X781884Y481416D01*
X781968Y481510D01*
X781992Y481552D01*
X782022Y481590D01*
X782076Y481704D01*
X782137Y481815D01*
X782150Y481861D01*
X782171Y481905D01*
X782197Y482028D01*
X782232Y482150D01*
X782237Y482211D01*
X782244Y482246D01*
X782243Y482294D01*
X782251Y482394D01*
X782251Y492679D01*
X782256Y492694D01*
X782260Y492754D01*
X782268Y492788D01*
X782267Y492837D01*
X782275Y492938D01*
X782275Y499027D01*
X783168Y499920D01*
X806101Y499920D01*
X806226Y499934D01*
X806353Y499941D01*
X806399Y499954D01*
X806447Y499960D01*
X806566Y500002D01*
X806687Y500037D01*
X806730Y500061D01*
X806775Y500077D01*
X806881Y500146D01*
X806992Y500207D01*
X807038Y500247D01*
X807068Y500266D01*
X807101Y500301D01*
X807178Y500366D01*
X807240Y500428D01*
X807819Y500763D01*
X808465Y500936D01*
X808777Y500936D01*
X808777Y491020D01*
X808777Y481104D01*
X808465Y481104D01*
X807819Y481277D01*
X807240Y481612D01*
X807178Y481674D01*
X807079Y481753D01*
X806985Y481837D01*
X806943Y481861D01*
X806905Y481891D01*
X806791Y481945D01*
X806680Y482006D01*
X806633Y482019D01*
X806590Y482040D01*
X806466Y482066D01*
X806344Y482101D01*
X806284Y482106D01*
X806249Y482113D01*
X806201Y482112D01*
X806101Y482120D01*
X794872Y482120D01*
X794846Y482117D01*
X794820Y482119D01*
X794673Y482097D01*
X794526Y482080D01*
X794501Y482072D01*
X794475Y482068D01*
X794337Y482013D01*
X794198Y481963D01*
X794176Y481949D01*
X794151Y481939D01*
X794030Y481854D01*
X793905Y481774D01*
X793887Y481755D01*
X793865Y481740D01*
X793766Y481630D01*
X793663Y481523D01*
X793649Y481501D01*
X793632Y481481D01*
X793560Y481351D01*
X793484Y481224D01*
X793476Y481199D01*
X793463Y481176D01*
X793423Y481033D01*
X793378Y480892D01*
X793376Y480866D01*
X793368Y480841D01*
X793349Y480597D01*
X793349Y459735D01*
X793363Y459609D01*
X793370Y459483D01*
X793383Y459437D01*
X793389Y459389D01*
X793431Y459270D01*
X793466Y459148D01*
X793490Y459106D01*
X793506Y459061D01*
X793575Y458954D01*
X793636Y458844D01*
X793676Y458798D01*
X793695Y458768D01*
X793730Y458734D01*
X793795Y458658D01*
X795152Y457300D01*
X796545Y453939D01*
X796545Y435061D01*
X795152Y431700D01*
X792580Y429128D01*
X789219Y427735D01*
X785581Y427735D01*
X782220Y429128D01*
X779648Y431700D01*
X778255Y435061D01*
X778255Y453939D01*
X779648Y457300D01*
X782220Y459872D01*
X785581Y461265D01*
X785728Y461265D01*
X785754Y461268D01*
X785780Y461266D01*
X785927Y461288D01*
X786074Y461305D01*
X786099Y461313D01*
X786125Y461317D01*
X786263Y461372D01*
X786402Y461422D01*
X786424Y461436D01*
X786449Y461446D01*
X786570Y461531D01*
X786695Y461611D01*
X786713Y461630D01*
X786735Y461645D01*
X786834Y461755D01*
X786937Y461862D01*
X786951Y461884D01*
X786968Y461904D01*
X787040Y462034D01*
X787116Y462161D01*
X787124Y462186D01*
X787137Y462209D01*
X787177Y462352D01*
X787222Y462493D01*
X787224Y462519D01*
X787232Y462544D01*
X787251Y462788D01*
X787251Y474462D01*
X787240Y474562D01*
X787238Y474662D01*
X787220Y474735D01*
X787211Y474808D01*
X787178Y474903D01*
X787153Y475000D01*
X787119Y475067D01*
X787094Y475137D01*
X787039Y475221D01*
X786993Y475310D01*
X786945Y475367D01*
X786905Y475429D01*
X786833Y475499D01*
X786768Y475576D01*
X786708Y475620D01*
X786654Y475672D01*
X786568Y475723D01*
X786487Y475783D01*
X786419Y475812D01*
X786355Y475850D01*
X786259Y475881D01*
X786167Y475921D01*
X786094Y475934D01*
X786023Y475957D01*
X785923Y475965D01*
X785824Y475982D01*
X785750Y475979D01*
X785676Y475985D01*
X785576Y475970D01*
X785476Y475965D01*
X785405Y475944D01*
X785331Y475933D01*
X785238Y475896D01*
X785141Y475868D01*
X785076Y475832D01*
X785007Y475804D01*
X784925Y475747D01*
X784837Y475698D01*
X784761Y475633D01*
X784721Y475605D01*
X784697Y475579D01*
X784651Y475539D01*
X769159Y460048D01*
X769143Y460027D01*
X769123Y460010D01*
X769035Y459891D01*
X768943Y459775D01*
X768931Y459751D01*
X768916Y459730D01*
X768857Y459593D01*
X768794Y459460D01*
X768788Y459434D01*
X768778Y459410D01*
X768751Y459263D01*
X768720Y459119D01*
X768721Y459093D01*
X768716Y459067D01*
X768724Y458918D01*
X768726Y458770D01*
X768733Y458745D01*
X768734Y458719D01*
X768775Y458576D01*
X768811Y458432D01*
X768823Y458409D01*
X768831Y458384D01*
X768903Y458255D01*
X768971Y458123D01*
X768988Y458103D01*
X769001Y458080D01*
X769159Y457893D01*
X769753Y457300D01*
X771145Y453939D01*
X771145Y435061D01*
X769752Y431700D01*
X767180Y429128D01*
X763819Y427735D01*
X760181Y427735D01*
G37*
%LPD*%
%LPC*%
G36*
X589967Y468825D02*
X589967Y468825D01*
X589074Y469718D01*
X589074Y472230D01*
X589071Y472256D01*
X589073Y472282D01*
X589051Y472429D01*
X589034Y472576D01*
X589026Y472601D01*
X589022Y472627D01*
X588967Y472765D01*
X588917Y472904D01*
X588903Y472926D01*
X588893Y472951D01*
X588808Y473072D01*
X588728Y473197D01*
X588709Y473215D01*
X588694Y473237D01*
X588584Y473336D01*
X588477Y473439D01*
X588455Y473453D01*
X588435Y473470D01*
X588305Y473542D01*
X588254Y473573D01*
X584502Y477325D01*
X584502Y487875D01*
X588241Y491614D01*
X588247Y491618D01*
X588272Y491628D01*
X588393Y491713D01*
X588518Y491793D01*
X588536Y491812D01*
X588558Y491827D01*
X588657Y491937D01*
X588760Y492044D01*
X588774Y492066D01*
X588791Y492086D01*
X588863Y492216D01*
X588939Y492343D01*
X588947Y492368D01*
X588960Y492391D01*
X589000Y492534D01*
X589045Y492675D01*
X589047Y492701D01*
X589055Y492726D01*
X589074Y492970D01*
X589074Y495482D01*
X589967Y496375D01*
X592328Y496375D01*
X592354Y496378D01*
X592380Y496376D01*
X592527Y496398D01*
X592674Y496415D01*
X592699Y496423D01*
X592725Y496427D01*
X592863Y496482D01*
X593002Y496532D01*
X593024Y496546D01*
X593049Y496556D01*
X593170Y496641D01*
X593295Y496721D01*
X593313Y496740D01*
X593335Y496755D01*
X593434Y496865D01*
X593537Y496972D01*
X593551Y496994D01*
X593568Y497014D01*
X593640Y497144D01*
X593716Y497271D01*
X593724Y497296D01*
X593737Y497319D01*
X593777Y497462D01*
X593822Y497603D01*
X593824Y497629D01*
X593832Y497654D01*
X593851Y497898D01*
X593851Y541527D01*
X593843Y541603D01*
X593844Y541679D01*
X593823Y541775D01*
X593811Y541873D01*
X593786Y541945D01*
X593769Y542020D01*
X593727Y542108D01*
X593694Y542201D01*
X593652Y542265D01*
X593620Y542334D01*
X593558Y542411D01*
X593505Y542494D01*
X593450Y542547D01*
X593402Y542607D01*
X593325Y542668D01*
X593254Y542736D01*
X593189Y542775D01*
X593129Y542823D01*
X592995Y542891D01*
X592955Y542915D01*
X592937Y542921D01*
X592911Y542934D01*
X591720Y543427D01*
X589148Y546000D01*
X587755Y549361D01*
X587755Y568239D01*
X589148Y571600D01*
X591720Y574172D01*
X595081Y575565D01*
X598719Y575565D01*
X602080Y574172D01*
X604652Y571600D01*
X606045Y568239D01*
X606045Y549361D01*
X604652Y546000D01*
X602080Y543427D01*
X600889Y542934D01*
X600822Y542897D01*
X600751Y542869D01*
X600670Y542813D01*
X600584Y542765D01*
X600528Y542713D01*
X600465Y542670D01*
X600399Y542597D01*
X600326Y542531D01*
X600283Y542468D01*
X600232Y542411D01*
X600184Y542325D01*
X600128Y542244D01*
X600100Y542173D01*
X600063Y542106D01*
X600036Y542011D01*
X600000Y541920D01*
X599989Y541844D01*
X599968Y541771D01*
X599956Y541622D01*
X599949Y541575D01*
X599951Y541556D01*
X599949Y541527D01*
X599949Y497898D01*
X599952Y497872D01*
X599950Y497846D01*
X599972Y497699D01*
X599989Y497552D01*
X599997Y497527D01*
X600001Y497501D01*
X600056Y497363D01*
X600106Y497224D01*
X600120Y497202D01*
X600130Y497177D01*
X600215Y497056D01*
X600295Y496931D01*
X600314Y496913D01*
X600329Y496891D01*
X600439Y496792D01*
X600546Y496689D01*
X600568Y496675D01*
X600588Y496658D01*
X600718Y496586D01*
X600845Y496510D01*
X600870Y496502D01*
X600893Y496489D01*
X601036Y496449D01*
X601177Y496404D01*
X601203Y496402D01*
X601228Y496394D01*
X601472Y496375D01*
X603231Y496375D01*
X604124Y495482D01*
X604124Y488272D01*
X604112Y488218D01*
X604112Y488191D01*
X604108Y488165D01*
X604115Y488017D01*
X604118Y487869D01*
X604124Y487843D01*
X604126Y487817D01*
X604166Y487675D01*
X604202Y487531D01*
X604215Y487507D01*
X604222Y487482D01*
X604294Y487353D01*
X604362Y487222D01*
X604379Y487201D01*
X604392Y487178D01*
X604551Y486991D01*
X604632Y486910D01*
X604967Y486331D01*
X605140Y485685D01*
X605140Y484123D01*
X596599Y484123D01*
X596573Y484120D01*
X596547Y484122D01*
X596400Y484100D01*
X596253Y484084D01*
X596228Y484075D01*
X596202Y484071D01*
X596065Y484016D01*
X595925Y483966D01*
X595903Y483952D01*
X595879Y483942D01*
X595757Y483858D01*
X595632Y483777D01*
X595614Y483758D01*
X595592Y483743D01*
X595493Y483633D01*
X595390Y483526D01*
X595377Y483504D01*
X595359Y483484D01*
X595287Y483354D01*
X595211Y483227D01*
X595203Y483202D01*
X595190Y483179D01*
X595150Y483036D01*
X595105Y482895D01*
X595103Y482869D01*
X595096Y482844D01*
X595076Y482600D01*
X595079Y482574D01*
X595077Y482548D01*
X595099Y482401D01*
X595116Y482254D01*
X595125Y482229D01*
X595129Y482203D01*
X595183Y482065D01*
X595233Y481926D01*
X595248Y481903D01*
X595257Y481879D01*
X595342Y481758D01*
X595422Y481633D01*
X595441Y481614D01*
X595456Y481593D01*
X595566Y481494D01*
X595673Y481391D01*
X595696Y481377D01*
X595715Y481359D01*
X595845Y481288D01*
X595972Y481212D01*
X595997Y481204D01*
X596020Y481191D01*
X596163Y481151D01*
X596304Y481105D01*
X596330Y481103D01*
X596356Y481096D01*
X596599Y481077D01*
X605140Y481077D01*
X605140Y479515D01*
X604967Y478869D01*
X604632Y478290D01*
X604551Y478209D01*
X604534Y478188D01*
X604514Y478170D01*
X604426Y478051D01*
X604334Y477936D01*
X604323Y477911D01*
X604307Y477890D01*
X604248Y477754D01*
X604185Y477621D01*
X604180Y477594D01*
X604169Y477570D01*
X604143Y477424D01*
X604112Y477280D01*
X604112Y477253D01*
X604108Y477227D01*
X604115Y477079D01*
X604118Y476932D01*
X604124Y476908D01*
X604124Y469718D01*
X603231Y468825D01*
X589967Y468825D01*
G37*
%LPD*%
%LPC*%
G36*
X637665Y434459D02*
X637665Y434459D01*
X637019Y434632D01*
X636440Y434967D01*
X635967Y435440D01*
X635726Y435858D01*
X635695Y435899D01*
X635672Y435944D01*
X635592Y436038D01*
X635518Y436138D01*
X635479Y436171D01*
X635446Y436209D01*
X635347Y436283D01*
X635252Y436363D01*
X635207Y436386D01*
X635166Y436417D01*
X635052Y436466D01*
X634942Y436522D01*
X634893Y436534D01*
X634846Y436555D01*
X634724Y436576D01*
X634604Y436606D01*
X634553Y436607D01*
X634503Y436616D01*
X634379Y436610D01*
X634256Y436612D01*
X634206Y436601D01*
X634155Y436598D01*
X634036Y436564D01*
X633915Y436538D01*
X633869Y436516D01*
X633820Y436502D01*
X633712Y436441D01*
X633600Y436388D01*
X633560Y436357D01*
X633516Y436332D01*
X633329Y436173D01*
X632632Y435475D01*
X618368Y435475D01*
X617475Y436368D01*
X617475Y452632D01*
X618420Y453576D01*
X618426Y453577D01*
X618564Y453632D01*
X618703Y453682D01*
X618725Y453696D01*
X618750Y453706D01*
X618871Y453791D01*
X618996Y453871D01*
X619014Y453890D01*
X619036Y453905D01*
X619135Y454015D01*
X619238Y454122D01*
X619252Y454144D01*
X619269Y454164D01*
X619341Y454294D01*
X619417Y454421D01*
X619425Y454446D01*
X619438Y454469D01*
X619478Y454612D01*
X619523Y454753D01*
X619525Y454779D01*
X619533Y454804D01*
X619552Y455048D01*
X619552Y467302D01*
X619549Y467328D01*
X619551Y467354D01*
X619529Y467501D01*
X619512Y467648D01*
X619504Y467673D01*
X619500Y467699D01*
X619445Y467837D01*
X619395Y467976D01*
X619381Y467998D01*
X619371Y468023D01*
X619286Y468144D01*
X619206Y468269D01*
X619187Y468287D01*
X619172Y468309D01*
X619062Y468408D01*
X618955Y468511D01*
X618933Y468525D01*
X618913Y468542D01*
X618783Y468614D01*
X618656Y468690D01*
X618631Y468698D01*
X618608Y468711D01*
X618465Y468751D01*
X618324Y468796D01*
X618298Y468798D01*
X618273Y468806D01*
X618029Y468825D01*
X615969Y468825D01*
X615076Y469718D01*
X615076Y476482D01*
X615969Y477375D01*
X629233Y477375D01*
X630126Y476482D01*
X630126Y469718D01*
X629233Y468825D01*
X627173Y468825D01*
X627147Y468822D01*
X627121Y468824D01*
X626974Y468802D01*
X626827Y468785D01*
X626802Y468777D01*
X626776Y468773D01*
X626638Y468718D01*
X626499Y468668D01*
X626477Y468654D01*
X626452Y468644D01*
X626331Y468559D01*
X626206Y468479D01*
X626188Y468460D01*
X626166Y468445D01*
X626067Y468335D01*
X625964Y468228D01*
X625950Y468206D01*
X625933Y468186D01*
X625861Y468056D01*
X625785Y467929D01*
X625777Y467904D01*
X625764Y467881D01*
X625724Y467738D01*
X625679Y467597D01*
X625677Y467571D01*
X625669Y467546D01*
X625650Y467302D01*
X625650Y455048D01*
X625653Y455022D01*
X625651Y454996D01*
X625673Y454849D01*
X625690Y454702D01*
X625698Y454677D01*
X625702Y454651D01*
X625757Y454513D01*
X625807Y454374D01*
X625821Y454352D01*
X625831Y454327D01*
X625916Y454206D01*
X625996Y454081D01*
X626015Y454063D01*
X626030Y454041D01*
X626140Y453942D01*
X626247Y453839D01*
X626269Y453825D01*
X626289Y453808D01*
X626419Y453736D01*
X626546Y453660D01*
X626571Y453652D01*
X626594Y453639D01*
X626737Y453599D01*
X626878Y453554D01*
X626904Y453552D01*
X626929Y453544D01*
X627173Y453525D01*
X632632Y453525D01*
X633329Y452827D01*
X633370Y452795D01*
X633404Y452757D01*
X633505Y452687D01*
X633602Y452610D01*
X633649Y452588D01*
X633691Y452559D01*
X633806Y452514D01*
X633918Y452461D01*
X633967Y452451D01*
X634015Y452432D01*
X634137Y452414D01*
X634258Y452388D01*
X634309Y452389D01*
X634360Y452381D01*
X634483Y452392D01*
X634607Y452394D01*
X634656Y452406D01*
X634707Y452411D01*
X634825Y452449D01*
X634945Y452479D01*
X634990Y452502D01*
X635039Y452518D01*
X635145Y452582D01*
X635254Y452639D01*
X635293Y452672D01*
X635337Y452698D01*
X635426Y452784D01*
X635520Y452864D01*
X635550Y452905D01*
X635587Y452941D01*
X635726Y453142D01*
X635967Y453560D01*
X636440Y454033D01*
X637019Y454368D01*
X637665Y454541D01*
X641453Y454541D01*
X641453Y446024D01*
X641456Y445998D01*
X641454Y445972D01*
X641476Y445825D01*
X641493Y445678D01*
X641501Y445653D01*
X641505Y445627D01*
X641560Y445489D01*
X641610Y445350D01*
X641624Y445328D01*
X641634Y445303D01*
X641719Y445182D01*
X641799Y445057D01*
X641818Y445039D01*
X641833Y445017D01*
X641943Y444918D01*
X642050Y444815D01*
X642072Y444801D01*
X642092Y444784D01*
X642222Y444712D01*
X642349Y444636D01*
X642374Y444628D01*
X642397Y444615D01*
X642540Y444575D01*
X642681Y444530D01*
X642707Y444528D01*
X642732Y444520D01*
X642976Y444501D01*
X644501Y444501D01*
X644501Y444499D01*
X642976Y444499D01*
X642950Y444496D01*
X642924Y444498D01*
X642777Y444476D01*
X642630Y444459D01*
X642605Y444450D01*
X642579Y444447D01*
X642441Y444392D01*
X642302Y444342D01*
X642280Y444328D01*
X642255Y444318D01*
X642134Y444233D01*
X642009Y444153D01*
X641991Y444134D01*
X641969Y444119D01*
X641870Y444009D01*
X641767Y443902D01*
X641753Y443880D01*
X641736Y443860D01*
X641664Y443730D01*
X641588Y443603D01*
X641580Y443578D01*
X641567Y443555D01*
X641527Y443412D01*
X641482Y443271D01*
X641480Y443245D01*
X641472Y443220D01*
X641453Y442976D01*
X641453Y434459D01*
X637665Y434459D01*
G37*
%LPD*%
%LPC*%
G36*
X758149Y813561D02*
X758149Y813561D01*
X754788Y814954D01*
X752216Y817526D01*
X750823Y820887D01*
X750823Y824525D01*
X752216Y827886D01*
X754788Y830458D01*
X758149Y831851D01*
X777027Y831851D01*
X780388Y830458D01*
X782960Y827886D01*
X784353Y824525D01*
X784353Y820887D01*
X782960Y817526D01*
X780388Y814954D01*
X777027Y813561D01*
X758149Y813561D01*
G37*
%LPD*%
%LPC*%
G36*
X758149Y768349D02*
X758149Y768349D01*
X754788Y769742D01*
X752216Y772314D01*
X750823Y775675D01*
X750823Y779313D01*
X752216Y782674D01*
X754788Y785246D01*
X758149Y786639D01*
X777027Y786639D01*
X780388Y785246D01*
X782960Y782674D01*
X784353Y779313D01*
X784353Y775675D01*
X782960Y772314D01*
X780388Y769742D01*
X777027Y768349D01*
X758149Y768349D01*
G37*
%LPD*%
%LPC*%
G36*
X732812Y714755D02*
X732812Y714755D01*
X727455Y720112D01*
X727455Y727688D01*
X732812Y733045D01*
X740388Y733045D01*
X745745Y727688D01*
X745745Y720112D01*
X740388Y714755D01*
X732812Y714755D01*
G37*
%LPD*%
%LPC*%
G36*
X707412Y714755D02*
X707412Y714755D01*
X702055Y720112D01*
X702055Y727688D01*
X707412Y733045D01*
X714988Y733045D01*
X720345Y727688D01*
X720345Y720112D01*
X714988Y714755D01*
X707412Y714755D01*
G37*
%LPD*%
%LPC*%
G36*
X707412Y689355D02*
X707412Y689355D01*
X702055Y694712D01*
X702055Y702288D01*
X707412Y707645D01*
X714988Y707645D01*
X720345Y702288D01*
X720345Y694712D01*
X714988Y689355D01*
X707412Y689355D01*
G37*
%LPD*%
%LPC*%
G36*
X624839Y561339D02*
X624839Y561339D01*
X624839Y576279D01*
X626200Y575836D01*
X627625Y575110D01*
X628919Y574170D01*
X630050Y573039D01*
X630990Y571745D01*
X631716Y570320D01*
X632211Y568799D01*
X632461Y567220D01*
X632461Y561339D01*
X624839Y561339D01*
G37*
%LPD*%
%LPC*%
G36*
X739139Y447039D02*
X739139Y447039D01*
X739139Y461979D01*
X740500Y461536D01*
X741925Y460810D01*
X743219Y459870D01*
X744350Y458739D01*
X745290Y457445D01*
X746016Y456020D01*
X746511Y454499D01*
X746761Y452920D01*
X746761Y447039D01*
X739139Y447039D01*
G37*
%LPD*%
%LPC*%
G36*
X835151Y825245D02*
X835151Y825245D01*
X835151Y832867D01*
X841032Y832867D01*
X842611Y832617D01*
X844132Y832122D01*
X845557Y831396D01*
X846851Y830456D01*
X847982Y829325D01*
X848922Y828031D01*
X849648Y826606D01*
X850091Y825245D01*
X835151Y825245D01*
G37*
%LPD*%
%LPC*%
G36*
X929639Y726439D02*
X929639Y726439D01*
X929639Y734061D01*
X935520Y734061D01*
X937099Y733811D01*
X938620Y733316D01*
X940045Y732590D01*
X941339Y731650D01*
X942470Y730519D01*
X943410Y729225D01*
X944136Y727800D01*
X944579Y726439D01*
X929639Y726439D01*
G37*
%LPD*%
%LPC*%
G36*
X967739Y637539D02*
X967739Y637539D01*
X967739Y645161D01*
X973620Y645161D01*
X975199Y644911D01*
X976720Y644416D01*
X978145Y643690D01*
X979439Y642750D01*
X980570Y641619D01*
X981510Y640325D01*
X982236Y638900D01*
X982679Y637539D01*
X967739Y637539D01*
G37*
%LPD*%
%LPC*%
G36*
X916939Y637539D02*
X916939Y637539D01*
X916939Y645161D01*
X922820Y645161D01*
X924399Y644911D01*
X925920Y644416D01*
X927345Y643690D01*
X928639Y642750D01*
X929770Y641619D01*
X930710Y640325D01*
X931436Y638900D01*
X931879Y637539D01*
X916939Y637539D01*
G37*
%LPD*%
%LPC*%
G36*
X815133Y825245D02*
X815133Y825245D01*
X815576Y826606D01*
X816302Y828031D01*
X817242Y829325D01*
X818373Y830456D01*
X819667Y831396D01*
X821092Y832122D01*
X822613Y832617D01*
X824192Y832867D01*
X830073Y832867D01*
X830073Y825245D01*
X815133Y825245D01*
G37*
%LPD*%
%LPC*%
G36*
X909621Y726439D02*
X909621Y726439D01*
X910064Y727800D01*
X910790Y729225D01*
X911730Y730519D01*
X912861Y731650D01*
X914155Y732590D01*
X915580Y733316D01*
X917101Y733811D01*
X918680Y734061D01*
X924561Y734061D01*
X924561Y726439D01*
X909621Y726439D01*
G37*
%LPD*%
%LPC*%
G36*
X947721Y637539D02*
X947721Y637539D01*
X948164Y638900D01*
X948890Y640325D01*
X949830Y641619D01*
X950961Y642750D01*
X952255Y643690D01*
X953680Y644416D01*
X955201Y644911D01*
X956780Y645161D01*
X962661Y645161D01*
X962661Y637539D01*
X947721Y637539D01*
G37*
%LPD*%
%LPC*%
G36*
X896921Y637539D02*
X896921Y637539D01*
X897364Y638900D01*
X898090Y640325D01*
X899030Y641619D01*
X900161Y642750D01*
X901455Y643690D01*
X902880Y644416D01*
X904401Y644911D01*
X905980Y645161D01*
X911861Y645161D01*
X911861Y637539D01*
X896921Y637539D01*
G37*
%LPD*%
%LPC*%
G36*
X624839Y556261D02*
X624839Y556261D01*
X632461Y556261D01*
X632461Y550380D01*
X632211Y548801D01*
X631716Y547280D01*
X630990Y545855D01*
X630050Y544561D01*
X628919Y543430D01*
X627625Y542490D01*
X626200Y541764D01*
X624839Y541321D01*
X624839Y556261D01*
G37*
%LPD*%
%LPC*%
G36*
X739139Y441961D02*
X739139Y441961D01*
X746761Y441961D01*
X746761Y436080D01*
X746511Y434501D01*
X746016Y432980D01*
X745290Y431555D01*
X744350Y430261D01*
X743219Y429130D01*
X741925Y428190D01*
X740500Y427464D01*
X739139Y427021D01*
X739139Y441961D01*
G37*
%LPD*%
%LPC*%
G36*
X835151Y812545D02*
X835151Y812545D01*
X835151Y820167D01*
X850091Y820167D01*
X849648Y818806D01*
X848922Y817381D01*
X847982Y816087D01*
X846851Y814956D01*
X845557Y814016D01*
X844132Y813290D01*
X842611Y812795D01*
X841032Y812545D01*
X835151Y812545D01*
G37*
%LPD*%
%LPC*%
G36*
X612139Y561339D02*
X612139Y561339D01*
X612139Y567220D01*
X612389Y568799D01*
X612884Y570320D01*
X613610Y571745D01*
X614550Y573039D01*
X615681Y574170D01*
X616975Y575110D01*
X618400Y575836D01*
X619761Y576279D01*
X619761Y561339D01*
X612139Y561339D01*
G37*
%LPD*%
%LPC*%
G36*
X967739Y624839D02*
X967739Y624839D01*
X967739Y632461D01*
X982679Y632461D01*
X982236Y631100D01*
X981510Y629675D01*
X980570Y628381D01*
X979439Y627250D01*
X978145Y626310D01*
X976720Y625584D01*
X975199Y625089D01*
X973620Y624839D01*
X967739Y624839D01*
G37*
%LPD*%
%LPC*%
G36*
X916939Y624839D02*
X916939Y624839D01*
X916939Y632461D01*
X931879Y632461D01*
X931436Y631100D01*
X930710Y629675D01*
X929770Y628381D01*
X928639Y627250D01*
X927345Y626310D01*
X925920Y625584D01*
X924399Y625089D01*
X922820Y624839D01*
X916939Y624839D01*
G37*
%LPD*%
%LPC*%
G36*
X726439Y447039D02*
X726439Y447039D01*
X726439Y452920D01*
X726689Y454499D01*
X727184Y456020D01*
X727910Y457445D01*
X728850Y458739D01*
X729981Y459870D01*
X731275Y460810D01*
X732700Y461536D01*
X734061Y461979D01*
X734061Y447039D01*
X726439Y447039D01*
G37*
%LPD*%
%LPC*%
G36*
X929639Y713739D02*
X929639Y713739D01*
X929639Y721361D01*
X944579Y721361D01*
X944136Y720000D01*
X943410Y718575D01*
X942470Y717281D01*
X941339Y716150D01*
X940045Y715210D01*
X938620Y714484D01*
X937099Y713989D01*
X935520Y713739D01*
X929639Y713739D01*
G37*
%LPD*%
%LPC*%
G36*
X824192Y812545D02*
X824192Y812545D01*
X822613Y812795D01*
X821092Y813290D01*
X819667Y814016D01*
X818373Y814956D01*
X817242Y816087D01*
X816302Y817381D01*
X815576Y818806D01*
X815133Y820167D01*
X830073Y820167D01*
X830073Y812545D01*
X824192Y812545D01*
G37*
%LPD*%
%LPC*%
G36*
X918680Y713739D02*
X918680Y713739D01*
X917101Y713989D01*
X915580Y714484D01*
X914155Y715210D01*
X912861Y716150D01*
X911730Y717281D01*
X910790Y718575D01*
X910064Y720000D01*
X909621Y721361D01*
X924561Y721361D01*
X924561Y713739D01*
X918680Y713739D01*
G37*
%LPD*%
%LPC*%
G36*
X956780Y624839D02*
X956780Y624839D01*
X955201Y625089D01*
X953680Y625584D01*
X952255Y626310D01*
X950961Y627250D01*
X949830Y628381D01*
X948890Y629675D01*
X948164Y631100D01*
X947721Y632461D01*
X962661Y632461D01*
X962661Y624839D01*
X956780Y624839D01*
G37*
%LPD*%
%LPC*%
G36*
X905980Y624839D02*
X905980Y624839D01*
X904401Y625089D01*
X902880Y625584D01*
X901455Y626310D01*
X900161Y627250D01*
X899030Y628381D01*
X898090Y629675D01*
X897364Y631100D01*
X896921Y632461D01*
X911861Y632461D01*
X911861Y624839D01*
X905980Y624839D01*
G37*
%LPD*%
%LPC*%
G36*
X618400Y541764D02*
X618400Y541764D01*
X616975Y542490D01*
X615681Y543430D01*
X614550Y544561D01*
X613610Y545855D01*
X612884Y547280D01*
X612389Y548801D01*
X612139Y550380D01*
X612139Y556261D01*
X619761Y556261D01*
X619761Y541321D01*
X618400Y541764D01*
G37*
%LPD*%
%LPC*%
G36*
X732700Y427464D02*
X732700Y427464D01*
X731275Y428190D01*
X729981Y429130D01*
X728850Y430261D01*
X727910Y431555D01*
X727184Y432980D01*
X726689Y434501D01*
X726439Y436080D01*
X726439Y441961D01*
X734061Y441961D01*
X734061Y427021D01*
X732700Y427464D01*
G37*
%LPD*%
%LPC*%
G36*
X879347Y723747D02*
X879347Y723747D01*
X879347Y729741D01*
X884135Y729741D01*
X884781Y729568D01*
X885360Y729233D01*
X885833Y728760D01*
X886168Y728181D01*
X886341Y727535D01*
X886341Y723747D01*
X879347Y723747D01*
G37*
%LPD*%
%LPC*%
G36*
X803147Y660247D02*
X803147Y660247D01*
X803147Y666241D01*
X807935Y666241D01*
X808581Y666068D01*
X809160Y665733D01*
X809633Y665260D01*
X809968Y664681D01*
X810141Y664035D01*
X810141Y660247D01*
X803147Y660247D01*
G37*
%LPD*%
%LPC*%
G36*
X634847Y523747D02*
X634847Y523747D01*
X634847Y530741D01*
X638635Y530741D01*
X639281Y530568D01*
X639860Y530233D01*
X640333Y529760D01*
X640668Y529181D01*
X640841Y528535D01*
X640841Y523747D01*
X634847Y523747D01*
G37*
%LPD*%
%LPC*%
G36*
X841247Y660247D02*
X841247Y660247D01*
X841247Y666241D01*
X846035Y666241D01*
X846681Y666068D01*
X847260Y665733D01*
X847733Y665260D01*
X848068Y664681D01*
X848241Y664035D01*
X848241Y660247D01*
X841247Y660247D01*
G37*
%LPD*%
%LPC*%
G36*
X647547Y447547D02*
X647547Y447547D01*
X647547Y454541D01*
X651335Y454541D01*
X651981Y454368D01*
X652560Y454033D01*
X653033Y453560D01*
X653368Y452981D01*
X653541Y452335D01*
X653541Y447547D01*
X647547Y447547D01*
G37*
%LPD*%
%LPC*%
G36*
X866259Y723747D02*
X866259Y723747D01*
X866259Y727535D01*
X866432Y728181D01*
X866767Y728760D01*
X867240Y729233D01*
X867819Y729568D01*
X868465Y729741D01*
X873253Y729741D01*
X873253Y723747D01*
X866259Y723747D01*
G37*
%LPD*%
%LPC*%
G36*
X647547Y434459D02*
X647547Y434459D01*
X647547Y441453D01*
X653541Y441453D01*
X653541Y436665D01*
X653368Y436019D01*
X653033Y435440D01*
X652560Y434967D01*
X651981Y434632D01*
X651335Y434459D01*
X647547Y434459D01*
G37*
%LPD*%
%LPC*%
G36*
X663447Y540259D02*
X663447Y540259D01*
X663447Y546253D01*
X670441Y546253D01*
X670441Y542465D01*
X670268Y541819D01*
X669933Y541240D01*
X669460Y540767D01*
X668881Y540432D01*
X668235Y540259D01*
X663447Y540259D01*
G37*
%LPD*%
%LPC*%
G36*
X691387Y521209D02*
X691387Y521209D01*
X691387Y527203D01*
X698381Y527203D01*
X698381Y523415D01*
X698208Y522769D01*
X697873Y522190D01*
X697400Y521717D01*
X696821Y521382D01*
X696175Y521209D01*
X691387Y521209D01*
G37*
%LPD*%
%LPC*%
G36*
X652565Y540259D02*
X652565Y540259D01*
X651919Y540432D01*
X651340Y540767D01*
X650867Y541240D01*
X650532Y541819D01*
X650359Y542465D01*
X650359Y546253D01*
X657353Y546253D01*
X657353Y540259D01*
X652565Y540259D01*
G37*
%LPD*%
%LPC*%
G36*
X680505Y521209D02*
X680505Y521209D01*
X679859Y521382D01*
X679280Y521717D01*
X678807Y522190D01*
X678472Y522769D01*
X678299Y523415D01*
X678299Y527203D01*
X685293Y527203D01*
X685293Y521209D01*
X680505Y521209D01*
G37*
%LPD*%
%LPC*%
G36*
X739139Y675639D02*
X739139Y675639D01*
X739139Y683261D01*
X740809Y683261D01*
X746761Y677309D01*
X746761Y675639D01*
X739139Y675639D01*
G37*
%LPD*%
%LPC*%
G36*
X739139Y701039D02*
X739139Y701039D01*
X739139Y708661D01*
X740809Y708661D01*
X746761Y702709D01*
X746761Y701039D01*
X739139Y701039D01*
G37*
%LPD*%
%LPC*%
G36*
X955039Y447039D02*
X955039Y447039D01*
X955039Y454661D01*
X956709Y454661D01*
X962661Y448709D01*
X962661Y447039D01*
X955039Y447039D01*
G37*
%LPD*%
%LPC*%
G36*
X726439Y675639D02*
X726439Y675639D01*
X726439Y677309D01*
X732391Y683261D01*
X734061Y683261D01*
X734061Y675639D01*
X726439Y675639D01*
G37*
%LPD*%
%LPC*%
G36*
X739139Y662939D02*
X739139Y662939D01*
X739139Y670561D01*
X746761Y670561D01*
X746761Y668891D01*
X740809Y662939D01*
X739139Y662939D01*
G37*
%LPD*%
%LPC*%
G36*
X739139Y688339D02*
X739139Y688339D01*
X739139Y695961D01*
X746761Y695961D01*
X746761Y694291D01*
X740809Y688339D01*
X739139Y688339D01*
G37*
%LPD*%
%LPC*%
G36*
X955039Y434339D02*
X955039Y434339D01*
X955039Y441961D01*
X962661Y441961D01*
X962661Y440291D01*
X956709Y434339D01*
X955039Y434339D01*
G37*
%LPD*%
%LPC*%
G36*
X726439Y701039D02*
X726439Y701039D01*
X726439Y702709D01*
X732391Y708661D01*
X734061Y708661D01*
X734061Y701039D01*
X726439Y701039D01*
G37*
%LPD*%
%LPC*%
G36*
X942339Y447039D02*
X942339Y447039D01*
X942339Y448709D01*
X948291Y454661D01*
X949961Y454661D01*
X949961Y447039D01*
X942339Y447039D01*
G37*
%LPD*%
%LPC*%
G36*
X732391Y662939D02*
X732391Y662939D01*
X726439Y668891D01*
X726439Y670561D01*
X734061Y670561D01*
X734061Y662939D01*
X732391Y662939D01*
G37*
%LPD*%
%LPC*%
G36*
X732391Y688339D02*
X732391Y688339D01*
X726439Y694291D01*
X726439Y695961D01*
X734061Y695961D01*
X734061Y688339D01*
X732391Y688339D01*
G37*
%LPD*%
%LPC*%
G36*
X948291Y434339D02*
X948291Y434339D01*
X942339Y440291D01*
X942339Y441961D01*
X949961Y441961D01*
X949961Y434339D01*
X948291Y434339D01*
G37*
%LPD*%
D10*
X660400Y568300D03*
X660400Y549300D03*
X688340Y549250D03*
X688340Y530250D03*
D11*
X612800Y520700D03*
X631800Y520700D03*
X625500Y444500D03*
X644500Y444500D03*
D10*
X838200Y638200D03*
X838200Y657200D03*
X876300Y701700D03*
X876300Y720700D03*
X800100Y638200D03*
X800100Y657200D03*
D12*
X596599Y492100D03*
X596599Y482600D03*
X596599Y473100D03*
X622601Y473100D03*
X622601Y492100D03*
D13*
X770420Y560900D03*
X770420Y555900D03*
X770420Y550900D03*
X770420Y545900D03*
X770420Y540900D03*
X770420Y535900D03*
X770420Y530900D03*
X770420Y525900D03*
X770420Y520900D03*
X770420Y515900D03*
X770420Y510900D03*
X770420Y505900D03*
D14*
X785300Y491020D03*
X790300Y491020D03*
X795300Y491020D03*
X800300Y491020D03*
X805300Y491020D03*
X810300Y491020D03*
X815300Y491020D03*
X820300Y491020D03*
X825300Y491020D03*
X830300Y491020D03*
X835300Y491020D03*
X840300Y491020D03*
D13*
X855180Y505900D03*
X855180Y510900D03*
X855180Y515900D03*
X855180Y520900D03*
X855180Y525900D03*
X855180Y530900D03*
X855180Y535900D03*
X855180Y540900D03*
X855180Y545900D03*
X855180Y550900D03*
X855180Y555900D03*
X855180Y560900D03*
D14*
X840300Y575780D03*
X835300Y575780D03*
X830300Y575780D03*
X825300Y575780D03*
X820300Y575780D03*
X815300Y575780D03*
X810300Y575780D03*
X805300Y575780D03*
X800300Y575780D03*
X795300Y575780D03*
X790300Y575780D03*
X785300Y575780D03*
D15*
X736600Y647700D03*
X711200Y647700D03*
X736600Y673100D03*
X711200Y673100D03*
X736600Y698500D03*
X711200Y698500D03*
X736600Y723900D03*
X711200Y723900D03*
X736600Y749300D03*
X711200Y749300D03*
D16*
X596900Y566420D02*
X596900Y551180D01*
X622300Y551180D02*
X622300Y566420D01*
X919480Y698500D02*
X934720Y698500D01*
X934720Y723900D02*
X919480Y723900D01*
X787400Y452120D02*
X787400Y436880D01*
X762000Y436880D02*
X762000Y452120D01*
X736600Y452120D02*
X736600Y436880D01*
X711200Y436880D02*
X711200Y452120D01*
X906780Y635000D02*
X922020Y635000D01*
X922020Y609600D02*
X906780Y609600D01*
X906780Y584200D02*
X922020Y584200D01*
X922020Y558800D02*
X906780Y558800D01*
X957580Y635000D02*
X972820Y635000D01*
X972820Y609600D02*
X957580Y609600D01*
X957580Y584200D02*
X972820Y584200D01*
X972820Y558800D02*
X957580Y558800D01*
D17*
X927100Y520700D03*
X952500Y520700D03*
X927100Y495300D03*
X952500Y495300D03*
X927100Y469900D03*
X952500Y469900D03*
X927100Y444500D03*
X952500Y444500D03*
X927100Y419100D03*
X952500Y419100D03*
D11*
X809600Y711200D03*
X790600Y711200D03*
D10*
X838200Y720700D03*
X838200Y701700D03*
D16*
X840232Y777494D02*
X824992Y777494D01*
X824992Y822706D02*
X840232Y822706D01*
X775208Y777494D02*
X759968Y777494D01*
X759968Y822706D02*
X775208Y822706D01*
D18*
X723900Y571300D03*
X723900Y546300D03*
D19*
X747200Y560900D02*
X770420Y560900D01*
X747200Y560900D02*
X736600Y571500D01*
X724100Y571500D01*
X723900Y571300D01*
X663600Y571500D02*
X660400Y568300D01*
X663600Y571500D02*
X724100Y571500D01*
X746400Y555900D02*
X770420Y555900D01*
X746400Y555900D02*
X736600Y546100D01*
X724100Y546100D01*
X723900Y546300D01*
X691290Y546300D01*
X688340Y549250D01*
X810300Y491020D02*
X810300Y429300D01*
X800100Y419100D01*
X749300Y419100D01*
X736600Y431800D01*
X736600Y444500D01*
X679450Y530250D02*
X660400Y549300D01*
X679450Y530250D02*
X688340Y530250D01*
X609600Y482600D02*
X596599Y482600D01*
X609600Y482600D02*
X635000Y482600D01*
X647700Y469900D01*
X647700Y447700D01*
X646100Y446100D01*
X644500Y444500D01*
X635000Y546100D02*
X622300Y558800D01*
X635000Y523900D02*
X633400Y522300D01*
X631800Y520700D01*
X635000Y523900D02*
X635000Y546100D01*
X620563Y531248D02*
X605038Y531248D01*
X603252Y529463D01*
X603252Y511938D01*
X631111Y520700D02*
X631800Y520700D01*
X609600Y505590D02*
X609600Y482600D01*
X631111Y520700D02*
X620563Y531248D01*
X603252Y511938D02*
X609600Y505590D01*
X633400Y522300D02*
X636600Y522300D01*
X914400Y635000D02*
X965200Y635000D01*
X927100Y723900D02*
X914400Y736600D01*
X889000Y736600D01*
X876300Y723900D01*
X876300Y720700D01*
X945388Y702919D02*
X945388Y694081D01*
X939139Y687832D01*
X945388Y702919D02*
X937059Y711248D01*
X868832Y687832D02*
X838200Y657200D01*
X868832Y687832D02*
X939139Y687832D01*
X885752Y711248D02*
X876300Y720700D01*
X885752Y711248D02*
X937059Y711248D01*
X815300Y642000D02*
X800100Y657200D01*
X815300Y642000D02*
X815300Y575780D01*
X838200Y657200D02*
X892200Y657200D01*
X914400Y635000D01*
X840994Y822706D02*
X832612Y822706D01*
X863600Y736600D02*
X876300Y723900D01*
X863600Y800100D02*
X840994Y822706D01*
X863600Y800100D02*
X863600Y736600D01*
X736600Y698500D02*
X736600Y673100D01*
X721868Y683768D02*
X736600Y698500D01*
X721868Y683768D02*
X706781Y683768D01*
X684607Y661593D01*
X659207Y636193D01*
X647700Y624687D01*
X647700Y558800D01*
X657200Y549300D01*
X660400Y549300D01*
X647700Y520700D02*
X631800Y520700D01*
X647700Y520700D02*
X660400Y533400D01*
X660400Y546100D01*
X657200Y549300D01*
X963168Y423519D02*
X963168Y414681D01*
X952347Y403860D01*
X688340Y403860D01*
X646100Y446100D01*
X952500Y444500D02*
X952500Y434187D01*
X963168Y423519D01*
X832612Y822706D02*
X817118Y838200D01*
X684607Y824307D02*
X684607Y661593D01*
X698500Y838200D02*
X817118Y838200D01*
X698500Y838200D02*
X684607Y824307D01*
X780843Y543138D02*
X779058Y541352D01*
X780843Y543138D02*
X780843Y563663D01*
X770872Y541352D02*
X770420Y540900D01*
X770872Y541352D02*
X779058Y541352D01*
X780843Y563663D02*
X722206Y622300D01*
X673100Y622300D01*
X659207Y636193D01*
X815300Y575780D02*
X815300Y523200D01*
X810300Y518200D02*
X810300Y491020D01*
X810300Y518200D02*
X815300Y523200D01*
X770420Y535900D02*
X726400Y535900D01*
X711200Y520700D02*
X711200Y495300D01*
X711200Y444500D01*
X711200Y520700D02*
X726400Y535900D01*
X631800Y492100D02*
X622601Y492100D01*
X631800Y492100D02*
X635000Y495300D01*
X635000Y508000D01*
X632848Y510152D01*
X624038Y510152D01*
X613490Y520700D02*
X612800Y520700D01*
X613490Y520700D02*
X624038Y510152D01*
X635000Y495300D02*
X647700Y508000D01*
X698500Y508000D02*
X711200Y495300D01*
X698500Y508000D02*
X647700Y508000D01*
X952500Y419100D02*
X952500Y416713D01*
X944219Y408432D01*
X721868Y408432D01*
X711200Y419100D01*
X711200Y444500D01*
X914400Y609600D02*
X965200Y609600D01*
X914400Y609600D02*
X901700Y609600D01*
X873100Y638200D02*
X838200Y638200D01*
X895350Y615950D02*
X901700Y609600D01*
X895350Y615950D02*
X873100Y638200D01*
X804848Y609818D02*
X804848Y576232D01*
X805300Y575780D01*
X789552Y660400D02*
X789552Y709463D01*
X789552Y660400D02*
X789552Y625114D01*
X804848Y609818D01*
X805300Y575780D02*
X804848Y575328D01*
X804848Y558800D01*
X804848Y549443D01*
X791306Y535900D01*
X770420Y535900D01*
X776852Y647700D02*
X789552Y660400D01*
X776852Y647700D02*
X736600Y647700D01*
X855180Y560900D02*
X878400Y560900D01*
X889000Y571500D01*
X889000Y609600D02*
X895350Y615950D01*
X889000Y609600D02*
X889000Y571500D01*
X760106Y630428D02*
X732319Y630428D01*
X715047Y647700D02*
X711200Y647700D01*
X715047Y647700D02*
X732319Y630428D01*
X795300Y594778D02*
X795300Y575780D01*
X795300Y594778D02*
X795528Y595006D01*
X795300Y595234D02*
X760106Y630428D01*
X795300Y595234D02*
X795300Y594778D01*
X800100Y575980D02*
X800300Y575780D01*
X800100Y575980D02*
X800100Y596900D01*
X762000Y635000D01*
X734213Y635000D02*
X723900Y645313D01*
X723900Y660400D01*
X711200Y673100D01*
X734213Y635000D02*
X762000Y635000D01*
X838200Y685800D02*
X838200Y701700D01*
X825300Y672900D02*
X825300Y575780D01*
X825300Y672900D02*
X838200Y685800D01*
X838200Y701700D02*
X876300Y701700D01*
X838200Y701700D02*
X835000Y698500D01*
X822300Y698500D01*
X809600Y711200D01*
X879500Y698500D02*
X927100Y698500D01*
X879500Y698500D02*
X876300Y701700D01*
X721513Y749300D02*
X711200Y749300D01*
X721513Y749300D02*
X732181Y759968D01*
X789432Y759968D01*
X812800Y736600D01*
X812800Y714400D01*
X809600Y711200D01*
X622601Y473100D02*
X622601Y447399D01*
X625500Y444500D01*
X587551Y486613D02*
X589337Y488398D01*
X587551Y486613D02*
X587551Y478588D01*
X589337Y476802D01*
X592897Y488398D02*
X596599Y492100D01*
X592897Y488398D02*
X589337Y488398D01*
X589337Y476802D02*
X592897Y476802D01*
X596599Y473100D01*
X596900Y492401D02*
X596900Y558800D01*
X596900Y492401D02*
X596599Y492100D01*
X800100Y638200D02*
X810300Y628000D01*
X810300Y575780D01*
X790300Y491020D02*
X790300Y447400D01*
X787400Y444500D01*
X785300Y480500D02*
X785300Y491020D01*
X762000Y457200D02*
X762000Y444500D01*
X762000Y457200D02*
X785300Y480500D01*
X855180Y520900D02*
X899282Y520900D01*
X918894Y540512D01*
X954241Y540512D01*
X967740Y527013D01*
X967740Y495453D01*
X952500Y480213D02*
X952500Y469900D01*
X952500Y480213D02*
X967740Y495453D01*
X927100Y520700D02*
X912300Y505900D01*
X855180Y505900D01*
X922681Y531368D02*
X931519Y531368D01*
X902213Y510900D02*
X855180Y510900D01*
X931519Y531368D02*
X942187Y520700D01*
X952500Y520700D01*
X922681Y531368D02*
X902213Y510900D01*
X900747Y515900D02*
X855180Y515900D01*
X900747Y515900D02*
X920787Y535940D01*
X963168Y525119D02*
X963168Y516281D01*
X952347Y535940D02*
X920787Y535940D01*
X952347Y535940D02*
X963168Y525119D01*
X963168Y516281D02*
X952500Y505613D01*
X952500Y495300D01*
X927100Y495300D02*
X906272Y474472D01*
X840300Y480500D02*
X840300Y491020D01*
X840300Y480500D02*
X850900Y469900D01*
X901700Y469900D01*
X927100Y495300D01*
X871100Y540900D02*
X855180Y540900D01*
X871100Y540900D02*
X914400Y584200D01*
X965200Y584200D01*
X878800Y535900D02*
X855180Y535900D01*
X901700Y558800D02*
X914400Y558800D01*
X901700Y558800D02*
X878800Y535900D01*
X914400Y558800D02*
X965200Y558800D01*
X838200Y720700D02*
X850900Y733400D01*
X850900Y762000D02*
X835406Y777494D01*
X832612Y777494D01*
X850900Y762000D02*
X850900Y733400D01*
X825300Y491020D02*
X825300Y432000D01*
X838200Y419100D01*
X927100Y419100D01*
X830300Y452400D02*
X830300Y491020D01*
X830300Y452400D02*
X838200Y444500D01*
X927100Y444500D01*
X835300Y460100D02*
X835300Y491020D01*
X835300Y460100D02*
X838200Y457200D01*
X914400Y457200D02*
X927100Y469900D01*
X914400Y457200D02*
X838200Y457200D01*
M02*
