G04 EAGLE Gerber RS-274X export*
G75*
%MOMM*%
%FSLAX34Y34*%
%LPD*%
%INTop Copper*%
%IPPOS*%
%AMOC8*
5,1,8,0,0,1.08239X$1,22.5*%
G01*
%ADD10C,0.130000*%
%ADD11C,0.130000*%
%ADD12C,0.152400*%
%ADD13R,1.500000X1.300000*%
%ADD14R,1.300000X1.500000*%
%ADD15R,0.550000X1.200000*%
%ADD16P,1.649562X8X112.500000*%
%ADD17C,1.524000*%
%ADD18R,1.400000X1.900000*%
%ADD19C,0.137500*%
%ADD20C,0.304800*%

G36*
X927942Y149864D02*
X927942Y149864D01*
X927968Y149862D01*
X928115Y149884D01*
X928262Y149901D01*
X928287Y149909D01*
X928313Y149913D01*
X928451Y149968D01*
X928590Y150018D01*
X928612Y150032D01*
X928637Y150042D01*
X928758Y150127D01*
X928883Y150207D01*
X928901Y150226D01*
X928923Y150241D01*
X929022Y150351D01*
X929125Y150458D01*
X929139Y150480D01*
X929156Y150500D01*
X929228Y150630D01*
X929304Y150757D01*
X929312Y150782D01*
X929325Y150805D01*
X929365Y150948D01*
X929410Y151089D01*
X929412Y151115D01*
X929420Y151140D01*
X929439Y151384D01*
X929439Y670816D01*
X929436Y670841D01*
X929438Y670864D01*
X929438Y670866D01*
X929438Y670868D01*
X929416Y671015D01*
X929399Y671162D01*
X929391Y671187D01*
X929387Y671213D01*
X929332Y671351D01*
X929282Y671490D01*
X929268Y671512D01*
X929258Y671537D01*
X929173Y671658D01*
X929093Y671783D01*
X929074Y671801D01*
X929059Y671823D01*
X928949Y671922D01*
X928842Y672025D01*
X928820Y672039D01*
X928800Y672056D01*
X928670Y672128D01*
X928543Y672204D01*
X928518Y672212D01*
X928495Y672225D01*
X928352Y672265D01*
X928211Y672310D01*
X928185Y672312D01*
X928160Y672320D01*
X927916Y672339D01*
X303784Y672339D01*
X303758Y672336D01*
X303732Y672338D01*
X303585Y672316D01*
X303438Y672299D01*
X303413Y672291D01*
X303387Y672287D01*
X303249Y672232D01*
X303110Y672182D01*
X303088Y672168D01*
X303063Y672158D01*
X302942Y672073D01*
X302817Y671993D01*
X302799Y671974D01*
X302777Y671959D01*
X302678Y671849D01*
X302575Y671742D01*
X302561Y671720D01*
X302544Y671700D01*
X302472Y671570D01*
X302396Y671443D01*
X302388Y671418D01*
X302375Y671395D01*
X302335Y671252D01*
X302290Y671111D01*
X302288Y671085D01*
X302280Y671060D01*
X302261Y670816D01*
X302261Y151384D01*
X302264Y151358D01*
X302262Y151332D01*
X302284Y151185D01*
X302301Y151038D01*
X302309Y151013D01*
X302313Y150987D01*
X302368Y150849D01*
X302418Y150710D01*
X302432Y150688D01*
X302442Y150663D01*
X302527Y150542D01*
X302607Y150417D01*
X302626Y150399D01*
X302641Y150377D01*
X302751Y150278D01*
X302858Y150175D01*
X302880Y150161D01*
X302900Y150144D01*
X303030Y150072D01*
X303157Y149996D01*
X303182Y149988D01*
X303205Y149975D01*
X303348Y149935D01*
X303489Y149890D01*
X303515Y149888D01*
X303540Y149880D01*
X303784Y149861D01*
X927916Y149861D01*
X927942Y149864D01*
G37*
%LPC*%
G36*
X612861Y168655D02*
X612861Y168655D01*
X609500Y170048D01*
X606927Y172620D01*
X606434Y173811D01*
X606397Y173878D01*
X606369Y173949D01*
X606313Y174030D01*
X606265Y174116D01*
X606213Y174172D01*
X606170Y174235D01*
X606097Y174301D01*
X606031Y174374D01*
X605968Y174417D01*
X605911Y174468D01*
X605825Y174516D01*
X605744Y174572D01*
X605673Y174600D01*
X605606Y174637D01*
X605511Y174664D01*
X605420Y174700D01*
X605344Y174711D01*
X605271Y174732D01*
X605122Y174744D01*
X605075Y174751D01*
X605056Y174749D01*
X605027Y174751D01*
X430537Y174751D01*
X426151Y179137D01*
X426151Y278314D01*
X426137Y278440D01*
X426130Y278566D01*
X426117Y278612D01*
X426111Y278660D01*
X426069Y278779D01*
X426034Y278901D01*
X426010Y278943D01*
X425994Y278989D01*
X425925Y279095D01*
X425864Y279205D01*
X425824Y279251D01*
X425805Y279281D01*
X425770Y279315D01*
X425705Y279391D01*
X424925Y280171D01*
X424925Y296402D01*
X424922Y296428D01*
X424924Y296454D01*
X424902Y296601D01*
X424885Y296748D01*
X424877Y296773D01*
X424873Y296799D01*
X424818Y296937D01*
X424768Y297076D01*
X424754Y297098D01*
X424744Y297123D01*
X424659Y297244D01*
X424579Y297369D01*
X424560Y297387D01*
X424545Y297409D01*
X424435Y297508D01*
X424328Y297611D01*
X424306Y297625D01*
X424286Y297642D01*
X424156Y297714D01*
X424029Y297790D01*
X424004Y297798D01*
X423981Y297811D01*
X423838Y297851D01*
X423697Y297896D01*
X423671Y297898D01*
X423646Y297906D01*
X423402Y297925D01*
X407171Y297925D01*
X405875Y299221D01*
X405875Y305187D01*
X405944Y305280D01*
X406036Y305396D01*
X406047Y305420D01*
X406063Y305441D01*
X406122Y305577D01*
X406185Y305711D01*
X406190Y305737D01*
X406201Y305761D01*
X406227Y305907D01*
X406258Y306052D01*
X406258Y306078D01*
X406262Y306104D01*
X406255Y306252D01*
X406252Y306400D01*
X406246Y306426D01*
X406245Y306452D01*
X406203Y306594D01*
X406167Y306738D01*
X406155Y306762D01*
X406148Y306787D01*
X406076Y306916D01*
X406008Y307048D01*
X405991Y307068D01*
X405978Y307091D01*
X405875Y307211D01*
X405875Y313187D01*
X405944Y313280D01*
X406036Y313396D01*
X406047Y313420D01*
X406063Y313441D01*
X406122Y313577D01*
X406185Y313711D01*
X406190Y313737D01*
X406201Y313761D01*
X406227Y313907D01*
X406258Y314052D01*
X406258Y314078D01*
X406262Y314104D01*
X406255Y314252D01*
X406252Y314400D01*
X406246Y314426D01*
X406245Y314452D01*
X406203Y314594D01*
X406167Y314738D01*
X406155Y314762D01*
X406148Y314787D01*
X406076Y314916D01*
X406008Y315048D01*
X405991Y315068D01*
X405978Y315091D01*
X405875Y315211D01*
X405875Y321187D01*
X405944Y321280D01*
X406036Y321396D01*
X406047Y321420D01*
X406063Y321441D01*
X406122Y321577D01*
X406185Y321711D01*
X406190Y321737D01*
X406201Y321761D01*
X406227Y321907D01*
X406258Y322052D01*
X406258Y322078D01*
X406262Y322104D01*
X406255Y322252D01*
X406252Y322400D01*
X406246Y322426D01*
X406245Y322452D01*
X406203Y322594D01*
X406167Y322738D01*
X406155Y322762D01*
X406148Y322787D01*
X406076Y322916D01*
X406008Y323048D01*
X405991Y323068D01*
X405978Y323091D01*
X405875Y323211D01*
X405875Y329187D01*
X405944Y329280D01*
X406036Y329396D01*
X406047Y329420D01*
X406063Y329441D01*
X406122Y329577D01*
X406185Y329711D01*
X406190Y329737D01*
X406201Y329761D01*
X406227Y329907D01*
X406258Y330052D01*
X406258Y330078D01*
X406262Y330104D01*
X406255Y330252D01*
X406252Y330400D01*
X406246Y330426D01*
X406245Y330452D01*
X406203Y330594D01*
X406167Y330738D01*
X406155Y330762D01*
X406148Y330787D01*
X406076Y330916D01*
X406008Y331048D01*
X405991Y331068D01*
X405978Y331091D01*
X405875Y331211D01*
X405875Y337187D01*
X405944Y337280D01*
X406036Y337396D01*
X406047Y337420D01*
X406063Y337441D01*
X406122Y337577D01*
X406185Y337711D01*
X406190Y337737D01*
X406201Y337761D01*
X406227Y337907D01*
X406258Y338052D01*
X406258Y338078D01*
X406262Y338104D01*
X406255Y338252D01*
X406252Y338400D01*
X406246Y338426D01*
X406245Y338452D01*
X406203Y338594D01*
X406167Y338738D01*
X406155Y338762D01*
X406148Y338787D01*
X406076Y338916D01*
X406008Y339048D01*
X405991Y339068D01*
X405978Y339091D01*
X405875Y339211D01*
X405875Y345628D01*
X405872Y345654D01*
X405874Y345680D01*
X405852Y345827D01*
X405835Y345974D01*
X405827Y345999D01*
X405823Y346025D01*
X405768Y346163D01*
X405718Y346302D01*
X405704Y346324D01*
X405694Y346349D01*
X405609Y346470D01*
X405529Y346595D01*
X405510Y346613D01*
X405495Y346635D01*
X405385Y346734D01*
X405278Y346837D01*
X405256Y346851D01*
X405236Y346868D01*
X405106Y346940D01*
X404979Y347016D01*
X404954Y347024D01*
X404931Y347037D01*
X404788Y347077D01*
X404647Y347122D01*
X404621Y347124D01*
X404596Y347132D01*
X404352Y347151D01*
X402894Y347151D01*
X402768Y347137D01*
X402642Y347130D01*
X402596Y347117D01*
X402548Y347111D01*
X402429Y347069D01*
X402307Y347034D01*
X402265Y347010D01*
X402219Y346994D01*
X402113Y346925D01*
X402003Y346864D01*
X401957Y346824D01*
X401927Y346805D01*
X401893Y346770D01*
X401817Y346705D01*
X383795Y328683D01*
X383716Y328584D01*
X383632Y328490D01*
X383608Y328448D01*
X383578Y328410D01*
X383524Y328296D01*
X383463Y328185D01*
X383450Y328139D01*
X383429Y328095D01*
X383403Y327972D01*
X383368Y327850D01*
X383363Y327789D01*
X383356Y327754D01*
X383357Y327706D01*
X383349Y327606D01*
X383349Y320748D01*
X383352Y320722D01*
X383350Y320696D01*
X383372Y320549D01*
X383389Y320402D01*
X383397Y320377D01*
X383401Y320351D01*
X383456Y320213D01*
X383506Y320074D01*
X383520Y320052D01*
X383530Y320027D01*
X383615Y319906D01*
X383695Y319781D01*
X383714Y319763D01*
X383729Y319741D01*
X383839Y319642D01*
X383946Y319539D01*
X383968Y319525D01*
X383988Y319508D01*
X384118Y319436D01*
X384245Y319360D01*
X384270Y319352D01*
X384293Y319339D01*
X384436Y319299D01*
X384577Y319254D01*
X384603Y319252D01*
X384628Y319244D01*
X384872Y319225D01*
X387932Y319225D01*
X388825Y318332D01*
X388825Y298068D01*
X387932Y297175D01*
X385572Y297175D01*
X385546Y297172D01*
X385520Y297174D01*
X385373Y297152D01*
X385226Y297135D01*
X385201Y297127D01*
X385175Y297123D01*
X385037Y297068D01*
X384898Y297018D01*
X384876Y297004D01*
X384851Y296994D01*
X384730Y296909D01*
X384605Y296829D01*
X384587Y296810D01*
X384565Y296795D01*
X384466Y296685D01*
X384363Y296578D01*
X384349Y296556D01*
X384332Y296536D01*
X384260Y296406D01*
X384184Y296279D01*
X384176Y296254D01*
X384163Y296231D01*
X384123Y296088D01*
X384078Y295947D01*
X384076Y295921D01*
X384068Y295896D01*
X384049Y295652D01*
X384049Y285748D01*
X384052Y285722D01*
X384050Y285696D01*
X384072Y285549D01*
X384089Y285402D01*
X384097Y285377D01*
X384101Y285351D01*
X384156Y285213D01*
X384206Y285074D01*
X384220Y285052D01*
X384230Y285027D01*
X384315Y284906D01*
X384395Y284781D01*
X384414Y284763D01*
X384429Y284741D01*
X384539Y284642D01*
X384646Y284539D01*
X384668Y284525D01*
X384688Y284508D01*
X384818Y284436D01*
X384945Y284360D01*
X384970Y284352D01*
X384993Y284339D01*
X385136Y284299D01*
X385277Y284254D01*
X385303Y284252D01*
X385328Y284244D01*
X385572Y284225D01*
X389132Y284225D01*
X390025Y283332D01*
X390025Y269068D01*
X389327Y268371D01*
X389295Y268330D01*
X389257Y268296D01*
X389187Y268195D01*
X389110Y268098D01*
X389088Y268051D01*
X389059Y268009D01*
X389014Y267894D01*
X388961Y267782D01*
X388951Y267733D01*
X388932Y267685D01*
X388914Y267563D01*
X388888Y267442D01*
X388889Y267391D01*
X388881Y267340D01*
X388892Y267217D01*
X388894Y267093D01*
X388906Y267044D01*
X388911Y266993D01*
X388949Y266875D01*
X388979Y266755D01*
X389002Y266710D01*
X389018Y266661D01*
X389082Y266555D01*
X389139Y266446D01*
X389172Y266407D01*
X389198Y266363D01*
X389284Y266274D01*
X389364Y266180D01*
X389405Y266150D01*
X389441Y266113D01*
X389642Y265974D01*
X390060Y265733D01*
X390533Y265260D01*
X390868Y264681D01*
X391041Y264035D01*
X391041Y260247D01*
X382524Y260247D01*
X382498Y260244D01*
X382472Y260246D01*
X382325Y260224D01*
X382178Y260207D01*
X382153Y260198D01*
X382127Y260195D01*
X381989Y260140D01*
X381850Y260090D01*
X381828Y260076D01*
X381803Y260066D01*
X381682Y259981D01*
X381557Y259901D01*
X381539Y259882D01*
X381517Y259867D01*
X381418Y259757D01*
X381315Y259650D01*
X381301Y259628D01*
X381284Y259608D01*
X381212Y259478D01*
X381136Y259351D01*
X381128Y259326D01*
X381115Y259303D01*
X381075Y259160D01*
X381030Y259019D01*
X381028Y258993D01*
X381020Y258968D01*
X381001Y258724D01*
X381001Y257199D01*
X380999Y257199D01*
X380999Y258724D01*
X380996Y258750D01*
X380998Y258776D01*
X380976Y258923D01*
X380959Y259070D01*
X380950Y259095D01*
X380947Y259121D01*
X380892Y259259D01*
X380842Y259398D01*
X380828Y259420D01*
X380818Y259445D01*
X380733Y259566D01*
X380653Y259691D01*
X380634Y259709D01*
X380619Y259731D01*
X380509Y259830D01*
X380402Y259933D01*
X380380Y259947D01*
X380360Y259964D01*
X380230Y260036D01*
X380103Y260112D01*
X380078Y260120D01*
X380055Y260133D01*
X379912Y260173D01*
X379771Y260218D01*
X379745Y260220D01*
X379720Y260228D01*
X379476Y260247D01*
X370959Y260247D01*
X370959Y264035D01*
X371132Y264681D01*
X371467Y265260D01*
X371940Y265733D01*
X372358Y265974D01*
X372399Y266005D01*
X372444Y266028D01*
X372538Y266108D01*
X372638Y266182D01*
X372671Y266221D01*
X372709Y266254D01*
X372783Y266353D01*
X372863Y266448D01*
X372886Y266493D01*
X372917Y266534D01*
X372966Y266648D01*
X373022Y266758D01*
X373034Y266807D01*
X373055Y266854D01*
X373076Y266976D01*
X373106Y267096D01*
X373107Y267147D01*
X373116Y267197D01*
X373110Y267321D01*
X373112Y267444D01*
X373101Y267494D01*
X373098Y267545D01*
X373064Y267664D01*
X373038Y267785D01*
X373016Y267831D01*
X373002Y267880D01*
X372941Y267988D01*
X372888Y268100D01*
X372857Y268140D01*
X372832Y268184D01*
X372673Y268371D01*
X371975Y269068D01*
X371975Y283332D01*
X372868Y284225D01*
X376428Y284225D01*
X376454Y284228D01*
X376480Y284226D01*
X376627Y284248D01*
X376774Y284265D01*
X376799Y284273D01*
X376825Y284277D01*
X376963Y284332D01*
X377102Y284382D01*
X377124Y284396D01*
X377149Y284406D01*
X377270Y284491D01*
X377395Y284571D01*
X377413Y284590D01*
X377435Y284605D01*
X377534Y284715D01*
X377637Y284822D01*
X377651Y284844D01*
X377668Y284864D01*
X377740Y284994D01*
X377816Y285121D01*
X377824Y285146D01*
X377837Y285169D01*
X377877Y285312D01*
X377922Y285453D01*
X377924Y285479D01*
X377932Y285504D01*
X377951Y285748D01*
X377951Y295652D01*
X377948Y295678D01*
X377950Y295704D01*
X377928Y295851D01*
X377911Y295998D01*
X377903Y296023D01*
X377899Y296049D01*
X377844Y296187D01*
X377794Y296326D01*
X377780Y296348D01*
X377770Y296373D01*
X377685Y296494D01*
X377605Y296619D01*
X377586Y296637D01*
X377571Y296659D01*
X377461Y296758D01*
X377354Y296861D01*
X377332Y296875D01*
X377312Y296892D01*
X377182Y296964D01*
X377055Y297040D01*
X377030Y297048D01*
X377007Y297061D01*
X376864Y297101D01*
X376723Y297146D01*
X376697Y297148D01*
X376672Y297156D01*
X376428Y297175D01*
X372668Y297175D01*
X371775Y298068D01*
X371775Y318332D01*
X372668Y319225D01*
X375728Y319225D01*
X375754Y319228D01*
X375780Y319226D01*
X375927Y319248D01*
X376074Y319265D01*
X376099Y319273D01*
X376125Y319277D01*
X376263Y319332D01*
X376402Y319382D01*
X376424Y319396D01*
X376449Y319406D01*
X376570Y319491D01*
X376695Y319571D01*
X376713Y319590D01*
X376735Y319605D01*
X376834Y319715D01*
X376937Y319822D01*
X376951Y319844D01*
X376968Y319864D01*
X377040Y319994D01*
X377116Y320121D01*
X377124Y320146D01*
X377137Y320169D01*
X377177Y320312D01*
X377222Y320453D01*
X377224Y320479D01*
X377232Y320504D01*
X377251Y320748D01*
X377251Y330763D01*
X385063Y338575D01*
X385126Y338653D01*
X385196Y338726D01*
X385234Y338790D01*
X385280Y338848D01*
X385323Y338939D01*
X385374Y339025D01*
X385397Y339096D01*
X385429Y339163D01*
X385450Y339261D01*
X385481Y339357D01*
X385487Y339431D01*
X385502Y339504D01*
X385501Y339604D01*
X385509Y339704D01*
X385498Y339778D01*
X385496Y339852D01*
X385472Y339949D01*
X385457Y340049D01*
X385429Y340118D01*
X385411Y340190D01*
X385365Y340280D01*
X385328Y340373D01*
X385286Y340434D01*
X385252Y340500D01*
X385186Y340577D01*
X385129Y340659D01*
X385074Y340709D01*
X385026Y340765D01*
X384945Y340825D01*
X384870Y340892D01*
X384805Y340928D01*
X384746Y340973D01*
X384653Y341012D01*
X384565Y341061D01*
X384494Y341081D01*
X384426Y341111D01*
X384327Y341128D01*
X384230Y341156D01*
X384130Y341164D01*
X384083Y341172D01*
X384047Y341170D01*
X383986Y341175D01*
X372668Y341175D01*
X371775Y342068D01*
X371775Y362856D01*
X371772Y362882D01*
X371774Y362908D01*
X371752Y363055D01*
X371735Y363202D01*
X371727Y363227D01*
X371723Y363253D01*
X371668Y363391D01*
X371618Y363530D01*
X371604Y363552D01*
X371594Y363577D01*
X371509Y363698D01*
X371429Y363823D01*
X371410Y363841D01*
X371395Y363863D01*
X371285Y363962D01*
X371178Y364065D01*
X371156Y364079D01*
X371136Y364096D01*
X371006Y364168D01*
X370879Y364244D01*
X370854Y364252D01*
X370831Y364265D01*
X370688Y364305D01*
X370547Y364350D01*
X370521Y364352D01*
X370496Y364360D01*
X370252Y364379D01*
X369322Y364379D01*
X369196Y364365D01*
X369070Y364358D01*
X369024Y364345D01*
X368976Y364339D01*
X368857Y364297D01*
X368735Y364262D01*
X368693Y364238D01*
X368647Y364222D01*
X368541Y364153D01*
X368431Y364092D01*
X368385Y364052D01*
X368355Y364033D01*
X368321Y363998D01*
X368245Y363933D01*
X365271Y360959D01*
X365192Y360860D01*
X365108Y360766D01*
X365084Y360724D01*
X365054Y360686D01*
X365000Y360572D01*
X364939Y360461D01*
X364926Y360415D01*
X364905Y360371D01*
X364879Y360248D01*
X364844Y360126D01*
X364839Y360065D01*
X364832Y360030D01*
X364833Y359982D01*
X364825Y359882D01*
X364825Y342068D01*
X363932Y341175D01*
X348668Y341175D01*
X347775Y342068D01*
X347775Y361682D01*
X347761Y361808D01*
X347754Y361934D01*
X347741Y361980D01*
X347735Y362028D01*
X347693Y362147D01*
X347658Y362269D01*
X347634Y362311D01*
X347618Y362357D01*
X347549Y362463D01*
X347488Y362573D01*
X347448Y362619D01*
X347429Y362649D01*
X347394Y362683D01*
X347329Y362759D01*
X347059Y363029D01*
X346960Y363108D01*
X346866Y363192D01*
X346824Y363216D01*
X346786Y363246D01*
X346672Y363300D01*
X346561Y363361D01*
X346515Y363374D01*
X346471Y363395D01*
X346348Y363421D01*
X346226Y363456D01*
X346165Y363461D01*
X346130Y363468D01*
X346082Y363467D01*
X345982Y363475D01*
X334768Y363475D01*
X333875Y364368D01*
X333875Y378632D01*
X334573Y379329D01*
X334605Y379370D01*
X334643Y379404D01*
X334713Y379505D01*
X334790Y379602D01*
X334812Y379649D01*
X334841Y379691D01*
X334886Y379806D01*
X334939Y379918D01*
X334949Y379967D01*
X334968Y380015D01*
X334986Y380137D01*
X335012Y380258D01*
X335011Y380309D01*
X335019Y380360D01*
X335008Y380483D01*
X335006Y380607D01*
X334994Y380656D01*
X334989Y380707D01*
X334951Y380825D01*
X334921Y380945D01*
X334898Y380990D01*
X334882Y381039D01*
X334818Y381145D01*
X334761Y381254D01*
X334728Y381293D01*
X334702Y381337D01*
X334616Y381426D01*
X334536Y381520D01*
X334495Y381550D01*
X334459Y381587D01*
X334258Y381726D01*
X333840Y381967D01*
X333367Y382440D01*
X333032Y383019D01*
X332859Y383665D01*
X332859Y387453D01*
X341376Y387453D01*
X341402Y387456D01*
X341428Y387454D01*
X341575Y387476D01*
X341722Y387493D01*
X341747Y387501D01*
X341773Y387505D01*
X341911Y387560D01*
X342050Y387610D01*
X342072Y387624D01*
X342097Y387634D01*
X342218Y387719D01*
X342343Y387799D01*
X342361Y387818D01*
X342383Y387833D01*
X342482Y387943D01*
X342585Y388050D01*
X342599Y388072D01*
X342616Y388092D01*
X342688Y388222D01*
X342764Y388349D01*
X342772Y388374D01*
X342785Y388397D01*
X342825Y388540D01*
X342870Y388681D01*
X342872Y388707D01*
X342880Y388732D01*
X342899Y388976D01*
X342899Y390501D01*
X342901Y390501D01*
X342901Y388976D01*
X342902Y388964D01*
X342902Y388959D01*
X342904Y388947D01*
X342902Y388924D01*
X342924Y388777D01*
X342941Y388630D01*
X342950Y388605D01*
X342953Y388579D01*
X343008Y388441D01*
X343058Y388302D01*
X343072Y388280D01*
X343082Y388255D01*
X343167Y388134D01*
X343247Y388009D01*
X343266Y387991D01*
X343281Y387969D01*
X343391Y387870D01*
X343498Y387767D01*
X343520Y387753D01*
X343540Y387736D01*
X343670Y387664D01*
X343797Y387588D01*
X343822Y387580D01*
X343845Y387567D01*
X343988Y387527D01*
X344129Y387482D01*
X344155Y387480D01*
X344180Y387472D01*
X344424Y387453D01*
X352941Y387453D01*
X352941Y383665D01*
X352768Y383019D01*
X352433Y382440D01*
X351960Y381967D01*
X351542Y381726D01*
X351501Y381695D01*
X351456Y381672D01*
X351362Y381592D01*
X351262Y381518D01*
X351229Y381479D01*
X351191Y381446D01*
X351117Y381347D01*
X351037Y381252D01*
X351014Y381207D01*
X350983Y381166D01*
X350934Y381052D01*
X350878Y380942D01*
X350866Y380893D01*
X350845Y380846D01*
X350824Y380724D01*
X350794Y380604D01*
X350793Y380553D01*
X350784Y380503D01*
X350790Y380379D01*
X350788Y380256D01*
X350799Y380206D01*
X350802Y380155D01*
X350836Y380036D01*
X350862Y379915D01*
X350884Y379869D01*
X350898Y379820D01*
X350959Y379712D01*
X351012Y379600D01*
X351043Y379560D01*
X351068Y379516D01*
X351227Y379329D01*
X351925Y378632D01*
X351925Y367418D01*
X351939Y367292D01*
X351946Y367166D01*
X351959Y367120D01*
X351965Y367072D01*
X352007Y366953D01*
X352042Y366831D01*
X352066Y366789D01*
X352082Y366743D01*
X352151Y366637D01*
X352212Y366527D01*
X352252Y366481D01*
X352271Y366451D01*
X352306Y366417D01*
X352371Y366341D01*
X355041Y363671D01*
X355140Y363592D01*
X355234Y363508D01*
X355276Y363484D01*
X355314Y363454D01*
X355428Y363400D01*
X355539Y363339D01*
X355585Y363326D01*
X355629Y363305D01*
X355752Y363279D01*
X355874Y363244D01*
X355935Y363239D01*
X355970Y363232D01*
X356018Y363233D01*
X356118Y363225D01*
X358282Y363225D01*
X358408Y363239D01*
X358534Y363246D01*
X358580Y363259D01*
X358628Y363265D01*
X358747Y363307D01*
X358869Y363342D01*
X358911Y363366D01*
X358957Y363382D01*
X359063Y363451D01*
X359173Y363512D01*
X359219Y363552D01*
X359249Y363571D01*
X359283Y363606D01*
X359359Y363671D01*
X366165Y370477D01*
X370834Y370477D01*
X370934Y370488D01*
X371034Y370490D01*
X371107Y370508D01*
X371180Y370517D01*
X371275Y370550D01*
X371372Y370575D01*
X371439Y370609D01*
X371509Y370634D01*
X371593Y370689D01*
X371682Y370735D01*
X371739Y370783D01*
X371801Y370823D01*
X371871Y370895D01*
X371948Y370960D01*
X371992Y371020D01*
X372044Y371074D01*
X372095Y371160D01*
X372155Y371241D01*
X372184Y371309D01*
X372222Y371373D01*
X372253Y371469D01*
X372293Y371561D01*
X372306Y371634D01*
X372329Y371705D01*
X372337Y371805D01*
X372354Y371904D01*
X372351Y371978D01*
X372357Y372052D01*
X372342Y372152D01*
X372337Y372252D01*
X372316Y372323D01*
X372305Y372397D01*
X372268Y372490D01*
X372240Y372587D01*
X372204Y372652D01*
X372176Y372721D01*
X372119Y372803D01*
X372070Y372891D01*
X372005Y372967D01*
X371977Y373007D01*
X371951Y373031D01*
X371911Y373077D01*
X367483Y377505D01*
X365251Y379737D01*
X365251Y497485D01*
X365237Y497611D01*
X365230Y497737D01*
X365217Y497783D01*
X365211Y497831D01*
X365169Y497950D01*
X365134Y498072D01*
X365110Y498114D01*
X365094Y498159D01*
X365025Y498266D01*
X364964Y498376D01*
X364924Y498422D01*
X364905Y498452D01*
X364870Y498486D01*
X364805Y498562D01*
X359155Y504212D01*
X359155Y511788D01*
X364512Y517145D01*
X366253Y517145D01*
X366353Y517156D01*
X366453Y517158D01*
X366525Y517176D01*
X366599Y517185D01*
X366694Y517218D01*
X366791Y517243D01*
X366857Y517277D01*
X366927Y517302D01*
X367012Y517357D01*
X367101Y517403D01*
X367158Y517451D01*
X367220Y517491D01*
X367290Y517563D01*
X367367Y517628D01*
X367411Y517688D01*
X367462Y517742D01*
X367514Y517828D01*
X367574Y517909D01*
X367603Y517977D01*
X367641Y518041D01*
X367672Y518137D01*
X367712Y518229D01*
X367725Y518302D01*
X367748Y518373D01*
X367756Y518473D01*
X367773Y518572D01*
X367770Y518646D01*
X367775Y518720D01*
X367761Y518820D01*
X367755Y518920D01*
X367735Y518991D01*
X367724Y519065D01*
X367687Y519158D01*
X367659Y519255D01*
X367623Y519320D01*
X367595Y519389D01*
X367538Y519471D01*
X367489Y519559D01*
X367424Y519635D01*
X367396Y519675D01*
X367370Y519699D01*
X367330Y519745D01*
X365251Y521824D01*
X365251Y522885D01*
X365237Y523011D01*
X365230Y523137D01*
X365217Y523183D01*
X365211Y523231D01*
X365169Y523350D01*
X365134Y523472D01*
X365110Y523514D01*
X365094Y523559D01*
X365025Y523666D01*
X364964Y523776D01*
X364924Y523822D01*
X364905Y523852D01*
X364870Y523886D01*
X364805Y523962D01*
X359155Y529612D01*
X359155Y537188D01*
X364512Y542545D01*
X372088Y542545D01*
X377445Y537188D01*
X377445Y529612D01*
X372843Y525010D01*
X372826Y524990D01*
X372806Y524972D01*
X372718Y524853D01*
X372626Y524737D01*
X372615Y524713D01*
X372599Y524692D01*
X372540Y524556D01*
X372477Y524422D01*
X372472Y524396D01*
X372461Y524372D01*
X372435Y524226D01*
X372404Y524081D01*
X372404Y524055D01*
X372399Y524029D01*
X372407Y523881D01*
X372410Y523733D01*
X372416Y523707D01*
X372417Y523681D01*
X372458Y523539D01*
X372495Y523395D01*
X372507Y523371D01*
X372514Y523346D01*
X372586Y523217D01*
X372654Y523085D01*
X372671Y523065D01*
X372684Y523042D01*
X372843Y522856D01*
X379785Y515914D01*
X382017Y513682D01*
X382017Y512927D01*
X382028Y512827D01*
X382030Y512727D01*
X382048Y512654D01*
X382057Y512581D01*
X382090Y512486D01*
X382115Y512389D01*
X382149Y512322D01*
X382174Y512252D01*
X382229Y512168D01*
X382275Y512079D01*
X382323Y512022D01*
X382363Y511960D01*
X382435Y511890D01*
X382500Y511813D01*
X382560Y511769D01*
X382614Y511717D01*
X382700Y511666D01*
X382781Y511606D01*
X382849Y511577D01*
X382913Y511539D01*
X383009Y511508D01*
X383101Y511468D01*
X383174Y511455D01*
X383245Y511432D01*
X383345Y511424D01*
X383444Y511407D01*
X383518Y511410D01*
X383592Y511404D01*
X383692Y511419D01*
X383792Y511424D01*
X383863Y511445D01*
X383937Y511456D01*
X384030Y511493D01*
X384127Y511521D01*
X384192Y511557D01*
X384261Y511585D01*
X384343Y511642D01*
X384431Y511691D01*
X384507Y511756D01*
X384547Y511784D01*
X384571Y511810D01*
X384617Y511850D01*
X389912Y517145D01*
X397488Y517145D01*
X402845Y511788D01*
X402845Y504212D01*
X397195Y498562D01*
X397116Y498463D01*
X397032Y498369D01*
X397008Y498327D01*
X396978Y498289D01*
X396924Y498175D01*
X396863Y498064D01*
X396850Y498018D01*
X396829Y497974D01*
X396803Y497851D01*
X396768Y497729D01*
X396763Y497668D01*
X396756Y497633D01*
X396757Y497585D01*
X396749Y497485D01*
X396749Y451839D01*
X396755Y451788D01*
X396752Y451737D01*
X396774Y451616D01*
X396789Y451493D01*
X396806Y451445D01*
X396815Y451395D01*
X396864Y451281D01*
X396906Y451165D01*
X396934Y451122D01*
X396954Y451075D01*
X397028Y450976D01*
X397095Y450872D01*
X397132Y450836D01*
X397162Y450796D01*
X397257Y450716D01*
X397346Y450630D01*
X397390Y450604D01*
X397428Y450571D01*
X397539Y450514D01*
X397645Y450451D01*
X397693Y450435D01*
X397739Y450412D01*
X397859Y450382D01*
X397977Y450345D01*
X398028Y450341D01*
X398077Y450328D01*
X398201Y450327D01*
X398324Y450317D01*
X398375Y450324D01*
X398426Y450324D01*
X398519Y450341D01*
X403353Y450341D01*
X403353Y442824D01*
X403356Y442798D01*
X403354Y442772D01*
X403376Y442625D01*
X403393Y442478D01*
X403401Y442453D01*
X403405Y442427D01*
X403460Y442289D01*
X403510Y442150D01*
X403524Y442128D01*
X403534Y442103D01*
X403619Y441982D01*
X403699Y441857D01*
X403718Y441839D01*
X403733Y441817D01*
X403843Y441718D01*
X403950Y441615D01*
X403972Y441601D01*
X403992Y441584D01*
X404122Y441512D01*
X404249Y441436D01*
X404274Y441428D01*
X404297Y441415D01*
X404440Y441375D01*
X404581Y441330D01*
X404607Y441328D01*
X404632Y441320D01*
X404876Y441301D01*
X407924Y441301D01*
X407950Y441304D01*
X407976Y441302D01*
X408123Y441324D01*
X408270Y441341D01*
X408295Y441350D01*
X408321Y441353D01*
X408459Y441408D01*
X408598Y441458D01*
X408620Y441472D01*
X408645Y441482D01*
X408766Y441567D01*
X408891Y441647D01*
X408909Y441666D01*
X408931Y441681D01*
X409030Y441791D01*
X409133Y441898D01*
X409147Y441920D01*
X409164Y441940D01*
X409236Y442070D01*
X409312Y442197D01*
X409320Y442222D01*
X409333Y442245D01*
X409373Y442388D01*
X409418Y442529D01*
X409420Y442555D01*
X409428Y442580D01*
X409447Y442824D01*
X409447Y450341D01*
X414235Y450341D01*
X414881Y450168D01*
X415460Y449833D01*
X415933Y449360D01*
X416300Y448724D01*
X416331Y448683D01*
X416354Y448637D01*
X416434Y448543D01*
X416508Y448444D01*
X416547Y448411D01*
X416580Y448372D01*
X416680Y448299D01*
X416774Y448218D01*
X416819Y448195D01*
X416860Y448165D01*
X416974Y448116D01*
X417084Y448059D01*
X417134Y448047D01*
X417180Y448027D01*
X417302Y448005D01*
X417422Y447975D01*
X417473Y447974D01*
X417523Y447965D01*
X417647Y447972D01*
X417771Y447970D01*
X417821Y447980D01*
X417871Y447983D01*
X417990Y448017D01*
X418111Y448044D01*
X418157Y448066D01*
X418206Y448080D01*
X418314Y448140D01*
X418426Y448193D01*
X418466Y448225D01*
X418510Y448250D01*
X418697Y448408D01*
X428305Y458017D01*
X430537Y460249D01*
X458463Y460249D01*
X460695Y458017D01*
X470717Y447995D01*
X470816Y447916D01*
X470910Y447832D01*
X470952Y447808D01*
X470990Y447778D01*
X471104Y447724D01*
X471215Y447663D01*
X471261Y447650D01*
X471305Y447629D01*
X471428Y447603D01*
X471550Y447568D01*
X471611Y447563D01*
X471645Y447556D01*
X471693Y447557D01*
X471794Y447549D01*
X476252Y447549D01*
X476278Y447552D01*
X476304Y447550D01*
X476451Y447572D01*
X476598Y447589D01*
X476623Y447597D01*
X476649Y447601D01*
X476787Y447656D01*
X476926Y447706D01*
X476948Y447720D01*
X476973Y447730D01*
X477094Y447815D01*
X477219Y447895D01*
X477237Y447914D01*
X477259Y447929D01*
X477358Y448039D01*
X477461Y448146D01*
X477475Y448168D01*
X477492Y448188D01*
X477564Y448318D01*
X477640Y448445D01*
X477648Y448470D01*
X477661Y448493D01*
X477701Y448636D01*
X477746Y448777D01*
X477748Y448803D01*
X477756Y448828D01*
X477775Y449072D01*
X477775Y460282D01*
X477761Y460408D01*
X477754Y460534D01*
X477741Y460580D01*
X477735Y460628D01*
X477693Y460747D01*
X477658Y460869D01*
X477634Y460911D01*
X477618Y460957D01*
X477549Y461063D01*
X477488Y461173D01*
X477448Y461219D01*
X477429Y461249D01*
X477394Y461283D01*
X477329Y461359D01*
X466851Y471837D01*
X466851Y496563D01*
X481337Y511049D01*
X484632Y511049D01*
X484658Y511052D01*
X484684Y511050D01*
X484831Y511072D01*
X484978Y511089D01*
X485003Y511097D01*
X485029Y511101D01*
X485167Y511156D01*
X485306Y511206D01*
X485328Y511220D01*
X485353Y511230D01*
X485474Y511315D01*
X485599Y511395D01*
X485617Y511414D01*
X485639Y511429D01*
X485738Y511539D01*
X485841Y511646D01*
X485855Y511668D01*
X485872Y511688D01*
X485944Y511818D01*
X486020Y511945D01*
X486028Y511970D01*
X486041Y511993D01*
X486081Y512136D01*
X486126Y512277D01*
X486128Y512303D01*
X486136Y512328D01*
X486155Y512572D01*
X486155Y517439D01*
X487548Y520800D01*
X490120Y523373D01*
X491311Y523866D01*
X491378Y523903D01*
X491449Y523931D01*
X491529Y523987D01*
X491616Y524035D01*
X491672Y524087D01*
X491735Y524130D01*
X491801Y524203D01*
X491874Y524269D01*
X491917Y524332D01*
X491968Y524389D01*
X492016Y524475D01*
X492072Y524556D01*
X492100Y524627D01*
X492137Y524694D01*
X492164Y524789D01*
X492200Y524880D01*
X492211Y524956D01*
X492232Y525029D01*
X492244Y525178D01*
X492251Y525225D01*
X492249Y525244D01*
X492251Y525273D01*
X492251Y620406D01*
X492237Y620532D01*
X492230Y620658D01*
X492217Y620704D01*
X492211Y620752D01*
X492169Y620871D01*
X492134Y620993D01*
X492110Y621035D01*
X492094Y621081D01*
X492025Y621187D01*
X491964Y621297D01*
X491924Y621343D01*
X491905Y621373D01*
X491870Y621407D01*
X491805Y621483D01*
X481783Y631505D01*
X481684Y631584D01*
X481590Y631668D01*
X481548Y631692D01*
X481510Y631722D01*
X481396Y631776D01*
X481285Y631837D01*
X481239Y631850D01*
X481195Y631871D01*
X481072Y631897D01*
X480950Y631932D01*
X480889Y631937D01*
X480854Y631944D01*
X480806Y631943D01*
X480706Y631951D01*
X382894Y631951D01*
X382768Y631937D01*
X382642Y631930D01*
X382596Y631917D01*
X382548Y631911D01*
X382429Y631869D01*
X382307Y631834D01*
X382265Y631810D01*
X382219Y631794D01*
X382113Y631725D01*
X382003Y631664D01*
X381957Y631624D01*
X381927Y631605D01*
X381893Y631570D01*
X381817Y631505D01*
X371795Y621483D01*
X371716Y621384D01*
X371632Y621290D01*
X371608Y621248D01*
X371578Y621210D01*
X371524Y621096D01*
X371463Y620985D01*
X371450Y620939D01*
X371429Y620895D01*
X371403Y620772D01*
X371368Y620650D01*
X371363Y620589D01*
X371356Y620554D01*
X371357Y620506D01*
X371349Y620406D01*
X371349Y620115D01*
X371363Y619989D01*
X371370Y619863D01*
X371383Y619817D01*
X371389Y619769D01*
X371431Y619650D01*
X371466Y619528D01*
X371490Y619486D01*
X371506Y619441D01*
X371575Y619334D01*
X371636Y619224D01*
X371676Y619178D01*
X371695Y619148D01*
X371730Y619114D01*
X371795Y619038D01*
X377445Y613388D01*
X377445Y605812D01*
X372088Y600455D01*
X364512Y600455D01*
X359155Y605812D01*
X359155Y613388D01*
X364805Y619038D01*
X364884Y619137D01*
X364968Y619231D01*
X364992Y619273D01*
X365022Y619311D01*
X365076Y619425D01*
X365137Y619536D01*
X365150Y619582D01*
X365171Y619626D01*
X365197Y619749D01*
X365232Y619871D01*
X365237Y619932D01*
X365244Y619967D01*
X365243Y620015D01*
X365251Y620115D01*
X365251Y623563D01*
X379737Y638049D01*
X483863Y638049D01*
X498349Y623563D01*
X498349Y525273D01*
X498357Y525197D01*
X498356Y525121D01*
X498377Y525024D01*
X498389Y524927D01*
X498414Y524855D01*
X498431Y524780D01*
X498473Y524691D01*
X498506Y524599D01*
X498548Y524535D01*
X498580Y524466D01*
X498642Y524389D01*
X498695Y524306D01*
X498750Y524253D01*
X498798Y524193D01*
X498875Y524132D01*
X498946Y524064D01*
X499011Y524025D01*
X499071Y523977D01*
X499204Y523909D01*
X499245Y523885D01*
X499263Y523879D01*
X499289Y523866D01*
X500480Y523373D01*
X503052Y520800D01*
X504445Y517439D01*
X504445Y498561D01*
X503052Y495200D01*
X500480Y492628D01*
X497119Y491235D01*
X493481Y491235D01*
X490120Y492628D01*
X487548Y495200D01*
X486155Y498561D01*
X486155Y503428D01*
X486152Y503454D01*
X486154Y503480D01*
X486132Y503627D01*
X486115Y503774D01*
X486107Y503799D01*
X486103Y503825D01*
X486048Y503963D01*
X485998Y504102D01*
X485984Y504124D01*
X485974Y504149D01*
X485889Y504270D01*
X485809Y504395D01*
X485790Y504413D01*
X485775Y504435D01*
X485665Y504534D01*
X485558Y504637D01*
X485536Y504651D01*
X485516Y504668D01*
X485386Y504740D01*
X485259Y504816D01*
X485234Y504824D01*
X485211Y504837D01*
X485068Y504877D01*
X484927Y504922D01*
X484901Y504924D01*
X484876Y504932D01*
X484632Y504951D01*
X484494Y504951D01*
X484368Y504937D01*
X484242Y504930D01*
X484196Y504917D01*
X484148Y504911D01*
X484029Y504869D01*
X483907Y504834D01*
X483865Y504810D01*
X483819Y504794D01*
X483713Y504725D01*
X483603Y504664D01*
X483557Y504624D01*
X483527Y504605D01*
X483493Y504570D01*
X483417Y504505D01*
X473395Y494483D01*
X473316Y494384D01*
X473232Y494290D01*
X473208Y494248D01*
X473178Y494210D01*
X473124Y494096D01*
X473063Y493985D01*
X473050Y493939D01*
X473029Y493895D01*
X473003Y493772D01*
X472968Y493650D01*
X472963Y493589D01*
X472956Y493554D01*
X472957Y493506D01*
X472949Y493406D01*
X472949Y474994D01*
X472963Y474868D01*
X472970Y474742D01*
X472983Y474696D01*
X472989Y474648D01*
X473031Y474529D01*
X473066Y474407D01*
X473090Y474365D01*
X473106Y474319D01*
X473175Y474213D01*
X473236Y474103D01*
X473276Y474057D01*
X473295Y474027D01*
X473330Y473993D01*
X473395Y473917D01*
X480641Y466671D01*
X480740Y466592D01*
X480834Y466508D01*
X480876Y466484D01*
X480914Y466454D01*
X481028Y466400D01*
X481139Y466339D01*
X481185Y466326D01*
X481229Y466305D01*
X481352Y466279D01*
X481474Y466244D01*
X481535Y466239D01*
X481570Y466232D01*
X481618Y466233D01*
X481718Y466225D01*
X490572Y466225D01*
X490697Y466239D01*
X490824Y466246D01*
X490870Y466259D01*
X490918Y466265D01*
X491037Y466307D01*
X491158Y466342D01*
X491201Y466366D01*
X491246Y466382D01*
X491352Y466451D01*
X491463Y466512D01*
X491509Y466552D01*
X491539Y466571D01*
X491572Y466606D01*
X491649Y466671D01*
X495775Y470797D01*
X513825Y470797D01*
X516057Y468565D01*
X523927Y460695D01*
X524026Y460616D01*
X524120Y460532D01*
X524162Y460508D01*
X524200Y460478D01*
X524314Y460424D01*
X524425Y460363D01*
X524472Y460350D01*
X524515Y460329D01*
X524639Y460303D01*
X524760Y460268D01*
X524821Y460263D01*
X524856Y460256D01*
X524904Y460257D01*
X525004Y460249D01*
X527052Y460249D01*
X527078Y460252D01*
X527104Y460250D01*
X527251Y460272D01*
X527398Y460289D01*
X527423Y460297D01*
X527449Y460301D01*
X527587Y460356D01*
X527726Y460406D01*
X527748Y460420D01*
X527773Y460430D01*
X527894Y460515D01*
X528019Y460595D01*
X528037Y460614D01*
X528059Y460629D01*
X528158Y460739D01*
X528261Y460846D01*
X528275Y460868D01*
X528292Y460888D01*
X528364Y461018D01*
X528440Y461145D01*
X528448Y461170D01*
X528461Y461193D01*
X528501Y461336D01*
X528546Y461477D01*
X528548Y461503D01*
X528556Y461528D01*
X528575Y461772D01*
X528575Y465332D01*
X529468Y466225D01*
X543732Y466225D01*
X545023Y464933D01*
X545043Y464917D01*
X545060Y464897D01*
X545180Y464809D01*
X545296Y464717D01*
X545320Y464706D01*
X545341Y464690D01*
X545477Y464631D01*
X545611Y464568D01*
X545637Y464562D01*
X545661Y464552D01*
X545807Y464526D01*
X545952Y464494D01*
X545978Y464495D01*
X546004Y464490D01*
X546152Y464498D01*
X546300Y464500D01*
X546326Y464507D01*
X546352Y464508D01*
X546494Y464549D01*
X546638Y464585D01*
X546661Y464597D01*
X546687Y464605D01*
X546816Y464677D01*
X546948Y464745D01*
X546968Y464762D01*
X546991Y464775D01*
X547177Y464933D01*
X548468Y466225D01*
X559682Y466225D01*
X559808Y466239D01*
X559934Y466246D01*
X559980Y466259D01*
X560028Y466265D01*
X560147Y466307D01*
X560269Y466342D01*
X560311Y466366D01*
X560357Y466382D01*
X560463Y466451D01*
X560573Y466512D01*
X560619Y466552D01*
X560649Y466571D01*
X560683Y466606D01*
X560759Y466671D01*
X564243Y470155D01*
X572515Y470155D01*
X572591Y470163D01*
X572667Y470162D01*
X572763Y470183D01*
X572861Y470195D01*
X572933Y470220D01*
X573008Y470237D01*
X573096Y470279D01*
X573189Y470312D01*
X573253Y470354D01*
X573322Y470386D01*
X573399Y470448D01*
X573482Y470501D01*
X573535Y470556D01*
X573595Y470604D01*
X573656Y470681D01*
X573724Y470752D01*
X573763Y470817D01*
X573811Y470877D01*
X573879Y471011D01*
X573903Y471051D01*
X573909Y471069D01*
X573922Y471095D01*
X574415Y472286D01*
X576988Y474858D01*
X580349Y476251D01*
X599227Y476251D01*
X602588Y474858D01*
X605160Y472286D01*
X606553Y468925D01*
X606553Y465287D01*
X605160Y461926D01*
X602588Y459354D01*
X599227Y457961D01*
X580349Y457961D01*
X576988Y459354D01*
X574415Y461926D01*
X573922Y463117D01*
X573885Y463184D01*
X573857Y463255D01*
X573801Y463336D01*
X573753Y463422D01*
X573701Y463478D01*
X573658Y463541D01*
X573585Y463607D01*
X573519Y463680D01*
X573456Y463723D01*
X573399Y463774D01*
X573313Y463822D01*
X573232Y463878D01*
X573161Y463906D01*
X573094Y463943D01*
X572999Y463970D01*
X572908Y464006D01*
X572832Y464017D01*
X572759Y464038D01*
X572610Y464050D01*
X572563Y464057D01*
X572544Y464055D01*
X572515Y464057D01*
X567400Y464057D01*
X567274Y464043D01*
X567148Y464036D01*
X567102Y464023D01*
X567054Y464017D01*
X566935Y463975D01*
X566813Y463940D01*
X566771Y463916D01*
X566725Y463900D01*
X566619Y463831D01*
X566509Y463770D01*
X566463Y463730D01*
X566433Y463711D01*
X566399Y463676D01*
X566323Y463611D01*
X564071Y461359D01*
X563992Y461260D01*
X563908Y461166D01*
X563884Y461124D01*
X563854Y461086D01*
X563800Y460972D01*
X563739Y460861D01*
X563726Y460815D01*
X563705Y460771D01*
X563679Y460648D01*
X563644Y460526D01*
X563639Y460465D01*
X563632Y460430D01*
X563633Y460382D01*
X563625Y460282D01*
X563625Y449068D01*
X562732Y448175D01*
X548468Y448175D01*
X547177Y449467D01*
X547157Y449483D01*
X547140Y449503D01*
X547020Y449591D01*
X546904Y449683D01*
X546880Y449694D01*
X546859Y449710D01*
X546723Y449769D01*
X546589Y449832D01*
X546563Y449838D01*
X546539Y449848D01*
X546393Y449874D01*
X546248Y449906D01*
X546222Y449905D01*
X546196Y449910D01*
X546048Y449902D01*
X545900Y449900D01*
X545874Y449893D01*
X545848Y449892D01*
X545706Y449851D01*
X545562Y449815D01*
X545539Y449803D01*
X545513Y449795D01*
X545384Y449723D01*
X545252Y449655D01*
X545232Y449638D01*
X545209Y449625D01*
X545023Y449467D01*
X543732Y448175D01*
X541172Y448175D01*
X541146Y448172D01*
X541120Y448174D01*
X540973Y448152D01*
X540826Y448135D01*
X540801Y448127D01*
X540775Y448123D01*
X540637Y448068D01*
X540498Y448018D01*
X540476Y448004D01*
X540451Y447994D01*
X540330Y447909D01*
X540205Y447829D01*
X540187Y447810D01*
X540165Y447795D01*
X540066Y447685D01*
X539963Y447578D01*
X539949Y447556D01*
X539932Y447536D01*
X539860Y447406D01*
X539784Y447279D01*
X539776Y447254D01*
X539763Y447231D01*
X539723Y447088D01*
X539678Y446947D01*
X539676Y446921D01*
X539668Y446896D01*
X539649Y446652D01*
X539649Y433737D01*
X534663Y428751D01*
X515339Y428751D01*
X515288Y428745D01*
X515237Y428748D01*
X515116Y428726D01*
X514993Y428711D01*
X514945Y428694D01*
X514895Y428685D01*
X514781Y428636D01*
X514665Y428594D01*
X514622Y428566D01*
X514575Y428546D01*
X514476Y428472D01*
X514372Y428405D01*
X514336Y428368D01*
X514296Y428338D01*
X514216Y428243D01*
X514130Y428154D01*
X514104Y428110D01*
X514071Y428072D01*
X514014Y427961D01*
X513951Y427855D01*
X513935Y427807D01*
X513912Y427761D01*
X513882Y427641D01*
X513845Y427523D01*
X513841Y427472D01*
X513828Y427423D01*
X513827Y427299D01*
X513817Y427176D01*
X513824Y427125D01*
X513824Y427074D01*
X513841Y426981D01*
X513841Y422147D01*
X506324Y422147D01*
X506298Y422144D01*
X506272Y422146D01*
X506125Y422124D01*
X505978Y422107D01*
X505953Y422098D01*
X505927Y422095D01*
X505789Y422040D01*
X505650Y421990D01*
X505628Y421976D01*
X505603Y421966D01*
X505482Y421881D01*
X505357Y421801D01*
X505339Y421782D01*
X505317Y421767D01*
X505218Y421657D01*
X505115Y421550D01*
X505101Y421528D01*
X505084Y421508D01*
X505012Y421378D01*
X504936Y421251D01*
X504928Y421226D01*
X504915Y421203D01*
X504875Y421060D01*
X504830Y420919D01*
X504828Y420893D01*
X504820Y420868D01*
X504801Y420624D01*
X504801Y419099D01*
X503276Y419099D01*
X503250Y419096D01*
X503224Y419098D01*
X503077Y419076D01*
X502930Y419059D01*
X502905Y419050D01*
X502879Y419047D01*
X502741Y418992D01*
X502602Y418942D01*
X502580Y418928D01*
X502555Y418918D01*
X502434Y418833D01*
X502309Y418753D01*
X502291Y418734D01*
X502269Y418719D01*
X502170Y418609D01*
X502067Y418502D01*
X502053Y418480D01*
X502036Y418460D01*
X501964Y418330D01*
X501888Y418203D01*
X501880Y418178D01*
X501867Y418155D01*
X501827Y418012D01*
X501782Y417871D01*
X501780Y417845D01*
X501772Y417820D01*
X501753Y417576D01*
X501753Y409059D01*
X497965Y409059D01*
X497319Y409232D01*
X496740Y409567D01*
X496267Y410040D01*
X496026Y410458D01*
X495995Y410499D01*
X495972Y410544D01*
X495892Y410638D01*
X495818Y410738D01*
X495779Y410771D01*
X495746Y410809D01*
X495647Y410883D01*
X495552Y410963D01*
X495507Y410986D01*
X495466Y411017D01*
X495352Y411066D01*
X495242Y411122D01*
X495193Y411134D01*
X495146Y411155D01*
X495024Y411176D01*
X494904Y411206D01*
X494853Y411207D01*
X494803Y411216D01*
X494679Y411210D01*
X494556Y411212D01*
X494506Y411201D01*
X494455Y411198D01*
X494336Y411164D01*
X494215Y411138D01*
X494169Y411116D01*
X494120Y411102D01*
X494012Y411041D01*
X493900Y410988D01*
X493860Y410957D01*
X493816Y410932D01*
X493629Y410773D01*
X492932Y410075D01*
X490372Y410075D01*
X490346Y410072D01*
X490320Y410074D01*
X490173Y410052D01*
X490026Y410035D01*
X490001Y410027D01*
X489975Y410023D01*
X489837Y409968D01*
X489698Y409918D01*
X489676Y409904D01*
X489651Y409894D01*
X489530Y409809D01*
X489405Y409729D01*
X489387Y409710D01*
X489365Y409695D01*
X489266Y409585D01*
X489163Y409478D01*
X489149Y409456D01*
X489132Y409436D01*
X489060Y409306D01*
X488984Y409179D01*
X488976Y409154D01*
X488963Y409131D01*
X488923Y408988D01*
X488878Y408847D01*
X488876Y408821D01*
X488868Y408796D01*
X488849Y408552D01*
X488849Y408337D01*
X480695Y400183D01*
X480616Y400084D01*
X480532Y399990D01*
X480508Y399948D01*
X480478Y399910D01*
X480424Y399796D01*
X480363Y399685D01*
X480350Y399639D01*
X480329Y399595D01*
X480303Y399472D01*
X480268Y399350D01*
X480263Y399289D01*
X480256Y399254D01*
X480257Y399206D01*
X480249Y399106D01*
X480249Y383048D01*
X480252Y383022D01*
X480250Y382996D01*
X480272Y382849D01*
X480289Y382702D01*
X480297Y382677D01*
X480301Y382651D01*
X480356Y382513D01*
X480406Y382374D01*
X480420Y382352D01*
X480430Y382327D01*
X480515Y382206D01*
X480595Y382081D01*
X480614Y382063D01*
X480629Y382041D01*
X480739Y381942D01*
X480846Y381839D01*
X480868Y381825D01*
X480888Y381808D01*
X481018Y381736D01*
X481145Y381660D01*
X481170Y381652D01*
X481193Y381639D01*
X481336Y381599D01*
X481477Y381554D01*
X481503Y381552D01*
X481528Y381544D01*
X481772Y381525D01*
X488179Y381525D01*
X489475Y380229D01*
X489475Y363998D01*
X489478Y363972D01*
X489476Y363946D01*
X489498Y363799D01*
X489515Y363652D01*
X489523Y363627D01*
X489527Y363601D01*
X489582Y363463D01*
X489632Y363324D01*
X489646Y363302D01*
X489656Y363277D01*
X489741Y363156D01*
X489821Y363031D01*
X489840Y363013D01*
X489855Y362991D01*
X489965Y362892D01*
X490072Y362789D01*
X490094Y362775D01*
X490114Y362758D01*
X490244Y362686D01*
X490371Y362610D01*
X490396Y362602D01*
X490419Y362589D01*
X490562Y362549D01*
X490703Y362504D01*
X490729Y362502D01*
X490754Y362494D01*
X490998Y362475D01*
X507229Y362475D01*
X508525Y361179D01*
X508525Y355213D01*
X508456Y355120D01*
X508364Y355004D01*
X508353Y354980D01*
X508337Y354959D01*
X508278Y354823D01*
X508215Y354689D01*
X508210Y354663D01*
X508199Y354639D01*
X508173Y354493D01*
X508142Y354348D01*
X508142Y354322D01*
X508138Y354296D01*
X508145Y354148D01*
X508148Y354000D01*
X508154Y353974D01*
X508155Y353948D01*
X508197Y353806D01*
X508233Y353662D01*
X508245Y353638D01*
X508252Y353613D01*
X508324Y353484D01*
X508392Y353352D01*
X508409Y353332D01*
X508422Y353309D01*
X508525Y353189D01*
X508525Y346772D01*
X508528Y346746D01*
X508526Y346720D01*
X508548Y346573D01*
X508565Y346426D01*
X508573Y346401D01*
X508577Y346375D01*
X508632Y346237D01*
X508682Y346098D01*
X508696Y346076D01*
X508706Y346051D01*
X508791Y345930D01*
X508871Y345805D01*
X508890Y345787D01*
X508905Y345765D01*
X509015Y345666D01*
X509122Y345563D01*
X509144Y345549D01*
X509164Y345532D01*
X509294Y345460D01*
X509421Y345384D01*
X509446Y345376D01*
X509469Y345363D01*
X509612Y345323D01*
X509753Y345278D01*
X509779Y345276D01*
X509804Y345268D01*
X510048Y345249D01*
X518106Y345249D01*
X518232Y345263D01*
X518358Y345270D01*
X518404Y345283D01*
X518452Y345289D01*
X518571Y345331D01*
X518693Y345366D01*
X518735Y345390D01*
X518781Y345406D01*
X518887Y345475D01*
X518997Y345536D01*
X519043Y345576D01*
X519073Y345595D01*
X519107Y345630D01*
X519183Y345695D01*
X544837Y371349D01*
X737863Y371349D01*
X752349Y356863D01*
X752349Y268594D01*
X752363Y268468D01*
X752370Y268342D01*
X752383Y268296D01*
X752389Y268248D01*
X752431Y268129D01*
X752466Y268007D01*
X752490Y267965D01*
X752506Y267919D01*
X752575Y267813D01*
X752636Y267703D01*
X752676Y267657D01*
X752695Y267627D01*
X752730Y267593D01*
X752795Y267517D01*
X762817Y257495D01*
X762916Y257416D01*
X763010Y257332D01*
X763052Y257308D01*
X763090Y257278D01*
X763204Y257224D01*
X763315Y257163D01*
X763361Y257150D01*
X763405Y257129D01*
X763528Y257103D01*
X763650Y257068D01*
X763711Y257063D01*
X763746Y257056D01*
X763794Y257057D01*
X763894Y257049D01*
X770127Y257049D01*
X770203Y257057D01*
X770279Y257056D01*
X770376Y257077D01*
X770473Y257089D01*
X770545Y257114D01*
X770620Y257131D01*
X770709Y257173D01*
X770801Y257206D01*
X770865Y257248D01*
X770934Y257280D01*
X771011Y257342D01*
X771094Y257395D01*
X771147Y257450D01*
X771207Y257498D01*
X771268Y257575D01*
X771336Y257646D01*
X771375Y257711D01*
X771423Y257771D01*
X771491Y257904D01*
X771515Y257945D01*
X771521Y257963D01*
X771534Y257989D01*
X772027Y259180D01*
X774600Y261752D01*
X777961Y263145D01*
X796839Y263145D01*
X800200Y261752D01*
X802773Y259180D01*
X803266Y257989D01*
X803303Y257922D01*
X803331Y257851D01*
X803387Y257771D01*
X803435Y257684D01*
X803487Y257628D01*
X803530Y257565D01*
X803603Y257499D01*
X803669Y257426D01*
X803732Y257383D01*
X803789Y257332D01*
X803875Y257284D01*
X803956Y257228D01*
X804027Y257200D01*
X804094Y257163D01*
X804189Y257136D01*
X804280Y257100D01*
X804356Y257089D01*
X804429Y257068D01*
X804578Y257056D01*
X804625Y257049D01*
X804644Y257051D01*
X804673Y257049D01*
X846327Y257049D01*
X846403Y257057D01*
X846479Y257056D01*
X846575Y257077D01*
X846673Y257089D01*
X846745Y257114D01*
X846820Y257131D01*
X846908Y257173D01*
X847001Y257206D01*
X847065Y257248D01*
X847134Y257280D01*
X847211Y257342D01*
X847294Y257395D01*
X847347Y257450D01*
X847407Y257498D01*
X847468Y257575D01*
X847536Y257646D01*
X847575Y257711D01*
X847623Y257771D01*
X847691Y257905D01*
X847715Y257945D01*
X847721Y257963D01*
X847734Y257989D01*
X848227Y259180D01*
X850800Y261752D01*
X854161Y263145D01*
X873039Y263145D01*
X876400Y261752D01*
X878972Y259180D01*
X880365Y255819D01*
X880365Y252181D01*
X878972Y248820D01*
X876400Y246248D01*
X873039Y244855D01*
X854161Y244855D01*
X850800Y246248D01*
X848227Y248820D01*
X847734Y250011D01*
X847697Y250078D01*
X847669Y250149D01*
X847613Y250230D01*
X847565Y250316D01*
X847513Y250372D01*
X847470Y250435D01*
X847397Y250501D01*
X847331Y250574D01*
X847268Y250617D01*
X847211Y250668D01*
X847125Y250716D01*
X847044Y250772D01*
X846973Y250800D01*
X846906Y250837D01*
X846811Y250864D01*
X846720Y250900D01*
X846644Y250911D01*
X846571Y250932D01*
X846422Y250944D01*
X846375Y250951D01*
X846356Y250949D01*
X846327Y250951D01*
X804673Y250951D01*
X804597Y250943D01*
X804521Y250944D01*
X804424Y250923D01*
X804327Y250911D01*
X804255Y250886D01*
X804180Y250869D01*
X804091Y250827D01*
X803999Y250794D01*
X803935Y250752D01*
X803866Y250720D01*
X803789Y250658D01*
X803706Y250605D01*
X803653Y250550D01*
X803593Y250502D01*
X803532Y250425D01*
X803464Y250354D01*
X803425Y250289D01*
X803377Y250229D01*
X803309Y250096D01*
X803285Y250055D01*
X803279Y250037D01*
X803266Y250011D01*
X802773Y248820D01*
X800200Y246248D01*
X796839Y244855D01*
X777961Y244855D01*
X774600Y246248D01*
X772027Y248820D01*
X771534Y250011D01*
X771497Y250078D01*
X771469Y250149D01*
X771413Y250229D01*
X771365Y250316D01*
X771313Y250372D01*
X771270Y250435D01*
X771197Y250501D01*
X771131Y250574D01*
X771068Y250617D01*
X771011Y250668D01*
X770925Y250716D01*
X770844Y250772D01*
X770773Y250800D01*
X770706Y250837D01*
X770611Y250864D01*
X770520Y250900D01*
X770444Y250911D01*
X770371Y250932D01*
X770222Y250944D01*
X770175Y250951D01*
X770156Y250949D01*
X770127Y250951D01*
X760737Y250951D01*
X746251Y265437D01*
X746251Y353706D01*
X746237Y353832D01*
X746230Y353958D01*
X746217Y354004D01*
X746211Y354052D01*
X746169Y354171D01*
X746134Y354293D01*
X746110Y354335D01*
X746094Y354381D01*
X746025Y354487D01*
X745964Y354597D01*
X745924Y354643D01*
X745905Y354673D01*
X745870Y354707D01*
X745805Y354783D01*
X735783Y364805D01*
X735684Y364884D01*
X735590Y364968D01*
X735548Y364992D01*
X735510Y365022D01*
X735396Y365076D01*
X735285Y365137D01*
X735239Y365150D01*
X735195Y365171D01*
X735072Y365197D01*
X734950Y365232D01*
X734889Y365237D01*
X734854Y365244D01*
X734806Y365243D01*
X734706Y365251D01*
X547994Y365251D01*
X547868Y365237D01*
X547742Y365230D01*
X547696Y365217D01*
X547648Y365211D01*
X547529Y365169D01*
X547407Y365134D01*
X547365Y365110D01*
X547319Y365094D01*
X547213Y365025D01*
X547103Y364964D01*
X547057Y364924D01*
X547027Y364905D01*
X546993Y364870D01*
X546917Y364805D01*
X543361Y361249D01*
X543298Y361171D01*
X543228Y361098D01*
X543190Y361034D01*
X543144Y360976D01*
X543101Y360885D01*
X543050Y360799D01*
X543027Y360728D01*
X542995Y360661D01*
X542974Y360563D01*
X542943Y360467D01*
X542937Y360393D01*
X542922Y360320D01*
X542923Y360220D01*
X542915Y360120D01*
X542926Y360046D01*
X542928Y359972D01*
X542952Y359875D01*
X542967Y359775D01*
X542995Y359706D01*
X543013Y359634D01*
X543059Y359545D01*
X543096Y359451D01*
X543138Y359390D01*
X543172Y359324D01*
X543237Y359248D01*
X543295Y359165D01*
X543350Y359115D01*
X543398Y359059D01*
X543479Y358999D01*
X543554Y358932D01*
X543619Y358896D01*
X543678Y358851D01*
X543771Y358812D01*
X543859Y358763D01*
X543930Y358743D01*
X543998Y358713D01*
X544097Y358696D01*
X544194Y358668D01*
X544294Y358660D01*
X544341Y358652D01*
X544377Y358654D01*
X544438Y358649D01*
X725163Y358649D01*
X739649Y344163D01*
X739649Y243194D01*
X739663Y243068D01*
X739670Y242942D01*
X739683Y242896D01*
X739689Y242848D01*
X739731Y242729D01*
X739766Y242607D01*
X739790Y242565D01*
X739806Y242519D01*
X739875Y242413D01*
X739936Y242303D01*
X739976Y242257D01*
X739995Y242227D01*
X740030Y242193D01*
X740095Y242117D01*
X750117Y232095D01*
X750216Y232016D01*
X750310Y231932D01*
X750352Y231908D01*
X750390Y231878D01*
X750504Y231824D01*
X750615Y231763D01*
X750661Y231750D01*
X750705Y231729D01*
X750828Y231703D01*
X750950Y231668D01*
X751011Y231663D01*
X751046Y231656D01*
X751094Y231657D01*
X751194Y231649D01*
X770127Y231649D01*
X770203Y231657D01*
X770279Y231656D01*
X770375Y231677D01*
X770473Y231689D01*
X770545Y231714D01*
X770620Y231731D01*
X770708Y231773D01*
X770801Y231806D01*
X770865Y231848D01*
X770934Y231880D01*
X771011Y231942D01*
X771094Y231995D01*
X771147Y232050D01*
X771207Y232098D01*
X771268Y232175D01*
X771336Y232246D01*
X771375Y232311D01*
X771423Y232371D01*
X771491Y232505D01*
X771515Y232545D01*
X771521Y232563D01*
X771534Y232589D01*
X772027Y233780D01*
X774600Y236352D01*
X777961Y237745D01*
X796839Y237745D01*
X800200Y236352D01*
X802773Y233780D01*
X803266Y232589D01*
X803303Y232522D01*
X803331Y232451D01*
X803387Y232370D01*
X803435Y232284D01*
X803487Y232228D01*
X803530Y232165D01*
X803603Y232099D01*
X803669Y232026D01*
X803732Y231983D01*
X803789Y231932D01*
X803875Y231884D01*
X803956Y231828D01*
X804027Y231800D01*
X804094Y231763D01*
X804189Y231736D01*
X804280Y231700D01*
X804356Y231689D01*
X804429Y231668D01*
X804578Y231656D01*
X804625Y231649D01*
X804644Y231651D01*
X804673Y231649D01*
X846327Y231649D01*
X846403Y231657D01*
X846479Y231656D01*
X846575Y231677D01*
X846673Y231689D01*
X846745Y231714D01*
X846820Y231731D01*
X846908Y231773D01*
X847001Y231806D01*
X847065Y231848D01*
X847134Y231880D01*
X847211Y231942D01*
X847294Y231995D01*
X847347Y232050D01*
X847407Y232098D01*
X847468Y232175D01*
X847536Y232246D01*
X847575Y232311D01*
X847623Y232371D01*
X847691Y232505D01*
X847715Y232545D01*
X847721Y232563D01*
X847734Y232589D01*
X848227Y233780D01*
X850800Y236352D01*
X854161Y237745D01*
X873039Y237745D01*
X876400Y236352D01*
X878972Y233780D01*
X880365Y230419D01*
X880365Y226781D01*
X878972Y223420D01*
X876400Y220848D01*
X873039Y219455D01*
X854161Y219455D01*
X850800Y220848D01*
X848227Y223420D01*
X847734Y224611D01*
X847697Y224678D01*
X847669Y224749D01*
X847613Y224830D01*
X847565Y224916D01*
X847513Y224972D01*
X847470Y225035D01*
X847397Y225101D01*
X847331Y225174D01*
X847268Y225217D01*
X847211Y225268D01*
X847125Y225316D01*
X847044Y225372D01*
X846973Y225400D01*
X846906Y225437D01*
X846811Y225464D01*
X846720Y225500D01*
X846644Y225511D01*
X846571Y225532D01*
X846422Y225544D01*
X846375Y225551D01*
X846356Y225549D01*
X846327Y225551D01*
X804673Y225551D01*
X804597Y225543D01*
X804521Y225544D01*
X804425Y225523D01*
X804327Y225511D01*
X804255Y225486D01*
X804180Y225469D01*
X804092Y225427D01*
X803999Y225394D01*
X803935Y225352D01*
X803866Y225320D01*
X803789Y225258D01*
X803706Y225205D01*
X803653Y225150D01*
X803593Y225102D01*
X803532Y225025D01*
X803464Y224954D01*
X803425Y224889D01*
X803377Y224829D01*
X803309Y224695D01*
X803285Y224655D01*
X803279Y224637D01*
X803266Y224611D01*
X802773Y223420D01*
X800200Y220848D01*
X796839Y219455D01*
X777961Y219455D01*
X774600Y220848D01*
X772027Y223420D01*
X771534Y224611D01*
X771497Y224678D01*
X771469Y224749D01*
X771413Y224830D01*
X771365Y224916D01*
X771313Y224972D01*
X771270Y225035D01*
X771197Y225101D01*
X771131Y225174D01*
X771068Y225217D01*
X771011Y225268D01*
X770925Y225316D01*
X770844Y225372D01*
X770773Y225400D01*
X770706Y225437D01*
X770611Y225464D01*
X770520Y225500D01*
X770444Y225511D01*
X770371Y225532D01*
X770222Y225544D01*
X770175Y225551D01*
X770156Y225549D01*
X770127Y225551D01*
X748037Y225551D01*
X733551Y240037D01*
X733551Y341006D01*
X733537Y341132D01*
X733530Y341258D01*
X733517Y341304D01*
X733511Y341352D01*
X733469Y341471D01*
X733434Y341593D01*
X733410Y341635D01*
X733394Y341681D01*
X733325Y341787D01*
X733264Y341897D01*
X733224Y341943D01*
X733205Y341973D01*
X733170Y342007D01*
X733105Y342083D01*
X723083Y352105D01*
X722984Y352184D01*
X722890Y352268D01*
X722848Y352292D01*
X722810Y352322D01*
X722696Y352376D01*
X722585Y352437D01*
X722539Y352450D01*
X722495Y352471D01*
X722372Y352497D01*
X722250Y352532D01*
X722189Y352537D01*
X722154Y352544D01*
X722106Y352543D01*
X722006Y352551D01*
X547994Y352551D01*
X547868Y352537D01*
X547742Y352530D01*
X547696Y352517D01*
X547648Y352511D01*
X547529Y352469D01*
X547407Y352434D01*
X547365Y352410D01*
X547319Y352394D01*
X547213Y352325D01*
X547103Y352264D01*
X547057Y352224D01*
X547027Y352205D01*
X546993Y352170D01*
X546917Y352105D01*
X526661Y331849D01*
X526598Y331771D01*
X526528Y331698D01*
X526490Y331634D01*
X526444Y331576D01*
X526401Y331485D01*
X526350Y331399D01*
X526327Y331328D01*
X526295Y331261D01*
X526274Y331163D01*
X526243Y331067D01*
X526237Y330993D01*
X526222Y330920D01*
X526223Y330820D01*
X526215Y330720D01*
X526226Y330646D01*
X526228Y330572D01*
X526252Y330475D01*
X526267Y330375D01*
X526295Y330306D01*
X526313Y330234D01*
X526359Y330144D01*
X526396Y330051D01*
X526438Y329990D01*
X526472Y329924D01*
X526538Y329847D01*
X526595Y329765D01*
X526650Y329715D01*
X526698Y329659D01*
X526779Y329599D01*
X526854Y329532D01*
X526919Y329496D01*
X526978Y329451D01*
X527071Y329412D01*
X527159Y329363D01*
X527230Y329343D01*
X527298Y329313D01*
X527397Y329296D01*
X527494Y329268D01*
X527594Y329260D01*
X527641Y329252D01*
X527677Y329254D01*
X527738Y329249D01*
X641806Y329249D01*
X641932Y329263D01*
X642058Y329270D01*
X642104Y329283D01*
X642152Y329289D01*
X642271Y329331D01*
X642393Y329366D01*
X642435Y329390D01*
X642481Y329406D01*
X642587Y329475D01*
X642697Y329536D01*
X642743Y329576D01*
X642773Y329595D01*
X642807Y329630D01*
X642883Y329695D01*
X646437Y333249D01*
X693927Y333249D01*
X694003Y333257D01*
X694079Y333256D01*
X694175Y333277D01*
X694273Y333289D01*
X694345Y333314D01*
X694420Y333331D01*
X694508Y333373D01*
X694601Y333406D01*
X694665Y333448D01*
X694734Y333480D01*
X694811Y333542D01*
X694894Y333595D01*
X694947Y333650D01*
X695007Y333698D01*
X695068Y333775D01*
X695136Y333846D01*
X695175Y333911D01*
X695223Y333971D01*
X695291Y334105D01*
X695315Y334145D01*
X695321Y334163D01*
X695334Y334189D01*
X695827Y335380D01*
X698400Y337952D01*
X701761Y339345D01*
X720639Y339345D01*
X724000Y337952D01*
X726572Y335380D01*
X727965Y332019D01*
X727965Y328381D01*
X726572Y325020D01*
X724000Y322448D01*
X720639Y321055D01*
X701761Y321055D01*
X698400Y322448D01*
X695827Y325020D01*
X695334Y326211D01*
X695297Y326278D01*
X695269Y326349D01*
X695213Y326430D01*
X695165Y326516D01*
X695113Y326572D01*
X695070Y326635D01*
X694997Y326701D01*
X694931Y326774D01*
X694868Y326817D01*
X694811Y326868D01*
X694725Y326916D01*
X694644Y326972D01*
X694573Y327000D01*
X694506Y327037D01*
X694411Y327064D01*
X694320Y327100D01*
X694244Y327111D01*
X694171Y327132D01*
X694022Y327144D01*
X693975Y327151D01*
X693956Y327149D01*
X693927Y327151D01*
X649594Y327151D01*
X649468Y327137D01*
X649342Y327130D01*
X649296Y327117D01*
X649248Y327111D01*
X649129Y327069D01*
X649007Y327034D01*
X648965Y327010D01*
X648919Y326994D01*
X648813Y326925D01*
X648703Y326864D01*
X648657Y326824D01*
X648627Y326805D01*
X648593Y326770D01*
X648517Y326705D01*
X645661Y323849D01*
X645598Y323771D01*
X645528Y323698D01*
X645490Y323634D01*
X645444Y323576D01*
X645401Y323485D01*
X645350Y323399D01*
X645327Y323328D01*
X645295Y323261D01*
X645274Y323163D01*
X645243Y323067D01*
X645237Y322993D01*
X645222Y322920D01*
X645223Y322820D01*
X645215Y322720D01*
X645226Y322646D01*
X645228Y322572D01*
X645252Y322475D01*
X645267Y322375D01*
X645295Y322306D01*
X645313Y322234D01*
X645359Y322145D01*
X645396Y322051D01*
X645438Y321990D01*
X645472Y321924D01*
X645537Y321848D01*
X645595Y321765D01*
X645650Y321715D01*
X645698Y321659D01*
X645779Y321599D01*
X645854Y321532D01*
X645919Y321496D01*
X645978Y321451D01*
X646071Y321412D01*
X646159Y321363D01*
X646230Y321343D01*
X646298Y321313D01*
X646397Y321296D01*
X646494Y321268D01*
X646594Y321260D01*
X646641Y321252D01*
X646677Y321254D01*
X646738Y321249D01*
X648263Y321249D01*
X661217Y308295D01*
X661316Y308216D01*
X661410Y308132D01*
X661452Y308108D01*
X661490Y308078D01*
X661604Y308024D01*
X661715Y307963D01*
X661761Y307950D01*
X661805Y307929D01*
X661928Y307903D01*
X662050Y307868D01*
X662111Y307863D01*
X662146Y307856D01*
X662194Y307857D01*
X662294Y307849D01*
X693927Y307849D01*
X694003Y307857D01*
X694079Y307856D01*
X694175Y307877D01*
X694273Y307889D01*
X694345Y307914D01*
X694420Y307931D01*
X694508Y307973D01*
X694601Y308006D01*
X694665Y308048D01*
X694734Y308080D01*
X694811Y308142D01*
X694894Y308195D01*
X694947Y308250D01*
X695007Y308298D01*
X695068Y308375D01*
X695136Y308446D01*
X695175Y308511D01*
X695223Y308571D01*
X695291Y308705D01*
X695315Y308745D01*
X695321Y308763D01*
X695334Y308789D01*
X695827Y309980D01*
X698400Y312552D01*
X701761Y313945D01*
X720639Y313945D01*
X724000Y312552D01*
X726572Y309980D01*
X727965Y306619D01*
X727965Y302981D01*
X726572Y299620D01*
X724000Y297048D01*
X720639Y295655D01*
X701761Y295655D01*
X698400Y297048D01*
X695827Y299620D01*
X695334Y300811D01*
X695297Y300878D01*
X695269Y300949D01*
X695213Y301030D01*
X695165Y301116D01*
X695113Y301172D01*
X695070Y301235D01*
X694997Y301301D01*
X694931Y301374D01*
X694868Y301417D01*
X694811Y301468D01*
X694725Y301516D01*
X694644Y301572D01*
X694573Y301600D01*
X694506Y301637D01*
X694411Y301664D01*
X694320Y301700D01*
X694244Y301711D01*
X694171Y301732D01*
X694022Y301744D01*
X693975Y301751D01*
X693956Y301749D01*
X693927Y301751D01*
X658738Y301751D01*
X658638Y301740D01*
X658538Y301738D01*
X658465Y301720D01*
X658392Y301711D01*
X658297Y301678D01*
X658200Y301653D01*
X658133Y301619D01*
X658063Y301594D01*
X657979Y301539D01*
X657890Y301493D01*
X657833Y301445D01*
X657771Y301405D01*
X657701Y301333D01*
X657624Y301268D01*
X657580Y301208D01*
X657528Y301154D01*
X657477Y301068D01*
X657417Y300987D01*
X657388Y300919D01*
X657350Y300855D01*
X657319Y300759D01*
X657279Y300667D01*
X657266Y300594D01*
X657243Y300523D01*
X657235Y300423D01*
X657218Y300324D01*
X657221Y300250D01*
X657215Y300176D01*
X657230Y300076D01*
X657235Y299976D01*
X657256Y299905D01*
X657267Y299831D01*
X657304Y299738D01*
X657332Y299641D01*
X657368Y299576D01*
X657396Y299507D01*
X657453Y299425D01*
X657502Y299337D01*
X657567Y299261D01*
X657595Y299221D01*
X657621Y299197D01*
X657661Y299151D01*
X673917Y282895D01*
X674016Y282816D01*
X674110Y282732D01*
X674152Y282708D01*
X674190Y282678D01*
X674304Y282624D01*
X674415Y282563D01*
X674461Y282550D01*
X674505Y282529D01*
X674628Y282503D01*
X674750Y282468D01*
X674811Y282463D01*
X674846Y282456D01*
X674894Y282457D01*
X674994Y282449D01*
X693927Y282449D01*
X694003Y282457D01*
X694079Y282456D01*
X694175Y282477D01*
X694273Y282489D01*
X694345Y282514D01*
X694420Y282531D01*
X694508Y282573D01*
X694601Y282606D01*
X694665Y282648D01*
X694734Y282680D01*
X694811Y282742D01*
X694894Y282795D01*
X694947Y282850D01*
X695007Y282898D01*
X695068Y282975D01*
X695136Y283046D01*
X695175Y283111D01*
X695223Y283171D01*
X695291Y283305D01*
X695315Y283345D01*
X695321Y283363D01*
X695334Y283389D01*
X695827Y284580D01*
X698400Y287152D01*
X701761Y288545D01*
X720639Y288545D01*
X724000Y287152D01*
X726572Y284580D01*
X727965Y281219D01*
X727965Y277581D01*
X726572Y274220D01*
X724000Y271648D01*
X720639Y270255D01*
X701761Y270255D01*
X698400Y271648D01*
X695827Y274220D01*
X695334Y275411D01*
X695300Y275471D01*
X695294Y275488D01*
X695292Y275491D01*
X695269Y275549D01*
X695213Y275630D01*
X695165Y275716D01*
X695113Y275772D01*
X695070Y275835D01*
X694997Y275901D01*
X694931Y275974D01*
X694868Y276017D01*
X694811Y276068D01*
X694725Y276116D01*
X694644Y276172D01*
X694573Y276200D01*
X694506Y276237D01*
X694411Y276264D01*
X694320Y276300D01*
X694244Y276311D01*
X694171Y276332D01*
X694022Y276344D01*
X693975Y276351D01*
X693956Y276349D01*
X693927Y276351D01*
X671438Y276351D01*
X671338Y276340D01*
X671238Y276338D01*
X671165Y276320D01*
X671092Y276311D01*
X670997Y276278D01*
X670900Y276253D01*
X670833Y276219D01*
X670763Y276194D01*
X670679Y276139D01*
X670590Y276093D01*
X670533Y276045D01*
X670471Y276005D01*
X670401Y275933D01*
X670324Y275868D01*
X670280Y275808D01*
X670228Y275754D01*
X670177Y275668D01*
X670117Y275587D01*
X670088Y275519D01*
X670050Y275455D01*
X670019Y275359D01*
X669979Y275267D01*
X669966Y275194D01*
X669943Y275123D01*
X669935Y275023D01*
X669918Y274924D01*
X669921Y274850D01*
X669915Y274776D01*
X669930Y274676D01*
X669935Y274576D01*
X669956Y274505D01*
X669967Y274431D01*
X670004Y274338D01*
X670032Y274241D01*
X670068Y274176D01*
X670096Y274107D01*
X670153Y274025D01*
X670202Y273937D01*
X670267Y273861D01*
X670295Y273821D01*
X670321Y273797D01*
X670361Y273751D01*
X686617Y257495D01*
X686716Y257416D01*
X686810Y257332D01*
X686852Y257308D01*
X686890Y257278D01*
X687004Y257224D01*
X687115Y257163D01*
X687161Y257150D01*
X687205Y257129D01*
X687328Y257103D01*
X687450Y257068D01*
X687511Y257063D01*
X687546Y257056D01*
X687594Y257057D01*
X687694Y257049D01*
X693927Y257049D01*
X694003Y257057D01*
X694079Y257056D01*
X694175Y257077D01*
X694273Y257089D01*
X694345Y257114D01*
X694420Y257131D01*
X694508Y257173D01*
X694601Y257206D01*
X694665Y257248D01*
X694734Y257280D01*
X694811Y257342D01*
X694894Y257395D01*
X694947Y257450D01*
X695007Y257498D01*
X695068Y257575D01*
X695136Y257646D01*
X695175Y257711D01*
X695223Y257771D01*
X695291Y257905D01*
X695315Y257945D01*
X695321Y257963D01*
X695334Y257989D01*
X695827Y259180D01*
X698400Y261752D01*
X701761Y263145D01*
X720639Y263145D01*
X724000Y261752D01*
X726572Y259180D01*
X727965Y255819D01*
X727965Y252181D01*
X726572Y248820D01*
X724000Y246248D01*
X720639Y244855D01*
X701761Y244855D01*
X698400Y246248D01*
X695827Y248820D01*
X695334Y250011D01*
X695297Y250078D01*
X695269Y250149D01*
X695213Y250230D01*
X695165Y250316D01*
X695113Y250372D01*
X695070Y250435D01*
X694997Y250501D01*
X694931Y250574D01*
X694868Y250617D01*
X694811Y250668D01*
X694725Y250716D01*
X694644Y250772D01*
X694573Y250800D01*
X694506Y250837D01*
X694411Y250864D01*
X694320Y250900D01*
X694244Y250911D01*
X694171Y250932D01*
X694022Y250944D01*
X693975Y250951D01*
X693956Y250949D01*
X693927Y250951D01*
X684537Y250951D01*
X678749Y256739D01*
X678671Y256802D01*
X678598Y256872D01*
X678534Y256910D01*
X678476Y256956D01*
X678385Y256999D01*
X678299Y257050D01*
X678228Y257073D01*
X678161Y257105D01*
X678063Y257126D01*
X677967Y257157D01*
X677893Y257163D01*
X677820Y257178D01*
X677720Y257177D01*
X677620Y257185D01*
X677546Y257174D01*
X677472Y257172D01*
X677375Y257148D01*
X677275Y257133D01*
X677206Y257105D01*
X677134Y257087D01*
X677044Y257041D01*
X676951Y257004D01*
X676890Y256962D01*
X676824Y256928D01*
X676747Y256862D01*
X676665Y256805D01*
X676615Y256750D01*
X676559Y256702D01*
X676499Y256621D01*
X676432Y256546D01*
X676396Y256481D01*
X676351Y256422D01*
X676312Y256329D01*
X676263Y256241D01*
X676243Y256170D01*
X676213Y256102D01*
X676196Y256003D01*
X676168Y255906D01*
X676160Y255806D01*
X676152Y255759D01*
X676154Y255723D01*
X676149Y255662D01*
X676149Y243194D01*
X676163Y243068D01*
X676170Y242942D01*
X676183Y242896D01*
X676189Y242848D01*
X676231Y242729D01*
X676266Y242607D01*
X676290Y242565D01*
X676306Y242519D01*
X676375Y242413D01*
X676436Y242303D01*
X676476Y242257D01*
X676495Y242227D01*
X676530Y242193D01*
X676595Y242117D01*
X686617Y232095D01*
X686716Y232016D01*
X686810Y231932D01*
X686852Y231908D01*
X686890Y231878D01*
X687004Y231824D01*
X687115Y231763D01*
X687161Y231750D01*
X687205Y231729D01*
X687328Y231703D01*
X687450Y231668D01*
X687511Y231663D01*
X687546Y231656D01*
X687594Y231657D01*
X687694Y231649D01*
X693927Y231649D01*
X694003Y231657D01*
X694079Y231656D01*
X694175Y231677D01*
X694273Y231689D01*
X694345Y231714D01*
X694420Y231731D01*
X694508Y231773D01*
X694601Y231806D01*
X694665Y231848D01*
X694734Y231880D01*
X694811Y231942D01*
X694894Y231995D01*
X694947Y232050D01*
X695007Y232098D01*
X695068Y232175D01*
X695136Y232246D01*
X695175Y232311D01*
X695223Y232371D01*
X695291Y232505D01*
X695315Y232545D01*
X695321Y232563D01*
X695334Y232589D01*
X695827Y233780D01*
X698400Y236352D01*
X701761Y237745D01*
X720639Y237745D01*
X724000Y236352D01*
X726572Y233780D01*
X727965Y230419D01*
X727965Y226781D01*
X726572Y223420D01*
X724000Y220848D01*
X720639Y219455D01*
X701761Y219455D01*
X698400Y220848D01*
X695827Y223420D01*
X695334Y224611D01*
X695297Y224678D01*
X695269Y224749D01*
X695213Y224830D01*
X695165Y224916D01*
X695113Y224972D01*
X695070Y225035D01*
X694997Y225101D01*
X694931Y225174D01*
X694868Y225217D01*
X694811Y225268D01*
X694725Y225316D01*
X694644Y225372D01*
X694573Y225400D01*
X694506Y225437D01*
X694411Y225464D01*
X694320Y225500D01*
X694244Y225511D01*
X694171Y225532D01*
X694022Y225544D01*
X693975Y225551D01*
X693956Y225549D01*
X693927Y225551D01*
X684537Y225551D01*
X670051Y240037D01*
X670051Y252106D01*
X670037Y252232D01*
X670030Y252358D01*
X670017Y252404D01*
X670011Y252452D01*
X669969Y252571D01*
X669934Y252693D01*
X669910Y252735D01*
X669894Y252781D01*
X669825Y252887D01*
X669764Y252997D01*
X669724Y253043D01*
X669705Y253073D01*
X669670Y253107D01*
X669605Y253183D01*
X659583Y263205D01*
X659484Y263284D01*
X659390Y263368D01*
X659348Y263392D01*
X659310Y263422D01*
X659196Y263476D01*
X659085Y263537D01*
X659039Y263550D01*
X658995Y263571D01*
X658872Y263597D01*
X658750Y263632D01*
X658689Y263637D01*
X658654Y263644D01*
X658606Y263643D01*
X658506Y263651D01*
X636879Y263651D01*
X636779Y263640D01*
X636679Y263638D01*
X636606Y263620D01*
X636533Y263611D01*
X636438Y263578D01*
X636341Y263553D01*
X636274Y263519D01*
X636204Y263494D01*
X636120Y263439D01*
X636031Y263393D01*
X635974Y263345D01*
X635912Y263305D01*
X635842Y263233D01*
X635765Y263168D01*
X635721Y263108D01*
X635669Y263054D01*
X635618Y262968D01*
X635558Y262887D01*
X635529Y262819D01*
X635491Y262755D01*
X635460Y262659D01*
X635420Y262567D01*
X635407Y262494D01*
X635384Y262423D01*
X635376Y262323D01*
X635359Y262224D01*
X635362Y262150D01*
X635356Y262076D01*
X635371Y261976D01*
X635376Y261876D01*
X635397Y261805D01*
X635408Y261731D01*
X635445Y261638D01*
X635473Y261541D01*
X635509Y261476D01*
X635537Y261407D01*
X635594Y261325D01*
X635643Y261237D01*
X635708Y261161D01*
X635736Y261121D01*
X635762Y261097D01*
X635802Y261051D01*
X637673Y259180D01*
X639065Y255819D01*
X639065Y252181D01*
X637672Y248820D01*
X635100Y246248D01*
X631739Y244855D01*
X612861Y244855D01*
X609500Y246248D01*
X606927Y248820D01*
X606434Y250011D01*
X606397Y250078D01*
X606369Y250149D01*
X606313Y250230D01*
X606265Y250316D01*
X606213Y250372D01*
X606170Y250435D01*
X606097Y250501D01*
X606031Y250574D01*
X605968Y250617D01*
X605911Y250668D01*
X605825Y250716D01*
X605744Y250772D01*
X605673Y250800D01*
X605606Y250837D01*
X605511Y250864D01*
X605420Y250900D01*
X605344Y250911D01*
X605271Y250932D01*
X605122Y250944D01*
X605075Y250951D01*
X605056Y250949D01*
X605027Y250951D01*
X455937Y250951D01*
X450849Y256039D01*
X450771Y256102D01*
X450698Y256172D01*
X450634Y256210D01*
X450576Y256256D01*
X450485Y256299D01*
X450399Y256350D01*
X450328Y256373D01*
X450261Y256405D01*
X450163Y256426D01*
X450067Y256457D01*
X449993Y256463D01*
X449920Y256478D01*
X449820Y256477D01*
X449720Y256485D01*
X449646Y256474D01*
X449572Y256472D01*
X449475Y256448D01*
X449375Y256433D01*
X449306Y256405D01*
X449234Y256387D01*
X449144Y256341D01*
X449051Y256304D01*
X448990Y256262D01*
X448924Y256228D01*
X448847Y256162D01*
X448765Y256105D01*
X448715Y256050D01*
X448659Y256002D01*
X448599Y255921D01*
X448532Y255846D01*
X448496Y255781D01*
X448451Y255722D01*
X448412Y255629D01*
X448363Y255541D01*
X448343Y255470D01*
X448313Y255402D01*
X448296Y255303D01*
X448268Y255206D01*
X448260Y255106D01*
X448252Y255059D01*
X448254Y255023D01*
X448249Y254962D01*
X448249Y242494D01*
X448263Y242368D01*
X448270Y242242D01*
X448283Y242196D01*
X448289Y242148D01*
X448331Y242029D01*
X448366Y241907D01*
X448390Y241865D01*
X448406Y241819D01*
X448475Y241713D01*
X448536Y241603D01*
X448576Y241557D01*
X448595Y241527D01*
X448630Y241493D01*
X448695Y241417D01*
X458017Y232095D01*
X458116Y232016D01*
X458210Y231932D01*
X458252Y231908D01*
X458290Y231878D01*
X458404Y231824D01*
X458515Y231763D01*
X458561Y231750D01*
X458605Y231729D01*
X458728Y231703D01*
X458850Y231668D01*
X458911Y231663D01*
X458946Y231656D01*
X458994Y231657D01*
X459094Y231649D01*
X605027Y231649D01*
X605103Y231657D01*
X605179Y231656D01*
X605275Y231677D01*
X605373Y231689D01*
X605445Y231714D01*
X605520Y231731D01*
X605608Y231773D01*
X605701Y231806D01*
X605765Y231848D01*
X605834Y231880D01*
X605911Y231942D01*
X605994Y231995D01*
X606047Y232050D01*
X606107Y232098D01*
X606168Y232175D01*
X606236Y232246D01*
X606275Y232311D01*
X606323Y232371D01*
X606391Y232505D01*
X606415Y232545D01*
X606421Y232563D01*
X606434Y232589D01*
X606927Y233780D01*
X609500Y236352D01*
X612861Y237745D01*
X631739Y237745D01*
X635100Y236352D01*
X637672Y233780D01*
X639065Y230419D01*
X639065Y226781D01*
X637672Y223420D01*
X635100Y220848D01*
X631739Y219455D01*
X612861Y219455D01*
X609500Y220848D01*
X606927Y223420D01*
X606434Y224611D01*
X606397Y224678D01*
X606369Y224749D01*
X606313Y224830D01*
X606265Y224916D01*
X606213Y224972D01*
X606170Y225035D01*
X606097Y225101D01*
X606031Y225174D01*
X605968Y225217D01*
X605911Y225268D01*
X605825Y225316D01*
X605744Y225372D01*
X605673Y225400D01*
X605606Y225437D01*
X605511Y225464D01*
X605420Y225500D01*
X605344Y225511D01*
X605271Y225532D01*
X605122Y225544D01*
X605075Y225551D01*
X605056Y225549D01*
X605027Y225551D01*
X455937Y225551D01*
X442151Y239337D01*
X442151Y276534D01*
X442145Y276585D01*
X442148Y276636D01*
X442126Y276758D01*
X442111Y276881D01*
X442094Y276929D01*
X442085Y276979D01*
X442036Y277092D01*
X441994Y277209D01*
X441966Y277252D01*
X441946Y277298D01*
X441872Y277397D01*
X441805Y277501D01*
X441768Y277537D01*
X441738Y277578D01*
X441643Y277658D01*
X441554Y277744D01*
X441510Y277770D01*
X441471Y277803D01*
X441361Y277859D01*
X441255Y277922D01*
X441207Y277938D01*
X441161Y277961D01*
X441041Y277991D01*
X440923Y278029D01*
X440872Y278033D01*
X440823Y278045D01*
X440699Y278047D01*
X440576Y278057D01*
X440525Y278049D01*
X440474Y278050D01*
X440234Y278006D01*
X440231Y278005D01*
X439688Y277859D01*
X438723Y277859D01*
X438723Y288400D01*
X438723Y298941D01*
X439688Y298941D01*
X440509Y298721D01*
X441300Y298264D01*
X441362Y298208D01*
X441405Y298184D01*
X441442Y298154D01*
X441557Y298100D01*
X441667Y298039D01*
X441714Y298026D01*
X441757Y298005D01*
X441881Y297979D01*
X442003Y297944D01*
X442063Y297939D01*
X442098Y297932D01*
X442146Y297933D01*
X442247Y297925D01*
X448187Y297925D01*
X448280Y297856D01*
X448396Y297764D01*
X448420Y297753D01*
X448441Y297737D01*
X448577Y297678D01*
X448711Y297615D01*
X448737Y297610D01*
X448761Y297599D01*
X448907Y297573D01*
X449052Y297542D01*
X449078Y297542D01*
X449104Y297538D01*
X449252Y297545D01*
X449400Y297548D01*
X449426Y297554D01*
X449452Y297555D01*
X449594Y297597D01*
X449738Y297633D01*
X449761Y297645D01*
X449787Y297652D01*
X449916Y297725D01*
X450048Y297792D01*
X450068Y297809D01*
X450091Y297822D01*
X450211Y297925D01*
X456187Y297925D01*
X456280Y297856D01*
X456396Y297764D01*
X456420Y297753D01*
X456441Y297737D01*
X456577Y297678D01*
X456711Y297615D01*
X456737Y297610D01*
X456761Y297599D01*
X456907Y297573D01*
X457052Y297542D01*
X457078Y297542D01*
X457104Y297538D01*
X457252Y297545D01*
X457400Y297548D01*
X457426Y297554D01*
X457452Y297555D01*
X457594Y297597D01*
X457738Y297633D01*
X457761Y297645D01*
X457787Y297652D01*
X457916Y297725D01*
X458048Y297792D01*
X458068Y297809D01*
X458091Y297822D01*
X458211Y297925D01*
X464187Y297925D01*
X464280Y297856D01*
X464396Y297764D01*
X464420Y297753D01*
X464441Y297737D01*
X464577Y297678D01*
X464711Y297615D01*
X464737Y297610D01*
X464761Y297599D01*
X464907Y297573D01*
X465052Y297542D01*
X465078Y297542D01*
X465104Y297538D01*
X465252Y297545D01*
X465400Y297548D01*
X465426Y297554D01*
X465452Y297555D01*
X465594Y297597D01*
X465738Y297633D01*
X465761Y297645D01*
X465787Y297652D01*
X465916Y297725D01*
X466048Y297792D01*
X466068Y297809D01*
X466091Y297822D01*
X466211Y297925D01*
X472187Y297925D01*
X472280Y297856D01*
X472396Y297764D01*
X472420Y297753D01*
X472441Y297737D01*
X472577Y297678D01*
X472711Y297615D01*
X472737Y297610D01*
X472761Y297599D01*
X472907Y297573D01*
X473052Y297542D01*
X473078Y297542D01*
X473104Y297538D01*
X473252Y297545D01*
X473400Y297548D01*
X473426Y297554D01*
X473452Y297555D01*
X473594Y297597D01*
X473738Y297633D01*
X473761Y297645D01*
X473787Y297652D01*
X473916Y297725D01*
X474048Y297792D01*
X474068Y297809D01*
X474091Y297822D01*
X474211Y297925D01*
X480187Y297925D01*
X480280Y297856D01*
X480396Y297764D01*
X480420Y297753D01*
X480441Y297737D01*
X480577Y297678D01*
X480711Y297615D01*
X480737Y297610D01*
X480761Y297599D01*
X480907Y297573D01*
X481052Y297542D01*
X481078Y297542D01*
X481104Y297538D01*
X481252Y297545D01*
X481400Y297548D01*
X481426Y297554D01*
X481452Y297555D01*
X481594Y297597D01*
X481738Y297633D01*
X481761Y297645D01*
X481787Y297652D01*
X481916Y297725D01*
X482048Y297792D01*
X482068Y297809D01*
X482091Y297822D01*
X482211Y297925D01*
X487952Y297925D01*
X487978Y297928D01*
X488004Y297926D01*
X488151Y297948D01*
X488298Y297965D01*
X488323Y297973D01*
X488349Y297977D01*
X488487Y298032D01*
X488626Y298082D01*
X488648Y298096D01*
X488673Y298106D01*
X488794Y298191D01*
X488919Y298271D01*
X488937Y298290D01*
X488959Y298305D01*
X489058Y298415D01*
X489161Y298522D01*
X489175Y298544D01*
X489192Y298564D01*
X489264Y298694D01*
X489340Y298821D01*
X489348Y298846D01*
X489361Y298869D01*
X489401Y299012D01*
X489446Y299153D01*
X489448Y299179D01*
X489456Y299204D01*
X489475Y299448D01*
X489475Y305187D01*
X489544Y305280D01*
X489636Y305396D01*
X489647Y305420D01*
X489663Y305441D01*
X489722Y305577D01*
X489785Y305711D01*
X489790Y305737D01*
X489801Y305761D01*
X489827Y305907D01*
X489858Y306052D01*
X489858Y306078D01*
X489862Y306104D01*
X489855Y306252D01*
X489852Y306400D01*
X489846Y306426D01*
X489845Y306452D01*
X489803Y306594D01*
X489767Y306738D01*
X489755Y306761D01*
X489748Y306787D01*
X489675Y306916D01*
X489608Y307048D01*
X489591Y307068D01*
X489578Y307091D01*
X489475Y307211D01*
X489475Y313187D01*
X489544Y313280D01*
X489636Y313396D01*
X489647Y313420D01*
X489663Y313441D01*
X489722Y313577D01*
X489785Y313711D01*
X489790Y313737D01*
X489801Y313761D01*
X489827Y313907D01*
X489858Y314052D01*
X489858Y314078D01*
X489862Y314104D01*
X489855Y314252D01*
X489852Y314400D01*
X489846Y314426D01*
X489845Y314452D01*
X489803Y314594D01*
X489767Y314738D01*
X489755Y314761D01*
X489748Y314787D01*
X489675Y314916D01*
X489608Y315048D01*
X489591Y315068D01*
X489578Y315091D01*
X489475Y315211D01*
X489475Y321187D01*
X489544Y321280D01*
X489636Y321396D01*
X489647Y321420D01*
X489663Y321441D01*
X489722Y321577D01*
X489785Y321711D01*
X489790Y321737D01*
X489801Y321761D01*
X489827Y321907D01*
X489858Y322052D01*
X489858Y322078D01*
X489862Y322104D01*
X489855Y322252D01*
X489852Y322400D01*
X489846Y322426D01*
X489845Y322452D01*
X489803Y322594D01*
X489767Y322738D01*
X489755Y322761D01*
X489748Y322787D01*
X489675Y322916D01*
X489608Y323048D01*
X489591Y323068D01*
X489578Y323091D01*
X489475Y323211D01*
X489475Y329187D01*
X489544Y329280D01*
X489636Y329396D01*
X489647Y329420D01*
X489663Y329441D01*
X489722Y329577D01*
X489785Y329711D01*
X489790Y329737D01*
X489801Y329761D01*
X489827Y329907D01*
X489858Y330052D01*
X489858Y330078D01*
X489862Y330104D01*
X489855Y330252D01*
X489852Y330400D01*
X489846Y330426D01*
X489845Y330452D01*
X489803Y330594D01*
X489767Y330738D01*
X489755Y330761D01*
X489748Y330787D01*
X489675Y330916D01*
X489608Y331048D01*
X489591Y331068D01*
X489578Y331091D01*
X489475Y331211D01*
X489475Y337187D01*
X489544Y337280D01*
X489636Y337396D01*
X489647Y337420D01*
X489663Y337441D01*
X489722Y337577D01*
X489785Y337711D01*
X489790Y337737D01*
X489801Y337761D01*
X489827Y337907D01*
X489858Y338052D01*
X489858Y338078D01*
X489862Y338104D01*
X489855Y338252D01*
X489852Y338400D01*
X489846Y338426D01*
X489845Y338452D01*
X489803Y338594D01*
X489767Y338738D01*
X489755Y338761D01*
X489748Y338787D01*
X489675Y338916D01*
X489608Y339048D01*
X489591Y339068D01*
X489578Y339091D01*
X489475Y339211D01*
X489475Y345187D01*
X489544Y345280D01*
X489636Y345396D01*
X489647Y345420D01*
X489663Y345441D01*
X489722Y345577D01*
X489785Y345711D01*
X489790Y345737D01*
X489801Y345761D01*
X489827Y345907D01*
X489858Y346052D01*
X489858Y346078D01*
X489862Y346104D01*
X489855Y346252D01*
X489852Y346400D01*
X489846Y346426D01*
X489845Y346452D01*
X489803Y346594D01*
X489767Y346738D01*
X489755Y346761D01*
X489748Y346787D01*
X489675Y346916D01*
X489608Y347048D01*
X489591Y347068D01*
X489578Y347091D01*
X489475Y347211D01*
X489475Y353187D01*
X489544Y353280D01*
X489636Y353396D01*
X489647Y353420D01*
X489663Y353441D01*
X489722Y353577D01*
X489785Y353711D01*
X489790Y353737D01*
X489801Y353761D01*
X489827Y353907D01*
X489858Y354052D01*
X489858Y354078D01*
X489862Y354104D01*
X489855Y354252D01*
X489852Y354400D01*
X489846Y354426D01*
X489845Y354452D01*
X489803Y354594D01*
X489767Y354738D01*
X489755Y354761D01*
X489748Y354787D01*
X489675Y354916D01*
X489608Y355048D01*
X489591Y355068D01*
X489578Y355091D01*
X489475Y355211D01*
X489475Y360952D01*
X489472Y360978D01*
X489474Y361004D01*
X489452Y361151D01*
X489435Y361298D01*
X489427Y361323D01*
X489423Y361349D01*
X489368Y361487D01*
X489318Y361626D01*
X489304Y361648D01*
X489294Y361673D01*
X489209Y361794D01*
X489129Y361919D01*
X489110Y361937D01*
X489095Y361959D01*
X488985Y362058D01*
X488878Y362161D01*
X488856Y362175D01*
X488836Y362192D01*
X488706Y362264D01*
X488579Y362340D01*
X488554Y362348D01*
X488531Y362361D01*
X488388Y362401D01*
X488247Y362446D01*
X488221Y362448D01*
X488196Y362456D01*
X487952Y362475D01*
X482213Y362475D01*
X482120Y362544D01*
X482004Y362636D01*
X481980Y362647D01*
X481959Y362663D01*
X481823Y362722D01*
X481689Y362785D01*
X481663Y362790D01*
X481639Y362801D01*
X481493Y362827D01*
X481348Y362858D01*
X481322Y362858D01*
X481296Y362862D01*
X481148Y362855D01*
X481000Y362852D01*
X480974Y362846D01*
X480948Y362845D01*
X480806Y362803D01*
X480662Y362767D01*
X480639Y362755D01*
X480613Y362748D01*
X480484Y362675D01*
X480352Y362608D01*
X480332Y362591D01*
X480309Y362578D01*
X480189Y362475D01*
X474213Y362475D01*
X474120Y362544D01*
X474004Y362636D01*
X473980Y362647D01*
X473959Y362663D01*
X473823Y362722D01*
X473689Y362785D01*
X473663Y362790D01*
X473639Y362801D01*
X473493Y362827D01*
X473348Y362858D01*
X473322Y362858D01*
X473296Y362862D01*
X473148Y362855D01*
X473000Y362852D01*
X472974Y362846D01*
X472948Y362845D01*
X472806Y362803D01*
X472662Y362767D01*
X472639Y362755D01*
X472613Y362748D01*
X472484Y362675D01*
X472352Y362608D01*
X472332Y362591D01*
X472309Y362578D01*
X472189Y362475D01*
X466247Y362475D01*
X466121Y362461D01*
X465995Y362454D01*
X465948Y362441D01*
X465900Y362435D01*
X465781Y362393D01*
X465660Y362358D01*
X465618Y362334D01*
X465572Y362318D01*
X465466Y362249D01*
X465356Y362188D01*
X465310Y362148D01*
X465280Y362129D01*
X465270Y362119D01*
X464509Y361679D01*
X463688Y361459D01*
X462723Y361459D01*
X462723Y372000D01*
X462723Y382541D01*
X463688Y382541D01*
X464509Y382321D01*
X465301Y381863D01*
X465362Y381808D01*
X465405Y381784D01*
X465443Y381754D01*
X465557Y381700D01*
X465667Y381639D01*
X465714Y381626D01*
X465758Y381605D01*
X465881Y381579D01*
X466003Y381544D01*
X466064Y381539D01*
X466098Y381532D01*
X466146Y381533D01*
X466247Y381525D01*
X472628Y381525D01*
X472654Y381528D01*
X472680Y381526D01*
X472827Y381548D01*
X472974Y381565D01*
X472999Y381573D01*
X473025Y381577D01*
X473163Y381632D01*
X473302Y381682D01*
X473324Y381696D01*
X473349Y381706D01*
X473470Y381791D01*
X473595Y381871D01*
X473613Y381890D01*
X473635Y381905D01*
X473734Y382015D01*
X473837Y382122D01*
X473851Y382144D01*
X473868Y382164D01*
X473940Y382294D01*
X474016Y382421D01*
X474024Y382446D01*
X474037Y382469D01*
X474077Y382612D01*
X474122Y382753D01*
X474124Y382779D01*
X474132Y382804D01*
X474151Y383048D01*
X474151Y402263D01*
X479363Y407475D01*
X479426Y407553D01*
X479496Y407626D01*
X479534Y407690D01*
X479580Y407748D01*
X479623Y407839D01*
X479674Y407925D01*
X479697Y407996D01*
X479729Y408063D01*
X479750Y408161D01*
X479781Y408257D01*
X479787Y408331D01*
X479802Y408404D01*
X479801Y408504D01*
X479809Y408604D01*
X479798Y408678D01*
X479796Y408752D01*
X479772Y408849D01*
X479757Y408949D01*
X479729Y409018D01*
X479711Y409090D01*
X479665Y409180D01*
X479628Y409273D01*
X479586Y409334D01*
X479552Y409400D01*
X479486Y409477D01*
X479429Y409559D01*
X479374Y409609D01*
X479326Y409665D01*
X479245Y409725D01*
X479170Y409792D01*
X479105Y409828D01*
X479046Y409873D01*
X478953Y409912D01*
X478865Y409961D01*
X478794Y409981D01*
X478739Y410005D01*
X477775Y410968D01*
X477775Y427232D01*
X478668Y428125D01*
X489882Y428125D01*
X490008Y428139D01*
X490134Y428146D01*
X490180Y428159D01*
X490228Y428165D01*
X490347Y428207D01*
X490469Y428242D01*
X490511Y428266D01*
X490557Y428282D01*
X490663Y428351D01*
X490773Y428412D01*
X490819Y428452D01*
X490849Y428471D01*
X490883Y428506D01*
X490959Y428571D01*
X495005Y432617D01*
X497237Y434849D01*
X531506Y434849D01*
X531632Y434863D01*
X531758Y434870D01*
X531804Y434883D01*
X531852Y434889D01*
X531971Y434931D01*
X532093Y434966D01*
X532135Y434990D01*
X532181Y435006D01*
X532287Y435075D01*
X532397Y435136D01*
X532443Y435176D01*
X532473Y435195D01*
X532507Y435230D01*
X532583Y435295D01*
X533105Y435817D01*
X533184Y435916D01*
X533268Y436010D01*
X533292Y436052D01*
X533322Y436090D01*
X533376Y436204D01*
X533437Y436315D01*
X533450Y436361D01*
X533471Y436405D01*
X533497Y436528D01*
X533532Y436650D01*
X533537Y436711D01*
X533544Y436746D01*
X533543Y436794D01*
X533551Y436894D01*
X533551Y446652D01*
X533548Y446678D01*
X533550Y446704D01*
X533528Y446851D01*
X533511Y446998D01*
X533503Y447023D01*
X533499Y447049D01*
X533444Y447187D01*
X533394Y447326D01*
X533380Y447348D01*
X533370Y447373D01*
X533285Y447494D01*
X533205Y447619D01*
X533186Y447637D01*
X533171Y447659D01*
X533061Y447758D01*
X532954Y447861D01*
X532932Y447875D01*
X532912Y447892D01*
X532783Y447964D01*
X532655Y448040D01*
X532630Y448048D01*
X532607Y448061D01*
X532464Y448101D01*
X532323Y448146D01*
X532297Y448148D01*
X532272Y448156D01*
X532028Y448175D01*
X529468Y448175D01*
X528575Y449068D01*
X528575Y452628D01*
X528572Y452654D01*
X528574Y452680D01*
X528552Y452827D01*
X528535Y452974D01*
X528527Y452999D01*
X528523Y453025D01*
X528468Y453163D01*
X528418Y453302D01*
X528404Y453324D01*
X528394Y453349D01*
X528309Y453470D01*
X528229Y453595D01*
X528210Y453613D01*
X528195Y453635D01*
X528085Y453734D01*
X527978Y453837D01*
X527956Y453851D01*
X527936Y453868D01*
X527806Y453940D01*
X527679Y454016D01*
X527654Y454024D01*
X527631Y454037D01*
X527488Y454077D01*
X527347Y454122D01*
X527321Y454124D01*
X527296Y454132D01*
X527052Y454151D01*
X521848Y454151D01*
X519616Y456383D01*
X515425Y460574D01*
X515347Y460636D01*
X515274Y460706D01*
X515210Y460744D01*
X515152Y460790D01*
X515061Y460833D01*
X514975Y460885D01*
X514904Y460908D01*
X514837Y460939D01*
X514739Y460961D01*
X514643Y460991D01*
X514569Y460997D01*
X514496Y461013D01*
X514396Y461011D01*
X514296Y461019D01*
X514222Y461008D01*
X514148Y461007D01*
X514051Y460982D01*
X513951Y460967D01*
X513882Y460940D01*
X513810Y460922D01*
X513720Y460876D01*
X513627Y460839D01*
X513566Y460796D01*
X513500Y460762D01*
X513423Y460697D01*
X513341Y460640D01*
X513291Y460585D01*
X513235Y460536D01*
X513175Y460456D01*
X513108Y460381D01*
X513072Y460316D01*
X513027Y460256D01*
X512988Y460164D01*
X512939Y460076D01*
X512919Y460004D01*
X512889Y459936D01*
X512872Y459837D01*
X512844Y459741D01*
X512836Y459640D01*
X512828Y459593D01*
X512830Y459557D01*
X512825Y459497D01*
X512825Y449068D01*
X511932Y448175D01*
X503918Y448175D01*
X503792Y448161D01*
X503666Y448154D01*
X503620Y448141D01*
X503572Y448135D01*
X503453Y448093D01*
X503331Y448058D01*
X503289Y448034D01*
X503243Y448018D01*
X503137Y447949D01*
X503027Y447888D01*
X502981Y447848D01*
X502951Y447829D01*
X502917Y447794D01*
X502841Y447729D01*
X496563Y441451D01*
X468637Y441451D01*
X466405Y443683D01*
X456383Y453705D01*
X456284Y453784D01*
X456190Y453868D01*
X456148Y453892D01*
X456110Y453922D01*
X455996Y453976D01*
X455885Y454037D01*
X455839Y454050D01*
X455795Y454071D01*
X455672Y454097D01*
X455550Y454132D01*
X455489Y454137D01*
X455455Y454144D01*
X455407Y454143D01*
X455306Y454151D01*
X433694Y454151D01*
X433568Y454137D01*
X433442Y454130D01*
X433396Y454117D01*
X433348Y454111D01*
X433229Y454069D01*
X433107Y454034D01*
X433065Y454010D01*
X433019Y453994D01*
X432913Y453925D01*
X432803Y453864D01*
X432757Y453824D01*
X432727Y453805D01*
X432693Y453770D01*
X432617Y453705D01*
X422595Y443683D01*
X422516Y443584D01*
X422432Y443490D01*
X422408Y443448D01*
X422378Y443410D01*
X422324Y443296D01*
X422263Y443185D01*
X422250Y443139D01*
X422229Y443095D01*
X422203Y442972D01*
X422168Y442850D01*
X422163Y442789D01*
X422156Y442754D01*
X422157Y442706D01*
X422149Y442606D01*
X422149Y433737D01*
X415871Y427459D01*
X415792Y427360D01*
X415708Y427266D01*
X415684Y427224D01*
X415654Y427186D01*
X415600Y427072D01*
X415539Y426961D01*
X415526Y426915D01*
X415505Y426871D01*
X415479Y426748D01*
X415444Y426626D01*
X415439Y426565D01*
X415432Y426530D01*
X415433Y426482D01*
X415425Y426382D01*
X415425Y415018D01*
X415439Y414892D01*
X415446Y414766D01*
X415459Y414720D01*
X415465Y414672D01*
X415507Y414553D01*
X415542Y414431D01*
X415566Y414389D01*
X415582Y414343D01*
X415651Y414237D01*
X415712Y414127D01*
X415752Y414081D01*
X415771Y414051D01*
X415806Y414017D01*
X415871Y413941D01*
X419917Y409895D01*
X420016Y409816D01*
X420110Y409732D01*
X420152Y409708D01*
X420190Y409678D01*
X420304Y409624D01*
X420415Y409563D01*
X420461Y409550D01*
X420505Y409529D01*
X420628Y409503D01*
X420750Y409468D01*
X420811Y409463D01*
X420846Y409456D01*
X420894Y409457D01*
X420994Y409449D01*
X433462Y409449D01*
X433562Y409460D01*
X433662Y409462D01*
X433735Y409480D01*
X433808Y409489D01*
X433903Y409522D01*
X434000Y409547D01*
X434067Y409581D01*
X434137Y409606D01*
X434221Y409661D01*
X434310Y409707D01*
X434367Y409755D01*
X434429Y409795D01*
X434499Y409867D01*
X434576Y409932D01*
X434620Y409992D01*
X434672Y410046D01*
X434723Y410132D01*
X434783Y410213D01*
X434812Y410281D01*
X434850Y410345D01*
X434881Y410441D01*
X434921Y410533D01*
X434934Y410606D01*
X434957Y410677D01*
X434965Y410777D01*
X434982Y410876D01*
X434979Y410950D01*
X434985Y411024D01*
X434970Y411124D01*
X434965Y411224D01*
X434944Y411295D01*
X434933Y411369D01*
X434896Y411462D01*
X434868Y411559D01*
X434832Y411624D01*
X434804Y411693D01*
X434747Y411775D01*
X434698Y411863D01*
X434633Y411939D01*
X434605Y411979D01*
X434579Y412003D01*
X434539Y412049D01*
X430983Y415605D01*
X428751Y417837D01*
X428751Y421262D01*
X428737Y421387D01*
X428730Y421513D01*
X428717Y421560D01*
X428711Y421608D01*
X428669Y421727D01*
X428634Y421848D01*
X428610Y421890D01*
X428594Y421936D01*
X428525Y422042D01*
X428464Y422152D01*
X428424Y422199D01*
X428405Y422229D01*
X428370Y422262D01*
X428305Y422339D01*
X426975Y423668D01*
X426975Y439932D01*
X427868Y440825D01*
X442132Y440825D01*
X442829Y440127D01*
X442870Y440095D01*
X442904Y440057D01*
X443005Y439987D01*
X443102Y439910D01*
X443149Y439888D01*
X443191Y439859D01*
X443306Y439814D01*
X443418Y439761D01*
X443467Y439751D01*
X443515Y439732D01*
X443637Y439714D01*
X443758Y439688D01*
X443809Y439689D01*
X443860Y439681D01*
X443983Y439692D01*
X444107Y439694D01*
X444156Y439706D01*
X444207Y439711D01*
X444325Y439749D01*
X444445Y439779D01*
X444490Y439802D01*
X444539Y439818D01*
X444645Y439882D01*
X444754Y439939D01*
X444793Y439972D01*
X444837Y439998D01*
X444926Y440084D01*
X445020Y440164D01*
X445050Y440205D01*
X445087Y440241D01*
X445226Y440442D01*
X445467Y440860D01*
X445940Y441333D01*
X446519Y441668D01*
X447165Y441841D01*
X450953Y441841D01*
X450953Y433324D01*
X450956Y433298D01*
X450954Y433272D01*
X450976Y433125D01*
X450993Y432978D01*
X451001Y432953D01*
X451005Y432927D01*
X451060Y432789D01*
X451110Y432650D01*
X451124Y432628D01*
X451134Y432603D01*
X451219Y432482D01*
X451299Y432357D01*
X451318Y432339D01*
X451333Y432317D01*
X451443Y432218D01*
X451550Y432115D01*
X451572Y432101D01*
X451592Y432084D01*
X451722Y432012D01*
X451849Y431936D01*
X451874Y431928D01*
X451897Y431915D01*
X452040Y431875D01*
X452181Y431830D01*
X452207Y431828D01*
X452232Y431820D01*
X452476Y431801D01*
X454001Y431801D01*
X454001Y431799D01*
X452476Y431799D01*
X452450Y431796D01*
X452424Y431798D01*
X452277Y431776D01*
X452130Y431759D01*
X452105Y431750D01*
X452079Y431747D01*
X451941Y431692D01*
X451802Y431642D01*
X451780Y431628D01*
X451755Y431618D01*
X451634Y431533D01*
X451509Y431453D01*
X451491Y431434D01*
X451469Y431419D01*
X451370Y431309D01*
X451267Y431202D01*
X451253Y431180D01*
X451236Y431160D01*
X451164Y431030D01*
X451088Y430903D01*
X451080Y430878D01*
X451067Y430855D01*
X451027Y430712D01*
X450982Y430571D01*
X450980Y430545D01*
X450972Y430520D01*
X450953Y430276D01*
X450953Y421759D01*
X447165Y421759D01*
X446519Y421932D01*
X445940Y422267D01*
X445467Y422740D01*
X445226Y423158D01*
X445195Y423199D01*
X445172Y423244D01*
X445092Y423338D01*
X445018Y423438D01*
X444979Y423471D01*
X444946Y423509D01*
X444847Y423583D01*
X444752Y423663D01*
X444707Y423686D01*
X444666Y423717D01*
X444552Y423766D01*
X444442Y423822D01*
X444393Y423834D01*
X444346Y423855D01*
X444224Y423876D01*
X444104Y423906D01*
X444053Y423907D01*
X444003Y423916D01*
X443879Y423910D01*
X443756Y423912D01*
X443706Y423901D01*
X443655Y423898D01*
X443536Y423864D01*
X443415Y423838D01*
X443369Y423816D01*
X443320Y423802D01*
X443212Y423741D01*
X443100Y423688D01*
X443060Y423657D01*
X443016Y423632D01*
X442829Y423473D01*
X442132Y422775D01*
X436372Y422775D01*
X436346Y422772D01*
X436320Y422774D01*
X436173Y422752D01*
X436026Y422735D01*
X436001Y422727D01*
X435975Y422723D01*
X435837Y422668D01*
X435698Y422618D01*
X435676Y422604D01*
X435651Y422594D01*
X435530Y422509D01*
X435405Y422429D01*
X435387Y422410D01*
X435365Y422395D01*
X435266Y422285D01*
X435163Y422178D01*
X435149Y422156D01*
X435132Y422136D01*
X435060Y422006D01*
X434984Y421879D01*
X434976Y421854D01*
X434963Y421831D01*
X434923Y421688D01*
X434878Y421547D01*
X434876Y421521D01*
X434868Y421496D01*
X434849Y421252D01*
X434849Y420994D01*
X434851Y420970D01*
X434850Y420947D01*
X434864Y420851D01*
X434870Y420742D01*
X434883Y420696D01*
X434889Y420648D01*
X434899Y420619D01*
X434901Y420602D01*
X434933Y420523D01*
X434966Y420407D01*
X434990Y420365D01*
X435006Y420319D01*
X435026Y420289D01*
X435030Y420278D01*
X435065Y420228D01*
X435075Y420213D01*
X435136Y420103D01*
X435176Y420057D01*
X435195Y420027D01*
X435226Y419997D01*
X435229Y419992D01*
X435236Y419986D01*
X435295Y419917D01*
X456249Y398963D01*
X456249Y383866D01*
X456255Y383815D01*
X456252Y383764D01*
X456274Y383642D01*
X456289Y383519D01*
X456306Y383471D01*
X456315Y383421D01*
X456364Y383308D01*
X456406Y383191D01*
X456434Y383148D01*
X456454Y383102D01*
X456528Y383003D01*
X456595Y382899D01*
X456632Y382863D01*
X456662Y382822D01*
X456757Y382742D01*
X456846Y382656D01*
X456890Y382630D01*
X456929Y382597D01*
X457039Y382541D01*
X457145Y382478D01*
X457193Y382462D01*
X457239Y382439D01*
X457359Y382409D01*
X457477Y382371D01*
X457528Y382367D01*
X457577Y382355D01*
X457701Y382353D01*
X457824Y382343D01*
X457875Y382351D01*
X457926Y382350D01*
X458166Y382394D01*
X458169Y382395D01*
X458712Y382541D01*
X459677Y382541D01*
X459677Y372000D01*
X459677Y361459D01*
X458712Y361459D01*
X457891Y361679D01*
X457099Y362137D01*
X457038Y362192D01*
X456995Y362216D01*
X456957Y362246D01*
X456843Y362300D01*
X456733Y362361D01*
X456686Y362374D01*
X456642Y362395D01*
X456519Y362421D01*
X456397Y362456D01*
X456336Y362461D01*
X456302Y362468D01*
X456254Y362467D01*
X456153Y362475D01*
X449772Y362475D01*
X449746Y362472D01*
X449720Y362474D01*
X449573Y362452D01*
X449426Y362435D01*
X449401Y362427D01*
X449375Y362423D01*
X449237Y362368D01*
X449098Y362318D01*
X449076Y362304D01*
X449051Y362294D01*
X448930Y362209D01*
X448805Y362129D01*
X448787Y362110D01*
X448765Y362095D01*
X448666Y361985D01*
X448563Y361878D01*
X448549Y361856D01*
X448532Y361836D01*
X448460Y361706D01*
X448384Y361579D01*
X448376Y361554D01*
X448363Y361531D01*
X448323Y361388D01*
X448278Y361247D01*
X448276Y361221D01*
X448268Y361196D01*
X448249Y360952D01*
X448249Y329637D01*
X432695Y314083D01*
X432616Y313984D01*
X432532Y313890D01*
X432508Y313848D01*
X432478Y313810D01*
X432424Y313696D01*
X432363Y313585D01*
X432350Y313539D01*
X432329Y313495D01*
X432303Y313372D01*
X432268Y313250D01*
X432263Y313189D01*
X432256Y313154D01*
X432257Y313106D01*
X432249Y313006D01*
X432249Y300266D01*
X432255Y300215D01*
X432252Y300164D01*
X432274Y300042D01*
X432289Y299919D01*
X432306Y299871D01*
X432315Y299821D01*
X432364Y299708D01*
X432406Y299591D01*
X432434Y299548D01*
X432454Y299502D01*
X432528Y299402D01*
X432595Y299299D01*
X432632Y299263D01*
X432662Y299222D01*
X432757Y299142D01*
X432846Y299056D01*
X432890Y299030D01*
X432929Y298997D01*
X433039Y298941D01*
X433145Y298878D01*
X433194Y298862D01*
X433239Y298839D01*
X433359Y298809D01*
X433477Y298771D01*
X433528Y298767D01*
X433577Y298755D01*
X433701Y298753D01*
X433824Y298743D01*
X433875Y298751D01*
X433926Y298750D01*
X434166Y298794D01*
X434169Y298795D01*
X434712Y298941D01*
X435677Y298941D01*
X435677Y288400D01*
X435677Y277859D01*
X434712Y277859D01*
X434166Y278006D01*
X434116Y278013D01*
X434067Y278029D01*
X433944Y278039D01*
X433821Y278057D01*
X433771Y278053D01*
X433720Y278057D01*
X433597Y278038D01*
X433474Y278028D01*
X433426Y278013D01*
X433375Y278005D01*
X433260Y277959D01*
X433142Y277921D01*
X433099Y277895D01*
X433051Y277876D01*
X432950Y277806D01*
X432844Y277742D01*
X432807Y277706D01*
X432765Y277677D01*
X432682Y277586D01*
X432593Y277499D01*
X432566Y277456D01*
X432532Y277419D01*
X432472Y277310D01*
X432405Y277206D01*
X432388Y277158D01*
X432363Y277113D01*
X432330Y276994D01*
X432288Y276878D01*
X432282Y276827D01*
X432268Y276778D01*
X432249Y276534D01*
X432249Y182372D01*
X432252Y182346D01*
X432250Y182320D01*
X432272Y182173D01*
X432289Y182026D01*
X432297Y182001D01*
X432301Y181975D01*
X432356Y181837D01*
X432406Y181698D01*
X432420Y181676D01*
X432430Y181651D01*
X432515Y181530D01*
X432595Y181405D01*
X432614Y181387D01*
X432629Y181365D01*
X432739Y181266D01*
X432846Y181163D01*
X432868Y181149D01*
X432888Y181132D01*
X433018Y181060D01*
X433145Y180984D01*
X433170Y180976D01*
X433193Y180963D01*
X433336Y180923D01*
X433477Y180878D01*
X433503Y180876D01*
X433528Y180868D01*
X433772Y180849D01*
X605027Y180849D01*
X605103Y180857D01*
X605179Y180856D01*
X605275Y180877D01*
X605373Y180889D01*
X605445Y180914D01*
X605520Y180931D01*
X605608Y180973D01*
X605701Y181006D01*
X605765Y181048D01*
X605834Y181080D01*
X605911Y181142D01*
X605994Y181195D01*
X606047Y181250D01*
X606107Y181298D01*
X606168Y181375D01*
X606236Y181446D01*
X606275Y181511D01*
X606323Y181571D01*
X606391Y181705D01*
X606415Y181745D01*
X606421Y181763D01*
X606434Y181789D01*
X606927Y182980D01*
X609500Y185552D01*
X612861Y186945D01*
X631739Y186945D01*
X635100Y185552D01*
X637673Y182980D01*
X638166Y181789D01*
X638203Y181722D01*
X638231Y181651D01*
X638287Y181570D01*
X638335Y181484D01*
X638387Y181428D01*
X638430Y181365D01*
X638503Y181299D01*
X638569Y181226D01*
X638632Y181183D01*
X638689Y181132D01*
X638775Y181084D01*
X638856Y181028D01*
X638927Y181000D01*
X638994Y180963D01*
X639089Y180936D01*
X639180Y180900D01*
X639256Y180889D01*
X639329Y180868D01*
X639478Y180856D01*
X639525Y180849D01*
X639544Y180851D01*
X639573Y180849D01*
X693927Y180849D01*
X694003Y180857D01*
X694079Y180856D01*
X694175Y180877D01*
X694273Y180889D01*
X694345Y180914D01*
X694420Y180931D01*
X694508Y180973D01*
X694601Y181006D01*
X694665Y181048D01*
X694734Y181080D01*
X694811Y181142D01*
X694894Y181195D01*
X694947Y181250D01*
X695007Y181298D01*
X695068Y181375D01*
X695136Y181446D01*
X695175Y181511D01*
X695223Y181571D01*
X695291Y181705D01*
X695315Y181745D01*
X695321Y181763D01*
X695334Y181789D01*
X695827Y182980D01*
X698400Y185552D01*
X701761Y186945D01*
X720639Y186945D01*
X724000Y185552D01*
X726573Y182980D01*
X727066Y181789D01*
X727103Y181722D01*
X727131Y181651D01*
X727187Y181570D01*
X727235Y181484D01*
X727287Y181428D01*
X727330Y181365D01*
X727403Y181299D01*
X727469Y181226D01*
X727532Y181183D01*
X727589Y181132D01*
X727675Y181084D01*
X727756Y181028D01*
X727827Y181000D01*
X727894Y180963D01*
X727989Y180936D01*
X728080Y180900D01*
X728156Y180889D01*
X728229Y180868D01*
X728378Y180856D01*
X728425Y180849D01*
X728444Y180851D01*
X728473Y180849D01*
X770127Y180849D01*
X770203Y180857D01*
X770279Y180856D01*
X770375Y180877D01*
X770473Y180889D01*
X770545Y180914D01*
X770620Y180931D01*
X770708Y180973D01*
X770801Y181006D01*
X770865Y181048D01*
X770934Y181080D01*
X771011Y181142D01*
X771094Y181195D01*
X771147Y181250D01*
X771207Y181298D01*
X771268Y181375D01*
X771336Y181446D01*
X771375Y181511D01*
X771423Y181571D01*
X771491Y181705D01*
X771515Y181745D01*
X771521Y181763D01*
X771534Y181789D01*
X772027Y182980D01*
X774600Y185552D01*
X777961Y186945D01*
X796839Y186945D01*
X800200Y185552D01*
X802773Y182980D01*
X803266Y181789D01*
X803303Y181722D01*
X803331Y181651D01*
X803387Y181570D01*
X803435Y181484D01*
X803487Y181428D01*
X803530Y181365D01*
X803603Y181299D01*
X803669Y181226D01*
X803732Y181183D01*
X803789Y181132D01*
X803875Y181084D01*
X803956Y181028D01*
X804027Y181000D01*
X804094Y180963D01*
X804189Y180936D01*
X804280Y180900D01*
X804356Y180889D01*
X804429Y180868D01*
X804578Y180856D01*
X804625Y180849D01*
X804644Y180851D01*
X804673Y180849D01*
X846327Y180849D01*
X846403Y180857D01*
X846479Y180856D01*
X846575Y180877D01*
X846673Y180889D01*
X846745Y180914D01*
X846820Y180931D01*
X846908Y180973D01*
X847001Y181006D01*
X847065Y181048D01*
X847134Y181080D01*
X847211Y181142D01*
X847294Y181195D01*
X847347Y181250D01*
X847407Y181298D01*
X847468Y181375D01*
X847536Y181446D01*
X847575Y181511D01*
X847623Y181571D01*
X847691Y181705D01*
X847715Y181745D01*
X847721Y181763D01*
X847734Y181789D01*
X848227Y182980D01*
X850800Y185552D01*
X854161Y186945D01*
X873039Y186945D01*
X876400Y185552D01*
X878973Y182980D01*
X879466Y181789D01*
X879503Y181722D01*
X879531Y181651D01*
X879587Y181571D01*
X879635Y181484D01*
X879687Y181428D01*
X879730Y181365D01*
X879803Y181299D01*
X879869Y181226D01*
X879932Y181183D01*
X879989Y181132D01*
X880075Y181084D01*
X880156Y181028D01*
X880227Y181000D01*
X880294Y180963D01*
X880389Y180936D01*
X880480Y180900D01*
X880556Y180889D01*
X880629Y180868D01*
X880778Y180856D01*
X880825Y180849D01*
X880844Y180851D01*
X880873Y180849D01*
X899806Y180849D01*
X899932Y180863D01*
X900058Y180870D01*
X900104Y180883D01*
X900152Y180889D01*
X900271Y180931D01*
X900393Y180966D01*
X900435Y180990D01*
X900481Y181006D01*
X900587Y181075D01*
X900697Y181136D01*
X900743Y181176D01*
X900773Y181195D01*
X900807Y181230D01*
X900883Y181295D01*
X910905Y191317D01*
X910984Y191416D01*
X911068Y191510D01*
X911092Y191552D01*
X911122Y191590D01*
X911176Y191704D01*
X911237Y191815D01*
X911250Y191861D01*
X911271Y191905D01*
X911297Y192028D01*
X911332Y192150D01*
X911337Y192211D01*
X911344Y192246D01*
X911343Y192294D01*
X911351Y192394D01*
X911351Y277506D01*
X911337Y277632D01*
X911330Y277758D01*
X911317Y277804D01*
X911311Y277852D01*
X911269Y277971D01*
X911234Y278093D01*
X911210Y278135D01*
X911194Y278181D01*
X911125Y278287D01*
X911064Y278397D01*
X911024Y278443D01*
X911005Y278473D01*
X910970Y278507D01*
X910905Y278583D01*
X900883Y288605D01*
X900784Y288684D01*
X900690Y288768D01*
X900648Y288792D01*
X900610Y288822D01*
X900496Y288876D01*
X900385Y288937D01*
X900339Y288950D01*
X900295Y288971D01*
X900172Y288997D01*
X900050Y289032D01*
X899989Y289037D01*
X899954Y289044D01*
X899906Y289043D01*
X899806Y289051D01*
X786137Y289051D01*
X771651Y303537D01*
X771651Y426706D01*
X771637Y426832D01*
X771630Y426958D01*
X771617Y427004D01*
X771611Y427052D01*
X771569Y427171D01*
X771534Y427293D01*
X771510Y427335D01*
X771494Y427381D01*
X771425Y427487D01*
X771364Y427597D01*
X771324Y427643D01*
X771305Y427673D01*
X771270Y427707D01*
X771205Y427783D01*
X751259Y447729D01*
X751160Y447808D01*
X751066Y447892D01*
X751024Y447916D01*
X750986Y447946D01*
X750872Y448000D01*
X750761Y448061D01*
X750715Y448074D01*
X750671Y448095D01*
X750548Y448121D01*
X750426Y448156D01*
X750365Y448161D01*
X750330Y448168D01*
X750282Y448167D01*
X750182Y448175D01*
X738968Y448175D01*
X738271Y448873D01*
X738230Y448905D01*
X738196Y448943D01*
X738095Y449013D01*
X737998Y449090D01*
X737951Y449112D01*
X737909Y449141D01*
X737794Y449186D01*
X737682Y449239D01*
X737633Y449249D01*
X737585Y449268D01*
X737463Y449286D01*
X737342Y449312D01*
X737291Y449311D01*
X737240Y449319D01*
X737117Y449308D01*
X736993Y449306D01*
X736944Y449294D01*
X736893Y449289D01*
X736775Y449251D01*
X736655Y449221D01*
X736610Y449198D01*
X736561Y449182D01*
X736455Y449118D01*
X736346Y449061D01*
X736307Y449028D01*
X736263Y449002D01*
X736174Y448916D01*
X736080Y448836D01*
X736050Y448795D01*
X736013Y448759D01*
X735874Y448558D01*
X735633Y448140D01*
X735160Y447667D01*
X734581Y447332D01*
X733935Y447159D01*
X730147Y447159D01*
X730147Y455676D01*
X730144Y455702D01*
X730146Y455728D01*
X730124Y455875D01*
X730107Y456022D01*
X730098Y456047D01*
X730095Y456073D01*
X730040Y456211D01*
X729990Y456350D01*
X729976Y456372D01*
X729966Y456397D01*
X729881Y456518D01*
X729801Y456643D01*
X729782Y456661D01*
X729767Y456683D01*
X729657Y456782D01*
X729550Y456885D01*
X729528Y456899D01*
X729508Y456916D01*
X729378Y456988D01*
X729251Y457064D01*
X729226Y457072D01*
X729203Y457085D01*
X729060Y457125D01*
X728919Y457170D01*
X728893Y457172D01*
X728868Y457180D01*
X728624Y457199D01*
X727099Y457199D01*
X727099Y457201D01*
X728624Y457201D01*
X728650Y457204D01*
X728676Y457202D01*
X728823Y457224D01*
X728970Y457241D01*
X728995Y457250D01*
X729021Y457253D01*
X729159Y457308D01*
X729298Y457358D01*
X729320Y457372D01*
X729345Y457382D01*
X729466Y457467D01*
X729591Y457547D01*
X729609Y457566D01*
X729631Y457581D01*
X729730Y457691D01*
X729833Y457798D01*
X729847Y457820D01*
X729864Y457840D01*
X729936Y457970D01*
X730012Y458097D01*
X730020Y458122D01*
X730033Y458145D01*
X730073Y458288D01*
X730118Y458429D01*
X730120Y458455D01*
X730128Y458480D01*
X730147Y458724D01*
X730147Y467241D01*
X733935Y467241D01*
X734581Y467068D01*
X735160Y466733D01*
X735633Y466260D01*
X735874Y465842D01*
X735905Y465801D01*
X735928Y465756D01*
X736008Y465662D01*
X736082Y465562D01*
X736121Y465529D01*
X736154Y465491D01*
X736253Y465417D01*
X736348Y465337D01*
X736393Y465314D01*
X736434Y465283D01*
X736548Y465234D01*
X736658Y465178D01*
X736707Y465166D01*
X736754Y465145D01*
X736876Y465124D01*
X736996Y465094D01*
X737047Y465093D01*
X737097Y465084D01*
X737221Y465090D01*
X737344Y465088D01*
X737394Y465099D01*
X737445Y465102D01*
X737564Y465136D01*
X737685Y465162D01*
X737731Y465184D01*
X737780Y465198D01*
X737888Y465259D01*
X738000Y465312D01*
X738040Y465343D01*
X738084Y465368D01*
X738271Y465527D01*
X738968Y466225D01*
X750182Y466225D01*
X750308Y466239D01*
X750434Y466246D01*
X750480Y466259D01*
X750528Y466265D01*
X750647Y466307D01*
X750769Y466342D01*
X750811Y466366D01*
X750857Y466382D01*
X750963Y466451D01*
X751073Y466512D01*
X751119Y466552D01*
X751149Y466571D01*
X751183Y466606D01*
X751259Y466671D01*
X768005Y483417D01*
X768084Y483516D01*
X768168Y483610D01*
X768192Y483652D01*
X768222Y483690D01*
X768276Y483804D01*
X768337Y483915D01*
X768350Y483961D01*
X768371Y484005D01*
X768397Y484128D01*
X768432Y484250D01*
X768437Y484311D01*
X768444Y484346D01*
X768443Y484394D01*
X768451Y484494D01*
X768451Y537310D01*
X768437Y537436D01*
X768430Y537562D01*
X768417Y537609D01*
X768411Y537657D01*
X768369Y537776D01*
X768334Y537897D01*
X768310Y537939D01*
X768294Y537985D01*
X768225Y538091D01*
X768164Y538201D01*
X768124Y538248D01*
X768105Y538278D01*
X768070Y538311D01*
X768005Y538388D01*
X767649Y538744D01*
X767570Y538806D01*
X767498Y538876D01*
X767434Y538914D01*
X767376Y538960D01*
X767285Y539003D01*
X767223Y539040D01*
X767225Y539063D01*
X767225Y552431D01*
X768118Y553324D01*
X774882Y553324D01*
X775775Y552431D01*
X775775Y539167D01*
X774995Y538388D01*
X774916Y538289D01*
X774832Y538195D01*
X774808Y538152D01*
X774778Y538115D01*
X774724Y538000D01*
X774663Y537890D01*
X774650Y537843D01*
X774629Y537799D01*
X774603Y537676D01*
X774568Y537554D01*
X774563Y537494D01*
X774556Y537459D01*
X774557Y537411D01*
X774549Y537310D01*
X774549Y481337D01*
X754571Y461359D01*
X754492Y461260D01*
X754408Y461166D01*
X754384Y461124D01*
X754354Y461086D01*
X754300Y460972D01*
X754239Y460861D01*
X754226Y460815D01*
X754205Y460771D01*
X754179Y460648D01*
X754144Y460526D01*
X754139Y460465D01*
X754132Y460431D01*
X754133Y460383D01*
X754125Y460282D01*
X754125Y454118D01*
X754139Y453992D01*
X754146Y453866D01*
X754159Y453820D01*
X754165Y453772D01*
X754207Y453653D01*
X754242Y453531D01*
X754266Y453489D01*
X754282Y453443D01*
X754351Y453337D01*
X754412Y453227D01*
X754452Y453181D01*
X754471Y453151D01*
X754506Y453117D01*
X754571Y453041D01*
X777749Y429863D01*
X777749Y306694D01*
X777763Y306568D01*
X777770Y306442D01*
X777783Y306396D01*
X777789Y306348D01*
X777831Y306229D01*
X777866Y306107D01*
X777890Y306065D01*
X777906Y306019D01*
X777975Y305913D01*
X778036Y305803D01*
X778076Y305757D01*
X778095Y305727D01*
X778130Y305693D01*
X778195Y305617D01*
X788217Y295595D01*
X788316Y295516D01*
X788410Y295432D01*
X788452Y295408D01*
X788490Y295378D01*
X788604Y295324D01*
X788715Y295263D01*
X788761Y295250D01*
X788805Y295229D01*
X788928Y295203D01*
X789050Y295168D01*
X789111Y295163D01*
X789146Y295156D01*
X789194Y295157D01*
X789294Y295149D01*
X902963Y295149D01*
X917449Y280663D01*
X917449Y189237D01*
X902963Y174751D01*
X880873Y174751D01*
X880797Y174743D01*
X880721Y174744D01*
X880624Y174723D01*
X880527Y174711D01*
X880455Y174686D01*
X880380Y174669D01*
X880291Y174627D01*
X880199Y174594D01*
X880135Y174552D01*
X880066Y174520D01*
X879989Y174458D01*
X879906Y174405D01*
X879853Y174350D01*
X879793Y174302D01*
X879732Y174225D01*
X879664Y174154D01*
X879625Y174089D01*
X879577Y174029D01*
X879509Y173896D01*
X879485Y173855D01*
X879479Y173837D01*
X879466Y173811D01*
X878973Y172620D01*
X876400Y170048D01*
X873039Y168655D01*
X854161Y168655D01*
X850800Y170048D01*
X848227Y172620D01*
X847734Y173811D01*
X847697Y173878D01*
X847669Y173949D01*
X847613Y174030D01*
X847565Y174116D01*
X847513Y174172D01*
X847470Y174235D01*
X847397Y174301D01*
X847331Y174374D01*
X847268Y174417D01*
X847211Y174468D01*
X847125Y174516D01*
X847044Y174572D01*
X846973Y174600D01*
X846906Y174637D01*
X846811Y174664D01*
X846720Y174700D01*
X846644Y174711D01*
X846571Y174732D01*
X846422Y174744D01*
X846375Y174751D01*
X846356Y174749D01*
X846327Y174751D01*
X804673Y174751D01*
X804597Y174743D01*
X804521Y174744D01*
X804425Y174723D01*
X804327Y174711D01*
X804255Y174686D01*
X804180Y174669D01*
X804092Y174627D01*
X803999Y174594D01*
X803935Y174552D01*
X803866Y174520D01*
X803789Y174458D01*
X803706Y174405D01*
X803653Y174350D01*
X803593Y174302D01*
X803532Y174225D01*
X803464Y174154D01*
X803425Y174089D01*
X803377Y174029D01*
X803309Y173895D01*
X803285Y173855D01*
X803279Y173837D01*
X803266Y173811D01*
X802773Y172620D01*
X800200Y170048D01*
X796839Y168655D01*
X777961Y168655D01*
X774600Y170048D01*
X772027Y172620D01*
X771534Y173811D01*
X771497Y173878D01*
X771469Y173949D01*
X771413Y174030D01*
X771365Y174116D01*
X771313Y174172D01*
X771270Y174235D01*
X771197Y174301D01*
X771131Y174374D01*
X771068Y174417D01*
X771011Y174468D01*
X770925Y174516D01*
X770844Y174572D01*
X770773Y174600D01*
X770706Y174637D01*
X770611Y174664D01*
X770520Y174700D01*
X770444Y174711D01*
X770371Y174732D01*
X770222Y174744D01*
X770175Y174751D01*
X770156Y174749D01*
X770127Y174751D01*
X728473Y174751D01*
X728397Y174743D01*
X728321Y174744D01*
X728225Y174723D01*
X728127Y174711D01*
X728055Y174686D01*
X727980Y174669D01*
X727892Y174627D01*
X727799Y174594D01*
X727735Y174552D01*
X727666Y174520D01*
X727589Y174458D01*
X727506Y174405D01*
X727453Y174350D01*
X727393Y174302D01*
X727332Y174225D01*
X727264Y174154D01*
X727225Y174089D01*
X727177Y174029D01*
X727109Y173895D01*
X727085Y173855D01*
X727079Y173837D01*
X727066Y173811D01*
X726573Y172620D01*
X724000Y170048D01*
X720639Y168655D01*
X701761Y168655D01*
X698400Y170048D01*
X695827Y172620D01*
X695334Y173811D01*
X695297Y173878D01*
X695269Y173949D01*
X695213Y174030D01*
X695165Y174116D01*
X695113Y174172D01*
X695070Y174235D01*
X694997Y174301D01*
X694931Y174374D01*
X694868Y174417D01*
X694811Y174468D01*
X694725Y174516D01*
X694644Y174572D01*
X694573Y174600D01*
X694506Y174637D01*
X694411Y174664D01*
X694320Y174700D01*
X694244Y174711D01*
X694171Y174732D01*
X694022Y174744D01*
X693975Y174751D01*
X693956Y174749D01*
X693927Y174751D01*
X639573Y174751D01*
X639497Y174743D01*
X639421Y174744D01*
X639325Y174723D01*
X639227Y174711D01*
X639155Y174686D01*
X639080Y174669D01*
X638992Y174627D01*
X638899Y174594D01*
X638835Y174552D01*
X638766Y174520D01*
X638689Y174458D01*
X638606Y174405D01*
X638553Y174350D01*
X638493Y174302D01*
X638432Y174225D01*
X638364Y174154D01*
X638325Y174089D01*
X638277Y174029D01*
X638209Y173895D01*
X638185Y173855D01*
X638179Y173837D01*
X638166Y173811D01*
X637673Y172620D01*
X635100Y170048D01*
X631739Y168655D01*
X612861Y168655D01*
G37*
%LPD*%
%LPC*%
G36*
X764119Y559704D02*
X764119Y559704D01*
X756725Y559704D01*
X752986Y563443D01*
X752982Y563449D01*
X752972Y563474D01*
X752887Y563595D01*
X752807Y563720D01*
X752788Y563738D01*
X752773Y563760D01*
X752663Y563859D01*
X752556Y563962D01*
X752534Y563976D01*
X752514Y563993D01*
X752384Y564065D01*
X752257Y564141D01*
X752232Y564149D01*
X752209Y564162D01*
X752066Y564202D01*
X751925Y564247D01*
X751899Y564249D01*
X751874Y564257D01*
X751630Y564276D01*
X749118Y564276D01*
X748225Y565169D01*
X748225Y578433D01*
X749118Y579326D01*
X756328Y579326D01*
X756382Y579314D01*
X756409Y579314D01*
X756435Y579310D01*
X756583Y579317D01*
X756731Y579320D01*
X756757Y579326D01*
X756783Y579328D01*
X756925Y579368D01*
X757069Y579404D01*
X757093Y579417D01*
X757118Y579424D01*
X757247Y579496D01*
X757378Y579564D01*
X757399Y579581D01*
X757422Y579594D01*
X757609Y579753D01*
X757690Y579834D01*
X758269Y580169D01*
X758915Y580342D01*
X760477Y580342D01*
X760477Y571801D01*
X760480Y571775D01*
X760477Y571749D01*
X760499Y571602D01*
X760516Y571455D01*
X760525Y571430D01*
X760529Y571404D01*
X760584Y571267D01*
X760634Y571127D01*
X760648Y571105D01*
X760658Y571081D01*
X760742Y570959D01*
X760823Y570834D01*
X760842Y570816D01*
X760857Y570794D01*
X760967Y570695D01*
X761074Y570592D01*
X761096Y570579D01*
X761116Y570561D01*
X761246Y570489D01*
X761373Y570413D01*
X761398Y570405D01*
X761421Y570392D01*
X761564Y570352D01*
X761705Y570307D01*
X761731Y570305D01*
X761756Y570298D01*
X762000Y570278D01*
X762026Y570281D01*
X762052Y570279D01*
X762199Y570301D01*
X762346Y570318D01*
X762371Y570327D01*
X762397Y570331D01*
X762535Y570385D01*
X762674Y570435D01*
X762697Y570450D01*
X762721Y570459D01*
X762842Y570544D01*
X762967Y570624D01*
X762986Y570643D01*
X763007Y570658D01*
X763106Y570768D01*
X763209Y570875D01*
X763223Y570898D01*
X763240Y570917D01*
X763312Y571047D01*
X763388Y571174D01*
X763396Y571199D01*
X763409Y571222D01*
X763449Y571365D01*
X763495Y571506D01*
X763497Y571532D01*
X763504Y571558D01*
X763523Y571801D01*
X763523Y580342D01*
X765085Y580342D01*
X765731Y580169D01*
X766166Y579917D01*
X766236Y579887D01*
X766301Y579848D01*
X766395Y579818D01*
X766486Y579778D01*
X766561Y579765D01*
X766633Y579742D01*
X766731Y579734D01*
X766829Y579716D01*
X766905Y579720D01*
X766980Y579714D01*
X767078Y579729D01*
X767177Y579733D01*
X767250Y579754D01*
X767325Y579766D01*
X767417Y579802D01*
X767512Y579829D01*
X767578Y579866D01*
X767649Y579894D01*
X767730Y579951D01*
X767817Y579999D01*
X767873Y580050D01*
X767935Y580093D01*
X768001Y580167D01*
X768075Y580233D01*
X768118Y580296D01*
X768168Y580352D01*
X768216Y580439D01*
X768272Y580520D01*
X768300Y580591D01*
X768337Y580657D01*
X768364Y580752D01*
X768400Y580844D01*
X768411Y580919D01*
X768432Y580992D01*
X768444Y581143D01*
X768451Y581189D01*
X768449Y581208D01*
X768451Y581236D01*
X768451Y594963D01*
X771205Y597717D01*
X771284Y597816D01*
X771368Y597910D01*
X771392Y597952D01*
X771422Y597990D01*
X771476Y598104D01*
X771537Y598215D01*
X771550Y598261D01*
X771571Y598305D01*
X771597Y598428D01*
X771632Y598550D01*
X771637Y598611D01*
X771644Y598646D01*
X771643Y598694D01*
X771651Y598794D01*
X771651Y617727D01*
X771643Y617803D01*
X771644Y617879D01*
X771623Y617975D01*
X771611Y618073D01*
X771586Y618145D01*
X771569Y618220D01*
X771527Y618308D01*
X771494Y618401D01*
X771452Y618465D01*
X771420Y618534D01*
X771358Y618611D01*
X771305Y618694D01*
X771250Y618747D01*
X771202Y618807D01*
X771125Y618868D01*
X771054Y618936D01*
X770989Y618975D01*
X770929Y619023D01*
X770795Y619091D01*
X770755Y619115D01*
X770737Y619121D01*
X770711Y619134D01*
X769520Y619627D01*
X766948Y622200D01*
X765555Y625561D01*
X765555Y644439D01*
X766948Y647800D01*
X769520Y650372D01*
X772881Y651765D01*
X776519Y651765D01*
X779880Y650372D01*
X782452Y647800D01*
X783845Y644439D01*
X783845Y625561D01*
X782452Y622200D01*
X779880Y619627D01*
X778689Y619134D01*
X778622Y619097D01*
X778551Y619069D01*
X778470Y619013D01*
X778384Y618965D01*
X778328Y618913D01*
X778265Y618870D01*
X778199Y618797D01*
X778126Y618731D01*
X778083Y618668D01*
X778032Y618611D01*
X777984Y618525D01*
X777928Y618444D01*
X777900Y618373D01*
X777863Y618306D01*
X777836Y618211D01*
X777800Y618120D01*
X777789Y618044D01*
X777768Y617971D01*
X777756Y617822D01*
X777749Y617775D01*
X777751Y617756D01*
X777749Y617727D01*
X777749Y595637D01*
X774995Y592883D01*
X774916Y592784D01*
X774832Y592690D01*
X774808Y592648D01*
X774778Y592610D01*
X774724Y592496D01*
X774663Y592385D01*
X774650Y592339D01*
X774629Y592295D01*
X774603Y592172D01*
X774568Y592050D01*
X774563Y591989D01*
X774556Y591954D01*
X774557Y591906D01*
X774549Y591806D01*
X774549Y580289D01*
X774563Y580164D01*
X774570Y580038D01*
X774583Y579991D01*
X774589Y579943D01*
X774631Y579824D01*
X774666Y579703D01*
X774690Y579661D01*
X774706Y579615D01*
X774775Y579509D01*
X774836Y579399D01*
X774876Y579352D01*
X774895Y579322D01*
X774930Y579289D01*
X774995Y579212D01*
X775775Y578433D01*
X775775Y565169D01*
X774882Y564276D01*
X772370Y564276D01*
X772344Y564273D01*
X772318Y564275D01*
X772171Y564253D01*
X772024Y564236D01*
X771999Y564228D01*
X771973Y564224D01*
X771835Y564169D01*
X771696Y564119D01*
X771674Y564105D01*
X771649Y564095D01*
X771528Y564010D01*
X771403Y563930D01*
X771385Y563911D01*
X771363Y563896D01*
X771264Y563786D01*
X771161Y563679D01*
X771147Y563657D01*
X771130Y563637D01*
X771058Y563507D01*
X771027Y563456D01*
X769507Y561936D01*
X767275Y559704D01*
X765993Y559704D01*
X764119Y559704D01*
X764119Y559704D01*
G37*
%LPD*%
%LPC*%
G36*
X730147Y497959D02*
X730147Y497959D01*
X730147Y506476D01*
X730144Y506502D01*
X730146Y506528D01*
X730124Y506675D01*
X730107Y506822D01*
X730098Y506847D01*
X730095Y506873D01*
X730040Y507011D01*
X729990Y507150D01*
X729976Y507172D01*
X729966Y507197D01*
X729881Y507318D01*
X729801Y507443D01*
X729782Y507461D01*
X729767Y507483D01*
X729657Y507582D01*
X729550Y507685D01*
X729528Y507699D01*
X729508Y507716D01*
X729378Y507788D01*
X729251Y507864D01*
X729226Y507872D01*
X729203Y507885D01*
X729060Y507925D01*
X728919Y507970D01*
X728893Y507972D01*
X728868Y507980D01*
X728624Y507999D01*
X727099Y507999D01*
X727099Y508001D01*
X728624Y508001D01*
X728650Y508004D01*
X728676Y508002D01*
X728823Y508024D01*
X728970Y508041D01*
X728995Y508050D01*
X729021Y508053D01*
X729159Y508108D01*
X729298Y508158D01*
X729320Y508172D01*
X729345Y508182D01*
X729466Y508267D01*
X729591Y508347D01*
X729609Y508366D01*
X729631Y508381D01*
X729730Y508491D01*
X729833Y508598D01*
X729847Y508620D01*
X729864Y508640D01*
X729936Y508770D01*
X730012Y508897D01*
X730020Y508922D01*
X730033Y508945D01*
X730073Y509088D01*
X730118Y509229D01*
X730120Y509255D01*
X730128Y509280D01*
X730147Y509524D01*
X730147Y518041D01*
X733935Y518041D01*
X734581Y517868D01*
X735160Y517533D01*
X735633Y517060D01*
X735874Y516642D01*
X735905Y516601D01*
X735928Y516556D01*
X736008Y516462D01*
X736082Y516362D01*
X736121Y516329D01*
X736154Y516291D01*
X736253Y516217D01*
X736348Y516137D01*
X736393Y516114D01*
X736434Y516083D01*
X736548Y516034D01*
X736658Y515978D01*
X736707Y515966D01*
X736754Y515945D01*
X736876Y515924D01*
X736996Y515894D01*
X737047Y515893D01*
X737097Y515884D01*
X737221Y515890D01*
X737344Y515888D01*
X737394Y515899D01*
X737445Y515902D01*
X737564Y515936D01*
X737685Y515962D01*
X737731Y515984D01*
X737780Y515998D01*
X737888Y516059D01*
X738000Y516112D01*
X738040Y516143D01*
X738084Y516168D01*
X738271Y516327D01*
X738968Y517025D01*
X750182Y517025D01*
X750308Y517039D01*
X750434Y517046D01*
X750480Y517059D01*
X750528Y517065D01*
X750647Y517107D01*
X750769Y517142D01*
X750811Y517166D01*
X750857Y517182D01*
X750963Y517251D01*
X751073Y517312D01*
X751119Y517352D01*
X751149Y517371D01*
X751183Y517406D01*
X751259Y517471D01*
X758505Y524717D01*
X758584Y524816D01*
X758668Y524910D01*
X758692Y524952D01*
X758722Y524990D01*
X758776Y525104D01*
X758837Y525215D01*
X758850Y525261D01*
X758871Y525305D01*
X758897Y525428D01*
X758932Y525550D01*
X758937Y525611D01*
X758944Y525646D01*
X758943Y525694D01*
X758951Y525794D01*
X758951Y534405D01*
X758937Y534531D01*
X758930Y534657D01*
X758917Y534703D01*
X758911Y534751D01*
X758869Y534870D01*
X758834Y534992D01*
X758810Y535034D01*
X758794Y535080D01*
X758725Y535186D01*
X758664Y535296D01*
X758624Y535342D01*
X758605Y535372D01*
X758570Y535406D01*
X758505Y535482D01*
X756159Y537828D01*
X756060Y537907D01*
X755966Y537991D01*
X755924Y538015D01*
X755886Y538045D01*
X755772Y538099D01*
X755661Y538160D01*
X755615Y538173D01*
X755571Y538194D01*
X755448Y538220D01*
X755326Y538255D01*
X755265Y538260D01*
X755231Y538267D01*
X755183Y538266D01*
X755082Y538274D01*
X749118Y538274D01*
X748225Y539167D01*
X748225Y552431D01*
X749118Y553324D01*
X755882Y553324D01*
X756775Y552431D01*
X756775Y546467D01*
X756789Y546341D01*
X756796Y546215D01*
X756809Y546169D01*
X756815Y546121D01*
X756857Y546002D01*
X756892Y545880D01*
X756916Y545838D01*
X756932Y545792D01*
X757001Y545686D01*
X757062Y545576D01*
X757102Y545530D01*
X757121Y545500D01*
X757156Y545466D01*
X757221Y545390D01*
X762816Y539794D01*
X762817Y539794D01*
X764625Y537986D01*
X764704Y537923D01*
X764776Y537853D01*
X764840Y537815D01*
X764898Y537769D01*
X764989Y537726D01*
X765051Y537689D01*
X765049Y537667D01*
X765049Y522637D01*
X762817Y520405D01*
X754571Y512159D01*
X754492Y512060D01*
X754408Y511966D01*
X754384Y511924D01*
X754354Y511886D01*
X754300Y511772D01*
X754239Y511661D01*
X754226Y511615D01*
X754205Y511571D01*
X754179Y511448D01*
X754144Y511326D01*
X754139Y511265D01*
X754132Y511231D01*
X754133Y511183D01*
X754125Y511082D01*
X754125Y499868D01*
X753232Y498975D01*
X738968Y498975D01*
X738271Y499673D01*
X738230Y499705D01*
X738196Y499743D01*
X738095Y499813D01*
X737998Y499890D01*
X737951Y499912D01*
X737909Y499941D01*
X737794Y499986D01*
X737682Y500039D01*
X737633Y500049D01*
X737585Y500068D01*
X737463Y500086D01*
X737342Y500112D01*
X737291Y500111D01*
X737240Y500119D01*
X737117Y500108D01*
X736993Y500106D01*
X736944Y500094D01*
X736893Y500089D01*
X736775Y500051D01*
X736655Y500021D01*
X736610Y499998D01*
X736561Y499982D01*
X736455Y499918D01*
X736346Y499861D01*
X736307Y499828D01*
X736263Y499802D01*
X736174Y499716D01*
X736080Y499636D01*
X736050Y499595D01*
X736013Y499559D01*
X735874Y499358D01*
X735633Y498940D01*
X735160Y498467D01*
X734581Y498132D01*
X733935Y497959D01*
X730147Y497959D01*
G37*
%LPD*%
%LPC*%
G36*
X645373Y412749D02*
X645373Y412749D01*
X642012Y414142D01*
X639440Y416714D01*
X638047Y420075D01*
X638047Y423713D01*
X639440Y427074D01*
X642012Y429646D01*
X645373Y431039D01*
X664251Y431039D01*
X667612Y429646D01*
X670184Y427074D01*
X671577Y423713D01*
X671577Y420075D01*
X670184Y416714D01*
X667612Y414142D01*
X664251Y412749D01*
X645373Y412749D01*
G37*
%LPD*%
%LPC*%
G36*
X645373Y457961D02*
X645373Y457961D01*
X642012Y459354D01*
X639440Y461926D01*
X638047Y465287D01*
X638047Y468925D01*
X639440Y472286D01*
X642012Y474858D01*
X645373Y476251D01*
X664251Y476251D01*
X667612Y474858D01*
X670184Y472286D01*
X671577Y468925D01*
X671577Y465287D01*
X670184Y461926D01*
X667612Y459354D01*
X664251Y457961D01*
X645373Y457961D01*
G37*
%LPD*%
%LPC*%
G36*
X348668Y297175D02*
X348668Y297175D01*
X347775Y298068D01*
X347775Y318332D01*
X348668Y319225D01*
X363932Y319225D01*
X364825Y318332D01*
X364825Y298068D01*
X363932Y297175D01*
X348668Y297175D01*
G37*
%LPD*%
%LPC*%
G36*
X389912Y600455D02*
X389912Y600455D01*
X384555Y605812D01*
X384555Y613388D01*
X389912Y618745D01*
X397488Y618745D01*
X402845Y613388D01*
X402845Y605812D01*
X397488Y600455D01*
X389912Y600455D01*
G37*
%LPD*%
%LPC*%
G36*
X364512Y575055D02*
X364512Y575055D01*
X359155Y580412D01*
X359155Y587988D01*
X364512Y593345D01*
X372088Y593345D01*
X377445Y587988D01*
X377445Y580412D01*
X372088Y575055D01*
X364512Y575055D01*
G37*
%LPD*%
%LPC*%
G36*
X389912Y575055D02*
X389912Y575055D01*
X384555Y580412D01*
X384555Y587988D01*
X389912Y593345D01*
X397488Y593345D01*
X402845Y587988D01*
X402845Y580412D01*
X397488Y575055D01*
X389912Y575055D01*
G37*
%LPD*%
%LPC*%
G36*
X364512Y549655D02*
X364512Y549655D01*
X359155Y555012D01*
X359155Y562588D01*
X364512Y567945D01*
X372088Y567945D01*
X377445Y562588D01*
X377445Y555012D01*
X372088Y549655D01*
X364512Y549655D01*
G37*
%LPD*%
%LPC*%
G36*
X751839Y637539D02*
X751839Y637539D01*
X751839Y652479D01*
X753200Y652036D01*
X754625Y651310D01*
X755919Y650370D01*
X757050Y649239D01*
X757990Y647945D01*
X758716Y646520D01*
X759211Y644999D01*
X759461Y643420D01*
X759461Y637539D01*
X751839Y637539D01*
G37*
%LPD*%
%LPC*%
G36*
X523239Y510539D02*
X523239Y510539D01*
X523239Y525479D01*
X524600Y525036D01*
X526025Y524310D01*
X527319Y523370D01*
X528450Y522239D01*
X529390Y520945D01*
X530116Y519520D01*
X530611Y517999D01*
X530861Y516420D01*
X530861Y510539D01*
X523239Y510539D01*
G37*
%LPD*%
%LPC*%
G36*
X592327Y424433D02*
X592327Y424433D01*
X592327Y432055D01*
X598208Y432055D01*
X599787Y431805D01*
X601308Y431310D01*
X602733Y430584D01*
X604027Y429644D01*
X605158Y428513D01*
X606098Y427219D01*
X606824Y425794D01*
X607267Y424433D01*
X592327Y424433D01*
G37*
%LPD*%
%LPC*%
G36*
X624839Y205739D02*
X624839Y205739D01*
X624839Y213361D01*
X630720Y213361D01*
X632299Y213111D01*
X633820Y212616D01*
X635245Y211890D01*
X636539Y210950D01*
X637670Y209819D01*
X638610Y208525D01*
X639336Y207100D01*
X639779Y205739D01*
X624839Y205739D01*
G37*
%LPD*%
%LPC*%
G36*
X713739Y205739D02*
X713739Y205739D01*
X713739Y213361D01*
X719620Y213361D01*
X721199Y213111D01*
X722720Y212616D01*
X724145Y211890D01*
X725439Y210950D01*
X726570Y209819D01*
X727510Y208525D01*
X728236Y207100D01*
X728679Y205739D01*
X713739Y205739D01*
G37*
%LPD*%
%LPC*%
G36*
X789939Y205739D02*
X789939Y205739D01*
X789939Y213361D01*
X795820Y213361D01*
X797399Y213111D01*
X798920Y212616D01*
X800345Y211890D01*
X801639Y210950D01*
X802770Y209819D01*
X803710Y208525D01*
X804436Y207100D01*
X804879Y205739D01*
X789939Y205739D01*
G37*
%LPD*%
%LPC*%
G36*
X866139Y205739D02*
X866139Y205739D01*
X866139Y213361D01*
X872020Y213361D01*
X873599Y213111D01*
X875120Y212616D01*
X876545Y211890D01*
X877839Y210950D01*
X878970Y209819D01*
X879910Y208525D01*
X880636Y207100D01*
X881079Y205739D01*
X866139Y205739D01*
G37*
%LPD*%
%LPC*%
G36*
X846121Y205739D02*
X846121Y205739D01*
X846564Y207100D01*
X847290Y208525D01*
X848230Y209819D01*
X849361Y210950D01*
X850655Y211890D01*
X852080Y212616D01*
X853601Y213111D01*
X855180Y213361D01*
X861061Y213361D01*
X861061Y205739D01*
X846121Y205739D01*
G37*
%LPD*%
%LPC*%
G36*
X769921Y205739D02*
X769921Y205739D01*
X770364Y207100D01*
X771090Y208525D01*
X772030Y209819D01*
X773161Y210950D01*
X774455Y211890D01*
X775880Y212616D01*
X777401Y213111D01*
X778980Y213361D01*
X784861Y213361D01*
X784861Y205739D01*
X769921Y205739D01*
G37*
%LPD*%
%LPC*%
G36*
X693721Y205739D02*
X693721Y205739D01*
X694164Y207100D01*
X694890Y208525D01*
X695830Y209819D01*
X696961Y210950D01*
X698255Y211890D01*
X699680Y212616D01*
X701201Y213111D01*
X702780Y213361D01*
X708661Y213361D01*
X708661Y205739D01*
X693721Y205739D01*
G37*
%LPD*%
%LPC*%
G36*
X604821Y205739D02*
X604821Y205739D01*
X605264Y207100D01*
X605990Y208525D01*
X606930Y209819D01*
X608061Y210950D01*
X609355Y211890D01*
X610780Y212616D01*
X612301Y213111D01*
X613880Y213361D01*
X619761Y213361D01*
X619761Y205739D01*
X604821Y205739D01*
G37*
%LPD*%
%LPC*%
G36*
X572309Y424433D02*
X572309Y424433D01*
X572752Y425794D01*
X573478Y427219D01*
X574418Y428513D01*
X575549Y429644D01*
X576843Y430584D01*
X578268Y431310D01*
X579789Y431805D01*
X581368Y432055D01*
X587249Y432055D01*
X587249Y424433D01*
X572309Y424433D01*
G37*
%LPD*%
%LPC*%
G36*
X751839Y632461D02*
X751839Y632461D01*
X759461Y632461D01*
X759461Y626580D01*
X759211Y625001D01*
X758716Y623480D01*
X757990Y622055D01*
X757050Y620761D01*
X755919Y619630D01*
X754625Y618690D01*
X753200Y617964D01*
X751839Y617521D01*
X751839Y632461D01*
G37*
%LPD*%
%LPC*%
G36*
X523239Y505461D02*
X523239Y505461D01*
X530861Y505461D01*
X530861Y499580D01*
X530611Y498001D01*
X530116Y496480D01*
X529390Y495055D01*
X528450Y493761D01*
X527319Y492630D01*
X526025Y491690D01*
X524600Y490964D01*
X523239Y490521D01*
X523239Y505461D01*
G37*
%LPD*%
%LPC*%
G36*
X739139Y637539D02*
X739139Y637539D01*
X739139Y643420D01*
X739389Y644999D01*
X739884Y646520D01*
X740610Y647945D01*
X741550Y649239D01*
X742681Y650370D01*
X743975Y651310D01*
X745400Y652036D01*
X746761Y652479D01*
X746761Y637539D01*
X739139Y637539D01*
G37*
%LPD*%
%LPC*%
G36*
X510539Y510539D02*
X510539Y510539D01*
X510539Y516420D01*
X510789Y517999D01*
X511284Y519520D01*
X512010Y520945D01*
X512950Y522239D01*
X514081Y523370D01*
X515375Y524310D01*
X516800Y525036D01*
X518161Y525479D01*
X518161Y510539D01*
X510539Y510539D01*
G37*
%LPD*%
%LPC*%
G36*
X592327Y411733D02*
X592327Y411733D01*
X592327Y419355D01*
X607267Y419355D01*
X606824Y417994D01*
X606098Y416569D01*
X605158Y415275D01*
X604027Y414144D01*
X602733Y413204D01*
X601308Y412478D01*
X599787Y411983D01*
X598208Y411733D01*
X592327Y411733D01*
G37*
%LPD*%
%LPC*%
G36*
X866139Y193039D02*
X866139Y193039D01*
X866139Y200661D01*
X881079Y200661D01*
X880636Y199300D01*
X879910Y197875D01*
X878970Y196581D01*
X877839Y195450D01*
X876545Y194510D01*
X875120Y193784D01*
X873599Y193289D01*
X872020Y193039D01*
X866139Y193039D01*
G37*
%LPD*%
%LPC*%
G36*
X789939Y193039D02*
X789939Y193039D01*
X789939Y200661D01*
X804879Y200661D01*
X804436Y199300D01*
X803710Y197875D01*
X802770Y196581D01*
X801639Y195450D01*
X800345Y194510D01*
X798920Y193784D01*
X797399Y193289D01*
X795820Y193039D01*
X789939Y193039D01*
G37*
%LPD*%
%LPC*%
G36*
X713739Y193039D02*
X713739Y193039D01*
X713739Y200661D01*
X728679Y200661D01*
X728236Y199300D01*
X727510Y197875D01*
X726570Y196581D01*
X725439Y195450D01*
X724145Y194510D01*
X722720Y193784D01*
X721199Y193289D01*
X719620Y193039D01*
X713739Y193039D01*
G37*
%LPD*%
%LPC*%
G36*
X624839Y193039D02*
X624839Y193039D01*
X624839Y200661D01*
X639779Y200661D01*
X639336Y199300D01*
X638610Y197875D01*
X637670Y196581D01*
X636539Y195450D01*
X635245Y194510D01*
X633820Y193784D01*
X632299Y193289D01*
X630720Y193039D01*
X624839Y193039D01*
G37*
%LPD*%
%LPC*%
G36*
X516800Y490964D02*
X516800Y490964D01*
X515375Y491690D01*
X514081Y492630D01*
X512950Y493761D01*
X512010Y495055D01*
X511284Y496480D01*
X510789Y498001D01*
X510539Y499580D01*
X510539Y505461D01*
X518161Y505461D01*
X518161Y490521D01*
X516800Y490964D01*
G37*
%LPD*%
%LPC*%
G36*
X855180Y193039D02*
X855180Y193039D01*
X853601Y193289D01*
X852080Y193784D01*
X850655Y194510D01*
X849361Y195450D01*
X848230Y196581D01*
X847290Y197875D01*
X846564Y199300D01*
X846121Y200661D01*
X861061Y200661D01*
X861061Y193039D01*
X855180Y193039D01*
G37*
%LPD*%
%LPC*%
G36*
X778980Y193039D02*
X778980Y193039D01*
X777401Y193289D01*
X775880Y193784D01*
X774455Y194510D01*
X773161Y195450D01*
X772030Y196581D01*
X771090Y197875D01*
X770364Y199300D01*
X769921Y200661D01*
X784861Y200661D01*
X784861Y193039D01*
X778980Y193039D01*
G37*
%LPD*%
%LPC*%
G36*
X581368Y411733D02*
X581368Y411733D01*
X579789Y411983D01*
X578268Y412478D01*
X576843Y413204D01*
X575549Y414144D01*
X574418Y415275D01*
X573478Y416569D01*
X572752Y417994D01*
X572309Y419355D01*
X587249Y419355D01*
X587249Y411733D01*
X581368Y411733D01*
G37*
%LPD*%
%LPC*%
G36*
X702780Y193039D02*
X702780Y193039D01*
X701201Y193289D01*
X699680Y193784D01*
X698255Y194510D01*
X696961Y195450D01*
X695830Y196581D01*
X694890Y197875D01*
X694164Y199300D01*
X693721Y200661D01*
X708661Y200661D01*
X708661Y193039D01*
X702780Y193039D01*
G37*
%LPD*%
%LPC*%
G36*
X745400Y617964D02*
X745400Y617964D01*
X743975Y618690D01*
X742681Y619630D01*
X741550Y620761D01*
X740610Y622055D01*
X739884Y623480D01*
X739389Y625001D01*
X739139Y626580D01*
X739139Y632461D01*
X746761Y632461D01*
X746761Y617521D01*
X745400Y617964D01*
G37*
%LPD*%
%LPC*%
G36*
X613880Y193039D02*
X613880Y193039D01*
X612301Y193289D01*
X610780Y193784D01*
X609355Y194510D01*
X608061Y195450D01*
X606930Y196581D01*
X605990Y197875D01*
X605264Y199300D01*
X604821Y200661D01*
X619761Y200661D01*
X619761Y193039D01*
X613880Y193039D01*
G37*
%LPD*%
%LPC*%
G36*
X457047Y434847D02*
X457047Y434847D01*
X457047Y441841D01*
X460835Y441841D01*
X461481Y441668D01*
X462060Y441333D01*
X462533Y440860D01*
X462868Y440281D01*
X463041Y439635D01*
X463041Y434847D01*
X457047Y434847D01*
G37*
%LPD*%
%LPC*%
G36*
X345947Y393547D02*
X345947Y393547D01*
X345947Y399541D01*
X350735Y399541D01*
X351381Y399368D01*
X351960Y399033D01*
X352433Y398560D01*
X352768Y397981D01*
X352941Y397335D01*
X352941Y393547D01*
X345947Y393547D01*
G37*
%LPD*%
%LPC*%
G36*
X332859Y393547D02*
X332859Y393547D01*
X332859Y397335D01*
X333032Y397981D01*
X333367Y398560D01*
X333840Y399033D01*
X334419Y399368D01*
X335065Y399541D01*
X339853Y399541D01*
X339853Y393547D01*
X332859Y393547D01*
G37*
%LPD*%
%LPC*%
G36*
X507847Y409059D02*
X507847Y409059D01*
X507847Y416053D01*
X513841Y416053D01*
X513841Y411265D01*
X513668Y410619D01*
X513333Y410040D01*
X512860Y409567D01*
X512281Y409232D01*
X511635Y409059D01*
X507847Y409059D01*
G37*
%LPD*%
%LPC*%
G36*
X457047Y421759D02*
X457047Y421759D01*
X457047Y428753D01*
X463041Y428753D01*
X463041Y423965D01*
X462868Y423319D01*
X462533Y422740D01*
X462060Y422267D01*
X461481Y421932D01*
X460835Y421759D01*
X457047Y421759D01*
G37*
%LPD*%
%LPC*%
G36*
X384047Y248159D02*
X384047Y248159D01*
X384047Y254153D01*
X391041Y254153D01*
X391041Y250365D01*
X390868Y249719D01*
X390533Y249140D01*
X390060Y248667D01*
X389481Y248332D01*
X388835Y248159D01*
X384047Y248159D01*
G37*
%LPD*%
%LPC*%
G36*
X718059Y460247D02*
X718059Y460247D01*
X718059Y465035D01*
X718232Y465681D01*
X718567Y466260D01*
X719040Y466733D01*
X719619Y467068D01*
X720265Y467241D01*
X724053Y467241D01*
X724053Y460247D01*
X718059Y460247D01*
G37*
%LPD*%
%LPC*%
G36*
X718059Y511047D02*
X718059Y511047D01*
X718059Y515835D01*
X718232Y516481D01*
X718567Y517060D01*
X719040Y517533D01*
X719619Y517868D01*
X720265Y518041D01*
X724053Y518041D01*
X724053Y511047D01*
X718059Y511047D01*
G37*
%LPD*%
%LPC*%
G36*
X720265Y497959D02*
X720265Y497959D01*
X719619Y498132D01*
X719040Y498467D01*
X718567Y498940D01*
X718232Y499519D01*
X718059Y500165D01*
X718059Y504953D01*
X724053Y504953D01*
X724053Y497959D01*
X720265Y497959D01*
G37*
%LPD*%
%LPC*%
G36*
X720265Y447159D02*
X720265Y447159D01*
X719619Y447332D01*
X719040Y447667D01*
X718567Y448140D01*
X718232Y448719D01*
X718059Y449365D01*
X718059Y454153D01*
X724053Y454153D01*
X724053Y447159D01*
X720265Y447159D01*
G37*
%LPD*%
%LPC*%
G36*
X373165Y248159D02*
X373165Y248159D01*
X372519Y248332D01*
X371940Y248667D01*
X371467Y249140D01*
X371132Y249719D01*
X370959Y250365D01*
X370959Y254153D01*
X377953Y254153D01*
X377953Y248159D01*
X373165Y248159D01*
G37*
%LPD*%
%LPC*%
G36*
X396239Y535939D02*
X396239Y535939D01*
X396239Y543561D01*
X397909Y543561D01*
X403861Y537609D01*
X403861Y535939D01*
X396239Y535939D01*
G37*
%LPD*%
%LPC*%
G36*
X396239Y561339D02*
X396239Y561339D01*
X396239Y568961D01*
X397909Y568961D01*
X403861Y563009D01*
X403861Y561339D01*
X396239Y561339D01*
G37*
%LPD*%
%LPC*%
G36*
X396239Y523239D02*
X396239Y523239D01*
X396239Y530861D01*
X403861Y530861D01*
X403861Y529191D01*
X397909Y523239D01*
X396239Y523239D01*
G37*
%LPD*%
%LPC*%
G36*
X383539Y535939D02*
X383539Y535939D01*
X383539Y537609D01*
X389491Y543561D01*
X391161Y543561D01*
X391161Y535939D01*
X383539Y535939D01*
G37*
%LPD*%
%LPC*%
G36*
X396239Y548639D02*
X396239Y548639D01*
X396239Y556261D01*
X403861Y556261D01*
X403861Y554591D01*
X397909Y548639D01*
X396239Y548639D01*
G37*
%LPD*%
%LPC*%
G36*
X383539Y561339D02*
X383539Y561339D01*
X383539Y563009D01*
X389491Y568961D01*
X391161Y568961D01*
X391161Y561339D01*
X383539Y561339D01*
G37*
%LPD*%
%LPC*%
G36*
X389491Y523239D02*
X389491Y523239D01*
X383539Y529191D01*
X383539Y530861D01*
X391161Y530861D01*
X391161Y523239D01*
X389491Y523239D01*
G37*
%LPD*%
%LPC*%
G36*
X389491Y548639D02*
X389491Y548639D01*
X383539Y554591D01*
X383539Y556261D01*
X391161Y556261D01*
X391161Y548639D01*
X389491Y548639D01*
G37*
%LPD*%
D10*
X292100Y139700D03*
X292100Y682500D03*
D11*
X292100Y681850D02*
X292100Y140350D01*
X288908Y165700D01*
X295292Y165700D01*
X292100Y140350D01*
X290800Y165700D01*
X293400Y165700D02*
X292100Y140350D01*
X289500Y165700D01*
X294700Y165700D02*
X292100Y140350D01*
X288908Y656500D02*
X292100Y681850D01*
X288908Y656500D02*
X295292Y656500D01*
X292100Y681850D01*
X290800Y656500D01*
X293400Y656500D02*
X292100Y681850D01*
X289500Y656500D01*
X294700Y656500D02*
X292100Y681850D01*
D12*
X285593Y385460D02*
X285593Y380041D01*
X285593Y385460D02*
X285591Y385578D01*
X285585Y385696D01*
X285576Y385814D01*
X285562Y385931D01*
X285545Y386048D01*
X285524Y386165D01*
X285499Y386280D01*
X285470Y386395D01*
X285437Y386509D01*
X285401Y386621D01*
X285361Y386732D01*
X285318Y386842D01*
X285271Y386951D01*
X285221Y387058D01*
X285166Y387163D01*
X285109Y387266D01*
X285048Y387367D01*
X284984Y387467D01*
X284917Y387564D01*
X284847Y387659D01*
X284773Y387751D01*
X284697Y387842D01*
X284617Y387929D01*
X284535Y388014D01*
X284450Y388096D01*
X284363Y388176D01*
X284272Y388252D01*
X284180Y388326D01*
X284085Y388396D01*
X283988Y388463D01*
X283888Y388527D01*
X283787Y388588D01*
X283684Y388645D01*
X283579Y388700D01*
X283472Y388750D01*
X283363Y388797D01*
X283253Y388840D01*
X283142Y388880D01*
X283030Y388916D01*
X282916Y388949D01*
X282801Y388978D01*
X282686Y389003D01*
X282569Y389024D01*
X282452Y389041D01*
X282335Y389055D01*
X282217Y389064D01*
X282099Y389070D01*
X281981Y389072D01*
X280174Y389072D01*
X280056Y389070D01*
X279938Y389064D01*
X279820Y389055D01*
X279703Y389041D01*
X279586Y389024D01*
X279469Y389003D01*
X279354Y388978D01*
X279239Y388949D01*
X279125Y388916D01*
X279013Y388880D01*
X278902Y388840D01*
X278792Y388797D01*
X278683Y388750D01*
X278576Y388700D01*
X278471Y388645D01*
X278368Y388588D01*
X278267Y388527D01*
X278167Y388463D01*
X278070Y388396D01*
X277975Y388326D01*
X277883Y388252D01*
X277792Y388176D01*
X277705Y388096D01*
X277620Y388014D01*
X277538Y387929D01*
X277458Y387842D01*
X277382Y387751D01*
X277308Y387659D01*
X277238Y387564D01*
X277171Y387467D01*
X277107Y387367D01*
X277046Y387266D01*
X276989Y387163D01*
X276934Y387058D01*
X276884Y386951D01*
X276837Y386842D01*
X276794Y386732D01*
X276754Y386621D01*
X276718Y386509D01*
X276685Y386395D01*
X276656Y386280D01*
X276631Y386165D01*
X276610Y386048D01*
X276593Y385931D01*
X276579Y385814D01*
X276570Y385696D01*
X276564Y385578D01*
X276562Y385460D01*
X276562Y380041D01*
X269337Y380041D01*
X269337Y389072D01*
X269337Y399285D02*
X281981Y395673D01*
X281981Y404704D01*
X285593Y401994D02*
X278368Y401994D01*
X284690Y410678D02*
X285593Y410678D01*
X284690Y410678D02*
X284690Y411581D01*
X285593Y411581D01*
X285593Y410678D01*
X273401Y426587D02*
X273276Y426585D01*
X273151Y426579D01*
X273026Y426570D01*
X272902Y426556D01*
X272778Y426539D01*
X272654Y426518D01*
X272532Y426493D01*
X272410Y426464D01*
X272289Y426432D01*
X272169Y426396D01*
X272050Y426356D01*
X271933Y426313D01*
X271817Y426266D01*
X271702Y426215D01*
X271590Y426161D01*
X271478Y426103D01*
X271369Y426043D01*
X271262Y425978D01*
X271156Y425911D01*
X271053Y425840D01*
X270952Y425766D01*
X270853Y425689D01*
X270757Y425609D01*
X270663Y425526D01*
X270572Y425441D01*
X270483Y425352D01*
X270398Y425261D01*
X270315Y425167D01*
X270235Y425071D01*
X270158Y424972D01*
X270084Y424871D01*
X270013Y424768D01*
X269946Y424662D01*
X269881Y424555D01*
X269821Y424446D01*
X269763Y424334D01*
X269709Y424222D01*
X269658Y424107D01*
X269611Y423991D01*
X269568Y423874D01*
X269528Y423755D01*
X269492Y423635D01*
X269460Y423514D01*
X269431Y423392D01*
X269406Y423270D01*
X269385Y423146D01*
X269368Y423022D01*
X269354Y422898D01*
X269345Y422773D01*
X269339Y422648D01*
X269337Y422523D01*
X269339Y422380D01*
X269345Y422238D01*
X269355Y422095D01*
X269368Y421953D01*
X269386Y421812D01*
X269407Y421670D01*
X269432Y421530D01*
X269461Y421390D01*
X269494Y421251D01*
X269531Y421113D01*
X269571Y420976D01*
X269615Y420841D01*
X269663Y420706D01*
X269715Y420573D01*
X269770Y420441D01*
X269829Y420311D01*
X269891Y420183D01*
X269957Y420056D01*
X270026Y419931D01*
X270098Y419808D01*
X270174Y419687D01*
X270253Y419569D01*
X270336Y419452D01*
X270421Y419338D01*
X270510Y419226D01*
X270601Y419117D01*
X270696Y419010D01*
X270793Y418905D01*
X270894Y418804D01*
X270997Y418705D01*
X271102Y418609D01*
X271211Y418516D01*
X271322Y418426D01*
X271435Y418339D01*
X271550Y418255D01*
X271668Y418175D01*
X271788Y418097D01*
X271910Y418023D01*
X272034Y417953D01*
X272160Y417885D01*
X272288Y417822D01*
X272417Y417761D01*
X272548Y417704D01*
X272680Y417651D01*
X272814Y417602D01*
X272949Y417556D01*
X276562Y425232D02*
X276470Y425326D01*
X276376Y425416D01*
X276279Y425504D01*
X276179Y425589D01*
X276077Y425671D01*
X275972Y425749D01*
X275865Y425825D01*
X275756Y425897D01*
X275645Y425966D01*
X275531Y426032D01*
X275416Y426094D01*
X275299Y426153D01*
X275180Y426208D01*
X275060Y426259D01*
X274938Y426307D01*
X274815Y426352D01*
X274691Y426392D01*
X274565Y426429D01*
X274438Y426462D01*
X274311Y426491D01*
X274182Y426517D01*
X274053Y426538D01*
X273923Y426556D01*
X273793Y426569D01*
X273663Y426579D01*
X273532Y426585D01*
X273401Y426587D01*
X276562Y425233D02*
X285593Y417556D01*
X285593Y426587D01*
X281077Y433187D02*
X280944Y433189D01*
X280812Y433195D01*
X280680Y433205D01*
X280548Y433218D01*
X280416Y433236D01*
X280286Y433257D01*
X280155Y433282D01*
X280026Y433311D01*
X279898Y433344D01*
X279770Y433380D01*
X279644Y433420D01*
X279519Y433464D01*
X279395Y433512D01*
X279273Y433563D01*
X279152Y433618D01*
X279033Y433676D01*
X278915Y433738D01*
X278800Y433803D01*
X278686Y433872D01*
X278575Y433943D01*
X278466Y434019D01*
X278359Y434097D01*
X278254Y434178D01*
X278152Y434263D01*
X278052Y434350D01*
X277955Y434440D01*
X277860Y434533D01*
X277769Y434629D01*
X277680Y434727D01*
X277594Y434828D01*
X277511Y434932D01*
X277431Y435038D01*
X277355Y435146D01*
X277281Y435256D01*
X277211Y435369D01*
X277144Y435483D01*
X277081Y435600D01*
X277021Y435718D01*
X276964Y435838D01*
X276911Y435960D01*
X276862Y436083D01*
X276816Y436207D01*
X276774Y436333D01*
X276736Y436460D01*
X276701Y436588D01*
X276670Y436717D01*
X276643Y436846D01*
X276620Y436977D01*
X276600Y437108D01*
X276585Y437240D01*
X276573Y437372D01*
X276565Y437504D01*
X276561Y437637D01*
X276561Y437769D01*
X276565Y437902D01*
X276573Y438034D01*
X276585Y438166D01*
X276600Y438298D01*
X276620Y438429D01*
X276643Y438560D01*
X276670Y438689D01*
X276701Y438818D01*
X276736Y438946D01*
X276774Y439073D01*
X276816Y439199D01*
X276862Y439323D01*
X276911Y439446D01*
X276964Y439568D01*
X277021Y439688D01*
X277081Y439806D01*
X277144Y439923D01*
X277211Y440037D01*
X277281Y440150D01*
X277355Y440260D01*
X277431Y440368D01*
X277511Y440474D01*
X277594Y440578D01*
X277680Y440679D01*
X277769Y440777D01*
X277860Y440873D01*
X277955Y440966D01*
X278052Y441056D01*
X278152Y441143D01*
X278254Y441228D01*
X278359Y441309D01*
X278466Y441387D01*
X278575Y441463D01*
X278686Y441534D01*
X278800Y441603D01*
X278915Y441668D01*
X279033Y441730D01*
X279152Y441788D01*
X279273Y441843D01*
X279395Y441894D01*
X279519Y441942D01*
X279644Y441986D01*
X279770Y442026D01*
X279898Y442062D01*
X280026Y442095D01*
X280155Y442124D01*
X280286Y442149D01*
X280416Y442170D01*
X280548Y442188D01*
X280680Y442201D01*
X280812Y442211D01*
X280944Y442217D01*
X281077Y442219D01*
X281210Y442217D01*
X281342Y442211D01*
X281474Y442201D01*
X281606Y442188D01*
X281738Y442170D01*
X281868Y442149D01*
X281999Y442124D01*
X282128Y442095D01*
X282256Y442062D01*
X282384Y442026D01*
X282510Y441986D01*
X282635Y441942D01*
X282759Y441894D01*
X282881Y441843D01*
X283002Y441788D01*
X283121Y441730D01*
X283239Y441668D01*
X283354Y441603D01*
X283468Y441534D01*
X283579Y441463D01*
X283688Y441387D01*
X283795Y441309D01*
X283900Y441228D01*
X284002Y441143D01*
X284102Y441056D01*
X284199Y440966D01*
X284294Y440873D01*
X284385Y440777D01*
X284474Y440679D01*
X284560Y440578D01*
X284643Y440474D01*
X284723Y440368D01*
X284799Y440260D01*
X284873Y440150D01*
X284943Y440037D01*
X285010Y439923D01*
X285073Y439806D01*
X285133Y439688D01*
X285190Y439568D01*
X285243Y439446D01*
X285292Y439323D01*
X285338Y439199D01*
X285380Y439073D01*
X285418Y438946D01*
X285453Y438818D01*
X285484Y438689D01*
X285511Y438560D01*
X285534Y438429D01*
X285554Y438298D01*
X285569Y438166D01*
X285581Y438034D01*
X285589Y437902D01*
X285593Y437769D01*
X285593Y437637D01*
X285589Y437504D01*
X285581Y437372D01*
X285569Y437240D01*
X285554Y437108D01*
X285534Y436977D01*
X285511Y436846D01*
X285484Y436717D01*
X285453Y436588D01*
X285418Y436460D01*
X285380Y436333D01*
X285338Y436207D01*
X285292Y436083D01*
X285243Y435960D01*
X285190Y435838D01*
X285133Y435718D01*
X285073Y435600D01*
X285010Y435483D01*
X284943Y435369D01*
X284873Y435256D01*
X284799Y435146D01*
X284723Y435038D01*
X284643Y434932D01*
X284560Y434828D01*
X284474Y434727D01*
X284385Y434629D01*
X284294Y434533D01*
X284199Y434440D01*
X284102Y434350D01*
X284002Y434263D01*
X283900Y434178D01*
X283795Y434097D01*
X283688Y434019D01*
X283579Y433943D01*
X283468Y433872D01*
X283354Y433803D01*
X283239Y433738D01*
X283121Y433676D01*
X283002Y433618D01*
X282881Y433563D01*
X282759Y433512D01*
X282635Y433464D01*
X282510Y433420D01*
X282384Y433380D01*
X282256Y433344D01*
X282128Y433311D01*
X281999Y433282D01*
X281868Y433257D01*
X281738Y433236D01*
X281606Y433218D01*
X281474Y433205D01*
X281342Y433195D01*
X281210Y433189D01*
X281077Y433187D01*
X272949Y434091D02*
X272830Y434093D01*
X272710Y434099D01*
X272591Y434109D01*
X272473Y434123D01*
X272354Y434140D01*
X272237Y434162D01*
X272120Y434187D01*
X272005Y434217D01*
X271890Y434250D01*
X271776Y434287D01*
X271664Y434327D01*
X271553Y434372D01*
X271444Y434420D01*
X271336Y434471D01*
X271230Y434526D01*
X271126Y434585D01*
X271024Y434647D01*
X270924Y434712D01*
X270826Y434781D01*
X270730Y434853D01*
X270637Y434928D01*
X270547Y435005D01*
X270459Y435086D01*
X270374Y435170D01*
X270292Y435257D01*
X270212Y435346D01*
X270136Y435438D01*
X270062Y435532D01*
X269992Y435629D01*
X269925Y435727D01*
X269861Y435828D01*
X269801Y435932D01*
X269744Y436037D01*
X269691Y436144D01*
X269641Y436252D01*
X269595Y436362D01*
X269553Y436474D01*
X269514Y436587D01*
X269479Y436701D01*
X269448Y436816D01*
X269420Y436933D01*
X269397Y437050D01*
X269377Y437167D01*
X269361Y437286D01*
X269349Y437405D01*
X269341Y437524D01*
X269337Y437643D01*
X269337Y437763D01*
X269341Y437882D01*
X269349Y438001D01*
X269361Y438120D01*
X269377Y438239D01*
X269397Y438356D01*
X269420Y438473D01*
X269448Y438590D01*
X269479Y438705D01*
X269514Y438819D01*
X269553Y438932D01*
X269595Y439044D01*
X269641Y439154D01*
X269691Y439262D01*
X269744Y439369D01*
X269801Y439474D01*
X269861Y439578D01*
X269925Y439679D01*
X269992Y439777D01*
X270062Y439874D01*
X270136Y439968D01*
X270212Y440060D01*
X270292Y440149D01*
X270374Y440236D01*
X270459Y440320D01*
X270547Y440401D01*
X270637Y440478D01*
X270730Y440553D01*
X270826Y440625D01*
X270924Y440694D01*
X271024Y440759D01*
X271126Y440821D01*
X271230Y440880D01*
X271336Y440935D01*
X271444Y440986D01*
X271553Y441034D01*
X271664Y441079D01*
X271776Y441119D01*
X271890Y441156D01*
X272005Y441189D01*
X272120Y441219D01*
X272237Y441244D01*
X272354Y441266D01*
X272473Y441283D01*
X272591Y441297D01*
X272710Y441307D01*
X272830Y441313D01*
X272949Y441315D01*
X273068Y441313D01*
X273188Y441307D01*
X273307Y441297D01*
X273425Y441283D01*
X273544Y441266D01*
X273661Y441244D01*
X273778Y441219D01*
X273893Y441189D01*
X274008Y441156D01*
X274122Y441119D01*
X274234Y441079D01*
X274345Y441034D01*
X274454Y440986D01*
X274562Y440935D01*
X274668Y440880D01*
X274772Y440821D01*
X274874Y440759D01*
X274974Y440694D01*
X275072Y440625D01*
X275168Y440553D01*
X275261Y440478D01*
X275351Y440401D01*
X275439Y440320D01*
X275524Y440236D01*
X275606Y440149D01*
X275686Y440060D01*
X275762Y439968D01*
X275836Y439874D01*
X275906Y439777D01*
X275973Y439679D01*
X276037Y439578D01*
X276097Y439474D01*
X276154Y439369D01*
X276207Y439262D01*
X276257Y439154D01*
X276303Y439044D01*
X276345Y438932D01*
X276384Y438819D01*
X276419Y438705D01*
X276450Y438590D01*
X276478Y438473D01*
X276501Y438356D01*
X276521Y438239D01*
X276537Y438120D01*
X276549Y438001D01*
X276557Y437882D01*
X276561Y437763D01*
X276561Y437643D01*
X276557Y437524D01*
X276549Y437405D01*
X276537Y437286D01*
X276521Y437167D01*
X276501Y437050D01*
X276478Y436933D01*
X276450Y436816D01*
X276419Y436701D01*
X276384Y436587D01*
X276345Y436474D01*
X276303Y436362D01*
X276257Y436252D01*
X276207Y436144D01*
X276154Y436037D01*
X276097Y435932D01*
X276037Y435828D01*
X275973Y435727D01*
X275906Y435629D01*
X275836Y435532D01*
X275762Y435438D01*
X275686Y435346D01*
X275606Y435257D01*
X275524Y435170D01*
X275439Y435086D01*
X275351Y435005D01*
X275261Y434928D01*
X275168Y434853D01*
X275072Y434781D01*
X274974Y434712D01*
X274874Y434647D01*
X274772Y434585D01*
X274668Y434526D01*
X274562Y434471D01*
X274454Y434420D01*
X274345Y434372D01*
X274234Y434327D01*
X274122Y434287D01*
X274008Y434250D01*
X273893Y434217D01*
X273778Y434187D01*
X273661Y434162D01*
X273544Y434140D01*
X273425Y434123D01*
X273307Y434109D01*
X273188Y434099D01*
X273068Y434093D01*
X272949Y434091D01*
D11*
X292100Y139700D02*
X292100Y82100D01*
X939600Y82100D02*
X939600Y139700D01*
X938950Y101600D02*
X292750Y101600D01*
X318100Y104792D01*
X318100Y98408D01*
X292750Y101600D01*
X318100Y102900D01*
X318100Y100300D02*
X292750Y101600D01*
X318100Y104200D01*
X318100Y99000D02*
X292750Y101600D01*
X913600Y104792D02*
X938950Y101600D01*
X913600Y104792D02*
X913600Y98408D01*
X938950Y101600D01*
X913600Y102900D01*
X913600Y100300D02*
X938950Y101600D01*
X913600Y104200D01*
X913600Y99000D02*
X938950Y101600D01*
D12*
X590210Y117138D02*
X584791Y117138D01*
X590210Y117138D02*
X590328Y117136D01*
X590446Y117130D01*
X590564Y117121D01*
X590681Y117107D01*
X590798Y117090D01*
X590915Y117069D01*
X591030Y117044D01*
X591145Y117015D01*
X591259Y116982D01*
X591371Y116946D01*
X591482Y116906D01*
X591592Y116863D01*
X591701Y116816D01*
X591808Y116766D01*
X591913Y116711D01*
X592016Y116654D01*
X592117Y116593D01*
X592217Y116529D01*
X592314Y116462D01*
X592409Y116392D01*
X592501Y116318D01*
X592592Y116242D01*
X592679Y116162D01*
X592764Y116080D01*
X592846Y115995D01*
X592926Y115908D01*
X593002Y115817D01*
X593076Y115725D01*
X593146Y115630D01*
X593213Y115533D01*
X593277Y115433D01*
X593338Y115332D01*
X593395Y115229D01*
X593450Y115124D01*
X593500Y115017D01*
X593547Y114908D01*
X593590Y114798D01*
X593630Y114687D01*
X593666Y114575D01*
X593699Y114461D01*
X593728Y114346D01*
X593753Y114231D01*
X593774Y114114D01*
X593791Y113997D01*
X593805Y113880D01*
X593814Y113762D01*
X593820Y113644D01*
X593822Y113526D01*
X593822Y112623D01*
X593823Y112623D02*
X593821Y112490D01*
X593815Y112358D01*
X593805Y112226D01*
X593792Y112094D01*
X593774Y111962D01*
X593753Y111832D01*
X593728Y111701D01*
X593699Y111572D01*
X593666Y111444D01*
X593630Y111316D01*
X593590Y111190D01*
X593546Y111065D01*
X593498Y110941D01*
X593447Y110819D01*
X593392Y110698D01*
X593334Y110579D01*
X593272Y110461D01*
X593207Y110346D01*
X593138Y110232D01*
X593067Y110121D01*
X592991Y110012D01*
X592913Y109905D01*
X592832Y109800D01*
X592747Y109698D01*
X592660Y109598D01*
X592570Y109501D01*
X592477Y109406D01*
X592381Y109315D01*
X592283Y109226D01*
X592182Y109140D01*
X592078Y109057D01*
X591972Y108977D01*
X591864Y108901D01*
X591754Y108827D01*
X591641Y108757D01*
X591527Y108690D01*
X591410Y108627D01*
X591292Y108567D01*
X591172Y108510D01*
X591050Y108457D01*
X590927Y108408D01*
X590803Y108362D01*
X590677Y108320D01*
X590550Y108282D01*
X590422Y108247D01*
X590293Y108216D01*
X590164Y108189D01*
X590033Y108166D01*
X589902Y108146D01*
X589770Y108131D01*
X589638Y108119D01*
X589506Y108111D01*
X589373Y108107D01*
X589241Y108107D01*
X589108Y108111D01*
X588976Y108119D01*
X588844Y108131D01*
X588712Y108146D01*
X588581Y108166D01*
X588450Y108189D01*
X588321Y108216D01*
X588192Y108247D01*
X588064Y108282D01*
X587937Y108320D01*
X587811Y108362D01*
X587687Y108408D01*
X587564Y108457D01*
X587442Y108510D01*
X587322Y108567D01*
X587204Y108627D01*
X587087Y108690D01*
X586973Y108757D01*
X586860Y108827D01*
X586750Y108901D01*
X586642Y108977D01*
X586536Y109057D01*
X586432Y109140D01*
X586331Y109226D01*
X586233Y109315D01*
X586137Y109406D01*
X586044Y109501D01*
X585954Y109598D01*
X585867Y109698D01*
X585782Y109800D01*
X585701Y109905D01*
X585623Y110012D01*
X585547Y110121D01*
X585476Y110232D01*
X585407Y110346D01*
X585342Y110461D01*
X585280Y110579D01*
X585222Y110698D01*
X585167Y110819D01*
X585116Y110941D01*
X585068Y111065D01*
X585024Y111190D01*
X584984Y111316D01*
X584948Y111444D01*
X584915Y111572D01*
X584886Y111701D01*
X584861Y111832D01*
X584840Y111962D01*
X584822Y112094D01*
X584809Y112226D01*
X584799Y112358D01*
X584793Y112490D01*
X584791Y112623D01*
X584791Y117138D01*
X584793Y117315D01*
X584800Y117493D01*
X584811Y117670D01*
X584826Y117846D01*
X584845Y118022D01*
X584869Y118198D01*
X584897Y118373D01*
X584930Y118548D01*
X584967Y118721D01*
X585008Y118894D01*
X585053Y119065D01*
X585102Y119235D01*
X585156Y119404D01*
X585213Y119572D01*
X585275Y119738D01*
X585341Y119903D01*
X585411Y120066D01*
X585485Y120227D01*
X585562Y120386D01*
X585644Y120544D01*
X585730Y120699D01*
X585819Y120852D01*
X585912Y121003D01*
X586009Y121152D01*
X586109Y121298D01*
X586213Y121442D01*
X586320Y121583D01*
X586431Y121721D01*
X586545Y121857D01*
X586663Y121990D01*
X586783Y122120D01*
X586907Y122247D01*
X587034Y122371D01*
X587164Y122491D01*
X587297Y122609D01*
X587432Y122723D01*
X587571Y122834D01*
X587712Y122941D01*
X587856Y123045D01*
X588002Y123145D01*
X588151Y123242D01*
X588302Y123335D01*
X588455Y123424D01*
X588610Y123510D01*
X588768Y123592D01*
X588927Y123669D01*
X589088Y123743D01*
X589251Y123813D01*
X589416Y123879D01*
X589582Y123941D01*
X589750Y123998D01*
X589919Y124052D01*
X590089Y124101D01*
X590260Y124146D01*
X590433Y124187D01*
X590606Y124224D01*
X590781Y124257D01*
X590956Y124285D01*
X591132Y124309D01*
X591308Y124328D01*
X591484Y124343D01*
X591661Y124354D01*
X591839Y124361D01*
X592016Y124363D01*
X604035Y124363D02*
X600423Y111719D01*
X609454Y111719D01*
X606744Y108107D02*
X606744Y115332D01*
X615428Y109010D02*
X615428Y108107D01*
X615428Y109010D02*
X616331Y109010D01*
X616331Y108107D01*
X615428Y108107D01*
X622306Y122557D02*
X622306Y124363D01*
X631337Y124363D01*
X626822Y108107D01*
X637937Y108107D02*
X643356Y108107D01*
X643474Y108109D01*
X643592Y108115D01*
X643710Y108124D01*
X643827Y108138D01*
X643944Y108155D01*
X644061Y108176D01*
X644176Y108201D01*
X644291Y108230D01*
X644405Y108263D01*
X644517Y108299D01*
X644628Y108339D01*
X644738Y108382D01*
X644847Y108429D01*
X644954Y108479D01*
X645059Y108534D01*
X645162Y108591D01*
X645263Y108652D01*
X645363Y108716D01*
X645460Y108783D01*
X645555Y108853D01*
X645647Y108927D01*
X645738Y109003D01*
X645825Y109083D01*
X645910Y109165D01*
X645992Y109250D01*
X646072Y109337D01*
X646148Y109428D01*
X646222Y109520D01*
X646292Y109615D01*
X646359Y109712D01*
X646423Y109812D01*
X646484Y109913D01*
X646541Y110016D01*
X646596Y110121D01*
X646646Y110228D01*
X646693Y110337D01*
X646736Y110447D01*
X646776Y110558D01*
X646812Y110670D01*
X646845Y110784D01*
X646874Y110899D01*
X646899Y111014D01*
X646920Y111131D01*
X646937Y111248D01*
X646951Y111365D01*
X646960Y111483D01*
X646966Y111601D01*
X646968Y111719D01*
X646969Y111719D02*
X646969Y113526D01*
X646968Y113526D02*
X646966Y113644D01*
X646960Y113762D01*
X646951Y113880D01*
X646937Y113997D01*
X646920Y114114D01*
X646899Y114231D01*
X646874Y114346D01*
X646845Y114461D01*
X646812Y114575D01*
X646776Y114687D01*
X646736Y114798D01*
X646693Y114908D01*
X646646Y115017D01*
X646596Y115124D01*
X646541Y115229D01*
X646484Y115332D01*
X646423Y115433D01*
X646359Y115533D01*
X646292Y115630D01*
X646222Y115725D01*
X646148Y115817D01*
X646072Y115908D01*
X645992Y115995D01*
X645910Y116080D01*
X645825Y116162D01*
X645738Y116242D01*
X645647Y116318D01*
X645555Y116392D01*
X645460Y116462D01*
X645363Y116529D01*
X645263Y116593D01*
X645162Y116654D01*
X645059Y116711D01*
X644954Y116766D01*
X644847Y116816D01*
X644738Y116863D01*
X644628Y116906D01*
X644517Y116946D01*
X644405Y116982D01*
X644291Y117015D01*
X644176Y117044D01*
X644061Y117069D01*
X643944Y117090D01*
X643827Y117107D01*
X643710Y117121D01*
X643592Y117130D01*
X643474Y117136D01*
X643356Y117138D01*
X637937Y117138D01*
X637937Y124363D01*
X646969Y124363D01*
D13*
X342900Y371500D03*
X342900Y390500D03*
X381000Y276200D03*
X381000Y257200D03*
D14*
X746100Y457200D03*
X727100Y457200D03*
X746100Y508000D03*
X727100Y508000D03*
D13*
X406400Y422300D03*
X406400Y441300D03*
D14*
X485800Y419100D03*
X504800Y419100D03*
X435000Y431800D03*
X454000Y431800D03*
D15*
X771500Y571801D03*
X762000Y571801D03*
X752500Y571801D03*
X752500Y545799D03*
X771500Y545799D03*
D16*
X393700Y508000D03*
X368300Y508000D03*
X393700Y533400D03*
X368300Y533400D03*
X393700Y558800D03*
X368300Y558800D03*
X393700Y584200D03*
X368300Y584200D03*
X393700Y609600D03*
X368300Y609600D03*
D17*
X774700Y627380D02*
X774700Y642620D01*
X749300Y642620D02*
X749300Y627380D01*
X495300Y515620D02*
X495300Y500380D01*
X520700Y500380D02*
X520700Y515620D01*
X703580Y330200D02*
X718820Y330200D01*
X718820Y304800D02*
X703580Y304800D01*
X703580Y279400D02*
X718820Y279400D01*
X718820Y254000D02*
X703580Y254000D01*
X703580Y228600D02*
X718820Y228600D01*
X718820Y203200D02*
X703580Y203200D01*
X703580Y177800D02*
X718820Y177800D01*
X629920Y254000D02*
X614680Y254000D01*
X614680Y228600D02*
X629920Y228600D01*
X629920Y203200D02*
X614680Y203200D01*
X614680Y177800D02*
X629920Y177800D01*
X779780Y177800D02*
X795020Y177800D01*
X795020Y203200D02*
X779780Y203200D01*
X779780Y228600D02*
X795020Y228600D01*
X795020Y254000D02*
X779780Y254000D01*
X855980Y177800D02*
X871220Y177800D01*
X871220Y203200D02*
X855980Y203200D01*
X855980Y228600D02*
X871220Y228600D01*
X871220Y254000D02*
X855980Y254000D01*
D18*
X356300Y352200D03*
X356300Y308200D03*
X380300Y308200D03*
X380300Y352200D03*
D14*
X485800Y457200D03*
X504800Y457200D03*
X555600Y457200D03*
X536600Y457200D03*
D17*
X582168Y467106D02*
X597408Y467106D01*
X597408Y421894D02*
X582168Y421894D01*
X647192Y467106D02*
X662432Y467106D01*
X662432Y421894D02*
X647192Y421894D01*
D19*
X422713Y356137D02*
X408087Y356137D01*
X408087Y360263D01*
X422713Y360263D01*
X422713Y356137D01*
X422713Y357443D02*
X408087Y357443D01*
X408087Y358749D02*
X422713Y358749D01*
X422713Y360055D02*
X408087Y360055D01*
X408087Y348137D02*
X422713Y348137D01*
X408087Y348137D02*
X408087Y352263D01*
X422713Y352263D01*
X422713Y348137D01*
X422713Y349443D02*
X408087Y349443D01*
X408087Y350749D02*
X422713Y350749D01*
X422713Y352055D02*
X408087Y352055D01*
X408087Y340137D02*
X422713Y340137D01*
X408087Y340137D02*
X408087Y344263D01*
X422713Y344263D01*
X422713Y340137D01*
X422713Y341443D02*
X408087Y341443D01*
X408087Y342749D02*
X422713Y342749D01*
X422713Y344055D02*
X408087Y344055D01*
X408087Y332137D02*
X422713Y332137D01*
X408087Y332137D02*
X408087Y336263D01*
X422713Y336263D01*
X422713Y332137D01*
X422713Y333443D02*
X408087Y333443D01*
X408087Y334749D02*
X422713Y334749D01*
X422713Y336055D02*
X408087Y336055D01*
X408087Y324137D02*
X422713Y324137D01*
X408087Y324137D02*
X408087Y328263D01*
X422713Y328263D01*
X422713Y324137D01*
X422713Y325443D02*
X408087Y325443D01*
X408087Y326749D02*
X422713Y326749D01*
X422713Y328055D02*
X408087Y328055D01*
X408087Y316137D02*
X422713Y316137D01*
X408087Y316137D02*
X408087Y320263D01*
X422713Y320263D01*
X422713Y316137D01*
X422713Y317443D02*
X408087Y317443D01*
X408087Y318749D02*
X422713Y318749D01*
X422713Y320055D02*
X408087Y320055D01*
X408087Y308137D02*
X422713Y308137D01*
X408087Y308137D02*
X408087Y312263D01*
X422713Y312263D01*
X422713Y308137D01*
X422713Y309443D02*
X408087Y309443D01*
X408087Y310749D02*
X422713Y310749D01*
X422713Y312055D02*
X408087Y312055D01*
X408087Y300137D02*
X422713Y300137D01*
X408087Y300137D02*
X408087Y304263D01*
X422713Y304263D01*
X422713Y300137D01*
X422713Y301443D02*
X408087Y301443D01*
X408087Y302749D02*
X422713Y302749D01*
X422713Y304055D02*
X408087Y304055D01*
X431263Y295713D02*
X431263Y281087D01*
X427137Y281087D01*
X427137Y295713D01*
X431263Y295713D01*
X431263Y282393D02*
X427137Y282393D01*
X427137Y283699D02*
X431263Y283699D01*
X431263Y285005D02*
X427137Y285005D01*
X427137Y286311D02*
X431263Y286311D01*
X431263Y287617D02*
X427137Y287617D01*
X427137Y288923D02*
X431263Y288923D01*
X431263Y290229D02*
X427137Y290229D01*
X427137Y291535D02*
X431263Y291535D01*
X431263Y292841D02*
X427137Y292841D01*
X427137Y294147D02*
X431263Y294147D01*
X431263Y295453D02*
X427137Y295453D01*
X439263Y295713D02*
X439263Y281087D01*
X435137Y281087D01*
X435137Y295713D01*
X439263Y295713D01*
X439263Y282393D02*
X435137Y282393D01*
X435137Y283699D02*
X439263Y283699D01*
X439263Y285005D02*
X435137Y285005D01*
X435137Y286311D02*
X439263Y286311D01*
X439263Y287617D02*
X435137Y287617D01*
X435137Y288923D02*
X439263Y288923D01*
X439263Y290229D02*
X435137Y290229D01*
X435137Y291535D02*
X439263Y291535D01*
X439263Y292841D02*
X435137Y292841D01*
X435137Y294147D02*
X439263Y294147D01*
X439263Y295453D02*
X435137Y295453D01*
X447263Y295713D02*
X447263Y281087D01*
X443137Y281087D01*
X443137Y295713D01*
X447263Y295713D01*
X447263Y282393D02*
X443137Y282393D01*
X443137Y283699D02*
X447263Y283699D01*
X447263Y285005D02*
X443137Y285005D01*
X443137Y286311D02*
X447263Y286311D01*
X447263Y287617D02*
X443137Y287617D01*
X443137Y288923D02*
X447263Y288923D01*
X447263Y290229D02*
X443137Y290229D01*
X443137Y291535D02*
X447263Y291535D01*
X447263Y292841D02*
X443137Y292841D01*
X443137Y294147D02*
X447263Y294147D01*
X447263Y295453D02*
X443137Y295453D01*
X455263Y295713D02*
X455263Y281087D01*
X451137Y281087D01*
X451137Y295713D01*
X455263Y295713D01*
X455263Y282393D02*
X451137Y282393D01*
X451137Y283699D02*
X455263Y283699D01*
X455263Y285005D02*
X451137Y285005D01*
X451137Y286311D02*
X455263Y286311D01*
X455263Y287617D02*
X451137Y287617D01*
X451137Y288923D02*
X455263Y288923D01*
X455263Y290229D02*
X451137Y290229D01*
X451137Y291535D02*
X455263Y291535D01*
X455263Y292841D02*
X451137Y292841D01*
X451137Y294147D02*
X455263Y294147D01*
X455263Y295453D02*
X451137Y295453D01*
X463263Y295713D02*
X463263Y281087D01*
X459137Y281087D01*
X459137Y295713D01*
X463263Y295713D01*
X463263Y282393D02*
X459137Y282393D01*
X459137Y283699D02*
X463263Y283699D01*
X463263Y285005D02*
X459137Y285005D01*
X459137Y286311D02*
X463263Y286311D01*
X463263Y287617D02*
X459137Y287617D01*
X459137Y288923D02*
X463263Y288923D01*
X463263Y290229D02*
X459137Y290229D01*
X459137Y291535D02*
X463263Y291535D01*
X463263Y292841D02*
X459137Y292841D01*
X459137Y294147D02*
X463263Y294147D01*
X463263Y295453D02*
X459137Y295453D01*
X471263Y295713D02*
X471263Y281087D01*
X467137Y281087D01*
X467137Y295713D01*
X471263Y295713D01*
X471263Y282393D02*
X467137Y282393D01*
X467137Y283699D02*
X471263Y283699D01*
X471263Y285005D02*
X467137Y285005D01*
X467137Y286311D02*
X471263Y286311D01*
X471263Y287617D02*
X467137Y287617D01*
X467137Y288923D02*
X471263Y288923D01*
X471263Y290229D02*
X467137Y290229D01*
X467137Y291535D02*
X471263Y291535D01*
X471263Y292841D02*
X467137Y292841D01*
X467137Y294147D02*
X471263Y294147D01*
X471263Y295453D02*
X467137Y295453D01*
X479263Y295713D02*
X479263Y281087D01*
X475137Y281087D01*
X475137Y295713D01*
X479263Y295713D01*
X479263Y282393D02*
X475137Y282393D01*
X475137Y283699D02*
X479263Y283699D01*
X479263Y285005D02*
X475137Y285005D01*
X475137Y286311D02*
X479263Y286311D01*
X479263Y287617D02*
X475137Y287617D01*
X475137Y288923D02*
X479263Y288923D01*
X479263Y290229D02*
X475137Y290229D01*
X475137Y291535D02*
X479263Y291535D01*
X479263Y292841D02*
X475137Y292841D01*
X475137Y294147D02*
X479263Y294147D01*
X479263Y295453D02*
X475137Y295453D01*
X487263Y295713D02*
X487263Y281087D01*
X483137Y281087D01*
X483137Y295713D01*
X487263Y295713D01*
X487263Y282393D02*
X483137Y282393D01*
X483137Y283699D02*
X487263Y283699D01*
X487263Y285005D02*
X483137Y285005D01*
X483137Y286311D02*
X487263Y286311D01*
X487263Y287617D02*
X483137Y287617D01*
X483137Y288923D02*
X487263Y288923D01*
X487263Y290229D02*
X483137Y290229D01*
X483137Y291535D02*
X487263Y291535D01*
X487263Y292841D02*
X483137Y292841D01*
X483137Y294147D02*
X487263Y294147D01*
X487263Y295453D02*
X483137Y295453D01*
X491687Y304263D02*
X506313Y304263D01*
X506313Y300137D01*
X491687Y300137D01*
X491687Y304263D01*
X491687Y301443D02*
X506313Y301443D01*
X506313Y302749D02*
X491687Y302749D01*
X491687Y304055D02*
X506313Y304055D01*
X506313Y312263D02*
X491687Y312263D01*
X506313Y312263D02*
X506313Y308137D01*
X491687Y308137D01*
X491687Y312263D01*
X491687Y309443D02*
X506313Y309443D01*
X506313Y310749D02*
X491687Y310749D01*
X491687Y312055D02*
X506313Y312055D01*
X506313Y320263D02*
X491687Y320263D01*
X506313Y320263D02*
X506313Y316137D01*
X491687Y316137D01*
X491687Y320263D01*
X491687Y317443D02*
X506313Y317443D01*
X506313Y318749D02*
X491687Y318749D01*
X491687Y320055D02*
X506313Y320055D01*
X506313Y328263D02*
X491687Y328263D01*
X506313Y328263D02*
X506313Y324137D01*
X491687Y324137D01*
X491687Y328263D01*
X491687Y325443D02*
X506313Y325443D01*
X506313Y326749D02*
X491687Y326749D01*
X491687Y328055D02*
X506313Y328055D01*
X506313Y336263D02*
X491687Y336263D01*
X506313Y336263D02*
X506313Y332137D01*
X491687Y332137D01*
X491687Y336263D01*
X491687Y333443D02*
X506313Y333443D01*
X506313Y334749D02*
X491687Y334749D01*
X491687Y336055D02*
X506313Y336055D01*
X506313Y344263D02*
X491687Y344263D01*
X506313Y344263D02*
X506313Y340137D01*
X491687Y340137D01*
X491687Y344263D01*
X491687Y341443D02*
X506313Y341443D01*
X506313Y342749D02*
X491687Y342749D01*
X491687Y344055D02*
X506313Y344055D01*
X506313Y352263D02*
X491687Y352263D01*
X506313Y352263D02*
X506313Y348137D01*
X491687Y348137D01*
X491687Y352263D01*
X491687Y349443D02*
X506313Y349443D01*
X506313Y350749D02*
X491687Y350749D01*
X491687Y352055D02*
X506313Y352055D01*
X506313Y360263D02*
X491687Y360263D01*
X506313Y360263D02*
X506313Y356137D01*
X491687Y356137D01*
X491687Y360263D01*
X491687Y357443D02*
X506313Y357443D01*
X506313Y358749D02*
X491687Y358749D01*
X491687Y360055D02*
X506313Y360055D01*
X483137Y364687D02*
X483137Y379313D01*
X487263Y379313D01*
X487263Y364687D01*
X483137Y364687D01*
X483137Y365993D02*
X487263Y365993D01*
X487263Y367299D02*
X483137Y367299D01*
X483137Y368605D02*
X487263Y368605D01*
X487263Y369911D02*
X483137Y369911D01*
X483137Y371217D02*
X487263Y371217D01*
X487263Y372523D02*
X483137Y372523D01*
X483137Y373829D02*
X487263Y373829D01*
X487263Y375135D02*
X483137Y375135D01*
X483137Y376441D02*
X487263Y376441D01*
X487263Y377747D02*
X483137Y377747D01*
X483137Y379053D02*
X487263Y379053D01*
X475137Y379313D02*
X475137Y364687D01*
X475137Y379313D02*
X479263Y379313D01*
X479263Y364687D01*
X475137Y364687D01*
X475137Y365993D02*
X479263Y365993D01*
X479263Y367299D02*
X475137Y367299D01*
X475137Y368605D02*
X479263Y368605D01*
X479263Y369911D02*
X475137Y369911D01*
X475137Y371217D02*
X479263Y371217D01*
X479263Y372523D02*
X475137Y372523D01*
X475137Y373829D02*
X479263Y373829D01*
X479263Y375135D02*
X475137Y375135D01*
X475137Y376441D02*
X479263Y376441D01*
X479263Y377747D02*
X475137Y377747D01*
X475137Y379053D02*
X479263Y379053D01*
X467137Y379313D02*
X467137Y364687D01*
X467137Y379313D02*
X471263Y379313D01*
X471263Y364687D01*
X467137Y364687D01*
X467137Y365993D02*
X471263Y365993D01*
X471263Y367299D02*
X467137Y367299D01*
X467137Y368605D02*
X471263Y368605D01*
X471263Y369911D02*
X467137Y369911D01*
X467137Y371217D02*
X471263Y371217D01*
X471263Y372523D02*
X467137Y372523D01*
X467137Y373829D02*
X471263Y373829D01*
X471263Y375135D02*
X467137Y375135D01*
X467137Y376441D02*
X471263Y376441D01*
X471263Y377747D02*
X467137Y377747D01*
X467137Y379053D02*
X471263Y379053D01*
X459137Y379313D02*
X459137Y364687D01*
X459137Y379313D02*
X463263Y379313D01*
X463263Y364687D01*
X459137Y364687D01*
X459137Y365993D02*
X463263Y365993D01*
X463263Y367299D02*
X459137Y367299D01*
X459137Y368605D02*
X463263Y368605D01*
X463263Y369911D02*
X459137Y369911D01*
X459137Y371217D02*
X463263Y371217D01*
X463263Y372523D02*
X459137Y372523D01*
X459137Y373829D02*
X463263Y373829D01*
X463263Y375135D02*
X459137Y375135D01*
X459137Y376441D02*
X463263Y376441D01*
X463263Y377747D02*
X459137Y377747D01*
X459137Y379053D02*
X463263Y379053D01*
X451137Y379313D02*
X451137Y364687D01*
X451137Y379313D02*
X455263Y379313D01*
X455263Y364687D01*
X451137Y364687D01*
X451137Y365993D02*
X455263Y365993D01*
X455263Y367299D02*
X451137Y367299D01*
X451137Y368605D02*
X455263Y368605D01*
X455263Y369911D02*
X451137Y369911D01*
X451137Y371217D02*
X455263Y371217D01*
X455263Y372523D02*
X451137Y372523D01*
X451137Y373829D02*
X455263Y373829D01*
X455263Y375135D02*
X451137Y375135D01*
X451137Y376441D02*
X455263Y376441D01*
X455263Y377747D02*
X451137Y377747D01*
X451137Y379053D02*
X455263Y379053D01*
X443137Y379313D02*
X443137Y364687D01*
X443137Y379313D02*
X447263Y379313D01*
X447263Y364687D01*
X443137Y364687D01*
X443137Y365993D02*
X447263Y365993D01*
X447263Y367299D02*
X443137Y367299D01*
X443137Y368605D02*
X447263Y368605D01*
X447263Y369911D02*
X443137Y369911D01*
X443137Y371217D02*
X447263Y371217D01*
X447263Y372523D02*
X443137Y372523D01*
X443137Y373829D02*
X447263Y373829D01*
X447263Y375135D02*
X443137Y375135D01*
X443137Y376441D02*
X447263Y376441D01*
X447263Y377747D02*
X443137Y377747D01*
X443137Y379053D02*
X447263Y379053D01*
X435137Y379313D02*
X435137Y364687D01*
X435137Y379313D02*
X439263Y379313D01*
X439263Y364687D01*
X435137Y364687D01*
X435137Y365993D02*
X439263Y365993D01*
X439263Y367299D02*
X435137Y367299D01*
X435137Y368605D02*
X439263Y368605D01*
X439263Y369911D02*
X435137Y369911D01*
X435137Y371217D02*
X439263Y371217D01*
X439263Y372523D02*
X435137Y372523D01*
X435137Y373829D02*
X439263Y373829D01*
X439263Y375135D02*
X435137Y375135D01*
X435137Y376441D02*
X439263Y376441D01*
X439263Y377747D02*
X435137Y377747D01*
X435137Y379053D02*
X439263Y379053D01*
X427137Y379313D02*
X427137Y364687D01*
X427137Y379313D02*
X431263Y379313D01*
X431263Y364687D01*
X427137Y364687D01*
X427137Y365993D02*
X431263Y365993D01*
X431263Y367299D02*
X427137Y367299D01*
X427137Y368605D02*
X431263Y368605D01*
X431263Y369911D02*
X427137Y369911D01*
X427137Y371217D02*
X431263Y371217D01*
X431263Y372523D02*
X427137Y372523D01*
X427137Y373829D02*
X431263Y373829D01*
X431263Y375135D02*
X427137Y375135D01*
X427137Y376441D02*
X431263Y376441D01*
X431263Y377747D02*
X427137Y377747D01*
X427137Y379053D02*
X431263Y379053D01*
D20*
X415400Y358200D02*
X395111Y358200D01*
X385883Y367428D01*
X367428Y367428D01*
X355600Y355600D01*
X356300Y358100D02*
X342900Y371500D01*
X356300Y358100D02*
X356300Y352200D01*
X401000Y350200D02*
X415400Y350200D01*
X380300Y329500D02*
X380300Y308200D01*
X380300Y329500D02*
X401000Y350200D01*
X380300Y308200D02*
X381000Y307500D01*
X381000Y276200D01*
X723900Y457200D02*
X727100Y457200D01*
X723900Y457200D02*
X711200Y469900D01*
X711200Y495300D01*
X723900Y508000D01*
X727100Y508000D01*
X762000Y571801D02*
X762000Y584200D01*
X749300Y596900D01*
X749300Y609600D01*
X749300Y635000D01*
X461200Y372000D02*
X461200Y334200D01*
X437200Y310200D02*
X437200Y288400D01*
X437200Y310200D02*
X461200Y334200D01*
X437200Y288400D02*
X437200Y210500D01*
X444500Y203200D01*
X622300Y203200D01*
X711200Y203200D01*
X787400Y203200D01*
X863600Y203200D01*
X589788Y421894D02*
X574294Y406400D01*
X571500Y406400D02*
X517500Y406400D01*
X571500Y406400D02*
X574294Y406400D01*
X596900Y508000D02*
X520700Y508000D01*
X596900Y508000D02*
X609600Y495300D01*
X609600Y441706D01*
X589788Y421894D01*
X419100Y454000D02*
X406400Y441300D01*
X419100Y508000D02*
X393700Y533400D01*
X419100Y508000D02*
X419100Y454000D01*
X393700Y558800D02*
X381000Y571500D01*
X355600Y571500D01*
X393700Y558800D02*
X393700Y533400D01*
X711200Y523900D02*
X727100Y508000D01*
X711200Y523900D02*
X711200Y571500D01*
X749300Y609600D01*
X596900Y635000D02*
X596900Y508000D01*
X596900Y635000D02*
X584200Y647700D01*
X355600Y647700D01*
X342900Y635000D01*
X342900Y584200D01*
X355600Y571500D01*
X504800Y419100D02*
X517500Y406400D01*
X863600Y205893D02*
X863600Y203200D01*
X596900Y381000D02*
X571500Y406400D01*
X596900Y381000D02*
X711200Y381000D01*
X749300Y381000D01*
X762000Y368300D01*
X762000Y292100D01*
X774700Y279400D01*
X889000Y279400D01*
X901700Y266700D01*
X901700Y215900D01*
X889000Y203200D01*
X863600Y203200D01*
X727100Y396900D02*
X727100Y457200D01*
X727100Y396900D02*
X711200Y381000D01*
X461200Y372000D02*
X461200Y402400D01*
X454000Y409600D02*
X454000Y431800D01*
X454000Y409600D02*
X461200Y402400D01*
X342900Y393700D02*
X342900Y390500D01*
X342900Y393700D02*
X342900Y558800D01*
X355600Y571500D01*
X381000Y257200D02*
X365100Y241300D01*
X330200Y241300D02*
X317500Y254000D01*
X317500Y368300D01*
X330200Y241300D02*
X365100Y241300D01*
X317500Y368300D02*
X342900Y393700D01*
X771500Y482600D02*
X771500Y545799D01*
X771500Y482600D02*
X746100Y457200D01*
X445200Y372000D02*
X445200Y330900D01*
X429200Y314900D02*
X429200Y288400D01*
X429200Y314900D02*
X445200Y330900D01*
X429200Y288400D02*
X429200Y180400D01*
X431800Y177800D02*
X622300Y177800D01*
X431800Y177800D02*
X429200Y180400D01*
X622300Y177800D02*
X711200Y177800D01*
X787400Y177800D01*
X863600Y177800D01*
X445200Y372000D02*
X444500Y372700D01*
X444500Y393700D01*
X431800Y406400D01*
X419100Y406400D01*
X406400Y419100D01*
X406400Y422300D01*
X393700Y435000D01*
X393700Y508000D01*
X746100Y457200D02*
X774700Y428600D01*
X774700Y304800D01*
X787400Y292100D01*
X901700Y292100D01*
X914400Y279400D01*
X914400Y190500D01*
X901700Y177800D01*
X876300Y177800D01*
X409600Y419100D02*
X406400Y422300D01*
X419100Y435000D01*
X419100Y444500D01*
X431800Y457200D01*
X457200Y457200D01*
X469900Y444500D01*
X495300Y444500D01*
X504800Y454000D01*
X504800Y457200D01*
X429200Y372000D02*
X377300Y372000D01*
X368300Y381000D01*
X368300Y508000D01*
X434998Y374202D02*
X437200Y372000D01*
X434998Y374202D02*
X434998Y380860D01*
X432810Y383048D01*
X425590Y383048D01*
X423542Y381000D01*
X381000Y381000D01*
X368300Y523087D02*
X368300Y533400D01*
X368300Y523087D02*
X378968Y512419D01*
X378968Y383032D02*
X381000Y381000D01*
X378968Y383032D02*
X378968Y512419D01*
X477200Y401000D02*
X477200Y372000D01*
X485800Y409600D02*
X485800Y419100D01*
X485800Y409600D02*
X477200Y401000D01*
X484200Y455600D02*
X485800Y457200D01*
X485800Y419100D02*
X482600Y419100D01*
X485800Y457200D02*
X469900Y473100D01*
X469900Y495300D02*
X482600Y508000D01*
X495300Y508000D01*
X469900Y495300D02*
X469900Y473100D01*
X484200Y455600D02*
X488090Y455600D01*
X368300Y609600D02*
X368300Y622300D01*
X381000Y635000D01*
X482600Y635000D01*
X495300Y622300D01*
X495300Y508000D01*
X497038Y467748D02*
X512563Y467748D01*
X486490Y457200D02*
X485800Y457200D01*
X523111Y457200D02*
X533400Y457200D01*
X497038Y467748D02*
X486490Y457200D01*
X512563Y467748D02*
X523111Y457200D01*
X498500Y431800D02*
X485800Y419100D01*
X498500Y431800D02*
X533400Y431800D01*
X536600Y435000D02*
X536600Y457200D01*
X536600Y435000D02*
X533400Y431800D01*
X752500Y545799D02*
X762000Y536299D01*
X762000Y523900D02*
X746100Y508000D01*
X762000Y523900D02*
X762000Y536299D01*
X766013Y562753D02*
X767798Y564539D01*
X766013Y562753D02*
X757988Y562753D01*
X756202Y564539D01*
X767798Y568099D02*
X771500Y571801D01*
X767798Y568099D02*
X767798Y564539D01*
X756202Y564539D02*
X756202Y568099D01*
X752500Y571801D01*
X774700Y596900D02*
X774700Y635000D01*
X774700Y596900D02*
X771500Y593700D01*
X771500Y571801D01*
X453200Y397700D02*
X453200Y372000D01*
X453200Y397700D02*
X431800Y419100D01*
X431800Y428600D01*
X435000Y431800D01*
X453200Y288400D02*
X453200Y258000D01*
X457200Y254000D02*
X622300Y254000D01*
X457200Y254000D02*
X453200Y258000D01*
X445200Y240600D02*
X445200Y288400D01*
X457200Y228600D02*
X622300Y228600D01*
X457200Y228600D02*
X445200Y240600D01*
X647700Y330200D02*
X711200Y330200D01*
X643700Y326200D02*
X499000Y326200D01*
X643700Y326200D02*
X647700Y330200D01*
X685800Y254000D02*
X711200Y254000D01*
X637600Y302200D02*
X499000Y302200D01*
X637600Y302200D02*
X685800Y254000D01*
X642300Y310200D02*
X499000Y310200D01*
X642300Y310200D02*
X673100Y279400D01*
X711200Y279400D01*
X711200Y304800D02*
X660400Y304800D01*
X647000Y318200D02*
X499000Y318200D01*
X647000Y318200D02*
X660400Y304800D01*
X485200Y288400D02*
X485200Y276800D01*
X495300Y266700D01*
X660400Y266700D01*
X673100Y254000D01*
X673100Y241300D01*
X685800Y228600D01*
X711200Y228600D01*
X787400Y228600D02*
X863600Y228600D01*
X787400Y228600D02*
X749300Y228600D01*
X736600Y241300D01*
X736600Y342900D01*
X723900Y355600D01*
X546100Y355600D01*
X524700Y334200D02*
X499000Y334200D01*
X524700Y334200D02*
X546100Y355600D01*
X787400Y254000D02*
X863600Y254000D01*
X520000Y342200D02*
X499000Y342200D01*
X520000Y342200D02*
X546100Y368300D01*
X736600Y368300D01*
X749300Y355600D01*
X749300Y266700D01*
X762000Y254000D01*
X787400Y254000D01*
X565506Y467106D02*
X555600Y457200D01*
X565506Y467106D02*
X589788Y467106D01*
M02*
