G04 EAGLE Gerber RS-274X export*
G75*
%MOMM*%
%FSLAX34Y34*%
%LPD*%
%INSilkscreen Top*%
%IPPOS*%
%AMOC8*
5,1,8,0,0,1.08239X$1,22.5*%
G01*
%ADD10C,0.101600*%
%ADD11C,0.152400*%
%ADD12C,0.127000*%
%ADD13C,0.203200*%
%ADD14C,0.364000*%
%ADD15C,0.050800*%
%ADD16C,0.200000*%
%ADD17C,0.076200*%


D10*
X329692Y374001D02*
X329692Y371404D01*
X329690Y371305D01*
X329684Y371205D01*
X329675Y371106D01*
X329662Y371008D01*
X329645Y370910D01*
X329624Y370812D01*
X329599Y370716D01*
X329571Y370621D01*
X329539Y370527D01*
X329504Y370434D01*
X329465Y370342D01*
X329422Y370252D01*
X329377Y370164D01*
X329327Y370077D01*
X329275Y369993D01*
X329219Y369910D01*
X329161Y369830D01*
X329099Y369752D01*
X329034Y369677D01*
X328966Y369604D01*
X328896Y369534D01*
X328823Y369466D01*
X328748Y369401D01*
X328670Y369339D01*
X328590Y369281D01*
X328507Y369225D01*
X328423Y369173D01*
X328336Y369123D01*
X328248Y369078D01*
X328158Y369035D01*
X328066Y368996D01*
X327973Y368961D01*
X327879Y368929D01*
X327784Y368901D01*
X327688Y368876D01*
X327590Y368855D01*
X327492Y368838D01*
X327394Y368825D01*
X327295Y368816D01*
X327195Y368810D01*
X327096Y368808D01*
X320604Y368808D01*
X320505Y368810D01*
X320405Y368816D01*
X320306Y368825D01*
X320208Y368838D01*
X320110Y368856D01*
X320012Y368876D01*
X319916Y368901D01*
X319820Y368929D01*
X319726Y368961D01*
X319633Y368996D01*
X319542Y369035D01*
X319452Y369078D01*
X319363Y369123D01*
X319277Y369173D01*
X319192Y369225D01*
X319110Y369281D01*
X319030Y369340D01*
X318952Y369401D01*
X318876Y369466D01*
X318803Y369534D01*
X318733Y369604D01*
X318665Y369677D01*
X318600Y369753D01*
X318539Y369831D01*
X318480Y369911D01*
X318424Y369993D01*
X318372Y370078D01*
X318323Y370164D01*
X318277Y370253D01*
X318234Y370343D01*
X318195Y370434D01*
X318160Y370527D01*
X318128Y370621D01*
X318100Y370717D01*
X318075Y370813D01*
X318055Y370911D01*
X318037Y371009D01*
X318024Y371107D01*
X318015Y371206D01*
X318009Y371305D01*
X318007Y371405D01*
X318008Y371404D02*
X318008Y374001D01*
X320604Y378366D02*
X318008Y381612D01*
X329692Y381612D01*
X329692Y384857D02*
X329692Y378366D01*
X405892Y268036D02*
X405892Y265439D01*
X405890Y265340D01*
X405884Y265240D01*
X405875Y265141D01*
X405862Y265043D01*
X405845Y264945D01*
X405824Y264847D01*
X405799Y264751D01*
X405771Y264656D01*
X405739Y264562D01*
X405704Y264469D01*
X405665Y264377D01*
X405622Y264287D01*
X405577Y264199D01*
X405527Y264112D01*
X405475Y264028D01*
X405419Y263945D01*
X405361Y263865D01*
X405299Y263787D01*
X405234Y263712D01*
X405166Y263639D01*
X405096Y263569D01*
X405023Y263501D01*
X404948Y263436D01*
X404870Y263374D01*
X404790Y263316D01*
X404707Y263260D01*
X404623Y263208D01*
X404536Y263158D01*
X404448Y263113D01*
X404358Y263070D01*
X404266Y263031D01*
X404173Y262996D01*
X404079Y262964D01*
X403984Y262936D01*
X403888Y262911D01*
X403790Y262890D01*
X403692Y262873D01*
X403594Y262860D01*
X403495Y262851D01*
X403395Y262845D01*
X403296Y262843D01*
X396804Y262843D01*
X396804Y262842D02*
X396705Y262844D01*
X396605Y262850D01*
X396506Y262859D01*
X396408Y262872D01*
X396310Y262890D01*
X396212Y262910D01*
X396116Y262935D01*
X396020Y262963D01*
X395926Y262995D01*
X395833Y263030D01*
X395742Y263069D01*
X395652Y263112D01*
X395563Y263157D01*
X395477Y263207D01*
X395392Y263259D01*
X395310Y263315D01*
X395230Y263374D01*
X395152Y263435D01*
X395076Y263500D01*
X395003Y263568D01*
X394933Y263638D01*
X394865Y263711D01*
X394800Y263787D01*
X394739Y263865D01*
X394680Y263945D01*
X394624Y264027D01*
X394572Y264112D01*
X394523Y264198D01*
X394477Y264287D01*
X394434Y264377D01*
X394395Y264468D01*
X394360Y264561D01*
X394328Y264655D01*
X394300Y264751D01*
X394275Y264847D01*
X394255Y264945D01*
X394237Y265043D01*
X394224Y265141D01*
X394215Y265240D01*
X394209Y265339D01*
X394207Y265439D01*
X394208Y265439D02*
X394208Y268036D01*
X394208Y275971D02*
X394210Y276078D01*
X394216Y276184D01*
X394226Y276290D01*
X394239Y276396D01*
X394257Y276502D01*
X394278Y276606D01*
X394303Y276710D01*
X394332Y276813D01*
X394364Y276914D01*
X394401Y277014D01*
X394441Y277113D01*
X394484Y277211D01*
X394531Y277307D01*
X394582Y277401D01*
X394636Y277493D01*
X394693Y277583D01*
X394753Y277671D01*
X394817Y277756D01*
X394884Y277839D01*
X394954Y277920D01*
X395026Y277998D01*
X395102Y278074D01*
X395180Y278146D01*
X395261Y278216D01*
X395344Y278283D01*
X395429Y278347D01*
X395517Y278407D01*
X395607Y278464D01*
X395699Y278518D01*
X395793Y278569D01*
X395889Y278616D01*
X395987Y278659D01*
X396086Y278699D01*
X396186Y278736D01*
X396287Y278768D01*
X396390Y278797D01*
X396494Y278822D01*
X396598Y278843D01*
X396704Y278861D01*
X396810Y278874D01*
X396916Y278884D01*
X397022Y278890D01*
X397129Y278892D01*
X394208Y275971D02*
X394210Y275850D01*
X394216Y275729D01*
X394226Y275609D01*
X394239Y275488D01*
X394257Y275369D01*
X394278Y275249D01*
X394303Y275131D01*
X394332Y275014D01*
X394365Y274897D01*
X394401Y274782D01*
X394442Y274668D01*
X394485Y274555D01*
X394533Y274443D01*
X394584Y274334D01*
X394639Y274226D01*
X394697Y274119D01*
X394758Y274015D01*
X394823Y273913D01*
X394891Y273813D01*
X394962Y273715D01*
X395036Y273619D01*
X395113Y273526D01*
X395194Y273436D01*
X395277Y273348D01*
X395363Y273263D01*
X395452Y273180D01*
X395543Y273101D01*
X395637Y273024D01*
X395733Y272951D01*
X395831Y272881D01*
X395932Y272814D01*
X396035Y272750D01*
X396140Y272690D01*
X396247Y272632D01*
X396355Y272579D01*
X396465Y272529D01*
X396577Y272483D01*
X396690Y272440D01*
X396805Y272401D01*
X399401Y277918D02*
X399323Y277997D01*
X399243Y278073D01*
X399160Y278146D01*
X399074Y278216D01*
X398987Y278283D01*
X398896Y278347D01*
X398804Y278407D01*
X398710Y278465D01*
X398613Y278519D01*
X398515Y278569D01*
X398415Y278616D01*
X398314Y278660D01*
X398211Y278700D01*
X398106Y278736D01*
X398001Y278768D01*
X397894Y278797D01*
X397787Y278822D01*
X397678Y278844D01*
X397569Y278861D01*
X397460Y278875D01*
X397350Y278884D01*
X397239Y278890D01*
X397129Y278892D01*
X399401Y277918D02*
X405892Y272401D01*
X405892Y278892D01*
X735339Y432308D02*
X737936Y432308D01*
X735339Y432308D02*
X735240Y432310D01*
X735140Y432316D01*
X735041Y432325D01*
X734943Y432338D01*
X734845Y432355D01*
X734747Y432376D01*
X734651Y432401D01*
X734556Y432429D01*
X734462Y432461D01*
X734369Y432496D01*
X734277Y432535D01*
X734187Y432578D01*
X734099Y432623D01*
X734012Y432673D01*
X733928Y432725D01*
X733845Y432781D01*
X733765Y432839D01*
X733687Y432901D01*
X733612Y432966D01*
X733539Y433034D01*
X733469Y433104D01*
X733401Y433177D01*
X733336Y433252D01*
X733274Y433330D01*
X733216Y433410D01*
X733160Y433493D01*
X733108Y433577D01*
X733058Y433664D01*
X733013Y433752D01*
X732970Y433842D01*
X732931Y433934D01*
X732896Y434027D01*
X732864Y434121D01*
X732836Y434216D01*
X732811Y434312D01*
X732790Y434410D01*
X732773Y434508D01*
X732760Y434606D01*
X732751Y434705D01*
X732745Y434805D01*
X732743Y434904D01*
X732743Y441396D01*
X732745Y441495D01*
X732751Y441595D01*
X732760Y441694D01*
X732773Y441792D01*
X732790Y441890D01*
X732811Y441988D01*
X732836Y442084D01*
X732864Y442179D01*
X732896Y442273D01*
X732931Y442366D01*
X732970Y442458D01*
X733013Y442548D01*
X733058Y442636D01*
X733108Y442723D01*
X733160Y442807D01*
X733216Y442890D01*
X733274Y442970D01*
X733336Y443048D01*
X733401Y443123D01*
X733469Y443196D01*
X733539Y443266D01*
X733612Y443334D01*
X733687Y443399D01*
X733765Y443461D01*
X733845Y443519D01*
X733928Y443575D01*
X734012Y443627D01*
X734099Y443677D01*
X734187Y443722D01*
X734277Y443765D01*
X734369Y443804D01*
X734461Y443839D01*
X734556Y443871D01*
X734651Y443899D01*
X734747Y443924D01*
X734845Y443945D01*
X734943Y443962D01*
X735041Y443975D01*
X735140Y443984D01*
X735240Y443990D01*
X735339Y443992D01*
X737936Y443992D01*
X742301Y432308D02*
X745546Y432308D01*
X745659Y432310D01*
X745772Y432316D01*
X745885Y432326D01*
X745998Y432340D01*
X746110Y432357D01*
X746221Y432379D01*
X746331Y432404D01*
X746441Y432434D01*
X746549Y432467D01*
X746656Y432504D01*
X746762Y432544D01*
X746866Y432589D01*
X746969Y432637D01*
X747070Y432688D01*
X747169Y432743D01*
X747266Y432801D01*
X747361Y432863D01*
X747454Y432928D01*
X747544Y432996D01*
X747632Y433067D01*
X747718Y433142D01*
X747801Y433219D01*
X747881Y433299D01*
X747958Y433382D01*
X748033Y433468D01*
X748104Y433556D01*
X748172Y433646D01*
X748237Y433739D01*
X748299Y433834D01*
X748357Y433931D01*
X748412Y434030D01*
X748463Y434131D01*
X748511Y434234D01*
X748556Y434338D01*
X748596Y434444D01*
X748633Y434551D01*
X748666Y434659D01*
X748696Y434769D01*
X748721Y434879D01*
X748743Y434990D01*
X748760Y435102D01*
X748774Y435215D01*
X748784Y435328D01*
X748790Y435441D01*
X748792Y435554D01*
X748790Y435667D01*
X748784Y435780D01*
X748774Y435893D01*
X748760Y436006D01*
X748743Y436118D01*
X748721Y436229D01*
X748696Y436339D01*
X748666Y436449D01*
X748633Y436557D01*
X748596Y436664D01*
X748556Y436770D01*
X748511Y436874D01*
X748463Y436977D01*
X748412Y437078D01*
X748357Y437177D01*
X748299Y437274D01*
X748237Y437369D01*
X748172Y437462D01*
X748104Y437552D01*
X748033Y437640D01*
X747958Y437726D01*
X747881Y437809D01*
X747801Y437889D01*
X747718Y437966D01*
X747632Y438041D01*
X747544Y438112D01*
X747454Y438180D01*
X747361Y438245D01*
X747266Y438307D01*
X747169Y438365D01*
X747070Y438420D01*
X746969Y438471D01*
X746866Y438519D01*
X746762Y438564D01*
X746656Y438604D01*
X746549Y438641D01*
X746441Y438674D01*
X746331Y438704D01*
X746221Y438729D01*
X746110Y438751D01*
X745998Y438768D01*
X745885Y438782D01*
X745772Y438792D01*
X745659Y438798D01*
X745546Y438800D01*
X746196Y443992D02*
X742301Y443992D01*
X746196Y443992D02*
X746297Y443990D01*
X746397Y443984D01*
X746497Y443974D01*
X746597Y443961D01*
X746696Y443943D01*
X746795Y443922D01*
X746892Y443897D01*
X746989Y443868D01*
X747084Y443835D01*
X747178Y443799D01*
X747270Y443759D01*
X747361Y443716D01*
X747450Y443669D01*
X747537Y443619D01*
X747623Y443565D01*
X747706Y443508D01*
X747786Y443448D01*
X747865Y443385D01*
X747941Y443318D01*
X748014Y443249D01*
X748084Y443177D01*
X748152Y443103D01*
X748217Y443026D01*
X748278Y442946D01*
X748337Y442864D01*
X748392Y442780D01*
X748444Y442694D01*
X748493Y442606D01*
X748538Y442516D01*
X748580Y442424D01*
X748618Y442331D01*
X748652Y442236D01*
X748683Y442141D01*
X748710Y442044D01*
X748733Y441946D01*
X748753Y441847D01*
X748768Y441747D01*
X748780Y441647D01*
X748788Y441547D01*
X748792Y441446D01*
X748792Y441346D01*
X748788Y441245D01*
X748780Y441145D01*
X748768Y441045D01*
X748753Y440945D01*
X748733Y440846D01*
X748710Y440748D01*
X748683Y440651D01*
X748652Y440556D01*
X748618Y440461D01*
X748580Y440368D01*
X748538Y440276D01*
X748493Y440186D01*
X748444Y440098D01*
X748392Y440012D01*
X748337Y439928D01*
X748278Y439846D01*
X748217Y439766D01*
X748152Y439689D01*
X748084Y439615D01*
X748014Y439543D01*
X747941Y439474D01*
X747865Y439407D01*
X747786Y439344D01*
X747706Y439284D01*
X747623Y439227D01*
X747537Y439173D01*
X747450Y439123D01*
X747361Y439076D01*
X747270Y439033D01*
X747178Y438993D01*
X747084Y438957D01*
X746989Y438924D01*
X746892Y438895D01*
X746795Y438870D01*
X746696Y438849D01*
X746597Y438831D01*
X746497Y438818D01*
X746397Y438808D01*
X746297Y438802D01*
X746196Y438800D01*
X746196Y438799D02*
X743599Y438799D01*
X737936Y483108D02*
X735339Y483108D01*
X735240Y483110D01*
X735140Y483116D01*
X735041Y483125D01*
X734943Y483138D01*
X734845Y483155D01*
X734747Y483176D01*
X734651Y483201D01*
X734556Y483229D01*
X734462Y483261D01*
X734369Y483296D01*
X734277Y483335D01*
X734187Y483378D01*
X734099Y483423D01*
X734012Y483473D01*
X733928Y483525D01*
X733845Y483581D01*
X733765Y483639D01*
X733687Y483701D01*
X733612Y483766D01*
X733539Y483834D01*
X733469Y483904D01*
X733401Y483977D01*
X733336Y484052D01*
X733274Y484130D01*
X733216Y484210D01*
X733160Y484293D01*
X733108Y484377D01*
X733058Y484464D01*
X733013Y484552D01*
X732970Y484642D01*
X732931Y484734D01*
X732896Y484827D01*
X732864Y484921D01*
X732836Y485016D01*
X732811Y485112D01*
X732790Y485210D01*
X732773Y485308D01*
X732760Y485406D01*
X732751Y485505D01*
X732745Y485605D01*
X732743Y485704D01*
X732743Y492196D01*
X732745Y492295D01*
X732751Y492395D01*
X732760Y492494D01*
X732773Y492592D01*
X732790Y492690D01*
X732811Y492788D01*
X732836Y492884D01*
X732864Y492979D01*
X732896Y493073D01*
X732931Y493166D01*
X732970Y493258D01*
X733013Y493348D01*
X733058Y493436D01*
X733108Y493523D01*
X733160Y493607D01*
X733216Y493690D01*
X733274Y493770D01*
X733336Y493848D01*
X733401Y493923D01*
X733469Y493996D01*
X733539Y494066D01*
X733612Y494134D01*
X733687Y494199D01*
X733765Y494261D01*
X733845Y494319D01*
X733928Y494375D01*
X734012Y494427D01*
X734099Y494477D01*
X734187Y494522D01*
X734277Y494565D01*
X734369Y494604D01*
X734461Y494639D01*
X734556Y494671D01*
X734651Y494699D01*
X734747Y494724D01*
X734845Y494745D01*
X734943Y494762D01*
X735041Y494775D01*
X735140Y494784D01*
X735240Y494790D01*
X735339Y494792D01*
X737936Y494792D01*
X744897Y494792D02*
X742301Y485704D01*
X748792Y485704D01*
X746845Y488301D02*
X746845Y483108D01*
X393192Y424801D02*
X393192Y422204D01*
X393190Y422105D01*
X393184Y422005D01*
X393175Y421906D01*
X393162Y421808D01*
X393145Y421710D01*
X393124Y421612D01*
X393099Y421516D01*
X393071Y421421D01*
X393039Y421327D01*
X393004Y421234D01*
X392965Y421142D01*
X392922Y421052D01*
X392877Y420964D01*
X392827Y420877D01*
X392775Y420793D01*
X392719Y420710D01*
X392661Y420630D01*
X392599Y420552D01*
X392534Y420477D01*
X392466Y420404D01*
X392396Y420334D01*
X392323Y420266D01*
X392248Y420201D01*
X392170Y420139D01*
X392090Y420081D01*
X392007Y420025D01*
X391923Y419973D01*
X391836Y419923D01*
X391748Y419878D01*
X391658Y419835D01*
X391566Y419796D01*
X391473Y419761D01*
X391379Y419729D01*
X391284Y419701D01*
X391188Y419676D01*
X391090Y419655D01*
X390992Y419638D01*
X390894Y419625D01*
X390795Y419616D01*
X390695Y419610D01*
X390596Y419608D01*
X384104Y419608D01*
X384005Y419610D01*
X383905Y419616D01*
X383806Y419625D01*
X383708Y419638D01*
X383610Y419656D01*
X383512Y419676D01*
X383416Y419701D01*
X383320Y419729D01*
X383226Y419761D01*
X383133Y419796D01*
X383042Y419835D01*
X382952Y419878D01*
X382863Y419923D01*
X382777Y419973D01*
X382692Y420025D01*
X382610Y420081D01*
X382530Y420140D01*
X382452Y420201D01*
X382376Y420266D01*
X382303Y420334D01*
X382233Y420404D01*
X382165Y420477D01*
X382100Y420553D01*
X382039Y420631D01*
X381980Y420711D01*
X381924Y420793D01*
X381872Y420878D01*
X381823Y420964D01*
X381777Y421053D01*
X381734Y421143D01*
X381695Y421234D01*
X381660Y421327D01*
X381628Y421421D01*
X381600Y421517D01*
X381575Y421613D01*
X381555Y421711D01*
X381537Y421809D01*
X381524Y421907D01*
X381515Y422006D01*
X381509Y422105D01*
X381507Y422205D01*
X381508Y422204D02*
X381508Y424801D01*
X393192Y429166D02*
X393192Y433061D01*
X393190Y433160D01*
X393184Y433260D01*
X393175Y433359D01*
X393162Y433457D01*
X393145Y433555D01*
X393124Y433653D01*
X393099Y433749D01*
X393071Y433844D01*
X393039Y433938D01*
X393004Y434031D01*
X392965Y434123D01*
X392922Y434213D01*
X392877Y434301D01*
X392827Y434388D01*
X392775Y434472D01*
X392719Y434555D01*
X392661Y434635D01*
X392599Y434713D01*
X392534Y434788D01*
X392466Y434861D01*
X392396Y434931D01*
X392323Y434999D01*
X392248Y435064D01*
X392170Y435126D01*
X392090Y435184D01*
X392007Y435240D01*
X391923Y435292D01*
X391836Y435342D01*
X391748Y435387D01*
X391658Y435430D01*
X391566Y435469D01*
X391473Y435504D01*
X391379Y435536D01*
X391284Y435564D01*
X391188Y435589D01*
X391090Y435610D01*
X390992Y435627D01*
X390894Y435640D01*
X390795Y435649D01*
X390695Y435655D01*
X390596Y435657D01*
X389297Y435657D01*
X389198Y435655D01*
X389098Y435649D01*
X388999Y435640D01*
X388901Y435627D01*
X388803Y435610D01*
X388705Y435589D01*
X388609Y435564D01*
X388514Y435536D01*
X388420Y435504D01*
X388327Y435469D01*
X388235Y435430D01*
X388145Y435387D01*
X388057Y435342D01*
X387970Y435292D01*
X387886Y435240D01*
X387803Y435184D01*
X387723Y435126D01*
X387645Y435064D01*
X387570Y434999D01*
X387497Y434931D01*
X387427Y434861D01*
X387359Y434788D01*
X387294Y434713D01*
X387232Y434635D01*
X387174Y434555D01*
X387118Y434472D01*
X387066Y434388D01*
X387016Y434301D01*
X386971Y434213D01*
X386928Y434123D01*
X386889Y434031D01*
X386854Y433938D01*
X386822Y433844D01*
X386794Y433749D01*
X386769Y433653D01*
X386748Y433555D01*
X386731Y433457D01*
X386718Y433359D01*
X386709Y433260D01*
X386703Y433160D01*
X386701Y433061D01*
X386701Y429166D01*
X381508Y429166D01*
X381508Y435657D01*
X485704Y432308D02*
X488301Y432308D01*
X485704Y432308D02*
X485605Y432310D01*
X485505Y432316D01*
X485406Y432325D01*
X485308Y432338D01*
X485210Y432355D01*
X485112Y432376D01*
X485016Y432401D01*
X484921Y432429D01*
X484827Y432461D01*
X484734Y432496D01*
X484642Y432535D01*
X484552Y432578D01*
X484464Y432623D01*
X484377Y432673D01*
X484293Y432725D01*
X484210Y432781D01*
X484130Y432839D01*
X484052Y432901D01*
X483977Y432966D01*
X483904Y433034D01*
X483834Y433104D01*
X483766Y433177D01*
X483701Y433252D01*
X483639Y433330D01*
X483581Y433410D01*
X483525Y433493D01*
X483473Y433577D01*
X483423Y433664D01*
X483378Y433752D01*
X483335Y433842D01*
X483296Y433934D01*
X483261Y434027D01*
X483229Y434121D01*
X483201Y434216D01*
X483176Y434312D01*
X483155Y434410D01*
X483138Y434508D01*
X483125Y434606D01*
X483116Y434705D01*
X483110Y434805D01*
X483108Y434904D01*
X483108Y441396D01*
X483110Y441495D01*
X483116Y441595D01*
X483125Y441694D01*
X483138Y441792D01*
X483155Y441890D01*
X483176Y441988D01*
X483201Y442084D01*
X483229Y442179D01*
X483261Y442273D01*
X483296Y442366D01*
X483335Y442458D01*
X483378Y442548D01*
X483423Y442636D01*
X483473Y442723D01*
X483525Y442807D01*
X483581Y442890D01*
X483639Y442970D01*
X483701Y443048D01*
X483766Y443123D01*
X483834Y443196D01*
X483904Y443266D01*
X483977Y443334D01*
X484052Y443399D01*
X484130Y443461D01*
X484210Y443519D01*
X484293Y443575D01*
X484377Y443627D01*
X484464Y443677D01*
X484552Y443722D01*
X484642Y443765D01*
X484734Y443804D01*
X484826Y443839D01*
X484921Y443871D01*
X485016Y443899D01*
X485112Y443924D01*
X485210Y443945D01*
X485308Y443962D01*
X485406Y443975D01*
X485505Y443984D01*
X485605Y443990D01*
X485704Y443992D01*
X488301Y443992D01*
X492666Y438799D02*
X496561Y438799D01*
X496660Y438797D01*
X496760Y438791D01*
X496859Y438782D01*
X496957Y438769D01*
X497055Y438752D01*
X497153Y438731D01*
X497249Y438706D01*
X497344Y438678D01*
X497438Y438646D01*
X497531Y438611D01*
X497623Y438572D01*
X497713Y438529D01*
X497801Y438484D01*
X497888Y438434D01*
X497972Y438382D01*
X498055Y438326D01*
X498135Y438268D01*
X498213Y438206D01*
X498288Y438141D01*
X498361Y438073D01*
X498431Y438003D01*
X498499Y437930D01*
X498564Y437855D01*
X498626Y437777D01*
X498684Y437697D01*
X498740Y437614D01*
X498792Y437530D01*
X498842Y437443D01*
X498887Y437355D01*
X498930Y437265D01*
X498969Y437173D01*
X499004Y437080D01*
X499036Y436986D01*
X499064Y436891D01*
X499089Y436795D01*
X499110Y436697D01*
X499127Y436599D01*
X499140Y436501D01*
X499149Y436402D01*
X499155Y436302D01*
X499157Y436203D01*
X499157Y435554D01*
X499158Y435554D02*
X499156Y435441D01*
X499150Y435328D01*
X499140Y435215D01*
X499126Y435102D01*
X499109Y434990D01*
X499087Y434879D01*
X499062Y434769D01*
X499032Y434659D01*
X498999Y434551D01*
X498962Y434444D01*
X498922Y434338D01*
X498877Y434234D01*
X498829Y434131D01*
X498778Y434030D01*
X498723Y433931D01*
X498665Y433834D01*
X498603Y433739D01*
X498538Y433646D01*
X498470Y433556D01*
X498399Y433468D01*
X498324Y433382D01*
X498247Y433299D01*
X498167Y433219D01*
X498084Y433142D01*
X497998Y433067D01*
X497910Y432996D01*
X497820Y432928D01*
X497727Y432863D01*
X497632Y432801D01*
X497535Y432743D01*
X497436Y432688D01*
X497335Y432637D01*
X497232Y432589D01*
X497128Y432544D01*
X497022Y432504D01*
X496915Y432467D01*
X496807Y432434D01*
X496697Y432404D01*
X496587Y432379D01*
X496476Y432357D01*
X496364Y432340D01*
X496251Y432326D01*
X496138Y432316D01*
X496025Y432310D01*
X495912Y432308D01*
X495799Y432310D01*
X495686Y432316D01*
X495573Y432326D01*
X495460Y432340D01*
X495348Y432357D01*
X495237Y432379D01*
X495127Y432404D01*
X495017Y432434D01*
X494909Y432467D01*
X494802Y432504D01*
X494696Y432544D01*
X494592Y432589D01*
X494489Y432637D01*
X494388Y432688D01*
X494289Y432743D01*
X494192Y432801D01*
X494097Y432863D01*
X494004Y432928D01*
X493914Y432996D01*
X493826Y433067D01*
X493740Y433142D01*
X493657Y433219D01*
X493577Y433299D01*
X493500Y433382D01*
X493425Y433468D01*
X493354Y433556D01*
X493286Y433646D01*
X493221Y433739D01*
X493159Y433834D01*
X493101Y433931D01*
X493046Y434030D01*
X492995Y434131D01*
X492947Y434234D01*
X492902Y434338D01*
X492862Y434444D01*
X492825Y434551D01*
X492792Y434659D01*
X492762Y434769D01*
X492737Y434879D01*
X492715Y434990D01*
X492698Y435102D01*
X492684Y435215D01*
X492674Y435328D01*
X492668Y435441D01*
X492666Y435554D01*
X492666Y438799D01*
X492668Y438942D01*
X492674Y439085D01*
X492684Y439228D01*
X492698Y439370D01*
X492715Y439512D01*
X492737Y439654D01*
X492762Y439795D01*
X492792Y439935D01*
X492825Y440074D01*
X492862Y440212D01*
X492903Y440349D01*
X492947Y440485D01*
X492996Y440620D01*
X493048Y440753D01*
X493103Y440885D01*
X493163Y441015D01*
X493226Y441144D01*
X493292Y441271D01*
X493362Y441395D01*
X493435Y441518D01*
X493512Y441639D01*
X493592Y441758D01*
X493675Y441874D01*
X493761Y441989D01*
X493850Y442100D01*
X493943Y442210D01*
X494038Y442316D01*
X494137Y442420D01*
X494238Y442521D01*
X494342Y442620D01*
X494448Y442715D01*
X494558Y442808D01*
X494669Y442897D01*
X494784Y442983D01*
X494900Y443066D01*
X495019Y443146D01*
X495140Y443223D01*
X495262Y443296D01*
X495387Y443366D01*
X495514Y443432D01*
X495643Y443495D01*
X495773Y443555D01*
X495905Y443610D01*
X496038Y443662D01*
X496173Y443711D01*
X496309Y443755D01*
X496446Y443796D01*
X496584Y443833D01*
X496723Y443866D01*
X496863Y443896D01*
X497004Y443921D01*
X497146Y443943D01*
X497288Y443960D01*
X497430Y443974D01*
X497573Y443984D01*
X497716Y443990D01*
X497859Y443992D01*
X437501Y445008D02*
X434904Y445008D01*
X434805Y445010D01*
X434705Y445016D01*
X434606Y445025D01*
X434508Y445038D01*
X434410Y445055D01*
X434312Y445076D01*
X434216Y445101D01*
X434121Y445129D01*
X434027Y445161D01*
X433934Y445196D01*
X433842Y445235D01*
X433752Y445278D01*
X433664Y445323D01*
X433577Y445373D01*
X433493Y445425D01*
X433410Y445481D01*
X433330Y445539D01*
X433252Y445601D01*
X433177Y445666D01*
X433104Y445734D01*
X433034Y445804D01*
X432966Y445877D01*
X432901Y445952D01*
X432839Y446030D01*
X432781Y446110D01*
X432725Y446193D01*
X432673Y446277D01*
X432623Y446364D01*
X432578Y446452D01*
X432535Y446542D01*
X432496Y446634D01*
X432461Y446727D01*
X432429Y446821D01*
X432401Y446916D01*
X432376Y447012D01*
X432355Y447110D01*
X432338Y447208D01*
X432325Y447306D01*
X432316Y447405D01*
X432310Y447505D01*
X432308Y447604D01*
X432308Y454096D01*
X432310Y454195D01*
X432316Y454295D01*
X432325Y454394D01*
X432338Y454492D01*
X432355Y454590D01*
X432376Y454688D01*
X432401Y454784D01*
X432429Y454879D01*
X432461Y454973D01*
X432496Y455066D01*
X432535Y455158D01*
X432578Y455248D01*
X432623Y455336D01*
X432673Y455423D01*
X432725Y455507D01*
X432781Y455590D01*
X432839Y455670D01*
X432901Y455748D01*
X432966Y455823D01*
X433034Y455896D01*
X433104Y455966D01*
X433177Y456034D01*
X433252Y456099D01*
X433330Y456161D01*
X433410Y456219D01*
X433493Y456275D01*
X433577Y456327D01*
X433664Y456377D01*
X433752Y456422D01*
X433842Y456465D01*
X433934Y456504D01*
X434026Y456539D01*
X434121Y456571D01*
X434216Y456599D01*
X434312Y456624D01*
X434410Y456645D01*
X434508Y456662D01*
X434606Y456675D01*
X434705Y456684D01*
X434805Y456690D01*
X434904Y456692D01*
X437501Y456692D01*
X441866Y456692D02*
X441866Y455394D01*
X441866Y456692D02*
X448357Y456692D01*
X445112Y445008D01*
D11*
X747776Y550696D02*
X747776Y566904D01*
X776224Y566904D02*
X776224Y550696D01*
X767224Y550696D02*
X756776Y550696D01*
X766276Y566904D02*
X767224Y566904D01*
X757724Y566904D02*
X756776Y566904D01*
X775276Y566904D02*
X776224Y566904D01*
X748724Y566904D02*
X747776Y566904D01*
X747776Y550696D02*
X748724Y550696D01*
X775276Y550696D02*
X776224Y550696D01*
D10*
X758627Y539242D02*
X758627Y527558D01*
X757329Y527558D02*
X759926Y527558D01*
X759926Y539242D02*
X757329Y539242D01*
X767089Y527558D02*
X769686Y527558D01*
X767089Y527558D02*
X766990Y527560D01*
X766890Y527566D01*
X766791Y527575D01*
X766693Y527588D01*
X766595Y527605D01*
X766497Y527626D01*
X766401Y527651D01*
X766306Y527679D01*
X766212Y527711D01*
X766119Y527746D01*
X766027Y527785D01*
X765937Y527828D01*
X765849Y527873D01*
X765762Y527923D01*
X765678Y527975D01*
X765595Y528031D01*
X765515Y528089D01*
X765437Y528151D01*
X765362Y528216D01*
X765289Y528284D01*
X765219Y528354D01*
X765151Y528427D01*
X765086Y528502D01*
X765024Y528580D01*
X764966Y528660D01*
X764910Y528743D01*
X764858Y528827D01*
X764808Y528914D01*
X764763Y529002D01*
X764720Y529092D01*
X764681Y529184D01*
X764646Y529277D01*
X764614Y529371D01*
X764586Y529466D01*
X764561Y529562D01*
X764540Y529660D01*
X764523Y529758D01*
X764510Y529856D01*
X764501Y529955D01*
X764495Y530055D01*
X764493Y530154D01*
X764493Y536646D01*
X764495Y536745D01*
X764501Y536845D01*
X764510Y536944D01*
X764523Y537042D01*
X764540Y537140D01*
X764561Y537238D01*
X764586Y537334D01*
X764614Y537429D01*
X764646Y537523D01*
X764681Y537616D01*
X764720Y537708D01*
X764763Y537798D01*
X764808Y537886D01*
X764858Y537973D01*
X764910Y538057D01*
X764966Y538140D01*
X765024Y538220D01*
X765086Y538298D01*
X765151Y538373D01*
X765219Y538446D01*
X765289Y538516D01*
X765362Y538584D01*
X765437Y538649D01*
X765515Y538711D01*
X765595Y538769D01*
X765678Y538825D01*
X765762Y538877D01*
X765849Y538927D01*
X765937Y538972D01*
X766027Y539015D01*
X766119Y539054D01*
X766211Y539089D01*
X766306Y539121D01*
X766401Y539149D01*
X766497Y539174D01*
X766595Y539195D01*
X766693Y539212D01*
X766791Y539225D01*
X766890Y539234D01*
X766990Y539240D01*
X767089Y539242D01*
X769686Y539242D01*
X774051Y536646D02*
X777296Y539242D01*
X777296Y527558D01*
X774051Y527558D02*
X780542Y527558D01*
D11*
X406400Y501650D02*
X400050Y495300D01*
X406400Y514350D02*
X400050Y520700D01*
X406400Y527050D01*
X406400Y539750D02*
X400050Y546100D01*
X406400Y552450D01*
X406400Y565150D02*
X400050Y571500D01*
X406400Y577850D01*
X406400Y590550D02*
X400050Y596900D01*
X400050Y495300D02*
X361950Y495300D01*
X355600Y501650D01*
X355600Y514350D01*
X361950Y520700D01*
X355600Y527050D01*
X355600Y539750D01*
X361950Y546100D01*
X355600Y552450D01*
X355600Y565150D01*
X361950Y571500D01*
X355600Y577850D01*
X355600Y590550D01*
X361950Y596900D01*
X361950Y520700D02*
X400050Y520700D01*
X400050Y546100D02*
X361950Y546100D01*
X361950Y571500D02*
X400050Y571500D01*
X400050Y596900D02*
X361950Y596900D01*
X406400Y590550D02*
X406400Y577850D01*
X406400Y565150D02*
X406400Y552450D01*
X406400Y539750D02*
X406400Y527050D01*
X406400Y514350D02*
X406400Y501650D01*
X400050Y596900D02*
X406400Y603250D01*
X406400Y615950D02*
X400050Y622300D01*
X361950Y596900D02*
X355600Y603250D01*
X355600Y615950D01*
X361950Y622300D01*
X400050Y622300D01*
X406400Y615950D02*
X406400Y603250D01*
D12*
X346075Y499745D02*
X337185Y499745D01*
X346075Y499745D02*
X346175Y499743D01*
X346274Y499737D01*
X346374Y499727D01*
X346472Y499714D01*
X346571Y499696D01*
X346668Y499675D01*
X346764Y499650D01*
X346860Y499621D01*
X346954Y499588D01*
X347047Y499552D01*
X347138Y499512D01*
X347228Y499468D01*
X347316Y499421D01*
X347402Y499371D01*
X347486Y499317D01*
X347568Y499260D01*
X347647Y499200D01*
X347725Y499136D01*
X347799Y499070D01*
X347871Y499001D01*
X347940Y498929D01*
X348006Y498855D01*
X348070Y498777D01*
X348130Y498698D01*
X348187Y498616D01*
X348241Y498532D01*
X348291Y498446D01*
X348338Y498358D01*
X348382Y498268D01*
X348422Y498177D01*
X348458Y498084D01*
X348491Y497990D01*
X348520Y497894D01*
X348545Y497798D01*
X348566Y497701D01*
X348584Y497602D01*
X348597Y497504D01*
X348607Y497404D01*
X348613Y497305D01*
X348615Y497205D01*
X348615Y495935D01*
X348615Y505725D02*
X337185Y505725D01*
X337185Y508900D01*
X337187Y509011D01*
X337193Y509121D01*
X337202Y509232D01*
X337216Y509342D01*
X337233Y509451D01*
X337254Y509560D01*
X337279Y509668D01*
X337308Y509775D01*
X337340Y509881D01*
X337376Y509986D01*
X337416Y510089D01*
X337459Y510191D01*
X337506Y510292D01*
X337557Y510391D01*
X337610Y510488D01*
X337667Y510582D01*
X337728Y510675D01*
X337791Y510766D01*
X337858Y510855D01*
X337928Y510941D01*
X338001Y511024D01*
X338076Y511106D01*
X338154Y511184D01*
X338236Y511259D01*
X338319Y511332D01*
X338405Y511402D01*
X338494Y511469D01*
X338585Y511532D01*
X338678Y511593D01*
X338773Y511650D01*
X338869Y511703D01*
X338968Y511754D01*
X339069Y511801D01*
X339171Y511844D01*
X339274Y511884D01*
X339379Y511920D01*
X339485Y511952D01*
X339592Y511981D01*
X339700Y512006D01*
X339809Y512027D01*
X339918Y512044D01*
X340028Y512058D01*
X340139Y512067D01*
X340249Y512073D01*
X340360Y512075D01*
X340471Y512073D01*
X340581Y512067D01*
X340692Y512058D01*
X340802Y512044D01*
X340911Y512027D01*
X341020Y512006D01*
X341128Y511981D01*
X341235Y511952D01*
X341341Y511920D01*
X341446Y511884D01*
X341549Y511844D01*
X341651Y511801D01*
X341752Y511754D01*
X341851Y511703D01*
X341948Y511650D01*
X342042Y511593D01*
X342135Y511532D01*
X342226Y511469D01*
X342315Y511402D01*
X342401Y511332D01*
X342484Y511259D01*
X342566Y511184D01*
X342644Y511106D01*
X342719Y511024D01*
X342792Y510941D01*
X342862Y510855D01*
X342929Y510766D01*
X342992Y510675D01*
X343053Y510582D01*
X343110Y510488D01*
X343163Y510391D01*
X343214Y510292D01*
X343261Y510191D01*
X343304Y510089D01*
X343344Y509986D01*
X343380Y509881D01*
X343412Y509775D01*
X343441Y509668D01*
X343466Y509560D01*
X343487Y509451D01*
X343504Y509342D01*
X343518Y509232D01*
X343527Y509121D01*
X343533Y509011D01*
X343535Y508900D01*
X343535Y505725D01*
X339725Y516584D02*
X337185Y519759D01*
X348615Y519759D01*
X348615Y516584D02*
X348615Y522934D01*
D11*
X768350Y622300D02*
X781050Y622300D01*
X768350Y622300D02*
X762000Y628650D01*
X762000Y641350D01*
X768350Y647700D01*
X787400Y641350D02*
X787400Y628650D01*
X781050Y622300D01*
X787400Y641350D02*
X781050Y647700D01*
X768350Y647700D01*
X762000Y628650D02*
X755650Y622300D01*
X742950Y622300D01*
X736600Y628650D01*
X736600Y641350D01*
X742950Y647700D01*
X755650Y647700D01*
X762000Y641350D01*
D12*
X764338Y616077D02*
X764338Y607187D01*
X764336Y607087D01*
X764330Y606988D01*
X764320Y606888D01*
X764307Y606790D01*
X764289Y606691D01*
X764268Y606594D01*
X764243Y606498D01*
X764214Y606402D01*
X764181Y606308D01*
X764145Y606215D01*
X764105Y606124D01*
X764061Y606034D01*
X764014Y605946D01*
X763964Y605860D01*
X763910Y605776D01*
X763853Y605694D01*
X763793Y605615D01*
X763729Y605537D01*
X763663Y605463D01*
X763594Y605391D01*
X763522Y605322D01*
X763448Y605256D01*
X763370Y605192D01*
X763291Y605132D01*
X763209Y605075D01*
X763125Y605021D01*
X763039Y604971D01*
X762951Y604924D01*
X762861Y604880D01*
X762770Y604840D01*
X762677Y604804D01*
X762583Y604771D01*
X762487Y604742D01*
X762391Y604717D01*
X762294Y604696D01*
X762195Y604678D01*
X762097Y604665D01*
X761997Y604655D01*
X761898Y604649D01*
X761798Y604647D01*
X760528Y604647D01*
X770319Y604647D02*
X770319Y616077D01*
X773494Y616077D01*
X773605Y616075D01*
X773715Y616069D01*
X773826Y616060D01*
X773936Y616046D01*
X774045Y616029D01*
X774154Y616008D01*
X774262Y615983D01*
X774369Y615954D01*
X774475Y615922D01*
X774580Y615886D01*
X774683Y615846D01*
X774785Y615803D01*
X774886Y615756D01*
X774985Y615705D01*
X775082Y615652D01*
X775176Y615595D01*
X775269Y615534D01*
X775360Y615471D01*
X775449Y615404D01*
X775535Y615334D01*
X775618Y615261D01*
X775700Y615186D01*
X775778Y615108D01*
X775853Y615026D01*
X775926Y614943D01*
X775996Y614857D01*
X776063Y614768D01*
X776126Y614677D01*
X776187Y614584D01*
X776244Y614489D01*
X776297Y614393D01*
X776348Y614294D01*
X776395Y614193D01*
X776438Y614091D01*
X776478Y613988D01*
X776514Y613883D01*
X776546Y613777D01*
X776575Y613670D01*
X776600Y613562D01*
X776621Y613453D01*
X776638Y613344D01*
X776652Y613234D01*
X776661Y613123D01*
X776667Y613013D01*
X776669Y612902D01*
X776667Y612791D01*
X776661Y612681D01*
X776652Y612570D01*
X776638Y612460D01*
X776621Y612351D01*
X776600Y612242D01*
X776575Y612134D01*
X776546Y612027D01*
X776514Y611921D01*
X776478Y611816D01*
X776438Y611713D01*
X776395Y611611D01*
X776348Y611510D01*
X776297Y611411D01*
X776244Y611315D01*
X776187Y611220D01*
X776126Y611127D01*
X776063Y611036D01*
X775996Y610947D01*
X775926Y610861D01*
X775853Y610778D01*
X775778Y610696D01*
X775700Y610618D01*
X775618Y610543D01*
X775535Y610470D01*
X775449Y610400D01*
X775360Y610333D01*
X775269Y610270D01*
X775176Y610209D01*
X775082Y610152D01*
X774985Y610099D01*
X774886Y610048D01*
X774785Y610001D01*
X774683Y609958D01*
X774580Y609918D01*
X774475Y609882D01*
X774369Y609850D01*
X774262Y609821D01*
X774154Y609796D01*
X774045Y609775D01*
X773936Y609758D01*
X773826Y609744D01*
X773715Y609735D01*
X773605Y609729D01*
X773494Y609727D01*
X770319Y609727D01*
X784670Y616078D02*
X784774Y616076D01*
X784879Y616070D01*
X784983Y616061D01*
X785086Y616048D01*
X785189Y616030D01*
X785291Y616010D01*
X785393Y615985D01*
X785493Y615957D01*
X785593Y615925D01*
X785691Y615889D01*
X785788Y615850D01*
X785883Y615808D01*
X785977Y615762D01*
X786069Y615712D01*
X786159Y615660D01*
X786247Y615604D01*
X786333Y615544D01*
X786417Y615482D01*
X786498Y615417D01*
X786577Y615349D01*
X786654Y615277D01*
X786727Y615204D01*
X786799Y615127D01*
X786867Y615048D01*
X786932Y614967D01*
X786994Y614883D01*
X787054Y614797D01*
X787110Y614709D01*
X787162Y614619D01*
X787212Y614527D01*
X787258Y614433D01*
X787300Y614338D01*
X787339Y614241D01*
X787375Y614143D01*
X787407Y614043D01*
X787435Y613943D01*
X787460Y613841D01*
X787480Y613739D01*
X787498Y613636D01*
X787511Y613533D01*
X787520Y613429D01*
X787526Y613324D01*
X787528Y613220D01*
X784670Y616077D02*
X784552Y616075D01*
X784433Y616069D01*
X784315Y616060D01*
X784198Y616047D01*
X784081Y616029D01*
X783964Y616009D01*
X783848Y615984D01*
X783733Y615956D01*
X783620Y615923D01*
X783507Y615888D01*
X783395Y615848D01*
X783285Y615806D01*
X783176Y615759D01*
X783068Y615709D01*
X782963Y615656D01*
X782859Y615599D01*
X782757Y615539D01*
X782657Y615476D01*
X782559Y615409D01*
X782463Y615340D01*
X782370Y615267D01*
X782279Y615191D01*
X782190Y615113D01*
X782104Y615031D01*
X782021Y614947D01*
X781940Y614861D01*
X781863Y614771D01*
X781788Y614680D01*
X781716Y614586D01*
X781647Y614489D01*
X781582Y614391D01*
X781519Y614290D01*
X781460Y614187D01*
X781404Y614083D01*
X781352Y613977D01*
X781303Y613869D01*
X781258Y613760D01*
X781216Y613649D01*
X781178Y613537D01*
X786575Y610998D02*
X786651Y611073D01*
X786726Y611152D01*
X786797Y611233D01*
X786866Y611317D01*
X786931Y611403D01*
X786993Y611491D01*
X787053Y611581D01*
X787109Y611673D01*
X787162Y611768D01*
X787211Y611864D01*
X787257Y611962D01*
X787300Y612061D01*
X787339Y612162D01*
X787374Y612264D01*
X787406Y612367D01*
X787434Y612471D01*
X787459Y612576D01*
X787480Y612683D01*
X787497Y612789D01*
X787510Y612896D01*
X787519Y613004D01*
X787525Y613112D01*
X787527Y613220D01*
X786575Y610997D02*
X781177Y604647D01*
X787527Y604647D01*
D11*
X501650Y520700D02*
X488950Y520700D01*
X501650Y520700D02*
X508000Y514350D01*
X508000Y501650D01*
X501650Y495300D01*
X482600Y501650D02*
X482600Y514350D01*
X488950Y520700D01*
X482600Y501650D02*
X488950Y495300D01*
X501650Y495300D01*
X508000Y514350D02*
X514350Y520700D01*
X527050Y520700D01*
X533400Y514350D01*
X533400Y501650D01*
X527050Y495300D01*
X514350Y495300D01*
X508000Y501650D01*
D12*
X486283Y529463D02*
X486283Y538353D01*
X486283Y529463D02*
X486281Y529363D01*
X486275Y529264D01*
X486265Y529164D01*
X486252Y529066D01*
X486234Y528967D01*
X486213Y528870D01*
X486188Y528774D01*
X486159Y528678D01*
X486126Y528584D01*
X486090Y528491D01*
X486050Y528400D01*
X486006Y528310D01*
X485959Y528222D01*
X485909Y528136D01*
X485855Y528052D01*
X485798Y527970D01*
X485738Y527891D01*
X485674Y527813D01*
X485608Y527739D01*
X485539Y527667D01*
X485467Y527598D01*
X485393Y527532D01*
X485315Y527468D01*
X485236Y527408D01*
X485154Y527351D01*
X485070Y527297D01*
X484984Y527247D01*
X484896Y527200D01*
X484806Y527156D01*
X484715Y527116D01*
X484622Y527080D01*
X484528Y527047D01*
X484432Y527018D01*
X484336Y526993D01*
X484239Y526972D01*
X484140Y526954D01*
X484042Y526941D01*
X483942Y526931D01*
X483843Y526925D01*
X483743Y526923D01*
X482473Y526923D01*
X492263Y526923D02*
X492263Y538353D01*
X495438Y538353D01*
X495549Y538351D01*
X495659Y538345D01*
X495770Y538336D01*
X495880Y538322D01*
X495989Y538305D01*
X496098Y538284D01*
X496206Y538259D01*
X496313Y538230D01*
X496419Y538198D01*
X496524Y538162D01*
X496627Y538122D01*
X496729Y538079D01*
X496830Y538032D01*
X496929Y537981D01*
X497026Y537928D01*
X497120Y537871D01*
X497213Y537810D01*
X497304Y537747D01*
X497393Y537680D01*
X497479Y537610D01*
X497562Y537537D01*
X497644Y537462D01*
X497722Y537384D01*
X497797Y537302D01*
X497870Y537219D01*
X497940Y537133D01*
X498007Y537044D01*
X498070Y536953D01*
X498131Y536860D01*
X498188Y536765D01*
X498241Y536669D01*
X498292Y536570D01*
X498339Y536469D01*
X498382Y536367D01*
X498422Y536264D01*
X498458Y536159D01*
X498490Y536053D01*
X498519Y535946D01*
X498544Y535838D01*
X498565Y535729D01*
X498582Y535620D01*
X498596Y535510D01*
X498605Y535399D01*
X498611Y535289D01*
X498613Y535178D01*
X498611Y535067D01*
X498605Y534957D01*
X498596Y534846D01*
X498582Y534736D01*
X498565Y534627D01*
X498544Y534518D01*
X498519Y534410D01*
X498490Y534303D01*
X498458Y534197D01*
X498422Y534092D01*
X498382Y533989D01*
X498339Y533887D01*
X498292Y533786D01*
X498241Y533687D01*
X498188Y533591D01*
X498131Y533496D01*
X498070Y533403D01*
X498007Y533312D01*
X497940Y533223D01*
X497870Y533137D01*
X497797Y533054D01*
X497722Y532972D01*
X497644Y532894D01*
X497562Y532819D01*
X497479Y532746D01*
X497393Y532676D01*
X497304Y532609D01*
X497213Y532546D01*
X497120Y532485D01*
X497026Y532428D01*
X496929Y532375D01*
X496830Y532324D01*
X496729Y532277D01*
X496627Y532234D01*
X496524Y532194D01*
X496419Y532158D01*
X496313Y532126D01*
X496206Y532097D01*
X496098Y532072D01*
X495989Y532051D01*
X495880Y532034D01*
X495770Y532020D01*
X495659Y532011D01*
X495549Y532005D01*
X495438Y532003D01*
X492263Y532003D01*
X503122Y526923D02*
X506297Y526923D01*
X506408Y526925D01*
X506518Y526931D01*
X506629Y526940D01*
X506739Y526954D01*
X506848Y526971D01*
X506957Y526992D01*
X507065Y527017D01*
X507172Y527046D01*
X507278Y527078D01*
X507383Y527114D01*
X507486Y527154D01*
X507588Y527197D01*
X507689Y527244D01*
X507788Y527295D01*
X507885Y527348D01*
X507979Y527405D01*
X508072Y527466D01*
X508163Y527529D01*
X508252Y527596D01*
X508338Y527666D01*
X508421Y527739D01*
X508503Y527814D01*
X508581Y527892D01*
X508656Y527974D01*
X508729Y528057D01*
X508799Y528143D01*
X508866Y528232D01*
X508929Y528323D01*
X508990Y528416D01*
X509047Y528511D01*
X509100Y528607D01*
X509151Y528706D01*
X509198Y528807D01*
X509241Y528909D01*
X509281Y529012D01*
X509317Y529117D01*
X509349Y529223D01*
X509378Y529330D01*
X509403Y529438D01*
X509424Y529547D01*
X509441Y529656D01*
X509455Y529766D01*
X509464Y529877D01*
X509470Y529987D01*
X509472Y530098D01*
X509470Y530209D01*
X509464Y530319D01*
X509455Y530430D01*
X509441Y530540D01*
X509424Y530649D01*
X509403Y530758D01*
X509378Y530866D01*
X509349Y530973D01*
X509317Y531079D01*
X509281Y531184D01*
X509241Y531287D01*
X509198Y531389D01*
X509151Y531490D01*
X509100Y531589D01*
X509047Y531685D01*
X508990Y531780D01*
X508929Y531873D01*
X508866Y531964D01*
X508799Y532053D01*
X508729Y532139D01*
X508656Y532222D01*
X508581Y532304D01*
X508503Y532382D01*
X508421Y532457D01*
X508338Y532530D01*
X508252Y532600D01*
X508163Y532667D01*
X508072Y532730D01*
X507979Y532791D01*
X507885Y532848D01*
X507788Y532901D01*
X507689Y532952D01*
X507588Y532999D01*
X507486Y533042D01*
X507383Y533082D01*
X507278Y533118D01*
X507172Y533150D01*
X507065Y533179D01*
X506957Y533204D01*
X506848Y533225D01*
X506739Y533242D01*
X506629Y533256D01*
X506518Y533265D01*
X506408Y533271D01*
X506297Y533273D01*
X506932Y538353D02*
X503122Y538353D01*
X506932Y538353D02*
X507032Y538351D01*
X507131Y538345D01*
X507231Y538335D01*
X507329Y538322D01*
X507428Y538304D01*
X507525Y538283D01*
X507621Y538258D01*
X507717Y538229D01*
X507811Y538196D01*
X507904Y538160D01*
X507995Y538120D01*
X508085Y538076D01*
X508173Y538029D01*
X508259Y537979D01*
X508343Y537925D01*
X508425Y537868D01*
X508504Y537808D01*
X508582Y537744D01*
X508656Y537678D01*
X508728Y537609D01*
X508797Y537537D01*
X508863Y537463D01*
X508927Y537385D01*
X508987Y537306D01*
X509044Y537224D01*
X509098Y537140D01*
X509148Y537054D01*
X509195Y536966D01*
X509239Y536876D01*
X509279Y536785D01*
X509315Y536692D01*
X509348Y536598D01*
X509377Y536502D01*
X509402Y536406D01*
X509423Y536309D01*
X509441Y536210D01*
X509454Y536112D01*
X509464Y536012D01*
X509470Y535913D01*
X509472Y535813D01*
X509470Y535713D01*
X509464Y535614D01*
X509454Y535514D01*
X509441Y535416D01*
X509423Y535317D01*
X509402Y535220D01*
X509377Y535124D01*
X509348Y535028D01*
X509315Y534934D01*
X509279Y534841D01*
X509239Y534750D01*
X509195Y534660D01*
X509148Y534572D01*
X509098Y534486D01*
X509044Y534402D01*
X508987Y534320D01*
X508927Y534241D01*
X508863Y534163D01*
X508797Y534089D01*
X508728Y534017D01*
X508656Y533948D01*
X508582Y533882D01*
X508504Y533818D01*
X508425Y533758D01*
X508343Y533701D01*
X508259Y533647D01*
X508173Y533597D01*
X508085Y533550D01*
X507995Y533506D01*
X507904Y533466D01*
X507811Y533430D01*
X507717Y533397D01*
X507621Y533368D01*
X507525Y533343D01*
X507428Y533322D01*
X507329Y533304D01*
X507231Y533291D01*
X507131Y533281D01*
X507032Y533275D01*
X506932Y533273D01*
X504392Y533273D01*
D11*
X717550Y215900D02*
X723900Y209550D01*
X723900Y196850D01*
X717550Y190500D01*
X704850Y190500D01*
X698500Y196850D01*
X698500Y209550D01*
X704850Y215900D01*
X723900Y247650D02*
X723900Y260350D01*
X723900Y247650D02*
X717550Y241300D01*
X704850Y241300D01*
X698500Y247650D01*
X717550Y241300D02*
X723900Y234950D01*
X723900Y222250D01*
X717550Y215900D01*
X704850Y215900D01*
X698500Y222250D01*
X698500Y234950D01*
X704850Y241300D01*
X723900Y285750D02*
X717550Y292100D01*
X723900Y285750D02*
X723900Y273050D01*
X717550Y266700D01*
X704850Y266700D01*
X698500Y273050D01*
X698500Y285750D01*
X704850Y292100D01*
X717550Y266700D02*
X723900Y260350D01*
X704850Y266700D02*
X698500Y260350D01*
X698500Y247650D01*
X723900Y323850D02*
X723900Y336550D01*
X723900Y323850D02*
X717550Y317500D01*
X704850Y317500D01*
X698500Y323850D01*
X717550Y317500D02*
X723900Y311150D01*
X723900Y298450D01*
X717550Y292100D01*
X704850Y292100D01*
X698500Y298450D01*
X698500Y311150D01*
X704850Y317500D01*
X704850Y342900D02*
X717550Y342900D01*
X723900Y336550D01*
X704850Y342900D02*
X698500Y336550D01*
X698500Y323850D01*
X723900Y184150D02*
X723900Y171450D01*
X717550Y165100D01*
X704850Y165100D01*
X698500Y171450D01*
X717550Y190500D02*
X723900Y184150D01*
X704850Y190500D02*
X698500Y184150D01*
X698500Y171450D01*
D12*
X730123Y319838D02*
X739013Y319838D01*
X739113Y319836D01*
X739212Y319830D01*
X739312Y319820D01*
X739410Y319807D01*
X739509Y319789D01*
X739606Y319768D01*
X739702Y319743D01*
X739798Y319714D01*
X739892Y319681D01*
X739985Y319645D01*
X740076Y319605D01*
X740166Y319561D01*
X740254Y319514D01*
X740340Y319464D01*
X740424Y319410D01*
X740506Y319353D01*
X740585Y319293D01*
X740663Y319229D01*
X740737Y319163D01*
X740809Y319094D01*
X740878Y319022D01*
X740944Y318948D01*
X741008Y318870D01*
X741068Y318791D01*
X741125Y318709D01*
X741179Y318625D01*
X741229Y318539D01*
X741276Y318451D01*
X741320Y318361D01*
X741360Y318270D01*
X741396Y318177D01*
X741429Y318083D01*
X741458Y317987D01*
X741483Y317891D01*
X741504Y317794D01*
X741522Y317695D01*
X741535Y317597D01*
X741545Y317497D01*
X741551Y317398D01*
X741553Y317298D01*
X741553Y316028D01*
X741553Y325819D02*
X730123Y325819D01*
X730123Y328994D01*
X730125Y329105D01*
X730131Y329215D01*
X730140Y329326D01*
X730154Y329436D01*
X730171Y329545D01*
X730192Y329654D01*
X730217Y329762D01*
X730246Y329869D01*
X730278Y329975D01*
X730314Y330080D01*
X730354Y330183D01*
X730397Y330285D01*
X730444Y330386D01*
X730495Y330485D01*
X730548Y330582D01*
X730605Y330676D01*
X730666Y330769D01*
X730729Y330860D01*
X730796Y330949D01*
X730866Y331035D01*
X730939Y331118D01*
X731014Y331200D01*
X731092Y331278D01*
X731174Y331353D01*
X731257Y331426D01*
X731343Y331496D01*
X731432Y331563D01*
X731523Y331626D01*
X731616Y331687D01*
X731711Y331744D01*
X731807Y331797D01*
X731906Y331848D01*
X732007Y331895D01*
X732109Y331938D01*
X732212Y331978D01*
X732317Y332014D01*
X732423Y332046D01*
X732530Y332075D01*
X732638Y332100D01*
X732747Y332121D01*
X732856Y332138D01*
X732966Y332152D01*
X733077Y332161D01*
X733187Y332167D01*
X733298Y332169D01*
X733409Y332167D01*
X733519Y332161D01*
X733630Y332152D01*
X733740Y332138D01*
X733849Y332121D01*
X733958Y332100D01*
X734066Y332075D01*
X734173Y332046D01*
X734279Y332014D01*
X734384Y331978D01*
X734487Y331938D01*
X734589Y331895D01*
X734690Y331848D01*
X734789Y331797D01*
X734886Y331744D01*
X734980Y331687D01*
X735073Y331626D01*
X735164Y331563D01*
X735253Y331496D01*
X735339Y331426D01*
X735422Y331353D01*
X735504Y331278D01*
X735582Y331200D01*
X735657Y331118D01*
X735730Y331035D01*
X735800Y330949D01*
X735867Y330860D01*
X735930Y330769D01*
X735991Y330676D01*
X736048Y330582D01*
X736101Y330485D01*
X736152Y330386D01*
X736199Y330285D01*
X736242Y330183D01*
X736282Y330080D01*
X736318Y329975D01*
X736350Y329869D01*
X736379Y329762D01*
X736404Y329654D01*
X736425Y329545D01*
X736442Y329436D01*
X736456Y329326D01*
X736465Y329215D01*
X736471Y329105D01*
X736473Y328994D01*
X736473Y325819D01*
X739013Y336677D02*
X730123Y339217D01*
X739013Y336677D02*
X739013Y343027D01*
X736473Y341122D02*
X741553Y341122D01*
D11*
X628650Y215900D02*
X635000Y209550D01*
X635000Y196850D01*
X628650Y190500D01*
X615950Y190500D01*
X609600Y196850D01*
X609600Y209550D01*
X615950Y215900D01*
X635000Y247650D02*
X635000Y260350D01*
X635000Y247650D02*
X628650Y241300D01*
X615950Y241300D01*
X609600Y247650D01*
X628650Y241300D02*
X635000Y234950D01*
X635000Y222250D01*
X628650Y215900D01*
X615950Y215900D01*
X609600Y222250D01*
X609600Y234950D01*
X615950Y241300D01*
X615950Y266700D02*
X628650Y266700D01*
X635000Y260350D01*
X615950Y266700D02*
X609600Y260350D01*
X609600Y247650D01*
X635000Y184150D02*
X635000Y171450D01*
X628650Y165100D01*
X615950Y165100D01*
X609600Y171450D01*
X628650Y190500D02*
X635000Y184150D01*
X615950Y190500D02*
X609600Y184150D01*
X609600Y171450D01*
D12*
X641223Y243638D02*
X650113Y243638D01*
X650213Y243636D01*
X650312Y243630D01*
X650412Y243620D01*
X650510Y243607D01*
X650609Y243589D01*
X650706Y243568D01*
X650802Y243543D01*
X650898Y243514D01*
X650992Y243481D01*
X651085Y243445D01*
X651176Y243405D01*
X651266Y243361D01*
X651354Y243314D01*
X651440Y243264D01*
X651524Y243210D01*
X651606Y243153D01*
X651685Y243093D01*
X651763Y243029D01*
X651837Y242963D01*
X651909Y242894D01*
X651978Y242822D01*
X652044Y242748D01*
X652108Y242670D01*
X652168Y242591D01*
X652225Y242509D01*
X652279Y242425D01*
X652329Y242339D01*
X652376Y242251D01*
X652420Y242161D01*
X652460Y242070D01*
X652496Y241977D01*
X652529Y241883D01*
X652558Y241787D01*
X652583Y241691D01*
X652604Y241594D01*
X652622Y241495D01*
X652635Y241397D01*
X652645Y241297D01*
X652651Y241198D01*
X652653Y241098D01*
X652653Y239828D01*
X652653Y249619D02*
X641223Y249619D01*
X641223Y252794D01*
X641225Y252905D01*
X641231Y253015D01*
X641240Y253126D01*
X641254Y253236D01*
X641271Y253345D01*
X641292Y253454D01*
X641317Y253562D01*
X641346Y253669D01*
X641378Y253775D01*
X641414Y253880D01*
X641454Y253983D01*
X641497Y254085D01*
X641544Y254186D01*
X641595Y254285D01*
X641648Y254382D01*
X641705Y254476D01*
X641766Y254569D01*
X641829Y254660D01*
X641896Y254749D01*
X641966Y254835D01*
X642039Y254918D01*
X642114Y255000D01*
X642192Y255078D01*
X642274Y255153D01*
X642357Y255226D01*
X642443Y255296D01*
X642532Y255363D01*
X642623Y255426D01*
X642716Y255487D01*
X642811Y255544D01*
X642907Y255597D01*
X643006Y255648D01*
X643107Y255695D01*
X643209Y255738D01*
X643312Y255778D01*
X643417Y255814D01*
X643523Y255846D01*
X643630Y255875D01*
X643738Y255900D01*
X643847Y255921D01*
X643956Y255938D01*
X644066Y255952D01*
X644177Y255961D01*
X644287Y255967D01*
X644398Y255969D01*
X644509Y255967D01*
X644619Y255961D01*
X644730Y255952D01*
X644840Y255938D01*
X644949Y255921D01*
X645058Y255900D01*
X645166Y255875D01*
X645273Y255846D01*
X645379Y255814D01*
X645484Y255778D01*
X645587Y255738D01*
X645689Y255695D01*
X645790Y255648D01*
X645889Y255597D01*
X645986Y255544D01*
X646080Y255487D01*
X646173Y255426D01*
X646264Y255363D01*
X646353Y255296D01*
X646439Y255226D01*
X646522Y255153D01*
X646604Y255078D01*
X646682Y255000D01*
X646757Y254918D01*
X646830Y254835D01*
X646900Y254749D01*
X646967Y254660D01*
X647030Y254569D01*
X647091Y254476D01*
X647148Y254382D01*
X647201Y254285D01*
X647252Y254186D01*
X647299Y254085D01*
X647342Y253983D01*
X647382Y253880D01*
X647418Y253775D01*
X647450Y253669D01*
X647479Y253562D01*
X647504Y253454D01*
X647525Y253345D01*
X647542Y253236D01*
X647556Y253126D01*
X647565Y253015D01*
X647571Y252905D01*
X647573Y252794D01*
X647573Y249619D01*
X652653Y260477D02*
X652653Y264287D01*
X652651Y264387D01*
X652645Y264486D01*
X652635Y264586D01*
X652622Y264684D01*
X652604Y264783D01*
X652583Y264880D01*
X652558Y264976D01*
X652529Y265072D01*
X652496Y265166D01*
X652460Y265259D01*
X652420Y265350D01*
X652376Y265440D01*
X652329Y265528D01*
X652279Y265614D01*
X652225Y265698D01*
X652168Y265780D01*
X652108Y265859D01*
X652044Y265937D01*
X651978Y266011D01*
X651909Y266083D01*
X651837Y266152D01*
X651763Y266218D01*
X651685Y266282D01*
X651606Y266342D01*
X651524Y266399D01*
X651440Y266453D01*
X651354Y266503D01*
X651266Y266550D01*
X651176Y266594D01*
X651085Y266634D01*
X650992Y266670D01*
X650898Y266703D01*
X650802Y266732D01*
X650706Y266757D01*
X650609Y266778D01*
X650510Y266796D01*
X650412Y266809D01*
X650312Y266819D01*
X650213Y266825D01*
X650113Y266827D01*
X648843Y266827D01*
X648743Y266825D01*
X648644Y266819D01*
X648544Y266809D01*
X648446Y266796D01*
X648347Y266778D01*
X648250Y266757D01*
X648154Y266732D01*
X648058Y266703D01*
X647964Y266670D01*
X647871Y266634D01*
X647780Y266594D01*
X647690Y266550D01*
X647602Y266503D01*
X647516Y266453D01*
X647432Y266399D01*
X647350Y266342D01*
X647271Y266282D01*
X647193Y266218D01*
X647119Y266152D01*
X647047Y266083D01*
X646978Y266011D01*
X646912Y265937D01*
X646848Y265859D01*
X646788Y265780D01*
X646731Y265698D01*
X646677Y265614D01*
X646627Y265528D01*
X646580Y265440D01*
X646536Y265350D01*
X646496Y265259D01*
X646460Y265166D01*
X646427Y265072D01*
X646398Y264976D01*
X646373Y264880D01*
X646352Y264783D01*
X646334Y264684D01*
X646321Y264586D01*
X646311Y264486D01*
X646305Y264387D01*
X646303Y264287D01*
X646303Y260477D01*
X641223Y260477D01*
X641223Y266827D01*
D11*
X774700Y222250D02*
X781050Y215900D01*
X774700Y222250D02*
X774700Y234950D01*
X781050Y241300D01*
X793750Y241300D01*
X800100Y234950D01*
X800100Y222250D01*
X793750Y215900D01*
X774700Y184150D02*
X774700Y171450D01*
X774700Y184150D02*
X781050Y190500D01*
X793750Y190500D01*
X800100Y184150D01*
X781050Y190500D02*
X774700Y196850D01*
X774700Y209550D01*
X781050Y215900D01*
X793750Y215900D01*
X800100Y209550D01*
X800100Y196850D01*
X793750Y190500D01*
X793750Y165100D02*
X781050Y165100D01*
X774700Y171450D01*
X793750Y165100D02*
X800100Y171450D01*
X800100Y184150D01*
X774700Y247650D02*
X774700Y260350D01*
X781050Y266700D01*
X793750Y266700D01*
X800100Y260350D01*
X781050Y241300D02*
X774700Y247650D01*
X793750Y241300D02*
X800100Y247650D01*
X800100Y260350D01*
D12*
X765937Y168783D02*
X757047Y168783D01*
X765937Y168783D02*
X766037Y168781D01*
X766136Y168775D01*
X766236Y168765D01*
X766334Y168752D01*
X766433Y168734D01*
X766530Y168713D01*
X766626Y168688D01*
X766722Y168659D01*
X766816Y168626D01*
X766909Y168590D01*
X767000Y168550D01*
X767090Y168506D01*
X767178Y168459D01*
X767264Y168409D01*
X767348Y168355D01*
X767430Y168298D01*
X767509Y168238D01*
X767587Y168174D01*
X767661Y168108D01*
X767733Y168039D01*
X767802Y167967D01*
X767868Y167893D01*
X767932Y167815D01*
X767992Y167736D01*
X768049Y167654D01*
X768103Y167570D01*
X768153Y167484D01*
X768200Y167396D01*
X768244Y167306D01*
X768284Y167215D01*
X768320Y167122D01*
X768353Y167028D01*
X768382Y166932D01*
X768407Y166836D01*
X768428Y166739D01*
X768446Y166640D01*
X768459Y166542D01*
X768469Y166442D01*
X768475Y166343D01*
X768477Y166243D01*
X768477Y164973D01*
X768477Y174763D02*
X757047Y174763D01*
X757047Y177938D01*
X757049Y178049D01*
X757055Y178159D01*
X757064Y178270D01*
X757078Y178380D01*
X757095Y178489D01*
X757116Y178598D01*
X757141Y178706D01*
X757170Y178813D01*
X757202Y178919D01*
X757238Y179024D01*
X757278Y179127D01*
X757321Y179229D01*
X757368Y179330D01*
X757419Y179429D01*
X757472Y179526D01*
X757529Y179620D01*
X757590Y179713D01*
X757653Y179804D01*
X757720Y179893D01*
X757790Y179979D01*
X757863Y180062D01*
X757938Y180144D01*
X758016Y180222D01*
X758098Y180297D01*
X758181Y180370D01*
X758267Y180440D01*
X758356Y180507D01*
X758447Y180570D01*
X758540Y180631D01*
X758635Y180688D01*
X758731Y180741D01*
X758830Y180792D01*
X758931Y180839D01*
X759033Y180882D01*
X759136Y180922D01*
X759241Y180958D01*
X759347Y180990D01*
X759454Y181019D01*
X759562Y181044D01*
X759671Y181065D01*
X759780Y181082D01*
X759890Y181096D01*
X760001Y181105D01*
X760111Y181111D01*
X760222Y181113D01*
X760333Y181111D01*
X760443Y181105D01*
X760554Y181096D01*
X760664Y181082D01*
X760773Y181065D01*
X760882Y181044D01*
X760990Y181019D01*
X761097Y180990D01*
X761203Y180958D01*
X761308Y180922D01*
X761411Y180882D01*
X761513Y180839D01*
X761614Y180792D01*
X761713Y180741D01*
X761810Y180688D01*
X761904Y180631D01*
X761997Y180570D01*
X762088Y180507D01*
X762177Y180440D01*
X762263Y180370D01*
X762346Y180297D01*
X762428Y180222D01*
X762506Y180144D01*
X762581Y180062D01*
X762654Y179979D01*
X762724Y179893D01*
X762791Y179804D01*
X762854Y179713D01*
X762915Y179620D01*
X762972Y179526D01*
X763025Y179429D01*
X763076Y179330D01*
X763123Y179229D01*
X763166Y179127D01*
X763206Y179024D01*
X763242Y178919D01*
X763274Y178813D01*
X763303Y178706D01*
X763328Y178598D01*
X763349Y178489D01*
X763366Y178380D01*
X763380Y178270D01*
X763389Y178159D01*
X763395Y178049D01*
X763397Y177938D01*
X763397Y174763D01*
X762127Y185622D02*
X762127Y189432D01*
X762129Y189532D01*
X762135Y189631D01*
X762145Y189731D01*
X762158Y189829D01*
X762176Y189928D01*
X762197Y190025D01*
X762222Y190121D01*
X762251Y190217D01*
X762284Y190311D01*
X762320Y190404D01*
X762360Y190495D01*
X762404Y190585D01*
X762451Y190673D01*
X762501Y190759D01*
X762555Y190843D01*
X762612Y190925D01*
X762672Y191004D01*
X762736Y191082D01*
X762802Y191156D01*
X762871Y191228D01*
X762943Y191297D01*
X763017Y191363D01*
X763095Y191427D01*
X763174Y191487D01*
X763256Y191544D01*
X763340Y191598D01*
X763426Y191648D01*
X763514Y191695D01*
X763604Y191739D01*
X763695Y191779D01*
X763788Y191815D01*
X763882Y191848D01*
X763978Y191877D01*
X764074Y191902D01*
X764171Y191923D01*
X764270Y191941D01*
X764368Y191954D01*
X764468Y191964D01*
X764567Y191970D01*
X764667Y191972D01*
X765302Y191972D01*
X765413Y191970D01*
X765523Y191964D01*
X765634Y191955D01*
X765744Y191941D01*
X765853Y191924D01*
X765962Y191903D01*
X766070Y191878D01*
X766177Y191849D01*
X766283Y191817D01*
X766388Y191781D01*
X766491Y191741D01*
X766593Y191698D01*
X766694Y191651D01*
X766793Y191600D01*
X766890Y191547D01*
X766984Y191490D01*
X767077Y191429D01*
X767168Y191366D01*
X767257Y191299D01*
X767343Y191229D01*
X767426Y191156D01*
X767508Y191081D01*
X767586Y191003D01*
X767661Y190921D01*
X767734Y190838D01*
X767804Y190752D01*
X767871Y190663D01*
X767934Y190572D01*
X767995Y190479D01*
X768052Y190384D01*
X768105Y190288D01*
X768156Y190189D01*
X768203Y190088D01*
X768246Y189986D01*
X768286Y189883D01*
X768322Y189778D01*
X768354Y189672D01*
X768383Y189565D01*
X768408Y189457D01*
X768429Y189348D01*
X768446Y189239D01*
X768460Y189129D01*
X768469Y189018D01*
X768475Y188908D01*
X768477Y188797D01*
X768475Y188686D01*
X768469Y188576D01*
X768460Y188465D01*
X768446Y188355D01*
X768429Y188246D01*
X768408Y188137D01*
X768383Y188029D01*
X768354Y187922D01*
X768322Y187816D01*
X768286Y187711D01*
X768246Y187608D01*
X768203Y187506D01*
X768156Y187405D01*
X768105Y187306D01*
X768052Y187209D01*
X767995Y187115D01*
X767934Y187022D01*
X767871Y186931D01*
X767804Y186842D01*
X767734Y186756D01*
X767661Y186673D01*
X767586Y186591D01*
X767508Y186513D01*
X767426Y186438D01*
X767343Y186365D01*
X767257Y186295D01*
X767168Y186228D01*
X767077Y186165D01*
X766984Y186104D01*
X766890Y186047D01*
X766793Y185994D01*
X766694Y185943D01*
X766593Y185896D01*
X766491Y185853D01*
X766388Y185813D01*
X766283Y185777D01*
X766177Y185745D01*
X766070Y185716D01*
X765962Y185691D01*
X765853Y185670D01*
X765744Y185653D01*
X765634Y185639D01*
X765523Y185630D01*
X765413Y185624D01*
X765302Y185622D01*
X762127Y185622D01*
X761987Y185624D01*
X761847Y185630D01*
X761707Y185639D01*
X761568Y185653D01*
X761429Y185670D01*
X761291Y185691D01*
X761153Y185716D01*
X761016Y185745D01*
X760880Y185777D01*
X760745Y185814D01*
X760611Y185854D01*
X760478Y185897D01*
X760346Y185945D01*
X760215Y185995D01*
X760086Y186050D01*
X759959Y186108D01*
X759833Y186169D01*
X759709Y186234D01*
X759587Y186303D01*
X759467Y186374D01*
X759349Y186449D01*
X759232Y186527D01*
X759118Y186609D01*
X759007Y186693D01*
X758898Y186781D01*
X758791Y186871D01*
X758686Y186965D01*
X758585Y187061D01*
X758486Y187160D01*
X758390Y187261D01*
X758296Y187366D01*
X758206Y187473D01*
X758118Y187582D01*
X758034Y187693D01*
X757952Y187807D01*
X757874Y187924D01*
X757799Y188042D01*
X757728Y188162D01*
X757659Y188284D01*
X757594Y188408D01*
X757533Y188534D01*
X757475Y188661D01*
X757420Y188790D01*
X757370Y188921D01*
X757322Y189053D01*
X757279Y189186D01*
X757239Y189320D01*
X757202Y189455D01*
X757170Y189591D01*
X757141Y189728D01*
X757116Y189866D01*
X757095Y190004D01*
X757078Y190143D01*
X757064Y190282D01*
X757055Y190422D01*
X757049Y190562D01*
X757047Y190702D01*
D11*
X850900Y222250D02*
X857250Y215900D01*
X850900Y222250D02*
X850900Y234950D01*
X857250Y241300D01*
X869950Y241300D01*
X876300Y234950D01*
X876300Y222250D01*
X869950Y215900D01*
X850900Y184150D02*
X850900Y171450D01*
X850900Y184150D02*
X857250Y190500D01*
X869950Y190500D01*
X876300Y184150D01*
X857250Y190500D02*
X850900Y196850D01*
X850900Y209550D01*
X857250Y215900D01*
X869950Y215900D01*
X876300Y209550D01*
X876300Y196850D01*
X869950Y190500D01*
X869950Y165100D02*
X857250Y165100D01*
X850900Y171450D01*
X869950Y165100D02*
X876300Y171450D01*
X876300Y184150D01*
X850900Y247650D02*
X850900Y260350D01*
X857250Y266700D01*
X869950Y266700D01*
X876300Y260350D01*
X857250Y241300D02*
X850900Y247650D01*
X869950Y241300D02*
X876300Y247650D01*
X876300Y260350D01*
D12*
X842137Y168783D02*
X833247Y168783D01*
X842137Y168783D02*
X842237Y168781D01*
X842336Y168775D01*
X842436Y168765D01*
X842534Y168752D01*
X842633Y168734D01*
X842730Y168713D01*
X842826Y168688D01*
X842922Y168659D01*
X843016Y168626D01*
X843109Y168590D01*
X843200Y168550D01*
X843290Y168506D01*
X843378Y168459D01*
X843464Y168409D01*
X843548Y168355D01*
X843630Y168298D01*
X843709Y168238D01*
X843787Y168174D01*
X843861Y168108D01*
X843933Y168039D01*
X844002Y167967D01*
X844068Y167893D01*
X844132Y167815D01*
X844192Y167736D01*
X844249Y167654D01*
X844303Y167570D01*
X844353Y167484D01*
X844400Y167396D01*
X844444Y167306D01*
X844484Y167215D01*
X844520Y167122D01*
X844553Y167028D01*
X844582Y166932D01*
X844607Y166836D01*
X844628Y166739D01*
X844646Y166640D01*
X844659Y166542D01*
X844669Y166442D01*
X844675Y166343D01*
X844677Y166243D01*
X844677Y164973D01*
X844677Y174763D02*
X833247Y174763D01*
X833247Y177938D01*
X833249Y178049D01*
X833255Y178159D01*
X833264Y178270D01*
X833278Y178380D01*
X833295Y178489D01*
X833316Y178598D01*
X833341Y178706D01*
X833370Y178813D01*
X833402Y178919D01*
X833438Y179024D01*
X833478Y179127D01*
X833521Y179229D01*
X833568Y179330D01*
X833619Y179429D01*
X833672Y179526D01*
X833729Y179620D01*
X833790Y179713D01*
X833853Y179804D01*
X833920Y179893D01*
X833990Y179979D01*
X834063Y180062D01*
X834138Y180144D01*
X834216Y180222D01*
X834298Y180297D01*
X834381Y180370D01*
X834467Y180440D01*
X834556Y180507D01*
X834647Y180570D01*
X834740Y180631D01*
X834835Y180688D01*
X834931Y180741D01*
X835030Y180792D01*
X835131Y180839D01*
X835233Y180882D01*
X835336Y180922D01*
X835441Y180958D01*
X835547Y180990D01*
X835654Y181019D01*
X835762Y181044D01*
X835871Y181065D01*
X835980Y181082D01*
X836090Y181096D01*
X836201Y181105D01*
X836311Y181111D01*
X836422Y181113D01*
X836533Y181111D01*
X836643Y181105D01*
X836754Y181096D01*
X836864Y181082D01*
X836973Y181065D01*
X837082Y181044D01*
X837190Y181019D01*
X837297Y180990D01*
X837403Y180958D01*
X837508Y180922D01*
X837611Y180882D01*
X837713Y180839D01*
X837814Y180792D01*
X837913Y180741D01*
X838010Y180688D01*
X838104Y180631D01*
X838197Y180570D01*
X838288Y180507D01*
X838377Y180440D01*
X838463Y180370D01*
X838546Y180297D01*
X838628Y180222D01*
X838706Y180144D01*
X838781Y180062D01*
X838854Y179979D01*
X838924Y179893D01*
X838991Y179804D01*
X839054Y179713D01*
X839115Y179620D01*
X839172Y179526D01*
X839225Y179429D01*
X839276Y179330D01*
X839323Y179229D01*
X839366Y179127D01*
X839406Y179024D01*
X839442Y178919D01*
X839474Y178813D01*
X839503Y178706D01*
X839528Y178598D01*
X839549Y178489D01*
X839566Y178380D01*
X839580Y178270D01*
X839589Y178159D01*
X839595Y178049D01*
X839597Y177938D01*
X839597Y174763D01*
X834517Y185622D02*
X833247Y185622D01*
X833247Y191972D01*
X844677Y188797D01*
D13*
X384800Y319700D02*
X384800Y340700D01*
X371300Y301200D02*
X365300Y301200D01*
X351800Y319700D02*
X351800Y340700D01*
X365300Y359200D02*
X371300Y359200D01*
D14*
X366300Y350700D03*
D10*
X397454Y337457D02*
X402646Y337457D01*
X397454Y337457D02*
X397341Y337459D01*
X397228Y337465D01*
X397115Y337475D01*
X397002Y337489D01*
X396890Y337506D01*
X396779Y337528D01*
X396669Y337553D01*
X396559Y337583D01*
X396451Y337616D01*
X396344Y337653D01*
X396238Y337693D01*
X396134Y337738D01*
X396031Y337786D01*
X395930Y337837D01*
X395831Y337892D01*
X395734Y337950D01*
X395639Y338012D01*
X395546Y338077D01*
X395456Y338145D01*
X395368Y338216D01*
X395282Y338291D01*
X395199Y338368D01*
X395119Y338448D01*
X395042Y338531D01*
X394967Y338617D01*
X394896Y338705D01*
X394828Y338795D01*
X394763Y338888D01*
X394701Y338983D01*
X394643Y339080D01*
X394588Y339179D01*
X394537Y339280D01*
X394489Y339383D01*
X394444Y339487D01*
X394404Y339593D01*
X394367Y339700D01*
X394334Y339808D01*
X394304Y339918D01*
X394279Y340028D01*
X394257Y340139D01*
X394240Y340251D01*
X394226Y340364D01*
X394216Y340477D01*
X394210Y340590D01*
X394208Y340703D01*
X394210Y340816D01*
X394216Y340929D01*
X394226Y341042D01*
X394240Y341155D01*
X394257Y341267D01*
X394279Y341378D01*
X394304Y341488D01*
X394334Y341598D01*
X394367Y341706D01*
X394404Y341813D01*
X394444Y341919D01*
X394489Y342023D01*
X394537Y342126D01*
X394588Y342227D01*
X394643Y342326D01*
X394701Y342423D01*
X394763Y342518D01*
X394828Y342611D01*
X394896Y342701D01*
X394967Y342789D01*
X395042Y342875D01*
X395119Y342958D01*
X395199Y343038D01*
X395282Y343115D01*
X395368Y343190D01*
X395456Y343261D01*
X395546Y343329D01*
X395639Y343394D01*
X395734Y343456D01*
X395831Y343514D01*
X395930Y343569D01*
X396031Y343620D01*
X396134Y343668D01*
X396238Y343713D01*
X396344Y343753D01*
X396451Y343790D01*
X396559Y343823D01*
X396669Y343853D01*
X396779Y343878D01*
X396890Y343900D01*
X397002Y343917D01*
X397115Y343931D01*
X397228Y343941D01*
X397341Y343947D01*
X397454Y343949D01*
X397454Y343948D02*
X402646Y343948D01*
X402646Y343949D02*
X402759Y343947D01*
X402872Y343941D01*
X402985Y343931D01*
X403098Y343917D01*
X403210Y343900D01*
X403321Y343878D01*
X403431Y343853D01*
X403541Y343823D01*
X403649Y343790D01*
X403756Y343753D01*
X403862Y343713D01*
X403966Y343668D01*
X404069Y343620D01*
X404170Y343569D01*
X404269Y343514D01*
X404366Y343456D01*
X404461Y343394D01*
X404554Y343329D01*
X404644Y343261D01*
X404732Y343190D01*
X404818Y343115D01*
X404901Y343038D01*
X404981Y342958D01*
X405058Y342875D01*
X405133Y342789D01*
X405204Y342701D01*
X405272Y342611D01*
X405337Y342518D01*
X405399Y342423D01*
X405457Y342326D01*
X405512Y342227D01*
X405563Y342126D01*
X405611Y342023D01*
X405656Y341919D01*
X405696Y341813D01*
X405733Y341706D01*
X405766Y341598D01*
X405796Y341488D01*
X405821Y341378D01*
X405843Y341267D01*
X405860Y341155D01*
X405874Y341042D01*
X405884Y340929D01*
X405890Y340816D01*
X405892Y340703D01*
X405890Y340590D01*
X405884Y340477D01*
X405874Y340364D01*
X405860Y340251D01*
X405843Y340139D01*
X405821Y340028D01*
X405796Y339918D01*
X405766Y339808D01*
X405733Y339700D01*
X405696Y339593D01*
X405656Y339487D01*
X405611Y339383D01*
X405563Y339280D01*
X405512Y339179D01*
X405457Y339080D01*
X405399Y338983D01*
X405337Y338888D01*
X405272Y338795D01*
X405204Y338705D01*
X405133Y338617D01*
X405058Y338531D01*
X404981Y338448D01*
X404901Y338368D01*
X404818Y338291D01*
X404732Y338216D01*
X404644Y338145D01*
X404554Y338077D01*
X404461Y338012D01*
X404366Y337950D01*
X404269Y337892D01*
X404170Y337837D01*
X404069Y337786D01*
X403966Y337738D01*
X403862Y337693D01*
X403756Y337653D01*
X403649Y337616D01*
X403541Y337583D01*
X403431Y337553D01*
X403321Y337528D01*
X403210Y337506D01*
X403098Y337489D01*
X402985Y337475D01*
X402872Y337465D01*
X402759Y337459D01*
X402646Y337457D01*
X403296Y342650D02*
X405892Y345246D01*
X396804Y348601D02*
X394208Y351846D01*
X405892Y351846D01*
X405892Y348601D02*
X405892Y355092D01*
X489458Y470408D02*
X489458Y482092D01*
X492704Y482092D01*
X492817Y482090D01*
X492930Y482084D01*
X493043Y482074D01*
X493156Y482060D01*
X493268Y482043D01*
X493379Y482021D01*
X493489Y481996D01*
X493599Y481966D01*
X493707Y481933D01*
X493814Y481896D01*
X493920Y481856D01*
X494024Y481811D01*
X494127Y481763D01*
X494228Y481712D01*
X494327Y481657D01*
X494424Y481599D01*
X494519Y481537D01*
X494612Y481472D01*
X494702Y481404D01*
X494790Y481333D01*
X494876Y481258D01*
X494959Y481181D01*
X495039Y481101D01*
X495116Y481018D01*
X495191Y480932D01*
X495262Y480844D01*
X495330Y480754D01*
X495395Y480661D01*
X495457Y480566D01*
X495515Y480469D01*
X495570Y480370D01*
X495621Y480269D01*
X495669Y480166D01*
X495714Y480062D01*
X495754Y479956D01*
X495791Y479849D01*
X495824Y479741D01*
X495854Y479631D01*
X495879Y479521D01*
X495901Y479410D01*
X495918Y479298D01*
X495932Y479185D01*
X495942Y479072D01*
X495948Y478959D01*
X495950Y478846D01*
X495948Y478733D01*
X495942Y478620D01*
X495932Y478507D01*
X495918Y478394D01*
X495901Y478282D01*
X495879Y478171D01*
X495854Y478061D01*
X495824Y477951D01*
X495791Y477843D01*
X495754Y477736D01*
X495714Y477630D01*
X495669Y477526D01*
X495621Y477423D01*
X495570Y477322D01*
X495515Y477223D01*
X495457Y477126D01*
X495395Y477031D01*
X495330Y476938D01*
X495262Y476848D01*
X495191Y476760D01*
X495116Y476674D01*
X495039Y476591D01*
X494959Y476511D01*
X494876Y476434D01*
X494790Y476359D01*
X494702Y476288D01*
X494612Y476220D01*
X494519Y476155D01*
X494424Y476093D01*
X494327Y476035D01*
X494228Y475980D01*
X494127Y475929D01*
X494024Y475881D01*
X493920Y475836D01*
X493814Y475796D01*
X493707Y475759D01*
X493599Y475726D01*
X493489Y475696D01*
X493379Y475671D01*
X493268Y475649D01*
X493156Y475632D01*
X493043Y475618D01*
X492930Y475608D01*
X492817Y475602D01*
X492704Y475600D01*
X492704Y475601D02*
X489458Y475601D01*
X493353Y475601D02*
X495949Y470408D01*
X500814Y479496D02*
X504060Y482092D01*
X504060Y470408D01*
X507305Y470408D02*
X500814Y470408D01*
X534095Y443992D02*
X534095Y432308D01*
X534095Y443992D02*
X537340Y443992D01*
X537453Y443990D01*
X537566Y443984D01*
X537679Y443974D01*
X537792Y443960D01*
X537904Y443943D01*
X538015Y443921D01*
X538125Y443896D01*
X538235Y443866D01*
X538343Y443833D01*
X538450Y443796D01*
X538556Y443756D01*
X538660Y443711D01*
X538763Y443663D01*
X538864Y443612D01*
X538963Y443557D01*
X539060Y443499D01*
X539155Y443437D01*
X539248Y443372D01*
X539338Y443304D01*
X539426Y443233D01*
X539512Y443158D01*
X539595Y443081D01*
X539675Y443001D01*
X539752Y442918D01*
X539827Y442832D01*
X539898Y442744D01*
X539966Y442654D01*
X540031Y442561D01*
X540093Y442466D01*
X540151Y442369D01*
X540206Y442270D01*
X540257Y442169D01*
X540305Y442066D01*
X540350Y441962D01*
X540390Y441856D01*
X540427Y441749D01*
X540460Y441641D01*
X540490Y441531D01*
X540515Y441421D01*
X540537Y441310D01*
X540554Y441198D01*
X540568Y441085D01*
X540578Y440972D01*
X540584Y440859D01*
X540586Y440746D01*
X540584Y440633D01*
X540578Y440520D01*
X540568Y440407D01*
X540554Y440294D01*
X540537Y440182D01*
X540515Y440071D01*
X540490Y439961D01*
X540460Y439851D01*
X540427Y439743D01*
X540390Y439636D01*
X540350Y439530D01*
X540305Y439426D01*
X540257Y439323D01*
X540206Y439222D01*
X540151Y439123D01*
X540093Y439026D01*
X540031Y438931D01*
X539966Y438838D01*
X539898Y438748D01*
X539827Y438660D01*
X539752Y438574D01*
X539675Y438491D01*
X539595Y438411D01*
X539512Y438334D01*
X539426Y438259D01*
X539338Y438188D01*
X539248Y438120D01*
X539155Y438055D01*
X539060Y437993D01*
X538963Y437935D01*
X538864Y437880D01*
X538763Y437829D01*
X538660Y437781D01*
X538556Y437736D01*
X538450Y437696D01*
X538343Y437659D01*
X538235Y437626D01*
X538125Y437596D01*
X538015Y437571D01*
X537904Y437549D01*
X537792Y437532D01*
X537679Y437518D01*
X537566Y437508D01*
X537453Y437502D01*
X537340Y437500D01*
X537340Y437501D02*
X534095Y437501D01*
X537989Y437501D02*
X540586Y432308D01*
X551942Y441071D02*
X551940Y441178D01*
X551934Y441284D01*
X551924Y441390D01*
X551911Y441496D01*
X551893Y441602D01*
X551872Y441706D01*
X551847Y441810D01*
X551818Y441913D01*
X551786Y442014D01*
X551749Y442114D01*
X551709Y442213D01*
X551666Y442311D01*
X551619Y442407D01*
X551568Y442501D01*
X551514Y442593D01*
X551457Y442683D01*
X551397Y442771D01*
X551333Y442856D01*
X551266Y442939D01*
X551196Y443020D01*
X551124Y443098D01*
X551048Y443174D01*
X550970Y443246D01*
X550889Y443316D01*
X550806Y443383D01*
X550721Y443447D01*
X550633Y443507D01*
X550543Y443564D01*
X550451Y443618D01*
X550357Y443669D01*
X550261Y443716D01*
X550163Y443759D01*
X550064Y443799D01*
X549964Y443836D01*
X549863Y443868D01*
X549760Y443897D01*
X549656Y443922D01*
X549552Y443943D01*
X549446Y443961D01*
X549340Y443974D01*
X549234Y443984D01*
X549128Y443990D01*
X549021Y443992D01*
X548900Y443990D01*
X548779Y443984D01*
X548659Y443974D01*
X548538Y443961D01*
X548419Y443943D01*
X548299Y443922D01*
X548181Y443897D01*
X548064Y443868D01*
X547947Y443835D01*
X547832Y443799D01*
X547718Y443758D01*
X547605Y443715D01*
X547493Y443667D01*
X547384Y443616D01*
X547276Y443561D01*
X547169Y443503D01*
X547065Y443442D01*
X546963Y443377D01*
X546863Y443309D01*
X546765Y443238D01*
X546669Y443164D01*
X546576Y443087D01*
X546486Y443006D01*
X546398Y442923D01*
X546313Y442837D01*
X546230Y442748D01*
X546151Y442657D01*
X546074Y442563D01*
X546001Y442467D01*
X545931Y442369D01*
X545864Y442268D01*
X545800Y442165D01*
X545740Y442060D01*
X545683Y441953D01*
X545629Y441845D01*
X545579Y441735D01*
X545533Y441623D01*
X545490Y441510D01*
X545451Y441395D01*
X550969Y438799D02*
X551048Y438876D01*
X551124Y438957D01*
X551197Y439040D01*
X551267Y439125D01*
X551334Y439213D01*
X551398Y439303D01*
X551458Y439395D01*
X551515Y439490D01*
X551569Y439586D01*
X551620Y439684D01*
X551667Y439784D01*
X551711Y439886D01*
X551751Y439989D01*
X551787Y440093D01*
X551819Y440199D01*
X551848Y440305D01*
X551873Y440413D01*
X551895Y440521D01*
X551912Y440631D01*
X551926Y440740D01*
X551935Y440850D01*
X551941Y440961D01*
X551943Y441071D01*
X550968Y438799D02*
X545451Y432308D01*
X551942Y432308D01*
D11*
X652780Y436880D02*
X655320Y436880D01*
X655320Y452120D01*
X652780Y452120D01*
X591820Y452120D02*
X589280Y452120D01*
X589280Y436880D01*
X591820Y436880D01*
D15*
X609600Y472440D02*
X609600Y474980D01*
X609600Y472440D02*
X635000Y472440D01*
X635000Y474980D01*
X633730Y416560D02*
X609600Y416560D01*
X633730Y416560D02*
X633730Y414020D01*
X609600Y414020D02*
X609600Y416560D01*
D11*
X609600Y414020D02*
X600710Y414020D01*
X635000Y474980D02*
X643890Y474980D01*
X635000Y474980D02*
X609600Y474980D01*
X600710Y474980D01*
X609600Y414020D02*
X633730Y414020D01*
X643890Y414020D01*
X652780Y434340D02*
X652780Y436880D01*
X652780Y452120D02*
X652780Y454660D01*
X591820Y436880D02*
X591820Y434340D01*
X591820Y452120D02*
X591820Y454660D01*
X604520Y444500D02*
X604525Y444936D01*
X604541Y445372D01*
X604568Y445808D01*
X604606Y446243D01*
X604654Y446676D01*
X604712Y447109D01*
X604782Y447540D01*
X604862Y447969D01*
X604952Y448396D01*
X605053Y448820D01*
X605164Y449242D01*
X605286Y449661D01*
X605417Y450077D01*
X605559Y450490D01*
X605711Y450899D01*
X605873Y451304D01*
X606045Y451705D01*
X606227Y452102D01*
X606418Y452494D01*
X606619Y452881D01*
X606830Y453264D01*
X607050Y453641D01*
X607279Y454012D01*
X607516Y454378D01*
X607763Y454738D01*
X608019Y455092D01*
X608283Y455439D01*
X608556Y455780D01*
X608837Y456113D01*
X609126Y456440D01*
X609423Y456760D01*
X609728Y457072D01*
X610040Y457377D01*
X610360Y457674D01*
X610687Y457963D01*
X611020Y458244D01*
X611361Y458517D01*
X611708Y458781D01*
X612062Y459037D01*
X612422Y459284D01*
X612788Y459521D01*
X613159Y459750D01*
X613536Y459970D01*
X613919Y460181D01*
X614306Y460382D01*
X614698Y460573D01*
X615095Y460755D01*
X615496Y460927D01*
X615901Y461089D01*
X616310Y461241D01*
X616723Y461383D01*
X617139Y461514D01*
X617558Y461636D01*
X617980Y461747D01*
X618404Y461848D01*
X618831Y461938D01*
X619260Y462018D01*
X619691Y462088D01*
X620124Y462146D01*
X620557Y462194D01*
X620992Y462232D01*
X621428Y462259D01*
X621864Y462275D01*
X622300Y462280D01*
X622736Y462275D01*
X623172Y462259D01*
X623608Y462232D01*
X624043Y462194D01*
X624476Y462146D01*
X624909Y462088D01*
X625340Y462018D01*
X625769Y461938D01*
X626196Y461848D01*
X626620Y461747D01*
X627042Y461636D01*
X627461Y461514D01*
X627877Y461383D01*
X628290Y461241D01*
X628699Y461089D01*
X629104Y460927D01*
X629505Y460755D01*
X629902Y460573D01*
X630294Y460382D01*
X630681Y460181D01*
X631064Y459970D01*
X631441Y459750D01*
X631812Y459521D01*
X632178Y459284D01*
X632538Y459037D01*
X632892Y458781D01*
X633239Y458517D01*
X633580Y458244D01*
X633913Y457963D01*
X634240Y457674D01*
X634560Y457377D01*
X634872Y457072D01*
X635177Y456760D01*
X635474Y456440D01*
X635763Y456113D01*
X636044Y455780D01*
X636317Y455439D01*
X636581Y455092D01*
X636837Y454738D01*
X637084Y454378D01*
X637321Y454012D01*
X637550Y453641D01*
X637770Y453264D01*
X637981Y452881D01*
X638182Y452494D01*
X638373Y452102D01*
X638555Y451705D01*
X638727Y451304D01*
X638889Y450899D01*
X639041Y450490D01*
X639183Y450077D01*
X639314Y449661D01*
X639436Y449242D01*
X639547Y448820D01*
X639648Y448396D01*
X639738Y447969D01*
X639818Y447540D01*
X639888Y447109D01*
X639946Y446676D01*
X639994Y446243D01*
X640032Y445808D01*
X640059Y445372D01*
X640075Y444936D01*
X640080Y444500D01*
X640075Y444064D01*
X640059Y443628D01*
X640032Y443192D01*
X639994Y442757D01*
X639946Y442324D01*
X639888Y441891D01*
X639818Y441460D01*
X639738Y441031D01*
X639648Y440604D01*
X639547Y440180D01*
X639436Y439758D01*
X639314Y439339D01*
X639183Y438923D01*
X639041Y438510D01*
X638889Y438101D01*
X638727Y437696D01*
X638555Y437295D01*
X638373Y436898D01*
X638182Y436506D01*
X637981Y436119D01*
X637770Y435736D01*
X637550Y435359D01*
X637321Y434988D01*
X637084Y434622D01*
X636837Y434262D01*
X636581Y433908D01*
X636317Y433561D01*
X636044Y433220D01*
X635763Y432887D01*
X635474Y432560D01*
X635177Y432240D01*
X634872Y431928D01*
X634560Y431623D01*
X634240Y431326D01*
X633913Y431037D01*
X633580Y430756D01*
X633239Y430483D01*
X632892Y430219D01*
X632538Y429963D01*
X632178Y429716D01*
X631812Y429479D01*
X631441Y429250D01*
X631064Y429030D01*
X630681Y428819D01*
X630294Y428618D01*
X629902Y428427D01*
X629505Y428245D01*
X629104Y428073D01*
X628699Y427911D01*
X628290Y427759D01*
X627877Y427617D01*
X627461Y427486D01*
X627042Y427364D01*
X626620Y427253D01*
X626196Y427152D01*
X625769Y427062D01*
X625340Y426982D01*
X624909Y426912D01*
X624476Y426854D01*
X624043Y426806D01*
X623608Y426768D01*
X623172Y426741D01*
X622736Y426725D01*
X622300Y426720D01*
X621864Y426725D01*
X621428Y426741D01*
X620992Y426768D01*
X620557Y426806D01*
X620124Y426854D01*
X619691Y426912D01*
X619260Y426982D01*
X618831Y427062D01*
X618404Y427152D01*
X617980Y427253D01*
X617558Y427364D01*
X617139Y427486D01*
X616723Y427617D01*
X616310Y427759D01*
X615901Y427911D01*
X615496Y428073D01*
X615095Y428245D01*
X614698Y428427D01*
X614306Y428618D01*
X613919Y428819D01*
X613536Y429030D01*
X613159Y429250D01*
X612788Y429479D01*
X612422Y429716D01*
X612062Y429963D01*
X611708Y430219D01*
X611361Y430483D01*
X611020Y430756D01*
X610687Y431037D01*
X610360Y431326D01*
X610040Y431623D01*
X609728Y431928D01*
X609423Y432240D01*
X609126Y432560D01*
X608837Y432887D01*
X608556Y433220D01*
X608283Y433561D01*
X608019Y433908D01*
X607763Y434262D01*
X607516Y434622D01*
X607279Y434988D01*
X607050Y435359D01*
X606830Y435736D01*
X606619Y436119D01*
X606418Y436506D01*
X606227Y436898D01*
X606045Y437295D01*
X605873Y437696D01*
X605711Y438101D01*
X605559Y438510D01*
X605417Y438923D01*
X605286Y439339D01*
X605164Y439758D01*
X605053Y440180D01*
X604952Y440604D01*
X604862Y441031D01*
X604782Y441460D01*
X604712Y441891D01*
X604654Y442324D01*
X604606Y442757D01*
X604568Y443192D01*
X604541Y443628D01*
X604525Y444064D01*
X604520Y444500D01*
X619760Y444500D02*
X619762Y444600D01*
X619768Y444701D01*
X619778Y444800D01*
X619792Y444900D01*
X619809Y444999D01*
X619831Y445097D01*
X619857Y445194D01*
X619886Y445290D01*
X619919Y445384D01*
X619956Y445478D01*
X619996Y445570D01*
X620040Y445660D01*
X620088Y445748D01*
X620139Y445835D01*
X620193Y445919D01*
X620251Y446001D01*
X620312Y446081D01*
X620376Y446158D01*
X620443Y446233D01*
X620513Y446305D01*
X620586Y446374D01*
X620661Y446440D01*
X620739Y446504D01*
X620819Y446564D01*
X620902Y446621D01*
X620987Y446674D01*
X621074Y446724D01*
X621163Y446771D01*
X621253Y446814D01*
X621345Y446854D01*
X621439Y446890D01*
X621534Y446922D01*
X621630Y446950D01*
X621728Y446975D01*
X621826Y446995D01*
X621925Y447012D01*
X622025Y447025D01*
X622124Y447034D01*
X622225Y447039D01*
X622325Y447040D01*
X622425Y447037D01*
X622526Y447030D01*
X622625Y447019D01*
X622725Y447004D01*
X622823Y446986D01*
X622921Y446963D01*
X623018Y446936D01*
X623113Y446906D01*
X623208Y446872D01*
X623301Y446834D01*
X623392Y446793D01*
X623482Y446748D01*
X623570Y446700D01*
X623656Y446648D01*
X623740Y446593D01*
X623821Y446534D01*
X623900Y446472D01*
X623977Y446408D01*
X624051Y446340D01*
X624122Y446269D01*
X624191Y446196D01*
X624256Y446120D01*
X624319Y446041D01*
X624378Y445960D01*
X624434Y445877D01*
X624487Y445792D01*
X624536Y445704D01*
X624582Y445615D01*
X624624Y445524D01*
X624663Y445431D01*
X624698Y445337D01*
X624729Y445242D01*
X624757Y445145D01*
X624780Y445048D01*
X624800Y444949D01*
X624816Y444850D01*
X624828Y444751D01*
X624836Y444650D01*
X624840Y444550D01*
X624840Y444450D01*
X624836Y444350D01*
X624828Y444249D01*
X624816Y444150D01*
X624800Y444051D01*
X624780Y443952D01*
X624757Y443855D01*
X624729Y443758D01*
X624698Y443663D01*
X624663Y443569D01*
X624624Y443476D01*
X624582Y443385D01*
X624536Y443296D01*
X624487Y443208D01*
X624434Y443123D01*
X624378Y443040D01*
X624319Y442959D01*
X624256Y442880D01*
X624191Y442804D01*
X624122Y442731D01*
X624051Y442660D01*
X623977Y442592D01*
X623900Y442528D01*
X623821Y442466D01*
X623740Y442407D01*
X623656Y442352D01*
X623570Y442300D01*
X623482Y442252D01*
X623392Y442207D01*
X623301Y442166D01*
X623208Y442128D01*
X623113Y442094D01*
X623018Y442064D01*
X622921Y442037D01*
X622823Y442014D01*
X622725Y441996D01*
X622625Y441981D01*
X622526Y441970D01*
X622425Y441963D01*
X622325Y441960D01*
X622225Y441961D01*
X622124Y441966D01*
X622025Y441975D01*
X621925Y441988D01*
X621826Y442005D01*
X621728Y442025D01*
X621630Y442050D01*
X621534Y442078D01*
X621439Y442110D01*
X621345Y442146D01*
X621253Y442186D01*
X621163Y442229D01*
X621074Y442276D01*
X620987Y442326D01*
X620902Y442379D01*
X620819Y442436D01*
X620739Y442496D01*
X620661Y442560D01*
X620586Y442626D01*
X620513Y442695D01*
X620443Y442767D01*
X620376Y442842D01*
X620312Y442919D01*
X620251Y442999D01*
X620193Y443081D01*
X620139Y443165D01*
X620088Y443252D01*
X620040Y443340D01*
X619996Y443430D01*
X619956Y443522D01*
X619919Y443616D01*
X619886Y443710D01*
X619857Y443806D01*
X619831Y443903D01*
X619809Y444001D01*
X619792Y444100D01*
X619778Y444200D01*
X619768Y444299D01*
X619762Y444400D01*
X619760Y444500D01*
D12*
X596265Y481965D02*
X596365Y481967D01*
X596464Y481973D01*
X596564Y481983D01*
X596662Y481996D01*
X596761Y482014D01*
X596858Y482035D01*
X596954Y482060D01*
X597050Y482089D01*
X597144Y482122D01*
X597237Y482158D01*
X597328Y482198D01*
X597418Y482242D01*
X597506Y482289D01*
X597592Y482339D01*
X597676Y482393D01*
X597758Y482450D01*
X597837Y482510D01*
X597915Y482574D01*
X597989Y482640D01*
X598061Y482709D01*
X598130Y482781D01*
X598196Y482855D01*
X598260Y482933D01*
X598320Y483012D01*
X598377Y483094D01*
X598431Y483178D01*
X598481Y483264D01*
X598528Y483352D01*
X598572Y483442D01*
X598612Y483533D01*
X598648Y483626D01*
X598681Y483720D01*
X598710Y483816D01*
X598735Y483912D01*
X598756Y484009D01*
X598774Y484108D01*
X598787Y484206D01*
X598797Y484306D01*
X598803Y484405D01*
X598805Y484505D01*
X596265Y481965D02*
X596124Y481967D01*
X595983Y481972D01*
X595842Y481982D01*
X595701Y481995D01*
X595561Y482011D01*
X595421Y482032D01*
X595282Y482056D01*
X595143Y482084D01*
X595006Y482115D01*
X594869Y482150D01*
X594733Y482188D01*
X594598Y482230D01*
X594465Y482276D01*
X594332Y482325D01*
X594201Y482378D01*
X594072Y482434D01*
X593943Y482493D01*
X593817Y482556D01*
X593692Y482622D01*
X593569Y482691D01*
X593448Y482764D01*
X593329Y482840D01*
X593211Y482919D01*
X593096Y483000D01*
X592984Y483085D01*
X592873Y483173D01*
X592765Y483264D01*
X592659Y483357D01*
X592556Y483454D01*
X592455Y483553D01*
X592773Y490855D02*
X592775Y490955D01*
X592781Y491054D01*
X592791Y491154D01*
X592804Y491252D01*
X592822Y491351D01*
X592843Y491448D01*
X592868Y491544D01*
X592897Y491640D01*
X592930Y491734D01*
X592966Y491827D01*
X593006Y491918D01*
X593050Y492008D01*
X593097Y492096D01*
X593147Y492182D01*
X593201Y492266D01*
X593258Y492348D01*
X593318Y492427D01*
X593382Y492505D01*
X593448Y492579D01*
X593517Y492651D01*
X593589Y492720D01*
X593663Y492786D01*
X593741Y492850D01*
X593820Y492910D01*
X593902Y492967D01*
X593986Y493021D01*
X594072Y493071D01*
X594160Y493118D01*
X594250Y493162D01*
X594341Y493202D01*
X594434Y493238D01*
X594528Y493271D01*
X594624Y493300D01*
X594720Y493325D01*
X594817Y493346D01*
X594916Y493364D01*
X595014Y493377D01*
X595114Y493387D01*
X595213Y493393D01*
X595313Y493395D01*
X595313Y493396D02*
X595446Y493394D01*
X595579Y493389D01*
X595712Y493379D01*
X595845Y493366D01*
X595977Y493349D01*
X596109Y493329D01*
X596240Y493305D01*
X596370Y493277D01*
X596500Y493246D01*
X596628Y493211D01*
X596756Y493172D01*
X596882Y493130D01*
X597007Y493084D01*
X597131Y493035D01*
X597254Y492983D01*
X597375Y492927D01*
X597494Y492867D01*
X597612Y492805D01*
X597727Y492739D01*
X597841Y492670D01*
X597953Y492597D01*
X598063Y492522D01*
X598171Y492443D01*
X594042Y488632D02*
X593958Y488684D01*
X593875Y488739D01*
X593795Y488798D01*
X593717Y488859D01*
X593642Y488923D01*
X593569Y488991D01*
X593498Y489061D01*
X593431Y489133D01*
X593366Y489208D01*
X593304Y489286D01*
X593245Y489366D01*
X593189Y489448D01*
X593137Y489532D01*
X593088Y489618D01*
X593042Y489706D01*
X592999Y489796D01*
X592960Y489887D01*
X592925Y489980D01*
X592893Y490074D01*
X592865Y490169D01*
X592840Y490265D01*
X592820Y490362D01*
X592802Y490460D01*
X592789Y490558D01*
X592780Y490657D01*
X592774Y490756D01*
X592772Y490855D01*
X597535Y486728D02*
X597619Y486676D01*
X597702Y486621D01*
X597782Y486562D01*
X597860Y486501D01*
X597935Y486437D01*
X598008Y486369D01*
X598079Y486299D01*
X598146Y486227D01*
X598211Y486152D01*
X598273Y486074D01*
X598332Y485994D01*
X598388Y485912D01*
X598440Y485828D01*
X598489Y485742D01*
X598535Y485654D01*
X598578Y485564D01*
X598617Y485473D01*
X598652Y485380D01*
X598684Y485286D01*
X598712Y485191D01*
X598737Y485095D01*
X598757Y484998D01*
X598775Y484900D01*
X598788Y484802D01*
X598797Y484703D01*
X598803Y484604D01*
X598805Y484505D01*
X597535Y486728D02*
X594043Y488633D01*
X603504Y490855D02*
X606679Y493395D01*
X606679Y481965D01*
X603504Y481965D02*
X609854Y481965D01*
X424700Y365700D02*
X421700Y365700D01*
X421700Y362700D01*
X489700Y365700D02*
X492700Y365700D01*
X492700Y362700D01*
X421700Y297700D02*
X421700Y294700D01*
X424700Y294700D01*
X489700Y294700D02*
X492700Y294700D01*
X492700Y297700D01*
D16*
X398200Y358200D02*
X398202Y358263D01*
X398208Y358325D01*
X398218Y358387D01*
X398231Y358449D01*
X398249Y358509D01*
X398270Y358568D01*
X398295Y358626D01*
X398324Y358682D01*
X398356Y358736D01*
X398391Y358788D01*
X398429Y358837D01*
X398471Y358885D01*
X398515Y358929D01*
X398563Y358971D01*
X398612Y359009D01*
X398664Y359044D01*
X398718Y359076D01*
X398774Y359105D01*
X398832Y359130D01*
X398891Y359151D01*
X398951Y359169D01*
X399013Y359182D01*
X399075Y359192D01*
X399137Y359198D01*
X399200Y359200D01*
X399263Y359198D01*
X399325Y359192D01*
X399387Y359182D01*
X399449Y359169D01*
X399509Y359151D01*
X399568Y359130D01*
X399626Y359105D01*
X399682Y359076D01*
X399736Y359044D01*
X399788Y359009D01*
X399837Y358971D01*
X399885Y358929D01*
X399929Y358885D01*
X399971Y358837D01*
X400009Y358788D01*
X400044Y358736D01*
X400076Y358682D01*
X400105Y358626D01*
X400130Y358568D01*
X400151Y358509D01*
X400169Y358449D01*
X400182Y358387D01*
X400192Y358325D01*
X400198Y358263D01*
X400200Y358200D01*
X400198Y358137D01*
X400192Y358075D01*
X400182Y358013D01*
X400169Y357951D01*
X400151Y357891D01*
X400130Y357832D01*
X400105Y357774D01*
X400076Y357718D01*
X400044Y357664D01*
X400009Y357612D01*
X399971Y357563D01*
X399929Y357515D01*
X399885Y357471D01*
X399837Y357429D01*
X399788Y357391D01*
X399736Y357356D01*
X399682Y357324D01*
X399626Y357295D01*
X399568Y357270D01*
X399509Y357249D01*
X399449Y357231D01*
X399387Y357218D01*
X399325Y357208D01*
X399263Y357202D01*
X399200Y357200D01*
X399137Y357202D01*
X399075Y357208D01*
X399013Y357218D01*
X398951Y357231D01*
X398891Y357249D01*
X398832Y357270D01*
X398774Y357295D01*
X398718Y357324D01*
X398664Y357356D01*
X398612Y357391D01*
X398563Y357429D01*
X398515Y357471D01*
X398471Y357515D01*
X398429Y357563D01*
X398391Y357612D01*
X398356Y357664D01*
X398324Y357718D01*
X398295Y357774D01*
X398270Y357832D01*
X398249Y357891D01*
X398231Y357951D01*
X398218Y358013D01*
X398208Y358075D01*
X398202Y358137D01*
X398200Y358200D01*
D17*
X425552Y390682D02*
X425552Y396007D01*
X425552Y390682D02*
X425554Y390593D01*
X425560Y390504D01*
X425570Y390415D01*
X425583Y390326D01*
X425601Y390239D01*
X425622Y390152D01*
X425647Y390066D01*
X425676Y389982D01*
X425708Y389898D01*
X425744Y389816D01*
X425783Y389736D01*
X425826Y389658D01*
X425873Y389582D01*
X425922Y389507D01*
X425975Y389435D01*
X426031Y389366D01*
X426090Y389298D01*
X426152Y389234D01*
X426216Y389172D01*
X426284Y389113D01*
X426353Y389057D01*
X426425Y389004D01*
X426500Y388955D01*
X426576Y388908D01*
X426654Y388865D01*
X426734Y388826D01*
X426816Y388790D01*
X426900Y388758D01*
X426984Y388729D01*
X427070Y388704D01*
X427157Y388683D01*
X427244Y388665D01*
X427333Y388652D01*
X427422Y388642D01*
X427511Y388636D01*
X427600Y388634D01*
X427689Y388636D01*
X427778Y388642D01*
X427867Y388652D01*
X427956Y388665D01*
X428043Y388683D01*
X428130Y388704D01*
X428216Y388729D01*
X428300Y388758D01*
X428384Y388790D01*
X428466Y388826D01*
X428546Y388865D01*
X428624Y388908D01*
X428700Y388955D01*
X428775Y389004D01*
X428847Y389057D01*
X428916Y389113D01*
X428984Y389172D01*
X429048Y389234D01*
X429110Y389298D01*
X429169Y389366D01*
X429225Y389435D01*
X429278Y389507D01*
X429327Y389582D01*
X429374Y389658D01*
X429417Y389736D01*
X429456Y389816D01*
X429492Y389898D01*
X429524Y389982D01*
X429553Y390066D01*
X429578Y390152D01*
X429599Y390239D01*
X429617Y390326D01*
X429630Y390415D01*
X429640Y390504D01*
X429646Y390593D01*
X429648Y390682D01*
X429648Y396007D01*
X433118Y394369D02*
X435166Y396007D01*
X435166Y388634D01*
X433118Y388634D02*
X437214Y388634D01*
M02*
