G04 EAGLE Gerber RS-274X export*
G75*
%MOMM*%
%FSLAX34Y34*%
%LPD*%
%INSoldermask Top*%
%IPPOS*%
%AMOC8*
5,1,8,0,0,1.08239X$1,22.5*%
G01*
%ADD10R,1.703200X1.503200*%
%ADD11R,1.503200X1.703200*%
%ADD12R,1.403200X0.753200*%
%ADD13R,1.678200X0.503200*%
%ADD14R,0.503200X1.678200*%
%ADD15P,1.869504X8X112.500000*%
%ADD16C,1.727200*%
%ADD17P,1.869504X8X292.500000*%
%ADD18R,2.103200X1.303200*%


D10*
X660400Y568300D03*
X660400Y549300D03*
X688340Y549250D03*
X688340Y530250D03*
D11*
X612800Y520700D03*
X631800Y520700D03*
X625500Y444500D03*
X644500Y444500D03*
D10*
X838200Y638200D03*
X838200Y657200D03*
X876300Y701700D03*
X876300Y720700D03*
X800100Y638200D03*
X800100Y657200D03*
D12*
X596599Y492100D03*
X596599Y482600D03*
X596599Y473100D03*
X622601Y473100D03*
X622601Y492100D03*
D13*
X770420Y560900D03*
X770420Y555900D03*
X770420Y550900D03*
X770420Y545900D03*
X770420Y540900D03*
X770420Y535900D03*
X770420Y530900D03*
X770420Y525900D03*
X770420Y520900D03*
X770420Y515900D03*
X770420Y510900D03*
X770420Y505900D03*
D14*
X785300Y491020D03*
X790300Y491020D03*
X795300Y491020D03*
X800300Y491020D03*
X805300Y491020D03*
X810300Y491020D03*
X815300Y491020D03*
X820300Y491020D03*
X825300Y491020D03*
X830300Y491020D03*
X835300Y491020D03*
X840300Y491020D03*
D13*
X855180Y505900D03*
X855180Y510900D03*
X855180Y515900D03*
X855180Y520900D03*
X855180Y525900D03*
X855180Y530900D03*
X855180Y535900D03*
X855180Y540900D03*
X855180Y545900D03*
X855180Y550900D03*
X855180Y555900D03*
X855180Y560900D03*
D14*
X840300Y575780D03*
X835300Y575780D03*
X830300Y575780D03*
X825300Y575780D03*
X820300Y575780D03*
X815300Y575780D03*
X810300Y575780D03*
X805300Y575780D03*
X800300Y575780D03*
X795300Y575780D03*
X790300Y575780D03*
X785300Y575780D03*
D15*
X736600Y647700D03*
X711200Y647700D03*
X736600Y673100D03*
X711200Y673100D03*
X736600Y698500D03*
X711200Y698500D03*
X736600Y723900D03*
X711200Y723900D03*
X736600Y749300D03*
X711200Y749300D03*
D16*
X596900Y566420D02*
X596900Y551180D01*
X622300Y551180D02*
X622300Y566420D01*
X919480Y698500D02*
X934720Y698500D01*
X934720Y723900D02*
X919480Y723900D01*
X787400Y452120D02*
X787400Y436880D01*
X762000Y436880D02*
X762000Y452120D01*
X736600Y452120D02*
X736600Y436880D01*
X711200Y436880D02*
X711200Y452120D01*
X906780Y635000D02*
X922020Y635000D01*
X922020Y609600D02*
X906780Y609600D01*
X906780Y584200D02*
X922020Y584200D01*
X922020Y558800D02*
X906780Y558800D01*
X957580Y635000D02*
X972820Y635000D01*
X972820Y609600D02*
X957580Y609600D01*
X957580Y584200D02*
X972820Y584200D01*
X972820Y558800D02*
X957580Y558800D01*
D17*
X927100Y520700D03*
X952500Y520700D03*
X927100Y495300D03*
X952500Y495300D03*
X927100Y469900D03*
X952500Y469900D03*
X927100Y444500D03*
X952500Y444500D03*
X927100Y419100D03*
X952500Y419100D03*
D11*
X809600Y711200D03*
X790600Y711200D03*
D10*
X838200Y720700D03*
X838200Y701700D03*
D16*
X840232Y777494D02*
X824992Y777494D01*
X824992Y822706D02*
X840232Y822706D01*
X775208Y777494D02*
X759968Y777494D01*
X759968Y822706D02*
X775208Y822706D01*
D18*
X723900Y571300D03*
X723900Y546300D03*
M02*
