G04 EAGLE Gerber RS-274X export*
G75*
%MOMM*%
%FSLAX34Y34*%
%LPD*%
%INSolderpaste Top*%
%IPPOS*%
%AMOC8*
5,1,8,0,0,1.08239X$1,22.5*%
G01*
%ADD10R,1.500000X1.300000*%
%ADD11R,1.300000X1.500000*%
%ADD12R,1.200000X0.550000*%
%ADD13R,1.475000X0.300000*%
%ADD14R,0.300000X1.475000*%
%ADD15R,1.900000X1.100000*%


D10*
X660400Y568300D03*
X660400Y549300D03*
X688340Y549250D03*
X688340Y530250D03*
D11*
X612800Y520700D03*
X631800Y520700D03*
X625500Y444500D03*
X644500Y444500D03*
D10*
X838200Y638200D03*
X838200Y657200D03*
X876300Y701700D03*
X876300Y720700D03*
X800100Y638200D03*
X800100Y657200D03*
D12*
X596599Y492100D03*
X596599Y482600D03*
X596599Y473100D03*
X622601Y473100D03*
X622601Y492100D03*
D13*
X770420Y560900D03*
X770420Y555900D03*
X770420Y550900D03*
X770420Y545900D03*
X770420Y540900D03*
X770420Y535900D03*
X770420Y530900D03*
X770420Y525900D03*
X770420Y520900D03*
X770420Y515900D03*
X770420Y510900D03*
X770420Y505900D03*
D14*
X785300Y491020D03*
X790300Y491020D03*
X795300Y491020D03*
X800300Y491020D03*
X805300Y491020D03*
X810300Y491020D03*
X815300Y491020D03*
X820300Y491020D03*
X825300Y491020D03*
X830300Y491020D03*
X835300Y491020D03*
X840300Y491020D03*
D13*
X855180Y505900D03*
X855180Y510900D03*
X855180Y515900D03*
X855180Y520900D03*
X855180Y525900D03*
X855180Y530900D03*
X855180Y535900D03*
X855180Y540900D03*
X855180Y545900D03*
X855180Y550900D03*
X855180Y555900D03*
X855180Y560900D03*
D14*
X840300Y575780D03*
X835300Y575780D03*
X830300Y575780D03*
X825300Y575780D03*
X820300Y575780D03*
X815300Y575780D03*
X810300Y575780D03*
X805300Y575780D03*
X800300Y575780D03*
X795300Y575780D03*
X790300Y575780D03*
X785300Y575780D03*
D11*
X809600Y711200D03*
X790600Y711200D03*
D10*
X838200Y720700D03*
X838200Y701700D03*
D15*
X723900Y571300D03*
X723900Y546300D03*
M02*
