G04 EAGLE Gerber RS-274X export*
G75*
%MOMM*%
%FSLAX34Y34*%
%LPD*%
%INSolderpaste Top*%
%IPPOS*%
%AMOC8*
5,1,8,0,0,1.08239X$1,22.5*%
G01*
%ADD10R,1.500000X1.300000*%
%ADD11R,1.300000X1.500000*%
%ADD12R,0.550000X1.200000*%
%ADD13R,1.400000X1.900000*%
%ADD14C,0.137500*%


D10*
X342900Y371500D03*
X342900Y390500D03*
X381000Y276200D03*
X381000Y257200D03*
D11*
X746100Y457200D03*
X727100Y457200D03*
X746100Y508000D03*
X727100Y508000D03*
D10*
X406400Y422300D03*
X406400Y441300D03*
D11*
X485800Y419100D03*
X504800Y419100D03*
X435000Y431800D03*
X454000Y431800D03*
D12*
X771500Y571801D03*
X762000Y571801D03*
X752500Y571801D03*
X752500Y545799D03*
X771500Y545799D03*
D13*
X356300Y352200D03*
X356300Y308200D03*
X380300Y308200D03*
X380300Y352200D03*
D11*
X485800Y457200D03*
X504800Y457200D03*
X555600Y457200D03*
X536600Y457200D03*
D14*
X422713Y356137D02*
X408087Y356137D01*
X408087Y360263D01*
X422713Y360263D01*
X422713Y356137D01*
X422713Y357443D02*
X408087Y357443D01*
X408087Y358749D02*
X422713Y358749D01*
X422713Y360055D02*
X408087Y360055D01*
X408087Y348137D02*
X422713Y348137D01*
X408087Y348137D02*
X408087Y352263D01*
X422713Y352263D01*
X422713Y348137D01*
X422713Y349443D02*
X408087Y349443D01*
X408087Y350749D02*
X422713Y350749D01*
X422713Y352055D02*
X408087Y352055D01*
X408087Y340137D02*
X422713Y340137D01*
X408087Y340137D02*
X408087Y344263D01*
X422713Y344263D01*
X422713Y340137D01*
X422713Y341443D02*
X408087Y341443D01*
X408087Y342749D02*
X422713Y342749D01*
X422713Y344055D02*
X408087Y344055D01*
X408087Y332137D02*
X422713Y332137D01*
X408087Y332137D02*
X408087Y336263D01*
X422713Y336263D01*
X422713Y332137D01*
X422713Y333443D02*
X408087Y333443D01*
X408087Y334749D02*
X422713Y334749D01*
X422713Y336055D02*
X408087Y336055D01*
X408087Y324137D02*
X422713Y324137D01*
X408087Y324137D02*
X408087Y328263D01*
X422713Y328263D01*
X422713Y324137D01*
X422713Y325443D02*
X408087Y325443D01*
X408087Y326749D02*
X422713Y326749D01*
X422713Y328055D02*
X408087Y328055D01*
X408087Y316137D02*
X422713Y316137D01*
X408087Y316137D02*
X408087Y320263D01*
X422713Y320263D01*
X422713Y316137D01*
X422713Y317443D02*
X408087Y317443D01*
X408087Y318749D02*
X422713Y318749D01*
X422713Y320055D02*
X408087Y320055D01*
X408087Y308137D02*
X422713Y308137D01*
X408087Y308137D02*
X408087Y312263D01*
X422713Y312263D01*
X422713Y308137D01*
X422713Y309443D02*
X408087Y309443D01*
X408087Y310749D02*
X422713Y310749D01*
X422713Y312055D02*
X408087Y312055D01*
X408087Y300137D02*
X422713Y300137D01*
X408087Y300137D02*
X408087Y304263D01*
X422713Y304263D01*
X422713Y300137D01*
X422713Y301443D02*
X408087Y301443D01*
X408087Y302749D02*
X422713Y302749D01*
X422713Y304055D02*
X408087Y304055D01*
X431263Y295713D02*
X431263Y281087D01*
X427137Y281087D01*
X427137Y295713D01*
X431263Y295713D01*
X431263Y282393D02*
X427137Y282393D01*
X427137Y283699D02*
X431263Y283699D01*
X431263Y285005D02*
X427137Y285005D01*
X427137Y286311D02*
X431263Y286311D01*
X431263Y287617D02*
X427137Y287617D01*
X427137Y288923D02*
X431263Y288923D01*
X431263Y290229D02*
X427137Y290229D01*
X427137Y291535D02*
X431263Y291535D01*
X431263Y292841D02*
X427137Y292841D01*
X427137Y294147D02*
X431263Y294147D01*
X431263Y295453D02*
X427137Y295453D01*
X439263Y295713D02*
X439263Y281087D01*
X435137Y281087D01*
X435137Y295713D01*
X439263Y295713D01*
X439263Y282393D02*
X435137Y282393D01*
X435137Y283699D02*
X439263Y283699D01*
X439263Y285005D02*
X435137Y285005D01*
X435137Y286311D02*
X439263Y286311D01*
X439263Y287617D02*
X435137Y287617D01*
X435137Y288923D02*
X439263Y288923D01*
X439263Y290229D02*
X435137Y290229D01*
X435137Y291535D02*
X439263Y291535D01*
X439263Y292841D02*
X435137Y292841D01*
X435137Y294147D02*
X439263Y294147D01*
X439263Y295453D02*
X435137Y295453D01*
X447263Y295713D02*
X447263Y281087D01*
X443137Y281087D01*
X443137Y295713D01*
X447263Y295713D01*
X447263Y282393D02*
X443137Y282393D01*
X443137Y283699D02*
X447263Y283699D01*
X447263Y285005D02*
X443137Y285005D01*
X443137Y286311D02*
X447263Y286311D01*
X447263Y287617D02*
X443137Y287617D01*
X443137Y288923D02*
X447263Y288923D01*
X447263Y290229D02*
X443137Y290229D01*
X443137Y291535D02*
X447263Y291535D01*
X447263Y292841D02*
X443137Y292841D01*
X443137Y294147D02*
X447263Y294147D01*
X447263Y295453D02*
X443137Y295453D01*
X455263Y295713D02*
X455263Y281087D01*
X451137Y281087D01*
X451137Y295713D01*
X455263Y295713D01*
X455263Y282393D02*
X451137Y282393D01*
X451137Y283699D02*
X455263Y283699D01*
X455263Y285005D02*
X451137Y285005D01*
X451137Y286311D02*
X455263Y286311D01*
X455263Y287617D02*
X451137Y287617D01*
X451137Y288923D02*
X455263Y288923D01*
X455263Y290229D02*
X451137Y290229D01*
X451137Y291535D02*
X455263Y291535D01*
X455263Y292841D02*
X451137Y292841D01*
X451137Y294147D02*
X455263Y294147D01*
X455263Y295453D02*
X451137Y295453D01*
X463263Y295713D02*
X463263Y281087D01*
X459137Y281087D01*
X459137Y295713D01*
X463263Y295713D01*
X463263Y282393D02*
X459137Y282393D01*
X459137Y283699D02*
X463263Y283699D01*
X463263Y285005D02*
X459137Y285005D01*
X459137Y286311D02*
X463263Y286311D01*
X463263Y287617D02*
X459137Y287617D01*
X459137Y288923D02*
X463263Y288923D01*
X463263Y290229D02*
X459137Y290229D01*
X459137Y291535D02*
X463263Y291535D01*
X463263Y292841D02*
X459137Y292841D01*
X459137Y294147D02*
X463263Y294147D01*
X463263Y295453D02*
X459137Y295453D01*
X471263Y295713D02*
X471263Y281087D01*
X467137Y281087D01*
X467137Y295713D01*
X471263Y295713D01*
X471263Y282393D02*
X467137Y282393D01*
X467137Y283699D02*
X471263Y283699D01*
X471263Y285005D02*
X467137Y285005D01*
X467137Y286311D02*
X471263Y286311D01*
X471263Y287617D02*
X467137Y287617D01*
X467137Y288923D02*
X471263Y288923D01*
X471263Y290229D02*
X467137Y290229D01*
X467137Y291535D02*
X471263Y291535D01*
X471263Y292841D02*
X467137Y292841D01*
X467137Y294147D02*
X471263Y294147D01*
X471263Y295453D02*
X467137Y295453D01*
X479263Y295713D02*
X479263Y281087D01*
X475137Y281087D01*
X475137Y295713D01*
X479263Y295713D01*
X479263Y282393D02*
X475137Y282393D01*
X475137Y283699D02*
X479263Y283699D01*
X479263Y285005D02*
X475137Y285005D01*
X475137Y286311D02*
X479263Y286311D01*
X479263Y287617D02*
X475137Y287617D01*
X475137Y288923D02*
X479263Y288923D01*
X479263Y290229D02*
X475137Y290229D01*
X475137Y291535D02*
X479263Y291535D01*
X479263Y292841D02*
X475137Y292841D01*
X475137Y294147D02*
X479263Y294147D01*
X479263Y295453D02*
X475137Y295453D01*
X487263Y295713D02*
X487263Y281087D01*
X483137Y281087D01*
X483137Y295713D01*
X487263Y295713D01*
X487263Y282393D02*
X483137Y282393D01*
X483137Y283699D02*
X487263Y283699D01*
X487263Y285005D02*
X483137Y285005D01*
X483137Y286311D02*
X487263Y286311D01*
X487263Y287617D02*
X483137Y287617D01*
X483137Y288923D02*
X487263Y288923D01*
X487263Y290229D02*
X483137Y290229D01*
X483137Y291535D02*
X487263Y291535D01*
X487263Y292841D02*
X483137Y292841D01*
X483137Y294147D02*
X487263Y294147D01*
X487263Y295453D02*
X483137Y295453D01*
X491687Y304263D02*
X506313Y304263D01*
X506313Y300137D01*
X491687Y300137D01*
X491687Y304263D01*
X491687Y301443D02*
X506313Y301443D01*
X506313Y302749D02*
X491687Y302749D01*
X491687Y304055D02*
X506313Y304055D01*
X506313Y312263D02*
X491687Y312263D01*
X506313Y312263D02*
X506313Y308137D01*
X491687Y308137D01*
X491687Y312263D01*
X491687Y309443D02*
X506313Y309443D01*
X506313Y310749D02*
X491687Y310749D01*
X491687Y312055D02*
X506313Y312055D01*
X506313Y320263D02*
X491687Y320263D01*
X506313Y320263D02*
X506313Y316137D01*
X491687Y316137D01*
X491687Y320263D01*
X491687Y317443D02*
X506313Y317443D01*
X506313Y318749D02*
X491687Y318749D01*
X491687Y320055D02*
X506313Y320055D01*
X506313Y328263D02*
X491687Y328263D01*
X506313Y328263D02*
X506313Y324137D01*
X491687Y324137D01*
X491687Y328263D01*
X491687Y325443D02*
X506313Y325443D01*
X506313Y326749D02*
X491687Y326749D01*
X491687Y328055D02*
X506313Y328055D01*
X506313Y336263D02*
X491687Y336263D01*
X506313Y336263D02*
X506313Y332137D01*
X491687Y332137D01*
X491687Y336263D01*
X491687Y333443D02*
X506313Y333443D01*
X506313Y334749D02*
X491687Y334749D01*
X491687Y336055D02*
X506313Y336055D01*
X506313Y344263D02*
X491687Y344263D01*
X506313Y344263D02*
X506313Y340137D01*
X491687Y340137D01*
X491687Y344263D01*
X491687Y341443D02*
X506313Y341443D01*
X506313Y342749D02*
X491687Y342749D01*
X491687Y344055D02*
X506313Y344055D01*
X506313Y352263D02*
X491687Y352263D01*
X506313Y352263D02*
X506313Y348137D01*
X491687Y348137D01*
X491687Y352263D01*
X491687Y349443D02*
X506313Y349443D01*
X506313Y350749D02*
X491687Y350749D01*
X491687Y352055D02*
X506313Y352055D01*
X506313Y360263D02*
X491687Y360263D01*
X506313Y360263D02*
X506313Y356137D01*
X491687Y356137D01*
X491687Y360263D01*
X491687Y357443D02*
X506313Y357443D01*
X506313Y358749D02*
X491687Y358749D01*
X491687Y360055D02*
X506313Y360055D01*
X483137Y364687D02*
X483137Y379313D01*
X487263Y379313D01*
X487263Y364687D01*
X483137Y364687D01*
X483137Y365993D02*
X487263Y365993D01*
X487263Y367299D02*
X483137Y367299D01*
X483137Y368605D02*
X487263Y368605D01*
X487263Y369911D02*
X483137Y369911D01*
X483137Y371217D02*
X487263Y371217D01*
X487263Y372523D02*
X483137Y372523D01*
X483137Y373829D02*
X487263Y373829D01*
X487263Y375135D02*
X483137Y375135D01*
X483137Y376441D02*
X487263Y376441D01*
X487263Y377747D02*
X483137Y377747D01*
X483137Y379053D02*
X487263Y379053D01*
X475137Y379313D02*
X475137Y364687D01*
X475137Y379313D02*
X479263Y379313D01*
X479263Y364687D01*
X475137Y364687D01*
X475137Y365993D02*
X479263Y365993D01*
X479263Y367299D02*
X475137Y367299D01*
X475137Y368605D02*
X479263Y368605D01*
X479263Y369911D02*
X475137Y369911D01*
X475137Y371217D02*
X479263Y371217D01*
X479263Y372523D02*
X475137Y372523D01*
X475137Y373829D02*
X479263Y373829D01*
X479263Y375135D02*
X475137Y375135D01*
X475137Y376441D02*
X479263Y376441D01*
X479263Y377747D02*
X475137Y377747D01*
X475137Y379053D02*
X479263Y379053D01*
X467137Y379313D02*
X467137Y364687D01*
X467137Y379313D02*
X471263Y379313D01*
X471263Y364687D01*
X467137Y364687D01*
X467137Y365993D02*
X471263Y365993D01*
X471263Y367299D02*
X467137Y367299D01*
X467137Y368605D02*
X471263Y368605D01*
X471263Y369911D02*
X467137Y369911D01*
X467137Y371217D02*
X471263Y371217D01*
X471263Y372523D02*
X467137Y372523D01*
X467137Y373829D02*
X471263Y373829D01*
X471263Y375135D02*
X467137Y375135D01*
X467137Y376441D02*
X471263Y376441D01*
X471263Y377747D02*
X467137Y377747D01*
X467137Y379053D02*
X471263Y379053D01*
X459137Y379313D02*
X459137Y364687D01*
X459137Y379313D02*
X463263Y379313D01*
X463263Y364687D01*
X459137Y364687D01*
X459137Y365993D02*
X463263Y365993D01*
X463263Y367299D02*
X459137Y367299D01*
X459137Y368605D02*
X463263Y368605D01*
X463263Y369911D02*
X459137Y369911D01*
X459137Y371217D02*
X463263Y371217D01*
X463263Y372523D02*
X459137Y372523D01*
X459137Y373829D02*
X463263Y373829D01*
X463263Y375135D02*
X459137Y375135D01*
X459137Y376441D02*
X463263Y376441D01*
X463263Y377747D02*
X459137Y377747D01*
X459137Y379053D02*
X463263Y379053D01*
X451137Y379313D02*
X451137Y364687D01*
X451137Y379313D02*
X455263Y379313D01*
X455263Y364687D01*
X451137Y364687D01*
X451137Y365993D02*
X455263Y365993D01*
X455263Y367299D02*
X451137Y367299D01*
X451137Y368605D02*
X455263Y368605D01*
X455263Y369911D02*
X451137Y369911D01*
X451137Y371217D02*
X455263Y371217D01*
X455263Y372523D02*
X451137Y372523D01*
X451137Y373829D02*
X455263Y373829D01*
X455263Y375135D02*
X451137Y375135D01*
X451137Y376441D02*
X455263Y376441D01*
X455263Y377747D02*
X451137Y377747D01*
X451137Y379053D02*
X455263Y379053D01*
X443137Y379313D02*
X443137Y364687D01*
X443137Y379313D02*
X447263Y379313D01*
X447263Y364687D01*
X443137Y364687D01*
X443137Y365993D02*
X447263Y365993D01*
X447263Y367299D02*
X443137Y367299D01*
X443137Y368605D02*
X447263Y368605D01*
X447263Y369911D02*
X443137Y369911D01*
X443137Y371217D02*
X447263Y371217D01*
X447263Y372523D02*
X443137Y372523D01*
X443137Y373829D02*
X447263Y373829D01*
X447263Y375135D02*
X443137Y375135D01*
X443137Y376441D02*
X447263Y376441D01*
X447263Y377747D02*
X443137Y377747D01*
X443137Y379053D02*
X447263Y379053D01*
X435137Y379313D02*
X435137Y364687D01*
X435137Y379313D02*
X439263Y379313D01*
X439263Y364687D01*
X435137Y364687D01*
X435137Y365993D02*
X439263Y365993D01*
X439263Y367299D02*
X435137Y367299D01*
X435137Y368605D02*
X439263Y368605D01*
X439263Y369911D02*
X435137Y369911D01*
X435137Y371217D02*
X439263Y371217D01*
X439263Y372523D02*
X435137Y372523D01*
X435137Y373829D02*
X439263Y373829D01*
X439263Y375135D02*
X435137Y375135D01*
X435137Y376441D02*
X439263Y376441D01*
X439263Y377747D02*
X435137Y377747D01*
X435137Y379053D02*
X439263Y379053D01*
X427137Y379313D02*
X427137Y364687D01*
X427137Y379313D02*
X431263Y379313D01*
X431263Y364687D01*
X427137Y364687D01*
X427137Y365993D02*
X431263Y365993D01*
X431263Y367299D02*
X427137Y367299D01*
X427137Y368605D02*
X431263Y368605D01*
X431263Y369911D02*
X427137Y369911D01*
X427137Y371217D02*
X431263Y371217D01*
X431263Y372523D02*
X427137Y372523D01*
X427137Y373829D02*
X431263Y373829D01*
X431263Y375135D02*
X427137Y375135D01*
X427137Y376441D02*
X431263Y376441D01*
X431263Y377747D02*
X427137Y377747D01*
X427137Y379053D02*
X431263Y379053D01*
M02*
