G04 EAGLE Gerber RS-274X export*
G75*
%MOMM*%
%FSLAX34Y34*%
%LPD*%
%INTop Copper*%
%IPPOS*%
%AMOC8*
5,1,8,0,0,1.08239X$1,22.5*%
G01*
%ADD10C,0.050800*%
%ADD11R,1.000000X1.050000*%
%ADD12R,1.050000X2.200000*%
%ADD13P,1.649562X8X112.500000*%
%ADD14R,1.950000X1.050000*%
%ADD15C,0.304800*%

G36*
X356442Y10164D02*
X356442Y10164D01*
X356468Y10162D01*
X356615Y10184D01*
X356762Y10201D01*
X356787Y10209D01*
X356813Y10213D01*
X356951Y10268D01*
X357090Y10318D01*
X357112Y10332D01*
X357137Y10342D01*
X357258Y10427D01*
X357383Y10507D01*
X357401Y10526D01*
X357423Y10541D01*
X357522Y10651D01*
X357625Y10758D01*
X357639Y10780D01*
X357656Y10800D01*
X357728Y10930D01*
X357804Y11057D01*
X357812Y11082D01*
X357825Y11105D01*
X357865Y11248D01*
X357910Y11389D01*
X357912Y11415D01*
X357920Y11440D01*
X357939Y11684D01*
X357939Y454916D01*
X357936Y454942D01*
X357938Y454968D01*
X357916Y455115D01*
X357899Y455262D01*
X357891Y455287D01*
X357887Y455313D01*
X357832Y455451D01*
X357782Y455590D01*
X357768Y455612D01*
X357758Y455637D01*
X357673Y455758D01*
X357593Y455883D01*
X357574Y455901D01*
X357559Y455923D01*
X357449Y456022D01*
X357342Y456125D01*
X357320Y456139D01*
X357300Y456156D01*
X357170Y456228D01*
X357043Y456304D01*
X357018Y456312D01*
X356995Y456325D01*
X356852Y456365D01*
X356711Y456410D01*
X356685Y456412D01*
X356660Y456420D01*
X356416Y456439D01*
X100584Y456439D01*
X100558Y456436D01*
X100532Y456438D01*
X100385Y456416D01*
X100238Y456399D01*
X100213Y456391D01*
X100187Y456387D01*
X100049Y456332D01*
X99910Y456282D01*
X99888Y456268D01*
X99863Y456258D01*
X99742Y456173D01*
X99617Y456093D01*
X99599Y456074D01*
X99577Y456059D01*
X99478Y455949D01*
X99375Y455842D01*
X99361Y455820D01*
X99344Y455800D01*
X99272Y455670D01*
X99196Y455543D01*
X99188Y455518D01*
X99175Y455495D01*
X99135Y455352D01*
X99090Y455211D01*
X99088Y455185D01*
X99080Y455160D01*
X99061Y454916D01*
X99061Y11684D01*
X99064Y11658D01*
X99062Y11632D01*
X99084Y11485D01*
X99101Y11338D01*
X99109Y11313D01*
X99113Y11287D01*
X99168Y11149D01*
X99218Y11010D01*
X99232Y10988D01*
X99242Y10963D01*
X99327Y10842D01*
X99407Y10717D01*
X99426Y10699D01*
X99441Y10677D01*
X99551Y10578D01*
X99658Y10475D01*
X99680Y10461D01*
X99700Y10444D01*
X99830Y10372D01*
X99957Y10296D01*
X99982Y10288D01*
X100005Y10275D01*
X100148Y10235D01*
X100289Y10190D01*
X100315Y10188D01*
X100340Y10180D01*
X100584Y10161D01*
X356416Y10161D01*
X356442Y10164D01*
G37*
%LPC*%
G36*
X144218Y133725D02*
X144218Y133725D01*
X143325Y134618D01*
X143325Y146382D01*
X143497Y146553D01*
X143559Y146631D01*
X143629Y146704D01*
X143667Y146768D01*
X143713Y146826D01*
X143756Y146917D01*
X143808Y147003D01*
X143830Y147074D01*
X143862Y147141D01*
X143883Y147239D01*
X143914Y147335D01*
X143920Y147409D01*
X143936Y147482D01*
X143934Y147582D01*
X143942Y147682D01*
X143931Y147756D01*
X143930Y147830D01*
X143905Y147927D01*
X143890Y148027D01*
X143863Y148096D01*
X143845Y148168D01*
X143799Y148257D01*
X143761Y148351D01*
X143719Y148412D01*
X143685Y148478D01*
X143620Y148555D01*
X143563Y148637D01*
X143507Y148687D01*
X143459Y148743D01*
X143378Y148803D01*
X143304Y148870D01*
X143239Y148906D01*
X143179Y148951D01*
X143087Y148990D01*
X142999Y149039D01*
X142927Y149059D01*
X142859Y149089D01*
X142760Y149106D01*
X142663Y149134D01*
X142563Y149142D01*
X142516Y149150D01*
X142480Y149148D01*
X142420Y149153D01*
X142325Y149153D01*
X138753Y152725D01*
X138753Y168275D01*
X140093Y169615D01*
X142629Y172151D01*
X142691Y172229D01*
X142761Y172302D01*
X142799Y172366D01*
X142845Y172424D01*
X142888Y172515D01*
X142940Y172601D01*
X142963Y172672D01*
X142994Y172739D01*
X143016Y172837D01*
X143046Y172933D01*
X143052Y173007D01*
X143068Y173080D01*
X143066Y173180D01*
X143074Y173280D01*
X143063Y173354D01*
X143062Y173428D01*
X143037Y173525D01*
X143022Y173625D01*
X142995Y173694D01*
X142977Y173766D01*
X142931Y173855D01*
X142894Y173949D01*
X142851Y174010D01*
X142817Y174076D01*
X142752Y174152D01*
X142695Y174235D01*
X142640Y174285D01*
X142591Y174341D01*
X142511Y174401D01*
X142436Y174468D01*
X142371Y174504D01*
X142311Y174549D01*
X142219Y174588D01*
X142131Y174637D01*
X142059Y174657D01*
X141991Y174687D01*
X141892Y174704D01*
X141796Y174732D01*
X141696Y174740D01*
X141648Y174748D01*
X141612Y174746D01*
X141552Y174751D01*
X125737Y174751D01*
X111251Y189237D01*
X111251Y331463D01*
X125737Y345949D01*
X205385Y345949D01*
X205511Y345963D01*
X205637Y345970D01*
X205683Y345983D01*
X205731Y345989D01*
X205850Y346031D01*
X205972Y346066D01*
X206014Y346090D01*
X206059Y346106D01*
X206166Y346175D01*
X206276Y346236D01*
X206322Y346276D01*
X206352Y346295D01*
X206386Y346330D01*
X206462Y346395D01*
X212112Y352045D01*
X219688Y352045D01*
X225045Y346688D01*
X225045Y339112D01*
X219688Y333755D01*
X212112Y333755D01*
X206462Y339405D01*
X206363Y339484D01*
X206269Y339568D01*
X206227Y339592D01*
X206189Y339622D01*
X206075Y339676D01*
X205964Y339737D01*
X205918Y339750D01*
X205874Y339771D01*
X205751Y339797D01*
X205629Y339832D01*
X205568Y339837D01*
X205533Y339844D01*
X205485Y339843D01*
X205385Y339851D01*
X128894Y339851D01*
X128768Y339837D01*
X128642Y339830D01*
X128596Y339817D01*
X128548Y339811D01*
X128429Y339769D01*
X128307Y339734D01*
X128265Y339710D01*
X128219Y339694D01*
X128113Y339625D01*
X128003Y339564D01*
X127957Y339524D01*
X127927Y339505D01*
X127893Y339470D01*
X127817Y339405D01*
X117795Y329383D01*
X117716Y329284D01*
X117632Y329190D01*
X117608Y329148D01*
X117578Y329110D01*
X117524Y328996D01*
X117463Y328885D01*
X117450Y328839D01*
X117429Y328795D01*
X117403Y328672D01*
X117368Y328550D01*
X117363Y328489D01*
X117356Y328454D01*
X117357Y328406D01*
X117349Y328306D01*
X117349Y192394D01*
X117363Y192268D01*
X117370Y192142D01*
X117383Y192096D01*
X117389Y192048D01*
X117431Y191929D01*
X117466Y191807D01*
X117490Y191765D01*
X117506Y191719D01*
X117575Y191613D01*
X117636Y191503D01*
X117676Y191457D01*
X117695Y191427D01*
X117730Y191393D01*
X117795Y191317D01*
X127817Y181295D01*
X127916Y181216D01*
X128010Y181132D01*
X128052Y181108D01*
X128090Y181078D01*
X128204Y181024D01*
X128315Y180963D01*
X128361Y180950D01*
X128405Y180929D01*
X128528Y180903D01*
X128650Y180868D01*
X128711Y180863D01*
X128746Y180856D01*
X128794Y180857D01*
X128894Y180849D01*
X141802Y180849D01*
X141828Y180852D01*
X141854Y180850D01*
X142001Y180872D01*
X142148Y180889D01*
X142173Y180897D01*
X142199Y180901D01*
X142337Y180956D01*
X142476Y181006D01*
X142498Y181020D01*
X142523Y181030D01*
X142644Y181115D01*
X142769Y181195D01*
X142787Y181214D01*
X142809Y181229D01*
X142908Y181339D01*
X143011Y181446D01*
X143025Y181468D01*
X143042Y181488D01*
X143114Y181618D01*
X143190Y181745D01*
X143198Y181770D01*
X143211Y181793D01*
X143251Y181936D01*
X143296Y182077D01*
X143298Y182103D01*
X143306Y182128D01*
X143325Y182372D01*
X143325Y186382D01*
X144218Y187275D01*
X162826Y187275D01*
X162852Y187278D01*
X162878Y187276D01*
X163025Y187298D01*
X163172Y187315D01*
X163197Y187323D01*
X163223Y187327D01*
X163361Y187382D01*
X163500Y187432D01*
X163522Y187446D01*
X163547Y187456D01*
X163668Y187541D01*
X163793Y187621D01*
X163811Y187640D01*
X163833Y187655D01*
X163932Y187765D01*
X164035Y187872D01*
X164049Y187894D01*
X164066Y187914D01*
X164138Y188044D01*
X164214Y188171D01*
X164222Y188196D01*
X164235Y188219D01*
X164275Y188361D01*
X164320Y188503D01*
X164322Y188529D01*
X164330Y188554D01*
X164349Y188798D01*
X164349Y192202D01*
X164346Y192228D01*
X164348Y192254D01*
X164326Y192401D01*
X164309Y192548D01*
X164301Y192573D01*
X164297Y192599D01*
X164242Y192737D01*
X164192Y192876D01*
X164178Y192898D01*
X164168Y192923D01*
X164083Y193044D01*
X164003Y193169D01*
X163984Y193187D01*
X163969Y193209D01*
X163859Y193308D01*
X163752Y193411D01*
X163730Y193425D01*
X163710Y193442D01*
X163580Y193514D01*
X163453Y193590D01*
X163428Y193598D01*
X163405Y193611D01*
X163262Y193651D01*
X163121Y193696D01*
X163095Y193698D01*
X163070Y193706D01*
X162826Y193725D01*
X144218Y193725D01*
X143325Y194618D01*
X143325Y195928D01*
X143322Y195954D01*
X143324Y195980D01*
X143302Y196127D01*
X143285Y196274D01*
X143277Y196299D01*
X143273Y196325D01*
X143218Y196463D01*
X143168Y196602D01*
X143154Y196624D01*
X143144Y196649D01*
X143059Y196770D01*
X142979Y196895D01*
X142960Y196913D01*
X142945Y196935D01*
X142835Y197034D01*
X142728Y197137D01*
X142706Y197151D01*
X142686Y197168D01*
X142556Y197240D01*
X142429Y197316D01*
X142404Y197324D01*
X142381Y197337D01*
X142238Y197377D01*
X142097Y197422D01*
X142071Y197424D01*
X142046Y197432D01*
X141802Y197451D01*
X141137Y197451D01*
X133041Y205548D01*
X133041Y242563D01*
X140093Y249615D01*
X142485Y252007D01*
X142486Y252008D01*
X142487Y252009D01*
X142597Y252148D01*
X142702Y252280D01*
X142702Y252281D01*
X142703Y252282D01*
X142777Y252439D01*
X142850Y252595D01*
X142851Y252596D01*
X142851Y252598D01*
X142887Y252766D01*
X142924Y252936D01*
X142924Y252937D01*
X142924Y252939D01*
X142921Y253122D01*
X142918Y253284D01*
X142918Y253285D01*
X142918Y253287D01*
X142874Y253458D01*
X142833Y253622D01*
X142832Y253623D01*
X142832Y253625D01*
X142727Y253846D01*
X142482Y254269D01*
X142309Y254915D01*
X142309Y257876D01*
X153499Y257876D01*
X153525Y257879D01*
X153551Y257877D01*
X153698Y257899D01*
X153845Y257916D01*
X153870Y257924D01*
X153896Y257928D01*
X154033Y257983D01*
X154173Y258033D01*
X154195Y258047D01*
X154220Y258057D01*
X154341Y258142D01*
X154466Y258222D01*
X154484Y258241D01*
X154506Y258256D01*
X154597Y258357D01*
X154668Y258293D01*
X154775Y258190D01*
X154798Y258176D01*
X154817Y258159D01*
X154947Y258087D01*
X155074Y258011D01*
X155099Y258003D01*
X155122Y257990D01*
X155265Y257950D01*
X155406Y257905D01*
X155432Y257902D01*
X155457Y257895D01*
X155701Y257876D01*
X166891Y257876D01*
X166891Y254915D01*
X166718Y254269D01*
X166638Y254132D01*
X166608Y254062D01*
X166569Y253997D01*
X166539Y253903D01*
X166500Y253812D01*
X166486Y253737D01*
X166463Y253665D01*
X166455Y253567D01*
X166437Y253469D01*
X166441Y253393D01*
X166435Y253318D01*
X166450Y253220D01*
X166454Y253121D01*
X166475Y253048D01*
X166487Y252973D01*
X166523Y252881D01*
X166550Y252786D01*
X166587Y252720D01*
X166615Y252649D01*
X166672Y252568D01*
X166720Y252481D01*
X166771Y252425D01*
X166814Y252363D01*
X166888Y252297D01*
X166954Y252224D01*
X167017Y252180D01*
X167073Y252130D01*
X167160Y252082D01*
X167241Y252026D01*
X167312Y251998D01*
X167378Y251961D01*
X167473Y251934D01*
X167565Y251898D01*
X167640Y251887D01*
X167713Y251866D01*
X167864Y251854D01*
X167910Y251847D01*
X167929Y251849D01*
X167957Y251847D01*
X196104Y251847D01*
X196230Y251861D01*
X196356Y251868D01*
X196402Y251881D01*
X196450Y251887D01*
X196569Y251929D01*
X196691Y251964D01*
X196733Y251988D01*
X196779Y252004D01*
X196885Y252073D01*
X196995Y252134D01*
X197041Y252174D01*
X197071Y252193D01*
X197105Y252228D01*
X197181Y252293D01*
X212405Y267517D01*
X212484Y267616D01*
X212568Y267710D01*
X212592Y267752D01*
X212622Y267790D01*
X212676Y267904D01*
X212737Y268015D01*
X212750Y268061D01*
X212771Y268105D01*
X212797Y268228D01*
X212832Y268350D01*
X212837Y268411D01*
X212844Y268446D01*
X212843Y268494D01*
X212851Y268594D01*
X212851Y306985D01*
X212837Y307111D01*
X212830Y307237D01*
X212817Y307283D01*
X212811Y307331D01*
X212769Y307450D01*
X212734Y307572D01*
X212710Y307614D01*
X212694Y307660D01*
X212625Y307766D01*
X212564Y307876D01*
X212524Y307922D01*
X212505Y307952D01*
X212470Y307986D01*
X212405Y308062D01*
X206755Y313712D01*
X206755Y321288D01*
X212112Y326645D01*
X219688Y326645D01*
X225045Y321288D01*
X225045Y313712D01*
X219395Y308062D01*
X219316Y307963D01*
X219232Y307869D01*
X219208Y307827D01*
X219178Y307789D01*
X219124Y307675D01*
X219063Y307564D01*
X219050Y307518D01*
X219029Y307474D01*
X219003Y307351D01*
X218968Y307229D01*
X218963Y307168D01*
X218956Y307134D01*
X218957Y307085D01*
X218949Y306985D01*
X218949Y265437D01*
X199261Y245749D01*
X167398Y245749D01*
X167372Y245746D01*
X167346Y245748D01*
X167199Y245726D01*
X167052Y245709D01*
X167027Y245701D01*
X167001Y245697D01*
X166863Y245642D01*
X166724Y245592D01*
X166702Y245578D01*
X166677Y245568D01*
X166556Y245483D01*
X166431Y245403D01*
X166413Y245384D01*
X166391Y245369D01*
X166292Y245259D01*
X166189Y245152D01*
X166175Y245130D01*
X166158Y245110D01*
X166086Y244980D01*
X166010Y244853D01*
X166002Y244828D01*
X165989Y244805D01*
X165949Y244662D01*
X165904Y244521D01*
X165902Y244495D01*
X165894Y244470D01*
X165875Y244226D01*
X165875Y234618D01*
X164982Y233725D01*
X153457Y233725D01*
X153332Y233711D01*
X153206Y233704D01*
X153159Y233691D01*
X153111Y233685D01*
X152992Y233643D01*
X152871Y233608D01*
X152829Y233584D01*
X152783Y233568D01*
X152677Y233499D01*
X152566Y233438D01*
X152520Y233398D01*
X152490Y233379D01*
X152457Y233344D01*
X152380Y233279D01*
X148976Y229875D01*
X148914Y229797D01*
X148844Y229724D01*
X148806Y229660D01*
X148760Y229602D01*
X148717Y229511D01*
X148665Y229425D01*
X148642Y229354D01*
X148611Y229287D01*
X148589Y229189D01*
X148559Y229093D01*
X148553Y229019D01*
X148537Y228946D01*
X148539Y228846D01*
X148531Y228746D01*
X148542Y228672D01*
X148543Y228598D01*
X148568Y228501D01*
X148583Y228401D01*
X148610Y228332D01*
X148628Y228260D01*
X148674Y228171D01*
X148711Y228077D01*
X148754Y228016D01*
X148788Y227950D01*
X148853Y227874D01*
X148910Y227791D01*
X148965Y227741D01*
X149014Y227685D01*
X149094Y227625D01*
X149169Y227558D01*
X149234Y227522D01*
X149294Y227477D01*
X149386Y227438D01*
X149474Y227389D01*
X149546Y227369D01*
X149614Y227339D01*
X149713Y227322D01*
X149809Y227294D01*
X149909Y227286D01*
X149957Y227278D01*
X149993Y227280D01*
X150053Y227275D01*
X164982Y227275D01*
X165875Y226382D01*
X165875Y225072D01*
X165878Y225046D01*
X165876Y225020D01*
X165898Y224873D01*
X165915Y224726D01*
X165923Y224701D01*
X165927Y224675D01*
X165982Y224537D01*
X166032Y224398D01*
X166046Y224376D01*
X166056Y224351D01*
X166141Y224230D01*
X166221Y224105D01*
X166240Y224087D01*
X166255Y224065D01*
X166365Y223966D01*
X166472Y223863D01*
X166494Y223849D01*
X166514Y223832D01*
X166644Y223760D01*
X166771Y223684D01*
X166796Y223676D01*
X166819Y223663D01*
X166962Y223623D01*
X167103Y223578D01*
X167129Y223576D01*
X167154Y223568D01*
X167398Y223549D01*
X231306Y223549D01*
X231432Y223563D01*
X231558Y223570D01*
X231604Y223583D01*
X231652Y223589D01*
X231771Y223631D01*
X231893Y223666D01*
X231935Y223690D01*
X231981Y223706D01*
X232087Y223775D01*
X232197Y223836D01*
X232243Y223876D01*
X232273Y223895D01*
X232307Y223930D01*
X232383Y223995D01*
X237805Y229417D01*
X237884Y229516D01*
X237968Y229610D01*
X237992Y229652D01*
X238022Y229690D01*
X238076Y229804D01*
X238137Y229915D01*
X238150Y229961D01*
X238171Y230005D01*
X238197Y230128D01*
X238232Y230250D01*
X238237Y230311D01*
X238244Y230346D01*
X238243Y230394D01*
X238251Y230494D01*
X238251Y306985D01*
X238237Y307111D01*
X238230Y307237D01*
X238217Y307283D01*
X238211Y307331D01*
X238169Y307450D01*
X238134Y307572D01*
X238110Y307614D01*
X238094Y307660D01*
X238025Y307766D01*
X237964Y307876D01*
X237924Y307922D01*
X237905Y307952D01*
X237870Y307986D01*
X237805Y308062D01*
X232155Y313712D01*
X232155Y321288D01*
X237512Y326645D01*
X239253Y326645D01*
X239353Y326656D01*
X239453Y326658D01*
X239525Y326676D01*
X239599Y326685D01*
X239694Y326718D01*
X239791Y326743D01*
X239857Y326777D01*
X239927Y326802D01*
X240012Y326857D01*
X240101Y326903D01*
X240158Y326951D01*
X240220Y326991D01*
X240290Y327063D01*
X240367Y327128D01*
X240411Y327188D01*
X240462Y327242D01*
X240514Y327328D01*
X240574Y327409D01*
X240603Y327477D01*
X240641Y327541D01*
X240672Y327637D01*
X240712Y327729D01*
X240725Y327802D01*
X240748Y327873D01*
X240756Y327973D01*
X240773Y328072D01*
X240770Y328146D01*
X240775Y328220D01*
X240761Y328320D01*
X240755Y328420D01*
X240735Y328491D01*
X240724Y328565D01*
X240687Y328658D01*
X240659Y328755D01*
X240623Y328820D01*
X240595Y328889D01*
X240538Y328971D01*
X240489Y329059D01*
X240424Y329135D01*
X240396Y329175D01*
X240370Y329199D01*
X240330Y329245D01*
X238251Y331324D01*
X238251Y332385D01*
X238237Y332511D01*
X238230Y332637D01*
X238217Y332683D01*
X238211Y332731D01*
X238169Y332850D01*
X238134Y332972D01*
X238110Y333014D01*
X238094Y333060D01*
X238025Y333166D01*
X237964Y333276D01*
X237924Y333322D01*
X237905Y333352D01*
X237870Y333386D01*
X237805Y333462D01*
X232155Y339112D01*
X232155Y346688D01*
X233386Y347919D01*
X233449Y347998D01*
X233519Y348070D01*
X233557Y348134D01*
X233603Y348192D01*
X233646Y348283D01*
X233697Y348369D01*
X233720Y348440D01*
X233752Y348507D01*
X233773Y348605D01*
X233804Y348701D01*
X233810Y348775D01*
X233825Y348848D01*
X233824Y348948D01*
X233832Y349048D01*
X233821Y349122D01*
X233819Y349196D01*
X233795Y349293D01*
X233780Y349393D01*
X233752Y349462D01*
X233734Y349534D01*
X233688Y349623D01*
X233651Y349717D01*
X233609Y349778D01*
X233575Y349844D01*
X233510Y349920D01*
X233452Y350003D01*
X233397Y350053D01*
X233349Y350109D01*
X233268Y350169D01*
X233193Y350236D01*
X233128Y350272D01*
X233069Y350317D01*
X232976Y350356D01*
X232888Y350405D01*
X232817Y350425D01*
X232749Y350455D01*
X232650Y350472D01*
X232553Y350500D01*
X232453Y350508D01*
X232405Y350516D01*
X232370Y350514D01*
X232309Y350519D01*
X229369Y350519D01*
X221179Y358709D01*
X221080Y358788D01*
X220986Y358872D01*
X220944Y358896D01*
X220906Y358926D01*
X220792Y358980D01*
X220681Y359041D01*
X220635Y359054D01*
X220591Y359075D01*
X220468Y359101D01*
X220346Y359136D01*
X220285Y359141D01*
X220250Y359148D01*
X220202Y359147D01*
X220102Y359155D01*
X212112Y359155D01*
X206755Y364512D01*
X206755Y372088D01*
X212112Y377445D01*
X219688Y377445D01*
X225045Y372088D01*
X225045Y364098D01*
X225059Y363972D01*
X225066Y363846D01*
X225079Y363800D01*
X225085Y363752D01*
X225127Y363633D01*
X225162Y363511D01*
X225186Y363469D01*
X225202Y363423D01*
X225271Y363317D01*
X225332Y363207D01*
X225372Y363161D01*
X225391Y363131D01*
X225426Y363097D01*
X225491Y363021D01*
X231449Y357063D01*
X231548Y356984D01*
X231642Y356900D01*
X231684Y356876D01*
X231722Y356846D01*
X231836Y356792D01*
X231947Y356731D01*
X231993Y356718D01*
X232037Y356697D01*
X232160Y356671D01*
X232282Y356636D01*
X232343Y356631D01*
X232378Y356624D01*
X232426Y356625D01*
X232526Y356617D01*
X236373Y356617D01*
X236473Y356628D01*
X236573Y356630D01*
X236646Y356648D01*
X236719Y356657D01*
X236814Y356690D01*
X236911Y356715D01*
X236978Y356749D01*
X237048Y356774D01*
X237132Y356829D01*
X237221Y356875D01*
X237278Y356923D01*
X237340Y356963D01*
X237410Y357035D01*
X237487Y357100D01*
X237531Y357160D01*
X237583Y357214D01*
X237634Y357300D01*
X237694Y357381D01*
X237723Y357449D01*
X237761Y357513D01*
X237792Y357609D01*
X237832Y357701D01*
X237845Y357774D01*
X237868Y357845D01*
X237876Y357945D01*
X237893Y358044D01*
X237890Y358118D01*
X237896Y358192D01*
X237881Y358292D01*
X237876Y358392D01*
X237855Y358463D01*
X237844Y358537D01*
X237807Y358630D01*
X237779Y358727D01*
X237743Y358792D01*
X237715Y358861D01*
X237658Y358943D01*
X237609Y359031D01*
X237544Y359107D01*
X237516Y359147D01*
X237490Y359171D01*
X237450Y359217D01*
X232155Y364512D01*
X232155Y372088D01*
X237512Y377445D01*
X245088Y377445D01*
X250738Y371795D01*
X250837Y371716D01*
X250931Y371632D01*
X250973Y371608D01*
X251011Y371578D01*
X251125Y371524D01*
X251236Y371463D01*
X251282Y371450D01*
X251326Y371429D01*
X251449Y371403D01*
X251571Y371368D01*
X251632Y371363D01*
X251666Y371356D01*
X251715Y371357D01*
X251815Y371349D01*
X255662Y371349D01*
X255762Y371360D01*
X255862Y371362D01*
X255935Y371380D01*
X256008Y371389D01*
X256103Y371422D01*
X256200Y371447D01*
X256267Y371481D01*
X256337Y371506D01*
X256421Y371561D01*
X256510Y371607D01*
X256567Y371655D01*
X256629Y371695D01*
X256699Y371767D01*
X256776Y371832D01*
X256820Y371892D01*
X256872Y371946D01*
X256923Y372032D01*
X256983Y372113D01*
X257012Y372181D01*
X257050Y372245D01*
X257081Y372341D01*
X257121Y372433D01*
X257134Y372506D01*
X257157Y372577D01*
X257165Y372677D01*
X257182Y372776D01*
X257179Y372850D01*
X257185Y372924D01*
X257170Y373024D01*
X257165Y373124D01*
X257144Y373195D01*
X257133Y373269D01*
X257096Y373362D01*
X257068Y373459D01*
X257032Y373524D01*
X257004Y373593D01*
X256947Y373675D01*
X256898Y373763D01*
X256833Y373839D01*
X256805Y373879D01*
X256779Y373903D01*
X256739Y373949D01*
X246579Y384109D01*
X246480Y384188D01*
X246386Y384272D01*
X246344Y384296D01*
X246306Y384326D01*
X246192Y384380D01*
X246081Y384441D01*
X246035Y384454D01*
X245991Y384475D01*
X245868Y384501D01*
X245746Y384536D01*
X245685Y384541D01*
X245650Y384548D01*
X245602Y384547D01*
X245502Y384555D01*
X237512Y384555D01*
X232155Y389912D01*
X232155Y397488D01*
X237512Y402845D01*
X245088Y402845D01*
X250445Y397488D01*
X250445Y389498D01*
X250459Y389372D01*
X250466Y389246D01*
X250479Y389200D01*
X250485Y389152D01*
X250527Y389033D01*
X250562Y388911D01*
X250586Y388869D01*
X250602Y388823D01*
X250671Y388717D01*
X250732Y388607D01*
X250772Y388561D01*
X250791Y388531D01*
X250826Y388497D01*
X250891Y388421D01*
X262945Y376367D01*
X263044Y376288D01*
X263138Y376204D01*
X263180Y376180D01*
X263218Y376150D01*
X263332Y376096D01*
X263443Y376035D01*
X263489Y376022D01*
X263533Y376001D01*
X263656Y375975D01*
X263778Y375940D01*
X263839Y375935D01*
X263874Y375928D01*
X263922Y375929D01*
X264022Y375921D01*
X276490Y375921D01*
X276590Y375932D01*
X276690Y375934D01*
X276763Y375952D01*
X276836Y375961D01*
X276931Y375994D01*
X277028Y376019D01*
X277095Y376053D01*
X277165Y376078D01*
X277249Y376133D01*
X277338Y376179D01*
X277395Y376227D01*
X277457Y376267D01*
X277527Y376339D01*
X277604Y376404D01*
X277648Y376464D01*
X277700Y376518D01*
X277751Y376604D01*
X277811Y376685D01*
X277840Y376753D01*
X277878Y376817D01*
X277909Y376913D01*
X277949Y377005D01*
X277962Y377078D01*
X277985Y377149D01*
X277993Y377249D01*
X278010Y377348D01*
X278007Y377422D01*
X278013Y377496D01*
X277998Y377596D01*
X277993Y377696D01*
X277972Y377767D01*
X277961Y377841D01*
X277924Y377934D01*
X277896Y378031D01*
X277860Y378096D01*
X277832Y378165D01*
X277775Y378247D01*
X277726Y378335D01*
X277661Y378411D01*
X277633Y378451D01*
X277607Y378475D01*
X277567Y378521D01*
X246579Y409509D01*
X246480Y409588D01*
X246386Y409672D01*
X246344Y409696D01*
X246306Y409726D01*
X246192Y409780D01*
X246081Y409841D01*
X246035Y409854D01*
X245991Y409875D01*
X245868Y409901D01*
X245746Y409936D01*
X245685Y409941D01*
X245650Y409948D01*
X245602Y409947D01*
X245502Y409955D01*
X237512Y409955D01*
X232155Y415312D01*
X232155Y417053D01*
X232144Y417153D01*
X232142Y417253D01*
X232124Y417325D01*
X232115Y417399D01*
X232082Y417494D01*
X232057Y417591D01*
X232023Y417657D01*
X231998Y417727D01*
X231943Y417812D01*
X231897Y417901D01*
X231849Y417958D01*
X231809Y418020D01*
X231737Y418090D01*
X231672Y418167D01*
X231612Y418211D01*
X231558Y418262D01*
X231472Y418314D01*
X231391Y418374D01*
X231323Y418403D01*
X231259Y418441D01*
X231163Y418472D01*
X231071Y418512D01*
X230998Y418525D01*
X230927Y418548D01*
X230827Y418556D01*
X230728Y418573D01*
X230654Y418570D01*
X230580Y418575D01*
X230480Y418561D01*
X230380Y418555D01*
X230309Y418535D01*
X230235Y418524D01*
X230142Y418487D01*
X230045Y418459D01*
X229980Y418423D01*
X229911Y418395D01*
X229829Y418338D01*
X229741Y418289D01*
X229665Y418224D01*
X229625Y418196D01*
X229601Y418170D01*
X229555Y418130D01*
X227476Y416051D01*
X226415Y416051D01*
X226289Y416037D01*
X226163Y416030D01*
X226117Y416017D01*
X226069Y416011D01*
X225950Y415969D01*
X225828Y415934D01*
X225786Y415910D01*
X225740Y415894D01*
X225634Y415825D01*
X225524Y415764D01*
X225478Y415724D01*
X225448Y415705D01*
X225414Y415670D01*
X225338Y415605D01*
X219688Y409955D01*
X212112Y409955D01*
X206755Y415312D01*
X206755Y422888D01*
X212112Y428245D01*
X219688Y428245D01*
X224290Y423643D01*
X224310Y423626D01*
X224328Y423606D01*
X224447Y423518D01*
X224563Y423426D01*
X224587Y423415D01*
X224608Y423399D01*
X224744Y423340D01*
X224878Y423277D01*
X224904Y423272D01*
X224928Y423261D01*
X225074Y423235D01*
X225219Y423204D01*
X225245Y423204D01*
X225271Y423199D01*
X225419Y423207D01*
X225567Y423210D01*
X225593Y423216D01*
X225619Y423217D01*
X225761Y423258D01*
X225905Y423295D01*
X225929Y423307D01*
X225954Y423314D01*
X226083Y423386D01*
X226215Y423454D01*
X226235Y423471D01*
X226258Y423484D01*
X226444Y423643D01*
X235618Y432817D01*
X276692Y432817D01*
X346965Y362544D01*
X346965Y241243D01*
X314066Y208344D01*
X314050Y208324D01*
X314030Y208307D01*
X313942Y208187D01*
X313850Y208071D01*
X313838Y208047D01*
X313823Y208026D01*
X313764Y207890D01*
X313701Y207756D01*
X313695Y207730D01*
X313685Y207706D01*
X313659Y207560D01*
X313627Y207415D01*
X313628Y207389D01*
X313623Y207363D01*
X313631Y207215D01*
X313633Y207067D01*
X313640Y207042D01*
X313641Y207015D01*
X313682Y206873D01*
X313718Y206729D01*
X313730Y206706D01*
X313738Y206680D01*
X313810Y206551D01*
X313875Y206425D01*
X313875Y194618D01*
X312982Y193725D01*
X292218Y193725D01*
X291325Y194618D01*
X291325Y206382D01*
X292218Y207275D01*
X303743Y207275D01*
X303868Y207289D01*
X303994Y207296D01*
X304041Y207309D01*
X304089Y207315D01*
X304208Y207357D01*
X304329Y207392D01*
X304371Y207416D01*
X304417Y207432D01*
X304523Y207501D01*
X304634Y207562D01*
X304680Y207602D01*
X304710Y207621D01*
X304743Y207656D01*
X304820Y207721D01*
X308224Y211125D01*
X308286Y211203D01*
X308356Y211276D01*
X308394Y211340D01*
X308440Y211398D01*
X308483Y211489D01*
X308535Y211575D01*
X308558Y211646D01*
X308589Y211713D01*
X308611Y211811D01*
X308641Y211907D01*
X308647Y211981D01*
X308663Y212054D01*
X308661Y212154D01*
X308669Y212254D01*
X308658Y212328D01*
X308657Y212402D01*
X308632Y212499D01*
X308617Y212599D01*
X308590Y212668D01*
X308572Y212740D01*
X308526Y212829D01*
X308489Y212923D01*
X308446Y212984D01*
X308412Y213050D01*
X308347Y213126D01*
X308290Y213209D01*
X308235Y213259D01*
X308186Y213315D01*
X308106Y213375D01*
X308031Y213442D01*
X307966Y213478D01*
X307906Y213523D01*
X307814Y213562D01*
X307726Y213611D01*
X307654Y213631D01*
X307586Y213661D01*
X307487Y213678D01*
X307391Y213706D01*
X307291Y213714D01*
X307243Y213722D01*
X307207Y213720D01*
X307147Y213725D01*
X292218Y213725D01*
X291325Y214618D01*
X291325Y226382D01*
X292218Y227275D01*
X311232Y227275D01*
X311358Y227289D01*
X311484Y227296D01*
X311530Y227309D01*
X311578Y227315D01*
X311697Y227357D01*
X311819Y227392D01*
X311861Y227416D01*
X311907Y227432D01*
X312013Y227501D01*
X312123Y227562D01*
X312169Y227602D01*
X312199Y227621D01*
X312233Y227656D01*
X312309Y227721D01*
X314005Y229417D01*
X314084Y229516D01*
X314168Y229610D01*
X314192Y229652D01*
X314222Y229690D01*
X314276Y229804D01*
X314337Y229915D01*
X314350Y229961D01*
X314371Y230005D01*
X314397Y230128D01*
X314432Y230250D01*
X314437Y230311D01*
X314444Y230346D01*
X314443Y230394D01*
X314451Y230494D01*
X314451Y232202D01*
X314448Y232228D01*
X314450Y232254D01*
X314428Y232401D01*
X314411Y232548D01*
X314403Y232573D01*
X314399Y232599D01*
X314344Y232737D01*
X314294Y232876D01*
X314280Y232898D01*
X314270Y232923D01*
X314185Y233044D01*
X314105Y233169D01*
X314086Y233187D01*
X314071Y233209D01*
X313961Y233308D01*
X313854Y233411D01*
X313832Y233425D01*
X313812Y233442D01*
X313682Y233514D01*
X313555Y233590D01*
X313530Y233598D01*
X313507Y233611D01*
X313364Y233651D01*
X313223Y233696D01*
X313197Y233698D01*
X313172Y233706D01*
X312928Y233725D01*
X292218Y233725D01*
X291325Y234618D01*
X291325Y246382D01*
X292218Y247275D01*
X305832Y247275D01*
X305958Y247289D01*
X306084Y247296D01*
X306130Y247309D01*
X306178Y247315D01*
X306297Y247357D01*
X306419Y247392D01*
X306461Y247416D01*
X306507Y247432D01*
X306613Y247501D01*
X306723Y247562D01*
X306769Y247602D01*
X306799Y247621D01*
X306833Y247656D01*
X306909Y247721D01*
X310313Y251125D01*
X310376Y251203D01*
X310446Y251276D01*
X310484Y251340D01*
X310530Y251398D01*
X310573Y251489D01*
X310624Y251575D01*
X310647Y251646D01*
X310679Y251713D01*
X310700Y251811D01*
X310731Y251907D01*
X310737Y251981D01*
X310752Y252054D01*
X310751Y252154D01*
X310759Y252254D01*
X310748Y252328D01*
X310746Y252402D01*
X310722Y252499D01*
X310707Y252599D01*
X310679Y252668D01*
X310661Y252740D01*
X310615Y252829D01*
X310578Y252923D01*
X310536Y252984D01*
X310502Y253050D01*
X310437Y253126D01*
X310379Y253209D01*
X310324Y253259D01*
X310276Y253315D01*
X310195Y253375D01*
X310120Y253442D01*
X310055Y253478D01*
X309996Y253523D01*
X309903Y253562D01*
X309815Y253611D01*
X309744Y253631D01*
X309676Y253661D01*
X309577Y253678D01*
X309480Y253706D01*
X309380Y253714D01*
X309333Y253722D01*
X309297Y253720D01*
X309236Y253725D01*
X292218Y253725D01*
X291325Y254618D01*
X291325Y266382D01*
X292218Y267275D01*
X312982Y267275D01*
X313875Y266382D01*
X313875Y265072D01*
X313878Y265046D01*
X313876Y265020D01*
X313898Y264873D01*
X313915Y264726D01*
X313923Y264701D01*
X313927Y264675D01*
X313982Y264537D01*
X314032Y264398D01*
X314046Y264376D01*
X314056Y264351D01*
X314141Y264230D01*
X314221Y264105D01*
X314240Y264087D01*
X314255Y264065D01*
X314365Y263966D01*
X314472Y263863D01*
X314494Y263849D01*
X314514Y263832D01*
X314644Y263760D01*
X314771Y263684D01*
X314796Y263676D01*
X314819Y263663D01*
X314962Y263623D01*
X315103Y263578D01*
X315129Y263576D01*
X315154Y263568D01*
X315398Y263549D01*
X322106Y263549D01*
X322232Y263563D01*
X322358Y263570D01*
X322404Y263583D01*
X322452Y263589D01*
X322571Y263631D01*
X322693Y263666D01*
X322735Y263690D01*
X322781Y263706D01*
X322887Y263775D01*
X322997Y263836D01*
X323043Y263876D01*
X323073Y263895D01*
X323107Y263930D01*
X323183Y263995D01*
X326705Y267517D01*
X326784Y267616D01*
X326868Y267710D01*
X326892Y267752D01*
X326922Y267790D01*
X326976Y267904D01*
X327037Y268015D01*
X327050Y268061D01*
X327071Y268105D01*
X327097Y268228D01*
X327132Y268350D01*
X327137Y268411D01*
X327144Y268446D01*
X327143Y268494D01*
X327151Y268594D01*
X327151Y353706D01*
X327137Y353832D01*
X327130Y353958D01*
X327117Y354004D01*
X327111Y354052D01*
X327069Y354171D01*
X327034Y354293D01*
X327010Y354335D01*
X326994Y354381D01*
X326925Y354487D01*
X326864Y354597D01*
X326824Y354643D01*
X326805Y354673D01*
X326770Y354707D01*
X326705Y354783D01*
X316683Y364805D01*
X316584Y364884D01*
X316490Y364968D01*
X316448Y364992D01*
X316410Y365022D01*
X316296Y365076D01*
X316185Y365137D01*
X316139Y365150D01*
X316095Y365171D01*
X315972Y365197D01*
X315850Y365232D01*
X315789Y365237D01*
X315754Y365244D01*
X315706Y365243D01*
X315606Y365251D01*
X251815Y365251D01*
X251689Y365237D01*
X251563Y365230D01*
X251517Y365217D01*
X251469Y365211D01*
X251350Y365169D01*
X251228Y365134D01*
X251186Y365110D01*
X251140Y365094D01*
X251034Y365025D01*
X250924Y364964D01*
X250878Y364924D01*
X250848Y364905D01*
X250814Y364870D01*
X250738Y364805D01*
X245150Y359217D01*
X245087Y359139D01*
X245017Y359066D01*
X244979Y359002D01*
X244933Y358944D01*
X244890Y358853D01*
X244839Y358767D01*
X244816Y358696D01*
X244784Y358629D01*
X244763Y358531D01*
X244732Y358435D01*
X244726Y358361D01*
X244711Y358288D01*
X244712Y358188D01*
X244704Y358088D01*
X244715Y358014D01*
X244717Y357940D01*
X244741Y357843D01*
X244756Y357743D01*
X244784Y357674D01*
X244802Y357602D01*
X244848Y357512D01*
X244885Y357419D01*
X244927Y357358D01*
X244961Y357292D01*
X245027Y357215D01*
X245084Y357133D01*
X245139Y357083D01*
X245187Y357027D01*
X245268Y356967D01*
X245343Y356900D01*
X245408Y356864D01*
X245467Y356819D01*
X245560Y356780D01*
X245648Y356731D01*
X245719Y356711D01*
X245788Y356681D01*
X245886Y356664D01*
X245983Y356636D01*
X246083Y356628D01*
X246131Y356620D01*
X246166Y356622D01*
X246227Y356617D01*
X246982Y356617D01*
X259589Y344010D01*
X259589Y185311D01*
X223431Y149153D01*
X166780Y149153D01*
X166681Y149142D01*
X166580Y149140D01*
X166508Y149122D01*
X166434Y149113D01*
X166340Y149080D01*
X166242Y149055D01*
X166176Y149021D01*
X166106Y148996D01*
X166022Y148941D01*
X165932Y148895D01*
X165876Y148847D01*
X165813Y148807D01*
X165744Y148735D01*
X165667Y148670D01*
X165623Y148610D01*
X165571Y148556D01*
X165520Y148470D01*
X165460Y148389D01*
X165430Y148321D01*
X165392Y148257D01*
X165362Y148162D01*
X165322Y148069D01*
X165309Y147996D01*
X165286Y147925D01*
X165278Y147825D01*
X165260Y147726D01*
X165264Y147652D01*
X165258Y147578D01*
X165273Y147479D01*
X165278Y147378D01*
X165299Y147307D01*
X165310Y147233D01*
X165347Y147140D01*
X165375Y147043D01*
X165411Y146978D01*
X165439Y146909D01*
X165496Y146827D01*
X165545Y146739D01*
X165610Y146663D01*
X165637Y146623D01*
X165664Y146599D01*
X165703Y146553D01*
X165875Y146382D01*
X165875Y134618D01*
X164982Y133725D01*
X144218Y133725D01*
G37*
%LPD*%
%LPC*%
G36*
X284168Y25575D02*
X284168Y25575D01*
X283275Y26468D01*
X283275Y49732D01*
X284168Y50625D01*
X296033Y50625D01*
X296039Y50622D01*
X296125Y50570D01*
X296196Y50548D01*
X296263Y50516D01*
X296361Y50495D01*
X296457Y50464D01*
X296531Y50458D01*
X296604Y50442D01*
X296704Y50444D01*
X296804Y50436D01*
X296878Y50447D01*
X296952Y50448D01*
X297049Y50473D01*
X297149Y50488D01*
X297218Y50515D01*
X297290Y50533D01*
X297379Y50579D01*
X297473Y50617D01*
X297534Y50659D01*
X297600Y50693D01*
X297676Y50758D01*
X297759Y50815D01*
X297809Y50871D01*
X297865Y50919D01*
X297925Y51000D01*
X297992Y51074D01*
X298028Y51139D01*
X298072Y51199D01*
X298112Y51291D01*
X298161Y51379D01*
X298181Y51451D01*
X298211Y51519D01*
X298228Y51618D01*
X298256Y51715D01*
X298264Y51815D01*
X298272Y51862D01*
X298270Y51898D01*
X298275Y51958D01*
X298275Y59232D01*
X299168Y60125D01*
X306632Y60125D01*
X306758Y60139D01*
X306884Y60146D01*
X306930Y60159D01*
X306978Y60165D01*
X307097Y60207D01*
X307219Y60242D01*
X307261Y60266D01*
X307307Y60282D01*
X307413Y60351D01*
X307523Y60412D01*
X307569Y60452D01*
X307599Y60471D01*
X307633Y60506D01*
X307709Y60571D01*
X314005Y66867D01*
X314084Y66966D01*
X314168Y67060D01*
X314192Y67102D01*
X314222Y67140D01*
X314276Y67254D01*
X314337Y67365D01*
X314350Y67411D01*
X314371Y67455D01*
X314397Y67578D01*
X314432Y67700D01*
X314437Y67761D01*
X314444Y67796D01*
X314443Y67844D01*
X314451Y67944D01*
X314451Y112202D01*
X314448Y112228D01*
X314450Y112254D01*
X314428Y112401D01*
X314411Y112548D01*
X314403Y112573D01*
X314399Y112599D01*
X314344Y112737D01*
X314294Y112876D01*
X314280Y112898D01*
X314270Y112923D01*
X314185Y113044D01*
X314105Y113169D01*
X314086Y113187D01*
X314071Y113209D01*
X313961Y113308D01*
X313854Y113411D01*
X313832Y113425D01*
X313812Y113442D01*
X313683Y113514D01*
X313555Y113590D01*
X313530Y113598D01*
X313507Y113611D01*
X313364Y113651D01*
X313223Y113696D01*
X313197Y113698D01*
X313172Y113706D01*
X312928Y113725D01*
X292218Y113725D01*
X291325Y114618D01*
X291325Y126382D01*
X292218Y127275D01*
X312982Y127275D01*
X313875Y126382D01*
X313875Y122868D01*
X313877Y122847D01*
X313876Y122829D01*
X313889Y122737D01*
X313896Y122616D01*
X313909Y122570D01*
X313915Y122522D01*
X313927Y122487D01*
X313927Y122484D01*
X313933Y122469D01*
X313957Y122402D01*
X313992Y122281D01*
X314016Y122239D01*
X314032Y122193D01*
X314101Y122087D01*
X314162Y121977D01*
X314202Y121931D01*
X314221Y121901D01*
X314256Y121867D01*
X314321Y121791D01*
X314795Y121317D01*
X320549Y115563D01*
X320549Y64787D01*
X311771Y56009D01*
X311692Y55910D01*
X311608Y55816D01*
X311584Y55774D01*
X311554Y55736D01*
X311500Y55622D01*
X311439Y55511D01*
X311426Y55465D01*
X311405Y55421D01*
X311379Y55298D01*
X311344Y55176D01*
X311339Y55115D01*
X311332Y55080D01*
X311333Y55032D01*
X311325Y54932D01*
X311325Y51958D01*
X311336Y51859D01*
X311338Y51758D01*
X311356Y51686D01*
X311365Y51612D01*
X311399Y51518D01*
X311423Y51420D01*
X311457Y51354D01*
X311482Y51284D01*
X311537Y51200D01*
X311583Y51110D01*
X311631Y51054D01*
X311671Y50991D01*
X311743Y50922D01*
X311809Y50845D01*
X311868Y50801D01*
X311922Y50749D01*
X312008Y50698D01*
X312089Y50638D01*
X312157Y50608D01*
X312221Y50570D01*
X312317Y50540D01*
X312409Y50500D01*
X312482Y50487D01*
X312553Y50464D01*
X312653Y50456D01*
X312752Y50438D01*
X312826Y50442D01*
X312900Y50436D01*
X312999Y50451D01*
X313100Y50456D01*
X313171Y50477D01*
X313245Y50488D01*
X313338Y50525D01*
X313435Y50553D01*
X313500Y50589D01*
X313569Y50617D01*
X313581Y50625D01*
X325432Y50625D01*
X326325Y49732D01*
X326325Y26468D01*
X325432Y25575D01*
X313668Y25575D01*
X312591Y26653D01*
X312492Y26732D01*
X312398Y26816D01*
X312355Y26840D01*
X312318Y26870D01*
X312203Y26924D01*
X312093Y26985D01*
X312046Y26998D01*
X312002Y27019D01*
X311879Y27045D01*
X311757Y27080D01*
X311697Y27085D01*
X311662Y27092D01*
X311614Y27091D01*
X311513Y27099D01*
X298087Y27099D01*
X297961Y27085D01*
X297835Y27078D01*
X297788Y27065D01*
X297740Y27059D01*
X297621Y27017D01*
X297500Y26982D01*
X297458Y26958D01*
X297412Y26942D01*
X297306Y26873D01*
X297196Y26812D01*
X297149Y26772D01*
X297119Y26753D01*
X297086Y26718D01*
X297009Y26653D01*
X295932Y25575D01*
X284168Y25575D01*
G37*
%LPD*%
%LPC*%
G36*
X292218Y173725D02*
X292218Y173725D01*
X291325Y174618D01*
X291325Y186382D01*
X292218Y187275D01*
X312982Y187275D01*
X313875Y186382D01*
X313875Y174618D01*
X312982Y173725D01*
X292218Y173725D01*
G37*
%LPD*%
%LPC*%
G36*
X292218Y153725D02*
X292218Y153725D01*
X291325Y154618D01*
X291325Y166382D01*
X292218Y167275D01*
X312982Y167275D01*
X313875Y166382D01*
X313875Y154618D01*
X312982Y153725D01*
X292218Y153725D01*
G37*
%LPD*%
%LPC*%
G36*
X204731Y435438D02*
X204731Y435438D01*
X204695Y435451D01*
X204532Y435521D01*
X203964Y435710D01*
X203896Y435772D01*
X203703Y436349D01*
X203687Y436384D01*
X203621Y436548D01*
X203353Y437083D01*
X203349Y437186D01*
X203345Y437342D01*
X203341Y437360D01*
X203340Y437378D01*
X203281Y437616D01*
X201534Y442859D01*
X202193Y444176D01*
X203591Y444642D01*
X204635Y444120D01*
X204692Y444099D01*
X204745Y444071D01*
X204855Y444040D01*
X204963Y444001D01*
X205022Y443994D01*
X205080Y443978D01*
X205195Y443973D01*
X205309Y443959D01*
X205369Y443966D01*
X205429Y443963D01*
X205541Y443985D01*
X205655Y443997D01*
X205712Y444017D01*
X205771Y444028D01*
X205959Y444104D01*
X205984Y444113D01*
X205989Y444117D01*
X205998Y444120D01*
X207043Y444642D01*
X208648Y444107D01*
X208654Y444102D01*
X208737Y444053D01*
X208815Y443995D01*
X208887Y443964D01*
X208954Y443924D01*
X209046Y443895D01*
X209135Y443857D01*
X209212Y443843D01*
X209287Y443820D01*
X209383Y443813D01*
X209478Y443795D01*
X209556Y443800D01*
X209634Y443794D01*
X209730Y443808D01*
X209826Y443813D01*
X209901Y443835D01*
X209978Y443847D01*
X210068Y443883D01*
X210161Y443910D01*
X210229Y443948D01*
X210302Y443977D01*
X210381Y444033D01*
X210465Y444080D01*
X210547Y444149D01*
X210587Y444178D01*
X210609Y444203D01*
X210651Y444239D01*
X210913Y444501D01*
X212387Y444501D01*
X213042Y443846D01*
X213063Y443829D01*
X213079Y443809D01*
X213198Y443722D01*
X213315Y443629D01*
X213339Y443618D01*
X213360Y443602D01*
X213496Y443544D01*
X213630Y443480D01*
X213656Y443475D01*
X213680Y443464D01*
X213826Y443438D01*
X213971Y443407D01*
X213997Y443407D01*
X214023Y443403D01*
X214171Y443410D01*
X214319Y443413D01*
X214345Y443419D01*
X214371Y443421D01*
X214513Y443462D01*
X214657Y443498D01*
X214681Y443510D01*
X214706Y443517D01*
X214835Y443590D01*
X214967Y443657D01*
X214987Y443674D01*
X215010Y443687D01*
X215196Y443846D01*
X215851Y444501D01*
X217325Y444501D01*
X218367Y443459D01*
X218367Y436397D01*
X217325Y435355D01*
X214277Y435355D01*
X214191Y435414D01*
X214153Y435445D01*
X214134Y435454D01*
X214107Y435472D01*
X214101Y435476D01*
X214100Y435476D01*
X214099Y435477D01*
X213945Y435543D01*
X213838Y435593D01*
X213818Y435598D01*
X213780Y435614D01*
X213779Y435614D01*
X213603Y435646D01*
X213555Y435654D01*
X213497Y435667D01*
X213487Y435667D01*
X213437Y435676D01*
X213436Y435676D01*
X213252Y435666D01*
X213155Y435661D01*
X213149Y435661D01*
X213148Y435661D01*
X213089Y435658D01*
X213089Y435657D01*
X213088Y435657D01*
X212913Y435607D01*
X212754Y435561D01*
X212753Y435561D01*
X212592Y435470D01*
X212450Y435391D01*
X212450Y435390D01*
X212449Y435390D01*
X212446Y435388D01*
X212408Y435355D01*
X209339Y435355D01*
X209253Y435415D01*
X209216Y435445D01*
X209198Y435453D01*
X209173Y435470D01*
X208479Y435871D01*
X208413Y435899D01*
X208351Y435937D01*
X208253Y435969D01*
X208159Y436009D01*
X208088Y436022D01*
X208020Y436045D01*
X207917Y436053D01*
X207816Y436072D01*
X207744Y436068D01*
X207672Y436074D01*
X207571Y436060D01*
X207468Y436054D01*
X207399Y436035D01*
X207327Y436024D01*
X207232Y435987D01*
X207133Y435958D01*
X207070Y435923D01*
X207003Y435897D01*
X206918Y435839D01*
X206829Y435789D01*
X206784Y435748D01*
X206102Y435521D01*
X206067Y435504D01*
X205902Y435438D01*
X205367Y435171D01*
X205275Y435166D01*
X204731Y435438D01*
G37*
%LPD*%
%LPC*%
G36*
X157224Y263124D02*
X157224Y263124D01*
X157224Y268291D01*
X164685Y268291D01*
X165331Y268118D01*
X165910Y267783D01*
X166383Y267310D01*
X166718Y266731D01*
X166891Y266085D01*
X166891Y263124D01*
X157224Y263124D01*
G37*
%LPD*%
%LPC*%
G36*
X305224Y143124D02*
X305224Y143124D01*
X305224Y148291D01*
X312685Y148291D01*
X313331Y148118D01*
X313910Y147783D01*
X314383Y147310D01*
X314718Y146731D01*
X314891Y146085D01*
X314891Y143124D01*
X305224Y143124D01*
G37*
%LPD*%
%LPC*%
G36*
X157224Y123124D02*
X157224Y123124D01*
X157224Y128291D01*
X164685Y128291D01*
X165331Y128118D01*
X165910Y127783D01*
X166383Y127310D01*
X166718Y126731D01*
X166891Y126085D01*
X166891Y123124D01*
X157224Y123124D01*
G37*
%LPD*%
%LPC*%
G36*
X142309Y263124D02*
X142309Y263124D01*
X142309Y266085D01*
X142482Y266731D01*
X142817Y267310D01*
X143290Y267783D01*
X143869Y268118D01*
X144515Y268291D01*
X151976Y268291D01*
X151976Y263124D01*
X142309Y263124D01*
G37*
%LPD*%
%LPC*%
G36*
X290309Y143124D02*
X290309Y143124D01*
X290309Y146085D01*
X290482Y146731D01*
X290817Y147310D01*
X291290Y147783D01*
X291869Y148118D01*
X292515Y148291D01*
X299976Y148291D01*
X299976Y143124D01*
X290309Y143124D01*
G37*
%LPD*%
%LPC*%
G36*
X142309Y123124D02*
X142309Y123124D01*
X142309Y126085D01*
X142482Y126731D01*
X142817Y127310D01*
X143290Y127783D01*
X143869Y128118D01*
X144515Y128291D01*
X151976Y128291D01*
X151976Y123124D01*
X142309Y123124D01*
G37*
%LPD*%
%LPC*%
G36*
X305224Y132709D02*
X305224Y132709D01*
X305224Y137876D01*
X314891Y137876D01*
X314891Y134915D01*
X314718Y134269D01*
X314383Y133690D01*
X313910Y133217D01*
X313331Y132882D01*
X312685Y132709D01*
X305224Y132709D01*
G37*
%LPD*%
%LPC*%
G36*
X157224Y112709D02*
X157224Y112709D01*
X157224Y117876D01*
X166891Y117876D01*
X166891Y114915D01*
X166718Y114269D01*
X166383Y113690D01*
X165910Y113217D01*
X165331Y112882D01*
X164685Y112709D01*
X157224Y112709D01*
G37*
%LPD*%
%LPC*%
G36*
X292515Y132709D02*
X292515Y132709D01*
X291869Y132882D01*
X291290Y133217D01*
X290817Y133690D01*
X290482Y134269D01*
X290309Y134915D01*
X290309Y137876D01*
X299976Y137876D01*
X299976Y132709D01*
X292515Y132709D01*
G37*
%LPD*%
%LPC*%
G36*
X144515Y112709D02*
X144515Y112709D01*
X143869Y112882D01*
X143290Y113217D01*
X142817Y113690D01*
X142482Y114269D01*
X142309Y114915D01*
X142309Y117876D01*
X151976Y117876D01*
X151976Y112709D01*
X144515Y112709D01*
G37*
%LPD*%
%LPC*%
G36*
X218439Y396239D02*
X218439Y396239D01*
X218439Y403861D01*
X220109Y403861D01*
X226061Y397909D01*
X226061Y396239D01*
X218439Y396239D01*
G37*
%LPD*%
%LPC*%
G36*
X205739Y396239D02*
X205739Y396239D01*
X205739Y397909D01*
X211691Y403861D01*
X213361Y403861D01*
X213361Y396239D01*
X205739Y396239D01*
G37*
%LPD*%
%LPC*%
G36*
X218439Y383539D02*
X218439Y383539D01*
X218439Y391161D01*
X226061Y391161D01*
X226061Y389491D01*
X220109Y383539D01*
X218439Y383539D01*
G37*
%LPD*%
%LPC*%
G36*
X211691Y383539D02*
X211691Y383539D01*
X205739Y389491D01*
X205739Y391161D01*
X213361Y391161D01*
X213361Y383539D01*
X211691Y383539D01*
G37*
%LPD*%
D10*
X203454Y442722D02*
X205317Y437134D01*
X207179Y442722D01*
X211650Y442722D02*
X211650Y437134D01*
X210098Y437134D01*
X210040Y437136D01*
X209981Y437141D01*
X209924Y437150D01*
X209866Y437163D01*
X209810Y437180D01*
X209755Y437199D01*
X209702Y437223D01*
X209649Y437249D01*
X209599Y437279D01*
X209551Y437312D01*
X209505Y437348D01*
X209461Y437386D01*
X209419Y437428D01*
X209381Y437472D01*
X209345Y437518D01*
X209312Y437566D01*
X209282Y437616D01*
X209256Y437669D01*
X209232Y437722D01*
X209213Y437777D01*
X209196Y437833D01*
X209183Y437891D01*
X209174Y437948D01*
X209169Y438007D01*
X209167Y438065D01*
X209167Y439928D01*
X209169Y439986D01*
X209174Y440045D01*
X209183Y440102D01*
X209196Y440160D01*
X209213Y440216D01*
X209232Y440271D01*
X209256Y440324D01*
X209282Y440377D01*
X209312Y440427D01*
X209345Y440475D01*
X209381Y440521D01*
X209419Y440565D01*
X209461Y440607D01*
X209505Y440645D01*
X209551Y440681D01*
X209599Y440714D01*
X209649Y440744D01*
X209702Y440770D01*
X209755Y440794D01*
X209810Y440813D01*
X209866Y440830D01*
X209924Y440843D01*
X209981Y440852D01*
X210040Y440857D01*
X210098Y440859D01*
X211650Y440859D01*
X216588Y442722D02*
X216588Y437134D01*
X215036Y437134D01*
X214978Y437136D01*
X214919Y437141D01*
X214862Y437150D01*
X214804Y437163D01*
X214748Y437180D01*
X214693Y437199D01*
X214640Y437223D01*
X214587Y437249D01*
X214537Y437279D01*
X214489Y437312D01*
X214443Y437348D01*
X214399Y437386D01*
X214357Y437428D01*
X214319Y437472D01*
X214283Y437518D01*
X214250Y437566D01*
X214220Y437616D01*
X214194Y437669D01*
X214170Y437722D01*
X214151Y437777D01*
X214134Y437833D01*
X214121Y437891D01*
X214112Y437948D01*
X214107Y438007D01*
X214105Y438065D01*
X214104Y438065D02*
X214104Y439928D01*
X214105Y439928D02*
X214107Y439986D01*
X214112Y440045D01*
X214121Y440102D01*
X214134Y440160D01*
X214151Y440216D01*
X214170Y440271D01*
X214194Y440324D01*
X214220Y440377D01*
X214250Y440427D01*
X214283Y440475D01*
X214319Y440521D01*
X214357Y440565D01*
X214399Y440607D01*
X214443Y440645D01*
X214489Y440681D01*
X214537Y440714D01*
X214587Y440744D01*
X214640Y440770D01*
X214693Y440794D01*
X214748Y440813D01*
X214804Y440830D01*
X214862Y440843D01*
X214919Y440852D01*
X214978Y440857D01*
X215036Y440859D01*
X216588Y440859D01*
D11*
X304800Y53350D03*
D12*
X319550Y38100D03*
X290050Y38100D03*
D13*
X241300Y317500D03*
X215900Y317500D03*
X241300Y342900D03*
X215900Y342900D03*
X241300Y368300D03*
X215900Y368300D03*
X241300Y393700D03*
X215900Y393700D03*
X241300Y419100D03*
X215900Y419100D03*
D14*
X154600Y260500D03*
X154600Y240500D03*
X154600Y220500D03*
X154600Y200500D03*
X154600Y180500D03*
X154600Y160500D03*
X154600Y140500D03*
X154600Y120500D03*
X302600Y120500D03*
X302600Y140500D03*
X302600Y160500D03*
X302600Y180500D03*
X302600Y200500D03*
X302600Y220500D03*
X302600Y240500D03*
X302600Y260500D03*
D15*
X226568Y347319D02*
X220319Y353568D01*
X226568Y347319D02*
X226568Y338481D01*
X220319Y332232D01*
X205232Y383032D02*
X215900Y393700D01*
X205232Y383032D02*
X205232Y363881D01*
X215545Y353568D01*
X220319Y353568D01*
X167132Y332232D02*
X152400Y317500D01*
X167132Y332232D02*
X220319Y332232D01*
X152400Y317500D02*
X152400Y262700D01*
X154600Y260500D01*
X154600Y120500D02*
X260200Y120500D01*
X280200Y140500D02*
X302600Y140500D01*
X280200Y140500D02*
X260200Y120500D01*
X154600Y120500D02*
X120800Y120500D01*
X188823Y347472D02*
X205232Y363881D01*
X125106Y347472D02*
X109728Y332094D01*
X125106Y347472D02*
X188823Y347472D01*
X109728Y131572D02*
X120800Y120500D01*
X109728Y131572D02*
X109728Y332094D01*
X154600Y220500D02*
X233200Y220500D01*
X241300Y228600D01*
X241300Y317500D01*
X241300Y332587D02*
X241300Y342900D01*
X241300Y332587D02*
X251968Y321919D01*
X251968Y188468D01*
X224000Y160500D02*
X154600Y160500D01*
X224000Y160500D02*
X251968Y188468D01*
X241300Y368300D02*
X317500Y368300D01*
X330200Y355600D01*
X330200Y266700D01*
X324000Y260500D01*
X302600Y260500D01*
X262128Y372872D02*
X241300Y393700D01*
X262128Y372872D02*
X319394Y372872D01*
X334772Y357494D01*
X334772Y264806D01*
X325894Y255928D01*
X319428Y255928D01*
X304000Y240500D02*
X302600Y240500D01*
X304000Y240500D02*
X319428Y255928D01*
X215900Y266700D02*
X215900Y317500D01*
X143588Y248798D02*
X136090Y241300D01*
X143588Y248798D02*
X197998Y248798D01*
X215900Y266700D01*
X136090Y241300D02*
X136090Y206811D01*
X142400Y200500D02*
X154600Y200500D01*
X142400Y200500D02*
X136090Y206811D01*
X127000Y342900D02*
X215900Y342900D01*
X127000Y342900D02*
X114300Y330200D01*
X114300Y190500D01*
X127000Y177800D01*
X151900Y177800D01*
X154600Y180500D01*
X154600Y240500D02*
X155400Y241300D01*
X141802Y227013D02*
X141802Y213988D01*
X143588Y212202D01*
X143588Y168798D02*
X141802Y167013D01*
X141802Y153988D01*
X143588Y152202D01*
X222168Y152202D01*
X256540Y186574D01*
X256540Y342747D01*
X245719Y353568D01*
X230632Y353568D01*
X215900Y368300D01*
X162209Y212202D02*
X143588Y212202D01*
X162209Y212202D02*
X167398Y207013D01*
X167398Y173988D01*
X162209Y168798D01*
X143588Y168798D01*
X154600Y239811D02*
X154600Y240500D01*
X154600Y239811D02*
X141802Y227013D01*
X302600Y201190D02*
X302600Y200500D01*
X275429Y429768D02*
X236881Y429768D01*
X275429Y429768D02*
X343916Y361281D01*
X343916Y242506D01*
X302600Y201190D01*
X226213Y419100D02*
X215900Y419100D01*
X226213Y419100D02*
X236881Y429768D01*
X241300Y419100D02*
X282956Y377444D01*
X321288Y377444D01*
X339344Y359388D01*
X339344Y262912D01*
X317500Y241068D02*
X317500Y228600D01*
X317500Y241068D02*
X339344Y262912D01*
X317500Y228600D02*
X309400Y220500D01*
X302600Y220500D01*
X317500Y66050D02*
X304800Y53350D01*
X317500Y66050D02*
X317500Y114300D01*
X311300Y120500D01*
X302600Y120500D01*
M02*
