G04 EAGLE Gerber RS-274X export*
G75*
%MOMM*%
%FSLAX34Y34*%
%LPD*%
%INSilkscreen Top*%
%IPPOS*%
%AMOC8*
5,1,8,0,0,1.08239X$1,22.5*%
G01*
%ADD10C,0.050800*%
%ADD11C,0.152400*%
%ADD12C,0.127000*%
%ADD13C,0.101600*%
%ADD14C,0.200000*%
%ADD15C,0.250000*%


D10*
X183896Y254D02*
X183896Y1806D01*
X183894Y1883D01*
X183888Y1961D01*
X183879Y2037D01*
X183865Y2114D01*
X183848Y2189D01*
X183827Y2263D01*
X183802Y2337D01*
X183774Y2409D01*
X183742Y2479D01*
X183707Y2548D01*
X183668Y2615D01*
X183626Y2680D01*
X183581Y2743D01*
X183533Y2804D01*
X183482Y2862D01*
X183428Y2917D01*
X183371Y2970D01*
X183312Y3019D01*
X183250Y3066D01*
X183186Y3110D01*
X183120Y3150D01*
X183052Y3187D01*
X182982Y3221D01*
X182911Y3251D01*
X182838Y3277D01*
X182764Y3300D01*
X182689Y3319D01*
X182614Y3334D01*
X182537Y3346D01*
X182460Y3354D01*
X182383Y3358D01*
X182305Y3358D01*
X182228Y3354D01*
X182151Y3346D01*
X182074Y3334D01*
X181999Y3319D01*
X181924Y3300D01*
X181850Y3277D01*
X181777Y3251D01*
X181706Y3221D01*
X181636Y3187D01*
X181568Y3150D01*
X181502Y3110D01*
X181438Y3066D01*
X181376Y3019D01*
X181317Y2970D01*
X181260Y2917D01*
X181206Y2862D01*
X181155Y2804D01*
X181107Y2743D01*
X181062Y2680D01*
X181020Y2615D01*
X180981Y2548D01*
X180946Y2479D01*
X180914Y2409D01*
X180886Y2337D01*
X180861Y2263D01*
X180840Y2189D01*
X180823Y2114D01*
X180809Y2037D01*
X180800Y1961D01*
X180794Y1883D01*
X180792Y1806D01*
X178308Y2117D02*
X178308Y254D01*
X178308Y2117D02*
X178310Y2187D01*
X178316Y2256D01*
X178326Y2325D01*
X178339Y2393D01*
X178357Y2461D01*
X178378Y2527D01*
X178403Y2592D01*
X178431Y2656D01*
X178463Y2718D01*
X178498Y2778D01*
X178537Y2836D01*
X178579Y2891D01*
X178624Y2945D01*
X178672Y2995D01*
X178722Y3043D01*
X178776Y3088D01*
X178831Y3130D01*
X178889Y3169D01*
X178949Y3204D01*
X179011Y3236D01*
X179075Y3264D01*
X179140Y3289D01*
X179206Y3310D01*
X179274Y3328D01*
X179342Y3341D01*
X179411Y3351D01*
X179480Y3357D01*
X179550Y3359D01*
X179620Y3357D01*
X179689Y3351D01*
X179758Y3341D01*
X179826Y3328D01*
X179894Y3310D01*
X179960Y3289D01*
X180025Y3264D01*
X180089Y3236D01*
X180151Y3204D01*
X180211Y3169D01*
X180269Y3130D01*
X180324Y3088D01*
X180378Y3043D01*
X180428Y2995D01*
X180476Y2945D01*
X180521Y2891D01*
X180563Y2836D01*
X180602Y2778D01*
X180637Y2718D01*
X180669Y2656D01*
X180697Y2592D01*
X180722Y2527D01*
X180743Y2461D01*
X180761Y2393D01*
X180774Y2325D01*
X180784Y2256D01*
X180790Y2187D01*
X180792Y2117D01*
X180792Y875D01*
X183586Y5491D02*
X183896Y5491D01*
X183586Y5491D02*
X183586Y5802D01*
X183896Y5802D01*
X183896Y5491D01*
X183896Y7935D02*
X183896Y9487D01*
X183894Y9564D01*
X183888Y9642D01*
X183879Y9718D01*
X183865Y9795D01*
X183848Y9870D01*
X183827Y9944D01*
X183802Y10018D01*
X183774Y10090D01*
X183742Y10160D01*
X183707Y10229D01*
X183668Y10296D01*
X183626Y10361D01*
X183581Y10424D01*
X183533Y10485D01*
X183482Y10543D01*
X183428Y10598D01*
X183371Y10651D01*
X183312Y10700D01*
X183250Y10747D01*
X183186Y10791D01*
X183120Y10831D01*
X183052Y10868D01*
X182982Y10902D01*
X182911Y10932D01*
X182838Y10958D01*
X182764Y10981D01*
X182689Y11000D01*
X182614Y11015D01*
X182537Y11027D01*
X182460Y11035D01*
X182383Y11039D01*
X182305Y11039D01*
X182228Y11035D01*
X182151Y11027D01*
X182074Y11015D01*
X181999Y11000D01*
X181924Y10981D01*
X181850Y10958D01*
X181777Y10932D01*
X181706Y10902D01*
X181636Y10868D01*
X181568Y10831D01*
X181502Y10791D01*
X181438Y10747D01*
X181376Y10700D01*
X181317Y10651D01*
X181260Y10598D01*
X181206Y10543D01*
X181155Y10485D01*
X181107Y10424D01*
X181062Y10361D01*
X181020Y10296D01*
X180981Y10229D01*
X180946Y10160D01*
X180914Y10090D01*
X180886Y10018D01*
X180861Y9944D01*
X180840Y9870D01*
X180823Y9795D01*
X180809Y9718D01*
X180800Y9642D01*
X180794Y9564D01*
X180792Y9487D01*
X178308Y9798D02*
X178308Y7935D01*
X178308Y9798D02*
X178310Y9868D01*
X178316Y9937D01*
X178326Y10006D01*
X178339Y10074D01*
X178357Y10142D01*
X178378Y10208D01*
X178403Y10273D01*
X178431Y10337D01*
X178463Y10399D01*
X178498Y10459D01*
X178537Y10517D01*
X178579Y10572D01*
X178624Y10626D01*
X178672Y10676D01*
X178722Y10724D01*
X178776Y10769D01*
X178831Y10811D01*
X178889Y10850D01*
X178949Y10885D01*
X179011Y10917D01*
X179075Y10945D01*
X179140Y10970D01*
X179206Y10991D01*
X179274Y11009D01*
X179342Y11022D01*
X179411Y11032D01*
X179480Y11038D01*
X179550Y11040D01*
X179620Y11038D01*
X179689Y11032D01*
X179758Y11022D01*
X179826Y11009D01*
X179894Y10991D01*
X179960Y10970D01*
X180025Y10945D01*
X180089Y10917D01*
X180151Y10885D01*
X180211Y10850D01*
X180269Y10811D01*
X180324Y10769D01*
X180378Y10724D01*
X180428Y10676D01*
X180476Y10626D01*
X180521Y10572D01*
X180563Y10517D01*
X180602Y10459D01*
X180637Y10399D01*
X180669Y10337D01*
X180697Y10273D01*
X180722Y10208D01*
X180743Y10142D01*
X180761Y10074D01*
X180774Y10006D01*
X180784Y9937D01*
X180790Y9868D01*
X180792Y9798D01*
X180792Y8556D01*
X178308Y13111D02*
X183896Y14973D01*
X178308Y16836D01*
X181723Y21889D02*
X181723Y25614D01*
X179550Y30978D02*
X178308Y32530D01*
X183896Y32530D01*
X183896Y30978D02*
X183896Y34082D01*
X179705Y39568D02*
X179632Y39566D01*
X179559Y39560D01*
X179486Y39551D01*
X179415Y39537D01*
X179343Y39520D01*
X179273Y39500D01*
X179204Y39475D01*
X179137Y39447D01*
X179071Y39416D01*
X179007Y39381D01*
X178944Y39343D01*
X178884Y39301D01*
X178826Y39257D01*
X178770Y39209D01*
X178717Y39159D01*
X178667Y39106D01*
X178619Y39050D01*
X178575Y38992D01*
X178533Y38932D01*
X178495Y38870D01*
X178460Y38805D01*
X178429Y38739D01*
X178401Y38672D01*
X178376Y38603D01*
X178356Y38533D01*
X178339Y38461D01*
X178325Y38390D01*
X178316Y38317D01*
X178310Y38244D01*
X178308Y38171D01*
X178310Y38087D01*
X178316Y38004D01*
X178325Y37921D01*
X178339Y37838D01*
X178356Y37757D01*
X178378Y37676D01*
X178403Y37596D01*
X178431Y37518D01*
X178463Y37440D01*
X178499Y37365D01*
X178538Y37291D01*
X178581Y37219D01*
X178627Y37149D01*
X178676Y37082D01*
X178729Y37016D01*
X178784Y36954D01*
X178842Y36894D01*
X178903Y36836D01*
X178966Y36782D01*
X179032Y36730D01*
X179100Y36682D01*
X179171Y36637D01*
X179243Y36595D01*
X179318Y36557D01*
X179394Y36522D01*
X179471Y36491D01*
X179550Y36463D01*
X180791Y39102D02*
X180738Y39156D01*
X180681Y39207D01*
X180622Y39255D01*
X180561Y39300D01*
X180498Y39341D01*
X180432Y39380D01*
X180365Y39415D01*
X180296Y39447D01*
X180225Y39475D01*
X180154Y39499D01*
X180081Y39520D01*
X180007Y39537D01*
X179932Y39551D01*
X179857Y39560D01*
X179781Y39566D01*
X179705Y39568D01*
X180792Y39103D02*
X183896Y36464D01*
X183896Y39568D01*
X183896Y43503D02*
X178308Y41640D01*
X178308Y45365D02*
X183896Y43503D01*
X123642Y28758D02*
X123642Y27827D01*
X123642Y28758D02*
X126746Y28758D01*
X126746Y26896D01*
X126744Y26826D01*
X126738Y26757D01*
X126728Y26688D01*
X126715Y26620D01*
X126697Y26552D01*
X126676Y26486D01*
X126651Y26421D01*
X126623Y26357D01*
X126591Y26295D01*
X126556Y26235D01*
X126517Y26177D01*
X126475Y26122D01*
X126430Y26068D01*
X126382Y26018D01*
X126332Y25970D01*
X126278Y25925D01*
X126223Y25883D01*
X126165Y25844D01*
X126105Y25809D01*
X126043Y25777D01*
X125979Y25749D01*
X125914Y25724D01*
X125848Y25703D01*
X125780Y25685D01*
X125712Y25672D01*
X125643Y25662D01*
X125574Y25656D01*
X125504Y25654D01*
X122400Y25654D01*
X122330Y25656D01*
X122261Y25662D01*
X122192Y25672D01*
X122124Y25685D01*
X122056Y25703D01*
X121990Y25724D01*
X121925Y25749D01*
X121861Y25777D01*
X121799Y25809D01*
X121739Y25844D01*
X121681Y25883D01*
X121626Y25925D01*
X121572Y25970D01*
X121522Y26018D01*
X121474Y26068D01*
X121429Y26122D01*
X121387Y26177D01*
X121348Y26235D01*
X121313Y26295D01*
X121281Y26357D01*
X121253Y26421D01*
X121228Y26486D01*
X121207Y26552D01*
X121189Y26620D01*
X121176Y26688D01*
X121166Y26757D01*
X121160Y26826D01*
X121158Y26896D01*
X121158Y28758D01*
X121158Y31506D02*
X126746Y31506D01*
X126746Y34611D02*
X121158Y31506D01*
X121158Y34611D02*
X126746Y34611D01*
X126746Y37358D02*
X121158Y37358D01*
X121158Y38910D01*
X121160Y38986D01*
X121165Y39062D01*
X121175Y39138D01*
X121188Y39213D01*
X121205Y39287D01*
X121225Y39361D01*
X121249Y39433D01*
X121276Y39504D01*
X121307Y39574D01*
X121341Y39642D01*
X121379Y39708D01*
X121420Y39772D01*
X121463Y39835D01*
X121510Y39895D01*
X121560Y39952D01*
X121613Y40007D01*
X121668Y40060D01*
X121725Y40110D01*
X121785Y40157D01*
X121848Y40200D01*
X121912Y40241D01*
X121978Y40279D01*
X122046Y40313D01*
X122116Y40344D01*
X122187Y40371D01*
X122260Y40395D01*
X122333Y40415D01*
X122407Y40432D01*
X122482Y40445D01*
X122558Y40455D01*
X122634Y40460D01*
X122710Y40462D01*
X122710Y40463D02*
X125194Y40463D01*
X125194Y40462D02*
X125270Y40460D01*
X125346Y40455D01*
X125422Y40445D01*
X125497Y40432D01*
X125571Y40415D01*
X125645Y40395D01*
X125717Y40371D01*
X125788Y40344D01*
X125858Y40313D01*
X125926Y40279D01*
X125992Y40241D01*
X126056Y40200D01*
X126119Y40157D01*
X126179Y40110D01*
X126236Y40060D01*
X126291Y40007D01*
X126344Y39952D01*
X126394Y39895D01*
X126441Y39835D01*
X126484Y39772D01*
X126525Y39708D01*
X126563Y39642D01*
X126597Y39574D01*
X126628Y39504D01*
X126655Y39433D01*
X126679Y39361D01*
X126699Y39287D01*
X126716Y39213D01*
X126729Y39138D01*
X126739Y39062D01*
X126744Y38986D01*
X126746Y38910D01*
X126746Y37358D01*
X409392Y3358D02*
X409392Y2427D01*
X409392Y3358D02*
X412496Y3358D01*
X412496Y1496D01*
X412494Y1426D01*
X412488Y1357D01*
X412478Y1288D01*
X412465Y1220D01*
X412447Y1152D01*
X412426Y1086D01*
X412401Y1021D01*
X412373Y957D01*
X412341Y895D01*
X412306Y835D01*
X412267Y777D01*
X412225Y722D01*
X412180Y668D01*
X412132Y618D01*
X412082Y570D01*
X412028Y525D01*
X411973Y483D01*
X411915Y444D01*
X411855Y409D01*
X411793Y377D01*
X411729Y349D01*
X411664Y324D01*
X411598Y303D01*
X411530Y285D01*
X411462Y272D01*
X411393Y262D01*
X411324Y256D01*
X411254Y254D01*
X408150Y254D01*
X408080Y256D01*
X408011Y262D01*
X407942Y272D01*
X407874Y285D01*
X407806Y303D01*
X407740Y324D01*
X407675Y349D01*
X407611Y377D01*
X407549Y409D01*
X407489Y444D01*
X407431Y483D01*
X407376Y525D01*
X407322Y570D01*
X407272Y618D01*
X407224Y668D01*
X407179Y722D01*
X407137Y777D01*
X407098Y835D01*
X407063Y895D01*
X407031Y957D01*
X407003Y1021D01*
X406978Y1086D01*
X406957Y1152D01*
X406939Y1220D01*
X406926Y1288D01*
X406916Y1357D01*
X406910Y1426D01*
X406908Y1496D01*
X406908Y3358D01*
X406908Y6106D02*
X412496Y6106D01*
X412496Y9211D02*
X406908Y6106D01*
X406908Y9211D02*
X412496Y9211D01*
X412496Y11958D02*
X406908Y11958D01*
X406908Y13510D01*
X406910Y13586D01*
X406915Y13662D01*
X406925Y13738D01*
X406938Y13813D01*
X406955Y13887D01*
X406975Y13961D01*
X406999Y14033D01*
X407026Y14104D01*
X407057Y14174D01*
X407091Y14242D01*
X407129Y14308D01*
X407170Y14372D01*
X407213Y14435D01*
X407260Y14495D01*
X407310Y14552D01*
X407363Y14607D01*
X407418Y14660D01*
X407475Y14710D01*
X407535Y14757D01*
X407598Y14800D01*
X407662Y14841D01*
X407728Y14879D01*
X407796Y14913D01*
X407866Y14944D01*
X407937Y14971D01*
X408010Y14995D01*
X408083Y15015D01*
X408157Y15032D01*
X408232Y15045D01*
X408308Y15055D01*
X408384Y15060D01*
X408460Y15062D01*
X408460Y15063D02*
X410944Y15063D01*
X410944Y15062D02*
X411020Y15060D01*
X411096Y15055D01*
X411172Y15045D01*
X411247Y15032D01*
X411321Y15015D01*
X411395Y14995D01*
X411467Y14971D01*
X411538Y14944D01*
X411608Y14913D01*
X411676Y14879D01*
X411742Y14841D01*
X411806Y14800D01*
X411869Y14757D01*
X411929Y14710D01*
X411986Y14660D01*
X412041Y14607D01*
X412094Y14552D01*
X412144Y14495D01*
X412191Y14435D01*
X412234Y14372D01*
X412275Y14308D01*
X412313Y14242D01*
X412347Y14174D01*
X412378Y14104D01*
X412405Y14033D01*
X412429Y13961D01*
X412449Y13887D01*
X412466Y13813D01*
X412479Y13738D01*
X412489Y13662D01*
X412494Y13586D01*
X412496Y13510D01*
X412496Y11958D01*
X540258Y241554D02*
X545846Y241554D01*
X543362Y243417D02*
X540258Y241554D01*
X543362Y243417D02*
X540258Y245279D01*
X545846Y245279D01*
X545846Y248354D02*
X540258Y248354D01*
X545846Y247734D02*
X545846Y248975D01*
X540258Y248975D02*
X540258Y247734D01*
X545846Y252871D02*
X545844Y252941D01*
X545838Y253010D01*
X545828Y253079D01*
X545815Y253147D01*
X545797Y253215D01*
X545776Y253281D01*
X545751Y253346D01*
X545723Y253410D01*
X545691Y253472D01*
X545656Y253532D01*
X545617Y253590D01*
X545575Y253645D01*
X545530Y253699D01*
X545482Y253749D01*
X545432Y253797D01*
X545378Y253842D01*
X545323Y253884D01*
X545265Y253923D01*
X545205Y253958D01*
X545143Y253990D01*
X545079Y254018D01*
X545014Y254043D01*
X544948Y254064D01*
X544880Y254082D01*
X544812Y254095D01*
X544743Y254105D01*
X544674Y254111D01*
X544604Y254113D01*
X545846Y252871D02*
X545844Y252772D01*
X545839Y252674D01*
X545829Y252576D01*
X545816Y252478D01*
X545800Y252381D01*
X545780Y252284D01*
X545756Y252189D01*
X545728Y252094D01*
X545697Y252000D01*
X545663Y251908D01*
X545625Y251817D01*
X545584Y251727D01*
X545539Y251639D01*
X545491Y251553D01*
X545440Y251469D01*
X545386Y251387D01*
X545328Y251306D01*
X545268Y251228D01*
X545205Y251153D01*
X545139Y251079D01*
X545070Y251009D01*
X541500Y251163D02*
X541430Y251165D01*
X541361Y251171D01*
X541292Y251181D01*
X541224Y251194D01*
X541156Y251212D01*
X541090Y251233D01*
X541025Y251258D01*
X540961Y251286D01*
X540899Y251318D01*
X540839Y251353D01*
X540781Y251392D01*
X540726Y251434D01*
X540672Y251479D01*
X540622Y251527D01*
X540574Y251577D01*
X540529Y251631D01*
X540487Y251686D01*
X540448Y251744D01*
X540413Y251804D01*
X540381Y251866D01*
X540353Y251930D01*
X540328Y251995D01*
X540307Y252061D01*
X540289Y252129D01*
X540276Y252197D01*
X540266Y252266D01*
X540260Y252335D01*
X540258Y252405D01*
X540260Y252499D01*
X540266Y252592D01*
X540275Y252685D01*
X540288Y252778D01*
X540305Y252870D01*
X540325Y252961D01*
X540350Y253052D01*
X540377Y253141D01*
X540409Y253229D01*
X540444Y253316D01*
X540482Y253402D01*
X540524Y253485D01*
X540569Y253568D01*
X540617Y253648D01*
X540669Y253726D01*
X540724Y253802D01*
X542586Y251785D02*
X542550Y251726D01*
X542510Y251670D01*
X542467Y251616D01*
X542422Y251564D01*
X542373Y251515D01*
X542322Y251469D01*
X542269Y251426D01*
X542213Y251385D01*
X542155Y251348D01*
X542095Y251313D01*
X542034Y251283D01*
X541971Y251255D01*
X541906Y251231D01*
X541840Y251211D01*
X541773Y251194D01*
X541706Y251181D01*
X541638Y251172D01*
X541569Y251166D01*
X541500Y251164D01*
X543518Y253492D02*
X543554Y253551D01*
X543594Y253607D01*
X543637Y253661D01*
X543682Y253713D01*
X543731Y253762D01*
X543782Y253808D01*
X543835Y253851D01*
X543891Y253892D01*
X543949Y253929D01*
X544009Y253964D01*
X544070Y253994D01*
X544133Y254022D01*
X544198Y254046D01*
X544264Y254066D01*
X544331Y254083D01*
X544398Y254096D01*
X544466Y254105D01*
X544535Y254111D01*
X544604Y254113D01*
X543518Y253492D02*
X542586Y251785D01*
X541810Y256312D02*
X544294Y256312D01*
X541810Y256312D02*
X541733Y256314D01*
X541655Y256320D01*
X541579Y256329D01*
X541502Y256343D01*
X541427Y256360D01*
X541353Y256381D01*
X541279Y256406D01*
X541207Y256434D01*
X541137Y256466D01*
X541068Y256501D01*
X541001Y256540D01*
X540936Y256582D01*
X540873Y256627D01*
X540812Y256675D01*
X540754Y256726D01*
X540699Y256780D01*
X540646Y256837D01*
X540597Y256896D01*
X540550Y256958D01*
X540506Y257022D01*
X540466Y257088D01*
X540429Y257156D01*
X540395Y257226D01*
X540365Y257297D01*
X540339Y257370D01*
X540316Y257444D01*
X540297Y257519D01*
X540282Y257594D01*
X540270Y257671D01*
X540262Y257748D01*
X540258Y257825D01*
X540258Y257903D01*
X540262Y257980D01*
X540270Y258057D01*
X540282Y258134D01*
X540297Y258209D01*
X540316Y258284D01*
X540339Y258358D01*
X540365Y258431D01*
X540395Y258502D01*
X540429Y258572D01*
X540466Y258640D01*
X540506Y258706D01*
X540550Y258770D01*
X540597Y258832D01*
X540646Y258891D01*
X540699Y258948D01*
X540754Y259002D01*
X540812Y259053D01*
X540873Y259101D01*
X540936Y259146D01*
X541001Y259188D01*
X541068Y259227D01*
X541137Y259262D01*
X541207Y259294D01*
X541279Y259322D01*
X541353Y259347D01*
X541427Y259368D01*
X541502Y259385D01*
X541579Y259399D01*
X541655Y259408D01*
X541733Y259414D01*
X541810Y259416D01*
X544294Y259416D01*
X544371Y259414D01*
X544449Y259408D01*
X544525Y259399D01*
X544602Y259385D01*
X544677Y259368D01*
X544751Y259347D01*
X544825Y259322D01*
X544897Y259294D01*
X544967Y259262D01*
X545036Y259227D01*
X545103Y259188D01*
X545168Y259146D01*
X545231Y259101D01*
X545292Y259053D01*
X545350Y259002D01*
X545405Y258948D01*
X545458Y258891D01*
X545507Y258832D01*
X545554Y258770D01*
X545598Y258706D01*
X545638Y258640D01*
X545675Y258572D01*
X545709Y258502D01*
X545739Y258431D01*
X545765Y258358D01*
X545788Y258284D01*
X545807Y258209D01*
X545822Y258134D01*
X545834Y258057D01*
X545842Y257980D01*
X545846Y257903D01*
X545846Y257825D01*
X545842Y257748D01*
X545834Y257671D01*
X545822Y257594D01*
X545807Y257519D01*
X545788Y257444D01*
X545765Y257370D01*
X545739Y257297D01*
X545709Y257226D01*
X545675Y257156D01*
X545638Y257088D01*
X545598Y257022D01*
X545554Y256958D01*
X545507Y256896D01*
X545458Y256837D01*
X545405Y256780D01*
X545350Y256726D01*
X545292Y256675D01*
X545231Y256627D01*
X545168Y256582D01*
X545103Y256540D01*
X545036Y256501D01*
X544967Y256466D01*
X544897Y256434D01*
X544825Y256406D01*
X544751Y256381D01*
X544677Y256360D01*
X544602Y256343D01*
X544525Y256329D01*
X544449Y256320D01*
X544371Y256314D01*
X544294Y256312D01*
D11*
X495300Y450850D02*
X501650Y457200D01*
X514350Y457200D01*
X520700Y450850D01*
X520700Y438150D01*
X514350Y431800D01*
X501650Y431800D01*
X495300Y438150D01*
X463550Y457200D02*
X450850Y457200D01*
X463550Y457200D02*
X469900Y450850D01*
X469900Y438150D01*
X463550Y431800D01*
X469900Y450850D02*
X476250Y457200D01*
X488950Y457200D01*
X495300Y450850D01*
X495300Y438150D01*
X488950Y431800D01*
X476250Y431800D01*
X469900Y438150D01*
X444500Y438150D02*
X444500Y450850D01*
X450850Y457200D01*
X444500Y438150D02*
X450850Y431800D01*
X463550Y431800D01*
X527050Y457200D02*
X539750Y457200D01*
X546100Y450850D01*
X546100Y438150D01*
X539750Y431800D01*
X520700Y450850D02*
X527050Y457200D01*
X520700Y438150D02*
X527050Y431800D01*
X539750Y431800D01*
D12*
X507873Y474853D02*
X504063Y474853D01*
X503963Y474855D01*
X503864Y474861D01*
X503764Y474871D01*
X503666Y474884D01*
X503567Y474902D01*
X503470Y474923D01*
X503374Y474948D01*
X503278Y474977D01*
X503184Y475010D01*
X503091Y475046D01*
X503000Y475086D01*
X502910Y475130D01*
X502822Y475177D01*
X502736Y475227D01*
X502652Y475281D01*
X502570Y475338D01*
X502491Y475398D01*
X502413Y475462D01*
X502339Y475528D01*
X502267Y475597D01*
X502198Y475669D01*
X502132Y475743D01*
X502068Y475821D01*
X502008Y475900D01*
X501951Y475982D01*
X501897Y476066D01*
X501847Y476152D01*
X501800Y476240D01*
X501756Y476330D01*
X501716Y476421D01*
X501680Y476514D01*
X501647Y476608D01*
X501618Y476704D01*
X501593Y476800D01*
X501572Y476897D01*
X501554Y476996D01*
X501541Y477094D01*
X501531Y477194D01*
X501525Y477293D01*
X501523Y477393D01*
X501523Y478028D01*
X501525Y478139D01*
X501531Y478249D01*
X501540Y478360D01*
X501554Y478470D01*
X501571Y478579D01*
X501592Y478688D01*
X501617Y478796D01*
X501646Y478903D01*
X501678Y479009D01*
X501714Y479114D01*
X501754Y479217D01*
X501797Y479319D01*
X501844Y479420D01*
X501895Y479519D01*
X501948Y479616D01*
X502005Y479710D01*
X502066Y479803D01*
X502129Y479894D01*
X502196Y479983D01*
X502266Y480069D01*
X502339Y480152D01*
X502414Y480234D01*
X502492Y480312D01*
X502574Y480387D01*
X502657Y480460D01*
X502743Y480530D01*
X502832Y480597D01*
X502923Y480660D01*
X503016Y480721D01*
X503111Y480778D01*
X503207Y480831D01*
X503306Y480882D01*
X503407Y480929D01*
X503509Y480972D01*
X503612Y481012D01*
X503717Y481048D01*
X503823Y481080D01*
X503930Y481109D01*
X504038Y481134D01*
X504147Y481155D01*
X504256Y481172D01*
X504366Y481186D01*
X504477Y481195D01*
X504587Y481201D01*
X504698Y481203D01*
X504809Y481201D01*
X504919Y481195D01*
X505030Y481186D01*
X505140Y481172D01*
X505249Y481155D01*
X505358Y481134D01*
X505466Y481109D01*
X505573Y481080D01*
X505679Y481048D01*
X505784Y481012D01*
X505887Y480972D01*
X505989Y480929D01*
X506090Y480882D01*
X506189Y480831D01*
X506286Y480778D01*
X506380Y480721D01*
X506473Y480660D01*
X506564Y480597D01*
X506653Y480530D01*
X506739Y480460D01*
X506822Y480387D01*
X506904Y480312D01*
X506982Y480234D01*
X507057Y480152D01*
X507130Y480069D01*
X507200Y479983D01*
X507267Y479894D01*
X507330Y479803D01*
X507391Y479710D01*
X507448Y479616D01*
X507501Y479519D01*
X507552Y479420D01*
X507599Y479319D01*
X507642Y479217D01*
X507682Y479114D01*
X507718Y479009D01*
X507750Y478903D01*
X507779Y478796D01*
X507804Y478688D01*
X507825Y478579D01*
X507842Y478470D01*
X507856Y478360D01*
X507865Y478249D01*
X507871Y478139D01*
X507873Y478028D01*
X507873Y474853D01*
X507871Y474713D01*
X507865Y474573D01*
X507856Y474433D01*
X507842Y474294D01*
X507825Y474155D01*
X507804Y474017D01*
X507779Y473879D01*
X507750Y473742D01*
X507718Y473606D01*
X507681Y473471D01*
X507641Y473337D01*
X507598Y473204D01*
X507550Y473072D01*
X507500Y472941D01*
X507445Y472812D01*
X507387Y472685D01*
X507326Y472559D01*
X507261Y472435D01*
X507192Y472313D01*
X507121Y472193D01*
X507046Y472075D01*
X506968Y471958D01*
X506886Y471844D01*
X506802Y471733D01*
X506714Y471624D01*
X506624Y471517D01*
X506530Y471412D01*
X506434Y471311D01*
X506335Y471212D01*
X506234Y471116D01*
X506129Y471022D01*
X506022Y470932D01*
X505913Y470844D01*
X505802Y470760D01*
X505688Y470678D01*
X505571Y470600D01*
X505453Y470525D01*
X505333Y470454D01*
X505211Y470385D01*
X505087Y470320D01*
X504961Y470259D01*
X504834Y470201D01*
X504705Y470146D01*
X504574Y470096D01*
X504442Y470048D01*
X504309Y470005D01*
X504175Y469965D01*
X504040Y469928D01*
X503904Y469896D01*
X503767Y469867D01*
X503629Y469842D01*
X503491Y469821D01*
X503352Y469804D01*
X503213Y469790D01*
X503073Y469781D01*
X502933Y469775D01*
X502793Y469773D01*
X513334Y469773D02*
X513334Y481203D01*
X516509Y481203D01*
X516620Y481201D01*
X516730Y481195D01*
X516841Y481186D01*
X516951Y481172D01*
X517060Y481155D01*
X517169Y481134D01*
X517277Y481109D01*
X517384Y481080D01*
X517490Y481048D01*
X517595Y481012D01*
X517698Y480972D01*
X517800Y480929D01*
X517901Y480882D01*
X518000Y480831D01*
X518097Y480778D01*
X518191Y480721D01*
X518284Y480660D01*
X518375Y480597D01*
X518464Y480530D01*
X518550Y480460D01*
X518633Y480387D01*
X518715Y480312D01*
X518793Y480234D01*
X518868Y480152D01*
X518941Y480069D01*
X519011Y479983D01*
X519078Y479894D01*
X519141Y479803D01*
X519202Y479710D01*
X519259Y479616D01*
X519312Y479519D01*
X519363Y479420D01*
X519410Y479319D01*
X519453Y479217D01*
X519493Y479114D01*
X519529Y479009D01*
X519561Y478903D01*
X519590Y478796D01*
X519615Y478688D01*
X519636Y478579D01*
X519653Y478470D01*
X519667Y478360D01*
X519676Y478249D01*
X519682Y478139D01*
X519684Y478028D01*
X519684Y472948D01*
X519682Y472837D01*
X519676Y472727D01*
X519667Y472616D01*
X519653Y472506D01*
X519636Y472397D01*
X519615Y472288D01*
X519590Y472180D01*
X519561Y472073D01*
X519529Y471967D01*
X519493Y471862D01*
X519453Y471759D01*
X519410Y471657D01*
X519363Y471556D01*
X519312Y471457D01*
X519259Y471360D01*
X519202Y471266D01*
X519141Y471173D01*
X519078Y471082D01*
X519011Y470993D01*
X518941Y470907D01*
X518868Y470824D01*
X518793Y470742D01*
X518715Y470664D01*
X518633Y470589D01*
X518550Y470516D01*
X518464Y470446D01*
X518375Y470379D01*
X518284Y470316D01*
X518191Y470255D01*
X518097Y470198D01*
X518000Y470145D01*
X517901Y470094D01*
X517800Y470047D01*
X517698Y470004D01*
X517595Y469964D01*
X517490Y469928D01*
X517384Y469896D01*
X517277Y469867D01*
X517169Y469842D01*
X517060Y469821D01*
X516951Y469804D01*
X516841Y469790D01*
X516730Y469781D01*
X516620Y469775D01*
X516509Y469773D01*
X513334Y469773D01*
X525145Y472948D02*
X525145Y478028D01*
X525147Y478139D01*
X525153Y478249D01*
X525162Y478360D01*
X525176Y478470D01*
X525193Y478579D01*
X525214Y478688D01*
X525239Y478796D01*
X525268Y478903D01*
X525300Y479009D01*
X525336Y479114D01*
X525376Y479217D01*
X525419Y479319D01*
X525466Y479420D01*
X525517Y479519D01*
X525570Y479616D01*
X525627Y479710D01*
X525688Y479803D01*
X525751Y479894D01*
X525818Y479983D01*
X525888Y480069D01*
X525961Y480152D01*
X526036Y480234D01*
X526114Y480312D01*
X526196Y480387D01*
X526279Y480460D01*
X526365Y480530D01*
X526454Y480597D01*
X526545Y480660D01*
X526638Y480721D01*
X526733Y480778D01*
X526829Y480831D01*
X526928Y480882D01*
X527029Y480929D01*
X527131Y480972D01*
X527234Y481012D01*
X527339Y481048D01*
X527445Y481080D01*
X527552Y481109D01*
X527660Y481134D01*
X527769Y481155D01*
X527878Y481172D01*
X527988Y481186D01*
X528099Y481195D01*
X528209Y481201D01*
X528320Y481203D01*
X528431Y481201D01*
X528541Y481195D01*
X528652Y481186D01*
X528762Y481172D01*
X528871Y481155D01*
X528980Y481134D01*
X529088Y481109D01*
X529195Y481080D01*
X529301Y481048D01*
X529406Y481012D01*
X529509Y480972D01*
X529611Y480929D01*
X529712Y480882D01*
X529811Y480831D01*
X529908Y480778D01*
X530002Y480721D01*
X530095Y480660D01*
X530186Y480597D01*
X530275Y480530D01*
X530361Y480460D01*
X530444Y480387D01*
X530526Y480312D01*
X530604Y480234D01*
X530679Y480152D01*
X530752Y480069D01*
X530822Y479983D01*
X530889Y479894D01*
X530952Y479803D01*
X531013Y479710D01*
X531070Y479616D01*
X531123Y479519D01*
X531174Y479420D01*
X531221Y479319D01*
X531264Y479217D01*
X531304Y479114D01*
X531340Y479009D01*
X531372Y478903D01*
X531401Y478796D01*
X531426Y478688D01*
X531447Y478579D01*
X531464Y478470D01*
X531478Y478360D01*
X531487Y478249D01*
X531493Y478139D01*
X531495Y478028D01*
X531495Y472948D01*
X531493Y472837D01*
X531487Y472727D01*
X531478Y472616D01*
X531464Y472506D01*
X531447Y472397D01*
X531426Y472288D01*
X531401Y472180D01*
X531372Y472073D01*
X531340Y471967D01*
X531304Y471862D01*
X531264Y471759D01*
X531221Y471657D01*
X531174Y471556D01*
X531123Y471457D01*
X531070Y471360D01*
X531013Y471266D01*
X530952Y471173D01*
X530889Y471082D01*
X530822Y470993D01*
X530752Y470907D01*
X530679Y470824D01*
X530604Y470742D01*
X530526Y470664D01*
X530444Y470589D01*
X530361Y470516D01*
X530275Y470446D01*
X530186Y470379D01*
X530095Y470316D01*
X530002Y470255D01*
X529908Y470198D01*
X529811Y470145D01*
X529712Y470094D01*
X529611Y470047D01*
X529509Y470004D01*
X529406Y469964D01*
X529301Y469928D01*
X529195Y469896D01*
X529088Y469867D01*
X528980Y469842D01*
X528871Y469821D01*
X528762Y469804D01*
X528652Y469790D01*
X528541Y469781D01*
X528431Y469775D01*
X528320Y469773D01*
X528209Y469775D01*
X528099Y469781D01*
X527988Y469790D01*
X527878Y469804D01*
X527769Y469821D01*
X527660Y469842D01*
X527552Y469867D01*
X527445Y469896D01*
X527339Y469928D01*
X527234Y469964D01*
X527131Y470004D01*
X527029Y470047D01*
X526928Y470094D01*
X526829Y470145D01*
X526733Y470198D01*
X526638Y470255D01*
X526545Y470316D01*
X526454Y470379D01*
X526365Y470446D01*
X526279Y470516D01*
X526196Y470589D01*
X526114Y470664D01*
X526036Y470742D01*
X525961Y470824D01*
X525888Y470907D01*
X525818Y470993D01*
X525751Y471082D01*
X525688Y471173D01*
X525627Y471266D01*
X525570Y471361D01*
X525517Y471457D01*
X525466Y471556D01*
X525419Y471657D01*
X525376Y471759D01*
X525336Y471862D01*
X525300Y471967D01*
X525268Y472073D01*
X525239Y472180D01*
X525214Y472288D01*
X525193Y472397D01*
X525176Y472506D01*
X525162Y472616D01*
X525153Y472727D01*
X525147Y472837D01*
X525145Y472948D01*
X536981Y469773D02*
X536981Y481203D01*
X542061Y481203D01*
X542061Y476123D02*
X536981Y476123D01*
D13*
X159371Y305308D02*
X156774Y305308D01*
X156675Y305310D01*
X156575Y305316D01*
X156476Y305325D01*
X156378Y305338D01*
X156280Y305355D01*
X156182Y305376D01*
X156086Y305401D01*
X155991Y305429D01*
X155897Y305461D01*
X155804Y305496D01*
X155712Y305535D01*
X155622Y305578D01*
X155534Y305623D01*
X155447Y305673D01*
X155363Y305725D01*
X155280Y305781D01*
X155200Y305839D01*
X155122Y305901D01*
X155047Y305966D01*
X154974Y306034D01*
X154904Y306104D01*
X154836Y306177D01*
X154771Y306252D01*
X154709Y306330D01*
X154651Y306410D01*
X154595Y306493D01*
X154543Y306577D01*
X154493Y306664D01*
X154448Y306752D01*
X154405Y306842D01*
X154366Y306934D01*
X154331Y307027D01*
X154299Y307121D01*
X154271Y307216D01*
X154246Y307312D01*
X154225Y307410D01*
X154208Y307508D01*
X154195Y307606D01*
X154186Y307705D01*
X154180Y307805D01*
X154178Y307904D01*
X154178Y314396D01*
X154180Y314495D01*
X154186Y314595D01*
X154195Y314694D01*
X154208Y314792D01*
X154225Y314890D01*
X154246Y314988D01*
X154271Y315084D01*
X154299Y315179D01*
X154331Y315273D01*
X154366Y315366D01*
X154405Y315458D01*
X154448Y315548D01*
X154493Y315636D01*
X154543Y315723D01*
X154595Y315807D01*
X154651Y315890D01*
X154709Y315970D01*
X154771Y316048D01*
X154836Y316123D01*
X154904Y316196D01*
X154974Y316266D01*
X155047Y316334D01*
X155122Y316399D01*
X155200Y316461D01*
X155280Y316519D01*
X155363Y316575D01*
X155447Y316627D01*
X155534Y316677D01*
X155622Y316722D01*
X155712Y316765D01*
X155804Y316804D01*
X155896Y316839D01*
X155991Y316871D01*
X156086Y316899D01*
X156182Y316924D01*
X156280Y316945D01*
X156378Y316962D01*
X156476Y316975D01*
X156575Y316984D01*
X156675Y316990D01*
X156774Y316992D01*
X159371Y316992D01*
X163736Y314396D02*
X166982Y316992D01*
X166982Y305308D01*
X170227Y305308D02*
X163736Y305308D01*
X189992Y215966D02*
X189992Y213369D01*
X189990Y213270D01*
X189984Y213170D01*
X189975Y213071D01*
X189962Y212973D01*
X189945Y212875D01*
X189924Y212777D01*
X189899Y212681D01*
X189871Y212586D01*
X189839Y212492D01*
X189804Y212399D01*
X189765Y212307D01*
X189722Y212217D01*
X189677Y212129D01*
X189627Y212042D01*
X189575Y211958D01*
X189519Y211875D01*
X189461Y211795D01*
X189399Y211717D01*
X189334Y211642D01*
X189266Y211569D01*
X189196Y211499D01*
X189123Y211431D01*
X189048Y211366D01*
X188970Y211304D01*
X188890Y211246D01*
X188807Y211190D01*
X188723Y211138D01*
X188636Y211088D01*
X188548Y211043D01*
X188458Y211000D01*
X188366Y210961D01*
X188273Y210926D01*
X188179Y210894D01*
X188084Y210866D01*
X187988Y210841D01*
X187890Y210820D01*
X187792Y210803D01*
X187694Y210790D01*
X187595Y210781D01*
X187495Y210775D01*
X187396Y210773D01*
X180904Y210773D01*
X180904Y210772D02*
X180805Y210774D01*
X180705Y210780D01*
X180606Y210789D01*
X180508Y210802D01*
X180410Y210820D01*
X180312Y210840D01*
X180216Y210865D01*
X180120Y210893D01*
X180026Y210925D01*
X179933Y210960D01*
X179842Y210999D01*
X179752Y211042D01*
X179663Y211087D01*
X179577Y211137D01*
X179492Y211189D01*
X179410Y211245D01*
X179330Y211304D01*
X179252Y211365D01*
X179176Y211430D01*
X179103Y211498D01*
X179033Y211568D01*
X178965Y211641D01*
X178900Y211717D01*
X178839Y211795D01*
X178780Y211875D01*
X178724Y211957D01*
X178672Y212042D01*
X178623Y212128D01*
X178577Y212217D01*
X178534Y212307D01*
X178495Y212398D01*
X178460Y212491D01*
X178428Y212585D01*
X178400Y212681D01*
X178375Y212777D01*
X178355Y212875D01*
X178337Y212973D01*
X178324Y213071D01*
X178315Y213170D01*
X178309Y213269D01*
X178307Y213369D01*
X178308Y213369D02*
X178308Y215966D01*
X178308Y223901D02*
X178310Y224008D01*
X178316Y224114D01*
X178326Y224220D01*
X178339Y224326D01*
X178357Y224432D01*
X178378Y224536D01*
X178403Y224640D01*
X178432Y224743D01*
X178464Y224844D01*
X178501Y224944D01*
X178541Y225043D01*
X178584Y225141D01*
X178631Y225237D01*
X178682Y225331D01*
X178736Y225423D01*
X178793Y225513D01*
X178853Y225601D01*
X178917Y225686D01*
X178984Y225769D01*
X179054Y225850D01*
X179126Y225928D01*
X179202Y226004D01*
X179280Y226076D01*
X179361Y226146D01*
X179444Y226213D01*
X179529Y226277D01*
X179617Y226337D01*
X179707Y226394D01*
X179799Y226448D01*
X179893Y226499D01*
X179989Y226546D01*
X180087Y226589D01*
X180186Y226629D01*
X180286Y226666D01*
X180387Y226698D01*
X180490Y226727D01*
X180594Y226752D01*
X180698Y226773D01*
X180804Y226791D01*
X180910Y226804D01*
X181016Y226814D01*
X181122Y226820D01*
X181229Y226822D01*
X178308Y223901D02*
X178310Y223780D01*
X178316Y223659D01*
X178326Y223539D01*
X178339Y223418D01*
X178357Y223299D01*
X178378Y223179D01*
X178403Y223061D01*
X178432Y222944D01*
X178465Y222827D01*
X178501Y222712D01*
X178542Y222598D01*
X178585Y222485D01*
X178633Y222373D01*
X178684Y222264D01*
X178739Y222156D01*
X178797Y222049D01*
X178858Y221945D01*
X178923Y221843D01*
X178991Y221743D01*
X179062Y221645D01*
X179136Y221549D01*
X179213Y221456D01*
X179294Y221366D01*
X179377Y221278D01*
X179463Y221193D01*
X179552Y221110D01*
X179643Y221031D01*
X179737Y220954D01*
X179833Y220881D01*
X179931Y220811D01*
X180032Y220744D01*
X180135Y220680D01*
X180240Y220620D01*
X180347Y220562D01*
X180455Y220509D01*
X180565Y220459D01*
X180677Y220413D01*
X180790Y220370D01*
X180905Y220331D01*
X183501Y225848D02*
X183423Y225927D01*
X183343Y226003D01*
X183260Y226076D01*
X183174Y226146D01*
X183087Y226213D01*
X182996Y226277D01*
X182904Y226337D01*
X182810Y226395D01*
X182713Y226449D01*
X182615Y226499D01*
X182515Y226546D01*
X182414Y226590D01*
X182311Y226630D01*
X182206Y226666D01*
X182101Y226698D01*
X181994Y226727D01*
X181887Y226752D01*
X181778Y226774D01*
X181669Y226791D01*
X181560Y226805D01*
X181450Y226814D01*
X181339Y226820D01*
X181229Y226822D01*
X183501Y225848D02*
X189992Y220331D01*
X189992Y226822D01*
X206304Y375158D02*
X208901Y375158D01*
X206304Y375158D02*
X206205Y375160D01*
X206105Y375166D01*
X206006Y375175D01*
X205908Y375188D01*
X205810Y375205D01*
X205712Y375226D01*
X205616Y375251D01*
X205521Y375279D01*
X205427Y375311D01*
X205334Y375346D01*
X205242Y375385D01*
X205152Y375428D01*
X205064Y375473D01*
X204977Y375523D01*
X204893Y375575D01*
X204810Y375631D01*
X204730Y375689D01*
X204652Y375751D01*
X204577Y375816D01*
X204504Y375884D01*
X204434Y375954D01*
X204366Y376027D01*
X204301Y376102D01*
X204239Y376180D01*
X204181Y376260D01*
X204125Y376343D01*
X204073Y376427D01*
X204023Y376514D01*
X203978Y376602D01*
X203935Y376692D01*
X203896Y376784D01*
X203861Y376877D01*
X203829Y376971D01*
X203801Y377066D01*
X203776Y377162D01*
X203755Y377260D01*
X203738Y377358D01*
X203725Y377456D01*
X203716Y377555D01*
X203710Y377655D01*
X203708Y377754D01*
X203708Y384246D01*
X203710Y384345D01*
X203716Y384445D01*
X203725Y384544D01*
X203738Y384642D01*
X203755Y384740D01*
X203776Y384838D01*
X203801Y384934D01*
X203829Y385029D01*
X203861Y385123D01*
X203896Y385216D01*
X203935Y385308D01*
X203978Y385398D01*
X204023Y385486D01*
X204073Y385573D01*
X204125Y385657D01*
X204181Y385740D01*
X204239Y385820D01*
X204301Y385898D01*
X204366Y385973D01*
X204434Y386046D01*
X204504Y386116D01*
X204577Y386184D01*
X204652Y386249D01*
X204730Y386311D01*
X204810Y386369D01*
X204893Y386425D01*
X204977Y386477D01*
X205064Y386527D01*
X205152Y386572D01*
X205242Y386615D01*
X205334Y386654D01*
X205426Y386689D01*
X205521Y386721D01*
X205616Y386749D01*
X205712Y386774D01*
X205810Y386795D01*
X205908Y386812D01*
X206006Y386825D01*
X206105Y386834D01*
X206205Y386840D01*
X206304Y386842D01*
X208901Y386842D01*
X213266Y375158D02*
X216512Y375158D01*
X216625Y375160D01*
X216738Y375166D01*
X216851Y375176D01*
X216964Y375190D01*
X217076Y375207D01*
X217187Y375229D01*
X217297Y375254D01*
X217407Y375284D01*
X217515Y375317D01*
X217622Y375354D01*
X217728Y375394D01*
X217832Y375439D01*
X217935Y375487D01*
X218036Y375538D01*
X218135Y375593D01*
X218232Y375651D01*
X218327Y375713D01*
X218420Y375778D01*
X218510Y375846D01*
X218598Y375917D01*
X218684Y375992D01*
X218767Y376069D01*
X218847Y376149D01*
X218924Y376232D01*
X218999Y376318D01*
X219070Y376406D01*
X219138Y376496D01*
X219203Y376589D01*
X219265Y376684D01*
X219323Y376781D01*
X219378Y376880D01*
X219429Y376981D01*
X219477Y377084D01*
X219522Y377188D01*
X219562Y377294D01*
X219599Y377401D01*
X219632Y377509D01*
X219662Y377619D01*
X219687Y377729D01*
X219709Y377840D01*
X219726Y377952D01*
X219740Y378065D01*
X219750Y378178D01*
X219756Y378291D01*
X219758Y378404D01*
X219756Y378517D01*
X219750Y378630D01*
X219740Y378743D01*
X219726Y378856D01*
X219709Y378968D01*
X219687Y379079D01*
X219662Y379189D01*
X219632Y379299D01*
X219599Y379407D01*
X219562Y379514D01*
X219522Y379620D01*
X219477Y379724D01*
X219429Y379827D01*
X219378Y379928D01*
X219323Y380027D01*
X219265Y380124D01*
X219203Y380219D01*
X219138Y380312D01*
X219070Y380402D01*
X218999Y380490D01*
X218924Y380576D01*
X218847Y380659D01*
X218767Y380739D01*
X218684Y380816D01*
X218598Y380891D01*
X218510Y380962D01*
X218420Y381030D01*
X218327Y381095D01*
X218232Y381157D01*
X218135Y381215D01*
X218036Y381270D01*
X217935Y381321D01*
X217832Y381369D01*
X217728Y381414D01*
X217622Y381454D01*
X217515Y381491D01*
X217407Y381524D01*
X217297Y381554D01*
X217187Y381579D01*
X217076Y381601D01*
X216964Y381618D01*
X216851Y381632D01*
X216738Y381642D01*
X216625Y381648D01*
X216512Y381650D01*
X217161Y386842D02*
X213266Y386842D01*
X217161Y386842D02*
X217262Y386840D01*
X217362Y386834D01*
X217462Y386824D01*
X217562Y386811D01*
X217661Y386793D01*
X217760Y386772D01*
X217857Y386747D01*
X217954Y386718D01*
X218049Y386685D01*
X218143Y386649D01*
X218235Y386609D01*
X218326Y386566D01*
X218415Y386519D01*
X218502Y386469D01*
X218588Y386415D01*
X218671Y386358D01*
X218751Y386298D01*
X218830Y386235D01*
X218906Y386168D01*
X218979Y386099D01*
X219049Y386027D01*
X219117Y385953D01*
X219182Y385876D01*
X219243Y385796D01*
X219302Y385714D01*
X219357Y385630D01*
X219409Y385544D01*
X219458Y385456D01*
X219503Y385366D01*
X219545Y385274D01*
X219583Y385181D01*
X219617Y385086D01*
X219648Y384991D01*
X219675Y384894D01*
X219698Y384796D01*
X219718Y384697D01*
X219733Y384597D01*
X219745Y384497D01*
X219753Y384397D01*
X219757Y384296D01*
X219757Y384196D01*
X219753Y384095D01*
X219745Y383995D01*
X219733Y383895D01*
X219718Y383795D01*
X219698Y383696D01*
X219675Y383598D01*
X219648Y383501D01*
X219617Y383406D01*
X219583Y383311D01*
X219545Y383218D01*
X219503Y383126D01*
X219458Y383036D01*
X219409Y382948D01*
X219357Y382862D01*
X219302Y382778D01*
X219243Y382696D01*
X219182Y382616D01*
X219117Y382539D01*
X219049Y382465D01*
X218979Y382393D01*
X218906Y382324D01*
X218830Y382257D01*
X218751Y382194D01*
X218671Y382134D01*
X218588Y382077D01*
X218502Y382023D01*
X218415Y381973D01*
X218326Y381926D01*
X218235Y381883D01*
X218143Y381843D01*
X218049Y381807D01*
X217954Y381774D01*
X217857Y381745D01*
X217760Y381720D01*
X217661Y381699D01*
X217562Y381681D01*
X217462Y381668D01*
X217362Y381658D01*
X217262Y381652D01*
X217161Y381650D01*
X217161Y381649D02*
X214564Y381649D01*
X219004Y71628D02*
X221601Y71628D01*
X219004Y71628D02*
X218905Y71630D01*
X218805Y71636D01*
X218706Y71645D01*
X218608Y71658D01*
X218510Y71675D01*
X218412Y71696D01*
X218316Y71721D01*
X218221Y71749D01*
X218127Y71781D01*
X218034Y71816D01*
X217942Y71855D01*
X217852Y71898D01*
X217764Y71943D01*
X217677Y71993D01*
X217593Y72045D01*
X217510Y72101D01*
X217430Y72159D01*
X217352Y72221D01*
X217277Y72286D01*
X217204Y72354D01*
X217134Y72424D01*
X217066Y72497D01*
X217001Y72572D01*
X216939Y72650D01*
X216881Y72730D01*
X216825Y72813D01*
X216773Y72897D01*
X216723Y72984D01*
X216678Y73072D01*
X216635Y73162D01*
X216596Y73254D01*
X216561Y73347D01*
X216529Y73441D01*
X216501Y73536D01*
X216476Y73632D01*
X216455Y73730D01*
X216438Y73828D01*
X216425Y73926D01*
X216416Y74025D01*
X216410Y74125D01*
X216408Y74224D01*
X216408Y80716D01*
X216410Y80815D01*
X216416Y80915D01*
X216425Y81014D01*
X216438Y81112D01*
X216455Y81210D01*
X216476Y81308D01*
X216501Y81404D01*
X216529Y81499D01*
X216561Y81593D01*
X216596Y81686D01*
X216635Y81778D01*
X216678Y81868D01*
X216723Y81956D01*
X216773Y82043D01*
X216825Y82127D01*
X216881Y82210D01*
X216939Y82290D01*
X217001Y82368D01*
X217066Y82443D01*
X217134Y82516D01*
X217204Y82586D01*
X217277Y82654D01*
X217352Y82719D01*
X217430Y82781D01*
X217510Y82839D01*
X217593Y82895D01*
X217677Y82947D01*
X217764Y82997D01*
X217852Y83042D01*
X217942Y83085D01*
X218034Y83124D01*
X218126Y83159D01*
X218221Y83191D01*
X218316Y83219D01*
X218412Y83244D01*
X218510Y83265D01*
X218608Y83282D01*
X218706Y83295D01*
X218805Y83304D01*
X218905Y83310D01*
X219004Y83312D01*
X221601Y83312D01*
X228563Y83312D02*
X225966Y74224D01*
X232457Y74224D01*
X230510Y76821D02*
X230510Y71628D01*
X177292Y352354D02*
X177292Y354951D01*
X177292Y352354D02*
X177290Y352255D01*
X177284Y352155D01*
X177275Y352056D01*
X177262Y351958D01*
X177245Y351860D01*
X177224Y351762D01*
X177199Y351666D01*
X177171Y351571D01*
X177139Y351477D01*
X177104Y351384D01*
X177065Y351292D01*
X177022Y351202D01*
X176977Y351114D01*
X176927Y351027D01*
X176875Y350943D01*
X176819Y350860D01*
X176761Y350780D01*
X176699Y350702D01*
X176634Y350627D01*
X176566Y350554D01*
X176496Y350484D01*
X176423Y350416D01*
X176348Y350351D01*
X176270Y350289D01*
X176190Y350231D01*
X176107Y350175D01*
X176023Y350123D01*
X175936Y350073D01*
X175848Y350028D01*
X175758Y349985D01*
X175666Y349946D01*
X175573Y349911D01*
X175479Y349879D01*
X175384Y349851D01*
X175288Y349826D01*
X175190Y349805D01*
X175092Y349788D01*
X174994Y349775D01*
X174895Y349766D01*
X174795Y349760D01*
X174696Y349758D01*
X168204Y349758D01*
X168105Y349760D01*
X168005Y349766D01*
X167906Y349775D01*
X167808Y349788D01*
X167710Y349806D01*
X167612Y349826D01*
X167516Y349851D01*
X167420Y349879D01*
X167326Y349911D01*
X167233Y349946D01*
X167142Y349985D01*
X167052Y350028D01*
X166963Y350073D01*
X166877Y350123D01*
X166792Y350175D01*
X166710Y350231D01*
X166630Y350290D01*
X166552Y350351D01*
X166476Y350416D01*
X166403Y350484D01*
X166333Y350554D01*
X166265Y350627D01*
X166200Y350703D01*
X166139Y350781D01*
X166080Y350861D01*
X166024Y350943D01*
X165972Y351028D01*
X165923Y351114D01*
X165877Y351203D01*
X165834Y351293D01*
X165795Y351384D01*
X165760Y351477D01*
X165728Y351571D01*
X165700Y351667D01*
X165675Y351763D01*
X165655Y351861D01*
X165637Y351959D01*
X165624Y352057D01*
X165615Y352156D01*
X165609Y352255D01*
X165607Y352355D01*
X165608Y352354D02*
X165608Y354951D01*
X177292Y359316D02*
X177292Y363211D01*
X177290Y363310D01*
X177284Y363410D01*
X177275Y363509D01*
X177262Y363607D01*
X177245Y363705D01*
X177224Y363803D01*
X177199Y363899D01*
X177171Y363994D01*
X177139Y364088D01*
X177104Y364181D01*
X177065Y364273D01*
X177022Y364363D01*
X176977Y364451D01*
X176927Y364538D01*
X176875Y364622D01*
X176819Y364705D01*
X176761Y364785D01*
X176699Y364863D01*
X176634Y364938D01*
X176566Y365011D01*
X176496Y365081D01*
X176423Y365149D01*
X176348Y365214D01*
X176270Y365276D01*
X176190Y365334D01*
X176107Y365390D01*
X176023Y365442D01*
X175936Y365492D01*
X175848Y365537D01*
X175758Y365580D01*
X175666Y365619D01*
X175573Y365654D01*
X175479Y365686D01*
X175384Y365714D01*
X175288Y365739D01*
X175190Y365760D01*
X175092Y365777D01*
X174994Y365790D01*
X174895Y365799D01*
X174795Y365805D01*
X174696Y365807D01*
X173397Y365807D01*
X173298Y365805D01*
X173198Y365799D01*
X173099Y365790D01*
X173001Y365777D01*
X172903Y365760D01*
X172805Y365739D01*
X172709Y365714D01*
X172614Y365686D01*
X172520Y365654D01*
X172427Y365619D01*
X172335Y365580D01*
X172245Y365537D01*
X172157Y365492D01*
X172070Y365442D01*
X171986Y365390D01*
X171903Y365334D01*
X171823Y365276D01*
X171745Y365214D01*
X171670Y365149D01*
X171597Y365081D01*
X171527Y365011D01*
X171459Y364938D01*
X171394Y364863D01*
X171332Y364785D01*
X171274Y364705D01*
X171218Y364622D01*
X171166Y364538D01*
X171116Y364451D01*
X171071Y364363D01*
X171028Y364273D01*
X170989Y364181D01*
X170954Y364088D01*
X170922Y363994D01*
X170894Y363899D01*
X170869Y363803D01*
X170848Y363705D01*
X170831Y363607D01*
X170818Y363509D01*
X170809Y363410D01*
X170803Y363310D01*
X170801Y363211D01*
X170801Y359316D01*
X165608Y359316D01*
X165608Y365807D01*
X288854Y298958D02*
X291451Y298958D01*
X288854Y298958D02*
X288755Y298960D01*
X288655Y298966D01*
X288556Y298975D01*
X288458Y298988D01*
X288360Y299005D01*
X288262Y299026D01*
X288166Y299051D01*
X288071Y299079D01*
X287977Y299111D01*
X287884Y299146D01*
X287792Y299185D01*
X287702Y299228D01*
X287614Y299273D01*
X287527Y299323D01*
X287443Y299375D01*
X287360Y299431D01*
X287280Y299489D01*
X287202Y299551D01*
X287127Y299616D01*
X287054Y299684D01*
X286984Y299754D01*
X286916Y299827D01*
X286851Y299902D01*
X286789Y299980D01*
X286731Y300060D01*
X286675Y300143D01*
X286623Y300227D01*
X286573Y300314D01*
X286528Y300402D01*
X286485Y300492D01*
X286446Y300584D01*
X286411Y300677D01*
X286379Y300771D01*
X286351Y300866D01*
X286326Y300962D01*
X286305Y301060D01*
X286288Y301158D01*
X286275Y301256D01*
X286266Y301355D01*
X286260Y301455D01*
X286258Y301554D01*
X286258Y308046D01*
X286260Y308145D01*
X286266Y308245D01*
X286275Y308344D01*
X286288Y308442D01*
X286305Y308540D01*
X286326Y308638D01*
X286351Y308734D01*
X286379Y308829D01*
X286411Y308923D01*
X286446Y309016D01*
X286485Y309108D01*
X286528Y309198D01*
X286573Y309286D01*
X286623Y309373D01*
X286675Y309457D01*
X286731Y309540D01*
X286789Y309620D01*
X286851Y309698D01*
X286916Y309773D01*
X286984Y309846D01*
X287054Y309916D01*
X287127Y309984D01*
X287202Y310049D01*
X287280Y310111D01*
X287360Y310169D01*
X287443Y310225D01*
X287527Y310277D01*
X287614Y310327D01*
X287702Y310372D01*
X287792Y310415D01*
X287884Y310454D01*
X287976Y310489D01*
X288071Y310521D01*
X288166Y310549D01*
X288262Y310574D01*
X288360Y310595D01*
X288458Y310612D01*
X288556Y310625D01*
X288655Y310634D01*
X288755Y310640D01*
X288854Y310642D01*
X291451Y310642D01*
X295816Y305449D02*
X299711Y305449D01*
X299810Y305447D01*
X299910Y305441D01*
X300009Y305432D01*
X300107Y305419D01*
X300205Y305402D01*
X300303Y305381D01*
X300399Y305356D01*
X300494Y305328D01*
X300588Y305296D01*
X300681Y305261D01*
X300773Y305222D01*
X300863Y305179D01*
X300951Y305134D01*
X301038Y305084D01*
X301122Y305032D01*
X301205Y304976D01*
X301285Y304918D01*
X301363Y304856D01*
X301438Y304791D01*
X301511Y304723D01*
X301581Y304653D01*
X301649Y304580D01*
X301714Y304505D01*
X301776Y304427D01*
X301834Y304347D01*
X301890Y304264D01*
X301942Y304180D01*
X301992Y304093D01*
X302037Y304005D01*
X302080Y303915D01*
X302119Y303823D01*
X302154Y303730D01*
X302186Y303636D01*
X302214Y303541D01*
X302239Y303445D01*
X302260Y303347D01*
X302277Y303249D01*
X302290Y303151D01*
X302299Y303052D01*
X302305Y302952D01*
X302307Y302853D01*
X302307Y302204D01*
X302308Y302204D02*
X302306Y302091D01*
X302300Y301978D01*
X302290Y301865D01*
X302276Y301752D01*
X302259Y301640D01*
X302237Y301529D01*
X302212Y301419D01*
X302182Y301309D01*
X302149Y301201D01*
X302112Y301094D01*
X302072Y300988D01*
X302027Y300884D01*
X301979Y300781D01*
X301928Y300680D01*
X301873Y300581D01*
X301815Y300484D01*
X301753Y300389D01*
X301688Y300296D01*
X301620Y300206D01*
X301549Y300118D01*
X301474Y300032D01*
X301397Y299949D01*
X301317Y299869D01*
X301234Y299792D01*
X301148Y299717D01*
X301060Y299646D01*
X300970Y299578D01*
X300877Y299513D01*
X300782Y299451D01*
X300685Y299393D01*
X300586Y299338D01*
X300485Y299287D01*
X300382Y299239D01*
X300278Y299194D01*
X300172Y299154D01*
X300065Y299117D01*
X299957Y299084D01*
X299847Y299054D01*
X299737Y299029D01*
X299626Y299007D01*
X299514Y298990D01*
X299401Y298976D01*
X299288Y298966D01*
X299175Y298960D01*
X299062Y298958D01*
X298949Y298960D01*
X298836Y298966D01*
X298723Y298976D01*
X298610Y298990D01*
X298498Y299007D01*
X298387Y299029D01*
X298277Y299054D01*
X298167Y299084D01*
X298059Y299117D01*
X297952Y299154D01*
X297846Y299194D01*
X297742Y299239D01*
X297639Y299287D01*
X297538Y299338D01*
X297439Y299393D01*
X297342Y299451D01*
X297247Y299513D01*
X297154Y299578D01*
X297064Y299646D01*
X296976Y299717D01*
X296890Y299792D01*
X296807Y299869D01*
X296727Y299949D01*
X296650Y300032D01*
X296575Y300118D01*
X296504Y300206D01*
X296436Y300296D01*
X296371Y300389D01*
X296309Y300484D01*
X296251Y300581D01*
X296196Y300680D01*
X296145Y300781D01*
X296097Y300884D01*
X296052Y300988D01*
X296012Y301094D01*
X295975Y301201D01*
X295942Y301309D01*
X295912Y301419D01*
X295887Y301529D01*
X295865Y301640D01*
X295848Y301752D01*
X295834Y301865D01*
X295824Y301978D01*
X295818Y302091D01*
X295816Y302204D01*
X295816Y305449D01*
X295818Y305592D01*
X295824Y305735D01*
X295834Y305878D01*
X295848Y306020D01*
X295865Y306162D01*
X295887Y306304D01*
X295912Y306445D01*
X295942Y306585D01*
X295975Y306724D01*
X296012Y306862D01*
X296053Y306999D01*
X296097Y307135D01*
X296146Y307270D01*
X296198Y307403D01*
X296253Y307535D01*
X296313Y307665D01*
X296376Y307794D01*
X296442Y307921D01*
X296512Y308045D01*
X296585Y308168D01*
X296662Y308289D01*
X296742Y308408D01*
X296825Y308524D01*
X296911Y308639D01*
X297000Y308750D01*
X297093Y308860D01*
X297188Y308966D01*
X297287Y309070D01*
X297388Y309171D01*
X297492Y309270D01*
X297598Y309365D01*
X297708Y309458D01*
X297819Y309547D01*
X297934Y309633D01*
X298050Y309716D01*
X298169Y309796D01*
X298290Y309873D01*
X298412Y309946D01*
X298537Y310016D01*
X298664Y310082D01*
X298793Y310145D01*
X298923Y310205D01*
X299055Y310260D01*
X299188Y310312D01*
X299323Y310361D01*
X299459Y310405D01*
X299596Y310446D01*
X299734Y310483D01*
X299873Y310516D01*
X300013Y310546D01*
X300154Y310571D01*
X300296Y310593D01*
X300438Y310610D01*
X300580Y310624D01*
X300723Y310634D01*
X300866Y310640D01*
X301009Y310642D01*
X272401Y368808D02*
X269804Y368808D01*
X269705Y368810D01*
X269605Y368816D01*
X269506Y368825D01*
X269408Y368838D01*
X269310Y368855D01*
X269212Y368876D01*
X269116Y368901D01*
X269021Y368929D01*
X268927Y368961D01*
X268834Y368996D01*
X268742Y369035D01*
X268652Y369078D01*
X268564Y369123D01*
X268477Y369173D01*
X268393Y369225D01*
X268310Y369281D01*
X268230Y369339D01*
X268152Y369401D01*
X268077Y369466D01*
X268004Y369534D01*
X267934Y369604D01*
X267866Y369677D01*
X267801Y369752D01*
X267739Y369830D01*
X267681Y369910D01*
X267625Y369993D01*
X267573Y370077D01*
X267523Y370164D01*
X267478Y370252D01*
X267435Y370342D01*
X267396Y370434D01*
X267361Y370527D01*
X267329Y370621D01*
X267301Y370716D01*
X267276Y370812D01*
X267255Y370910D01*
X267238Y371008D01*
X267225Y371106D01*
X267216Y371205D01*
X267210Y371305D01*
X267208Y371404D01*
X267208Y377896D01*
X267210Y377995D01*
X267216Y378095D01*
X267225Y378194D01*
X267238Y378292D01*
X267255Y378390D01*
X267276Y378488D01*
X267301Y378584D01*
X267329Y378679D01*
X267361Y378773D01*
X267396Y378866D01*
X267435Y378958D01*
X267478Y379048D01*
X267523Y379136D01*
X267573Y379223D01*
X267625Y379307D01*
X267681Y379390D01*
X267739Y379470D01*
X267801Y379548D01*
X267866Y379623D01*
X267934Y379696D01*
X268004Y379766D01*
X268077Y379834D01*
X268152Y379899D01*
X268230Y379961D01*
X268310Y380019D01*
X268393Y380075D01*
X268477Y380127D01*
X268564Y380177D01*
X268652Y380222D01*
X268742Y380265D01*
X268834Y380304D01*
X268926Y380339D01*
X269021Y380371D01*
X269116Y380399D01*
X269212Y380424D01*
X269310Y380445D01*
X269408Y380462D01*
X269506Y380475D01*
X269605Y380484D01*
X269705Y380490D01*
X269804Y380492D01*
X272401Y380492D01*
X276766Y380492D02*
X276766Y379194D01*
X276766Y380492D02*
X283257Y380492D01*
X280012Y368808D01*
D11*
X190500Y120650D02*
X184150Y114300D01*
X171450Y114300D01*
X165100Y120650D01*
X165100Y133350D01*
X171450Y139700D01*
X184150Y139700D01*
X190500Y133350D01*
X222250Y114300D02*
X234950Y114300D01*
X222250Y114300D02*
X215900Y120650D01*
X215900Y133350D01*
X222250Y139700D01*
X215900Y120650D02*
X209550Y114300D01*
X196850Y114300D01*
X190500Y120650D01*
X190500Y133350D01*
X196850Y139700D01*
X209550Y139700D01*
X215900Y133350D01*
X241300Y133350D02*
X241300Y120650D01*
X234950Y114300D01*
X241300Y133350D02*
X234950Y139700D01*
X222250Y139700D01*
X158750Y114300D02*
X146050Y114300D01*
X139700Y120650D01*
X139700Y133350D01*
X146050Y139700D01*
X165100Y120650D02*
X158750Y114300D01*
X165100Y133350D02*
X158750Y139700D01*
X146050Y139700D01*
D12*
X125603Y129667D02*
X125603Y127762D01*
X125603Y129667D02*
X131953Y129667D01*
X131953Y125857D01*
X131951Y125757D01*
X131945Y125658D01*
X131935Y125558D01*
X131922Y125460D01*
X131904Y125361D01*
X131883Y125264D01*
X131858Y125168D01*
X131829Y125072D01*
X131796Y124978D01*
X131760Y124885D01*
X131720Y124794D01*
X131676Y124704D01*
X131629Y124616D01*
X131579Y124530D01*
X131525Y124446D01*
X131468Y124364D01*
X131408Y124285D01*
X131344Y124207D01*
X131278Y124133D01*
X131209Y124061D01*
X131137Y123992D01*
X131063Y123926D01*
X130985Y123862D01*
X130906Y123802D01*
X130824Y123745D01*
X130740Y123691D01*
X130654Y123641D01*
X130566Y123594D01*
X130476Y123550D01*
X130385Y123510D01*
X130292Y123474D01*
X130198Y123441D01*
X130102Y123412D01*
X130006Y123387D01*
X129909Y123366D01*
X129810Y123348D01*
X129712Y123335D01*
X129612Y123325D01*
X129513Y123319D01*
X129413Y123317D01*
X123063Y123317D01*
X122963Y123319D01*
X122864Y123325D01*
X122764Y123335D01*
X122666Y123348D01*
X122567Y123366D01*
X122470Y123387D01*
X122374Y123412D01*
X122278Y123441D01*
X122184Y123474D01*
X122091Y123510D01*
X122000Y123550D01*
X121910Y123594D01*
X121822Y123641D01*
X121736Y123691D01*
X121652Y123745D01*
X121570Y123802D01*
X121491Y123862D01*
X121413Y123926D01*
X121339Y123992D01*
X121267Y124061D01*
X121198Y124133D01*
X121132Y124207D01*
X121068Y124285D01*
X121008Y124364D01*
X120951Y124446D01*
X120897Y124530D01*
X120847Y124616D01*
X120800Y124704D01*
X120756Y124794D01*
X120716Y124885D01*
X120680Y124978D01*
X120647Y125072D01*
X120618Y125168D01*
X120593Y125264D01*
X120572Y125361D01*
X120554Y125460D01*
X120541Y125558D01*
X120531Y125658D01*
X120525Y125757D01*
X120523Y125857D01*
X120523Y129667D01*
X120523Y135700D02*
X131953Y135700D01*
X120523Y135700D02*
X120523Y138875D01*
X120525Y138986D01*
X120531Y139096D01*
X120540Y139207D01*
X120554Y139317D01*
X120571Y139426D01*
X120592Y139535D01*
X120617Y139643D01*
X120646Y139750D01*
X120678Y139856D01*
X120714Y139961D01*
X120754Y140064D01*
X120797Y140166D01*
X120844Y140267D01*
X120895Y140366D01*
X120948Y140463D01*
X121005Y140557D01*
X121066Y140650D01*
X121129Y140741D01*
X121196Y140830D01*
X121266Y140916D01*
X121339Y140999D01*
X121414Y141081D01*
X121492Y141159D01*
X121574Y141234D01*
X121657Y141307D01*
X121743Y141377D01*
X121832Y141444D01*
X121923Y141507D01*
X122016Y141568D01*
X122111Y141625D01*
X122207Y141678D01*
X122306Y141729D01*
X122407Y141776D01*
X122509Y141819D01*
X122612Y141859D01*
X122717Y141895D01*
X122823Y141927D01*
X122930Y141956D01*
X123038Y141981D01*
X123147Y142002D01*
X123256Y142019D01*
X123366Y142033D01*
X123477Y142042D01*
X123587Y142048D01*
X123698Y142050D01*
X123809Y142048D01*
X123919Y142042D01*
X124030Y142033D01*
X124140Y142019D01*
X124249Y142002D01*
X124358Y141981D01*
X124466Y141956D01*
X124573Y141927D01*
X124679Y141895D01*
X124784Y141859D01*
X124887Y141819D01*
X124989Y141776D01*
X125090Y141729D01*
X125189Y141678D01*
X125286Y141625D01*
X125380Y141568D01*
X125473Y141507D01*
X125564Y141444D01*
X125653Y141377D01*
X125739Y141307D01*
X125822Y141234D01*
X125904Y141159D01*
X125982Y141081D01*
X126057Y140999D01*
X126130Y140916D01*
X126200Y140830D01*
X126267Y140741D01*
X126330Y140650D01*
X126391Y140557D01*
X126448Y140463D01*
X126501Y140366D01*
X126552Y140267D01*
X126599Y140166D01*
X126642Y140064D01*
X126682Y139961D01*
X126718Y139856D01*
X126750Y139750D01*
X126779Y139643D01*
X126804Y139535D01*
X126825Y139426D01*
X126842Y139317D01*
X126856Y139207D01*
X126865Y139096D01*
X126871Y138986D01*
X126873Y138875D01*
X126873Y135700D01*
X131953Y149987D02*
X131951Y150087D01*
X131945Y150186D01*
X131935Y150286D01*
X131922Y150384D01*
X131904Y150483D01*
X131883Y150580D01*
X131858Y150676D01*
X131829Y150772D01*
X131796Y150866D01*
X131760Y150959D01*
X131720Y151050D01*
X131676Y151140D01*
X131629Y151228D01*
X131579Y151314D01*
X131525Y151398D01*
X131468Y151480D01*
X131408Y151559D01*
X131344Y151637D01*
X131278Y151711D01*
X131209Y151783D01*
X131137Y151852D01*
X131063Y151918D01*
X130985Y151982D01*
X130906Y152042D01*
X130824Y152099D01*
X130740Y152153D01*
X130654Y152203D01*
X130566Y152250D01*
X130476Y152294D01*
X130385Y152334D01*
X130292Y152370D01*
X130198Y152403D01*
X130102Y152432D01*
X130006Y152457D01*
X129909Y152478D01*
X129810Y152496D01*
X129712Y152509D01*
X129612Y152519D01*
X129513Y152525D01*
X129413Y152527D01*
X131953Y149987D02*
X131951Y149846D01*
X131946Y149705D01*
X131936Y149564D01*
X131923Y149423D01*
X131907Y149283D01*
X131886Y149143D01*
X131862Y149004D01*
X131834Y148865D01*
X131803Y148728D01*
X131768Y148591D01*
X131730Y148455D01*
X131688Y148320D01*
X131642Y148187D01*
X131593Y148054D01*
X131540Y147923D01*
X131484Y147794D01*
X131425Y147665D01*
X131362Y147539D01*
X131296Y147414D01*
X131227Y147291D01*
X131154Y147170D01*
X131078Y147051D01*
X130999Y146933D01*
X130918Y146818D01*
X130833Y146706D01*
X130745Y146595D01*
X130654Y146487D01*
X130561Y146381D01*
X130464Y146278D01*
X130365Y146177D01*
X123063Y146495D02*
X122963Y146497D01*
X122864Y146503D01*
X122764Y146513D01*
X122666Y146526D01*
X122567Y146544D01*
X122470Y146565D01*
X122374Y146590D01*
X122278Y146619D01*
X122184Y146652D01*
X122091Y146688D01*
X122000Y146728D01*
X121910Y146772D01*
X121822Y146819D01*
X121736Y146869D01*
X121652Y146923D01*
X121570Y146980D01*
X121491Y147040D01*
X121413Y147104D01*
X121339Y147170D01*
X121267Y147239D01*
X121198Y147311D01*
X121132Y147385D01*
X121068Y147463D01*
X121008Y147542D01*
X120951Y147624D01*
X120897Y147708D01*
X120847Y147794D01*
X120800Y147882D01*
X120756Y147972D01*
X120716Y148063D01*
X120680Y148156D01*
X120647Y148250D01*
X120618Y148346D01*
X120593Y148442D01*
X120572Y148539D01*
X120554Y148638D01*
X120541Y148736D01*
X120531Y148836D01*
X120525Y148935D01*
X120523Y149035D01*
X120525Y149168D01*
X120530Y149301D01*
X120540Y149434D01*
X120553Y149567D01*
X120570Y149699D01*
X120590Y149831D01*
X120614Y149962D01*
X120642Y150092D01*
X120673Y150222D01*
X120708Y150350D01*
X120747Y150478D01*
X120789Y150604D01*
X120835Y150729D01*
X120884Y150853D01*
X120936Y150976D01*
X120992Y151097D01*
X121052Y151216D01*
X121114Y151334D01*
X121180Y151449D01*
X121249Y151563D01*
X121322Y151675D01*
X121397Y151785D01*
X121476Y151893D01*
X125286Y147764D02*
X125234Y147680D01*
X125179Y147597D01*
X125120Y147517D01*
X125059Y147439D01*
X124995Y147364D01*
X124927Y147291D01*
X124857Y147220D01*
X124785Y147153D01*
X124710Y147088D01*
X124632Y147026D01*
X124552Y146967D01*
X124470Y146911D01*
X124386Y146859D01*
X124300Y146810D01*
X124212Y146764D01*
X124122Y146721D01*
X124031Y146682D01*
X123938Y146647D01*
X123844Y146615D01*
X123749Y146587D01*
X123653Y146562D01*
X123556Y146542D01*
X123458Y146524D01*
X123360Y146511D01*
X123261Y146502D01*
X123162Y146496D01*
X123063Y146494D01*
X127190Y151257D02*
X127242Y151341D01*
X127297Y151424D01*
X127356Y151504D01*
X127417Y151582D01*
X127481Y151657D01*
X127549Y151730D01*
X127619Y151801D01*
X127691Y151868D01*
X127766Y151933D01*
X127844Y151995D01*
X127924Y152054D01*
X128006Y152110D01*
X128090Y152162D01*
X128176Y152211D01*
X128264Y152257D01*
X128354Y152300D01*
X128445Y152339D01*
X128538Y152374D01*
X128632Y152406D01*
X128727Y152434D01*
X128823Y152459D01*
X128920Y152479D01*
X129018Y152497D01*
X129116Y152510D01*
X129215Y152519D01*
X129314Y152525D01*
X129413Y152527D01*
X127191Y151257D02*
X125286Y147765D01*
D11*
X400050Y381000D02*
X406400Y374650D01*
X406400Y361950D01*
X400050Y355600D01*
X387350Y355600D01*
X381000Y361950D01*
X381000Y374650D01*
X387350Y381000D01*
X406400Y412750D02*
X406400Y425450D01*
X406400Y412750D02*
X400050Y406400D01*
X387350Y406400D01*
X381000Y412750D01*
X400050Y406400D02*
X406400Y400050D01*
X406400Y387350D01*
X400050Y381000D01*
X387350Y381000D01*
X381000Y387350D01*
X381000Y400050D01*
X387350Y406400D01*
X387350Y431800D02*
X400050Y431800D01*
X406400Y425450D01*
X387350Y431800D02*
X381000Y425450D01*
X381000Y412750D01*
X406400Y349250D02*
X406400Y336550D01*
X400050Y330200D01*
X387350Y330200D01*
X381000Y336550D01*
X400050Y355600D02*
X406400Y349250D01*
X387350Y355600D02*
X381000Y349250D01*
X381000Y336550D01*
D12*
X408559Y350647D02*
X408559Y362077D01*
X408559Y356997D02*
X414909Y356997D01*
X414909Y362077D02*
X414909Y350647D01*
X420751Y353822D02*
X420751Y362077D01*
X420751Y353822D02*
X420753Y353711D01*
X420759Y353601D01*
X420768Y353490D01*
X420782Y353380D01*
X420799Y353271D01*
X420820Y353162D01*
X420845Y353054D01*
X420874Y352947D01*
X420906Y352841D01*
X420942Y352736D01*
X420982Y352633D01*
X421025Y352531D01*
X421072Y352430D01*
X421123Y352331D01*
X421176Y352235D01*
X421233Y352140D01*
X421294Y352047D01*
X421357Y351956D01*
X421424Y351867D01*
X421494Y351781D01*
X421567Y351698D01*
X421642Y351616D01*
X421720Y351538D01*
X421802Y351463D01*
X421885Y351390D01*
X421971Y351320D01*
X422060Y351253D01*
X422151Y351190D01*
X422244Y351129D01*
X422339Y351072D01*
X422435Y351019D01*
X422534Y350968D01*
X422635Y350921D01*
X422737Y350878D01*
X422840Y350838D01*
X422945Y350802D01*
X423051Y350770D01*
X423158Y350741D01*
X423266Y350716D01*
X423375Y350695D01*
X423484Y350678D01*
X423594Y350664D01*
X423705Y350655D01*
X423815Y350649D01*
X423926Y350647D01*
X424037Y350649D01*
X424147Y350655D01*
X424258Y350664D01*
X424368Y350678D01*
X424477Y350695D01*
X424586Y350716D01*
X424694Y350741D01*
X424801Y350770D01*
X424907Y350802D01*
X425012Y350838D01*
X425115Y350878D01*
X425217Y350921D01*
X425318Y350968D01*
X425417Y351019D01*
X425513Y351072D01*
X425608Y351129D01*
X425701Y351190D01*
X425792Y351253D01*
X425881Y351320D01*
X425967Y351390D01*
X426050Y351463D01*
X426132Y351538D01*
X426210Y351616D01*
X426285Y351698D01*
X426358Y351781D01*
X426428Y351867D01*
X426495Y351956D01*
X426558Y352047D01*
X426619Y352140D01*
X426676Y352234D01*
X426729Y352331D01*
X426780Y352430D01*
X426827Y352531D01*
X426870Y352633D01*
X426910Y352736D01*
X426946Y352841D01*
X426978Y352947D01*
X427007Y353054D01*
X427032Y353162D01*
X427053Y353271D01*
X427070Y353380D01*
X427084Y353490D01*
X427093Y353601D01*
X427099Y353711D01*
X427101Y353822D01*
X427101Y362077D01*
X433070Y362077D02*
X433070Y350647D01*
X436880Y355727D02*
X433070Y362077D01*
X436880Y355727D02*
X440690Y362077D01*
X440690Y350647D01*
X447167Y350647D02*
X447167Y362077D01*
X445897Y350647D02*
X448437Y350647D01*
X448437Y362077D02*
X445897Y362077D01*
X453517Y362077D02*
X453517Y350647D01*
X453517Y362077D02*
X456692Y362077D01*
X456803Y362075D01*
X456913Y362069D01*
X457024Y362060D01*
X457134Y362046D01*
X457243Y362029D01*
X457352Y362008D01*
X457460Y361983D01*
X457567Y361954D01*
X457673Y361922D01*
X457778Y361886D01*
X457881Y361846D01*
X457983Y361803D01*
X458084Y361756D01*
X458183Y361705D01*
X458280Y361652D01*
X458374Y361595D01*
X458467Y361534D01*
X458558Y361471D01*
X458647Y361404D01*
X458733Y361334D01*
X458816Y361261D01*
X458898Y361186D01*
X458976Y361108D01*
X459051Y361026D01*
X459124Y360943D01*
X459194Y360857D01*
X459261Y360768D01*
X459324Y360677D01*
X459385Y360584D01*
X459442Y360490D01*
X459495Y360393D01*
X459546Y360294D01*
X459593Y360193D01*
X459636Y360091D01*
X459676Y359988D01*
X459712Y359883D01*
X459744Y359777D01*
X459773Y359670D01*
X459798Y359562D01*
X459819Y359453D01*
X459836Y359344D01*
X459850Y359234D01*
X459859Y359123D01*
X459865Y359013D01*
X459867Y358902D01*
X459867Y353822D01*
X459865Y353711D01*
X459859Y353601D01*
X459850Y353490D01*
X459836Y353380D01*
X459819Y353271D01*
X459798Y353162D01*
X459773Y353054D01*
X459744Y352947D01*
X459712Y352841D01*
X459676Y352736D01*
X459636Y352633D01*
X459593Y352531D01*
X459546Y352430D01*
X459495Y352331D01*
X459442Y352234D01*
X459385Y352140D01*
X459324Y352047D01*
X459261Y351956D01*
X459194Y351867D01*
X459124Y351781D01*
X459051Y351698D01*
X458976Y351616D01*
X458898Y351538D01*
X458816Y351463D01*
X458733Y351390D01*
X458647Y351320D01*
X458558Y351253D01*
X458467Y351190D01*
X458374Y351129D01*
X458280Y351072D01*
X458183Y351019D01*
X458084Y350968D01*
X457983Y350921D01*
X457881Y350878D01*
X457778Y350838D01*
X457673Y350802D01*
X457567Y350770D01*
X457460Y350741D01*
X457352Y350716D01*
X457243Y350695D01*
X457134Y350678D01*
X457024Y350664D01*
X456913Y350655D01*
X456803Y350649D01*
X456692Y350647D01*
X453517Y350647D01*
X466217Y350647D02*
X466217Y362077D01*
X464947Y350647D02*
X467487Y350647D01*
X467487Y362077D02*
X464947Y362077D01*
X474599Y362077D02*
X474599Y350647D01*
X471424Y362077D02*
X477774Y362077D01*
X481457Y362077D02*
X485267Y356680D01*
X489077Y362077D01*
X485267Y356680D02*
X485267Y350647D01*
D11*
X185904Y49276D02*
X169696Y49276D01*
X169696Y77724D02*
X185904Y77724D01*
X185904Y68724D02*
X185904Y58276D01*
X169696Y67776D02*
X169696Y68724D01*
X169696Y59224D02*
X169696Y58276D01*
X169696Y76776D02*
X169696Y77724D01*
X169696Y50224D02*
X169696Y49276D01*
X185904Y49276D02*
X185904Y50224D01*
X185904Y76776D02*
X185904Y77724D01*
D14*
X235200Y272800D02*
X298200Y272800D01*
X298200Y209800D01*
X235200Y209800D01*
X235200Y272800D01*
D15*
X218200Y276300D02*
X218202Y276370D01*
X218208Y276440D01*
X218218Y276509D01*
X218231Y276578D01*
X218249Y276646D01*
X218270Y276713D01*
X218295Y276778D01*
X218324Y276842D01*
X218356Y276905D01*
X218392Y276965D01*
X218431Y277023D01*
X218473Y277079D01*
X218518Y277133D01*
X218566Y277184D01*
X218617Y277232D01*
X218671Y277277D01*
X218727Y277319D01*
X218785Y277358D01*
X218845Y277394D01*
X218908Y277426D01*
X218972Y277455D01*
X219037Y277480D01*
X219104Y277501D01*
X219172Y277519D01*
X219241Y277532D01*
X219310Y277542D01*
X219380Y277548D01*
X219450Y277550D01*
X219520Y277548D01*
X219590Y277542D01*
X219659Y277532D01*
X219728Y277519D01*
X219796Y277501D01*
X219863Y277480D01*
X219928Y277455D01*
X219992Y277426D01*
X220055Y277394D01*
X220115Y277358D01*
X220173Y277319D01*
X220229Y277277D01*
X220283Y277232D01*
X220334Y277184D01*
X220382Y277133D01*
X220427Y277079D01*
X220469Y277023D01*
X220508Y276965D01*
X220544Y276905D01*
X220576Y276842D01*
X220605Y276778D01*
X220630Y276713D01*
X220651Y276646D01*
X220669Y276578D01*
X220682Y276509D01*
X220692Y276440D01*
X220698Y276370D01*
X220700Y276300D01*
X220698Y276230D01*
X220692Y276160D01*
X220682Y276091D01*
X220669Y276022D01*
X220651Y275954D01*
X220630Y275887D01*
X220605Y275822D01*
X220576Y275758D01*
X220544Y275695D01*
X220508Y275635D01*
X220469Y275577D01*
X220427Y275521D01*
X220382Y275467D01*
X220334Y275416D01*
X220283Y275368D01*
X220229Y275323D01*
X220173Y275281D01*
X220115Y275242D01*
X220055Y275206D01*
X219992Y275174D01*
X219928Y275145D01*
X219863Y275120D01*
X219796Y275099D01*
X219728Y275081D01*
X219659Y275068D01*
X219590Y275058D01*
X219520Y275052D01*
X219450Y275050D01*
X219380Y275052D01*
X219310Y275058D01*
X219241Y275068D01*
X219172Y275081D01*
X219104Y275099D01*
X219037Y275120D01*
X218972Y275145D01*
X218908Y275174D01*
X218845Y275206D01*
X218785Y275242D01*
X218727Y275281D01*
X218671Y275323D01*
X218617Y275368D01*
X218566Y275416D01*
X218518Y275467D01*
X218473Y275521D01*
X218431Y275577D01*
X218392Y275635D01*
X218356Y275695D01*
X218324Y275758D01*
X218295Y275822D01*
X218270Y275887D01*
X218249Y275954D01*
X218231Y276022D01*
X218218Y276091D01*
X218208Y276160D01*
X218202Y276230D01*
X218200Y276300D01*
D11*
X171450Y0D02*
X158750Y0D01*
X152400Y6350D01*
X152400Y19050D01*
X158750Y25400D01*
X177800Y19050D02*
X177800Y6350D01*
X171450Y0D01*
X177800Y19050D02*
X171450Y25400D01*
X158750Y25400D01*
X152400Y6350D02*
X146050Y0D01*
X133350Y0D01*
X127000Y6350D01*
X127000Y19050D01*
X133350Y25400D01*
X146050Y25400D01*
X152400Y19050D01*
D12*
X155956Y-18923D02*
X155956Y-30353D01*
X154686Y-30353D02*
X157226Y-30353D01*
X157226Y-18923D02*
X154686Y-18923D01*
X162306Y-18923D02*
X162306Y-30353D01*
X168656Y-30353D02*
X162306Y-18923D01*
X168656Y-18923D02*
X168656Y-30353D01*
X174689Y-30353D02*
X174689Y-18923D01*
X177864Y-18923D01*
X177975Y-18925D01*
X178085Y-18931D01*
X178196Y-18940D01*
X178306Y-18954D01*
X178415Y-18971D01*
X178524Y-18992D01*
X178632Y-19017D01*
X178739Y-19046D01*
X178845Y-19078D01*
X178950Y-19114D01*
X179053Y-19154D01*
X179155Y-19197D01*
X179256Y-19244D01*
X179355Y-19295D01*
X179452Y-19348D01*
X179546Y-19405D01*
X179639Y-19466D01*
X179730Y-19529D01*
X179819Y-19596D01*
X179905Y-19666D01*
X179988Y-19739D01*
X180070Y-19814D01*
X180148Y-19892D01*
X180223Y-19974D01*
X180296Y-20057D01*
X180366Y-20143D01*
X180433Y-20232D01*
X180496Y-20323D01*
X180557Y-20416D01*
X180614Y-20511D01*
X180667Y-20607D01*
X180718Y-20706D01*
X180765Y-20807D01*
X180808Y-20909D01*
X180848Y-21012D01*
X180884Y-21117D01*
X180916Y-21223D01*
X180945Y-21330D01*
X180970Y-21438D01*
X180991Y-21547D01*
X181008Y-21656D01*
X181022Y-21766D01*
X181031Y-21877D01*
X181037Y-21987D01*
X181039Y-22098D01*
X181037Y-22209D01*
X181031Y-22319D01*
X181022Y-22430D01*
X181008Y-22540D01*
X180991Y-22649D01*
X180970Y-22758D01*
X180945Y-22866D01*
X180916Y-22973D01*
X180884Y-23079D01*
X180848Y-23184D01*
X180808Y-23287D01*
X180765Y-23389D01*
X180718Y-23490D01*
X180667Y-23589D01*
X180614Y-23686D01*
X180557Y-23780D01*
X180496Y-23873D01*
X180433Y-23964D01*
X180366Y-24053D01*
X180296Y-24139D01*
X180223Y-24222D01*
X180148Y-24304D01*
X180070Y-24382D01*
X179988Y-24457D01*
X179905Y-24530D01*
X179819Y-24600D01*
X179730Y-24667D01*
X179639Y-24730D01*
X179546Y-24791D01*
X179451Y-24848D01*
X179355Y-24901D01*
X179256Y-24952D01*
X179155Y-24999D01*
X179053Y-25042D01*
X178950Y-25082D01*
X178845Y-25118D01*
X178739Y-25150D01*
X178632Y-25179D01*
X178524Y-25204D01*
X178415Y-25225D01*
X178306Y-25242D01*
X178196Y-25256D01*
X178085Y-25265D01*
X177975Y-25271D01*
X177864Y-25273D01*
X174689Y-25273D01*
X185928Y-27178D02*
X185928Y-18923D01*
X185928Y-27178D02*
X185930Y-27289D01*
X185936Y-27399D01*
X185945Y-27510D01*
X185959Y-27620D01*
X185976Y-27729D01*
X185997Y-27838D01*
X186022Y-27946D01*
X186051Y-28053D01*
X186083Y-28159D01*
X186119Y-28264D01*
X186159Y-28367D01*
X186202Y-28469D01*
X186249Y-28570D01*
X186300Y-28669D01*
X186353Y-28766D01*
X186410Y-28860D01*
X186471Y-28953D01*
X186534Y-29044D01*
X186601Y-29133D01*
X186671Y-29219D01*
X186744Y-29302D01*
X186819Y-29384D01*
X186897Y-29462D01*
X186979Y-29537D01*
X187062Y-29610D01*
X187148Y-29680D01*
X187237Y-29747D01*
X187328Y-29810D01*
X187421Y-29871D01*
X187516Y-29928D01*
X187612Y-29981D01*
X187711Y-30032D01*
X187812Y-30079D01*
X187914Y-30122D01*
X188017Y-30162D01*
X188122Y-30198D01*
X188228Y-30230D01*
X188335Y-30259D01*
X188443Y-30284D01*
X188552Y-30305D01*
X188661Y-30322D01*
X188771Y-30336D01*
X188882Y-30345D01*
X188992Y-30351D01*
X189103Y-30353D01*
X189214Y-30351D01*
X189324Y-30345D01*
X189435Y-30336D01*
X189545Y-30322D01*
X189654Y-30305D01*
X189763Y-30284D01*
X189871Y-30259D01*
X189978Y-30230D01*
X190084Y-30198D01*
X190189Y-30162D01*
X190292Y-30122D01*
X190394Y-30079D01*
X190495Y-30032D01*
X190594Y-29981D01*
X190690Y-29928D01*
X190785Y-29871D01*
X190878Y-29810D01*
X190969Y-29747D01*
X191058Y-29680D01*
X191144Y-29610D01*
X191227Y-29537D01*
X191309Y-29462D01*
X191387Y-29384D01*
X191462Y-29302D01*
X191535Y-29219D01*
X191605Y-29133D01*
X191672Y-29044D01*
X191735Y-28953D01*
X191796Y-28860D01*
X191853Y-28766D01*
X191906Y-28669D01*
X191957Y-28570D01*
X192004Y-28469D01*
X192047Y-28367D01*
X192087Y-28264D01*
X192123Y-28159D01*
X192155Y-28053D01*
X192184Y-27946D01*
X192209Y-27838D01*
X192230Y-27729D01*
X192247Y-27620D01*
X192261Y-27510D01*
X192270Y-27399D01*
X192276Y-27289D01*
X192278Y-27178D01*
X192278Y-18923D01*
X200152Y-18923D02*
X200152Y-30353D01*
X196977Y-18923D02*
X203327Y-18923D01*
D11*
X501650Y38100D02*
X514350Y38100D01*
X520700Y31750D01*
X520700Y19050D01*
X514350Y12700D01*
X476250Y38100D02*
X469900Y31750D01*
X476250Y38100D02*
X488950Y38100D01*
X495300Y31750D01*
X495300Y19050D01*
X488950Y12700D01*
X476250Y12700D01*
X469900Y19050D01*
X495300Y31750D02*
X501650Y38100D01*
X495300Y19050D02*
X501650Y12700D01*
X514350Y12700D01*
X438150Y38100D02*
X425450Y38100D01*
X438150Y38100D02*
X444500Y31750D01*
X444500Y19050D01*
X438150Y12700D01*
X444500Y31750D02*
X450850Y38100D01*
X463550Y38100D01*
X469900Y31750D01*
X469900Y19050D01*
X463550Y12700D01*
X450850Y12700D01*
X444500Y19050D01*
X419100Y19050D02*
X419100Y31750D01*
X425450Y38100D01*
X419100Y19050D02*
X425450Y12700D01*
X438150Y12700D01*
X527050Y38100D02*
X539750Y38100D01*
X546100Y31750D01*
X546100Y19050D01*
X539750Y12700D01*
X520700Y31750D02*
X527050Y38100D01*
X520700Y19050D02*
X527050Y12700D01*
X539750Y12700D01*
D12*
X422783Y46863D02*
X422783Y55753D01*
X422783Y46863D02*
X422781Y46763D01*
X422775Y46664D01*
X422765Y46564D01*
X422752Y46466D01*
X422734Y46367D01*
X422713Y46270D01*
X422688Y46174D01*
X422659Y46078D01*
X422626Y45984D01*
X422590Y45891D01*
X422550Y45800D01*
X422506Y45710D01*
X422459Y45622D01*
X422409Y45536D01*
X422355Y45452D01*
X422298Y45370D01*
X422238Y45291D01*
X422174Y45213D01*
X422108Y45139D01*
X422039Y45067D01*
X421967Y44998D01*
X421893Y44932D01*
X421815Y44868D01*
X421736Y44808D01*
X421654Y44751D01*
X421570Y44697D01*
X421484Y44647D01*
X421396Y44600D01*
X421306Y44556D01*
X421215Y44516D01*
X421122Y44480D01*
X421028Y44447D01*
X420932Y44418D01*
X420836Y44393D01*
X420739Y44372D01*
X420640Y44354D01*
X420542Y44341D01*
X420442Y44331D01*
X420343Y44325D01*
X420243Y44323D01*
X418973Y44323D01*
X428763Y44323D02*
X428763Y55753D01*
X431938Y55753D01*
X432049Y55751D01*
X432159Y55745D01*
X432270Y55736D01*
X432380Y55722D01*
X432489Y55705D01*
X432598Y55684D01*
X432706Y55659D01*
X432813Y55630D01*
X432919Y55598D01*
X433024Y55562D01*
X433127Y55522D01*
X433229Y55479D01*
X433330Y55432D01*
X433429Y55381D01*
X433526Y55328D01*
X433620Y55271D01*
X433713Y55210D01*
X433804Y55147D01*
X433893Y55080D01*
X433979Y55010D01*
X434062Y54937D01*
X434144Y54862D01*
X434222Y54784D01*
X434297Y54702D01*
X434370Y54619D01*
X434440Y54533D01*
X434507Y54444D01*
X434570Y54353D01*
X434631Y54260D01*
X434688Y54165D01*
X434741Y54069D01*
X434792Y53970D01*
X434839Y53869D01*
X434882Y53767D01*
X434922Y53664D01*
X434958Y53559D01*
X434990Y53453D01*
X435019Y53346D01*
X435044Y53238D01*
X435065Y53129D01*
X435082Y53020D01*
X435096Y52910D01*
X435105Y52799D01*
X435111Y52689D01*
X435113Y52578D01*
X435111Y52467D01*
X435105Y52357D01*
X435096Y52246D01*
X435082Y52136D01*
X435065Y52027D01*
X435044Y51918D01*
X435019Y51810D01*
X434990Y51703D01*
X434958Y51597D01*
X434922Y51492D01*
X434882Y51389D01*
X434839Y51287D01*
X434792Y51186D01*
X434741Y51087D01*
X434688Y50990D01*
X434631Y50896D01*
X434570Y50803D01*
X434507Y50712D01*
X434440Y50623D01*
X434370Y50537D01*
X434297Y50454D01*
X434222Y50372D01*
X434144Y50294D01*
X434062Y50219D01*
X433979Y50146D01*
X433893Y50076D01*
X433804Y50009D01*
X433713Y49946D01*
X433620Y49885D01*
X433526Y49828D01*
X433429Y49775D01*
X433330Y49724D01*
X433229Y49677D01*
X433127Y49634D01*
X433024Y49594D01*
X432919Y49558D01*
X432813Y49526D01*
X432706Y49497D01*
X432598Y49472D01*
X432489Y49451D01*
X432380Y49434D01*
X432270Y49420D01*
X432159Y49411D01*
X432049Y49405D01*
X431938Y49403D01*
X428763Y49403D01*
X439622Y53213D02*
X442797Y55753D01*
X442797Y44323D01*
X439622Y44323D02*
X445972Y44323D01*
D11*
X501650Y292100D02*
X514350Y292100D01*
X520700Y285750D01*
X520700Y273050D01*
X514350Y266700D01*
X476250Y292100D02*
X469900Y285750D01*
X476250Y292100D02*
X488950Y292100D01*
X495300Y285750D01*
X495300Y273050D01*
X488950Y266700D01*
X476250Y266700D01*
X469900Y273050D01*
X495300Y285750D02*
X501650Y292100D01*
X495300Y273050D02*
X501650Y266700D01*
X514350Y266700D01*
X438150Y292100D02*
X425450Y292100D01*
X438150Y292100D02*
X444500Y285750D01*
X444500Y273050D01*
X438150Y266700D01*
X444500Y285750D02*
X450850Y292100D01*
X463550Y292100D01*
X469900Y285750D01*
X469900Y273050D01*
X463550Y266700D01*
X450850Y266700D01*
X444500Y273050D01*
X419100Y273050D02*
X419100Y285750D01*
X425450Y292100D01*
X419100Y273050D02*
X425450Y266700D01*
X438150Y266700D01*
X527050Y292100D02*
X539750Y292100D01*
X546100Y285750D01*
X546100Y273050D01*
X539750Y266700D01*
X520700Y285750D02*
X527050Y292100D01*
X520700Y273050D02*
X527050Y266700D01*
X539750Y266700D01*
D12*
X422783Y300863D02*
X422783Y309753D01*
X422783Y300863D02*
X422781Y300763D01*
X422775Y300664D01*
X422765Y300564D01*
X422752Y300466D01*
X422734Y300367D01*
X422713Y300270D01*
X422688Y300174D01*
X422659Y300078D01*
X422626Y299984D01*
X422590Y299891D01*
X422550Y299800D01*
X422506Y299710D01*
X422459Y299622D01*
X422409Y299536D01*
X422355Y299452D01*
X422298Y299370D01*
X422238Y299291D01*
X422174Y299213D01*
X422108Y299139D01*
X422039Y299067D01*
X421967Y298998D01*
X421893Y298932D01*
X421815Y298868D01*
X421736Y298808D01*
X421654Y298751D01*
X421570Y298697D01*
X421484Y298647D01*
X421396Y298600D01*
X421306Y298556D01*
X421215Y298516D01*
X421122Y298480D01*
X421028Y298447D01*
X420932Y298418D01*
X420836Y298393D01*
X420739Y298372D01*
X420640Y298354D01*
X420542Y298341D01*
X420442Y298331D01*
X420343Y298325D01*
X420243Y298323D01*
X418973Y298323D01*
X428763Y298323D02*
X428763Y309753D01*
X431938Y309753D01*
X432049Y309751D01*
X432159Y309745D01*
X432270Y309736D01*
X432380Y309722D01*
X432489Y309705D01*
X432598Y309684D01*
X432706Y309659D01*
X432813Y309630D01*
X432919Y309598D01*
X433024Y309562D01*
X433127Y309522D01*
X433229Y309479D01*
X433330Y309432D01*
X433429Y309381D01*
X433526Y309328D01*
X433620Y309271D01*
X433713Y309210D01*
X433804Y309147D01*
X433893Y309080D01*
X433979Y309010D01*
X434062Y308937D01*
X434144Y308862D01*
X434222Y308784D01*
X434297Y308702D01*
X434370Y308619D01*
X434440Y308533D01*
X434507Y308444D01*
X434570Y308353D01*
X434631Y308260D01*
X434688Y308165D01*
X434741Y308069D01*
X434792Y307970D01*
X434839Y307869D01*
X434882Y307767D01*
X434922Y307664D01*
X434958Y307559D01*
X434990Y307453D01*
X435019Y307346D01*
X435044Y307238D01*
X435065Y307129D01*
X435082Y307020D01*
X435096Y306910D01*
X435105Y306799D01*
X435111Y306689D01*
X435113Y306578D01*
X435111Y306467D01*
X435105Y306357D01*
X435096Y306246D01*
X435082Y306136D01*
X435065Y306027D01*
X435044Y305918D01*
X435019Y305810D01*
X434990Y305703D01*
X434958Y305597D01*
X434922Y305492D01*
X434882Y305389D01*
X434839Y305287D01*
X434792Y305186D01*
X434741Y305087D01*
X434688Y304990D01*
X434631Y304896D01*
X434570Y304803D01*
X434507Y304712D01*
X434440Y304623D01*
X434370Y304537D01*
X434297Y304454D01*
X434222Y304372D01*
X434144Y304294D01*
X434062Y304219D01*
X433979Y304146D01*
X433893Y304076D01*
X433804Y304009D01*
X433713Y303946D01*
X433620Y303885D01*
X433526Y303828D01*
X433429Y303775D01*
X433330Y303724D01*
X433229Y303677D01*
X433127Y303634D01*
X433024Y303594D01*
X432919Y303558D01*
X432813Y303526D01*
X432706Y303497D01*
X432598Y303472D01*
X432489Y303451D01*
X432380Y303434D01*
X432270Y303420D01*
X432159Y303411D01*
X432049Y303405D01*
X431938Y303403D01*
X428763Y303403D01*
X443114Y309754D02*
X443218Y309752D01*
X443323Y309746D01*
X443427Y309737D01*
X443530Y309724D01*
X443633Y309706D01*
X443735Y309686D01*
X443837Y309661D01*
X443937Y309633D01*
X444037Y309601D01*
X444135Y309565D01*
X444232Y309526D01*
X444327Y309484D01*
X444421Y309438D01*
X444513Y309388D01*
X444603Y309336D01*
X444691Y309280D01*
X444777Y309220D01*
X444861Y309158D01*
X444942Y309093D01*
X445021Y309025D01*
X445098Y308953D01*
X445171Y308880D01*
X445243Y308803D01*
X445311Y308724D01*
X445376Y308643D01*
X445438Y308559D01*
X445498Y308473D01*
X445554Y308385D01*
X445606Y308295D01*
X445656Y308203D01*
X445702Y308109D01*
X445744Y308014D01*
X445783Y307917D01*
X445819Y307819D01*
X445851Y307719D01*
X445879Y307619D01*
X445904Y307517D01*
X445924Y307415D01*
X445942Y307312D01*
X445955Y307209D01*
X445964Y307105D01*
X445970Y307000D01*
X445972Y306896D01*
X443114Y309753D02*
X442996Y309751D01*
X442877Y309745D01*
X442759Y309736D01*
X442642Y309723D01*
X442525Y309705D01*
X442408Y309685D01*
X442292Y309660D01*
X442177Y309632D01*
X442064Y309599D01*
X441951Y309564D01*
X441839Y309524D01*
X441729Y309482D01*
X441620Y309435D01*
X441512Y309385D01*
X441407Y309332D01*
X441303Y309275D01*
X441201Y309215D01*
X441101Y309152D01*
X441003Y309085D01*
X440907Y309016D01*
X440814Y308943D01*
X440723Y308867D01*
X440634Y308789D01*
X440548Y308707D01*
X440465Y308623D01*
X440384Y308537D01*
X440307Y308447D01*
X440232Y308356D01*
X440160Y308262D01*
X440091Y308165D01*
X440026Y308067D01*
X439963Y307966D01*
X439904Y307863D01*
X439848Y307759D01*
X439796Y307653D01*
X439747Y307545D01*
X439702Y307436D01*
X439660Y307325D01*
X439622Y307213D01*
X445020Y304674D02*
X445096Y304749D01*
X445171Y304828D01*
X445242Y304909D01*
X445311Y304993D01*
X445376Y305079D01*
X445438Y305167D01*
X445498Y305257D01*
X445554Y305349D01*
X445607Y305444D01*
X445656Y305540D01*
X445702Y305638D01*
X445745Y305737D01*
X445784Y305838D01*
X445819Y305940D01*
X445851Y306043D01*
X445879Y306147D01*
X445904Y306252D01*
X445925Y306359D01*
X445942Y306465D01*
X445955Y306572D01*
X445964Y306680D01*
X445970Y306788D01*
X445972Y306896D01*
X445019Y304673D02*
X439622Y298323D01*
X445972Y298323D01*
D13*
X310642Y349758D02*
X298958Y349758D01*
X298958Y353004D01*
X298960Y353117D01*
X298966Y353230D01*
X298976Y353343D01*
X298990Y353456D01*
X299007Y353568D01*
X299029Y353679D01*
X299054Y353789D01*
X299084Y353899D01*
X299117Y354007D01*
X299154Y354114D01*
X299194Y354220D01*
X299239Y354324D01*
X299287Y354427D01*
X299338Y354528D01*
X299393Y354627D01*
X299451Y354724D01*
X299513Y354819D01*
X299578Y354912D01*
X299646Y355002D01*
X299717Y355090D01*
X299792Y355176D01*
X299869Y355259D01*
X299949Y355339D01*
X300032Y355416D01*
X300118Y355491D01*
X300206Y355562D01*
X300296Y355630D01*
X300389Y355695D01*
X300484Y355757D01*
X300581Y355815D01*
X300680Y355870D01*
X300781Y355921D01*
X300884Y355969D01*
X300988Y356014D01*
X301094Y356054D01*
X301201Y356091D01*
X301309Y356124D01*
X301419Y356154D01*
X301529Y356179D01*
X301640Y356201D01*
X301752Y356218D01*
X301865Y356232D01*
X301978Y356242D01*
X302091Y356248D01*
X302204Y356250D01*
X302317Y356248D01*
X302430Y356242D01*
X302543Y356232D01*
X302656Y356218D01*
X302768Y356201D01*
X302879Y356179D01*
X302989Y356154D01*
X303099Y356124D01*
X303207Y356091D01*
X303314Y356054D01*
X303420Y356014D01*
X303524Y355969D01*
X303627Y355921D01*
X303728Y355870D01*
X303827Y355815D01*
X303924Y355757D01*
X304019Y355695D01*
X304112Y355630D01*
X304202Y355562D01*
X304290Y355491D01*
X304376Y355416D01*
X304459Y355339D01*
X304539Y355259D01*
X304616Y355176D01*
X304691Y355090D01*
X304762Y355002D01*
X304830Y354912D01*
X304895Y354819D01*
X304957Y354724D01*
X305015Y354627D01*
X305070Y354528D01*
X305121Y354427D01*
X305169Y354324D01*
X305214Y354220D01*
X305254Y354114D01*
X305291Y354007D01*
X305324Y353899D01*
X305354Y353789D01*
X305379Y353679D01*
X305401Y353568D01*
X305418Y353456D01*
X305432Y353343D01*
X305442Y353230D01*
X305448Y353117D01*
X305450Y353004D01*
X305449Y353004D02*
X305449Y349758D01*
X305449Y353653D02*
X310642Y356249D01*
X301554Y361114D02*
X298958Y364360D01*
X310642Y364360D01*
X310642Y367605D02*
X310642Y361114D01*
X337058Y361442D02*
X337058Y349758D01*
X337058Y361442D02*
X340304Y361442D01*
X340417Y361440D01*
X340530Y361434D01*
X340643Y361424D01*
X340756Y361410D01*
X340868Y361393D01*
X340979Y361371D01*
X341089Y361346D01*
X341199Y361316D01*
X341307Y361283D01*
X341414Y361246D01*
X341520Y361206D01*
X341624Y361161D01*
X341727Y361113D01*
X341828Y361062D01*
X341927Y361007D01*
X342024Y360949D01*
X342119Y360887D01*
X342212Y360822D01*
X342302Y360754D01*
X342390Y360683D01*
X342476Y360608D01*
X342559Y360531D01*
X342639Y360451D01*
X342716Y360368D01*
X342791Y360282D01*
X342862Y360194D01*
X342930Y360104D01*
X342995Y360011D01*
X343057Y359916D01*
X343115Y359819D01*
X343170Y359720D01*
X343221Y359619D01*
X343269Y359516D01*
X343314Y359412D01*
X343354Y359306D01*
X343391Y359199D01*
X343424Y359091D01*
X343454Y358981D01*
X343479Y358871D01*
X343501Y358760D01*
X343518Y358648D01*
X343532Y358535D01*
X343542Y358422D01*
X343548Y358309D01*
X343550Y358196D01*
X343548Y358083D01*
X343542Y357970D01*
X343532Y357857D01*
X343518Y357744D01*
X343501Y357632D01*
X343479Y357521D01*
X343454Y357411D01*
X343424Y357301D01*
X343391Y357193D01*
X343354Y357086D01*
X343314Y356980D01*
X343269Y356876D01*
X343221Y356773D01*
X343170Y356672D01*
X343115Y356573D01*
X343057Y356476D01*
X342995Y356381D01*
X342930Y356288D01*
X342862Y356198D01*
X342791Y356110D01*
X342716Y356024D01*
X342639Y355941D01*
X342559Y355861D01*
X342476Y355784D01*
X342390Y355709D01*
X342302Y355638D01*
X342212Y355570D01*
X342119Y355505D01*
X342024Y355443D01*
X341927Y355385D01*
X341828Y355330D01*
X341727Y355279D01*
X341624Y355231D01*
X341520Y355186D01*
X341414Y355146D01*
X341307Y355109D01*
X341199Y355076D01*
X341089Y355046D01*
X340979Y355021D01*
X340868Y354999D01*
X340756Y354982D01*
X340643Y354968D01*
X340530Y354958D01*
X340417Y354952D01*
X340304Y354950D01*
X340304Y354951D02*
X337058Y354951D01*
X340953Y354951D02*
X343549Y349758D01*
X354905Y358521D02*
X354903Y358628D01*
X354897Y358734D01*
X354887Y358840D01*
X354874Y358946D01*
X354856Y359052D01*
X354835Y359156D01*
X354810Y359260D01*
X354781Y359363D01*
X354749Y359464D01*
X354712Y359564D01*
X354672Y359663D01*
X354629Y359761D01*
X354582Y359857D01*
X354531Y359951D01*
X354477Y360043D01*
X354420Y360133D01*
X354360Y360221D01*
X354296Y360306D01*
X354229Y360389D01*
X354159Y360470D01*
X354087Y360548D01*
X354011Y360624D01*
X353933Y360696D01*
X353852Y360766D01*
X353769Y360833D01*
X353684Y360897D01*
X353596Y360957D01*
X353506Y361014D01*
X353414Y361068D01*
X353320Y361119D01*
X353224Y361166D01*
X353126Y361209D01*
X353027Y361249D01*
X352927Y361286D01*
X352826Y361318D01*
X352723Y361347D01*
X352619Y361372D01*
X352515Y361393D01*
X352409Y361411D01*
X352303Y361424D01*
X352197Y361434D01*
X352091Y361440D01*
X351984Y361442D01*
X351863Y361440D01*
X351742Y361434D01*
X351622Y361424D01*
X351501Y361411D01*
X351382Y361393D01*
X351262Y361372D01*
X351144Y361347D01*
X351027Y361318D01*
X350910Y361285D01*
X350795Y361249D01*
X350681Y361208D01*
X350568Y361165D01*
X350456Y361117D01*
X350347Y361066D01*
X350239Y361011D01*
X350132Y360953D01*
X350028Y360892D01*
X349926Y360827D01*
X349826Y360759D01*
X349728Y360688D01*
X349632Y360614D01*
X349539Y360537D01*
X349449Y360456D01*
X349361Y360373D01*
X349276Y360287D01*
X349193Y360198D01*
X349114Y360107D01*
X349037Y360013D01*
X348964Y359917D01*
X348894Y359819D01*
X348827Y359718D01*
X348763Y359615D01*
X348703Y359510D01*
X348646Y359403D01*
X348592Y359295D01*
X348542Y359185D01*
X348496Y359073D01*
X348453Y358960D01*
X348414Y358845D01*
X353932Y356249D02*
X354011Y356326D01*
X354087Y356407D01*
X354160Y356490D01*
X354230Y356575D01*
X354297Y356663D01*
X354361Y356753D01*
X354421Y356845D01*
X354478Y356940D01*
X354532Y357036D01*
X354583Y357134D01*
X354630Y357234D01*
X354674Y357336D01*
X354714Y357439D01*
X354750Y357543D01*
X354782Y357649D01*
X354811Y357755D01*
X354836Y357863D01*
X354858Y357971D01*
X354875Y358081D01*
X354889Y358190D01*
X354898Y358300D01*
X354904Y358411D01*
X354906Y358521D01*
X353932Y356249D02*
X348414Y349758D01*
X354905Y349758D01*
D11*
X342900Y387350D02*
X342900Y400050D01*
X349250Y406400D01*
X361950Y406400D01*
X368300Y400050D01*
X361950Y381000D02*
X349250Y381000D01*
X342900Y387350D01*
X361950Y381000D02*
X368300Y387350D01*
X368300Y400050D01*
X349250Y406400D02*
X342900Y412750D01*
X342900Y425450D01*
X349250Y431800D01*
X361950Y431800D01*
X368300Y425450D01*
X368300Y412750D01*
X361950Y406400D01*
D12*
X349123Y438023D02*
X349123Y449453D01*
X352298Y449453D01*
X352409Y449451D01*
X352519Y449445D01*
X352630Y449436D01*
X352740Y449422D01*
X352849Y449405D01*
X352958Y449384D01*
X353066Y449359D01*
X353173Y449330D01*
X353279Y449298D01*
X353384Y449262D01*
X353487Y449222D01*
X353589Y449179D01*
X353690Y449132D01*
X353789Y449081D01*
X353886Y449028D01*
X353980Y448971D01*
X354073Y448910D01*
X354164Y448847D01*
X354253Y448780D01*
X354339Y448710D01*
X354422Y448637D01*
X354504Y448562D01*
X354582Y448484D01*
X354657Y448402D01*
X354730Y448319D01*
X354800Y448233D01*
X354867Y448144D01*
X354930Y448053D01*
X354991Y447960D01*
X355048Y447865D01*
X355101Y447769D01*
X355152Y447670D01*
X355199Y447569D01*
X355242Y447467D01*
X355282Y447364D01*
X355318Y447259D01*
X355350Y447153D01*
X355379Y447046D01*
X355404Y446938D01*
X355425Y446829D01*
X355442Y446720D01*
X355456Y446610D01*
X355465Y446499D01*
X355471Y446389D01*
X355473Y446278D01*
X355471Y446167D01*
X355465Y446057D01*
X355456Y445946D01*
X355442Y445836D01*
X355425Y445727D01*
X355404Y445618D01*
X355379Y445510D01*
X355350Y445403D01*
X355318Y445297D01*
X355282Y445192D01*
X355242Y445089D01*
X355199Y444987D01*
X355152Y444886D01*
X355101Y444787D01*
X355048Y444690D01*
X354991Y444596D01*
X354930Y444503D01*
X354867Y444412D01*
X354800Y444323D01*
X354730Y444237D01*
X354657Y444154D01*
X354582Y444072D01*
X354504Y443994D01*
X354422Y443919D01*
X354339Y443846D01*
X354253Y443776D01*
X354164Y443709D01*
X354073Y443646D01*
X353980Y443585D01*
X353886Y443528D01*
X353789Y443475D01*
X353690Y443424D01*
X353589Y443377D01*
X353487Y443334D01*
X353384Y443294D01*
X353279Y443258D01*
X353173Y443226D01*
X353066Y443197D01*
X352958Y443172D01*
X352849Y443151D01*
X352740Y443134D01*
X352630Y443120D01*
X352519Y443111D01*
X352409Y443105D01*
X352298Y443103D01*
X349123Y443103D01*
X352933Y443103D02*
X355473Y438023D01*
X360877Y438023D02*
X365957Y438023D01*
X360877Y438023D02*
X360877Y449453D01*
X365957Y449453D01*
X364687Y444373D02*
X360877Y444373D01*
X373805Y438023D02*
X373905Y438025D01*
X374004Y438031D01*
X374104Y438041D01*
X374202Y438054D01*
X374301Y438072D01*
X374398Y438093D01*
X374494Y438118D01*
X374590Y438147D01*
X374684Y438180D01*
X374777Y438216D01*
X374868Y438256D01*
X374958Y438300D01*
X375046Y438347D01*
X375132Y438397D01*
X375216Y438451D01*
X375298Y438508D01*
X375377Y438568D01*
X375455Y438632D01*
X375529Y438698D01*
X375601Y438767D01*
X375670Y438839D01*
X375736Y438913D01*
X375800Y438991D01*
X375860Y439070D01*
X375917Y439152D01*
X375971Y439236D01*
X376021Y439322D01*
X376068Y439410D01*
X376112Y439500D01*
X376152Y439591D01*
X376188Y439684D01*
X376221Y439778D01*
X376250Y439874D01*
X376275Y439970D01*
X376296Y440067D01*
X376314Y440166D01*
X376327Y440264D01*
X376337Y440364D01*
X376343Y440463D01*
X376345Y440563D01*
X373805Y438023D02*
X373664Y438025D01*
X373523Y438030D01*
X373382Y438040D01*
X373241Y438053D01*
X373101Y438069D01*
X372961Y438090D01*
X372822Y438114D01*
X372683Y438142D01*
X372546Y438173D01*
X372409Y438208D01*
X372273Y438246D01*
X372138Y438288D01*
X372005Y438334D01*
X371872Y438383D01*
X371741Y438436D01*
X371612Y438492D01*
X371483Y438551D01*
X371357Y438614D01*
X371232Y438680D01*
X371109Y438749D01*
X370988Y438822D01*
X370869Y438898D01*
X370751Y438977D01*
X370636Y439058D01*
X370524Y439143D01*
X370413Y439231D01*
X370305Y439322D01*
X370199Y439415D01*
X370096Y439512D01*
X369995Y439611D01*
X370313Y446913D02*
X370315Y447013D01*
X370321Y447112D01*
X370331Y447212D01*
X370344Y447310D01*
X370362Y447409D01*
X370383Y447506D01*
X370408Y447602D01*
X370437Y447698D01*
X370470Y447792D01*
X370506Y447885D01*
X370546Y447976D01*
X370590Y448066D01*
X370637Y448154D01*
X370687Y448240D01*
X370741Y448324D01*
X370798Y448406D01*
X370858Y448485D01*
X370922Y448563D01*
X370988Y448637D01*
X371057Y448709D01*
X371129Y448778D01*
X371203Y448844D01*
X371281Y448908D01*
X371360Y448968D01*
X371442Y449025D01*
X371526Y449079D01*
X371612Y449129D01*
X371700Y449176D01*
X371790Y449220D01*
X371881Y449260D01*
X371974Y449296D01*
X372068Y449329D01*
X372164Y449358D01*
X372260Y449383D01*
X372357Y449404D01*
X372456Y449422D01*
X372554Y449435D01*
X372654Y449445D01*
X372753Y449451D01*
X372853Y449453D01*
X372853Y449454D02*
X372986Y449452D01*
X373119Y449447D01*
X373252Y449437D01*
X373385Y449424D01*
X373517Y449407D01*
X373649Y449387D01*
X373780Y449363D01*
X373910Y449335D01*
X374040Y449304D01*
X374168Y449269D01*
X374296Y449230D01*
X374422Y449188D01*
X374547Y449142D01*
X374671Y449093D01*
X374794Y449041D01*
X374915Y448985D01*
X375034Y448925D01*
X375152Y448863D01*
X375267Y448797D01*
X375381Y448728D01*
X375493Y448655D01*
X375603Y448580D01*
X375711Y448501D01*
X371582Y444690D02*
X371498Y444742D01*
X371415Y444797D01*
X371335Y444856D01*
X371257Y444917D01*
X371182Y444981D01*
X371109Y445049D01*
X371038Y445119D01*
X370971Y445191D01*
X370906Y445266D01*
X370844Y445344D01*
X370785Y445424D01*
X370729Y445506D01*
X370677Y445590D01*
X370628Y445676D01*
X370582Y445764D01*
X370539Y445854D01*
X370500Y445945D01*
X370465Y446038D01*
X370433Y446132D01*
X370405Y446227D01*
X370380Y446323D01*
X370360Y446420D01*
X370342Y446518D01*
X370329Y446616D01*
X370320Y446715D01*
X370314Y446814D01*
X370312Y446913D01*
X375075Y442786D02*
X375159Y442734D01*
X375242Y442679D01*
X375322Y442620D01*
X375400Y442559D01*
X375475Y442495D01*
X375548Y442427D01*
X375619Y442357D01*
X375686Y442285D01*
X375751Y442210D01*
X375813Y442132D01*
X375872Y442052D01*
X375928Y441970D01*
X375980Y441886D01*
X376029Y441800D01*
X376075Y441712D01*
X376118Y441622D01*
X376157Y441531D01*
X376192Y441438D01*
X376224Y441344D01*
X376252Y441249D01*
X376277Y441153D01*
X376297Y441056D01*
X376315Y440958D01*
X376328Y440860D01*
X376337Y440761D01*
X376343Y440662D01*
X376345Y440563D01*
X375075Y442786D02*
X371583Y444691D01*
X381451Y438023D02*
X386531Y438023D01*
X381451Y438023D02*
X381451Y449453D01*
X386531Y449453D01*
X385261Y444373D02*
X381451Y444373D01*
X393363Y449453D02*
X393363Y438023D01*
X390188Y449453D02*
X396538Y449453D01*
D11*
X284480Y401320D02*
X284480Y398780D01*
X299720Y398780D01*
X299720Y401320D01*
X299720Y462280D02*
X299720Y464820D01*
X284480Y464820D01*
X284480Y462280D01*
D10*
X320040Y444500D02*
X322580Y444500D01*
X320040Y444500D02*
X320040Y419100D01*
X322580Y419100D01*
X264160Y420370D02*
X264160Y444500D01*
X264160Y420370D02*
X261620Y420370D01*
X261620Y444500D02*
X264160Y444500D01*
D11*
X261620Y444500D02*
X261620Y453390D01*
X322580Y419100D02*
X322580Y410210D01*
X322580Y419100D02*
X322580Y444500D01*
X322580Y453390D01*
X261620Y444500D02*
X261620Y420370D01*
X261620Y410210D01*
X281940Y401320D02*
X284480Y401320D01*
X299720Y401320D02*
X302260Y401320D01*
X284480Y462280D02*
X281940Y462280D01*
X299720Y462280D02*
X302260Y462280D01*
X274320Y431800D02*
X274325Y432236D01*
X274341Y432672D01*
X274368Y433108D01*
X274406Y433543D01*
X274454Y433976D01*
X274512Y434409D01*
X274582Y434840D01*
X274662Y435269D01*
X274752Y435696D01*
X274853Y436120D01*
X274964Y436542D01*
X275086Y436961D01*
X275217Y437377D01*
X275359Y437790D01*
X275511Y438199D01*
X275673Y438604D01*
X275845Y439005D01*
X276027Y439402D01*
X276218Y439794D01*
X276419Y440181D01*
X276630Y440564D01*
X276850Y440941D01*
X277079Y441312D01*
X277316Y441678D01*
X277563Y442038D01*
X277819Y442392D01*
X278083Y442739D01*
X278356Y443080D01*
X278637Y443413D01*
X278926Y443740D01*
X279223Y444060D01*
X279528Y444372D01*
X279840Y444677D01*
X280160Y444974D01*
X280487Y445263D01*
X280820Y445544D01*
X281161Y445817D01*
X281508Y446081D01*
X281862Y446337D01*
X282222Y446584D01*
X282588Y446821D01*
X282959Y447050D01*
X283336Y447270D01*
X283719Y447481D01*
X284106Y447682D01*
X284498Y447873D01*
X284895Y448055D01*
X285296Y448227D01*
X285701Y448389D01*
X286110Y448541D01*
X286523Y448683D01*
X286939Y448814D01*
X287358Y448936D01*
X287780Y449047D01*
X288204Y449148D01*
X288631Y449238D01*
X289060Y449318D01*
X289491Y449388D01*
X289924Y449446D01*
X290357Y449494D01*
X290792Y449532D01*
X291228Y449559D01*
X291664Y449575D01*
X292100Y449580D01*
X292536Y449575D01*
X292972Y449559D01*
X293408Y449532D01*
X293843Y449494D01*
X294276Y449446D01*
X294709Y449388D01*
X295140Y449318D01*
X295569Y449238D01*
X295996Y449148D01*
X296420Y449047D01*
X296842Y448936D01*
X297261Y448814D01*
X297677Y448683D01*
X298090Y448541D01*
X298499Y448389D01*
X298904Y448227D01*
X299305Y448055D01*
X299702Y447873D01*
X300094Y447682D01*
X300481Y447481D01*
X300864Y447270D01*
X301241Y447050D01*
X301612Y446821D01*
X301978Y446584D01*
X302338Y446337D01*
X302692Y446081D01*
X303039Y445817D01*
X303380Y445544D01*
X303713Y445263D01*
X304040Y444974D01*
X304360Y444677D01*
X304672Y444372D01*
X304977Y444060D01*
X305274Y443740D01*
X305563Y443413D01*
X305844Y443080D01*
X306117Y442739D01*
X306381Y442392D01*
X306637Y442038D01*
X306884Y441678D01*
X307121Y441312D01*
X307350Y440941D01*
X307570Y440564D01*
X307781Y440181D01*
X307982Y439794D01*
X308173Y439402D01*
X308355Y439005D01*
X308527Y438604D01*
X308689Y438199D01*
X308841Y437790D01*
X308983Y437377D01*
X309114Y436961D01*
X309236Y436542D01*
X309347Y436120D01*
X309448Y435696D01*
X309538Y435269D01*
X309618Y434840D01*
X309688Y434409D01*
X309746Y433976D01*
X309794Y433543D01*
X309832Y433108D01*
X309859Y432672D01*
X309875Y432236D01*
X309880Y431800D01*
X309875Y431364D01*
X309859Y430928D01*
X309832Y430492D01*
X309794Y430057D01*
X309746Y429624D01*
X309688Y429191D01*
X309618Y428760D01*
X309538Y428331D01*
X309448Y427904D01*
X309347Y427480D01*
X309236Y427058D01*
X309114Y426639D01*
X308983Y426223D01*
X308841Y425810D01*
X308689Y425401D01*
X308527Y424996D01*
X308355Y424595D01*
X308173Y424198D01*
X307982Y423806D01*
X307781Y423419D01*
X307570Y423036D01*
X307350Y422659D01*
X307121Y422288D01*
X306884Y421922D01*
X306637Y421562D01*
X306381Y421208D01*
X306117Y420861D01*
X305844Y420520D01*
X305563Y420187D01*
X305274Y419860D01*
X304977Y419540D01*
X304672Y419228D01*
X304360Y418923D01*
X304040Y418626D01*
X303713Y418337D01*
X303380Y418056D01*
X303039Y417783D01*
X302692Y417519D01*
X302338Y417263D01*
X301978Y417016D01*
X301612Y416779D01*
X301241Y416550D01*
X300864Y416330D01*
X300481Y416119D01*
X300094Y415918D01*
X299702Y415727D01*
X299305Y415545D01*
X298904Y415373D01*
X298499Y415211D01*
X298090Y415059D01*
X297677Y414917D01*
X297261Y414786D01*
X296842Y414664D01*
X296420Y414553D01*
X295996Y414452D01*
X295569Y414362D01*
X295140Y414282D01*
X294709Y414212D01*
X294276Y414154D01*
X293843Y414106D01*
X293408Y414068D01*
X292972Y414041D01*
X292536Y414025D01*
X292100Y414020D01*
X291664Y414025D01*
X291228Y414041D01*
X290792Y414068D01*
X290357Y414106D01*
X289924Y414154D01*
X289491Y414212D01*
X289060Y414282D01*
X288631Y414362D01*
X288204Y414452D01*
X287780Y414553D01*
X287358Y414664D01*
X286939Y414786D01*
X286523Y414917D01*
X286110Y415059D01*
X285701Y415211D01*
X285296Y415373D01*
X284895Y415545D01*
X284498Y415727D01*
X284106Y415918D01*
X283719Y416119D01*
X283336Y416330D01*
X282959Y416550D01*
X282588Y416779D01*
X282222Y417016D01*
X281862Y417263D01*
X281508Y417519D01*
X281161Y417783D01*
X280820Y418056D01*
X280487Y418337D01*
X280160Y418626D01*
X279840Y418923D01*
X279528Y419228D01*
X279223Y419540D01*
X278926Y419860D01*
X278637Y420187D01*
X278356Y420520D01*
X278083Y420861D01*
X277819Y421208D01*
X277563Y421562D01*
X277316Y421922D01*
X277079Y422288D01*
X276850Y422659D01*
X276630Y423036D01*
X276419Y423419D01*
X276218Y423806D01*
X276027Y424198D01*
X275845Y424595D01*
X275673Y424996D01*
X275511Y425401D01*
X275359Y425810D01*
X275217Y426223D01*
X275086Y426639D01*
X274964Y427058D01*
X274853Y427480D01*
X274752Y427904D01*
X274662Y428331D01*
X274582Y428760D01*
X274512Y429191D01*
X274454Y429624D01*
X274406Y430057D01*
X274368Y430492D01*
X274341Y430928D01*
X274325Y431364D01*
X274320Y431800D01*
X289560Y431800D02*
X289562Y431900D01*
X289568Y432001D01*
X289578Y432100D01*
X289592Y432200D01*
X289609Y432299D01*
X289631Y432397D01*
X289657Y432494D01*
X289686Y432590D01*
X289719Y432684D01*
X289756Y432778D01*
X289796Y432870D01*
X289840Y432960D01*
X289888Y433048D01*
X289939Y433135D01*
X289993Y433219D01*
X290051Y433301D01*
X290112Y433381D01*
X290176Y433458D01*
X290243Y433533D01*
X290313Y433605D01*
X290386Y433674D01*
X290461Y433740D01*
X290539Y433804D01*
X290619Y433864D01*
X290702Y433921D01*
X290787Y433974D01*
X290874Y434024D01*
X290963Y434071D01*
X291053Y434114D01*
X291145Y434154D01*
X291239Y434190D01*
X291334Y434222D01*
X291430Y434250D01*
X291528Y434275D01*
X291626Y434295D01*
X291725Y434312D01*
X291825Y434325D01*
X291924Y434334D01*
X292025Y434339D01*
X292125Y434340D01*
X292225Y434337D01*
X292326Y434330D01*
X292425Y434319D01*
X292525Y434304D01*
X292623Y434286D01*
X292721Y434263D01*
X292818Y434236D01*
X292913Y434206D01*
X293008Y434172D01*
X293101Y434134D01*
X293192Y434093D01*
X293282Y434048D01*
X293370Y434000D01*
X293456Y433948D01*
X293540Y433893D01*
X293621Y433834D01*
X293700Y433772D01*
X293777Y433708D01*
X293851Y433640D01*
X293922Y433569D01*
X293991Y433496D01*
X294056Y433420D01*
X294119Y433341D01*
X294178Y433260D01*
X294234Y433177D01*
X294287Y433092D01*
X294336Y433004D01*
X294382Y432915D01*
X294424Y432824D01*
X294463Y432731D01*
X294498Y432637D01*
X294529Y432542D01*
X294557Y432445D01*
X294580Y432348D01*
X294600Y432249D01*
X294616Y432150D01*
X294628Y432051D01*
X294636Y431950D01*
X294640Y431850D01*
X294640Y431750D01*
X294636Y431650D01*
X294628Y431549D01*
X294616Y431450D01*
X294600Y431351D01*
X294580Y431252D01*
X294557Y431155D01*
X294529Y431058D01*
X294498Y430963D01*
X294463Y430869D01*
X294424Y430776D01*
X294382Y430685D01*
X294336Y430596D01*
X294287Y430508D01*
X294234Y430423D01*
X294178Y430340D01*
X294119Y430259D01*
X294056Y430180D01*
X293991Y430104D01*
X293922Y430031D01*
X293851Y429960D01*
X293777Y429892D01*
X293700Y429828D01*
X293621Y429766D01*
X293540Y429707D01*
X293456Y429652D01*
X293370Y429600D01*
X293282Y429552D01*
X293192Y429507D01*
X293101Y429466D01*
X293008Y429428D01*
X292913Y429394D01*
X292818Y429364D01*
X292721Y429337D01*
X292623Y429314D01*
X292525Y429296D01*
X292425Y429281D01*
X292326Y429270D01*
X292225Y429263D01*
X292125Y429260D01*
X292025Y429261D01*
X291924Y429266D01*
X291825Y429275D01*
X291725Y429288D01*
X291626Y429305D01*
X291528Y429325D01*
X291430Y429350D01*
X291334Y429378D01*
X291239Y429410D01*
X291145Y429446D01*
X291053Y429486D01*
X290963Y429529D01*
X290874Y429576D01*
X290787Y429626D01*
X290702Y429679D01*
X290619Y429736D01*
X290539Y429796D01*
X290461Y429860D01*
X290386Y429926D01*
X290313Y429995D01*
X290243Y430067D01*
X290176Y430142D01*
X290112Y430219D01*
X290051Y430299D01*
X289993Y430381D01*
X289939Y430465D01*
X289888Y430552D01*
X289840Y430640D01*
X289796Y430730D01*
X289756Y430822D01*
X289719Y430916D01*
X289686Y431010D01*
X289657Y431106D01*
X289631Y431203D01*
X289609Y431301D01*
X289592Y431400D01*
X289578Y431500D01*
X289568Y431599D01*
X289562Y431700D01*
X289560Y431800D01*
D12*
X285115Y475615D02*
X285215Y475617D01*
X285314Y475623D01*
X285414Y475633D01*
X285512Y475646D01*
X285611Y475664D01*
X285708Y475685D01*
X285804Y475710D01*
X285900Y475739D01*
X285994Y475772D01*
X286087Y475808D01*
X286178Y475848D01*
X286268Y475892D01*
X286356Y475939D01*
X286442Y475989D01*
X286526Y476043D01*
X286608Y476100D01*
X286687Y476160D01*
X286765Y476224D01*
X286839Y476290D01*
X286911Y476359D01*
X286980Y476431D01*
X287046Y476505D01*
X287110Y476583D01*
X287170Y476662D01*
X287227Y476744D01*
X287281Y476828D01*
X287331Y476914D01*
X287378Y477002D01*
X287422Y477092D01*
X287462Y477183D01*
X287498Y477276D01*
X287531Y477370D01*
X287560Y477466D01*
X287585Y477562D01*
X287606Y477659D01*
X287624Y477758D01*
X287637Y477856D01*
X287647Y477956D01*
X287653Y478055D01*
X287655Y478155D01*
X285115Y475615D02*
X284974Y475617D01*
X284833Y475622D01*
X284692Y475632D01*
X284551Y475645D01*
X284411Y475661D01*
X284271Y475682D01*
X284132Y475706D01*
X283993Y475734D01*
X283856Y475765D01*
X283719Y475800D01*
X283583Y475838D01*
X283448Y475880D01*
X283315Y475926D01*
X283182Y475975D01*
X283051Y476028D01*
X282922Y476084D01*
X282793Y476143D01*
X282667Y476206D01*
X282542Y476272D01*
X282419Y476341D01*
X282298Y476414D01*
X282179Y476490D01*
X282061Y476569D01*
X281946Y476650D01*
X281834Y476735D01*
X281723Y476823D01*
X281615Y476914D01*
X281509Y477007D01*
X281406Y477104D01*
X281305Y477203D01*
X281623Y484505D02*
X281625Y484605D01*
X281631Y484704D01*
X281641Y484804D01*
X281654Y484902D01*
X281672Y485001D01*
X281693Y485098D01*
X281718Y485194D01*
X281747Y485290D01*
X281780Y485384D01*
X281816Y485477D01*
X281856Y485568D01*
X281900Y485658D01*
X281947Y485746D01*
X281997Y485832D01*
X282051Y485916D01*
X282108Y485998D01*
X282168Y486077D01*
X282232Y486155D01*
X282298Y486229D01*
X282367Y486301D01*
X282439Y486370D01*
X282513Y486436D01*
X282591Y486500D01*
X282670Y486560D01*
X282752Y486617D01*
X282836Y486671D01*
X282922Y486721D01*
X283010Y486768D01*
X283100Y486812D01*
X283191Y486852D01*
X283284Y486888D01*
X283378Y486921D01*
X283474Y486950D01*
X283570Y486975D01*
X283667Y486996D01*
X283766Y487014D01*
X283864Y487027D01*
X283964Y487037D01*
X284063Y487043D01*
X284163Y487045D01*
X284163Y487046D02*
X284296Y487044D01*
X284429Y487039D01*
X284562Y487029D01*
X284695Y487016D01*
X284827Y486999D01*
X284959Y486979D01*
X285090Y486955D01*
X285220Y486927D01*
X285350Y486896D01*
X285478Y486861D01*
X285606Y486822D01*
X285732Y486780D01*
X285857Y486734D01*
X285981Y486685D01*
X286104Y486633D01*
X286225Y486577D01*
X286344Y486517D01*
X286462Y486455D01*
X286577Y486389D01*
X286691Y486320D01*
X286803Y486247D01*
X286913Y486172D01*
X287021Y486093D01*
X282892Y482282D02*
X282808Y482334D01*
X282725Y482389D01*
X282645Y482448D01*
X282567Y482509D01*
X282492Y482573D01*
X282419Y482641D01*
X282348Y482711D01*
X282281Y482783D01*
X282216Y482858D01*
X282154Y482936D01*
X282095Y483016D01*
X282039Y483098D01*
X281987Y483182D01*
X281938Y483268D01*
X281892Y483356D01*
X281849Y483446D01*
X281810Y483537D01*
X281775Y483630D01*
X281743Y483724D01*
X281715Y483819D01*
X281690Y483915D01*
X281670Y484012D01*
X281652Y484110D01*
X281639Y484208D01*
X281630Y484307D01*
X281624Y484406D01*
X281622Y484505D01*
X286385Y480378D02*
X286469Y480326D01*
X286552Y480271D01*
X286632Y480212D01*
X286710Y480151D01*
X286785Y480087D01*
X286858Y480019D01*
X286929Y479949D01*
X286996Y479877D01*
X287061Y479802D01*
X287123Y479724D01*
X287182Y479644D01*
X287238Y479562D01*
X287290Y479478D01*
X287339Y479392D01*
X287385Y479304D01*
X287428Y479214D01*
X287467Y479123D01*
X287502Y479030D01*
X287534Y478936D01*
X287562Y478841D01*
X287587Y478745D01*
X287607Y478648D01*
X287625Y478550D01*
X287638Y478452D01*
X287647Y478353D01*
X287653Y478254D01*
X287655Y478155D01*
X286385Y480378D02*
X282893Y482283D01*
X292354Y484505D02*
X295529Y487045D01*
X295529Y475615D01*
X292354Y475615D02*
X298704Y475615D01*
D11*
X241300Y400050D02*
X234950Y393700D01*
X241300Y412750D02*
X234950Y419100D01*
X241300Y425450D01*
X241300Y438150D02*
X234950Y444500D01*
X241300Y450850D01*
X241300Y463550D02*
X234950Y469900D01*
X241300Y476250D01*
X241300Y488950D02*
X234950Y495300D01*
X234950Y393700D02*
X196850Y393700D01*
X190500Y400050D01*
X190500Y412750D01*
X196850Y419100D01*
X190500Y425450D01*
X190500Y438150D01*
X196850Y444500D01*
X190500Y450850D01*
X190500Y463550D01*
X196850Y469900D01*
X190500Y476250D01*
X190500Y488950D01*
X196850Y495300D01*
X196850Y419100D02*
X234950Y419100D01*
X234950Y444500D02*
X196850Y444500D01*
X196850Y469900D02*
X234950Y469900D01*
X234950Y495300D02*
X196850Y495300D01*
X241300Y488950D02*
X241300Y476250D01*
X241300Y463550D02*
X241300Y450850D01*
X241300Y438150D02*
X241300Y425450D01*
X241300Y412750D02*
X241300Y400050D01*
X234950Y495300D02*
X241300Y501650D01*
X241300Y514350D02*
X234950Y520700D01*
X196850Y495300D02*
X190500Y501650D01*
X190500Y514350D01*
X196850Y520700D01*
X234950Y520700D01*
X241300Y514350D02*
X241300Y501650D01*
D12*
X123825Y375285D02*
X123925Y375283D01*
X124024Y375277D01*
X124124Y375267D01*
X124222Y375254D01*
X124321Y375236D01*
X124418Y375215D01*
X124514Y375190D01*
X124610Y375161D01*
X124704Y375128D01*
X124797Y375092D01*
X124888Y375052D01*
X124978Y375008D01*
X125066Y374961D01*
X125152Y374911D01*
X125236Y374857D01*
X125318Y374800D01*
X125397Y374740D01*
X125475Y374676D01*
X125549Y374610D01*
X125621Y374541D01*
X125690Y374469D01*
X125756Y374395D01*
X125820Y374317D01*
X125880Y374238D01*
X125937Y374156D01*
X125991Y374072D01*
X126041Y373986D01*
X126088Y373898D01*
X126132Y373808D01*
X126172Y373717D01*
X126208Y373624D01*
X126241Y373530D01*
X126270Y373434D01*
X126295Y373338D01*
X126316Y373241D01*
X126334Y373142D01*
X126347Y373044D01*
X126357Y372944D01*
X126363Y372845D01*
X126365Y372745D01*
X126363Y372604D01*
X126358Y372463D01*
X126348Y372322D01*
X126335Y372181D01*
X126319Y372041D01*
X126298Y371901D01*
X126274Y371762D01*
X126246Y371623D01*
X126215Y371486D01*
X126180Y371349D01*
X126142Y371213D01*
X126100Y371078D01*
X126054Y370945D01*
X126005Y370812D01*
X125952Y370681D01*
X125896Y370552D01*
X125837Y370423D01*
X125774Y370297D01*
X125708Y370172D01*
X125639Y370049D01*
X125566Y369928D01*
X125490Y369809D01*
X125411Y369691D01*
X125330Y369576D01*
X125245Y369464D01*
X125157Y369353D01*
X125066Y369245D01*
X124973Y369139D01*
X124876Y369036D01*
X124777Y368935D01*
X117475Y369253D02*
X117375Y369255D01*
X117276Y369261D01*
X117176Y369271D01*
X117078Y369284D01*
X116979Y369302D01*
X116882Y369323D01*
X116786Y369348D01*
X116690Y369377D01*
X116596Y369410D01*
X116503Y369446D01*
X116412Y369486D01*
X116322Y369530D01*
X116234Y369577D01*
X116148Y369627D01*
X116064Y369681D01*
X115982Y369738D01*
X115903Y369798D01*
X115825Y369862D01*
X115751Y369928D01*
X115679Y369997D01*
X115610Y370069D01*
X115544Y370143D01*
X115480Y370221D01*
X115420Y370300D01*
X115363Y370382D01*
X115309Y370466D01*
X115259Y370552D01*
X115212Y370640D01*
X115168Y370730D01*
X115128Y370821D01*
X115092Y370914D01*
X115059Y371008D01*
X115030Y371104D01*
X115005Y371200D01*
X114984Y371297D01*
X114966Y371396D01*
X114953Y371494D01*
X114943Y371594D01*
X114937Y371693D01*
X114935Y371793D01*
X114937Y371926D01*
X114942Y372059D01*
X114952Y372192D01*
X114965Y372325D01*
X114982Y372457D01*
X115002Y372589D01*
X115026Y372720D01*
X115054Y372850D01*
X115085Y372980D01*
X115120Y373108D01*
X115159Y373236D01*
X115201Y373362D01*
X115247Y373487D01*
X115296Y373611D01*
X115348Y373734D01*
X115404Y373855D01*
X115464Y373974D01*
X115526Y374092D01*
X115592Y374207D01*
X115661Y374321D01*
X115734Y374433D01*
X115809Y374543D01*
X115888Y374651D01*
X119698Y370522D02*
X119646Y370438D01*
X119591Y370355D01*
X119532Y370275D01*
X119471Y370197D01*
X119407Y370122D01*
X119339Y370049D01*
X119269Y369978D01*
X119197Y369911D01*
X119122Y369846D01*
X119044Y369784D01*
X118964Y369725D01*
X118882Y369669D01*
X118798Y369617D01*
X118712Y369568D01*
X118624Y369522D01*
X118534Y369479D01*
X118443Y369440D01*
X118350Y369405D01*
X118256Y369373D01*
X118161Y369345D01*
X118065Y369320D01*
X117968Y369300D01*
X117870Y369282D01*
X117772Y369269D01*
X117673Y369260D01*
X117574Y369254D01*
X117475Y369252D01*
X121602Y374015D02*
X121654Y374099D01*
X121709Y374182D01*
X121768Y374262D01*
X121829Y374340D01*
X121893Y374415D01*
X121961Y374488D01*
X122031Y374559D01*
X122103Y374626D01*
X122178Y374691D01*
X122256Y374753D01*
X122336Y374812D01*
X122418Y374868D01*
X122502Y374920D01*
X122588Y374969D01*
X122676Y375015D01*
X122766Y375058D01*
X122857Y375097D01*
X122950Y375132D01*
X123044Y375164D01*
X123139Y375192D01*
X123235Y375217D01*
X123332Y375237D01*
X123430Y375255D01*
X123528Y375268D01*
X123627Y375277D01*
X123726Y375283D01*
X123825Y375285D01*
X121603Y374015D02*
X119698Y370523D01*
X114935Y379603D02*
X126365Y382143D01*
X118745Y384683D01*
X126365Y387223D01*
X114935Y389763D01*
X114935Y394843D02*
X126365Y394843D01*
X114935Y394843D02*
X114935Y398018D01*
X114937Y398129D01*
X114943Y398239D01*
X114952Y398350D01*
X114966Y398460D01*
X114983Y398569D01*
X115004Y398678D01*
X115029Y398786D01*
X115058Y398893D01*
X115090Y398999D01*
X115126Y399104D01*
X115166Y399207D01*
X115209Y399309D01*
X115256Y399410D01*
X115307Y399509D01*
X115360Y399606D01*
X115417Y399700D01*
X115478Y399793D01*
X115541Y399884D01*
X115608Y399973D01*
X115678Y400059D01*
X115751Y400142D01*
X115826Y400224D01*
X115904Y400302D01*
X115986Y400377D01*
X116069Y400450D01*
X116155Y400520D01*
X116244Y400587D01*
X116335Y400650D01*
X116428Y400711D01*
X116523Y400768D01*
X116619Y400821D01*
X116718Y400872D01*
X116819Y400919D01*
X116921Y400962D01*
X117024Y401002D01*
X117129Y401038D01*
X117235Y401070D01*
X117342Y401099D01*
X117450Y401124D01*
X117559Y401145D01*
X117668Y401162D01*
X117778Y401176D01*
X117889Y401185D01*
X117999Y401191D01*
X118110Y401193D01*
X123190Y401193D01*
X123301Y401191D01*
X123411Y401185D01*
X123522Y401176D01*
X123632Y401162D01*
X123741Y401145D01*
X123850Y401124D01*
X123958Y401099D01*
X124065Y401070D01*
X124171Y401038D01*
X124276Y401002D01*
X124379Y400962D01*
X124481Y400919D01*
X124582Y400872D01*
X124681Y400821D01*
X124778Y400768D01*
X124872Y400711D01*
X124965Y400650D01*
X125056Y400587D01*
X125145Y400520D01*
X125231Y400450D01*
X125314Y400377D01*
X125396Y400302D01*
X125474Y400224D01*
X125549Y400142D01*
X125622Y400059D01*
X125692Y399973D01*
X125759Y399884D01*
X125822Y399793D01*
X125883Y399700D01*
X125940Y399606D01*
X125993Y399509D01*
X126044Y399410D01*
X126091Y399309D01*
X126134Y399207D01*
X126174Y399104D01*
X126210Y398999D01*
X126242Y398893D01*
X126271Y398786D01*
X126296Y398678D01*
X126317Y398569D01*
X126334Y398460D01*
X126348Y398350D01*
X126357Y398239D01*
X126363Y398129D01*
X126365Y398018D01*
X126365Y394843D01*
X127635Y406146D02*
X127635Y411226D01*
X126365Y416179D02*
X114935Y416179D01*
X114935Y419354D01*
X114937Y419465D01*
X114943Y419575D01*
X114952Y419686D01*
X114966Y419796D01*
X114983Y419905D01*
X115004Y420014D01*
X115029Y420122D01*
X115058Y420229D01*
X115090Y420335D01*
X115126Y420440D01*
X115166Y420543D01*
X115209Y420645D01*
X115256Y420746D01*
X115307Y420845D01*
X115360Y420942D01*
X115417Y421036D01*
X115478Y421129D01*
X115541Y421220D01*
X115608Y421309D01*
X115678Y421395D01*
X115751Y421478D01*
X115826Y421560D01*
X115904Y421638D01*
X115986Y421713D01*
X116069Y421786D01*
X116155Y421856D01*
X116244Y421923D01*
X116335Y421986D01*
X116428Y422047D01*
X116523Y422104D01*
X116619Y422157D01*
X116718Y422208D01*
X116819Y422255D01*
X116921Y422298D01*
X117024Y422338D01*
X117129Y422374D01*
X117235Y422406D01*
X117342Y422435D01*
X117450Y422460D01*
X117559Y422481D01*
X117668Y422498D01*
X117778Y422512D01*
X117889Y422521D01*
X117999Y422527D01*
X118110Y422529D01*
X123190Y422529D01*
X123301Y422527D01*
X123411Y422521D01*
X123522Y422512D01*
X123632Y422498D01*
X123741Y422481D01*
X123850Y422460D01*
X123958Y422435D01*
X124065Y422406D01*
X124171Y422374D01*
X124276Y422338D01*
X124379Y422298D01*
X124481Y422255D01*
X124582Y422208D01*
X124681Y422157D01*
X124778Y422104D01*
X124872Y422047D01*
X124965Y421986D01*
X125056Y421923D01*
X125145Y421856D01*
X125231Y421786D01*
X125314Y421713D01*
X125396Y421638D01*
X125474Y421560D01*
X125549Y421478D01*
X125622Y421395D01*
X125692Y421309D01*
X125759Y421220D01*
X125822Y421129D01*
X125883Y421036D01*
X125940Y420942D01*
X125993Y420845D01*
X126044Y420746D01*
X126091Y420645D01*
X126134Y420543D01*
X126174Y420440D01*
X126210Y420335D01*
X126242Y420229D01*
X126271Y420122D01*
X126296Y420014D01*
X126317Y419905D01*
X126334Y419796D01*
X126348Y419686D01*
X126357Y419575D01*
X126363Y419465D01*
X126365Y419354D01*
X126365Y416179D01*
X126365Y428396D02*
X126365Y433476D01*
X126365Y428396D02*
X114935Y428396D01*
X114935Y433476D01*
X120015Y432206D02*
X120015Y428396D01*
X120015Y438467D02*
X120015Y441642D01*
X120017Y441753D01*
X120023Y441863D01*
X120032Y441974D01*
X120046Y442084D01*
X120063Y442193D01*
X120084Y442302D01*
X120109Y442410D01*
X120138Y442517D01*
X120170Y442623D01*
X120206Y442728D01*
X120246Y442831D01*
X120289Y442933D01*
X120336Y443034D01*
X120387Y443133D01*
X120440Y443230D01*
X120497Y443324D01*
X120558Y443417D01*
X120621Y443508D01*
X120688Y443597D01*
X120758Y443683D01*
X120831Y443766D01*
X120906Y443848D01*
X120984Y443926D01*
X121066Y444001D01*
X121149Y444074D01*
X121235Y444144D01*
X121324Y444211D01*
X121415Y444274D01*
X121508Y444335D01*
X121603Y444392D01*
X121699Y444445D01*
X121798Y444496D01*
X121899Y444543D01*
X122001Y444586D01*
X122104Y444626D01*
X122209Y444662D01*
X122315Y444694D01*
X122422Y444723D01*
X122530Y444748D01*
X122639Y444769D01*
X122748Y444786D01*
X122858Y444800D01*
X122969Y444809D01*
X123079Y444815D01*
X123190Y444817D01*
X123301Y444815D01*
X123411Y444809D01*
X123522Y444800D01*
X123632Y444786D01*
X123741Y444769D01*
X123850Y444748D01*
X123958Y444723D01*
X124065Y444694D01*
X124171Y444662D01*
X124276Y444626D01*
X124379Y444586D01*
X124481Y444543D01*
X124582Y444496D01*
X124681Y444445D01*
X124778Y444392D01*
X124872Y444335D01*
X124965Y444274D01*
X125056Y444211D01*
X125145Y444144D01*
X125231Y444074D01*
X125314Y444001D01*
X125396Y443926D01*
X125474Y443848D01*
X125549Y443766D01*
X125622Y443683D01*
X125692Y443597D01*
X125759Y443508D01*
X125822Y443417D01*
X125883Y443324D01*
X125940Y443230D01*
X125993Y443133D01*
X126044Y443034D01*
X126091Y442933D01*
X126134Y442831D01*
X126174Y442728D01*
X126210Y442623D01*
X126242Y442517D01*
X126271Y442410D01*
X126296Y442302D01*
X126317Y442193D01*
X126334Y442084D01*
X126348Y441974D01*
X126357Y441863D01*
X126363Y441753D01*
X126365Y441642D01*
X126365Y438467D01*
X114935Y438467D01*
X114935Y441642D01*
X114937Y441742D01*
X114943Y441841D01*
X114953Y441941D01*
X114966Y442039D01*
X114984Y442138D01*
X115005Y442235D01*
X115030Y442331D01*
X115059Y442427D01*
X115092Y442521D01*
X115128Y442614D01*
X115168Y442705D01*
X115212Y442795D01*
X115259Y442883D01*
X115309Y442969D01*
X115363Y443053D01*
X115420Y443135D01*
X115480Y443214D01*
X115544Y443292D01*
X115610Y443366D01*
X115679Y443438D01*
X115751Y443507D01*
X115825Y443573D01*
X115903Y443637D01*
X115982Y443697D01*
X116064Y443754D01*
X116148Y443808D01*
X116234Y443858D01*
X116322Y443905D01*
X116412Y443949D01*
X116503Y443989D01*
X116596Y444025D01*
X116690Y444058D01*
X116786Y444087D01*
X116882Y444112D01*
X116979Y444133D01*
X117078Y444151D01*
X117176Y444164D01*
X117276Y444174D01*
X117375Y444180D01*
X117475Y444182D01*
X117575Y444180D01*
X117674Y444174D01*
X117774Y444164D01*
X117872Y444151D01*
X117971Y444133D01*
X118068Y444112D01*
X118164Y444087D01*
X118260Y444058D01*
X118354Y444025D01*
X118447Y443989D01*
X118538Y443949D01*
X118628Y443905D01*
X118716Y443858D01*
X118802Y443808D01*
X118886Y443754D01*
X118968Y443697D01*
X119047Y443637D01*
X119125Y443573D01*
X119199Y443507D01*
X119271Y443438D01*
X119340Y443366D01*
X119406Y443292D01*
X119470Y443214D01*
X119530Y443135D01*
X119587Y443053D01*
X119641Y442969D01*
X119691Y442883D01*
X119738Y442795D01*
X119782Y442705D01*
X119822Y442614D01*
X119858Y442521D01*
X119891Y442427D01*
X119920Y442331D01*
X119945Y442235D01*
X119966Y442138D01*
X119984Y442039D01*
X119997Y441941D01*
X120007Y441841D01*
X120013Y441742D01*
X120015Y441642D01*
X123190Y449707D02*
X114935Y449707D01*
X123190Y449707D02*
X123301Y449709D01*
X123411Y449715D01*
X123522Y449724D01*
X123632Y449738D01*
X123741Y449755D01*
X123850Y449776D01*
X123958Y449801D01*
X124065Y449830D01*
X124171Y449862D01*
X124276Y449898D01*
X124379Y449938D01*
X124481Y449981D01*
X124582Y450028D01*
X124681Y450079D01*
X124777Y450132D01*
X124872Y450189D01*
X124965Y450250D01*
X125056Y450313D01*
X125145Y450380D01*
X125231Y450450D01*
X125314Y450523D01*
X125396Y450598D01*
X125474Y450676D01*
X125549Y450758D01*
X125622Y450841D01*
X125692Y450927D01*
X125759Y451016D01*
X125822Y451107D01*
X125883Y451200D01*
X125940Y451294D01*
X125993Y451391D01*
X126044Y451490D01*
X126091Y451591D01*
X126134Y451693D01*
X126174Y451796D01*
X126210Y451901D01*
X126242Y452007D01*
X126271Y452114D01*
X126296Y452222D01*
X126317Y452331D01*
X126334Y452440D01*
X126348Y452550D01*
X126357Y452661D01*
X126363Y452771D01*
X126365Y452882D01*
X126363Y452993D01*
X126357Y453103D01*
X126348Y453214D01*
X126334Y453324D01*
X126317Y453433D01*
X126296Y453542D01*
X126271Y453650D01*
X126242Y453757D01*
X126210Y453863D01*
X126174Y453968D01*
X126134Y454071D01*
X126091Y454173D01*
X126044Y454274D01*
X125993Y454373D01*
X125940Y454469D01*
X125883Y454564D01*
X125822Y454657D01*
X125759Y454748D01*
X125692Y454837D01*
X125622Y454923D01*
X125549Y455006D01*
X125474Y455088D01*
X125396Y455166D01*
X125314Y455241D01*
X125231Y455314D01*
X125145Y455384D01*
X125056Y455451D01*
X124965Y455514D01*
X124872Y455575D01*
X124778Y455632D01*
X124681Y455685D01*
X124582Y455736D01*
X124481Y455783D01*
X124379Y455826D01*
X124276Y455866D01*
X124171Y455902D01*
X124065Y455934D01*
X123958Y455963D01*
X123850Y455988D01*
X123741Y456009D01*
X123632Y456026D01*
X123522Y456040D01*
X123411Y456049D01*
X123301Y456055D01*
X123190Y456057D01*
X114935Y456057D01*
X120015Y466344D02*
X120015Y468249D01*
X126365Y468249D01*
X126365Y464439D01*
X126363Y464339D01*
X126357Y464240D01*
X126347Y464140D01*
X126334Y464042D01*
X126316Y463943D01*
X126295Y463846D01*
X126270Y463750D01*
X126241Y463654D01*
X126208Y463560D01*
X126172Y463467D01*
X126132Y463376D01*
X126088Y463286D01*
X126041Y463198D01*
X125991Y463112D01*
X125937Y463028D01*
X125880Y462946D01*
X125820Y462867D01*
X125756Y462789D01*
X125690Y462715D01*
X125621Y462643D01*
X125549Y462574D01*
X125475Y462508D01*
X125397Y462444D01*
X125318Y462384D01*
X125236Y462327D01*
X125152Y462273D01*
X125066Y462223D01*
X124978Y462176D01*
X124888Y462132D01*
X124797Y462092D01*
X124704Y462056D01*
X124610Y462023D01*
X124514Y461994D01*
X124418Y461969D01*
X124321Y461948D01*
X124222Y461930D01*
X124124Y461917D01*
X124024Y461907D01*
X123925Y461901D01*
X123825Y461899D01*
X117475Y461899D01*
X117375Y461901D01*
X117276Y461907D01*
X117176Y461917D01*
X117078Y461930D01*
X116979Y461948D01*
X116882Y461969D01*
X116786Y461994D01*
X116690Y462023D01*
X116596Y462056D01*
X116503Y462092D01*
X116412Y462132D01*
X116322Y462176D01*
X116234Y462223D01*
X116148Y462273D01*
X116064Y462327D01*
X115982Y462384D01*
X115903Y462444D01*
X115825Y462508D01*
X115751Y462574D01*
X115679Y462643D01*
X115610Y462715D01*
X115544Y462789D01*
X115480Y462867D01*
X115420Y462946D01*
X115363Y463028D01*
X115309Y463112D01*
X115259Y463198D01*
X115212Y463286D01*
X115168Y463376D01*
X115128Y463467D01*
X115092Y463560D01*
X115059Y463654D01*
X115030Y463750D01*
X115005Y463846D01*
X114984Y463943D01*
X114966Y464042D01*
X114953Y464140D01*
X114943Y464240D01*
X114937Y464339D01*
X114935Y464439D01*
X114935Y468249D01*
X120015Y478536D02*
X120015Y480441D01*
X126365Y480441D01*
X126365Y476631D01*
X126363Y476531D01*
X126357Y476432D01*
X126347Y476332D01*
X126334Y476234D01*
X126316Y476135D01*
X126295Y476038D01*
X126270Y475942D01*
X126241Y475846D01*
X126208Y475752D01*
X126172Y475659D01*
X126132Y475568D01*
X126088Y475478D01*
X126041Y475390D01*
X125991Y475304D01*
X125937Y475220D01*
X125880Y475138D01*
X125820Y475059D01*
X125756Y474981D01*
X125690Y474907D01*
X125621Y474835D01*
X125549Y474766D01*
X125475Y474700D01*
X125397Y474636D01*
X125318Y474576D01*
X125236Y474519D01*
X125152Y474465D01*
X125066Y474415D01*
X124978Y474368D01*
X124888Y474324D01*
X124797Y474284D01*
X124704Y474248D01*
X124610Y474215D01*
X124514Y474186D01*
X124418Y474161D01*
X124321Y474140D01*
X124222Y474122D01*
X124124Y474109D01*
X124024Y474099D01*
X123925Y474093D01*
X123825Y474091D01*
X117475Y474091D01*
X117375Y474093D01*
X117276Y474099D01*
X117176Y474109D01*
X117078Y474122D01*
X116979Y474140D01*
X116882Y474161D01*
X116786Y474186D01*
X116690Y474215D01*
X116596Y474248D01*
X116503Y474284D01*
X116412Y474324D01*
X116322Y474368D01*
X116234Y474415D01*
X116148Y474465D01*
X116064Y474519D01*
X115982Y474576D01*
X115903Y474636D01*
X115825Y474700D01*
X115751Y474766D01*
X115679Y474835D01*
X115610Y474907D01*
X115544Y474981D01*
X115480Y475059D01*
X115420Y475138D01*
X115363Y475220D01*
X115309Y475304D01*
X115259Y475390D01*
X115212Y475478D01*
X115168Y475568D01*
X115128Y475659D01*
X115092Y475752D01*
X115059Y475846D01*
X115030Y475942D01*
X115005Y476038D01*
X114984Y476135D01*
X114966Y476234D01*
X114953Y476332D01*
X114943Y476432D01*
X114937Y476531D01*
X114935Y476631D01*
X114935Y480441D01*
X126365Y486308D02*
X126365Y491388D01*
X126365Y486308D02*
X114935Y486308D01*
X114935Y491388D01*
X120015Y490118D02*
X120015Y486308D01*
X114935Y496272D02*
X126365Y496272D01*
X114935Y496272D02*
X114935Y499447D01*
X114937Y499558D01*
X114943Y499668D01*
X114952Y499779D01*
X114966Y499889D01*
X114983Y499998D01*
X115004Y500107D01*
X115029Y500215D01*
X115058Y500322D01*
X115090Y500428D01*
X115126Y500533D01*
X115166Y500636D01*
X115209Y500738D01*
X115256Y500839D01*
X115307Y500938D01*
X115360Y501035D01*
X115417Y501129D01*
X115478Y501222D01*
X115541Y501313D01*
X115608Y501402D01*
X115678Y501488D01*
X115751Y501571D01*
X115826Y501653D01*
X115904Y501731D01*
X115986Y501806D01*
X116069Y501879D01*
X116155Y501949D01*
X116244Y502016D01*
X116335Y502079D01*
X116428Y502140D01*
X116523Y502197D01*
X116619Y502250D01*
X116718Y502301D01*
X116819Y502348D01*
X116921Y502391D01*
X117024Y502431D01*
X117129Y502467D01*
X117235Y502499D01*
X117342Y502528D01*
X117450Y502553D01*
X117559Y502574D01*
X117668Y502591D01*
X117778Y502605D01*
X117889Y502614D01*
X117999Y502620D01*
X118110Y502622D01*
X118221Y502620D01*
X118331Y502614D01*
X118442Y502605D01*
X118552Y502591D01*
X118661Y502574D01*
X118770Y502553D01*
X118878Y502528D01*
X118985Y502499D01*
X119091Y502467D01*
X119196Y502431D01*
X119299Y502391D01*
X119401Y502348D01*
X119502Y502301D01*
X119601Y502250D01*
X119698Y502197D01*
X119792Y502140D01*
X119885Y502079D01*
X119976Y502016D01*
X120065Y501949D01*
X120151Y501879D01*
X120234Y501806D01*
X120316Y501731D01*
X120394Y501653D01*
X120469Y501571D01*
X120542Y501488D01*
X120612Y501402D01*
X120679Y501313D01*
X120742Y501222D01*
X120803Y501129D01*
X120860Y501035D01*
X120913Y500938D01*
X120964Y500839D01*
X121011Y500738D01*
X121054Y500636D01*
X121094Y500533D01*
X121130Y500428D01*
X121162Y500322D01*
X121191Y500215D01*
X121216Y500107D01*
X121237Y499998D01*
X121254Y499889D01*
X121268Y499779D01*
X121277Y499668D01*
X121283Y499558D01*
X121285Y499447D01*
X121285Y496272D01*
X121285Y500082D02*
X126365Y502622D01*
X172600Y257500D02*
X172600Y250500D01*
X157600Y250500D02*
X157600Y257500D01*
D13*
X188016Y279725D02*
X184122Y285242D01*
X188016Y279725D02*
X191911Y285242D01*
X188016Y279725D02*
X188016Y273558D01*
X196201Y282646D02*
X199446Y285242D01*
X199446Y273558D01*
X196201Y273558D02*
X202692Y273558D01*
M02*
