G04 EAGLE Gerber RS-274X export*
G75*
%MOMM*%
%FSLAX34Y34*%
%LPD*%
%INTop Copper*%
%IPPOS*%
%AMOC8*
5,1,8,0,0,1.08239X$1,22.5*%
G01*
%ADD10R,1.000000X1.050000*%
%ADD11R,1.050000X2.200000*%
%ADD12R,1.050000X1.950000*%
%ADD13C,1.320800*%
%ADD14C,0.304800*%

G36*
X685826Y-14220D02*
X685826Y-14220D01*
X685852Y-14222D01*
X685999Y-14200D01*
X686146Y-14183D01*
X686171Y-14175D01*
X686197Y-14171D01*
X686335Y-14116D01*
X686474Y-14066D01*
X686496Y-14052D01*
X686521Y-14042D01*
X686642Y-13957D01*
X686767Y-13877D01*
X686785Y-13858D01*
X686807Y-13843D01*
X686906Y-13733D01*
X687009Y-13626D01*
X687023Y-13604D01*
X687040Y-13584D01*
X687112Y-13454D01*
X687188Y-13327D01*
X687196Y-13302D01*
X687209Y-13279D01*
X687249Y-13136D01*
X687294Y-12995D01*
X687296Y-12969D01*
X687304Y-12944D01*
X687323Y-12700D01*
X687323Y317500D01*
X687320Y317526D01*
X687322Y317552D01*
X687300Y317699D01*
X687283Y317846D01*
X687275Y317871D01*
X687271Y317897D01*
X687216Y318035D01*
X687166Y318174D01*
X687152Y318196D01*
X687142Y318221D01*
X687057Y318342D01*
X686977Y318467D01*
X686958Y318485D01*
X686943Y318507D01*
X686833Y318606D01*
X686726Y318709D01*
X686704Y318723D01*
X686684Y318740D01*
X686554Y318812D01*
X686427Y318888D01*
X686402Y318896D01*
X686379Y318909D01*
X686236Y318949D01*
X686095Y318994D01*
X686069Y318996D01*
X686044Y319004D01*
X685800Y319023D01*
X431800Y319023D01*
X431774Y319020D01*
X431748Y319022D01*
X431601Y319000D01*
X431454Y318983D01*
X431429Y318975D01*
X431403Y318971D01*
X431265Y318916D01*
X431126Y318866D01*
X431104Y318852D01*
X431079Y318842D01*
X430958Y318757D01*
X430833Y318677D01*
X430815Y318658D01*
X430793Y318643D01*
X430694Y318533D01*
X430591Y318426D01*
X430577Y318404D01*
X430560Y318384D01*
X430488Y318254D01*
X430412Y318127D01*
X430404Y318102D01*
X430391Y318079D01*
X430351Y317936D01*
X430306Y317795D01*
X430304Y317769D01*
X430296Y317744D01*
X430277Y317500D01*
X430277Y-12700D01*
X430280Y-12726D01*
X430278Y-12752D01*
X430300Y-12899D01*
X430317Y-13046D01*
X430325Y-13071D01*
X430329Y-13097D01*
X430384Y-13235D01*
X430434Y-13374D01*
X430448Y-13396D01*
X430458Y-13421D01*
X430543Y-13542D01*
X430623Y-13667D01*
X430642Y-13685D01*
X430657Y-13707D01*
X430767Y-13806D01*
X430874Y-13909D01*
X430896Y-13923D01*
X430916Y-13940D01*
X431046Y-14012D01*
X431173Y-14088D01*
X431198Y-14096D01*
X431221Y-14109D01*
X431364Y-14149D01*
X431505Y-14194D01*
X431531Y-14196D01*
X431556Y-14204D01*
X431800Y-14223D01*
X685800Y-14223D01*
X685826Y-14220D01*
G37*
%LPC*%
G36*
X610218Y202425D02*
X610218Y202425D01*
X609325Y203318D01*
X609325Y224082D01*
X610218Y224975D01*
X622432Y224975D01*
X622558Y224989D01*
X622684Y224996D01*
X622730Y225009D01*
X622778Y225015D01*
X622897Y225057D01*
X623019Y225092D01*
X623061Y225116D01*
X623107Y225132D01*
X623213Y225201D01*
X623323Y225262D01*
X623369Y225302D01*
X623399Y225321D01*
X623433Y225356D01*
X623509Y225421D01*
X631505Y233417D01*
X631584Y233516D01*
X631668Y233610D01*
X631692Y233652D01*
X631722Y233690D01*
X631776Y233804D01*
X631837Y233915D01*
X631850Y233961D01*
X631871Y234005D01*
X631897Y234128D01*
X631932Y234250D01*
X631937Y234311D01*
X631944Y234346D01*
X631943Y234394D01*
X631951Y234494D01*
X631951Y243152D01*
X631948Y243178D01*
X631950Y243204D01*
X631928Y243351D01*
X631911Y243498D01*
X631903Y243523D01*
X631899Y243549D01*
X631844Y243687D01*
X631794Y243826D01*
X631780Y243848D01*
X631770Y243873D01*
X631685Y243994D01*
X631605Y244119D01*
X631586Y244137D01*
X631571Y244159D01*
X631461Y244258D01*
X631354Y244361D01*
X631332Y244375D01*
X631312Y244392D01*
X631182Y244464D01*
X631055Y244540D01*
X631030Y244548D01*
X631007Y244561D01*
X630864Y244601D01*
X630723Y244646D01*
X630697Y244648D01*
X630672Y244656D01*
X630428Y244675D01*
X629368Y244675D01*
X628475Y245568D01*
X628475Y251882D01*
X628469Y251932D01*
X628472Y251983D01*
X628450Y252105D01*
X628435Y252228D01*
X628418Y252276D01*
X628409Y252326D01*
X628360Y252440D01*
X628318Y252556D01*
X628290Y252599D01*
X628270Y252646D01*
X628196Y252745D01*
X628129Y252849D01*
X628092Y252884D01*
X628062Y252925D01*
X627967Y253005D01*
X627878Y253091D01*
X627834Y253117D01*
X627795Y253150D01*
X627685Y253206D01*
X627579Y253270D01*
X627531Y253285D01*
X627485Y253309D01*
X627365Y253338D01*
X627247Y253376D01*
X627196Y253380D01*
X627147Y253392D01*
X627023Y253394D01*
X626900Y253404D01*
X626849Y253397D01*
X626798Y253397D01*
X626558Y253353D01*
X625834Y253159D01*
X622874Y253159D01*
X622874Y265599D01*
X622871Y265625D01*
X622873Y265651D01*
X622851Y265798D01*
X622834Y265945D01*
X622826Y265970D01*
X622822Y265996D01*
X622767Y266133D01*
X622717Y266273D01*
X622703Y266295D01*
X622693Y266320D01*
X622608Y266441D01*
X622528Y266566D01*
X622509Y266584D01*
X622494Y266606D01*
X622393Y266697D01*
X622457Y266768D01*
X622560Y266875D01*
X622574Y266898D01*
X622591Y266917D01*
X622663Y267047D01*
X622739Y267174D01*
X622747Y267199D01*
X622760Y267222D01*
X622800Y267365D01*
X622845Y267506D01*
X622847Y267532D01*
X622855Y267557D01*
X622874Y267801D01*
X622874Y280241D01*
X625835Y280241D01*
X626481Y280068D01*
X627060Y279733D01*
X627533Y279260D01*
X627928Y278577D01*
X627955Y278506D01*
X627956Y278505D01*
X627957Y278503D01*
X628054Y278364D01*
X628154Y278220D01*
X628155Y278219D01*
X628156Y278217D01*
X628281Y278104D01*
X628412Y277986D01*
X628413Y277985D01*
X628415Y277984D01*
X628567Y277900D01*
X628716Y277817D01*
X628718Y277816D01*
X628720Y277815D01*
X628889Y277767D01*
X629052Y277721D01*
X629053Y277721D01*
X629055Y277720D01*
X629299Y277701D01*
X640701Y277701D01*
X640703Y277701D01*
X640705Y277701D01*
X640879Y277721D01*
X641047Y277741D01*
X641049Y277741D01*
X641051Y277741D01*
X641211Y277799D01*
X641375Y277858D01*
X641377Y277859D01*
X641379Y277860D01*
X641523Y277953D01*
X641668Y278047D01*
X641669Y278048D01*
X641671Y278049D01*
X641790Y278173D01*
X641910Y278298D01*
X641911Y278299D01*
X641912Y278301D01*
X642001Y278449D01*
X642089Y278597D01*
X642090Y278599D01*
X642091Y278600D01*
X642098Y278622D01*
X642467Y279260D01*
X642940Y279733D01*
X643519Y280068D01*
X644165Y280241D01*
X647126Y280241D01*
X647126Y267801D01*
X647129Y267775D01*
X647127Y267749D01*
X647149Y267602D01*
X647166Y267455D01*
X647174Y267430D01*
X647178Y267404D01*
X647233Y267267D01*
X647283Y267127D01*
X647297Y267105D01*
X647307Y267080D01*
X647392Y266959D01*
X647472Y266834D01*
X647491Y266816D01*
X647506Y266794D01*
X647607Y266703D01*
X647543Y266632D01*
X647440Y266525D01*
X647426Y266502D01*
X647409Y266483D01*
X647337Y266353D01*
X647261Y266226D01*
X647253Y266201D01*
X647240Y266178D01*
X647200Y266035D01*
X647155Y265894D01*
X647152Y265868D01*
X647145Y265843D01*
X647126Y265599D01*
X647126Y253159D01*
X644166Y253159D01*
X643442Y253353D01*
X643392Y253361D01*
X643343Y253376D01*
X643220Y253386D01*
X643098Y253404D01*
X643047Y253400D01*
X642996Y253404D01*
X642873Y253386D01*
X642750Y253376D01*
X642702Y253360D01*
X642651Y253352D01*
X642536Y253307D01*
X642418Y253269D01*
X642375Y253243D01*
X642327Y253224D01*
X642226Y253153D01*
X642120Y253089D01*
X642083Y253054D01*
X642041Y253025D01*
X641958Y252933D01*
X641869Y252847D01*
X641842Y252804D01*
X641808Y252766D01*
X641748Y252657D01*
X641681Y252554D01*
X641664Y252506D01*
X641639Y252461D01*
X641605Y252342D01*
X641564Y252225D01*
X641558Y252175D01*
X641544Y252126D01*
X641525Y251882D01*
X641525Y245568D01*
X640632Y244675D01*
X639572Y244675D01*
X639546Y244672D01*
X639520Y244674D01*
X639373Y244652D01*
X639226Y244635D01*
X639201Y244627D01*
X639175Y244623D01*
X639037Y244568D01*
X638898Y244518D01*
X638876Y244504D01*
X638851Y244494D01*
X638730Y244409D01*
X638605Y244329D01*
X638587Y244310D01*
X638565Y244295D01*
X638466Y244185D01*
X638363Y244078D01*
X638349Y244056D01*
X638332Y244036D01*
X638260Y243906D01*
X638184Y243779D01*
X638176Y243754D01*
X638163Y243731D01*
X638123Y243588D01*
X638078Y243447D01*
X638076Y243421D01*
X638068Y243396D01*
X638049Y243152D01*
X638049Y231337D01*
X635817Y229105D01*
X623321Y216609D01*
X623242Y216510D01*
X623158Y216416D01*
X623134Y216374D01*
X623104Y216336D01*
X623050Y216222D01*
X622989Y216111D01*
X622976Y216065D01*
X622955Y216021D01*
X622929Y215898D01*
X622894Y215776D01*
X622889Y215715D01*
X622882Y215681D01*
X622883Y215633D01*
X622875Y215532D01*
X622875Y203318D01*
X621982Y202425D01*
X610218Y202425D01*
G37*
%LPD*%
%LPC*%
G36*
X530218Y202425D02*
X530218Y202425D01*
X529325Y203318D01*
X529325Y224082D01*
X530218Y224975D01*
X531528Y224975D01*
X531554Y224978D01*
X531580Y224976D01*
X531727Y224998D01*
X531874Y225015D01*
X531899Y225023D01*
X531925Y225027D01*
X532063Y225082D01*
X532202Y225132D01*
X532224Y225146D01*
X532249Y225156D01*
X532370Y225241D01*
X532495Y225321D01*
X532513Y225340D01*
X532535Y225355D01*
X532634Y225465D01*
X532737Y225572D01*
X532751Y225594D01*
X532768Y225614D01*
X532840Y225744D01*
X532916Y225871D01*
X532924Y225896D01*
X532937Y225919D01*
X532977Y226062D01*
X533022Y226203D01*
X533024Y226229D01*
X533032Y226254D01*
X533051Y226498D01*
X533051Y232563D01*
X555305Y254817D01*
X555384Y254916D01*
X555468Y255010D01*
X555492Y255052D01*
X555522Y255090D01*
X555576Y255204D01*
X555637Y255315D01*
X555650Y255361D01*
X555671Y255405D01*
X555697Y255528D01*
X555732Y255650D01*
X555737Y255711D01*
X555744Y255746D01*
X555743Y255794D01*
X555751Y255894D01*
X555751Y264243D01*
X555743Y264318D01*
X555744Y264395D01*
X555723Y264491D01*
X555711Y264589D01*
X555686Y264661D01*
X555669Y264735D01*
X555627Y264824D01*
X555594Y264917D01*
X555552Y264981D01*
X555520Y265050D01*
X555458Y265127D01*
X555405Y265210D01*
X555350Y265263D01*
X555302Y265323D01*
X555225Y265383D01*
X555154Y265452D01*
X555089Y265491D01*
X555029Y265538D01*
X554895Y265607D01*
X554855Y265631D01*
X554837Y265636D01*
X554811Y265650D01*
X554195Y265905D01*
X551909Y268191D01*
X550671Y271179D01*
X550671Y287621D01*
X551909Y290609D01*
X554195Y292895D01*
X557183Y294133D01*
X560417Y294133D01*
X563405Y292895D01*
X565691Y290609D01*
X566929Y287621D01*
X566929Y271179D01*
X565691Y268191D01*
X563405Y265905D01*
X562789Y265650D01*
X562722Y265613D01*
X562651Y265584D01*
X562571Y265528D01*
X562484Y265481D01*
X562428Y265429D01*
X562365Y265386D01*
X562299Y265313D01*
X562226Y265246D01*
X562183Y265183D01*
X562132Y265127D01*
X562084Y265041D01*
X562028Y264960D01*
X562000Y264889D01*
X561963Y264822D01*
X561936Y264727D01*
X561900Y264635D01*
X561889Y264560D01*
X561868Y264486D01*
X561856Y264337D01*
X561849Y264291D01*
X561851Y264272D01*
X561849Y264243D01*
X561849Y252737D01*
X539595Y230483D01*
X539516Y230384D01*
X539432Y230290D01*
X539408Y230248D01*
X539378Y230210D01*
X539324Y230096D01*
X539263Y229985D01*
X539250Y229939D01*
X539229Y229895D01*
X539203Y229772D01*
X539168Y229650D01*
X539163Y229589D01*
X539156Y229554D01*
X539157Y229506D01*
X539149Y229406D01*
X539149Y226498D01*
X539152Y226472D01*
X539150Y226446D01*
X539172Y226299D01*
X539189Y226152D01*
X539197Y226127D01*
X539201Y226101D01*
X539256Y225963D01*
X539306Y225824D01*
X539320Y225802D01*
X539330Y225777D01*
X539415Y225656D01*
X539495Y225531D01*
X539514Y225513D01*
X539529Y225491D01*
X539639Y225392D01*
X539746Y225289D01*
X539768Y225275D01*
X539788Y225258D01*
X539918Y225186D01*
X540045Y225110D01*
X540070Y225102D01*
X540093Y225089D01*
X540236Y225049D01*
X540377Y225004D01*
X540403Y225002D01*
X540428Y224994D01*
X540672Y224975D01*
X541982Y224975D01*
X542875Y224082D01*
X542875Y203318D01*
X541982Y202425D01*
X530218Y202425D01*
G37*
%LPD*%
%LPC*%
G36*
X510218Y202425D02*
X510218Y202425D01*
X509325Y203318D01*
X509325Y224082D01*
X510218Y224975D01*
X511528Y224975D01*
X511554Y224978D01*
X511580Y224976D01*
X511727Y224998D01*
X511874Y225015D01*
X511899Y225023D01*
X511925Y225027D01*
X512063Y225082D01*
X512202Y225132D01*
X512224Y225146D01*
X512249Y225156D01*
X512370Y225241D01*
X512495Y225321D01*
X512513Y225340D01*
X512535Y225355D01*
X512634Y225465D01*
X512737Y225572D01*
X512751Y225594D01*
X512768Y225614D01*
X512840Y225744D01*
X512916Y225871D01*
X512924Y225896D01*
X512937Y225919D01*
X512977Y226062D01*
X513022Y226203D01*
X513024Y226229D01*
X513032Y226254D01*
X513051Y226498D01*
X513051Y237963D01*
X529905Y254817D01*
X529984Y254916D01*
X530068Y255010D01*
X530092Y255052D01*
X530122Y255090D01*
X530176Y255204D01*
X530237Y255315D01*
X530250Y255361D01*
X530271Y255405D01*
X530297Y255528D01*
X530332Y255650D01*
X530337Y255711D01*
X530344Y255746D01*
X530343Y255794D01*
X530351Y255894D01*
X530351Y264243D01*
X530343Y264318D01*
X530344Y264395D01*
X530323Y264491D01*
X530311Y264589D01*
X530286Y264661D01*
X530269Y264735D01*
X530227Y264824D01*
X530194Y264917D01*
X530152Y264981D01*
X530120Y265050D01*
X530058Y265127D01*
X530005Y265210D01*
X529950Y265263D01*
X529902Y265323D01*
X529825Y265383D01*
X529754Y265452D01*
X529689Y265491D01*
X529629Y265538D01*
X529495Y265607D01*
X529455Y265631D01*
X529437Y265636D01*
X529411Y265650D01*
X528795Y265905D01*
X526509Y268191D01*
X525271Y271179D01*
X525271Y287621D01*
X526509Y290609D01*
X528795Y292895D01*
X531783Y294133D01*
X535017Y294133D01*
X538005Y292895D01*
X540291Y290609D01*
X541529Y287621D01*
X541529Y271179D01*
X540291Y268191D01*
X538005Y265905D01*
X537389Y265650D01*
X537322Y265613D01*
X537251Y265584D01*
X537171Y265528D01*
X537084Y265481D01*
X537028Y265429D01*
X536965Y265386D01*
X536899Y265313D01*
X536826Y265246D01*
X536783Y265183D01*
X536732Y265127D01*
X536684Y265041D01*
X536628Y264960D01*
X536600Y264889D01*
X536563Y264822D01*
X536536Y264727D01*
X536500Y264635D01*
X536489Y264560D01*
X536468Y264486D01*
X536456Y264337D01*
X536449Y264291D01*
X536451Y264272D01*
X536449Y264243D01*
X536449Y252737D01*
X519595Y235883D01*
X519516Y235784D01*
X519432Y235690D01*
X519408Y235648D01*
X519378Y235610D01*
X519324Y235496D01*
X519263Y235385D01*
X519250Y235339D01*
X519229Y235295D01*
X519203Y235172D01*
X519168Y235050D01*
X519163Y234989D01*
X519156Y234954D01*
X519157Y234906D01*
X519149Y234806D01*
X519149Y226498D01*
X519152Y226472D01*
X519150Y226446D01*
X519172Y226299D01*
X519189Y226152D01*
X519197Y226127D01*
X519201Y226101D01*
X519256Y225963D01*
X519306Y225824D01*
X519320Y225802D01*
X519330Y225777D01*
X519415Y225656D01*
X519495Y225531D01*
X519514Y225513D01*
X519529Y225491D01*
X519639Y225392D01*
X519746Y225289D01*
X519768Y225275D01*
X519788Y225258D01*
X519918Y225186D01*
X520045Y225110D01*
X520070Y225102D01*
X520093Y225089D01*
X520236Y225049D01*
X520377Y225004D01*
X520403Y225002D01*
X520428Y224994D01*
X520672Y224975D01*
X521982Y224975D01*
X522875Y224082D01*
X522875Y203318D01*
X521982Y202425D01*
X510218Y202425D01*
G37*
%LPD*%
%LPC*%
G36*
X490218Y202425D02*
X490218Y202425D01*
X489325Y203318D01*
X489325Y224082D01*
X490218Y224975D01*
X490728Y224975D01*
X490754Y224978D01*
X490780Y224976D01*
X490927Y224998D01*
X491074Y225015D01*
X491099Y225023D01*
X491125Y225027D01*
X491263Y225082D01*
X491402Y225132D01*
X491424Y225146D01*
X491449Y225156D01*
X491570Y225241D01*
X491695Y225321D01*
X491713Y225340D01*
X491735Y225355D01*
X491834Y225465D01*
X491937Y225572D01*
X491951Y225594D01*
X491968Y225614D01*
X492040Y225744D01*
X492116Y225871D01*
X492124Y225896D01*
X492137Y225919D01*
X492177Y226062D01*
X492222Y226203D01*
X492224Y226229D01*
X492232Y226254D01*
X492251Y226498D01*
X492251Y242563D01*
X504505Y254817D01*
X504584Y254916D01*
X504668Y255010D01*
X504692Y255052D01*
X504722Y255090D01*
X504776Y255204D01*
X504837Y255315D01*
X504850Y255361D01*
X504871Y255405D01*
X504897Y255528D01*
X504932Y255650D01*
X504937Y255711D01*
X504944Y255746D01*
X504943Y255794D01*
X504951Y255894D01*
X504951Y264243D01*
X504943Y264318D01*
X504944Y264395D01*
X504923Y264491D01*
X504911Y264589D01*
X504886Y264661D01*
X504869Y264735D01*
X504827Y264824D01*
X504794Y264917D01*
X504752Y264981D01*
X504720Y265050D01*
X504658Y265127D01*
X504605Y265210D01*
X504550Y265263D01*
X504502Y265323D01*
X504425Y265383D01*
X504354Y265452D01*
X504289Y265491D01*
X504229Y265538D01*
X504095Y265607D01*
X504055Y265631D01*
X504037Y265636D01*
X504011Y265650D01*
X503395Y265905D01*
X501109Y268191D01*
X499871Y271179D01*
X499871Y287621D01*
X501109Y290609D01*
X503395Y292895D01*
X506383Y294133D01*
X509617Y294133D01*
X512605Y292895D01*
X514891Y290609D01*
X516129Y287621D01*
X516129Y271179D01*
X514891Y268191D01*
X512605Y265905D01*
X511989Y265650D01*
X511922Y265613D01*
X511851Y265584D01*
X511771Y265528D01*
X511684Y265481D01*
X511628Y265429D01*
X511565Y265386D01*
X511499Y265313D01*
X511426Y265246D01*
X511383Y265183D01*
X511332Y265127D01*
X511284Y265041D01*
X511228Y264960D01*
X511200Y264889D01*
X511163Y264822D01*
X511136Y264727D01*
X511100Y264635D01*
X511089Y264560D01*
X511068Y264486D01*
X511056Y264337D01*
X511049Y264291D01*
X511051Y264272D01*
X511049Y264243D01*
X511049Y252737D01*
X498795Y240483D01*
X498716Y240384D01*
X498632Y240290D01*
X498608Y240248D01*
X498578Y240210D01*
X498524Y240096D01*
X498463Y239985D01*
X498450Y239939D01*
X498429Y239895D01*
X498403Y239772D01*
X498368Y239650D01*
X498363Y239589D01*
X498356Y239554D01*
X498357Y239506D01*
X498349Y239406D01*
X498349Y226498D01*
X498352Y226472D01*
X498350Y226446D01*
X498372Y226299D01*
X498389Y226152D01*
X498397Y226127D01*
X498401Y226101D01*
X498456Y225963D01*
X498506Y225824D01*
X498520Y225802D01*
X498530Y225777D01*
X498615Y225656D01*
X498695Y225531D01*
X498714Y225513D01*
X498729Y225491D01*
X498839Y225392D01*
X498946Y225289D01*
X498968Y225275D01*
X498988Y225258D01*
X499118Y225186D01*
X499245Y225110D01*
X499270Y225102D01*
X499293Y225089D01*
X499436Y225049D01*
X499577Y225004D01*
X499603Y225002D01*
X499628Y224994D01*
X499872Y224975D01*
X501982Y224975D01*
X502875Y224082D01*
X502875Y203318D01*
X501982Y202425D01*
X490218Y202425D01*
G37*
%LPD*%
%LPC*%
G36*
X470218Y202425D02*
X470218Y202425D01*
X469325Y203318D01*
X469325Y224082D01*
X470218Y224975D01*
X471528Y224975D01*
X471554Y224978D01*
X471580Y224976D01*
X471727Y224998D01*
X471874Y225015D01*
X471899Y225023D01*
X471925Y225027D01*
X472063Y225082D01*
X472202Y225132D01*
X472224Y225146D01*
X472249Y225156D01*
X472370Y225241D01*
X472495Y225321D01*
X472513Y225340D01*
X472535Y225355D01*
X472634Y225465D01*
X472737Y225572D01*
X472751Y225594D01*
X472768Y225614D01*
X472840Y225744D01*
X472916Y225871D01*
X472924Y225896D01*
X472937Y225919D01*
X472977Y226062D01*
X473022Y226203D01*
X473024Y226229D01*
X473032Y226254D01*
X473051Y226498D01*
X473051Y248763D01*
X479105Y254817D01*
X479184Y254916D01*
X479268Y255010D01*
X479292Y255052D01*
X479322Y255090D01*
X479376Y255204D01*
X479437Y255315D01*
X479450Y255361D01*
X479471Y255405D01*
X479497Y255528D01*
X479532Y255650D01*
X479537Y255711D01*
X479544Y255746D01*
X479543Y255794D01*
X479551Y255894D01*
X479551Y264243D01*
X479543Y264318D01*
X479544Y264395D01*
X479523Y264491D01*
X479511Y264589D01*
X479486Y264661D01*
X479469Y264735D01*
X479427Y264824D01*
X479394Y264917D01*
X479352Y264981D01*
X479320Y265050D01*
X479258Y265127D01*
X479205Y265210D01*
X479150Y265263D01*
X479102Y265323D01*
X479025Y265383D01*
X478954Y265452D01*
X478889Y265491D01*
X478829Y265538D01*
X478695Y265607D01*
X478655Y265631D01*
X478637Y265636D01*
X478611Y265650D01*
X477995Y265905D01*
X475709Y268191D01*
X474471Y271179D01*
X474471Y287621D01*
X475709Y290609D01*
X477995Y292895D01*
X480983Y294133D01*
X484217Y294133D01*
X487205Y292895D01*
X489491Y290609D01*
X490729Y287621D01*
X490729Y271179D01*
X489491Y268191D01*
X487205Y265905D01*
X486589Y265650D01*
X486522Y265613D01*
X486451Y265584D01*
X486371Y265528D01*
X486284Y265481D01*
X486228Y265429D01*
X486165Y265386D01*
X486099Y265313D01*
X486026Y265246D01*
X485983Y265183D01*
X485932Y265127D01*
X485884Y265041D01*
X485828Y264960D01*
X485800Y264889D01*
X485763Y264822D01*
X485736Y264727D01*
X485700Y264635D01*
X485689Y264560D01*
X485668Y264486D01*
X485656Y264337D01*
X485649Y264291D01*
X485651Y264272D01*
X485649Y264243D01*
X485649Y252737D01*
X479595Y246683D01*
X479516Y246584D01*
X479432Y246490D01*
X479408Y246448D01*
X479378Y246410D01*
X479324Y246296D01*
X479263Y246185D01*
X479250Y246139D01*
X479229Y246095D01*
X479203Y245972D01*
X479168Y245850D01*
X479163Y245789D01*
X479156Y245754D01*
X479157Y245706D01*
X479149Y245606D01*
X479149Y226498D01*
X479152Y226472D01*
X479150Y226446D01*
X479172Y226299D01*
X479189Y226152D01*
X479197Y226127D01*
X479201Y226101D01*
X479256Y225963D01*
X479306Y225824D01*
X479320Y225802D01*
X479330Y225777D01*
X479415Y225656D01*
X479495Y225531D01*
X479514Y225513D01*
X479529Y225491D01*
X479639Y225392D01*
X479746Y225289D01*
X479768Y225275D01*
X479788Y225258D01*
X479918Y225186D01*
X480045Y225110D01*
X480070Y225102D01*
X480093Y225089D01*
X480236Y225049D01*
X480377Y225004D01*
X480403Y225002D01*
X480428Y224994D01*
X480672Y224975D01*
X481982Y224975D01*
X482875Y224082D01*
X482875Y203318D01*
X481982Y202425D01*
X470218Y202425D01*
G37*
%LPD*%
%LPC*%
G36*
X480983Y10667D02*
X480983Y10667D01*
X477995Y11905D01*
X475709Y14191D01*
X474471Y17179D01*
X474471Y33621D01*
X475709Y36609D01*
X477995Y38895D01*
X479573Y39549D01*
X479575Y39550D01*
X479577Y39550D01*
X479725Y39633D01*
X479878Y39718D01*
X479879Y39719D01*
X479881Y39720D01*
X480067Y39879D01*
X481783Y41595D01*
X492013Y51825D01*
X492076Y51903D01*
X492146Y51976D01*
X492184Y52040D01*
X492230Y52098D01*
X492273Y52189D01*
X492324Y52275D01*
X492347Y52346D01*
X492379Y52413D01*
X492400Y52511D01*
X492431Y52607D01*
X492437Y52681D01*
X492452Y52754D01*
X492451Y52854D01*
X492459Y52954D01*
X492448Y53028D01*
X492446Y53102D01*
X492422Y53199D01*
X492407Y53299D01*
X492379Y53368D01*
X492361Y53440D01*
X492315Y53530D01*
X492278Y53623D01*
X492236Y53684D01*
X492202Y53750D01*
X492136Y53827D01*
X492079Y53909D01*
X492024Y53959D01*
X491976Y54015D01*
X491895Y54075D01*
X491820Y54142D01*
X491755Y54178D01*
X491696Y54223D01*
X491603Y54262D01*
X491515Y54311D01*
X491444Y54331D01*
X491376Y54361D01*
X491277Y54378D01*
X491180Y54406D01*
X491080Y54414D01*
X491033Y54422D01*
X490997Y54420D01*
X490936Y54425D01*
X490218Y54425D01*
X489325Y55318D01*
X489325Y76082D01*
X490218Y76975D01*
X501982Y76975D01*
X502875Y76082D01*
X502875Y55318D01*
X501982Y54425D01*
X500672Y54425D01*
X500646Y54422D01*
X500620Y54424D01*
X500473Y54402D01*
X500326Y54385D01*
X500301Y54377D01*
X500275Y54373D01*
X500137Y54318D01*
X499998Y54268D01*
X499976Y54254D01*
X499951Y54244D01*
X499830Y54159D01*
X499705Y54079D01*
X499687Y54060D01*
X499665Y54045D01*
X499566Y53935D01*
X499463Y53828D01*
X499449Y53806D01*
X499432Y53786D01*
X499360Y53656D01*
X499284Y53529D01*
X499276Y53504D01*
X499263Y53481D01*
X499223Y53338D01*
X499178Y53197D01*
X499176Y53171D01*
X499168Y53146D01*
X499149Y52902D01*
X499149Y50337D01*
X488533Y39721D01*
X488516Y39701D01*
X488496Y39684D01*
X488408Y39564D01*
X488316Y39448D01*
X488305Y39425D01*
X488289Y39403D01*
X488231Y39267D01*
X488167Y39133D01*
X488162Y39107D01*
X488151Y39083D01*
X488125Y38937D01*
X488094Y38792D01*
X488094Y38766D01*
X488090Y38740D01*
X488097Y38592D01*
X488100Y38444D01*
X488106Y38419D01*
X488108Y38392D01*
X488149Y38250D01*
X488185Y38106D01*
X488197Y38083D01*
X488204Y38057D01*
X488276Y37928D01*
X488344Y37796D01*
X488361Y37776D01*
X488374Y37753D01*
X488533Y37567D01*
X489491Y36609D01*
X490729Y33621D01*
X490729Y17179D01*
X489491Y14191D01*
X487205Y11905D01*
X484217Y10667D01*
X480983Y10667D01*
G37*
%LPD*%
%LPC*%
G36*
X582583Y10667D02*
X582583Y10667D01*
X579595Y11905D01*
X577309Y14191D01*
X576071Y17179D01*
X576071Y33621D01*
X577309Y36609D01*
X578267Y37567D01*
X578284Y37588D01*
X578304Y37605D01*
X578391Y37724D01*
X578484Y37840D01*
X578495Y37864D01*
X578511Y37885D01*
X578569Y38021D01*
X578633Y38155D01*
X578638Y38181D01*
X578649Y38205D01*
X578675Y38351D01*
X578706Y38496D01*
X578706Y38522D01*
X578710Y38548D01*
X578703Y38696D01*
X578700Y38844D01*
X578694Y38870D01*
X578692Y38896D01*
X578651Y39038D01*
X578615Y39182D01*
X578603Y39206D01*
X578596Y39231D01*
X578523Y39360D01*
X578456Y39492D01*
X578439Y39512D01*
X578426Y39535D01*
X578267Y39721D01*
X573051Y44937D01*
X573051Y52902D01*
X573048Y52928D01*
X573050Y52954D01*
X573028Y53101D01*
X573011Y53248D01*
X573003Y53273D01*
X572999Y53299D01*
X572944Y53437D01*
X572894Y53576D01*
X572880Y53598D01*
X572870Y53623D01*
X572785Y53744D01*
X572705Y53869D01*
X572686Y53887D01*
X572671Y53909D01*
X572561Y54008D01*
X572454Y54111D01*
X572432Y54125D01*
X572412Y54142D01*
X572283Y54214D01*
X572155Y54290D01*
X572130Y54298D01*
X572107Y54311D01*
X571964Y54351D01*
X571823Y54396D01*
X571797Y54398D01*
X571772Y54406D01*
X571528Y54425D01*
X570218Y54425D01*
X569325Y55318D01*
X569325Y76082D01*
X570218Y76975D01*
X581982Y76975D01*
X582875Y76082D01*
X582875Y55318D01*
X581982Y54425D01*
X580672Y54425D01*
X580646Y54422D01*
X580620Y54424D01*
X580473Y54402D01*
X580326Y54385D01*
X580301Y54377D01*
X580275Y54373D01*
X580137Y54318D01*
X579998Y54268D01*
X579976Y54254D01*
X579951Y54244D01*
X579830Y54159D01*
X579705Y54079D01*
X579687Y54060D01*
X579665Y54045D01*
X579566Y53935D01*
X579463Y53828D01*
X579449Y53806D01*
X579432Y53786D01*
X579360Y53656D01*
X579284Y53529D01*
X579276Y53504D01*
X579263Y53481D01*
X579223Y53338D01*
X579178Y53197D01*
X579176Y53171D01*
X579168Y53146D01*
X579149Y52902D01*
X579149Y48094D01*
X579163Y47968D01*
X579170Y47842D01*
X579183Y47796D01*
X579189Y47748D01*
X579231Y47629D01*
X579266Y47507D01*
X579290Y47465D01*
X579306Y47419D01*
X579375Y47313D01*
X579436Y47203D01*
X579476Y47157D01*
X579495Y47127D01*
X579530Y47093D01*
X579595Y47017D01*
X586733Y39879D01*
X586734Y39878D01*
X586736Y39876D01*
X586875Y39766D01*
X587006Y39662D01*
X587007Y39661D01*
X587009Y39660D01*
X587227Y39549D01*
X588805Y38895D01*
X591091Y36609D01*
X592329Y33621D01*
X592329Y17179D01*
X591091Y14191D01*
X588805Y11905D01*
X585817Y10667D01*
X582583Y10667D01*
G37*
%LPD*%
%LPC*%
G36*
X506383Y10667D02*
X506383Y10667D01*
X503395Y11905D01*
X501109Y14191D01*
X499871Y17179D01*
X499871Y33621D01*
X501109Y36609D01*
X503395Y38895D01*
X504011Y39150D01*
X504078Y39187D01*
X504149Y39215D01*
X504229Y39272D01*
X504316Y39319D01*
X504372Y39371D01*
X504435Y39414D01*
X504501Y39487D01*
X504574Y39554D01*
X504617Y39616D01*
X504668Y39673D01*
X504716Y39759D01*
X504772Y39840D01*
X504800Y39911D01*
X504837Y39978D01*
X504864Y40073D01*
X504900Y40164D01*
X504911Y40240D01*
X504932Y40314D01*
X504944Y40462D01*
X504951Y40509D01*
X504949Y40528D01*
X504951Y40557D01*
X504951Y52063D01*
X508879Y55991D01*
X508958Y56090D01*
X509042Y56184D01*
X509066Y56226D01*
X509096Y56264D01*
X509150Y56378D01*
X509211Y56489D01*
X509224Y56535D01*
X509245Y56579D01*
X509271Y56702D01*
X509306Y56824D01*
X509311Y56885D01*
X509318Y56920D01*
X509317Y56968D01*
X509325Y57068D01*
X509325Y76082D01*
X510218Y76975D01*
X521982Y76975D01*
X522875Y76082D01*
X522875Y55318D01*
X521982Y54425D01*
X516568Y54425D01*
X516442Y54411D01*
X516316Y54404D01*
X516270Y54391D01*
X516222Y54385D01*
X516103Y54343D01*
X515981Y54308D01*
X515939Y54284D01*
X515893Y54268D01*
X515787Y54199D01*
X515677Y54138D01*
X515631Y54098D01*
X515601Y54079D01*
X515567Y54044D01*
X515491Y53979D01*
X511495Y49983D01*
X511416Y49884D01*
X511332Y49790D01*
X511308Y49748D01*
X511278Y49710D01*
X511224Y49596D01*
X511163Y49485D01*
X511150Y49439D01*
X511129Y49395D01*
X511103Y49272D01*
X511068Y49150D01*
X511063Y49089D01*
X511056Y49054D01*
X511057Y49006D01*
X511049Y48906D01*
X511049Y40557D01*
X511057Y40482D01*
X511056Y40405D01*
X511077Y40309D01*
X511089Y40211D01*
X511114Y40139D01*
X511131Y40065D01*
X511173Y39976D01*
X511206Y39883D01*
X511248Y39819D01*
X511280Y39750D01*
X511342Y39673D01*
X511395Y39590D01*
X511450Y39537D01*
X511498Y39477D01*
X511575Y39417D01*
X511646Y39348D01*
X511711Y39309D01*
X511771Y39262D01*
X511904Y39193D01*
X511945Y39169D01*
X511963Y39163D01*
X511989Y39150D01*
X512605Y38895D01*
X514891Y36609D01*
X516129Y33621D01*
X516129Y17179D01*
X514891Y14191D01*
X512605Y11905D01*
X509617Y10667D01*
X506383Y10667D01*
G37*
%LPD*%
%LPC*%
G36*
X531783Y10667D02*
X531783Y10667D01*
X528795Y11905D01*
X526509Y14191D01*
X525271Y17179D01*
X525271Y33621D01*
X526509Y36609D01*
X528795Y38895D01*
X529411Y39150D01*
X529478Y39187D01*
X529549Y39215D01*
X529629Y39272D01*
X529716Y39319D01*
X529772Y39371D01*
X529835Y39414D01*
X529901Y39487D01*
X529974Y39554D01*
X530017Y39616D01*
X530068Y39673D01*
X530116Y39759D01*
X530172Y39840D01*
X530200Y39911D01*
X530237Y39978D01*
X530264Y40073D01*
X530300Y40164D01*
X530311Y40240D01*
X530332Y40314D01*
X530344Y40462D01*
X530351Y40509D01*
X530349Y40528D01*
X530351Y40557D01*
X530351Y52063D01*
X530389Y52101D01*
X530405Y52121D01*
X530425Y52138D01*
X530514Y52258D01*
X530606Y52374D01*
X530617Y52397D01*
X530632Y52418D01*
X530691Y52555D01*
X530755Y52689D01*
X530760Y52714D01*
X530770Y52738D01*
X530797Y52884D01*
X530828Y53029D01*
X530827Y53055D01*
X530832Y53081D01*
X530824Y53229D01*
X530822Y53378D01*
X530816Y53403D01*
X530814Y53429D01*
X530773Y53572D01*
X530737Y53716D01*
X530725Y53739D01*
X530718Y53764D01*
X530645Y53894D01*
X530577Y54026D01*
X530560Y54046D01*
X530547Y54068D01*
X530389Y54255D01*
X529325Y55318D01*
X529325Y76082D01*
X530218Y76975D01*
X541982Y76975D01*
X542875Y76082D01*
X542875Y55318D01*
X541982Y54425D01*
X540672Y54425D01*
X540646Y54422D01*
X540620Y54424D01*
X540473Y54402D01*
X540326Y54385D01*
X540301Y54377D01*
X540275Y54373D01*
X540137Y54318D01*
X539998Y54268D01*
X539976Y54254D01*
X539951Y54244D01*
X539830Y54159D01*
X539705Y54079D01*
X539687Y54060D01*
X539665Y54045D01*
X539566Y53935D01*
X539463Y53828D01*
X539449Y53806D01*
X539432Y53786D01*
X539360Y53656D01*
X539284Y53529D01*
X539276Y53504D01*
X539263Y53481D01*
X539223Y53338D01*
X539178Y53197D01*
X539176Y53171D01*
X539168Y53146D01*
X539149Y52902D01*
X539149Y52237D01*
X536895Y49983D01*
X536816Y49884D01*
X536732Y49790D01*
X536708Y49748D01*
X536678Y49710D01*
X536624Y49596D01*
X536563Y49485D01*
X536550Y49439D01*
X536529Y49395D01*
X536503Y49272D01*
X536468Y49150D01*
X536463Y49089D01*
X536456Y49054D01*
X536457Y49006D01*
X536449Y48906D01*
X536449Y40557D01*
X536457Y40482D01*
X536456Y40405D01*
X536477Y40309D01*
X536489Y40211D01*
X536514Y40139D01*
X536531Y40065D01*
X536573Y39976D01*
X536606Y39883D01*
X536648Y39819D01*
X536680Y39750D01*
X536742Y39673D01*
X536795Y39590D01*
X536850Y39537D01*
X536898Y39477D01*
X536975Y39417D01*
X537046Y39348D01*
X537111Y39309D01*
X537171Y39262D01*
X537304Y39193D01*
X537345Y39169D01*
X537363Y39163D01*
X537389Y39150D01*
X538005Y38895D01*
X540291Y36609D01*
X541529Y33621D01*
X541529Y17179D01*
X540291Y14191D01*
X538005Y11905D01*
X535017Y10667D01*
X531783Y10667D01*
G37*
%LPD*%
%LPC*%
G36*
X557183Y10667D02*
X557183Y10667D01*
X554195Y11905D01*
X551909Y14191D01*
X550671Y17179D01*
X550671Y33621D01*
X551909Y36609D01*
X554195Y38895D01*
X554811Y39150D01*
X554878Y39187D01*
X554949Y39215D01*
X555029Y39272D01*
X555116Y39319D01*
X555172Y39371D01*
X555235Y39414D01*
X555301Y39487D01*
X555374Y39554D01*
X555417Y39616D01*
X555468Y39673D01*
X555516Y39759D01*
X555572Y39840D01*
X555600Y39911D01*
X555637Y39978D01*
X555664Y40073D01*
X555700Y40164D01*
X555711Y40240D01*
X555732Y40314D01*
X555744Y40462D01*
X555751Y40509D01*
X555749Y40528D01*
X555751Y40557D01*
X555751Y52902D01*
X555748Y52928D01*
X555750Y52954D01*
X555728Y53101D01*
X555711Y53248D01*
X555703Y53273D01*
X555699Y53299D01*
X555644Y53437D01*
X555594Y53576D01*
X555580Y53598D01*
X555570Y53623D01*
X555485Y53744D01*
X555405Y53869D01*
X555386Y53887D01*
X555371Y53909D01*
X555261Y54008D01*
X555154Y54111D01*
X555132Y54125D01*
X555112Y54142D01*
X554983Y54214D01*
X554855Y54290D01*
X554830Y54298D01*
X554807Y54311D01*
X554664Y54351D01*
X554523Y54396D01*
X554497Y54398D01*
X554472Y54406D01*
X554228Y54425D01*
X550218Y54425D01*
X549325Y55318D01*
X549325Y76082D01*
X550218Y76975D01*
X561982Y76975D01*
X562875Y76082D01*
X562875Y55318D01*
X562295Y54739D01*
X562216Y54639D01*
X562132Y54546D01*
X562108Y54504D01*
X562078Y54466D01*
X562024Y54351D01*
X561963Y54241D01*
X561950Y54194D01*
X561929Y54151D01*
X561903Y54027D01*
X561868Y53905D01*
X561863Y53845D01*
X561856Y53810D01*
X561857Y53762D01*
X561849Y53662D01*
X561849Y40557D01*
X561857Y40482D01*
X561856Y40405D01*
X561877Y40309D01*
X561889Y40211D01*
X561914Y40139D01*
X561931Y40065D01*
X561973Y39976D01*
X562006Y39883D01*
X562048Y39819D01*
X562080Y39750D01*
X562142Y39673D01*
X562195Y39590D01*
X562250Y39537D01*
X562298Y39477D01*
X562375Y39417D01*
X562446Y39348D01*
X562511Y39309D01*
X562571Y39262D01*
X562704Y39193D01*
X562745Y39169D01*
X562763Y39163D01*
X562789Y39150D01*
X563405Y38895D01*
X565691Y36609D01*
X566929Y33621D01*
X566929Y17179D01*
X565691Y14191D01*
X563405Y11905D01*
X560417Y10667D01*
X557183Y10667D01*
G37*
%LPD*%
%LPC*%
G36*
X550218Y202425D02*
X550218Y202425D01*
X549325Y203318D01*
X549325Y224082D01*
X550218Y224975D01*
X561982Y224975D01*
X562875Y224082D01*
X562875Y203318D01*
X561982Y202425D01*
X550218Y202425D01*
G37*
%LPD*%
%LPC*%
G36*
X590218Y54425D02*
X590218Y54425D01*
X589325Y55318D01*
X589325Y76082D01*
X590218Y76975D01*
X601982Y76975D01*
X602875Y76082D01*
X602875Y55318D01*
X601982Y54425D01*
X590218Y54425D01*
G37*
%LPD*%
%LPC*%
G36*
X570218Y202425D02*
X570218Y202425D01*
X569325Y203318D01*
X569325Y224082D01*
X570218Y224975D01*
X581982Y224975D01*
X582875Y224082D01*
X582875Y203318D01*
X581982Y202425D01*
X570218Y202425D01*
G37*
%LPD*%
%LPC*%
G36*
X586231Y281431D02*
X586231Y281431D01*
X586231Y294941D01*
X586342Y294924D01*
X587710Y294479D01*
X588993Y293825D01*
X590157Y292979D01*
X591175Y291961D01*
X592021Y290797D01*
X592675Y289514D01*
X593120Y288146D01*
X593345Y286724D01*
X593345Y281431D01*
X586231Y281431D01*
G37*
%LPD*%
%LPC*%
G36*
X586231Y277369D02*
X586231Y277369D01*
X593345Y277369D01*
X593345Y272076D01*
X593120Y270654D01*
X592675Y269286D01*
X592021Y268003D01*
X591175Y266839D01*
X590157Y265821D01*
X588993Y264975D01*
X587710Y264321D01*
X586342Y263876D01*
X586231Y263859D01*
X586231Y277369D01*
G37*
%LPD*%
%LPC*%
G36*
X575055Y281431D02*
X575055Y281431D01*
X575055Y286724D01*
X575280Y288146D01*
X575725Y289514D01*
X576379Y290797D01*
X577225Y291961D01*
X578243Y292979D01*
X579407Y293825D01*
X580690Y294479D01*
X582058Y294924D01*
X582169Y294941D01*
X582169Y281431D01*
X575055Y281431D01*
G37*
%LPD*%
%LPC*%
G36*
X582058Y263876D02*
X582058Y263876D01*
X580690Y264321D01*
X579407Y264975D01*
X578243Y265821D01*
X577225Y266839D01*
X576379Y268003D01*
X575725Y269286D01*
X575280Y270654D01*
X575055Y272076D01*
X575055Y277369D01*
X582169Y277369D01*
X582169Y263859D01*
X582058Y263876D01*
G37*
%LPD*%
%LPC*%
G36*
X652374Y269324D02*
X652374Y269324D01*
X652374Y280241D01*
X655335Y280241D01*
X655981Y280068D01*
X656560Y279733D01*
X657033Y279260D01*
X657368Y278681D01*
X657541Y278035D01*
X657541Y269324D01*
X652374Y269324D01*
G37*
%LPD*%
%LPC*%
G36*
X652374Y253159D02*
X652374Y253159D01*
X652374Y264076D01*
X657541Y264076D01*
X657541Y255365D01*
X657368Y254719D01*
X657033Y254140D01*
X656560Y253667D01*
X655981Y253332D01*
X655335Y253159D01*
X652374Y253159D01*
G37*
%LPD*%
%LPC*%
G36*
X612459Y269324D02*
X612459Y269324D01*
X612459Y278035D01*
X612632Y278681D01*
X612967Y279260D01*
X613440Y279733D01*
X614019Y280068D01*
X614665Y280241D01*
X617626Y280241D01*
X617626Y269324D01*
X612459Y269324D01*
G37*
%LPD*%
%LPC*%
G36*
X614665Y253159D02*
X614665Y253159D01*
X614019Y253332D01*
X613440Y253667D01*
X612967Y254140D01*
X612632Y254719D01*
X612459Y255365D01*
X612459Y264076D01*
X617626Y264076D01*
X617626Y253159D01*
X614665Y253159D01*
G37*
%LPD*%
%LPC*%
G36*
X618724Y68324D02*
X618724Y68324D01*
X618724Y77991D01*
X621685Y77991D01*
X622331Y77818D01*
X622910Y77483D01*
X623383Y77010D01*
X623718Y76431D01*
X623891Y75785D01*
X623891Y68324D01*
X618724Y68324D01*
G37*
%LPD*%
%LPC*%
G36*
X478724Y68324D02*
X478724Y68324D01*
X478724Y77991D01*
X481685Y77991D01*
X482331Y77818D01*
X482910Y77483D01*
X483383Y77010D01*
X483718Y76431D01*
X483891Y75785D01*
X483891Y68324D01*
X478724Y68324D01*
G37*
%LPD*%
%LPC*%
G36*
X598724Y216324D02*
X598724Y216324D01*
X598724Y225991D01*
X601685Y225991D01*
X602331Y225818D01*
X602910Y225483D01*
X603383Y225010D01*
X603718Y224431D01*
X603891Y223785D01*
X603891Y216324D01*
X598724Y216324D01*
G37*
%LPD*%
%LPC*%
G36*
X598724Y201409D02*
X598724Y201409D01*
X598724Y211076D01*
X603891Y211076D01*
X603891Y203615D01*
X603718Y202969D01*
X603383Y202390D01*
X602910Y201917D01*
X602331Y201582D01*
X601685Y201409D01*
X598724Y201409D01*
G37*
%LPD*%
%LPC*%
G36*
X478724Y53409D02*
X478724Y53409D01*
X478724Y63076D01*
X483891Y63076D01*
X483891Y55615D01*
X483718Y54969D01*
X483383Y54390D01*
X482910Y53917D01*
X482331Y53582D01*
X481685Y53409D01*
X478724Y53409D01*
G37*
%LPD*%
%LPC*%
G36*
X618724Y53409D02*
X618724Y53409D01*
X618724Y63076D01*
X623891Y63076D01*
X623891Y55615D01*
X623718Y54969D01*
X623383Y54390D01*
X622910Y53917D01*
X622331Y53582D01*
X621685Y53409D01*
X618724Y53409D01*
G37*
%LPD*%
%LPC*%
G36*
X608309Y68324D02*
X608309Y68324D01*
X608309Y75785D01*
X608482Y76431D01*
X608817Y77010D01*
X609290Y77483D01*
X609869Y77818D01*
X610515Y77991D01*
X613476Y77991D01*
X613476Y68324D01*
X608309Y68324D01*
G37*
%LPD*%
%LPC*%
G36*
X468309Y68324D02*
X468309Y68324D01*
X468309Y75785D01*
X468482Y76431D01*
X468817Y77010D01*
X469290Y77483D01*
X469869Y77818D01*
X470515Y77991D01*
X473476Y77991D01*
X473476Y68324D01*
X468309Y68324D01*
G37*
%LPD*%
%LPC*%
G36*
X588309Y216324D02*
X588309Y216324D01*
X588309Y223785D01*
X588482Y224431D01*
X588817Y225010D01*
X589290Y225483D01*
X589869Y225818D01*
X590515Y225991D01*
X593476Y225991D01*
X593476Y216324D01*
X588309Y216324D01*
G37*
%LPD*%
%LPC*%
G36*
X590515Y201409D02*
X590515Y201409D01*
X589869Y201582D01*
X589290Y201917D01*
X588817Y202390D01*
X588482Y202969D01*
X588309Y203615D01*
X588309Y211076D01*
X593476Y211076D01*
X593476Y201409D01*
X590515Y201409D01*
G37*
%LPD*%
%LPC*%
G36*
X470515Y53409D02*
X470515Y53409D01*
X469869Y53582D01*
X469290Y53917D01*
X468817Y54390D01*
X468482Y54969D01*
X468309Y55615D01*
X468309Y63076D01*
X473476Y63076D01*
X473476Y53409D01*
X470515Y53409D01*
G37*
%LPD*%
%LPC*%
G36*
X610515Y53409D02*
X610515Y53409D01*
X609869Y53582D01*
X609290Y53917D01*
X608817Y54390D01*
X608482Y54969D01*
X608309Y55615D01*
X608309Y63076D01*
X613476Y63076D01*
X613476Y53409D01*
X610515Y53409D01*
G37*
%LPD*%
D10*
X635000Y251450D03*
D11*
X620250Y266700D03*
X649750Y266700D03*
D12*
X476100Y65700D03*
X496100Y65700D03*
X516100Y65700D03*
X536100Y65700D03*
X556100Y65700D03*
X576100Y65700D03*
X596100Y65700D03*
X616100Y65700D03*
X616100Y213700D03*
X596100Y213700D03*
X576100Y213700D03*
X556100Y213700D03*
X536100Y213700D03*
X516100Y213700D03*
X496100Y213700D03*
X476100Y213700D03*
D13*
X584200Y32004D02*
X584200Y18796D01*
X558800Y18796D02*
X558800Y32004D01*
X533400Y32004D02*
X533400Y18796D01*
X508000Y18796D02*
X508000Y32004D01*
X482600Y32004D02*
X482600Y18796D01*
X584200Y272796D02*
X584200Y286004D01*
X558800Y286004D02*
X558800Y272796D01*
X533400Y272796D02*
X533400Y286004D01*
X508000Y286004D02*
X508000Y272796D01*
X482600Y272796D02*
X482600Y286004D01*
D14*
X645134Y279224D02*
X646027Y278331D01*
X645134Y279224D02*
X624870Y279224D01*
X623978Y278331D01*
X646027Y270423D02*
X649750Y266700D01*
X646027Y270423D02*
X646027Y278331D01*
X623978Y278331D02*
X623978Y270428D01*
X620250Y266700D01*
X596900Y292100D02*
X584200Y279400D01*
X596900Y292100D02*
X635000Y292100D01*
X646027Y281073D01*
X646027Y278331D01*
X620250Y266700D02*
X596900Y243350D01*
X596900Y214500D02*
X596100Y213700D01*
X596900Y214500D02*
X596900Y243350D01*
X649750Y266700D02*
X649750Y78250D01*
X635000Y63500D01*
X618300Y63500D01*
X616100Y65700D01*
X476100Y65700D02*
X463400Y65700D01*
X457200Y59500D01*
X457200Y12700D01*
X469900Y0D01*
X609600Y0D01*
X616100Y6500D02*
X616100Y65700D01*
X616100Y6500D02*
X609600Y0D01*
X516100Y58900D02*
X516100Y65700D01*
X516100Y58900D02*
X508000Y50800D01*
X508000Y25400D01*
X576100Y46200D02*
X576100Y65700D01*
X576100Y46200D02*
X584200Y38100D01*
X584200Y25400D01*
X476100Y213700D02*
X476100Y247500D01*
X482600Y254000D01*
X482600Y279400D01*
X508000Y279400D02*
X508000Y254000D01*
X495300Y241300D01*
X495300Y214500D01*
X496100Y213700D01*
X536100Y65700D02*
X536100Y53500D01*
X533400Y50800D01*
X533400Y25400D01*
X558800Y63000D02*
X556100Y65700D01*
X558800Y63000D02*
X558800Y25400D01*
X482600Y25400D02*
X482600Y38100D01*
X496100Y51600D02*
X496100Y65700D01*
X496100Y51600D02*
X482600Y38100D01*
X536100Y213700D02*
X536100Y231300D01*
X558800Y254000D01*
X558800Y279400D01*
X533400Y279400D02*
X533400Y254000D01*
X516100Y236700D02*
X516100Y213700D01*
X516100Y236700D02*
X533400Y254000D01*
X616100Y213700D02*
X635000Y232600D01*
X635000Y251450D01*
M02*
