G04 EAGLE Gerber RS-274X export*
G75*
%MOMM*%
%FSLAX34Y34*%
%LPD*%
%INSilkscreen Top*%
%IPPOS*%
%AMOC8*
5,1,8,0,0,1.08239X$1,22.5*%
G01*
%ADD10C,0.127000*%
%ADD11C,0.076200*%
%ADD12C,0.200000*%
%ADD13R,0.392200X0.511500*%
%ADD14C,0.101600*%
%ADD15C,0.152400*%


D10*
X622000Y279700D02*
X648000Y279700D01*
X628300Y253700D02*
X622000Y253700D01*
X641700Y253700D02*
X648000Y253700D01*
D11*
X612477Y287202D02*
X612477Y294524D01*
X612477Y287202D02*
X612475Y287113D01*
X612469Y287025D01*
X612460Y286936D01*
X612447Y286848D01*
X612430Y286761D01*
X612409Y286675D01*
X612385Y286589D01*
X612357Y286505D01*
X612326Y286422D01*
X612291Y286340D01*
X612253Y286260D01*
X612211Y286182D01*
X612166Y286105D01*
X612118Y286031D01*
X612067Y285958D01*
X612013Y285888D01*
X611955Y285820D01*
X611895Y285754D01*
X611833Y285692D01*
X611767Y285632D01*
X611699Y285574D01*
X611629Y285520D01*
X611556Y285469D01*
X611482Y285421D01*
X611405Y285376D01*
X611327Y285334D01*
X611247Y285296D01*
X611165Y285261D01*
X611082Y285230D01*
X610998Y285202D01*
X610912Y285178D01*
X610826Y285157D01*
X610739Y285140D01*
X610651Y285127D01*
X610562Y285118D01*
X610474Y285112D01*
X610385Y285110D01*
X609339Y285110D01*
X616675Y292432D02*
X619290Y294524D01*
X619290Y285110D01*
X616675Y285110D02*
X621905Y285110D01*
D12*
X466100Y219700D02*
X466100Y59700D01*
X626100Y59700D02*
X626100Y219700D01*
X473185Y42200D02*
X473187Y42308D01*
X473193Y42415D01*
X473203Y42523D01*
X473217Y42629D01*
X473235Y42736D01*
X473256Y42841D01*
X473282Y42946D01*
X473311Y43049D01*
X473345Y43152D01*
X473382Y43253D01*
X473423Y43353D01*
X473467Y43451D01*
X473515Y43547D01*
X473567Y43642D01*
X473622Y43735D01*
X473680Y43825D01*
X473742Y43913D01*
X473807Y43999D01*
X473875Y44083D01*
X473946Y44164D01*
X474020Y44242D01*
X474097Y44318D01*
X474176Y44390D01*
X474259Y44460D01*
X474343Y44526D01*
X474430Y44590D01*
X474520Y44650D01*
X474612Y44706D01*
X474705Y44760D01*
X474801Y44809D01*
X474898Y44856D01*
X474997Y44898D01*
X475097Y44937D01*
X475199Y44972D01*
X475302Y45004D01*
X475406Y45031D01*
X475512Y45055D01*
X475617Y45075D01*
X475724Y45091D01*
X475831Y45103D01*
X475938Y45111D01*
X476046Y45115D01*
X476154Y45115D01*
X476262Y45111D01*
X476369Y45103D01*
X476476Y45091D01*
X476583Y45075D01*
X476688Y45055D01*
X476794Y45031D01*
X476898Y45004D01*
X477001Y44972D01*
X477103Y44937D01*
X477203Y44898D01*
X477302Y44856D01*
X477399Y44809D01*
X477495Y44760D01*
X477588Y44706D01*
X477680Y44650D01*
X477770Y44590D01*
X477857Y44526D01*
X477941Y44460D01*
X478024Y44390D01*
X478103Y44318D01*
X478180Y44242D01*
X478254Y44164D01*
X478325Y44083D01*
X478393Y43999D01*
X478458Y43913D01*
X478520Y43825D01*
X478578Y43735D01*
X478633Y43642D01*
X478685Y43547D01*
X478733Y43451D01*
X478777Y43353D01*
X478818Y43253D01*
X478855Y43152D01*
X478889Y43049D01*
X478918Y42946D01*
X478944Y42841D01*
X478965Y42736D01*
X478983Y42629D01*
X478997Y42523D01*
X479007Y42415D01*
X479013Y42308D01*
X479015Y42200D01*
X479013Y42092D01*
X479007Y41985D01*
X478997Y41877D01*
X478983Y41771D01*
X478965Y41664D01*
X478944Y41559D01*
X478918Y41454D01*
X478889Y41351D01*
X478855Y41248D01*
X478818Y41147D01*
X478777Y41047D01*
X478733Y40949D01*
X478685Y40853D01*
X478633Y40758D01*
X478578Y40665D01*
X478520Y40575D01*
X478458Y40487D01*
X478393Y40401D01*
X478325Y40317D01*
X478254Y40236D01*
X478180Y40158D01*
X478103Y40082D01*
X478024Y40010D01*
X477941Y39940D01*
X477857Y39874D01*
X477770Y39810D01*
X477680Y39750D01*
X477588Y39694D01*
X477495Y39640D01*
X477399Y39591D01*
X477302Y39544D01*
X477203Y39502D01*
X477103Y39463D01*
X477001Y39428D01*
X476898Y39396D01*
X476794Y39369D01*
X476688Y39345D01*
X476583Y39325D01*
X476476Y39309D01*
X476369Y39297D01*
X476262Y39289D01*
X476154Y39285D01*
X476046Y39285D01*
X475938Y39289D01*
X475831Y39297D01*
X475724Y39309D01*
X475617Y39325D01*
X475512Y39345D01*
X475406Y39369D01*
X475302Y39396D01*
X475199Y39428D01*
X475097Y39463D01*
X474997Y39502D01*
X474898Y39544D01*
X474801Y39591D01*
X474705Y39640D01*
X474612Y39694D01*
X474520Y39750D01*
X474430Y39810D01*
X474343Y39874D01*
X474259Y39940D01*
X474176Y40010D01*
X474097Y40082D01*
X474020Y40158D01*
X473946Y40236D01*
X473875Y40317D01*
X473807Y40401D01*
X473742Y40487D01*
X473680Y40575D01*
X473622Y40665D01*
X473567Y40758D01*
X473515Y40853D01*
X473467Y40949D01*
X473423Y41047D01*
X473382Y41147D01*
X473345Y41248D01*
X473311Y41351D01*
X473282Y41454D01*
X473256Y41559D01*
X473235Y41664D01*
X473217Y41771D01*
X473203Y41877D01*
X473193Y41985D01*
X473187Y42092D01*
X473185Y42200D01*
D13*
X476061Y42143D03*
D14*
X456922Y64062D02*
X445214Y64062D01*
X456922Y64062D02*
X456922Y69266D01*
X453670Y73583D02*
X448466Y73583D01*
X448354Y73585D01*
X448242Y73591D01*
X448130Y73600D01*
X448018Y73614D01*
X447907Y73631D01*
X447797Y73653D01*
X447688Y73677D01*
X447579Y73706D01*
X447472Y73739D01*
X447365Y73775D01*
X447261Y73815D01*
X447157Y73858D01*
X447055Y73905D01*
X446955Y73955D01*
X446856Y74009D01*
X446760Y74067D01*
X446665Y74127D01*
X446573Y74191D01*
X446483Y74258D01*
X446395Y74328D01*
X446310Y74401D01*
X446227Y74477D01*
X446147Y74555D01*
X446069Y74637D01*
X445995Y74721D01*
X445923Y74807D01*
X445855Y74896D01*
X445790Y74988D01*
X445727Y75081D01*
X445669Y75177D01*
X445613Y75274D01*
X445561Y75374D01*
X445512Y75475D01*
X445467Y75578D01*
X445425Y75682D01*
X445387Y75787D01*
X445353Y75894D01*
X445322Y76002D01*
X445296Y76111D01*
X445272Y76221D01*
X445253Y76332D01*
X445238Y76443D01*
X445226Y76555D01*
X445218Y76667D01*
X445214Y76779D01*
X445214Y76891D01*
X445218Y77003D01*
X445226Y77115D01*
X445238Y77227D01*
X445253Y77338D01*
X445272Y77449D01*
X445296Y77559D01*
X445322Y77668D01*
X445353Y77776D01*
X445387Y77883D01*
X445425Y77988D01*
X445467Y78092D01*
X445512Y78195D01*
X445561Y78296D01*
X445613Y78396D01*
X445669Y78493D01*
X445727Y78589D01*
X445790Y78682D01*
X445855Y78774D01*
X445923Y78863D01*
X445995Y78949D01*
X446069Y79033D01*
X446147Y79115D01*
X446227Y79193D01*
X446310Y79269D01*
X446395Y79342D01*
X446483Y79412D01*
X446573Y79479D01*
X446665Y79543D01*
X446760Y79603D01*
X446856Y79661D01*
X446955Y79715D01*
X447055Y79765D01*
X447157Y79812D01*
X447261Y79855D01*
X447365Y79895D01*
X447472Y79931D01*
X447579Y79964D01*
X447688Y79993D01*
X447797Y80017D01*
X447907Y80039D01*
X448018Y80056D01*
X448130Y80070D01*
X448242Y80079D01*
X448354Y80085D01*
X448466Y80087D01*
X448466Y80088D02*
X453670Y80088D01*
X453670Y80087D02*
X453782Y80085D01*
X453894Y80079D01*
X454006Y80070D01*
X454118Y80056D01*
X454229Y80039D01*
X454339Y80017D01*
X454448Y79993D01*
X454557Y79964D01*
X454664Y79931D01*
X454771Y79895D01*
X454875Y79855D01*
X454979Y79812D01*
X455081Y79765D01*
X455181Y79715D01*
X455280Y79661D01*
X455376Y79603D01*
X455471Y79543D01*
X455563Y79479D01*
X455653Y79412D01*
X455741Y79342D01*
X455826Y79269D01*
X455909Y79193D01*
X455989Y79115D01*
X456067Y79033D01*
X456141Y78949D01*
X456213Y78863D01*
X456281Y78774D01*
X456346Y78682D01*
X456409Y78589D01*
X456467Y78493D01*
X456523Y78396D01*
X456575Y78296D01*
X456624Y78195D01*
X456669Y78092D01*
X456711Y77988D01*
X456749Y77883D01*
X456783Y77776D01*
X456814Y77668D01*
X456840Y77559D01*
X456864Y77449D01*
X456883Y77338D01*
X456898Y77227D01*
X456910Y77115D01*
X456918Y77003D01*
X456922Y76891D01*
X456922Y76779D01*
X456918Y76667D01*
X456910Y76555D01*
X456898Y76443D01*
X456883Y76332D01*
X456864Y76221D01*
X456840Y76111D01*
X456814Y76002D01*
X456783Y75894D01*
X456749Y75787D01*
X456711Y75682D01*
X456669Y75578D01*
X456624Y75475D01*
X456575Y75374D01*
X456523Y75274D01*
X456467Y75177D01*
X456409Y75081D01*
X456346Y74988D01*
X456281Y74896D01*
X456213Y74807D01*
X456141Y74721D01*
X456067Y74637D01*
X455989Y74555D01*
X455909Y74477D01*
X455826Y74401D01*
X455741Y74328D01*
X455653Y74258D01*
X455563Y74191D01*
X455471Y74127D01*
X455376Y74067D01*
X455280Y74009D01*
X455181Y73955D01*
X455081Y73905D01*
X454979Y73858D01*
X454875Y73815D01*
X454771Y73775D01*
X454664Y73739D01*
X454557Y73706D01*
X454448Y73677D01*
X454339Y73653D01*
X454229Y73631D01*
X454118Y73614D01*
X454006Y73600D01*
X453894Y73591D01*
X453782Y73585D01*
X453670Y73583D01*
X456922Y85490D02*
X445214Y85490D01*
X445214Y88742D01*
X445216Y88854D01*
X445222Y88966D01*
X445231Y89078D01*
X445245Y89190D01*
X445262Y89301D01*
X445284Y89411D01*
X445308Y89520D01*
X445337Y89629D01*
X445370Y89736D01*
X445406Y89843D01*
X445446Y89947D01*
X445489Y90051D01*
X445536Y90153D01*
X445586Y90253D01*
X445640Y90352D01*
X445698Y90448D01*
X445758Y90543D01*
X445822Y90635D01*
X445889Y90725D01*
X445959Y90813D01*
X446032Y90898D01*
X446108Y90981D01*
X446186Y91061D01*
X446268Y91139D01*
X446352Y91213D01*
X446438Y91285D01*
X446527Y91353D01*
X446619Y91418D01*
X446712Y91481D01*
X446808Y91539D01*
X446905Y91595D01*
X447005Y91647D01*
X447106Y91696D01*
X447209Y91741D01*
X447313Y91783D01*
X447418Y91821D01*
X447525Y91855D01*
X447633Y91886D01*
X447742Y91912D01*
X447852Y91936D01*
X447963Y91955D01*
X448074Y91970D01*
X448186Y91982D01*
X448298Y91990D01*
X448410Y91994D01*
X448522Y91994D01*
X448634Y91990D01*
X448746Y91982D01*
X448858Y91970D01*
X448969Y91955D01*
X449080Y91936D01*
X449190Y91912D01*
X449299Y91886D01*
X449407Y91855D01*
X449514Y91821D01*
X449619Y91783D01*
X449723Y91741D01*
X449826Y91696D01*
X449927Y91647D01*
X450027Y91595D01*
X450124Y91539D01*
X450220Y91481D01*
X450313Y91418D01*
X450405Y91353D01*
X450494Y91285D01*
X450580Y91213D01*
X450664Y91139D01*
X450746Y91061D01*
X450824Y90981D01*
X450900Y90898D01*
X450973Y90813D01*
X451043Y90725D01*
X451110Y90635D01*
X451174Y90543D01*
X451234Y90448D01*
X451292Y90352D01*
X451346Y90253D01*
X451396Y90153D01*
X451443Y90051D01*
X451486Y89947D01*
X451526Y89843D01*
X451562Y89736D01*
X451595Y89629D01*
X451624Y89520D01*
X451648Y89411D01*
X451670Y89301D01*
X451687Y89190D01*
X451701Y89078D01*
X451710Y88966D01*
X451716Y88854D01*
X451718Y88742D01*
X451719Y88742D02*
X451719Y85490D01*
X451719Y89393D02*
X456922Y91995D01*
X456922Y96218D02*
X445214Y100121D01*
X456922Y104023D01*
X453995Y103048D02*
X453995Y97194D01*
X456922Y108815D02*
X445214Y108815D01*
X451719Y112718D01*
X445214Y116620D01*
X456922Y116620D01*
X453670Y122062D02*
X448466Y122062D01*
X448466Y122063D02*
X448354Y122065D01*
X448242Y122071D01*
X448130Y122080D01*
X448018Y122094D01*
X447907Y122111D01*
X447797Y122133D01*
X447688Y122157D01*
X447579Y122186D01*
X447472Y122219D01*
X447365Y122255D01*
X447261Y122295D01*
X447157Y122338D01*
X447055Y122385D01*
X446955Y122435D01*
X446856Y122489D01*
X446760Y122547D01*
X446665Y122607D01*
X446573Y122671D01*
X446483Y122738D01*
X446395Y122808D01*
X446310Y122881D01*
X446227Y122957D01*
X446147Y123035D01*
X446069Y123117D01*
X445995Y123201D01*
X445923Y123287D01*
X445855Y123376D01*
X445790Y123468D01*
X445727Y123561D01*
X445669Y123657D01*
X445613Y123754D01*
X445561Y123854D01*
X445512Y123955D01*
X445467Y124058D01*
X445425Y124162D01*
X445387Y124267D01*
X445353Y124374D01*
X445322Y124482D01*
X445296Y124591D01*
X445272Y124701D01*
X445253Y124812D01*
X445238Y124923D01*
X445226Y125035D01*
X445218Y125147D01*
X445214Y125259D01*
X445214Y125371D01*
X445218Y125483D01*
X445226Y125595D01*
X445238Y125707D01*
X445253Y125818D01*
X445272Y125929D01*
X445296Y126039D01*
X445322Y126148D01*
X445353Y126256D01*
X445387Y126363D01*
X445425Y126468D01*
X445467Y126572D01*
X445512Y126675D01*
X445561Y126776D01*
X445613Y126876D01*
X445669Y126973D01*
X445727Y127069D01*
X445790Y127162D01*
X445855Y127254D01*
X445923Y127343D01*
X445995Y127429D01*
X446069Y127513D01*
X446147Y127595D01*
X446227Y127673D01*
X446310Y127749D01*
X446395Y127822D01*
X446483Y127892D01*
X446573Y127959D01*
X446665Y128023D01*
X446760Y128083D01*
X446856Y128141D01*
X446955Y128195D01*
X447055Y128245D01*
X447157Y128292D01*
X447261Y128335D01*
X447365Y128375D01*
X447472Y128411D01*
X447579Y128444D01*
X447688Y128473D01*
X447797Y128497D01*
X447907Y128519D01*
X448018Y128536D01*
X448130Y128550D01*
X448242Y128559D01*
X448354Y128565D01*
X448466Y128567D01*
X453670Y128567D01*
X453782Y128565D01*
X453894Y128559D01*
X454006Y128550D01*
X454118Y128536D01*
X454229Y128519D01*
X454339Y128497D01*
X454448Y128473D01*
X454557Y128444D01*
X454664Y128411D01*
X454771Y128375D01*
X454875Y128335D01*
X454979Y128292D01*
X455081Y128245D01*
X455181Y128195D01*
X455280Y128141D01*
X455376Y128083D01*
X455471Y128023D01*
X455563Y127959D01*
X455653Y127892D01*
X455741Y127822D01*
X455826Y127749D01*
X455909Y127673D01*
X455989Y127595D01*
X456067Y127513D01*
X456141Y127429D01*
X456213Y127343D01*
X456281Y127254D01*
X456346Y127162D01*
X456409Y127069D01*
X456467Y126973D01*
X456523Y126876D01*
X456575Y126776D01*
X456624Y126675D01*
X456669Y126572D01*
X456711Y126468D01*
X456749Y126363D01*
X456783Y126256D01*
X456814Y126148D01*
X456840Y126039D01*
X456864Y125929D01*
X456883Y125818D01*
X456898Y125707D01*
X456910Y125595D01*
X456918Y125483D01*
X456922Y125371D01*
X456922Y125259D01*
X456918Y125147D01*
X456910Y125035D01*
X456898Y124923D01*
X456883Y124812D01*
X456864Y124701D01*
X456840Y124591D01*
X456814Y124482D01*
X456783Y124374D01*
X456749Y124267D01*
X456711Y124162D01*
X456669Y124058D01*
X456624Y123955D01*
X456575Y123854D01*
X456523Y123754D01*
X456467Y123657D01*
X456409Y123561D01*
X456346Y123468D01*
X456281Y123376D01*
X456213Y123287D01*
X456141Y123201D01*
X456067Y123117D01*
X455989Y123035D01*
X455909Y122957D01*
X455826Y122881D01*
X455741Y122808D01*
X455653Y122738D01*
X455563Y122671D01*
X455471Y122607D01*
X455376Y122547D01*
X455280Y122489D01*
X455181Y122435D01*
X455081Y122385D01*
X454979Y122338D01*
X454875Y122295D01*
X454771Y122255D01*
X454664Y122219D01*
X454557Y122186D01*
X454448Y122157D01*
X454339Y122133D01*
X454229Y122111D01*
X454118Y122094D01*
X454006Y122080D01*
X453894Y122071D01*
X453782Y122065D01*
X453670Y122063D01*
X456922Y133896D02*
X445214Y133896D01*
X445214Y137148D01*
X445216Y137259D01*
X445222Y137370D01*
X445231Y137481D01*
X445244Y137591D01*
X445261Y137701D01*
X445282Y137810D01*
X445306Y137918D01*
X445335Y138025D01*
X445366Y138132D01*
X445402Y138237D01*
X445441Y138341D01*
X445483Y138444D01*
X445529Y138545D01*
X445579Y138644D01*
X445631Y138742D01*
X445687Y138838D01*
X445747Y138932D01*
X445809Y139023D01*
X445875Y139113D01*
X445943Y139200D01*
X446015Y139285D01*
X446089Y139368D01*
X446166Y139448D01*
X446246Y139525D01*
X446329Y139599D01*
X446414Y139671D01*
X446501Y139739D01*
X446591Y139805D01*
X446682Y139867D01*
X446776Y139927D01*
X446872Y139983D01*
X446970Y140035D01*
X447069Y140085D01*
X447170Y140131D01*
X447273Y140173D01*
X447377Y140212D01*
X447482Y140248D01*
X447589Y140279D01*
X447696Y140308D01*
X447804Y140332D01*
X447913Y140353D01*
X448023Y140370D01*
X448133Y140383D01*
X448244Y140392D01*
X448355Y140398D01*
X448466Y140400D01*
X448466Y140401D02*
X453670Y140401D01*
X453670Y140400D02*
X453781Y140398D01*
X453892Y140392D01*
X454003Y140383D01*
X454113Y140370D01*
X454223Y140353D01*
X454332Y140332D01*
X454440Y140308D01*
X454547Y140279D01*
X454654Y140248D01*
X454759Y140212D01*
X454863Y140173D01*
X454966Y140131D01*
X455067Y140085D01*
X455166Y140035D01*
X455264Y139983D01*
X455360Y139927D01*
X455454Y139867D01*
X455545Y139805D01*
X455635Y139739D01*
X455722Y139671D01*
X455807Y139599D01*
X455890Y139525D01*
X455970Y139448D01*
X456047Y139368D01*
X456121Y139285D01*
X456193Y139200D01*
X456261Y139113D01*
X456327Y139023D01*
X456389Y138932D01*
X456449Y138838D01*
X456505Y138742D01*
X456557Y138644D01*
X456607Y138545D01*
X456653Y138444D01*
X456695Y138341D01*
X456734Y138237D01*
X456770Y138132D01*
X456801Y138025D01*
X456830Y137918D01*
X456854Y137810D01*
X456875Y137701D01*
X456892Y137591D01*
X456905Y137481D01*
X456914Y137370D01*
X456920Y137259D01*
X456922Y137148D01*
X456922Y133896D01*
X453670Y146111D02*
X445214Y146111D01*
X453670Y146112D02*
X453782Y146114D01*
X453894Y146120D01*
X454006Y146129D01*
X454118Y146143D01*
X454229Y146160D01*
X454339Y146182D01*
X454448Y146206D01*
X454557Y146235D01*
X454664Y146268D01*
X454771Y146304D01*
X454875Y146344D01*
X454979Y146387D01*
X455081Y146434D01*
X455181Y146484D01*
X455280Y146538D01*
X455376Y146596D01*
X455471Y146656D01*
X455563Y146720D01*
X455653Y146787D01*
X455741Y146857D01*
X455826Y146930D01*
X455909Y147006D01*
X455989Y147084D01*
X456067Y147166D01*
X456141Y147250D01*
X456213Y147336D01*
X456281Y147425D01*
X456346Y147517D01*
X456409Y147610D01*
X456467Y147706D01*
X456523Y147803D01*
X456575Y147903D01*
X456624Y148004D01*
X456669Y148107D01*
X456711Y148211D01*
X456749Y148316D01*
X456783Y148423D01*
X456814Y148531D01*
X456840Y148640D01*
X456864Y148750D01*
X456883Y148861D01*
X456898Y148972D01*
X456910Y149084D01*
X456918Y149196D01*
X456922Y149308D01*
X456922Y149420D01*
X456918Y149532D01*
X456910Y149644D01*
X456898Y149756D01*
X456883Y149867D01*
X456864Y149978D01*
X456840Y150088D01*
X456814Y150197D01*
X456783Y150305D01*
X456749Y150412D01*
X456711Y150517D01*
X456669Y150621D01*
X456624Y150724D01*
X456575Y150825D01*
X456523Y150925D01*
X456467Y151022D01*
X456409Y151118D01*
X456346Y151211D01*
X456281Y151303D01*
X456213Y151392D01*
X456141Y151478D01*
X456067Y151562D01*
X455989Y151644D01*
X455909Y151722D01*
X455826Y151798D01*
X455741Y151871D01*
X455653Y151941D01*
X455563Y152008D01*
X455471Y152072D01*
X455376Y152132D01*
X455280Y152190D01*
X455181Y152244D01*
X455081Y152294D01*
X454979Y152341D01*
X454875Y152384D01*
X454771Y152424D01*
X454664Y152460D01*
X454557Y152493D01*
X454448Y152522D01*
X454339Y152546D01*
X454229Y152568D01*
X454118Y152585D01*
X454006Y152599D01*
X453894Y152608D01*
X453782Y152614D01*
X453670Y152616D01*
X445214Y152616D01*
X445214Y158349D02*
X456922Y158349D01*
X456922Y163553D01*
X456922Y168274D02*
X456922Y173478D01*
X456922Y168274D02*
X445214Y168274D01*
X445214Y173478D01*
X450418Y172177D02*
X450418Y168274D01*
D15*
X596900Y38100D02*
X596900Y12700D01*
X596900Y38100D02*
X574040Y38100D01*
X571500Y35560D01*
X568960Y38100D01*
X548640Y38100D01*
X546100Y35560D01*
X543560Y38100D01*
X523240Y38100D01*
X520700Y35560D01*
X518160Y38100D01*
X497840Y38100D01*
X495300Y35560D01*
X492760Y38100D01*
X469900Y38100D01*
X469900Y12700D01*
X492760Y12700D01*
X495300Y15240D01*
X497840Y12700D01*
X518160Y12700D01*
X520700Y15240D01*
X523240Y12700D01*
X543560Y12700D01*
X546100Y15240D01*
X548640Y12700D01*
X568960Y12700D01*
X571500Y15240D01*
X574040Y12700D01*
X596900Y12700D01*
D10*
X601345Y28575D02*
X604520Y31115D01*
X604520Y19685D01*
X601345Y19685D02*
X607695Y19685D01*
X464185Y19685D02*
X460375Y19685D01*
X464185Y19685D02*
X464285Y19687D01*
X464384Y19693D01*
X464484Y19703D01*
X464582Y19716D01*
X464681Y19734D01*
X464778Y19755D01*
X464874Y19780D01*
X464970Y19809D01*
X465064Y19842D01*
X465157Y19878D01*
X465248Y19918D01*
X465338Y19962D01*
X465426Y20009D01*
X465512Y20059D01*
X465596Y20113D01*
X465678Y20170D01*
X465757Y20230D01*
X465835Y20294D01*
X465909Y20360D01*
X465981Y20429D01*
X466050Y20501D01*
X466116Y20575D01*
X466180Y20653D01*
X466240Y20732D01*
X466297Y20814D01*
X466351Y20898D01*
X466401Y20984D01*
X466448Y21072D01*
X466492Y21162D01*
X466532Y21253D01*
X466568Y21346D01*
X466601Y21440D01*
X466630Y21536D01*
X466655Y21632D01*
X466676Y21729D01*
X466694Y21828D01*
X466707Y21926D01*
X466717Y22026D01*
X466723Y22125D01*
X466725Y22225D01*
X466725Y23495D01*
X466723Y23595D01*
X466717Y23694D01*
X466707Y23794D01*
X466694Y23892D01*
X466676Y23991D01*
X466655Y24088D01*
X466630Y24184D01*
X466601Y24280D01*
X466568Y24374D01*
X466532Y24467D01*
X466492Y24558D01*
X466448Y24648D01*
X466401Y24736D01*
X466351Y24822D01*
X466297Y24906D01*
X466240Y24988D01*
X466180Y25067D01*
X466116Y25145D01*
X466050Y25219D01*
X465981Y25291D01*
X465909Y25360D01*
X465835Y25426D01*
X465757Y25490D01*
X465678Y25550D01*
X465596Y25607D01*
X465512Y25661D01*
X465426Y25711D01*
X465338Y25758D01*
X465248Y25802D01*
X465157Y25842D01*
X465064Y25878D01*
X464970Y25911D01*
X464874Y25940D01*
X464778Y25965D01*
X464681Y25986D01*
X464582Y26004D01*
X464484Y26017D01*
X464384Y26027D01*
X464285Y26033D01*
X464185Y26035D01*
X460375Y26035D01*
X460375Y31115D01*
X466725Y31115D01*
X571246Y-3175D02*
X571346Y-3173D01*
X571445Y-3167D01*
X571545Y-3157D01*
X571643Y-3144D01*
X571742Y-3126D01*
X571839Y-3105D01*
X571935Y-3080D01*
X572031Y-3051D01*
X572125Y-3018D01*
X572218Y-2982D01*
X572309Y-2942D01*
X572399Y-2898D01*
X572487Y-2851D01*
X572573Y-2801D01*
X572657Y-2747D01*
X572739Y-2690D01*
X572818Y-2630D01*
X572896Y-2566D01*
X572970Y-2500D01*
X573042Y-2431D01*
X573111Y-2359D01*
X573177Y-2285D01*
X573241Y-2207D01*
X573301Y-2128D01*
X573358Y-2046D01*
X573412Y-1962D01*
X573462Y-1876D01*
X573509Y-1788D01*
X573553Y-1698D01*
X573593Y-1607D01*
X573629Y-1514D01*
X573662Y-1420D01*
X573691Y-1324D01*
X573716Y-1228D01*
X573737Y-1131D01*
X573755Y-1032D01*
X573768Y-934D01*
X573778Y-834D01*
X573784Y-735D01*
X573786Y-635D01*
X571246Y-3175D02*
X571105Y-3173D01*
X570964Y-3168D01*
X570823Y-3158D01*
X570682Y-3145D01*
X570542Y-3129D01*
X570402Y-3108D01*
X570263Y-3084D01*
X570124Y-3056D01*
X569987Y-3025D01*
X569850Y-2990D01*
X569714Y-2952D01*
X569579Y-2910D01*
X569446Y-2864D01*
X569313Y-2815D01*
X569182Y-2762D01*
X569053Y-2706D01*
X568924Y-2647D01*
X568798Y-2584D01*
X568673Y-2518D01*
X568550Y-2449D01*
X568429Y-2376D01*
X568310Y-2300D01*
X568192Y-2221D01*
X568077Y-2140D01*
X567965Y-2055D01*
X567854Y-1967D01*
X567746Y-1876D01*
X567640Y-1783D01*
X567537Y-1686D01*
X567436Y-1587D01*
X567754Y5715D02*
X567756Y5815D01*
X567762Y5914D01*
X567772Y6014D01*
X567785Y6112D01*
X567803Y6211D01*
X567824Y6308D01*
X567849Y6404D01*
X567878Y6500D01*
X567911Y6594D01*
X567947Y6687D01*
X567987Y6778D01*
X568031Y6868D01*
X568078Y6956D01*
X568128Y7042D01*
X568182Y7126D01*
X568239Y7208D01*
X568299Y7287D01*
X568363Y7365D01*
X568429Y7439D01*
X568498Y7511D01*
X568570Y7580D01*
X568644Y7646D01*
X568722Y7710D01*
X568801Y7770D01*
X568883Y7827D01*
X568967Y7881D01*
X569053Y7931D01*
X569141Y7978D01*
X569231Y8022D01*
X569322Y8062D01*
X569415Y8098D01*
X569509Y8131D01*
X569605Y8160D01*
X569701Y8185D01*
X569798Y8206D01*
X569897Y8224D01*
X569995Y8237D01*
X570095Y8247D01*
X570194Y8253D01*
X570294Y8255D01*
X570294Y8256D02*
X570427Y8254D01*
X570560Y8249D01*
X570693Y8239D01*
X570826Y8226D01*
X570958Y8209D01*
X571090Y8189D01*
X571221Y8165D01*
X571351Y8137D01*
X571481Y8106D01*
X571609Y8071D01*
X571737Y8032D01*
X571863Y7990D01*
X571988Y7944D01*
X572112Y7895D01*
X572235Y7843D01*
X572356Y7787D01*
X572475Y7727D01*
X572593Y7665D01*
X572708Y7599D01*
X572822Y7530D01*
X572934Y7457D01*
X573044Y7382D01*
X573152Y7303D01*
X569023Y3492D02*
X568939Y3544D01*
X568856Y3599D01*
X568776Y3658D01*
X568698Y3719D01*
X568623Y3783D01*
X568550Y3851D01*
X568479Y3921D01*
X568412Y3993D01*
X568347Y4068D01*
X568285Y4146D01*
X568226Y4226D01*
X568170Y4308D01*
X568118Y4392D01*
X568069Y4478D01*
X568023Y4566D01*
X567980Y4656D01*
X567941Y4747D01*
X567906Y4840D01*
X567874Y4934D01*
X567846Y5029D01*
X567821Y5125D01*
X567801Y5222D01*
X567783Y5320D01*
X567770Y5418D01*
X567761Y5517D01*
X567755Y5616D01*
X567753Y5715D01*
X572516Y1588D02*
X572600Y1536D01*
X572683Y1481D01*
X572763Y1422D01*
X572841Y1361D01*
X572916Y1297D01*
X572989Y1229D01*
X573060Y1159D01*
X573127Y1087D01*
X573192Y1012D01*
X573254Y934D01*
X573313Y854D01*
X573369Y772D01*
X573421Y688D01*
X573470Y602D01*
X573516Y514D01*
X573559Y424D01*
X573598Y333D01*
X573633Y240D01*
X573665Y146D01*
X573693Y51D01*
X573718Y-45D01*
X573738Y-142D01*
X573756Y-240D01*
X573769Y-338D01*
X573778Y-437D01*
X573784Y-536D01*
X573786Y-635D01*
X572516Y1588D02*
X569024Y3493D01*
X577850Y8255D02*
X581660Y-3175D01*
X585470Y8255D01*
X589915Y5715D02*
X593090Y8255D01*
X593090Y-3175D01*
X589915Y-3175D02*
X596265Y-3175D01*
D15*
X596900Y266700D02*
X596900Y292100D01*
X574040Y292100D01*
X571500Y289560D01*
X568960Y292100D01*
X548640Y292100D01*
X546100Y289560D01*
X543560Y292100D01*
X523240Y292100D01*
X520700Y289560D01*
X518160Y292100D01*
X497840Y292100D01*
X495300Y289560D01*
X492760Y292100D01*
X469900Y292100D01*
X469900Y266700D01*
X492760Y266700D01*
X495300Y269240D01*
X497840Y266700D01*
X518160Y266700D01*
X520700Y269240D01*
X523240Y266700D01*
X543560Y266700D01*
X546100Y269240D01*
X548640Y266700D01*
X568960Y266700D01*
X571500Y269240D01*
X574040Y266700D01*
X596900Y266700D01*
D10*
X601345Y282575D02*
X604520Y285115D01*
X604520Y273685D01*
X601345Y273685D02*
X607695Y273685D01*
X464185Y273685D02*
X460375Y273685D01*
X464185Y273685D02*
X464285Y273687D01*
X464384Y273693D01*
X464484Y273703D01*
X464582Y273716D01*
X464681Y273734D01*
X464778Y273755D01*
X464874Y273780D01*
X464970Y273809D01*
X465064Y273842D01*
X465157Y273878D01*
X465248Y273918D01*
X465338Y273962D01*
X465426Y274009D01*
X465512Y274059D01*
X465596Y274113D01*
X465678Y274170D01*
X465757Y274230D01*
X465835Y274294D01*
X465909Y274360D01*
X465981Y274429D01*
X466050Y274501D01*
X466116Y274575D01*
X466180Y274653D01*
X466240Y274732D01*
X466297Y274814D01*
X466351Y274898D01*
X466401Y274984D01*
X466448Y275072D01*
X466492Y275162D01*
X466532Y275253D01*
X466568Y275346D01*
X466601Y275440D01*
X466630Y275536D01*
X466655Y275632D01*
X466676Y275729D01*
X466694Y275828D01*
X466707Y275926D01*
X466717Y276026D01*
X466723Y276125D01*
X466725Y276225D01*
X466725Y277495D01*
X466723Y277595D01*
X466717Y277694D01*
X466707Y277794D01*
X466694Y277892D01*
X466676Y277991D01*
X466655Y278088D01*
X466630Y278184D01*
X466601Y278280D01*
X466568Y278374D01*
X466532Y278467D01*
X466492Y278558D01*
X466448Y278648D01*
X466401Y278736D01*
X466351Y278822D01*
X466297Y278906D01*
X466240Y278988D01*
X466180Y279067D01*
X466116Y279145D01*
X466050Y279219D01*
X465981Y279291D01*
X465909Y279360D01*
X465835Y279426D01*
X465757Y279490D01*
X465678Y279550D01*
X465596Y279607D01*
X465512Y279661D01*
X465426Y279711D01*
X465338Y279758D01*
X465248Y279802D01*
X465157Y279842D01*
X465064Y279878D01*
X464970Y279911D01*
X464874Y279940D01*
X464778Y279965D01*
X464681Y279986D01*
X464582Y280004D01*
X464484Y280017D01*
X464384Y280027D01*
X464285Y280033D01*
X464185Y280035D01*
X460375Y280035D01*
X460375Y285115D01*
X466725Y285115D01*
X571246Y250825D02*
X571346Y250827D01*
X571445Y250833D01*
X571545Y250843D01*
X571643Y250856D01*
X571742Y250874D01*
X571839Y250895D01*
X571935Y250920D01*
X572031Y250949D01*
X572125Y250982D01*
X572218Y251018D01*
X572309Y251058D01*
X572399Y251102D01*
X572487Y251149D01*
X572573Y251199D01*
X572657Y251253D01*
X572739Y251310D01*
X572818Y251370D01*
X572896Y251434D01*
X572970Y251500D01*
X573042Y251569D01*
X573111Y251641D01*
X573177Y251715D01*
X573241Y251793D01*
X573301Y251872D01*
X573358Y251954D01*
X573412Y252038D01*
X573462Y252124D01*
X573509Y252212D01*
X573553Y252302D01*
X573593Y252393D01*
X573629Y252486D01*
X573662Y252580D01*
X573691Y252676D01*
X573716Y252772D01*
X573737Y252869D01*
X573755Y252968D01*
X573768Y253066D01*
X573778Y253166D01*
X573784Y253265D01*
X573786Y253365D01*
X571246Y250825D02*
X571105Y250827D01*
X570964Y250832D01*
X570823Y250842D01*
X570682Y250855D01*
X570542Y250871D01*
X570402Y250892D01*
X570263Y250916D01*
X570124Y250944D01*
X569987Y250975D01*
X569850Y251010D01*
X569714Y251048D01*
X569579Y251090D01*
X569446Y251136D01*
X569313Y251185D01*
X569182Y251238D01*
X569053Y251294D01*
X568924Y251353D01*
X568798Y251416D01*
X568673Y251482D01*
X568550Y251551D01*
X568429Y251624D01*
X568310Y251700D01*
X568192Y251779D01*
X568077Y251860D01*
X567965Y251945D01*
X567854Y252033D01*
X567746Y252124D01*
X567640Y252217D01*
X567537Y252314D01*
X567436Y252413D01*
X567754Y259715D02*
X567756Y259815D01*
X567762Y259914D01*
X567772Y260014D01*
X567785Y260112D01*
X567803Y260211D01*
X567824Y260308D01*
X567849Y260404D01*
X567878Y260500D01*
X567911Y260594D01*
X567947Y260687D01*
X567987Y260778D01*
X568031Y260868D01*
X568078Y260956D01*
X568128Y261042D01*
X568182Y261126D01*
X568239Y261208D01*
X568299Y261287D01*
X568363Y261365D01*
X568429Y261439D01*
X568498Y261511D01*
X568570Y261580D01*
X568644Y261646D01*
X568722Y261710D01*
X568801Y261770D01*
X568883Y261827D01*
X568967Y261881D01*
X569053Y261931D01*
X569141Y261978D01*
X569231Y262022D01*
X569322Y262062D01*
X569415Y262098D01*
X569509Y262131D01*
X569605Y262160D01*
X569701Y262185D01*
X569798Y262206D01*
X569897Y262224D01*
X569995Y262237D01*
X570095Y262247D01*
X570194Y262253D01*
X570294Y262255D01*
X570294Y262256D02*
X570427Y262254D01*
X570560Y262249D01*
X570693Y262239D01*
X570826Y262226D01*
X570958Y262209D01*
X571090Y262189D01*
X571221Y262165D01*
X571351Y262137D01*
X571481Y262106D01*
X571609Y262071D01*
X571737Y262032D01*
X571863Y261990D01*
X571988Y261944D01*
X572112Y261895D01*
X572235Y261843D01*
X572356Y261787D01*
X572475Y261727D01*
X572593Y261665D01*
X572708Y261599D01*
X572822Y261530D01*
X572934Y261457D01*
X573044Y261382D01*
X573152Y261303D01*
X569023Y257492D02*
X568939Y257544D01*
X568856Y257599D01*
X568776Y257658D01*
X568698Y257719D01*
X568623Y257783D01*
X568550Y257851D01*
X568479Y257921D01*
X568412Y257993D01*
X568347Y258068D01*
X568285Y258146D01*
X568226Y258226D01*
X568170Y258308D01*
X568118Y258392D01*
X568069Y258478D01*
X568023Y258566D01*
X567980Y258656D01*
X567941Y258747D01*
X567906Y258840D01*
X567874Y258934D01*
X567846Y259029D01*
X567821Y259125D01*
X567801Y259222D01*
X567783Y259320D01*
X567770Y259418D01*
X567761Y259517D01*
X567755Y259616D01*
X567753Y259715D01*
X572516Y255588D02*
X572600Y255536D01*
X572683Y255481D01*
X572763Y255422D01*
X572841Y255361D01*
X572916Y255297D01*
X572989Y255229D01*
X573060Y255159D01*
X573127Y255087D01*
X573192Y255012D01*
X573254Y254934D01*
X573313Y254854D01*
X573369Y254772D01*
X573421Y254688D01*
X573470Y254602D01*
X573516Y254514D01*
X573559Y254424D01*
X573598Y254333D01*
X573633Y254240D01*
X573665Y254146D01*
X573693Y254051D01*
X573718Y253955D01*
X573738Y253858D01*
X573756Y253760D01*
X573769Y253662D01*
X573778Y253563D01*
X573784Y253464D01*
X573786Y253365D01*
X572516Y255588D02*
X569024Y257493D01*
X577850Y262255D02*
X581660Y250825D01*
X585470Y262255D01*
X593408Y262256D02*
X593512Y262254D01*
X593617Y262248D01*
X593721Y262239D01*
X593824Y262226D01*
X593927Y262208D01*
X594029Y262188D01*
X594131Y262163D01*
X594231Y262135D01*
X594331Y262103D01*
X594429Y262067D01*
X594526Y262028D01*
X594621Y261986D01*
X594715Y261940D01*
X594807Y261890D01*
X594897Y261838D01*
X594985Y261782D01*
X595071Y261722D01*
X595155Y261660D01*
X595236Y261595D01*
X595315Y261527D01*
X595392Y261455D01*
X595465Y261382D01*
X595537Y261305D01*
X595605Y261226D01*
X595670Y261145D01*
X595732Y261061D01*
X595792Y260975D01*
X595848Y260887D01*
X595900Y260797D01*
X595950Y260705D01*
X595996Y260611D01*
X596038Y260516D01*
X596077Y260419D01*
X596113Y260321D01*
X596145Y260221D01*
X596173Y260121D01*
X596198Y260019D01*
X596218Y259917D01*
X596236Y259814D01*
X596249Y259711D01*
X596258Y259607D01*
X596264Y259502D01*
X596266Y259398D01*
X593408Y262255D02*
X593290Y262253D01*
X593171Y262247D01*
X593053Y262238D01*
X592936Y262225D01*
X592819Y262207D01*
X592702Y262187D01*
X592586Y262162D01*
X592471Y262134D01*
X592358Y262101D01*
X592245Y262066D01*
X592133Y262026D01*
X592023Y261984D01*
X591914Y261937D01*
X591806Y261887D01*
X591701Y261834D01*
X591597Y261777D01*
X591495Y261717D01*
X591395Y261654D01*
X591297Y261587D01*
X591201Y261518D01*
X591108Y261445D01*
X591017Y261369D01*
X590928Y261291D01*
X590842Y261209D01*
X590759Y261125D01*
X590678Y261039D01*
X590601Y260949D01*
X590526Y260858D01*
X590454Y260764D01*
X590385Y260667D01*
X590320Y260569D01*
X590257Y260468D01*
X590198Y260365D01*
X590142Y260261D01*
X590090Y260155D01*
X590041Y260047D01*
X589996Y259938D01*
X589954Y259827D01*
X589916Y259715D01*
X595313Y257176D02*
X595389Y257251D01*
X595464Y257330D01*
X595535Y257411D01*
X595604Y257495D01*
X595669Y257581D01*
X595731Y257669D01*
X595791Y257759D01*
X595847Y257851D01*
X595900Y257946D01*
X595949Y258042D01*
X595995Y258140D01*
X596038Y258239D01*
X596077Y258340D01*
X596112Y258442D01*
X596144Y258545D01*
X596172Y258649D01*
X596197Y258754D01*
X596218Y258861D01*
X596235Y258967D01*
X596248Y259074D01*
X596257Y259182D01*
X596263Y259290D01*
X596265Y259398D01*
X595313Y257175D02*
X589915Y250825D01*
X596265Y250825D01*
M02*
