G04 EAGLE Gerber RS-274X export*
G75*
%MOMM*%
%FSLAX34Y34*%
%LPD*%
%INSilkscreen Top*%
%IPPOS*%
%AMOC8*
5,1,8,0,0,1.08239X$1,22.5*%
G01*
%ADD10C,0.127000*%
%ADD11C,0.200000*%
%ADD12C,0.050800*%
%ADD13C,0.152400*%
%ADD14C,0.101600*%


D10*
X186000Y127800D02*
X186000Y122800D01*
X68000Y122800D01*
X68000Y128800D01*
X186000Y226800D02*
X186000Y232800D01*
X68000Y232800D01*
X68000Y226800D01*
D11*
X190000Y127800D02*
X190002Y127863D01*
X190008Y127925D01*
X190018Y127987D01*
X190031Y128049D01*
X190049Y128109D01*
X190070Y128168D01*
X190095Y128226D01*
X190124Y128282D01*
X190156Y128336D01*
X190191Y128388D01*
X190229Y128437D01*
X190271Y128485D01*
X190315Y128529D01*
X190363Y128571D01*
X190412Y128609D01*
X190464Y128644D01*
X190518Y128676D01*
X190574Y128705D01*
X190632Y128730D01*
X190691Y128751D01*
X190751Y128769D01*
X190813Y128782D01*
X190875Y128792D01*
X190937Y128798D01*
X191000Y128800D01*
X191063Y128798D01*
X191125Y128792D01*
X191187Y128782D01*
X191249Y128769D01*
X191309Y128751D01*
X191368Y128730D01*
X191426Y128705D01*
X191482Y128676D01*
X191536Y128644D01*
X191588Y128609D01*
X191637Y128571D01*
X191685Y128529D01*
X191729Y128485D01*
X191771Y128437D01*
X191809Y128388D01*
X191844Y128336D01*
X191876Y128282D01*
X191905Y128226D01*
X191930Y128168D01*
X191951Y128109D01*
X191969Y128049D01*
X191982Y127987D01*
X191992Y127925D01*
X191998Y127863D01*
X192000Y127800D01*
X191998Y127737D01*
X191992Y127675D01*
X191982Y127613D01*
X191969Y127551D01*
X191951Y127491D01*
X191930Y127432D01*
X191905Y127374D01*
X191876Y127318D01*
X191844Y127264D01*
X191809Y127212D01*
X191771Y127163D01*
X191729Y127115D01*
X191685Y127071D01*
X191637Y127029D01*
X191588Y126991D01*
X191536Y126956D01*
X191482Y126924D01*
X191426Y126895D01*
X191368Y126870D01*
X191309Y126849D01*
X191249Y126831D01*
X191187Y126818D01*
X191125Y126808D01*
X191063Y126802D01*
X191000Y126800D01*
X190937Y126802D01*
X190875Y126808D01*
X190813Y126818D01*
X190751Y126831D01*
X190691Y126849D01*
X190632Y126870D01*
X190574Y126895D01*
X190518Y126924D01*
X190464Y126956D01*
X190412Y126991D01*
X190363Y127029D01*
X190315Y127071D01*
X190271Y127115D01*
X190229Y127163D01*
X190191Y127212D01*
X190156Y127264D01*
X190124Y127318D01*
X190095Y127374D01*
X190070Y127432D01*
X190049Y127491D01*
X190031Y127551D01*
X190018Y127613D01*
X190008Y127675D01*
X190002Y127737D01*
X190000Y127800D01*
D12*
X181592Y120271D02*
X181592Y116225D01*
X181594Y116147D01*
X181600Y116070D01*
X181609Y115993D01*
X181623Y115917D01*
X181640Y115841D01*
X181661Y115766D01*
X181686Y115693D01*
X181714Y115621D01*
X181746Y115550D01*
X181781Y115481D01*
X181820Y115414D01*
X181862Y115348D01*
X181908Y115285D01*
X181956Y115225D01*
X182007Y115167D01*
X182062Y115111D01*
X182118Y115058D01*
X182178Y115008D01*
X182240Y114962D01*
X182304Y114918D01*
X182370Y114877D01*
X182438Y114840D01*
X182508Y114807D01*
X182580Y114777D01*
X182652Y114750D01*
X182727Y114727D01*
X182802Y114708D01*
X182878Y114693D01*
X182955Y114681D01*
X183032Y114673D01*
X183109Y114669D01*
X183187Y114669D01*
X183264Y114673D01*
X183341Y114681D01*
X183418Y114693D01*
X183494Y114708D01*
X183569Y114727D01*
X183644Y114750D01*
X183716Y114777D01*
X183788Y114807D01*
X183858Y114840D01*
X183926Y114877D01*
X183992Y114918D01*
X184056Y114962D01*
X184118Y115008D01*
X184178Y115058D01*
X184234Y115111D01*
X184289Y115167D01*
X184340Y115225D01*
X184388Y115285D01*
X184434Y115348D01*
X184476Y115414D01*
X184515Y115481D01*
X184550Y115550D01*
X184582Y115621D01*
X184610Y115693D01*
X184635Y115766D01*
X184656Y115841D01*
X184673Y115917D01*
X184687Y115993D01*
X184696Y116070D01*
X184702Y116147D01*
X184704Y116225D01*
X184704Y120271D01*
X187274Y119026D02*
X188829Y120271D01*
X188829Y114669D01*
X187274Y114669D02*
X190385Y114669D01*
D13*
X25400Y247650D02*
X25400Y260350D01*
X31750Y266700D01*
X44450Y266700D02*
X50800Y260350D01*
X31750Y266700D02*
X25400Y273050D01*
X25400Y285750D01*
X31750Y292100D01*
X44450Y292100D02*
X50800Y285750D01*
X50800Y273050D01*
X44450Y266700D01*
X44450Y241300D02*
X31750Y241300D01*
X25400Y247650D01*
X44450Y241300D02*
X50800Y247650D01*
X50800Y260350D01*
X31750Y292100D02*
X25400Y298450D01*
X25400Y311150D01*
X31750Y317500D01*
X44450Y317500D02*
X50800Y311150D01*
X50800Y298450D01*
X44450Y292100D01*
X25400Y323850D02*
X25400Y336550D01*
X31750Y342900D01*
X44450Y342900D01*
X50800Y336550D01*
X31750Y317500D02*
X25400Y323850D01*
X44450Y317500D02*
X50800Y323850D01*
X50800Y336550D01*
D10*
X32385Y233680D02*
X34925Y230505D01*
X32385Y233680D02*
X43815Y233680D01*
X43815Y230505D02*
X43815Y236855D01*
X41275Y346075D02*
X32385Y348615D01*
X41275Y346075D02*
X41275Y352425D01*
X38735Y350520D02*
X43815Y350520D01*
X27686Y227965D02*
X27684Y227865D01*
X27678Y227766D01*
X27668Y227666D01*
X27655Y227568D01*
X27637Y227469D01*
X27616Y227372D01*
X27591Y227276D01*
X27562Y227180D01*
X27529Y227086D01*
X27493Y226993D01*
X27453Y226902D01*
X27409Y226812D01*
X27362Y226724D01*
X27312Y226638D01*
X27258Y226554D01*
X27201Y226472D01*
X27141Y226393D01*
X27077Y226315D01*
X27011Y226241D01*
X26942Y226169D01*
X26870Y226100D01*
X26796Y226034D01*
X26718Y225970D01*
X26639Y225910D01*
X26557Y225853D01*
X26473Y225799D01*
X26387Y225749D01*
X26299Y225702D01*
X26209Y225658D01*
X26118Y225618D01*
X26025Y225582D01*
X25931Y225549D01*
X25835Y225520D01*
X25739Y225495D01*
X25642Y225474D01*
X25543Y225456D01*
X25445Y225443D01*
X25345Y225433D01*
X25246Y225427D01*
X25146Y225425D01*
X25005Y225427D01*
X24864Y225432D01*
X24723Y225442D01*
X24582Y225455D01*
X24442Y225471D01*
X24302Y225492D01*
X24163Y225516D01*
X24024Y225544D01*
X23887Y225575D01*
X23750Y225610D01*
X23614Y225648D01*
X23479Y225690D01*
X23346Y225736D01*
X23213Y225785D01*
X23082Y225838D01*
X22953Y225894D01*
X22824Y225953D01*
X22698Y226016D01*
X22573Y226082D01*
X22450Y226151D01*
X22329Y226224D01*
X22210Y226300D01*
X22092Y226379D01*
X21977Y226460D01*
X21865Y226545D01*
X21754Y226633D01*
X21646Y226724D01*
X21540Y226817D01*
X21437Y226914D01*
X21336Y227013D01*
X21654Y234315D02*
X21656Y234415D01*
X21662Y234514D01*
X21672Y234614D01*
X21685Y234712D01*
X21703Y234811D01*
X21724Y234908D01*
X21749Y235004D01*
X21778Y235100D01*
X21811Y235194D01*
X21847Y235287D01*
X21887Y235378D01*
X21931Y235468D01*
X21978Y235556D01*
X22028Y235642D01*
X22082Y235726D01*
X22139Y235808D01*
X22199Y235887D01*
X22263Y235965D01*
X22329Y236039D01*
X22398Y236111D01*
X22470Y236180D01*
X22544Y236246D01*
X22622Y236310D01*
X22701Y236370D01*
X22783Y236427D01*
X22867Y236481D01*
X22953Y236531D01*
X23041Y236578D01*
X23131Y236622D01*
X23222Y236662D01*
X23315Y236698D01*
X23409Y236731D01*
X23505Y236760D01*
X23601Y236785D01*
X23698Y236806D01*
X23797Y236824D01*
X23895Y236837D01*
X23995Y236847D01*
X24094Y236853D01*
X24194Y236855D01*
X24194Y236856D02*
X24327Y236854D01*
X24460Y236849D01*
X24593Y236839D01*
X24726Y236826D01*
X24858Y236809D01*
X24990Y236789D01*
X25121Y236765D01*
X25251Y236737D01*
X25381Y236706D01*
X25509Y236671D01*
X25637Y236632D01*
X25763Y236590D01*
X25888Y236544D01*
X26012Y236495D01*
X26135Y236443D01*
X26256Y236387D01*
X26375Y236327D01*
X26493Y236265D01*
X26608Y236199D01*
X26722Y236130D01*
X26834Y236057D01*
X26944Y235982D01*
X27052Y235903D01*
X22923Y232092D02*
X22839Y232144D01*
X22756Y232199D01*
X22676Y232258D01*
X22598Y232319D01*
X22523Y232383D01*
X22450Y232451D01*
X22379Y232521D01*
X22312Y232593D01*
X22247Y232668D01*
X22185Y232746D01*
X22126Y232826D01*
X22070Y232908D01*
X22018Y232992D01*
X21969Y233078D01*
X21923Y233166D01*
X21880Y233256D01*
X21841Y233347D01*
X21806Y233440D01*
X21774Y233534D01*
X21746Y233629D01*
X21721Y233725D01*
X21701Y233822D01*
X21683Y233920D01*
X21670Y234018D01*
X21661Y234117D01*
X21655Y234216D01*
X21653Y234315D01*
X26416Y230188D02*
X26500Y230136D01*
X26583Y230081D01*
X26663Y230022D01*
X26741Y229961D01*
X26816Y229897D01*
X26889Y229829D01*
X26960Y229759D01*
X27027Y229687D01*
X27092Y229612D01*
X27154Y229534D01*
X27213Y229454D01*
X27269Y229372D01*
X27321Y229288D01*
X27370Y229202D01*
X27416Y229114D01*
X27459Y229024D01*
X27498Y228933D01*
X27533Y228840D01*
X27565Y228746D01*
X27593Y228651D01*
X27618Y228555D01*
X27638Y228458D01*
X27656Y228360D01*
X27669Y228262D01*
X27678Y228163D01*
X27684Y228064D01*
X27686Y227965D01*
X26416Y230188D02*
X22924Y232093D01*
X31750Y236855D02*
X35560Y225425D01*
X39370Y236855D01*
X43815Y234315D02*
X46990Y236855D01*
X46990Y225425D01*
X43815Y225425D02*
X50165Y225425D01*
D14*
X64008Y311658D02*
X75692Y311658D01*
X64008Y311658D02*
X64008Y314904D01*
X64010Y315017D01*
X64016Y315130D01*
X64026Y315243D01*
X64040Y315356D01*
X64057Y315468D01*
X64079Y315579D01*
X64104Y315689D01*
X64134Y315799D01*
X64167Y315907D01*
X64204Y316014D01*
X64244Y316120D01*
X64289Y316224D01*
X64337Y316327D01*
X64388Y316428D01*
X64443Y316527D01*
X64501Y316624D01*
X64563Y316719D01*
X64628Y316812D01*
X64696Y316902D01*
X64767Y316990D01*
X64842Y317076D01*
X64919Y317159D01*
X64999Y317239D01*
X65082Y317316D01*
X65168Y317391D01*
X65256Y317462D01*
X65346Y317530D01*
X65439Y317595D01*
X65534Y317657D01*
X65631Y317715D01*
X65730Y317770D01*
X65831Y317821D01*
X65934Y317869D01*
X66038Y317914D01*
X66144Y317954D01*
X66251Y317991D01*
X66359Y318024D01*
X66469Y318054D01*
X66579Y318079D01*
X66690Y318101D01*
X66802Y318118D01*
X66915Y318132D01*
X67028Y318142D01*
X67141Y318148D01*
X67254Y318150D01*
X67367Y318148D01*
X67480Y318142D01*
X67593Y318132D01*
X67706Y318118D01*
X67818Y318101D01*
X67929Y318079D01*
X68039Y318054D01*
X68149Y318024D01*
X68257Y317991D01*
X68364Y317954D01*
X68470Y317914D01*
X68574Y317869D01*
X68677Y317821D01*
X68778Y317770D01*
X68877Y317715D01*
X68974Y317657D01*
X69069Y317595D01*
X69162Y317530D01*
X69252Y317462D01*
X69340Y317391D01*
X69426Y317316D01*
X69509Y317239D01*
X69589Y317159D01*
X69666Y317076D01*
X69741Y316990D01*
X69812Y316902D01*
X69880Y316812D01*
X69945Y316719D01*
X70007Y316624D01*
X70065Y316527D01*
X70120Y316428D01*
X70171Y316327D01*
X70219Y316224D01*
X70264Y316120D01*
X70304Y316014D01*
X70341Y315907D01*
X70374Y315799D01*
X70404Y315689D01*
X70429Y315579D01*
X70451Y315468D01*
X70468Y315356D01*
X70482Y315243D01*
X70492Y315130D01*
X70498Y315017D01*
X70500Y314904D01*
X70499Y314904D02*
X70499Y311658D01*
X70499Y315553D02*
X75692Y318149D01*
X66604Y323014D02*
X64008Y326260D01*
X75692Y326260D01*
X75692Y329505D02*
X75692Y323014D01*
X152908Y305495D02*
X164592Y305495D01*
X152908Y305495D02*
X152908Y308740D01*
X152910Y308853D01*
X152916Y308966D01*
X152926Y309079D01*
X152940Y309192D01*
X152957Y309304D01*
X152979Y309415D01*
X153004Y309525D01*
X153034Y309635D01*
X153067Y309743D01*
X153104Y309850D01*
X153144Y309956D01*
X153189Y310060D01*
X153237Y310163D01*
X153288Y310264D01*
X153343Y310363D01*
X153401Y310460D01*
X153463Y310555D01*
X153528Y310648D01*
X153596Y310738D01*
X153667Y310826D01*
X153742Y310912D01*
X153819Y310995D01*
X153899Y311075D01*
X153982Y311152D01*
X154068Y311227D01*
X154156Y311298D01*
X154246Y311366D01*
X154339Y311431D01*
X154434Y311493D01*
X154531Y311551D01*
X154630Y311606D01*
X154731Y311657D01*
X154834Y311705D01*
X154938Y311750D01*
X155044Y311790D01*
X155151Y311827D01*
X155259Y311860D01*
X155369Y311890D01*
X155479Y311915D01*
X155590Y311937D01*
X155702Y311954D01*
X155815Y311968D01*
X155928Y311978D01*
X156041Y311984D01*
X156154Y311986D01*
X156267Y311984D01*
X156380Y311978D01*
X156493Y311968D01*
X156606Y311954D01*
X156718Y311937D01*
X156829Y311915D01*
X156939Y311890D01*
X157049Y311860D01*
X157157Y311827D01*
X157264Y311790D01*
X157370Y311750D01*
X157474Y311705D01*
X157577Y311657D01*
X157678Y311606D01*
X157777Y311551D01*
X157874Y311493D01*
X157969Y311431D01*
X158062Y311366D01*
X158152Y311298D01*
X158240Y311227D01*
X158326Y311152D01*
X158409Y311075D01*
X158489Y310995D01*
X158566Y310912D01*
X158641Y310826D01*
X158712Y310738D01*
X158780Y310648D01*
X158845Y310555D01*
X158907Y310460D01*
X158965Y310363D01*
X159020Y310264D01*
X159071Y310163D01*
X159119Y310060D01*
X159164Y309956D01*
X159204Y309850D01*
X159241Y309743D01*
X159274Y309635D01*
X159304Y309525D01*
X159329Y309415D01*
X159351Y309304D01*
X159368Y309192D01*
X159382Y309079D01*
X159392Y308966D01*
X159398Y308853D01*
X159400Y308740D01*
X159399Y308740D02*
X159399Y305495D01*
X159399Y309389D02*
X164592Y311986D01*
X155829Y323342D02*
X155722Y323340D01*
X155616Y323334D01*
X155510Y323324D01*
X155404Y323311D01*
X155298Y323293D01*
X155194Y323272D01*
X155090Y323247D01*
X154987Y323218D01*
X154886Y323186D01*
X154786Y323149D01*
X154687Y323109D01*
X154589Y323066D01*
X154493Y323019D01*
X154399Y322968D01*
X154307Y322914D01*
X154217Y322857D01*
X154129Y322797D01*
X154044Y322733D01*
X153961Y322666D01*
X153880Y322596D01*
X153802Y322524D01*
X153726Y322448D01*
X153654Y322370D01*
X153584Y322289D01*
X153517Y322206D01*
X153453Y322121D01*
X153393Y322033D01*
X153336Y321943D01*
X153282Y321851D01*
X153231Y321757D01*
X153184Y321661D01*
X153141Y321563D01*
X153101Y321464D01*
X153064Y321364D01*
X153032Y321263D01*
X153003Y321160D01*
X152978Y321056D01*
X152957Y320952D01*
X152939Y320846D01*
X152926Y320740D01*
X152916Y320634D01*
X152910Y320528D01*
X152908Y320421D01*
X152910Y320300D01*
X152916Y320179D01*
X152926Y320059D01*
X152939Y319938D01*
X152957Y319819D01*
X152978Y319699D01*
X153003Y319581D01*
X153032Y319464D01*
X153065Y319347D01*
X153101Y319232D01*
X153142Y319118D01*
X153185Y319005D01*
X153233Y318893D01*
X153284Y318784D01*
X153339Y318676D01*
X153397Y318569D01*
X153458Y318465D01*
X153523Y318363D01*
X153591Y318263D01*
X153662Y318165D01*
X153736Y318069D01*
X153813Y317976D01*
X153894Y317886D01*
X153977Y317798D01*
X154063Y317713D01*
X154152Y317630D01*
X154243Y317551D01*
X154337Y317474D01*
X154433Y317401D01*
X154531Y317331D01*
X154632Y317264D01*
X154735Y317200D01*
X154840Y317140D01*
X154947Y317082D01*
X155055Y317029D01*
X155165Y316979D01*
X155277Y316933D01*
X155390Y316890D01*
X155505Y316851D01*
X158101Y322368D02*
X158023Y322447D01*
X157943Y322523D01*
X157860Y322596D01*
X157774Y322666D01*
X157687Y322733D01*
X157596Y322797D01*
X157504Y322857D01*
X157410Y322915D01*
X157313Y322969D01*
X157215Y323019D01*
X157115Y323066D01*
X157014Y323110D01*
X156911Y323150D01*
X156806Y323186D01*
X156701Y323218D01*
X156594Y323247D01*
X156487Y323272D01*
X156378Y323294D01*
X156269Y323311D01*
X156160Y323325D01*
X156050Y323334D01*
X155939Y323340D01*
X155829Y323342D01*
X158101Y322368D02*
X164592Y316851D01*
X164592Y323342D01*
X113792Y268036D02*
X113792Y265439D01*
X113790Y265340D01*
X113784Y265240D01*
X113775Y265141D01*
X113762Y265043D01*
X113745Y264945D01*
X113724Y264847D01*
X113699Y264751D01*
X113671Y264656D01*
X113639Y264562D01*
X113604Y264469D01*
X113565Y264377D01*
X113522Y264287D01*
X113477Y264199D01*
X113427Y264112D01*
X113375Y264028D01*
X113319Y263945D01*
X113261Y263865D01*
X113199Y263787D01*
X113134Y263712D01*
X113066Y263639D01*
X112996Y263569D01*
X112923Y263501D01*
X112848Y263436D01*
X112770Y263374D01*
X112690Y263316D01*
X112607Y263260D01*
X112523Y263208D01*
X112436Y263158D01*
X112348Y263113D01*
X112258Y263070D01*
X112166Y263031D01*
X112073Y262996D01*
X111979Y262964D01*
X111884Y262936D01*
X111788Y262911D01*
X111690Y262890D01*
X111592Y262873D01*
X111494Y262860D01*
X111395Y262851D01*
X111295Y262845D01*
X111196Y262843D01*
X104704Y262843D01*
X104704Y262842D02*
X104605Y262844D01*
X104505Y262850D01*
X104406Y262859D01*
X104308Y262872D01*
X104210Y262890D01*
X104112Y262910D01*
X104016Y262935D01*
X103920Y262963D01*
X103826Y262995D01*
X103733Y263030D01*
X103642Y263069D01*
X103552Y263112D01*
X103463Y263157D01*
X103377Y263207D01*
X103292Y263259D01*
X103210Y263315D01*
X103130Y263374D01*
X103052Y263435D01*
X102976Y263500D01*
X102903Y263568D01*
X102833Y263638D01*
X102765Y263711D01*
X102700Y263787D01*
X102639Y263865D01*
X102580Y263945D01*
X102524Y264027D01*
X102472Y264112D01*
X102423Y264198D01*
X102377Y264287D01*
X102334Y264377D01*
X102295Y264468D01*
X102260Y264561D01*
X102228Y264655D01*
X102200Y264751D01*
X102175Y264847D01*
X102155Y264945D01*
X102137Y265043D01*
X102124Y265141D01*
X102115Y265240D01*
X102109Y265339D01*
X102107Y265439D01*
X102108Y265439D02*
X102108Y268036D01*
X104704Y272401D02*
X102108Y275646D01*
X113792Y275646D01*
X113792Y272401D02*
X113792Y278892D01*
X164592Y268036D02*
X164592Y265439D01*
X164590Y265340D01*
X164584Y265240D01*
X164575Y265141D01*
X164562Y265043D01*
X164545Y264945D01*
X164524Y264847D01*
X164499Y264751D01*
X164471Y264656D01*
X164439Y264562D01*
X164404Y264469D01*
X164365Y264377D01*
X164322Y264287D01*
X164277Y264199D01*
X164227Y264112D01*
X164175Y264028D01*
X164119Y263945D01*
X164061Y263865D01*
X163999Y263787D01*
X163934Y263712D01*
X163866Y263639D01*
X163796Y263569D01*
X163723Y263501D01*
X163648Y263436D01*
X163570Y263374D01*
X163490Y263316D01*
X163407Y263260D01*
X163323Y263208D01*
X163236Y263158D01*
X163148Y263113D01*
X163058Y263070D01*
X162966Y263031D01*
X162873Y262996D01*
X162779Y262964D01*
X162684Y262936D01*
X162588Y262911D01*
X162490Y262890D01*
X162392Y262873D01*
X162294Y262860D01*
X162195Y262851D01*
X162095Y262845D01*
X161996Y262843D01*
X155504Y262843D01*
X155504Y262842D02*
X155405Y262844D01*
X155305Y262850D01*
X155206Y262859D01*
X155108Y262872D01*
X155010Y262890D01*
X154912Y262910D01*
X154816Y262935D01*
X154720Y262963D01*
X154626Y262995D01*
X154533Y263030D01*
X154442Y263069D01*
X154352Y263112D01*
X154263Y263157D01*
X154177Y263207D01*
X154092Y263259D01*
X154010Y263315D01*
X153930Y263374D01*
X153852Y263435D01*
X153776Y263500D01*
X153703Y263568D01*
X153633Y263638D01*
X153565Y263711D01*
X153500Y263787D01*
X153439Y263865D01*
X153380Y263945D01*
X153324Y264027D01*
X153272Y264112D01*
X153223Y264198D01*
X153177Y264287D01*
X153134Y264377D01*
X153095Y264468D01*
X153060Y264561D01*
X153028Y264655D01*
X153000Y264751D01*
X152975Y264847D01*
X152955Y264945D01*
X152937Y265043D01*
X152924Y265141D01*
X152915Y265240D01*
X152909Y265339D01*
X152907Y265439D01*
X152908Y265439D02*
X152908Y268036D01*
X152908Y275971D02*
X152910Y276078D01*
X152916Y276184D01*
X152926Y276290D01*
X152939Y276396D01*
X152957Y276502D01*
X152978Y276606D01*
X153003Y276710D01*
X153032Y276813D01*
X153064Y276914D01*
X153101Y277014D01*
X153141Y277113D01*
X153184Y277211D01*
X153231Y277307D01*
X153282Y277401D01*
X153336Y277493D01*
X153393Y277583D01*
X153453Y277671D01*
X153517Y277756D01*
X153584Y277839D01*
X153654Y277920D01*
X153726Y277998D01*
X153802Y278074D01*
X153880Y278146D01*
X153961Y278216D01*
X154044Y278283D01*
X154129Y278347D01*
X154217Y278407D01*
X154307Y278464D01*
X154399Y278518D01*
X154493Y278569D01*
X154589Y278616D01*
X154687Y278659D01*
X154786Y278699D01*
X154886Y278736D01*
X154987Y278768D01*
X155090Y278797D01*
X155194Y278822D01*
X155298Y278843D01*
X155404Y278861D01*
X155510Y278874D01*
X155616Y278884D01*
X155722Y278890D01*
X155829Y278892D01*
X152908Y275971D02*
X152910Y275850D01*
X152916Y275729D01*
X152926Y275609D01*
X152939Y275488D01*
X152957Y275369D01*
X152978Y275249D01*
X153003Y275131D01*
X153032Y275014D01*
X153065Y274897D01*
X153101Y274782D01*
X153142Y274668D01*
X153185Y274555D01*
X153233Y274443D01*
X153284Y274334D01*
X153339Y274226D01*
X153397Y274119D01*
X153458Y274015D01*
X153523Y273913D01*
X153591Y273813D01*
X153662Y273715D01*
X153736Y273619D01*
X153813Y273526D01*
X153894Y273436D01*
X153977Y273348D01*
X154063Y273263D01*
X154152Y273180D01*
X154243Y273101D01*
X154337Y273024D01*
X154433Y272951D01*
X154531Y272881D01*
X154632Y272814D01*
X154735Y272750D01*
X154840Y272690D01*
X154947Y272632D01*
X155055Y272579D01*
X155165Y272529D01*
X155277Y272483D01*
X155390Y272440D01*
X155505Y272401D01*
X158101Y277918D02*
X158023Y277997D01*
X157943Y278073D01*
X157860Y278146D01*
X157774Y278216D01*
X157687Y278283D01*
X157596Y278347D01*
X157504Y278407D01*
X157410Y278465D01*
X157313Y278519D01*
X157215Y278569D01*
X157115Y278616D01*
X157014Y278660D01*
X156911Y278700D01*
X156806Y278736D01*
X156701Y278768D01*
X156594Y278797D01*
X156487Y278822D01*
X156378Y278844D01*
X156269Y278861D01*
X156160Y278875D01*
X156050Y278884D01*
X155939Y278890D01*
X155829Y278892D01*
X158101Y277918D02*
X164592Y272401D01*
X164592Y278892D01*
X228092Y268036D02*
X228092Y265439D01*
X228090Y265340D01*
X228084Y265240D01*
X228075Y265141D01*
X228062Y265043D01*
X228045Y264945D01*
X228024Y264847D01*
X227999Y264751D01*
X227971Y264656D01*
X227939Y264562D01*
X227904Y264469D01*
X227865Y264377D01*
X227822Y264287D01*
X227777Y264199D01*
X227727Y264112D01*
X227675Y264028D01*
X227619Y263945D01*
X227561Y263865D01*
X227499Y263787D01*
X227434Y263712D01*
X227366Y263639D01*
X227296Y263569D01*
X227223Y263501D01*
X227148Y263436D01*
X227070Y263374D01*
X226990Y263316D01*
X226907Y263260D01*
X226823Y263208D01*
X226736Y263158D01*
X226648Y263113D01*
X226558Y263070D01*
X226466Y263031D01*
X226373Y262996D01*
X226279Y262964D01*
X226184Y262936D01*
X226088Y262911D01*
X225990Y262890D01*
X225892Y262873D01*
X225794Y262860D01*
X225695Y262851D01*
X225595Y262845D01*
X225496Y262843D01*
X219004Y262843D01*
X219004Y262842D02*
X218905Y262844D01*
X218805Y262850D01*
X218706Y262859D01*
X218608Y262872D01*
X218510Y262890D01*
X218412Y262910D01*
X218316Y262935D01*
X218220Y262963D01*
X218126Y262995D01*
X218033Y263030D01*
X217942Y263069D01*
X217852Y263112D01*
X217763Y263157D01*
X217677Y263207D01*
X217592Y263259D01*
X217510Y263315D01*
X217430Y263374D01*
X217352Y263435D01*
X217276Y263500D01*
X217203Y263568D01*
X217133Y263638D01*
X217065Y263711D01*
X217000Y263787D01*
X216939Y263865D01*
X216880Y263945D01*
X216824Y264027D01*
X216772Y264112D01*
X216723Y264198D01*
X216677Y264287D01*
X216634Y264377D01*
X216595Y264468D01*
X216560Y264561D01*
X216528Y264655D01*
X216500Y264751D01*
X216475Y264847D01*
X216455Y264945D01*
X216437Y265043D01*
X216424Y265141D01*
X216415Y265240D01*
X216409Y265339D01*
X216407Y265439D01*
X216408Y265439D02*
X216408Y268036D01*
X228092Y272401D02*
X228092Y275646D01*
X228090Y275759D01*
X228084Y275872D01*
X228074Y275985D01*
X228060Y276098D01*
X228043Y276210D01*
X228021Y276321D01*
X227996Y276431D01*
X227966Y276541D01*
X227933Y276649D01*
X227896Y276756D01*
X227856Y276862D01*
X227811Y276966D01*
X227763Y277069D01*
X227712Y277170D01*
X227657Y277269D01*
X227599Y277366D01*
X227537Y277461D01*
X227472Y277554D01*
X227404Y277644D01*
X227333Y277732D01*
X227258Y277818D01*
X227181Y277901D01*
X227101Y277981D01*
X227018Y278058D01*
X226932Y278133D01*
X226844Y278204D01*
X226754Y278272D01*
X226661Y278337D01*
X226566Y278399D01*
X226469Y278457D01*
X226370Y278512D01*
X226269Y278563D01*
X226166Y278611D01*
X226062Y278656D01*
X225956Y278696D01*
X225849Y278733D01*
X225741Y278766D01*
X225631Y278796D01*
X225521Y278821D01*
X225410Y278843D01*
X225298Y278860D01*
X225185Y278874D01*
X225072Y278884D01*
X224959Y278890D01*
X224846Y278892D01*
X224733Y278890D01*
X224620Y278884D01*
X224507Y278874D01*
X224394Y278860D01*
X224282Y278843D01*
X224171Y278821D01*
X224061Y278796D01*
X223951Y278766D01*
X223843Y278733D01*
X223736Y278696D01*
X223630Y278656D01*
X223526Y278611D01*
X223423Y278563D01*
X223322Y278512D01*
X223223Y278457D01*
X223126Y278399D01*
X223031Y278337D01*
X222938Y278272D01*
X222848Y278204D01*
X222760Y278133D01*
X222674Y278058D01*
X222591Y277981D01*
X222511Y277901D01*
X222434Y277818D01*
X222359Y277732D01*
X222288Y277644D01*
X222220Y277554D01*
X222155Y277461D01*
X222093Y277366D01*
X222035Y277269D01*
X221980Y277170D01*
X221929Y277069D01*
X221881Y276966D01*
X221836Y276862D01*
X221796Y276756D01*
X221759Y276649D01*
X221726Y276541D01*
X221696Y276431D01*
X221671Y276321D01*
X221649Y276210D01*
X221632Y276098D01*
X221618Y275985D01*
X221608Y275872D01*
X221602Y275759D01*
X221600Y275646D01*
X216408Y276296D02*
X216408Y272401D01*
X216408Y276296D02*
X216410Y276397D01*
X216416Y276497D01*
X216426Y276597D01*
X216439Y276697D01*
X216457Y276796D01*
X216478Y276895D01*
X216503Y276992D01*
X216532Y277089D01*
X216565Y277184D01*
X216601Y277278D01*
X216641Y277370D01*
X216684Y277461D01*
X216731Y277550D01*
X216781Y277637D01*
X216835Y277723D01*
X216892Y277806D01*
X216952Y277886D01*
X217015Y277965D01*
X217082Y278041D01*
X217151Y278114D01*
X217223Y278184D01*
X217297Y278252D01*
X217374Y278317D01*
X217454Y278378D01*
X217536Y278437D01*
X217620Y278492D01*
X217706Y278544D01*
X217794Y278593D01*
X217884Y278638D01*
X217976Y278680D01*
X218069Y278718D01*
X218164Y278752D01*
X218259Y278783D01*
X218356Y278810D01*
X218454Y278833D01*
X218553Y278853D01*
X218653Y278868D01*
X218753Y278880D01*
X218853Y278888D01*
X218954Y278892D01*
X219054Y278892D01*
X219155Y278888D01*
X219255Y278880D01*
X219355Y278868D01*
X219455Y278853D01*
X219554Y278833D01*
X219652Y278810D01*
X219749Y278783D01*
X219844Y278752D01*
X219939Y278718D01*
X220032Y278680D01*
X220124Y278638D01*
X220214Y278593D01*
X220302Y278544D01*
X220388Y278492D01*
X220472Y278437D01*
X220554Y278378D01*
X220634Y278317D01*
X220711Y278252D01*
X220785Y278184D01*
X220857Y278114D01*
X220926Y278041D01*
X220993Y277965D01*
X221056Y277886D01*
X221116Y277806D01*
X221173Y277723D01*
X221227Y277637D01*
X221277Y277550D01*
X221324Y277461D01*
X221367Y277370D01*
X221407Y277278D01*
X221443Y277184D01*
X221476Y277089D01*
X221505Y276992D01*
X221530Y276895D01*
X221551Y276796D01*
X221569Y276697D01*
X221582Y276597D01*
X221592Y276497D01*
X221598Y276397D01*
X221600Y276296D01*
X221601Y276296D02*
X221601Y273699D01*
D10*
X216200Y330500D02*
X190200Y330500D01*
D14*
X179535Y336649D02*
X179535Y345748D01*
X179535Y336649D02*
X179533Y336549D01*
X179527Y336450D01*
X179518Y336351D01*
X179505Y336252D01*
X179487Y336154D01*
X179467Y336057D01*
X179442Y335960D01*
X179414Y335865D01*
X179382Y335770D01*
X179347Y335677D01*
X179308Y335585D01*
X179265Y335495D01*
X179219Y335407D01*
X179170Y335320D01*
X179117Y335236D01*
X179062Y335153D01*
X179003Y335073D01*
X178941Y334995D01*
X178876Y334919D01*
X178808Y334846D01*
X178738Y334776D01*
X178665Y334708D01*
X178589Y334643D01*
X178511Y334581D01*
X178431Y334522D01*
X178348Y334467D01*
X178264Y334414D01*
X178177Y334365D01*
X178089Y334319D01*
X177999Y334276D01*
X177907Y334237D01*
X177814Y334202D01*
X177719Y334170D01*
X177624Y334142D01*
X177527Y334117D01*
X177430Y334097D01*
X177332Y334079D01*
X177233Y334066D01*
X177134Y334057D01*
X177035Y334051D01*
X176935Y334049D01*
X175636Y334049D01*
X188388Y345748D02*
X188495Y345746D01*
X188602Y345740D01*
X188708Y345730D01*
X188814Y345717D01*
X188919Y345699D01*
X189024Y345678D01*
X189128Y345653D01*
X189231Y345624D01*
X189332Y345591D01*
X189433Y345555D01*
X189532Y345515D01*
X189630Y345471D01*
X189725Y345424D01*
X189820Y345374D01*
X189912Y345320D01*
X190002Y345262D01*
X190090Y345202D01*
X190176Y345138D01*
X190259Y345071D01*
X190340Y345001D01*
X190418Y344929D01*
X190494Y344853D01*
X190566Y344775D01*
X190636Y344694D01*
X190703Y344611D01*
X190767Y344525D01*
X190827Y344437D01*
X190885Y344347D01*
X190939Y344255D01*
X190989Y344160D01*
X191036Y344065D01*
X191080Y343967D01*
X191120Y343868D01*
X191156Y343767D01*
X191189Y343666D01*
X191218Y343563D01*
X191243Y343459D01*
X191264Y343354D01*
X191282Y343249D01*
X191295Y343143D01*
X191305Y343037D01*
X191311Y342930D01*
X191313Y342823D01*
X188388Y345747D02*
X188267Y345745D01*
X188146Y345739D01*
X188025Y345729D01*
X187905Y345716D01*
X187785Y345698D01*
X187666Y345677D01*
X187547Y345652D01*
X187430Y345623D01*
X187313Y345590D01*
X187197Y345553D01*
X187083Y345513D01*
X186970Y345469D01*
X186859Y345422D01*
X186749Y345371D01*
X186641Y345316D01*
X186534Y345258D01*
X186430Y345197D01*
X186328Y345132D01*
X186228Y345064D01*
X186130Y344992D01*
X186034Y344918D01*
X185941Y344841D01*
X185850Y344760D01*
X185762Y344677D01*
X185677Y344591D01*
X185594Y344502D01*
X185515Y344411D01*
X185438Y344317D01*
X185365Y344221D01*
X185294Y344122D01*
X185227Y344021D01*
X185164Y343918D01*
X185103Y343813D01*
X185046Y343706D01*
X184992Y343598D01*
X184942Y343487D01*
X184896Y343376D01*
X184853Y343262D01*
X184814Y343148D01*
X190338Y340548D02*
X190417Y340626D01*
X190493Y340707D01*
X190566Y340790D01*
X190636Y340875D01*
X190703Y340963D01*
X190767Y341053D01*
X190828Y341146D01*
X190885Y341240D01*
X190939Y341337D01*
X190990Y341435D01*
X191037Y341535D01*
X191080Y341637D01*
X191120Y341740D01*
X191157Y341844D01*
X191189Y341950D01*
X191218Y342057D01*
X191243Y342164D01*
X191264Y342273D01*
X191282Y342382D01*
X191295Y342492D01*
X191305Y342602D01*
X191311Y342712D01*
X191313Y342823D01*
X190338Y340548D02*
X184814Y334049D01*
X191313Y334049D01*
X139192Y293436D02*
X139192Y290839D01*
X139190Y290740D01*
X139184Y290640D01*
X139175Y290541D01*
X139162Y290443D01*
X139145Y290345D01*
X139124Y290247D01*
X139099Y290151D01*
X139071Y290056D01*
X139039Y289962D01*
X139004Y289869D01*
X138965Y289777D01*
X138922Y289687D01*
X138877Y289599D01*
X138827Y289512D01*
X138775Y289428D01*
X138719Y289345D01*
X138661Y289265D01*
X138599Y289187D01*
X138534Y289112D01*
X138466Y289039D01*
X138396Y288969D01*
X138323Y288901D01*
X138248Y288836D01*
X138170Y288774D01*
X138090Y288716D01*
X138007Y288660D01*
X137923Y288608D01*
X137836Y288558D01*
X137748Y288513D01*
X137658Y288470D01*
X137566Y288431D01*
X137473Y288396D01*
X137379Y288364D01*
X137284Y288336D01*
X137188Y288311D01*
X137090Y288290D01*
X136992Y288273D01*
X136894Y288260D01*
X136795Y288251D01*
X136695Y288245D01*
X136596Y288243D01*
X130104Y288243D01*
X130104Y288242D02*
X130005Y288244D01*
X129905Y288250D01*
X129806Y288259D01*
X129708Y288272D01*
X129610Y288290D01*
X129512Y288310D01*
X129416Y288335D01*
X129320Y288363D01*
X129226Y288395D01*
X129133Y288430D01*
X129042Y288469D01*
X128952Y288512D01*
X128863Y288557D01*
X128777Y288607D01*
X128692Y288659D01*
X128610Y288715D01*
X128530Y288774D01*
X128452Y288835D01*
X128376Y288900D01*
X128303Y288968D01*
X128233Y289038D01*
X128165Y289111D01*
X128100Y289187D01*
X128039Y289265D01*
X127980Y289345D01*
X127924Y289427D01*
X127872Y289512D01*
X127823Y289598D01*
X127777Y289687D01*
X127734Y289777D01*
X127695Y289868D01*
X127660Y289961D01*
X127628Y290055D01*
X127600Y290151D01*
X127575Y290247D01*
X127555Y290345D01*
X127537Y290443D01*
X127524Y290541D01*
X127515Y290640D01*
X127509Y290739D01*
X127507Y290839D01*
X127508Y290839D02*
X127508Y293436D01*
X127508Y300397D02*
X136596Y297801D01*
X136596Y304292D01*
X133999Y302345D02*
X139192Y302345D01*
X102295Y318008D02*
X102295Y329692D01*
X105540Y329692D01*
X105653Y329690D01*
X105766Y329684D01*
X105879Y329674D01*
X105992Y329660D01*
X106104Y329643D01*
X106215Y329621D01*
X106325Y329596D01*
X106435Y329566D01*
X106543Y329533D01*
X106650Y329496D01*
X106756Y329456D01*
X106860Y329411D01*
X106963Y329363D01*
X107064Y329312D01*
X107163Y329257D01*
X107260Y329199D01*
X107355Y329137D01*
X107448Y329072D01*
X107538Y329004D01*
X107626Y328933D01*
X107712Y328858D01*
X107795Y328781D01*
X107875Y328701D01*
X107952Y328618D01*
X108027Y328532D01*
X108098Y328444D01*
X108166Y328354D01*
X108231Y328261D01*
X108293Y328166D01*
X108351Y328069D01*
X108406Y327970D01*
X108457Y327869D01*
X108505Y327766D01*
X108550Y327662D01*
X108590Y327556D01*
X108627Y327449D01*
X108660Y327341D01*
X108690Y327231D01*
X108715Y327121D01*
X108737Y327010D01*
X108754Y326898D01*
X108768Y326785D01*
X108778Y326672D01*
X108784Y326559D01*
X108786Y326446D01*
X108784Y326333D01*
X108778Y326220D01*
X108768Y326107D01*
X108754Y325994D01*
X108737Y325882D01*
X108715Y325771D01*
X108690Y325661D01*
X108660Y325551D01*
X108627Y325443D01*
X108590Y325336D01*
X108550Y325230D01*
X108505Y325126D01*
X108457Y325023D01*
X108406Y324922D01*
X108351Y324823D01*
X108293Y324726D01*
X108231Y324631D01*
X108166Y324538D01*
X108098Y324448D01*
X108027Y324360D01*
X107952Y324274D01*
X107875Y324191D01*
X107795Y324111D01*
X107712Y324034D01*
X107626Y323959D01*
X107538Y323888D01*
X107448Y323820D01*
X107355Y323755D01*
X107260Y323693D01*
X107163Y323635D01*
X107064Y323580D01*
X106963Y323529D01*
X106860Y323481D01*
X106756Y323436D01*
X106650Y323396D01*
X106543Y323359D01*
X106435Y323326D01*
X106325Y323296D01*
X106215Y323271D01*
X106104Y323249D01*
X105992Y323232D01*
X105879Y323218D01*
X105766Y323208D01*
X105653Y323202D01*
X105540Y323200D01*
X105540Y323201D02*
X102295Y323201D01*
X106189Y323201D02*
X108786Y318008D01*
X113651Y318008D02*
X116896Y318008D01*
X117009Y318010D01*
X117122Y318016D01*
X117235Y318026D01*
X117348Y318040D01*
X117460Y318057D01*
X117571Y318079D01*
X117681Y318104D01*
X117791Y318134D01*
X117899Y318167D01*
X118006Y318204D01*
X118112Y318244D01*
X118216Y318289D01*
X118319Y318337D01*
X118420Y318388D01*
X118519Y318443D01*
X118616Y318501D01*
X118711Y318563D01*
X118804Y318628D01*
X118894Y318696D01*
X118982Y318767D01*
X119068Y318842D01*
X119151Y318919D01*
X119231Y318999D01*
X119308Y319082D01*
X119383Y319168D01*
X119454Y319256D01*
X119522Y319346D01*
X119587Y319439D01*
X119649Y319534D01*
X119707Y319631D01*
X119762Y319730D01*
X119813Y319831D01*
X119861Y319934D01*
X119906Y320038D01*
X119946Y320144D01*
X119983Y320251D01*
X120016Y320359D01*
X120046Y320469D01*
X120071Y320579D01*
X120093Y320690D01*
X120110Y320802D01*
X120124Y320915D01*
X120134Y321028D01*
X120140Y321141D01*
X120142Y321254D01*
X120140Y321367D01*
X120134Y321480D01*
X120124Y321593D01*
X120110Y321706D01*
X120093Y321818D01*
X120071Y321929D01*
X120046Y322039D01*
X120016Y322149D01*
X119983Y322257D01*
X119946Y322364D01*
X119906Y322470D01*
X119861Y322574D01*
X119813Y322677D01*
X119762Y322778D01*
X119707Y322877D01*
X119649Y322974D01*
X119587Y323069D01*
X119522Y323162D01*
X119454Y323252D01*
X119383Y323340D01*
X119308Y323426D01*
X119231Y323509D01*
X119151Y323589D01*
X119068Y323666D01*
X118982Y323741D01*
X118894Y323812D01*
X118804Y323880D01*
X118711Y323945D01*
X118616Y324007D01*
X118519Y324065D01*
X118420Y324120D01*
X118319Y324171D01*
X118216Y324219D01*
X118112Y324264D01*
X118006Y324304D01*
X117899Y324341D01*
X117791Y324374D01*
X117681Y324404D01*
X117571Y324429D01*
X117460Y324451D01*
X117348Y324468D01*
X117235Y324482D01*
X117122Y324492D01*
X117009Y324498D01*
X116896Y324500D01*
X117546Y329692D02*
X113651Y329692D01*
X117546Y329692D02*
X117647Y329690D01*
X117747Y329684D01*
X117847Y329674D01*
X117947Y329661D01*
X118046Y329643D01*
X118145Y329622D01*
X118242Y329597D01*
X118339Y329568D01*
X118434Y329535D01*
X118528Y329499D01*
X118620Y329459D01*
X118711Y329416D01*
X118800Y329369D01*
X118887Y329319D01*
X118973Y329265D01*
X119056Y329208D01*
X119136Y329148D01*
X119215Y329085D01*
X119291Y329018D01*
X119364Y328949D01*
X119434Y328877D01*
X119502Y328803D01*
X119567Y328726D01*
X119628Y328646D01*
X119687Y328564D01*
X119742Y328480D01*
X119794Y328394D01*
X119843Y328306D01*
X119888Y328216D01*
X119930Y328124D01*
X119968Y328031D01*
X120002Y327936D01*
X120033Y327841D01*
X120060Y327744D01*
X120083Y327646D01*
X120103Y327547D01*
X120118Y327447D01*
X120130Y327347D01*
X120138Y327247D01*
X120142Y327146D01*
X120142Y327046D01*
X120138Y326945D01*
X120130Y326845D01*
X120118Y326745D01*
X120103Y326645D01*
X120083Y326546D01*
X120060Y326448D01*
X120033Y326351D01*
X120002Y326256D01*
X119968Y326161D01*
X119930Y326068D01*
X119888Y325976D01*
X119843Y325886D01*
X119794Y325798D01*
X119742Y325712D01*
X119687Y325628D01*
X119628Y325546D01*
X119567Y325466D01*
X119502Y325389D01*
X119434Y325315D01*
X119364Y325243D01*
X119291Y325174D01*
X119215Y325107D01*
X119136Y325044D01*
X119056Y324984D01*
X118973Y324927D01*
X118887Y324873D01*
X118800Y324823D01*
X118711Y324776D01*
X118620Y324733D01*
X118528Y324693D01*
X118434Y324657D01*
X118339Y324624D01*
X118242Y324595D01*
X118145Y324570D01*
X118046Y324549D01*
X117947Y324531D01*
X117847Y324518D01*
X117747Y324508D01*
X117647Y324502D01*
X117546Y324500D01*
X117546Y324499D02*
X114949Y324499D01*
M02*
