G04 EAGLE Gerber RS-274X export*
G75*
%MOMM*%
%FSLAX34Y34*%
%LPD*%
%INSoldermask Top*%
%IPPOS*%
%AMOC8*
5,1,8,0,0,1.08239X$1,22.5*%
G01*
%ADD10R,1.303200X0.803200*%
%ADD11C,1.727200*%
%ADD12R,1.703200X1.503200*%
%ADD13R,1.303200X2.453200*%
%ADD14R,1.253200X1.303200*%


D10*
X184000Y133800D03*
X184000Y141800D03*
X184000Y149800D03*
X184000Y157800D03*
X184000Y165800D03*
X184000Y173800D03*
X184000Y181800D03*
X184000Y189800D03*
X184000Y197800D03*
X184000Y205800D03*
X184000Y213800D03*
X184000Y221800D03*
X70000Y221800D03*
X70000Y213800D03*
X70000Y205800D03*
X70000Y197800D03*
X70000Y189800D03*
X70000Y181800D03*
X70000Y173800D03*
X70000Y165800D03*
X70000Y157800D03*
X70000Y149800D03*
X70000Y141800D03*
X70000Y133800D03*
D11*
X45720Y254000D02*
X30480Y254000D01*
X30480Y279400D02*
X45720Y279400D01*
X45720Y304800D02*
X30480Y304800D01*
X30480Y330200D02*
X45720Y330200D01*
D12*
X88900Y308000D03*
X88900Y327000D03*
X139700Y327000D03*
X139700Y308000D03*
X88900Y276200D03*
X88900Y257200D03*
X139700Y276200D03*
X139700Y257200D03*
X203200Y276200D03*
X203200Y257200D03*
D13*
X188450Y317500D03*
X217950Y317500D03*
D14*
X203200Y302000D03*
D12*
X114300Y301600D03*
X114300Y282600D03*
M02*
