M48
;GenerationSoftware,Autodesk,EAGLE,9.5.1*%
;CreationDate,2019-10-03T13:38:36Z*%
FMAT,2
ICI,OFF
METRIC,TZ,000.000
T1C1.016
%
G90
M71
T1
X39370Y50800
X36830Y50800
X39370Y53340
X36830Y53340
X39370Y55880
X36830Y55880
X39370Y58420
X36830Y58420
X39370Y60960
X36830Y60960
X77470Y63500
X74930Y63500
X49530Y50800
X52070Y50800
X71120Y33020
X71120Y30480
X71120Y27940
X71120Y25400
X71120Y22860
X71120Y20320
X71120Y17780
X62230Y25400
X62230Y22860
X62230Y20320
X62230Y17780
X78740Y17780
X78740Y20320
X78740Y22860
X78740Y25400
X86360Y17780
X86360Y20320
X86360Y22860
X86360Y25400
X58979Y46711
X58979Y42189
X65481Y46711
X65481Y42189
M30