G04 EAGLE Gerber RS-274X export*
G75*
%MOMM*%
%FSLAX34Y34*%
%LPD*%
%INSoldermask Top*%
%IPPOS*%
%AMOC8*
5,1,8,0,0,1.08239X$1,22.5*%
G01*
%ADD10R,1.503200X1.703200*%
%ADD11R,1.253200X1.203200*%
%ADD12R,2.403200X1.253200*%
%ADD13R,1.253200X2.153200*%
%ADD14C,1.524000*%


D10*
X231800Y419100D03*
X250800Y419100D03*
X231800Y469900D03*
X250800Y469900D03*
X231800Y444500D03*
X250800Y444500D03*
D11*
X53350Y431800D03*
D12*
X38100Y417050D03*
X38100Y446550D03*
D13*
X197000Y620100D03*
X177000Y620100D03*
X157000Y620100D03*
X137000Y620100D03*
X117000Y620100D03*
X97000Y620100D03*
X77000Y620100D03*
X57000Y620100D03*
X57000Y472100D03*
X77000Y472100D03*
X97000Y472100D03*
X117000Y472100D03*
X137000Y472100D03*
X157000Y472100D03*
X177000Y472100D03*
X197000Y472100D03*
D14*
X88900Y666496D02*
X88900Y679704D01*
X114300Y679704D02*
X114300Y666496D01*
X139700Y666496D02*
X139700Y679704D01*
X165100Y679704D02*
X165100Y666496D01*
X190500Y666496D02*
X190500Y679704D01*
X88900Y425704D02*
X88900Y412496D01*
X114300Y412496D02*
X114300Y425704D01*
X139700Y425704D02*
X139700Y412496D01*
X165100Y412496D02*
X165100Y425704D01*
X190500Y425704D02*
X190500Y412496D01*
M02*
