G04 EAGLE Gerber RS-274X export*
G75*
%MOMM*%
%FSLAX34Y34*%
%LPD*%
%INSoldermask Top*%
%IPPOS*%
%AMOC8*
5,1,8,0,0,1.08239X$1,22.5*%
G01*
%ADD10C,3.203200*%
%ADD11C,1.727200*%
%ADD12R,1.503200X1.703200*%
%ADD13R,1.703200X1.503200*%
%ADD14R,1.403200X0.753200*%
%ADD15R,1.678200X0.503200*%
%ADD16R,0.503200X1.678200*%
%ADD17P,1.869504X8X112.500000*%
%ADD18R,2.103200X1.303200*%


D10*
X533400Y533400D03*
X127000Y533400D03*
X127000Y-25400D03*
X533400Y-25400D03*
D11*
X457200Y436880D02*
X457200Y452120D01*
X482600Y452120D02*
X482600Y436880D01*
X508000Y436880D02*
X508000Y452120D01*
X533400Y452120D02*
X533400Y436880D01*
D12*
X166980Y292100D03*
X147980Y292100D03*
X166980Y215900D03*
X147980Y215900D03*
D13*
X228600Y346100D03*
X228600Y365100D03*
D12*
X219100Y58420D03*
X238100Y58420D03*
D13*
X203200Y346100D03*
X203200Y365100D03*
X279400Y320700D03*
X279400Y339700D03*
X254000Y346100D03*
X254000Y365100D03*
D11*
X228600Y134620D02*
X228600Y119380D01*
X203200Y119380D02*
X203200Y134620D01*
X177800Y134620D02*
X177800Y119380D01*
X152400Y119380D02*
X152400Y134620D01*
X386080Y419100D02*
X401320Y419100D01*
X401320Y393700D02*
X386080Y393700D01*
X386080Y368300D02*
X401320Y368300D01*
X401320Y342900D02*
X386080Y342900D01*
D14*
X164799Y73000D03*
X164799Y63500D03*
X164799Y54000D03*
X190801Y54000D03*
X190801Y73000D03*
D15*
X224320Y268800D03*
X224320Y263800D03*
X224320Y258800D03*
X224320Y253800D03*
X224320Y248800D03*
X224320Y243800D03*
X224320Y238800D03*
X224320Y233800D03*
X224320Y228800D03*
X224320Y223800D03*
X224320Y218800D03*
X224320Y213800D03*
D16*
X239200Y198920D03*
X244200Y198920D03*
X249200Y198920D03*
X254200Y198920D03*
X259200Y198920D03*
X264200Y198920D03*
X269200Y198920D03*
X274200Y198920D03*
X279200Y198920D03*
X284200Y198920D03*
X289200Y198920D03*
X294200Y198920D03*
D15*
X309080Y213800D03*
X309080Y218800D03*
X309080Y223800D03*
X309080Y228800D03*
X309080Y233800D03*
X309080Y238800D03*
X309080Y243800D03*
X309080Y248800D03*
X309080Y253800D03*
X309080Y258800D03*
X309080Y263800D03*
X309080Y268800D03*
D16*
X294200Y283680D03*
X289200Y283680D03*
X284200Y283680D03*
X279200Y283680D03*
X274200Y283680D03*
X269200Y283680D03*
X264200Y283680D03*
X259200Y283680D03*
X254200Y283680D03*
X249200Y283680D03*
X244200Y283680D03*
X239200Y283680D03*
D11*
X165100Y20320D02*
X165100Y5080D01*
X139700Y5080D02*
X139700Y20320D01*
X431800Y17780D02*
X431800Y33020D01*
X457200Y33020D02*
X457200Y17780D01*
X482600Y17780D02*
X482600Y33020D01*
X508000Y33020D02*
X508000Y17780D01*
X533400Y17780D02*
X533400Y33020D01*
X431800Y271780D02*
X431800Y287020D01*
X457200Y287020D02*
X457200Y271780D01*
X482600Y271780D02*
X482600Y287020D01*
X508000Y287020D02*
X508000Y271780D01*
X533400Y271780D02*
X533400Y287020D01*
D13*
X330200Y320700D03*
X330200Y339700D03*
X304800Y339700D03*
X304800Y320700D03*
D11*
X347980Y393700D02*
X363220Y393700D01*
X363220Y419100D02*
X347980Y419100D01*
X314706Y456692D02*
X314706Y471932D01*
X269494Y471932D02*
X269494Y456692D01*
X314706Y406908D02*
X314706Y391668D01*
X269494Y391668D02*
X269494Y406908D01*
D17*
X228600Y406400D03*
X203200Y406400D03*
X228600Y431800D03*
X203200Y431800D03*
X228600Y457200D03*
X203200Y457200D03*
X228600Y482600D03*
X203200Y482600D03*
X228600Y508000D03*
X203200Y508000D03*
D18*
X165100Y266500D03*
X165100Y241500D03*
M02*
